G04 Layer_Color=65535*
%FSLAX25Y25*%
%MOIN*%
G70*
G01*
G75*
%ADD34C,0.00787*%
%ADD35C,0.01575*%
%ADD36C,0.00984*%
%ADD37C,0.00591*%
%ADD53C,0.00394*%
G36*
X9027Y142744D02*
X9231D01*
Y142642D01*
X9333D01*
Y142540D01*
X9435D01*
Y142438D01*
X9640D01*
Y142336D01*
X9742D01*
Y142234D01*
X9844D01*
Y142132D01*
X10048D01*
Y142030D01*
X10150D01*
Y141928D01*
X10252D01*
Y141826D01*
X10354D01*
Y141724D01*
X10558D01*
Y141622D01*
X10660D01*
Y141520D01*
X10762D01*
Y141418D01*
X10966D01*
Y141316D01*
X11068D01*
Y141214D01*
X11170D01*
Y141112D01*
X11374D01*
Y141010D01*
X11476D01*
Y140908D01*
X11578D01*
Y140806D01*
X11680D01*
Y140704D01*
X11884D01*
Y140602D01*
X11986D01*
Y140500D01*
X12088D01*
Y140398D01*
X12292D01*
Y140296D01*
X12394D01*
Y140193D01*
X12496D01*
Y140092D01*
X12700D01*
Y139989D01*
X12802D01*
Y139887D01*
X12905D01*
Y139785D01*
X13007D01*
Y139683D01*
X13211D01*
Y139581D01*
X13313D01*
Y139479D01*
X13415D01*
Y139377D01*
X13619D01*
Y139275D01*
X13721D01*
Y139173D01*
X13823D01*
Y139071D01*
X14027D01*
Y138969D01*
X14129D01*
Y138867D01*
X14231D01*
Y138765D01*
X14333D01*
Y138663D01*
X14537D01*
Y138561D01*
X14639D01*
Y138459D01*
X14741D01*
Y138357D01*
X14945D01*
Y138255D01*
X15047D01*
Y138153D01*
X15149D01*
Y138051D01*
X15353D01*
Y137949D01*
X15455D01*
Y137847D01*
X15557D01*
Y137745D01*
X15659D01*
Y137643D01*
X15864D01*
Y137541D01*
X15966D01*
Y137439D01*
X16068D01*
Y137337D01*
X16272D01*
Y137235D01*
X16374D01*
Y137133D01*
X16476D01*
Y137030D01*
X16578D01*
Y136928D01*
X16884D01*
Y137030D01*
X17088D01*
Y137133D01*
X17292D01*
Y137235D01*
X17496D01*
Y137337D01*
X17700D01*
Y137439D01*
X17802D01*
Y137541D01*
X18006D01*
Y137643D01*
X18210D01*
Y137745D01*
X18414D01*
Y137847D01*
X18618D01*
Y137949D01*
X18822D01*
Y138051D01*
X19026D01*
Y138153D01*
X19230D01*
Y138255D01*
X19333D01*
Y138357D01*
X19537D01*
Y138459D01*
X19741D01*
Y138561D01*
X19945D01*
Y138663D01*
X20149D01*
Y138765D01*
X20353D01*
Y138867D01*
X20557D01*
Y138969D01*
X20761D01*
Y139071D01*
X20863D01*
Y139173D01*
X21067D01*
Y139275D01*
X21271D01*
Y139377D01*
X21475D01*
Y139479D01*
X21679D01*
Y139581D01*
X21883D01*
Y139683D01*
X22087D01*
Y139785D01*
X22291D01*
Y139887D01*
X22393D01*
Y139989D01*
X22598D01*
Y140092D01*
X22802D01*
Y140193D01*
X23006D01*
Y140296D01*
X23210D01*
Y140398D01*
X23312D01*
Y134378D01*
X23108D01*
Y134276D01*
X22904D01*
Y134174D01*
X22598D01*
Y134072D01*
X22291D01*
Y133969D01*
X22087D01*
Y133868D01*
X21781D01*
Y133765D01*
X21475D01*
Y133663D01*
X21169D01*
Y133561D01*
X20965D01*
Y133459D01*
X20659D01*
Y133357D01*
X20353D01*
Y133255D01*
X20251D01*
Y133051D01*
X20455D01*
Y132949D01*
X20557D01*
Y132847D01*
X20761D01*
Y132745D01*
X20863D01*
Y132643D01*
X21067D01*
Y132541D01*
X21169D01*
Y132439D01*
X21271D01*
Y132337D01*
X21475D01*
Y132235D01*
X21577D01*
Y132133D01*
X21781D01*
Y132031D01*
X21883D01*
Y131929D01*
X22087D01*
Y131827D01*
X22189D01*
Y131725D01*
X22393D01*
Y131623D01*
X22496D01*
Y131521D01*
X22700D01*
Y131419D01*
X22802D01*
Y131317D01*
X22904D01*
Y131215D01*
X23108D01*
Y131113D01*
X23210D01*
Y131011D01*
X23312D01*
Y124787D01*
X23210D01*
Y124889D01*
X23108D01*
Y124991D01*
X23006D01*
Y125093D01*
X22802D01*
Y125195D01*
X22700D01*
Y125297D01*
X22598D01*
Y125399D01*
X22496D01*
Y125501D01*
X22291D01*
Y125603D01*
X22189D01*
Y125705D01*
X22087D01*
Y125807D01*
X21883D01*
Y125909D01*
X21781D01*
Y126011D01*
X21679D01*
Y126113D01*
X21577D01*
Y126215D01*
X21373D01*
Y126317D01*
X21271D01*
Y126419D01*
X21169D01*
Y126521D01*
X20965D01*
Y126623D01*
X20863D01*
Y126725D01*
X20761D01*
Y126827D01*
X20659D01*
Y126929D01*
X20455D01*
Y127031D01*
X20353D01*
Y127133D01*
X20251D01*
Y127235D01*
X20047D01*
Y127337D01*
X19945D01*
Y127439D01*
X19843D01*
Y127541D01*
X19741D01*
Y127644D01*
X19537D01*
Y127746D01*
X19435D01*
Y127848D01*
X19333D01*
Y127950D01*
X19230D01*
Y128052D01*
X19026D01*
Y128154D01*
X18924D01*
Y128256D01*
X18822D01*
Y128358D01*
X18618D01*
Y128460D01*
X18516D01*
Y128562D01*
X18414D01*
Y128664D01*
X18312D01*
Y128766D01*
X18108D01*
Y128868D01*
X18006D01*
Y128970D01*
X17904D01*
Y129072D01*
X17700D01*
Y129174D01*
X17598D01*
Y129276D01*
X17496D01*
Y129378D01*
X17394D01*
Y129480D01*
X17190D01*
Y129582D01*
X17088D01*
Y129684D01*
X16986D01*
Y129786D01*
X16782D01*
Y129888D01*
X16680D01*
Y129990D01*
X16578D01*
Y130092D01*
X16476D01*
Y130194D01*
X16272D01*
Y130296D01*
X16170D01*
Y130398D01*
X16068D01*
Y130500D01*
X15966D01*
Y130603D01*
X15864D01*
Y130704D01*
X15557D01*
Y130603D01*
X15455D01*
Y130500D01*
X15251D01*
Y130398D01*
X15047D01*
Y130296D01*
X14843D01*
Y130194D01*
X14639D01*
Y130092D01*
X14537D01*
Y129990D01*
X14333D01*
Y129888D01*
X14129D01*
Y129786D01*
X13925D01*
Y129684D01*
X13721D01*
Y129582D01*
X13517D01*
Y129480D01*
X13313D01*
Y129378D01*
X13109D01*
Y129276D01*
X13007D01*
Y129174D01*
X12802D01*
Y129072D01*
X12598D01*
Y128970D01*
X12394D01*
Y128868D01*
X12190D01*
Y128766D01*
X11986D01*
Y128664D01*
X11782D01*
Y128562D01*
X11578D01*
Y128460D01*
X11476D01*
Y128358D01*
X11272D01*
Y128256D01*
X11068D01*
Y128154D01*
X10864D01*
Y128052D01*
X10660D01*
Y127950D01*
X10456D01*
Y127848D01*
X10252D01*
Y127746D01*
X10150D01*
Y127644D01*
X9946D01*
Y127541D01*
X9742D01*
Y127439D01*
X9538D01*
Y127337D01*
X9333D01*
Y127235D01*
X9129D01*
Y127133D01*
X9027D01*
Y127031D01*
X8925D01*
Y133357D01*
X9231D01*
Y133459D01*
X9538D01*
Y133561D01*
X9844D01*
Y133663D01*
X10150D01*
Y133765D01*
X10558D01*
Y133868D01*
X10762D01*
Y133969D01*
X11068D01*
Y134072D01*
X11476D01*
Y134174D01*
X11782D01*
Y134276D01*
X12088D01*
Y134378D01*
X12190D01*
Y134582D01*
X11986D01*
Y134684D01*
X11884D01*
Y134786D01*
X11680D01*
Y134888D01*
X11578D01*
Y134990D01*
X11374D01*
Y135092D01*
X11272D01*
Y135194D01*
X11068D01*
Y135296D01*
X10966D01*
Y135398D01*
X10762D01*
Y135500D01*
X10660D01*
Y135602D01*
X10456D01*
Y135704D01*
X10354D01*
Y135806D01*
X10150D01*
Y135908D01*
X10048D01*
Y136010D01*
X9844D01*
Y136112D01*
X9640D01*
Y136214D01*
X9538D01*
Y136316D01*
X9333D01*
Y136418D01*
X9231D01*
Y136520D01*
X9027D01*
Y136622D01*
X8925D01*
Y142846D01*
X9027D01*
Y142744D01*
D02*
G37*
G36*
X11068Y125399D02*
X11680D01*
Y125297D01*
X12190D01*
Y125195D01*
X12496D01*
Y125093D01*
X12905D01*
Y124991D01*
X13211D01*
Y124889D01*
X13517D01*
Y124787D01*
X13823D01*
Y124685D01*
X14027D01*
Y124583D01*
X14333D01*
Y124480D01*
X14537D01*
Y124379D01*
X14843D01*
Y124276D01*
X15047D01*
Y124174D01*
X15353D01*
Y124072D01*
X15557D01*
Y123970D01*
X15864D01*
Y123868D01*
X16068D01*
Y123766D01*
X16374D01*
Y123664D01*
X16578D01*
Y123562D01*
X16884D01*
Y123460D01*
X17088D01*
Y123358D01*
X17394D01*
Y123256D01*
X17598D01*
Y123154D01*
X17904D01*
Y123052D01*
X18108D01*
Y122950D01*
X18414D01*
Y122848D01*
X18618D01*
Y122746D01*
X18924D01*
Y122644D01*
X19128D01*
Y122542D01*
X19435D01*
Y122440D01*
X19639D01*
Y122338D01*
X19945D01*
Y122236D01*
X20149D01*
Y122134D01*
X20455D01*
Y122032D01*
X20659D01*
Y121930D01*
X20863D01*
Y121828D01*
X21169D01*
Y121726D01*
X21373D01*
Y121624D01*
X21679D01*
Y121522D01*
X21985D01*
Y121420D01*
X22189D01*
Y121318D01*
X22393D01*
Y121215D01*
X22700D01*
Y121114D01*
X22904D01*
Y121011D01*
X23210D01*
Y120909D01*
X23414D01*
Y120807D01*
X23720D01*
Y120705D01*
X23924D01*
Y120603D01*
X24128D01*
Y120501D01*
X24332D01*
Y120399D01*
X24536D01*
Y120297D01*
X24740D01*
Y120195D01*
X24944D01*
Y120093D01*
X25148D01*
Y119991D01*
X25352D01*
Y119889D01*
X25556D01*
Y119787D01*
X25659D01*
Y119685D01*
X25863D01*
Y119583D01*
X26067D01*
Y119481D01*
X26169D01*
Y119379D01*
X26373D01*
Y119277D01*
X26577D01*
Y119175D01*
X26679D01*
Y119073D01*
X26883D01*
Y118971D01*
X26985D01*
Y118869D01*
X27087D01*
Y118767D01*
X27291D01*
Y118665D01*
X27393D01*
Y118563D01*
X27495D01*
Y118461D01*
X27699D01*
Y118359D01*
X27801D01*
Y118257D01*
X27903D01*
Y118155D01*
X28005D01*
Y118052D01*
X28107D01*
Y117950D01*
X28311D01*
Y117849D01*
X28413D01*
Y117746D01*
X28515D01*
Y117644D01*
X28618D01*
Y117542D01*
X28719D01*
Y117440D01*
X28822D01*
Y117338D01*
X28924D01*
Y117236D01*
X29026D01*
Y117134D01*
X29128D01*
Y117032D01*
X29230D01*
Y116828D01*
X29332D01*
Y116726D01*
X29434D01*
Y116624D01*
X29536D01*
Y116522D01*
X29638D01*
Y116420D01*
X29740D01*
Y116216D01*
X29842D01*
Y116114D01*
X29944D01*
Y115910D01*
X30046D01*
Y115808D01*
X30148D01*
Y115604D01*
X30250D01*
Y115502D01*
X30352D01*
Y115298D01*
X30454D01*
Y115094D01*
X30556D01*
Y114992D01*
X30658D01*
Y114787D01*
X30760D01*
Y114481D01*
X30862D01*
Y114277D01*
X30964D01*
Y114073D01*
X31066D01*
Y113767D01*
X31168D01*
Y113461D01*
X31270D01*
Y113155D01*
X31372D01*
Y112747D01*
X31474D01*
Y112339D01*
X31576D01*
Y111625D01*
X31678D01*
Y110910D01*
X28107D01*
Y111012D01*
X28005D01*
Y111216D01*
X27903D01*
Y111420D01*
X27801D01*
Y111625D01*
X27699D01*
Y111726D01*
X27597D01*
Y111931D01*
X27495D01*
Y112135D01*
X27393D01*
Y112339D01*
X27291D01*
Y112441D01*
X27189D01*
Y112645D01*
X27087D01*
Y112747D01*
X26985D01*
Y112951D01*
X26883D01*
Y113053D01*
X26781D01*
Y113155D01*
X26679D01*
Y113359D01*
X26577D01*
Y113461D01*
X26475D01*
Y113563D01*
X26373D01*
Y113665D01*
X26271D01*
Y113767D01*
X26169D01*
Y113869D01*
X26067D01*
Y113971D01*
X25965D01*
Y114073D01*
X25863D01*
Y114175D01*
X25761D01*
Y114277D01*
X25659D01*
Y114379D01*
X25556D01*
Y114481D01*
X25455D01*
Y114583D01*
X25250D01*
Y114685D01*
X25148D01*
Y114787D01*
X25046D01*
Y114890D01*
X24842D01*
Y114992D01*
X24740D01*
Y115094D01*
X24536D01*
Y115196D01*
X24434D01*
Y115298D01*
X24230D01*
Y115400D01*
X24026D01*
Y115502D01*
X23822D01*
Y115604D01*
X23618D01*
Y115706D01*
X23414D01*
Y115196D01*
X23312D01*
Y114379D01*
X23210D01*
Y113971D01*
X23108D01*
Y113665D01*
X23006D01*
Y113461D01*
X22904D01*
Y113257D01*
X22802D01*
Y113053D01*
X22700D01*
Y112849D01*
X22598D01*
Y112747D01*
X22496D01*
Y112645D01*
X22393D01*
Y112441D01*
X22189D01*
Y112339D01*
X22087D01*
Y112237D01*
X21985D01*
Y112135D01*
X21883D01*
Y112033D01*
X21679D01*
Y111931D01*
X21577D01*
Y111829D01*
X21373D01*
Y111726D01*
X21169D01*
Y111625D01*
X20863D01*
Y111522D01*
X20557D01*
Y111420D01*
X20149D01*
Y111318D01*
X19333D01*
Y111216D01*
X17700D01*
Y111114D01*
X16272D01*
Y111012D01*
X14639D01*
Y110910D01*
X13007D01*
Y110808D01*
X11476D01*
Y110706D01*
X9844D01*
Y110604D01*
X8925D01*
Y116012D01*
X11884D01*
Y116114D01*
X15966D01*
Y116216D01*
X18414D01*
Y116318D01*
X18720D01*
Y116420D01*
X18822D01*
Y116522D01*
X18924D01*
Y116624D01*
X19026D01*
Y116726D01*
X19128D01*
Y117032D01*
X19230D01*
Y117338D01*
X19026D01*
Y117440D01*
X18822D01*
Y117542D01*
X18516D01*
Y117644D01*
X18210D01*
Y117746D01*
X17904D01*
Y117849D01*
X17700D01*
Y117950D01*
X17394D01*
Y118052D01*
X17088D01*
Y118155D01*
X16782D01*
Y118257D01*
X16578D01*
Y118359D01*
X16272D01*
Y118461D01*
X15966D01*
Y118563D01*
X15659D01*
Y118665D01*
X15353D01*
Y118767D01*
X15149D01*
Y118869D01*
X14843D01*
Y118971D01*
X14537D01*
Y119073D01*
X14231D01*
Y119175D01*
X14027D01*
Y119277D01*
X13721D01*
Y119379D01*
X13415D01*
Y119481D01*
X13109D01*
Y119583D01*
X12905D01*
Y119685D01*
X12598D01*
Y119787D01*
X12292D01*
Y119889D01*
X11884D01*
Y119991D01*
X11476D01*
Y120093D01*
X11068D01*
Y120195D01*
X10558D01*
Y120297D01*
X9742D01*
Y120399D01*
X8823D01*
Y125399D01*
X8925D01*
Y125501D01*
X11068D01*
Y125399D01*
D02*
G37*
G36*
X13109Y109074D02*
X13823D01*
Y108972D01*
X14537D01*
Y108870D01*
X15149D01*
Y108768D01*
X15761D01*
Y108666D01*
X16374D01*
Y108563D01*
X17088D01*
Y108461D01*
X17700D01*
Y108360D01*
X18312D01*
Y108257D01*
X19026D01*
Y108155D01*
X19639D01*
Y108053D01*
X20251D01*
Y107951D01*
X20965D01*
Y107849D01*
X21577D01*
Y107747D01*
X22189D01*
Y107645D01*
X22904D01*
Y107543D01*
X23312D01*
Y102340D01*
X22700D01*
Y102442D01*
X22087D01*
Y102544D01*
X21475D01*
Y102646D01*
X20761D01*
Y102748D01*
X20149D01*
Y102850D01*
X19537D01*
Y102952D01*
X18822D01*
Y103054D01*
X18210D01*
Y103156D01*
X17598D01*
Y103258D01*
X16884D01*
Y103360D01*
X16272D01*
Y103462D01*
X15659D01*
Y103564D01*
X14945D01*
Y103666D01*
X14333D01*
Y103768D01*
X13721D01*
Y103870D01*
X13007D01*
Y103768D01*
X12802D01*
Y103666D01*
X12598D01*
Y103462D01*
X12496D01*
Y102237D01*
X12598D01*
Y101829D01*
X12700D01*
Y101625D01*
X12802D01*
Y101421D01*
X12905D01*
Y101319D01*
X13007D01*
Y101217D01*
X13109D01*
Y101115D01*
X13211D01*
Y101013D01*
X13313D01*
Y100911D01*
X13415D01*
Y100809D01*
X13925D01*
Y100707D01*
X14537D01*
Y100605D01*
X15149D01*
Y100503D01*
X15864D01*
Y100401D01*
X16476D01*
Y100299D01*
X17088D01*
Y100197D01*
X17802D01*
Y100095D01*
X18414D01*
Y99993D01*
X19026D01*
Y99891D01*
X19741D01*
Y99789D01*
X20353D01*
Y99687D01*
X20965D01*
Y99585D01*
X21577D01*
Y99483D01*
X22189D01*
Y99381D01*
X22904D01*
Y99279D01*
X23312D01*
Y94075D01*
X22802D01*
Y94177D01*
X22189D01*
Y94279D01*
X21475D01*
Y94381D01*
X20965D01*
Y94483D01*
X20251D01*
Y94585D01*
X19639D01*
Y94687D01*
X19026D01*
Y94789D01*
X18414D01*
Y94891D01*
X17700D01*
Y94993D01*
X17088D01*
Y95095D01*
X16476D01*
Y95197D01*
X15761D01*
Y95299D01*
X15149D01*
Y95401D01*
X14537D01*
Y95503D01*
X13823D01*
Y95605D01*
X13211D01*
Y95707D01*
X12598D01*
Y95810D01*
X11884D01*
Y95912D01*
X11272D01*
Y96014D01*
X10660D01*
Y96116D01*
X10048D01*
Y96218D01*
X9333D01*
Y96320D01*
X8721D01*
Y96422D01*
X8109D01*
Y96524D01*
X7395D01*
Y96626D01*
X6783D01*
Y96728D01*
X6170D01*
Y96830D01*
X5456D01*
Y96932D01*
X4844D01*
Y97034D01*
X4232D01*
Y97136D01*
X3620D01*
Y97238D01*
X2905D01*
Y97340D01*
X2293D01*
Y97442D01*
X1987D01*
Y102646D01*
X2191D01*
Y102544D01*
X2803D01*
Y102442D01*
X3416D01*
Y102340D01*
X4028D01*
Y102237D01*
X4742D01*
Y102136D01*
X5354D01*
Y102033D01*
X6068D01*
Y101931D01*
X6681D01*
Y101829D01*
X7293D01*
Y101727D01*
X7905D01*
Y101625D01*
X8619D01*
Y101523D01*
X9231D01*
Y101421D01*
X9844D01*
Y101319D01*
X10252D01*
Y101523D01*
X10150D01*
Y101625D01*
X10048D01*
Y101727D01*
X9946D01*
Y101931D01*
X9844D01*
Y102033D01*
X9742D01*
Y102136D01*
X9640D01*
Y102340D01*
X9538D01*
Y102442D01*
X9435D01*
Y102646D01*
X9333D01*
Y102850D01*
X9231D01*
Y103054D01*
X9129D01*
Y103258D01*
X9027D01*
Y103564D01*
X8925D01*
Y103870D01*
X8823D01*
Y104278D01*
X8721D01*
Y104992D01*
X8619D01*
Y106421D01*
X8721D01*
Y107135D01*
X8823D01*
Y107441D01*
X8925D01*
Y107747D01*
X9027D01*
Y107951D01*
X9129D01*
Y108053D01*
X9231D01*
Y108257D01*
X9333D01*
Y108360D01*
X9435D01*
Y108461D01*
X9538D01*
Y108563D01*
X9640D01*
Y108666D01*
X9742D01*
Y108768D01*
X9946D01*
Y108870D01*
X10150D01*
Y108972D01*
X10456D01*
Y109074D01*
X10864D01*
Y109176D01*
X13109D01*
Y109074D01*
D02*
G37*
G36*
X10048Y94483D02*
X10864D01*
Y94381D01*
X11374D01*
Y94279D01*
X11782D01*
Y94177D01*
X12190D01*
Y94075D01*
X12496D01*
Y93973D01*
X12802D01*
Y93871D01*
X13109D01*
Y93769D01*
X13415D01*
Y93667D01*
X13619D01*
Y93565D01*
X13823D01*
Y93463D01*
X14027D01*
Y93361D01*
X14231D01*
Y93259D01*
X14333D01*
Y93157D01*
X14537D01*
Y93055D01*
X14639D01*
Y92953D01*
X14843D01*
Y92851D01*
X14945D01*
Y92748D01*
X15047D01*
Y92646D01*
X15149D01*
Y92545D01*
X15251D01*
Y92442D01*
X15353D01*
Y92340D01*
X15455D01*
Y92238D01*
X15557D01*
Y92136D01*
X15659D01*
Y91932D01*
X15761D01*
Y91830D01*
X15864D01*
Y91626D01*
X15966D01*
Y91524D01*
X16068D01*
Y91320D01*
X16170D01*
Y91014D01*
X16272D01*
Y90708D01*
X16374D01*
Y90402D01*
X16476D01*
Y89790D01*
X16578D01*
Y87239D01*
X16476D01*
Y86321D01*
X16374D01*
Y85708D01*
X16272D01*
Y85198D01*
X16170D01*
Y84688D01*
X16068D01*
Y84382D01*
X15966D01*
Y84178D01*
X16272D01*
Y84076D01*
X16986D01*
Y83974D01*
X17598D01*
Y83872D01*
X18210D01*
Y83770D01*
X18924D01*
Y83668D01*
X19537D01*
Y83566D01*
X20149D01*
Y83464D01*
X20863D01*
Y83362D01*
X21475D01*
Y83260D01*
X22189D01*
Y83157D01*
X22802D01*
Y83056D01*
X23312D01*
Y77852D01*
X22802D01*
Y77954D01*
X22087D01*
Y78056D01*
X21475D01*
Y78158D01*
X20863D01*
Y78260D01*
X20149D01*
Y78362D01*
X19537D01*
Y78464D01*
X18924D01*
Y78566D01*
X18210D01*
Y78668D01*
X17598D01*
Y78770D01*
X16986D01*
Y78872D01*
X16272D01*
Y78974D01*
X15659D01*
Y79076D01*
X15047D01*
Y79178D01*
X14333D01*
Y79280D01*
X13721D01*
Y79382D01*
X13109D01*
Y79484D01*
X12394D01*
Y79586D01*
X11782D01*
Y79688D01*
X11170D01*
Y79791D01*
X10558D01*
Y79892D01*
X9844D01*
Y79994D01*
X9231D01*
Y80097D01*
X8619D01*
Y80199D01*
X7905D01*
Y80301D01*
X7293D01*
Y80403D01*
X6681D01*
Y80505D01*
X5966D01*
Y80607D01*
X5456D01*
Y80709D01*
X4742D01*
Y80811D01*
X4130D01*
Y80913D01*
X3416D01*
Y81015D01*
X3314D01*
Y89790D01*
X3416D01*
Y90606D01*
X3518D01*
Y91116D01*
X3620D01*
Y91422D01*
X3722D01*
Y91728D01*
X3824D01*
Y91932D01*
X3926D01*
Y92136D01*
X4028D01*
Y92340D01*
X4130D01*
Y92545D01*
X4232D01*
Y92646D01*
X4334D01*
Y92851D01*
X4436D01*
Y92953D01*
X4538D01*
Y93055D01*
X4640D01*
Y93157D01*
X4742D01*
Y93259D01*
X4844D01*
Y93361D01*
X4946D01*
Y93463D01*
X5048D01*
Y93565D01*
X5150D01*
Y93667D01*
X5354D01*
Y93769D01*
X5456D01*
Y93871D01*
X5660D01*
Y93973D01*
X5864D01*
Y94075D01*
X6068D01*
Y94177D01*
X6272D01*
Y94279D01*
X6578D01*
Y94381D01*
X6987D01*
Y94483D01*
X7497D01*
Y94585D01*
X10048D01*
Y94483D01*
D02*
G37*
G36*
X1165172Y-83717D02*
X1164886D01*
Y-84003D01*
X1164599D01*
Y-84290D01*
Y-84576D01*
X1164313D01*
Y-84862D01*
X1164027D01*
Y-85149D01*
X1163740D01*
Y-85435D01*
Y-85721D01*
X1163454D01*
Y-86007D01*
X1163168D01*
Y-86294D01*
X1162881D01*
Y-86580D01*
X1162595D01*
Y-86866D01*
Y-87153D01*
X1162309D01*
Y-87439D01*
X1162022D01*
Y-87725D01*
X1161736D01*
Y-88012D01*
Y-88298D01*
X1161450D01*
Y-88584D01*
X1161163D01*
Y-88871D01*
X1160877D01*
Y-89157D01*
X1160591D01*
Y-89443D01*
Y-89730D01*
X1160305D01*
Y-90016D01*
X1160018D01*
Y-90302D01*
X1159732D01*
Y-90588D01*
Y-90875D01*
X1159445D01*
Y-91161D01*
X1159159D01*
Y-91448D01*
X1158873D01*
Y-91734D01*
Y-92020D01*
X1158587D01*
Y-92306D01*
X1158300D01*
Y-92593D01*
X1158014D01*
Y-92879D01*
X1157728D01*
Y-93165D01*
Y-93452D01*
X1157441D01*
Y-93738D01*
X1157155D01*
Y-94024D01*
X1156869D01*
Y-94311D01*
Y-94597D01*
X1156582D01*
Y-94883D01*
X1156296D01*
Y-95170D01*
X1156010D01*
Y-95456D01*
Y-95742D01*
X1155723D01*
Y-96029D01*
X1155437D01*
Y-96315D01*
X1155151D01*
Y-96601D01*
X1154865D01*
Y-96887D01*
Y-97174D01*
X1154578D01*
Y-97460D01*
X1154292D01*
Y-97746D01*
X1154006D01*
Y-98033D01*
Y-98319D01*
X1153719D01*
Y-98605D01*
X1153433D01*
Y-98892D01*
X1153147D01*
Y-99178D01*
Y-99464D01*
X1152860D01*
Y-99751D01*
X1152574D01*
Y-100037D01*
X1152288D01*
Y-100323D01*
X1152001D01*
Y-100610D01*
Y-100896D01*
X1151715D01*
Y-101182D01*
X1151429D01*
Y-101468D01*
X1151142D01*
Y-101755D01*
Y-102041D01*
X1150856D01*
Y-102327D01*
X1150570D01*
Y-102614D01*
X1150284D01*
Y-102900D01*
X1149997D01*
Y-103186D01*
Y-103473D01*
X1150284D01*
Y-103759D01*
Y-104045D01*
X1150570D01*
Y-104332D01*
Y-104618D01*
X1150856D01*
Y-104904D01*
X1151142D01*
Y-105191D01*
Y-105477D01*
X1151429D01*
Y-105763D01*
Y-106049D01*
X1151715D01*
Y-106336D01*
Y-106622D01*
X1152001D01*
Y-106908D01*
Y-107195D01*
X1152288D01*
Y-107481D01*
Y-107767D01*
X1152574D01*
Y-108054D01*
Y-108340D01*
X1152860D01*
Y-108626D01*
Y-108913D01*
X1153147D01*
Y-109199D01*
Y-109485D01*
X1153433D01*
Y-109772D01*
X1153719D01*
Y-110058D01*
Y-110344D01*
X1154006D01*
Y-110630D01*
Y-110917D01*
X1154292D01*
Y-111203D01*
Y-111489D01*
X1154578D01*
Y-111776D01*
Y-112062D01*
X1154865D01*
Y-112348D01*
Y-112635D01*
X1155151D01*
Y-112921D01*
Y-113207D01*
X1155437D01*
Y-113494D01*
Y-113780D01*
X1155723D01*
Y-114066D01*
X1156010D01*
Y-114353D01*
Y-114639D01*
X1156296D01*
Y-114925D01*
Y-115211D01*
X1156582D01*
Y-115498D01*
Y-115784D01*
X1156869D01*
Y-116070D01*
Y-116357D01*
X1157155D01*
Y-116643D01*
Y-116929D01*
X1157441D01*
Y-117216D01*
Y-117502D01*
X1157728D01*
Y-117788D01*
Y-118075D01*
X1158014D01*
Y-118361D01*
X1158300D01*
Y-118647D01*
Y-118933D01*
X1158587D01*
Y-119220D01*
Y-119506D01*
X1158873D01*
Y-119792D01*
X1143698D01*
Y-119506D01*
X1143412D01*
Y-119220D01*
Y-118933D01*
Y-118647D01*
X1143126D01*
Y-118361D01*
Y-118075D01*
Y-117788D01*
X1142839D01*
Y-117502D01*
Y-117216D01*
X1142553D01*
Y-116929D01*
Y-116643D01*
Y-116357D01*
X1142267D01*
Y-116070D01*
Y-115784D01*
Y-115498D01*
X1141980D01*
Y-115211D01*
Y-114925D01*
X1141694D01*
Y-114639D01*
Y-114353D01*
Y-114066D01*
X1141408D01*
Y-113780D01*
Y-113494D01*
Y-113207D01*
X1141121D01*
Y-112921D01*
Y-112635D01*
Y-112348D01*
X1140835D01*
Y-112062D01*
X1140263D01*
Y-112348D01*
Y-112635D01*
X1139976D01*
Y-112921D01*
X1139690D01*
Y-113207D01*
Y-113494D01*
X1139404D01*
Y-113780D01*
X1139117D01*
Y-114066D01*
Y-114353D01*
X1138831D01*
Y-114639D01*
X1138545D01*
Y-114925D01*
Y-115211D01*
X1138258D01*
Y-115498D01*
X1137972D01*
Y-115784D01*
X1137686D01*
Y-116070D01*
Y-116357D01*
X1137399D01*
Y-116643D01*
X1137113D01*
Y-116929D01*
Y-117216D01*
X1136827D01*
Y-117502D01*
X1136541D01*
Y-117788D01*
Y-118075D01*
X1136254D01*
Y-118361D01*
X1135968D01*
Y-118647D01*
Y-118933D01*
X1135682D01*
Y-119220D01*
X1135395D01*
Y-119506D01*
Y-119792D01*
X1119362D01*
Y-119506D01*
X1119648D01*
Y-119220D01*
X1119934D01*
Y-118933D01*
X1120221D01*
Y-118647D01*
X1120507D01*
Y-118361D01*
Y-118075D01*
X1120793D01*
Y-117788D01*
X1121080D01*
Y-117502D01*
X1121366D01*
Y-117216D01*
X1121652D01*
Y-116929D01*
Y-116643D01*
X1121939D01*
Y-116357D01*
X1122225D01*
Y-116070D01*
X1122511D01*
Y-115784D01*
Y-115498D01*
X1122797D01*
Y-115211D01*
X1123084D01*
Y-114925D01*
X1123370D01*
Y-114639D01*
X1123656D01*
Y-114353D01*
Y-114066D01*
X1123943D01*
Y-113780D01*
X1124229D01*
Y-113494D01*
X1124515D01*
Y-113207D01*
X1124802D01*
Y-112921D01*
Y-112635D01*
X1125088D01*
Y-112348D01*
X1125374D01*
Y-112062D01*
X1125661D01*
Y-111776D01*
Y-111489D01*
X1125947D01*
Y-111203D01*
X1126233D01*
Y-110917D01*
X1126519D01*
Y-110630D01*
X1126806D01*
Y-110344D01*
Y-110058D01*
X1127092D01*
Y-109772D01*
X1127378D01*
Y-109485D01*
X1127665D01*
Y-109199D01*
Y-108913D01*
X1127951D01*
Y-108626D01*
X1128237D01*
Y-108340D01*
X1128524D01*
Y-108054D01*
X1128810D01*
Y-107767D01*
Y-107481D01*
X1129096D01*
Y-107195D01*
X1129383D01*
Y-106908D01*
X1129669D01*
Y-106622D01*
Y-106336D01*
X1129955D01*
Y-106049D01*
X1130242D01*
Y-105763D01*
X1130528D01*
Y-105477D01*
X1130814D01*
Y-105191D01*
Y-104904D01*
X1131100D01*
Y-104618D01*
X1131387D01*
Y-104332D01*
X1131673D01*
Y-104045D01*
X1131960D01*
Y-103759D01*
Y-103473D01*
X1132246D01*
Y-103186D01*
X1132532D01*
Y-102900D01*
X1132818D01*
Y-102614D01*
Y-102327D01*
X1133105D01*
Y-102041D01*
X1133391D01*
Y-101755D01*
X1133677D01*
Y-101468D01*
X1133964D01*
Y-101182D01*
Y-100896D01*
X1134250D01*
Y-100610D01*
Y-100323D01*
Y-100037D01*
X1133964D01*
Y-99751D01*
X1133677D01*
Y-99464D01*
Y-99178D01*
X1133391D01*
Y-98892D01*
Y-98605D01*
X1133105D01*
Y-98319D01*
Y-98033D01*
X1132818D01*
Y-97746D01*
Y-97460D01*
X1132532D01*
Y-97174D01*
Y-96887D01*
X1132246D01*
Y-96601D01*
Y-96315D01*
X1131960D01*
Y-96029D01*
X1131673D01*
Y-95742D01*
Y-95456D01*
X1131387D01*
Y-95170D01*
Y-94883D01*
X1131100D01*
Y-94597D01*
Y-94311D01*
X1130814D01*
Y-94024D01*
Y-93738D01*
X1130528D01*
Y-93452D01*
Y-93165D01*
X1130242D01*
Y-92879D01*
Y-92593D01*
X1129955D01*
Y-92306D01*
X1129669D01*
Y-92020D01*
Y-91734D01*
X1129383D01*
Y-91448D01*
Y-91161D01*
X1129096D01*
Y-90875D01*
Y-90588D01*
X1128810D01*
Y-90302D01*
Y-90016D01*
X1128524D01*
Y-89730D01*
Y-89443D01*
X1128237D01*
Y-89157D01*
Y-88871D01*
X1127951D01*
Y-88584D01*
Y-88298D01*
X1127665D01*
Y-88012D01*
X1127378D01*
Y-87725D01*
Y-87439D01*
X1127092D01*
Y-87153D01*
Y-86866D01*
X1126806D01*
Y-86580D01*
Y-86294D01*
X1126519D01*
Y-86007D01*
Y-85721D01*
X1126233D01*
Y-85435D01*
Y-85149D01*
X1125947D01*
Y-84862D01*
Y-84576D01*
X1125661D01*
Y-84290D01*
X1125374D01*
Y-84003D01*
Y-83717D01*
X1125088D01*
Y-83431D01*
X1140835D01*
Y-83717D01*
X1141121D01*
Y-84003D01*
Y-84290D01*
Y-84576D01*
X1141408D01*
Y-84862D01*
Y-85149D01*
Y-85435D01*
X1141694D01*
Y-85721D01*
Y-86007D01*
Y-86294D01*
X1141980D01*
Y-86580D01*
Y-86866D01*
Y-87153D01*
X1142267D01*
Y-87439D01*
Y-87725D01*
Y-88012D01*
X1142553D01*
Y-88298D01*
Y-88584D01*
Y-88871D01*
X1142839D01*
Y-89157D01*
Y-89443D01*
Y-89730D01*
X1143126D01*
Y-90016D01*
Y-90302D01*
Y-90588D01*
X1143412D01*
Y-90875D01*
Y-91161D01*
Y-91448D01*
Y-91734D01*
X1143985D01*
Y-91448D01*
X1144271D01*
Y-91161D01*
X1144557D01*
Y-90875D01*
Y-90588D01*
X1144844D01*
Y-90302D01*
X1145130D01*
Y-90016D01*
Y-89730D01*
X1145416D01*
Y-89443D01*
X1145702D01*
Y-89157D01*
Y-88871D01*
X1145989D01*
Y-88584D01*
X1146275D01*
Y-88298D01*
Y-88012D01*
X1146561D01*
Y-87725D01*
X1146848D01*
Y-87439D01*
Y-87153D01*
X1147134D01*
Y-86866D01*
X1147420D01*
Y-86580D01*
Y-86294D01*
X1147707D01*
Y-86007D01*
X1147993D01*
Y-85721D01*
Y-85435D01*
X1148279D01*
Y-85149D01*
X1148566D01*
Y-84862D01*
Y-84576D01*
X1148852D01*
Y-84290D01*
X1149138D01*
Y-84003D01*
Y-83717D01*
X1149425D01*
Y-83431D01*
X1165172D01*
Y-83717D01*
D02*
G37*
G36*
X1032036Y-69688D02*
X1033754D01*
Y-69974D01*
X1034613D01*
Y-70260D01*
X1035472D01*
Y-70547D01*
X1036331D01*
Y-70833D01*
X1036904D01*
Y-71119D01*
X1037190D01*
Y-71406D01*
X1037763D01*
Y-71692D01*
X1038049D01*
Y-71978D01*
X1038622D01*
Y-72264D01*
X1038908D01*
Y-72551D01*
X1039194D01*
Y-72837D01*
X1039480D01*
Y-73123D01*
X1039767D01*
Y-73410D01*
X1040053D01*
Y-73696D01*
X1040339D01*
Y-73982D01*
Y-74269D01*
X1040626D01*
Y-74555D01*
X1040912D01*
Y-74841D01*
Y-75128D01*
X1041198D01*
Y-75414D01*
X1041485D01*
Y-75700D01*
Y-75987D01*
X1041771D01*
Y-76273D01*
Y-76559D01*
Y-76846D01*
X1042057D01*
Y-77132D01*
Y-77418D01*
Y-77704D01*
X1042344D01*
Y-77991D01*
Y-78277D01*
Y-78563D01*
Y-78850D01*
X1042630D01*
Y-79136D01*
Y-79422D01*
Y-79709D01*
Y-79995D01*
Y-80281D01*
X1042916D01*
Y-80568D01*
Y-80854D01*
Y-81140D01*
Y-81427D01*
Y-81713D01*
Y-81999D01*
Y-82285D01*
Y-82572D01*
Y-82858D01*
Y-83144D01*
Y-83431D01*
Y-83717D01*
Y-84003D01*
Y-84290D01*
Y-84576D01*
Y-84862D01*
Y-85149D01*
Y-85435D01*
Y-85721D01*
Y-86007D01*
X1042630D01*
Y-86294D01*
Y-86580D01*
Y-86866D01*
Y-87153D01*
Y-87439D01*
Y-87725D01*
Y-88012D01*
X1042344D01*
Y-88298D01*
Y-88584D01*
Y-88871D01*
Y-89157D01*
Y-89443D01*
X1042057D01*
Y-89730D01*
Y-90016D01*
Y-90302D01*
Y-90588D01*
Y-90875D01*
X1041771D01*
Y-91161D01*
Y-91448D01*
Y-91734D01*
X1041485D01*
Y-92020D01*
Y-92306D01*
Y-92593D01*
Y-92879D01*
X1041198D01*
Y-93165D01*
Y-93452D01*
Y-93738D01*
X1040912D01*
Y-94024D01*
Y-94311D01*
X1040626D01*
Y-94597D01*
Y-94883D01*
Y-95170D01*
X1040339D01*
Y-95456D01*
Y-95742D01*
X1040053D01*
Y-96029D01*
Y-96315D01*
X1039767D01*
Y-96601D01*
Y-96887D01*
X1039480D01*
Y-97174D01*
X1039194D01*
Y-97460D01*
Y-97746D01*
X1038908D01*
Y-98033D01*
X1038622D01*
Y-98319D01*
X1038335D01*
Y-98605D01*
Y-98892D01*
X1038049D01*
Y-99178D01*
X1037763D01*
Y-99464D01*
X1037476D01*
Y-99751D01*
X1037190D01*
Y-100037D01*
X1036904D01*
Y-100323D01*
X1036331D01*
Y-100610D01*
X1036045D01*
Y-100896D01*
X1035472D01*
Y-101182D01*
X1035186D01*
Y-101468D01*
X1034613D01*
Y-101755D01*
X1033754D01*
Y-102041D01*
X1032895D01*
Y-102327D01*
X1032036D01*
Y-102614D01*
X1030318D01*
Y-102900D01*
X1025165D01*
Y-102614D01*
X1022588D01*
Y-102327D01*
X1020584D01*
Y-102041D01*
X1019152D01*
Y-101755D01*
X1017721D01*
Y-101468D01*
X1016289D01*
Y-101755D01*
Y-102041D01*
Y-102327D01*
Y-102614D01*
Y-102900D01*
Y-103186D01*
Y-103473D01*
X1016003D01*
Y-103759D01*
Y-104045D01*
Y-104332D01*
Y-104618D01*
Y-104904D01*
Y-105191D01*
X1015716D01*
Y-105477D01*
Y-105763D01*
Y-106049D01*
Y-106336D01*
Y-106622D01*
Y-106908D01*
X1015430D01*
Y-107195D01*
Y-107481D01*
Y-107767D01*
Y-108054D01*
Y-108340D01*
Y-108626D01*
Y-108913D01*
X1015144D01*
Y-109199D01*
Y-109485D01*
Y-109772D01*
Y-110058D01*
Y-110344D01*
Y-110630D01*
X1014857D01*
Y-110917D01*
Y-111203D01*
Y-111489D01*
Y-111776D01*
Y-112062D01*
Y-112348D01*
X1014571D01*
Y-112635D01*
Y-112921D01*
Y-113207D01*
Y-113494D01*
Y-113780D01*
Y-114066D01*
Y-114353D01*
X1014285D01*
Y-114639D01*
Y-114925D01*
Y-115211D01*
Y-115498D01*
Y-115784D01*
Y-116070D01*
X1013999D01*
Y-116357D01*
Y-116643D01*
Y-116929D01*
Y-117216D01*
Y-117502D01*
Y-117788D01*
X1013712D01*
Y-118075D01*
Y-118361D01*
Y-118647D01*
Y-118933D01*
Y-119220D01*
Y-119506D01*
Y-119792D01*
X1000256D01*
Y-119506D01*
X1000542D01*
Y-119220D01*
Y-118933D01*
Y-118647D01*
Y-118361D01*
Y-118075D01*
X1000828D01*
Y-117788D01*
Y-117502D01*
Y-117216D01*
Y-116929D01*
Y-116643D01*
Y-116357D01*
Y-116070D01*
X1001114D01*
Y-115784D01*
Y-115498D01*
Y-115211D01*
Y-114925D01*
Y-114639D01*
Y-114353D01*
X1001401D01*
Y-114066D01*
Y-113780D01*
Y-113494D01*
Y-113207D01*
Y-112921D01*
Y-112635D01*
X1001687D01*
Y-112348D01*
Y-112062D01*
Y-111776D01*
Y-111489D01*
Y-111203D01*
Y-110917D01*
Y-110630D01*
X1001974D01*
Y-110344D01*
Y-110058D01*
Y-109772D01*
Y-109485D01*
Y-109199D01*
Y-108913D01*
X1002260D01*
Y-108626D01*
Y-108340D01*
Y-108054D01*
Y-107767D01*
Y-107481D01*
Y-107195D01*
X1002546D01*
Y-106908D01*
Y-106622D01*
Y-106336D01*
Y-106049D01*
Y-105763D01*
Y-105477D01*
X1002832D01*
Y-105191D01*
Y-104904D01*
Y-104618D01*
Y-104332D01*
Y-104045D01*
Y-103759D01*
Y-103473D01*
X1003119D01*
Y-103186D01*
Y-102900D01*
Y-102614D01*
Y-102327D01*
Y-102041D01*
Y-101755D01*
X1003405D01*
Y-101468D01*
Y-101182D01*
Y-100896D01*
Y-100610D01*
Y-100323D01*
Y-100037D01*
X1003691D01*
Y-99751D01*
Y-99464D01*
Y-99178D01*
Y-98892D01*
Y-98605D01*
Y-98319D01*
X1003978D01*
Y-98033D01*
Y-97746D01*
Y-97460D01*
Y-97174D01*
Y-96887D01*
Y-96601D01*
Y-96315D01*
X1004264D01*
Y-96029D01*
Y-95742D01*
Y-95456D01*
Y-95170D01*
Y-94883D01*
Y-94597D01*
X1004550D01*
Y-94311D01*
Y-94024D01*
Y-93738D01*
Y-93452D01*
Y-93165D01*
Y-92879D01*
X1004837D01*
Y-92593D01*
Y-92306D01*
Y-92020D01*
Y-91734D01*
Y-91448D01*
Y-91161D01*
Y-90875D01*
X1005123D01*
Y-90588D01*
Y-90302D01*
Y-90016D01*
Y-89730D01*
Y-89443D01*
Y-89157D01*
X1005409D01*
Y-88871D01*
Y-88584D01*
Y-88298D01*
Y-88012D01*
Y-87725D01*
Y-87439D01*
X1005696D01*
Y-87153D01*
Y-86866D01*
Y-86580D01*
Y-86294D01*
Y-86007D01*
Y-85721D01*
X1005982D01*
Y-85435D01*
Y-85149D01*
Y-84862D01*
Y-84576D01*
Y-84290D01*
Y-84003D01*
Y-83717D01*
X1006268D01*
Y-83431D01*
Y-83144D01*
Y-82858D01*
Y-82572D01*
Y-82285D01*
Y-81999D01*
X1006555D01*
Y-81713D01*
Y-81427D01*
Y-81140D01*
Y-80854D01*
Y-80568D01*
Y-80281D01*
X1006841D01*
Y-79995D01*
Y-79709D01*
Y-79422D01*
Y-79136D01*
Y-78850D01*
Y-78563D01*
Y-78277D01*
X1007127D01*
Y-77991D01*
Y-77704D01*
Y-77418D01*
Y-77132D01*
Y-76846D01*
Y-76559D01*
X1007413D01*
Y-76273D01*
Y-75987D01*
Y-75700D01*
Y-75414D01*
Y-75128D01*
Y-74841D01*
X1007700D01*
Y-74555D01*
Y-74269D01*
Y-73982D01*
Y-73696D01*
Y-73410D01*
Y-73123D01*
Y-72837D01*
X1007986D01*
Y-72551D01*
Y-72264D01*
Y-71978D01*
Y-71692D01*
Y-71406D01*
Y-71119D01*
X1008272D01*
Y-70833D01*
Y-70547D01*
Y-70260D01*
Y-69974D01*
Y-69688D01*
Y-69401D01*
X1032036D01*
Y-69688D01*
D02*
G37*
G36*
X1121080Y-83717D02*
Y-84003D01*
Y-84290D01*
Y-84576D01*
Y-84862D01*
Y-85149D01*
Y-85435D01*
Y-85721D01*
Y-86007D01*
Y-86294D01*
Y-86580D01*
Y-86866D01*
Y-87153D01*
Y-87439D01*
Y-87725D01*
Y-88012D01*
Y-88298D01*
Y-88584D01*
Y-88871D01*
Y-89157D01*
Y-89443D01*
X1120793D01*
Y-89730D01*
Y-90016D01*
Y-90302D01*
Y-90588D01*
Y-90875D01*
X1120507D01*
Y-91161D01*
Y-91448D01*
Y-91734D01*
Y-92020D01*
X1120221D01*
Y-92306D01*
Y-92593D01*
Y-92879D01*
Y-93165D01*
X1119934D01*
Y-93452D01*
Y-93738D01*
Y-94024D01*
X1119648D01*
Y-94311D01*
Y-94597D01*
Y-94883D01*
X1119362D01*
Y-95170D01*
Y-95456D01*
Y-95742D01*
X1119075D01*
Y-96029D01*
Y-96315D01*
Y-96601D01*
X1118789D01*
Y-96887D01*
Y-97174D01*
X1118503D01*
Y-97460D01*
Y-97746D01*
X1118217D01*
Y-98033D01*
Y-98319D01*
Y-98605D01*
X1117930D01*
Y-98892D01*
Y-99178D01*
X1117644D01*
Y-99464D01*
Y-99751D01*
Y-100037D01*
X1117358D01*
Y-100323D01*
Y-100610D01*
X1117071D01*
Y-100896D01*
Y-101182D01*
Y-101468D01*
X1116785D01*
Y-101755D01*
Y-102041D01*
X1116499D01*
Y-102327D01*
Y-102614D01*
Y-102900D01*
X1116212D01*
Y-103186D01*
Y-103473D01*
X1115926D01*
Y-103759D01*
Y-104045D01*
Y-104332D01*
X1115640D01*
Y-104618D01*
Y-104904D01*
X1115353D01*
Y-105191D01*
Y-105477D01*
Y-105763D01*
X1115067D01*
Y-106049D01*
Y-106336D01*
X1114781D01*
Y-106622D01*
Y-106908D01*
Y-107195D01*
X1114494D01*
Y-107481D01*
Y-107767D01*
X1114208D01*
Y-108054D01*
Y-108340D01*
Y-108626D01*
X1113922D01*
Y-108913D01*
Y-109199D01*
X1113636D01*
Y-109485D01*
Y-109772D01*
Y-110058D01*
X1113349D01*
Y-110344D01*
Y-110630D01*
X1113063D01*
Y-110917D01*
Y-111203D01*
Y-111489D01*
X1112776D01*
Y-111776D01*
Y-112062D01*
X1112490D01*
Y-112348D01*
Y-112635D01*
Y-112921D01*
X1112204D01*
Y-113207D01*
Y-113494D01*
X1111918D01*
Y-113780D01*
Y-114066D01*
Y-114353D01*
X1111631D01*
Y-114639D01*
Y-114925D01*
X1111345D01*
Y-115211D01*
Y-115498D01*
Y-115784D01*
X1111059D01*
Y-116070D01*
Y-116357D01*
X1110772D01*
Y-116643D01*
Y-116929D01*
Y-117216D01*
X1110486D01*
Y-117502D01*
Y-117788D01*
X1110200D01*
Y-118075D01*
Y-118361D01*
Y-118647D01*
X1109913D01*
Y-118933D01*
Y-119220D01*
X1109627D01*
Y-119506D01*
Y-119792D01*
Y-120079D01*
X1109341D01*
Y-120365D01*
Y-120651D01*
X1109054D01*
Y-120938D01*
Y-121224D01*
X1108768D01*
Y-121510D01*
Y-121797D01*
X1108482D01*
Y-122083D01*
Y-122369D01*
Y-122656D01*
X1108195D01*
Y-122942D01*
X1107909D01*
Y-123228D01*
Y-123514D01*
Y-123801D01*
X1107623D01*
Y-124087D01*
X1107337D01*
Y-124373D01*
Y-124660D01*
X1107050D01*
Y-124946D01*
Y-125232D01*
X1106764D01*
Y-125519D01*
Y-125805D01*
X1106478D01*
Y-126091D01*
Y-126378D01*
X1106191D01*
Y-126664D01*
X1105905D01*
Y-126950D01*
Y-127237D01*
X1105619D01*
Y-127523D01*
Y-127809D01*
X1105332D01*
Y-128095D01*
X1105046D01*
Y-128382D01*
X1104760D01*
Y-128668D01*
Y-128954D01*
X1104473D01*
Y-129241D01*
X1104187D01*
Y-129527D01*
Y-129813D01*
X1103901D01*
Y-130100D01*
X1103615D01*
Y-130386D01*
X1103328D01*
Y-130672D01*
Y-130959D01*
X1103042D01*
Y-131245D01*
X1102756D01*
Y-131531D01*
X1102469D01*
Y-131818D01*
X1102183D01*
Y-132104D01*
X1101897D01*
Y-132390D01*
Y-132676D01*
X1101610D01*
Y-132963D01*
X1101324D01*
Y-133249D01*
X1101038D01*
Y-133535D01*
X1100751D01*
Y-133822D01*
X1100465D01*
Y-134108D01*
X1100179D01*
Y-134394D01*
X1099892D01*
Y-134681D01*
X1099320D01*
Y-134967D01*
X1099034D01*
Y-135253D01*
X1098747D01*
Y-135540D01*
X1098461D01*
Y-135826D01*
X1098175D01*
Y-136112D01*
X1097602D01*
Y-136399D01*
X1097316D01*
Y-136685D01*
X1096743D01*
Y-136971D01*
X1096457D01*
Y-137258D01*
X1095884D01*
Y-137544D01*
X1095598D01*
Y-137830D01*
X1095025D01*
Y-138117D01*
X1094452D01*
Y-138403D01*
X1093880D01*
Y-138689D01*
X1093307D01*
Y-138975D01*
X1092735D01*
Y-139262D01*
X1091876D01*
Y-139548D01*
X1091303D01*
Y-139834D01*
X1090444D01*
Y-140121D01*
X1089299D01*
Y-140407D01*
X1088154D01*
Y-140693D01*
X1086436D01*
Y-140980D01*
X1084432D01*
Y-141266D01*
X1084145D01*
Y-140980D01*
Y-140693D01*
Y-140407D01*
Y-140121D01*
Y-139834D01*
Y-139548D01*
Y-139262D01*
Y-138975D01*
Y-138689D01*
Y-138403D01*
Y-138117D01*
Y-137830D01*
Y-137544D01*
Y-137258D01*
Y-136971D01*
Y-136685D01*
Y-136399D01*
Y-136112D01*
Y-135826D01*
Y-135540D01*
Y-135253D01*
Y-134967D01*
Y-134681D01*
Y-134394D01*
Y-134108D01*
Y-133822D01*
Y-133535D01*
Y-133249D01*
Y-132963D01*
Y-132676D01*
Y-132390D01*
Y-132104D01*
Y-131818D01*
X1084718D01*
Y-131531D01*
X1085291D01*
Y-131245D01*
X1085863D01*
Y-130959D01*
X1086436D01*
Y-130672D01*
X1087008D01*
Y-130386D01*
X1087581D01*
Y-130100D01*
X1087867D01*
Y-129813D01*
X1088440D01*
Y-129527D01*
X1088726D01*
Y-129241D01*
X1089299D01*
Y-128954D01*
X1089585D01*
Y-128668D01*
X1089872D01*
Y-128382D01*
X1090444D01*
Y-128095D01*
X1090730D01*
Y-127809D01*
X1091017D01*
Y-127523D01*
X1091303D01*
Y-127237D01*
X1091589D01*
Y-126950D01*
X1091876D01*
Y-126664D01*
X1092162D01*
Y-126378D01*
X1092448D01*
Y-126091D01*
X1092735D01*
Y-125805D01*
X1093021D01*
Y-125519D01*
X1093307D01*
Y-125232D01*
X1093594D01*
Y-124946D01*
Y-124660D01*
X1093880D01*
Y-124373D01*
X1094166D01*
Y-124087D01*
X1094452D01*
Y-123801D01*
Y-123514D01*
X1094739D01*
Y-123228D01*
X1095025D01*
Y-122942D01*
Y-122656D01*
X1095311D01*
Y-122369D01*
Y-122083D01*
X1095598D01*
Y-121797D01*
X1095884D01*
Y-121510D01*
Y-121224D01*
X1096170D01*
Y-120938D01*
Y-120651D01*
X1096457D01*
Y-120365D01*
Y-120079D01*
X1094739D01*
Y-119792D01*
X1092735D01*
Y-119506D01*
X1091589D01*
Y-119220D01*
X1091017D01*
Y-118933D01*
X1090158D01*
Y-118647D01*
X1089585D01*
Y-118361D01*
X1089299D01*
Y-118075D01*
X1088726D01*
Y-117788D01*
X1088440D01*
Y-117502D01*
X1088154D01*
Y-117216D01*
X1087867D01*
Y-116929D01*
X1087581D01*
Y-116643D01*
X1087295D01*
Y-116357D01*
Y-116070D01*
X1087008D01*
Y-115784D01*
X1086722D01*
Y-115498D01*
Y-115211D01*
X1086436D01*
Y-114925D01*
Y-114639D01*
X1086149D01*
Y-114353D01*
Y-114066D01*
X1085863D01*
Y-113780D01*
Y-113494D01*
Y-113207D01*
X1085577D01*
Y-112921D01*
Y-112635D01*
Y-112348D01*
Y-112062D01*
X1085291D01*
Y-111776D01*
Y-111489D01*
Y-111203D01*
Y-110917D01*
Y-110630D01*
Y-110344D01*
Y-110058D01*
X1085004D01*
Y-109772D01*
Y-109485D01*
Y-109199D01*
Y-108913D01*
Y-108626D01*
Y-108340D01*
Y-108054D01*
Y-107767D01*
Y-107481D01*
Y-107195D01*
Y-106908D01*
Y-106622D01*
Y-106336D01*
Y-106049D01*
Y-105763D01*
X1084718D01*
Y-105477D01*
Y-105191D01*
Y-104904D01*
Y-104618D01*
Y-104332D01*
Y-104045D01*
Y-103759D01*
Y-103473D01*
Y-103186D01*
Y-102900D01*
Y-102614D01*
Y-102327D01*
Y-102041D01*
Y-101755D01*
Y-101468D01*
X1084432D01*
Y-101182D01*
Y-100896D01*
Y-100610D01*
Y-100323D01*
Y-100037D01*
Y-99751D01*
Y-99464D01*
Y-99178D01*
Y-98892D01*
Y-98605D01*
Y-98319D01*
Y-98033D01*
Y-97746D01*
Y-97460D01*
Y-97174D01*
Y-96887D01*
X1084145D01*
Y-96601D01*
Y-96315D01*
Y-96029D01*
Y-95742D01*
Y-95456D01*
Y-95170D01*
Y-94883D01*
Y-94597D01*
Y-94311D01*
Y-94024D01*
Y-93738D01*
Y-93452D01*
Y-93165D01*
Y-92879D01*
Y-92593D01*
Y-92306D01*
X1083859D01*
Y-92020D01*
Y-91734D01*
Y-91448D01*
Y-91161D01*
Y-90875D01*
Y-90588D01*
Y-90302D01*
Y-90016D01*
Y-89730D01*
Y-89443D01*
Y-89157D01*
Y-88871D01*
Y-88584D01*
Y-88298D01*
X1083573D01*
Y-88012D01*
Y-87725D01*
Y-87439D01*
Y-87153D01*
Y-86866D01*
Y-86580D01*
Y-86294D01*
Y-86007D01*
Y-85721D01*
Y-85435D01*
Y-85149D01*
Y-84862D01*
Y-84576D01*
Y-84290D01*
Y-84003D01*
Y-83717D01*
X1083286D01*
Y-83431D01*
X1097029D01*
Y-83717D01*
Y-84003D01*
Y-84290D01*
Y-84576D01*
Y-84862D01*
Y-85149D01*
Y-85435D01*
Y-85721D01*
Y-86007D01*
Y-86294D01*
Y-86580D01*
Y-86866D01*
Y-87153D01*
Y-87439D01*
X1097316D01*
Y-87725D01*
Y-88012D01*
Y-88298D01*
Y-88584D01*
Y-88871D01*
Y-89157D01*
Y-89443D01*
Y-89730D01*
Y-90016D01*
Y-90302D01*
Y-90588D01*
Y-90875D01*
Y-91161D01*
Y-91448D01*
Y-91734D01*
Y-92020D01*
Y-92306D01*
Y-92593D01*
Y-92879D01*
Y-93165D01*
Y-93452D01*
Y-93738D01*
Y-94024D01*
Y-94311D01*
Y-94597D01*
Y-94883D01*
Y-95170D01*
Y-95456D01*
Y-95742D01*
Y-96029D01*
Y-96315D01*
Y-96601D01*
Y-96887D01*
Y-97174D01*
Y-97460D01*
Y-97746D01*
Y-98033D01*
Y-98319D01*
Y-98605D01*
Y-98892D01*
Y-99178D01*
X1097602D01*
Y-99464D01*
X1097316D01*
Y-99751D01*
Y-100037D01*
X1097602D01*
Y-100323D01*
Y-100610D01*
Y-100896D01*
Y-101182D01*
Y-101468D01*
Y-101755D01*
Y-102041D01*
Y-102327D01*
Y-102614D01*
Y-102900D01*
Y-103186D01*
Y-103473D01*
Y-103759D01*
Y-104045D01*
Y-104332D01*
Y-104618D01*
Y-104904D01*
Y-105191D01*
Y-105477D01*
Y-105763D01*
Y-106049D01*
Y-106336D01*
Y-106622D01*
Y-106908D01*
Y-107195D01*
Y-107481D01*
X1097888D01*
Y-107767D01*
Y-108054D01*
Y-108340D01*
X1098175D01*
Y-108626D01*
X1098461D01*
Y-108913D01*
X1098747D01*
Y-109199D01*
X1099606D01*
Y-109485D01*
X1100465D01*
Y-109199D01*
X1100751D01*
Y-108913D01*
Y-108626D01*
Y-108340D01*
X1101038D01*
Y-108054D01*
Y-107767D01*
X1101324D01*
Y-107481D01*
Y-107195D01*
Y-106908D01*
X1101610D01*
Y-106622D01*
Y-106336D01*
Y-106049D01*
X1101897D01*
Y-105763D01*
Y-105477D01*
Y-105191D01*
X1102183D01*
Y-104904D01*
Y-104618D01*
Y-104332D01*
X1102469D01*
Y-104045D01*
Y-103759D01*
X1102756D01*
Y-103473D01*
Y-103186D01*
Y-102900D01*
X1103042D01*
Y-102614D01*
Y-102327D01*
Y-102041D01*
X1103328D01*
Y-101755D01*
Y-101468D01*
Y-101182D01*
X1103615D01*
Y-100896D01*
Y-100610D01*
X1103901D01*
Y-100323D01*
Y-100037D01*
Y-99751D01*
X1104187D01*
Y-99464D01*
Y-99178D01*
Y-98892D01*
X1104473D01*
Y-98605D01*
Y-98319D01*
Y-98033D01*
X1104760D01*
Y-97746D01*
Y-97460D01*
X1105046D01*
Y-97174D01*
Y-96887D01*
Y-96601D01*
X1105332D01*
Y-96315D01*
Y-96029D01*
Y-95742D01*
X1105619D01*
Y-95456D01*
Y-95170D01*
Y-94883D01*
X1105905D01*
Y-94597D01*
Y-94311D01*
X1106191D01*
Y-94024D01*
Y-93738D01*
Y-93452D01*
X1106478D01*
Y-93165D01*
Y-92879D01*
Y-92593D01*
X1106764D01*
Y-92306D01*
Y-92020D01*
Y-91734D01*
X1107050D01*
Y-91448D01*
Y-91161D01*
Y-90875D01*
Y-90588D01*
X1107337D01*
Y-90302D01*
Y-90016D01*
Y-89730D01*
Y-89443D01*
X1107623D01*
Y-89157D01*
Y-88871D01*
Y-88584D01*
Y-88298D01*
Y-88012D01*
X1107909D01*
Y-87725D01*
Y-87439D01*
Y-87153D01*
Y-86866D01*
Y-86580D01*
Y-86294D01*
X1108195D01*
Y-86007D01*
Y-85721D01*
Y-85435D01*
Y-85149D01*
Y-84862D01*
Y-84576D01*
Y-84290D01*
Y-84003D01*
Y-83717D01*
Y-83431D01*
X1121080D01*
Y-83717D01*
D02*
G37*
G36*
X1063244Y-66252D02*
Y-66538D01*
X1062958D01*
Y-66825D01*
Y-67111D01*
Y-67397D01*
Y-67684D01*
Y-67970D01*
Y-68256D01*
X1062672D01*
Y-68542D01*
Y-68829D01*
Y-69115D01*
Y-69401D01*
Y-69688D01*
Y-69974D01*
X1062385D01*
Y-70260D01*
Y-70547D01*
Y-70833D01*
Y-71119D01*
Y-71406D01*
Y-71692D01*
Y-71978D01*
X1062099D01*
Y-72264D01*
Y-72551D01*
Y-72837D01*
Y-73123D01*
Y-73410D01*
Y-73696D01*
X1061813D01*
Y-73982D01*
Y-74269D01*
Y-74555D01*
Y-74841D01*
Y-75128D01*
Y-75414D01*
X1061526D01*
Y-75700D01*
Y-75987D01*
Y-76273D01*
Y-76559D01*
Y-76846D01*
Y-77132D01*
Y-77418D01*
X1061240D01*
Y-77704D01*
Y-77991D01*
Y-78277D01*
Y-78563D01*
Y-78850D01*
Y-79136D01*
X1060954D01*
Y-79422D01*
Y-79709D01*
Y-79995D01*
Y-80281D01*
Y-80568D01*
Y-80854D01*
X1060668D01*
Y-81140D01*
Y-81427D01*
Y-81713D01*
Y-81999D01*
Y-82285D01*
Y-82572D01*
X1060381D01*
Y-82858D01*
Y-83144D01*
Y-83431D01*
Y-83717D01*
Y-84003D01*
Y-84290D01*
Y-84576D01*
X1060095D01*
Y-84862D01*
Y-85149D01*
Y-85435D01*
Y-85721D01*
Y-86007D01*
Y-86294D01*
X1059809D01*
Y-86580D01*
Y-86866D01*
X1060381D01*
Y-86580D01*
X1060668D01*
Y-86294D01*
X1060954D01*
Y-86007D01*
X1061526D01*
Y-85721D01*
X1061813D01*
Y-85435D01*
X1062099D01*
Y-85149D01*
X1062672D01*
Y-84862D01*
X1063244D01*
Y-84576D01*
X1063531D01*
Y-84290D01*
X1064103D01*
Y-84003D01*
X1064962D01*
Y-83717D01*
X1065535D01*
Y-83431D01*
X1066394D01*
Y-83144D01*
X1067825D01*
Y-82858D01*
X1074124D01*
Y-83144D01*
X1075270D01*
Y-83431D01*
X1076128D01*
Y-83717D01*
X1076701D01*
Y-84003D01*
X1076987D01*
Y-84290D01*
X1077560D01*
Y-84576D01*
X1077846D01*
Y-84862D01*
X1078133D01*
Y-85149D01*
X1078419D01*
Y-85435D01*
X1078705D01*
Y-85721D01*
Y-86007D01*
X1078992D01*
Y-86294D01*
Y-86580D01*
X1079278D01*
Y-86866D01*
Y-87153D01*
Y-87439D01*
X1079564D01*
Y-87725D01*
Y-88012D01*
Y-88298D01*
Y-88584D01*
X1079850D01*
Y-88871D01*
Y-89157D01*
Y-89443D01*
Y-89730D01*
Y-90016D01*
Y-90302D01*
Y-90588D01*
Y-90875D01*
Y-91161D01*
Y-91448D01*
Y-91734D01*
Y-92020D01*
Y-92306D01*
Y-92593D01*
Y-92879D01*
Y-93165D01*
Y-93452D01*
Y-93738D01*
X1079564D01*
Y-94024D01*
Y-94311D01*
Y-94597D01*
Y-94883D01*
Y-95170D01*
Y-95456D01*
Y-95742D01*
X1079278D01*
Y-96029D01*
Y-96315D01*
Y-96601D01*
Y-96887D01*
Y-97174D01*
Y-97460D01*
Y-97746D01*
X1078992D01*
Y-98033D01*
Y-98319D01*
Y-98605D01*
Y-98892D01*
Y-99178D01*
Y-99464D01*
X1078705D01*
Y-99751D01*
Y-100037D01*
Y-100323D01*
Y-100610D01*
Y-100896D01*
Y-101182D01*
X1078419D01*
Y-101468D01*
Y-101755D01*
Y-102041D01*
Y-102327D01*
Y-102614D01*
Y-102900D01*
X1078133D01*
Y-103186D01*
Y-103473D01*
Y-103759D01*
Y-104045D01*
Y-104332D01*
Y-104618D01*
Y-104904D01*
X1077846D01*
Y-105191D01*
Y-105477D01*
Y-105763D01*
Y-106049D01*
Y-106336D01*
Y-106622D01*
X1077560D01*
Y-106908D01*
Y-107195D01*
Y-107481D01*
Y-107767D01*
Y-108054D01*
Y-108340D01*
X1077274D01*
Y-108626D01*
Y-108913D01*
Y-109199D01*
Y-109485D01*
Y-109772D01*
Y-110058D01*
Y-110344D01*
X1076987D01*
Y-110630D01*
Y-110917D01*
Y-111203D01*
Y-111489D01*
Y-111776D01*
Y-112062D01*
X1076701D01*
Y-112348D01*
Y-112635D01*
Y-112921D01*
Y-113207D01*
Y-113494D01*
Y-113780D01*
X1076415D01*
Y-114066D01*
Y-114353D01*
Y-114639D01*
Y-114925D01*
Y-115211D01*
Y-115498D01*
X1076128D01*
Y-115784D01*
Y-116070D01*
Y-116357D01*
Y-116643D01*
Y-116929D01*
Y-117216D01*
Y-117502D01*
X1075842D01*
Y-117788D01*
Y-118075D01*
Y-118361D01*
Y-118647D01*
Y-118933D01*
Y-119220D01*
X1075556D01*
Y-119506D01*
Y-119792D01*
X1062385D01*
Y-119506D01*
Y-119220D01*
X1062672D01*
Y-118933D01*
Y-118647D01*
Y-118361D01*
Y-118075D01*
Y-117788D01*
Y-117502D01*
X1062958D01*
Y-117216D01*
Y-116929D01*
Y-116643D01*
Y-116357D01*
Y-116070D01*
Y-115784D01*
Y-115498D01*
X1063244D01*
Y-115211D01*
Y-114925D01*
Y-114639D01*
Y-114353D01*
Y-114066D01*
Y-113780D01*
X1063531D01*
Y-113494D01*
Y-113207D01*
Y-112921D01*
Y-112635D01*
Y-112348D01*
Y-112062D01*
X1063817D01*
Y-111776D01*
Y-111489D01*
Y-111203D01*
Y-110917D01*
Y-110630D01*
Y-110344D01*
Y-110058D01*
X1064103D01*
Y-109772D01*
Y-109485D01*
Y-109199D01*
Y-108913D01*
Y-108626D01*
Y-108340D01*
X1064390D01*
Y-108054D01*
Y-107767D01*
Y-107481D01*
Y-107195D01*
Y-106908D01*
Y-106622D01*
Y-106336D01*
X1064676D01*
Y-106049D01*
Y-105763D01*
Y-105477D01*
Y-105191D01*
Y-104904D01*
Y-104618D01*
X1064962D01*
Y-104332D01*
Y-104045D01*
Y-103759D01*
Y-103473D01*
Y-103186D01*
Y-102900D01*
X1065249D01*
Y-102614D01*
Y-102327D01*
Y-102041D01*
Y-101755D01*
Y-101468D01*
Y-101182D01*
X1065535D01*
Y-100896D01*
Y-100610D01*
Y-100323D01*
Y-100037D01*
Y-99751D01*
Y-99464D01*
Y-99178D01*
X1065821D01*
Y-98892D01*
Y-98605D01*
Y-98319D01*
Y-98033D01*
Y-97746D01*
Y-97460D01*
X1066107D01*
Y-97174D01*
Y-96887D01*
Y-96601D01*
Y-96315D01*
Y-96029D01*
Y-95742D01*
Y-95456D01*
X1066394D01*
Y-95170D01*
Y-94883D01*
Y-94597D01*
Y-94311D01*
Y-94024D01*
Y-93738D01*
X1066107D01*
Y-93452D01*
Y-93165D01*
X1065821D01*
Y-92879D01*
X1065535D01*
Y-92593D01*
X1064962D01*
Y-92306D01*
X1063244D01*
Y-92593D01*
X1061813D01*
Y-92879D01*
X1060954D01*
Y-93165D01*
X1060381D01*
Y-93452D01*
X1060095D01*
Y-93738D01*
X1059522D01*
Y-94024D01*
X1059236D01*
Y-94311D01*
X1058950D01*
Y-94597D01*
Y-94883D01*
X1058663D01*
Y-95170D01*
Y-95456D01*
Y-95742D01*
X1058377D01*
Y-96029D01*
Y-96315D01*
Y-96601D01*
Y-96887D01*
Y-97174D01*
Y-97460D01*
X1058091D01*
Y-97746D01*
Y-98033D01*
Y-98319D01*
Y-98605D01*
Y-98892D01*
Y-99178D01*
Y-99464D01*
X1057804D01*
Y-99751D01*
Y-100037D01*
Y-100323D01*
Y-100610D01*
Y-100896D01*
Y-101182D01*
X1057518D01*
Y-101468D01*
Y-101755D01*
Y-102041D01*
Y-102327D01*
Y-102614D01*
Y-102900D01*
X1057232D01*
Y-103186D01*
Y-103473D01*
Y-103759D01*
Y-104045D01*
Y-104332D01*
Y-104618D01*
X1056946D01*
Y-104904D01*
Y-105191D01*
Y-105477D01*
Y-105763D01*
Y-106049D01*
Y-106336D01*
Y-106622D01*
X1056659D01*
Y-106908D01*
Y-107195D01*
Y-107481D01*
Y-107767D01*
Y-108054D01*
Y-108340D01*
X1056373D01*
Y-108626D01*
Y-108913D01*
Y-109199D01*
Y-109485D01*
Y-109772D01*
Y-110058D01*
X1056087D01*
Y-110344D01*
Y-110630D01*
Y-110917D01*
Y-111203D01*
Y-111489D01*
Y-111776D01*
Y-112062D01*
X1055800D01*
Y-112348D01*
Y-112635D01*
Y-112921D01*
Y-113207D01*
Y-113494D01*
Y-113780D01*
X1055514D01*
Y-114066D01*
Y-114353D01*
Y-114639D01*
Y-114925D01*
Y-115211D01*
Y-115498D01*
X1055228D01*
Y-115784D01*
Y-116070D01*
Y-116357D01*
Y-116643D01*
Y-116929D01*
Y-117216D01*
X1054941D01*
Y-117502D01*
Y-117788D01*
Y-118075D01*
Y-118361D01*
Y-118647D01*
Y-118933D01*
Y-119220D01*
X1054655D01*
Y-119506D01*
Y-119792D01*
X1041485D01*
Y-119506D01*
Y-119220D01*
X1041771D01*
Y-118933D01*
Y-118647D01*
Y-118361D01*
Y-118075D01*
Y-117788D01*
Y-117502D01*
Y-117216D01*
X1042057D01*
Y-116929D01*
Y-116643D01*
Y-116357D01*
Y-116070D01*
Y-115784D01*
Y-115498D01*
X1042344D01*
Y-115211D01*
Y-114925D01*
Y-114639D01*
Y-114353D01*
Y-114066D01*
Y-113780D01*
X1042630D01*
Y-113494D01*
Y-113207D01*
Y-112921D01*
Y-112635D01*
Y-112348D01*
Y-112062D01*
Y-111776D01*
X1042916D01*
Y-111489D01*
Y-111203D01*
Y-110917D01*
Y-110630D01*
Y-110344D01*
Y-110058D01*
X1043202D01*
Y-109772D01*
Y-109485D01*
Y-109199D01*
Y-108913D01*
Y-108626D01*
Y-108340D01*
X1043489D01*
Y-108054D01*
Y-107767D01*
Y-107481D01*
Y-107195D01*
Y-106908D01*
Y-106622D01*
X1043775D01*
Y-106336D01*
Y-106049D01*
Y-105763D01*
Y-105477D01*
Y-105191D01*
Y-104904D01*
Y-104618D01*
X1044061D01*
Y-104332D01*
Y-104045D01*
Y-103759D01*
Y-103473D01*
Y-103186D01*
Y-102900D01*
X1044348D01*
Y-102614D01*
Y-102327D01*
Y-102041D01*
Y-101755D01*
Y-101468D01*
Y-101182D01*
X1044634D01*
Y-100896D01*
Y-100610D01*
Y-100323D01*
Y-100037D01*
Y-99751D01*
Y-99464D01*
Y-99178D01*
X1044920D01*
Y-98892D01*
Y-98605D01*
Y-98319D01*
Y-98033D01*
Y-97746D01*
Y-97460D01*
X1045207D01*
Y-97174D01*
Y-96887D01*
Y-96601D01*
Y-96315D01*
Y-96029D01*
Y-95742D01*
X1045493D01*
Y-95456D01*
Y-95170D01*
Y-94883D01*
Y-94597D01*
Y-94311D01*
Y-94024D01*
X1045779D01*
Y-93738D01*
Y-93452D01*
Y-93165D01*
Y-92879D01*
Y-92593D01*
Y-92306D01*
Y-92020D01*
X1046066D01*
Y-91734D01*
Y-91448D01*
Y-91161D01*
Y-90875D01*
Y-90588D01*
Y-90302D01*
X1046352D01*
Y-90016D01*
Y-89730D01*
Y-89443D01*
Y-89157D01*
Y-88871D01*
Y-88584D01*
X1046638D01*
Y-88298D01*
Y-88012D01*
Y-87725D01*
Y-87439D01*
Y-87153D01*
Y-86866D01*
X1046925D01*
Y-86580D01*
Y-86294D01*
Y-86007D01*
Y-85721D01*
Y-85435D01*
Y-85149D01*
Y-84862D01*
X1047211D01*
Y-84576D01*
Y-84290D01*
Y-84003D01*
Y-83717D01*
Y-83431D01*
Y-83144D01*
X1047497D01*
Y-82858D01*
Y-82572D01*
Y-82285D01*
Y-81999D01*
Y-81713D01*
Y-81427D01*
X1047783D01*
Y-81140D01*
Y-80854D01*
Y-80568D01*
Y-80281D01*
Y-79995D01*
Y-79709D01*
Y-79422D01*
X1048070D01*
Y-79136D01*
Y-78850D01*
Y-78563D01*
Y-78277D01*
Y-77991D01*
Y-77704D01*
X1048356D01*
Y-77418D01*
Y-77132D01*
Y-76846D01*
Y-76559D01*
Y-76273D01*
Y-75987D01*
X1048642D01*
Y-75700D01*
Y-75414D01*
Y-75128D01*
Y-74841D01*
Y-74555D01*
Y-74269D01*
X1048929D01*
Y-73982D01*
Y-73696D01*
Y-73410D01*
Y-73123D01*
Y-72837D01*
Y-72551D01*
Y-72264D01*
X1049215D01*
Y-71978D01*
Y-71692D01*
Y-71406D01*
Y-71119D01*
Y-70833D01*
Y-70547D01*
X1049501D01*
Y-70260D01*
Y-69974D01*
Y-69688D01*
Y-69401D01*
Y-69115D01*
Y-68829D01*
X1049788D01*
Y-68542D01*
Y-68256D01*
Y-67970D01*
Y-67684D01*
Y-67397D01*
Y-67111D01*
Y-66825D01*
X1050074D01*
Y-66538D01*
Y-66252D01*
Y-65966D01*
X1063244D01*
Y-66252D01*
D02*
G37*
%LPC*%
G36*
X9844Y89279D02*
X8619D01*
Y89177D01*
X8313D01*
Y89075D01*
X8211D01*
Y88973D01*
X8109D01*
Y88871D01*
X8007D01*
Y88769D01*
X7905D01*
Y88565D01*
X7803D01*
Y85504D01*
X8007D01*
Y85402D01*
X8721D01*
Y85300D01*
X9333D01*
Y85198D01*
X9946D01*
Y85096D01*
X10558D01*
Y84994D01*
X11170D01*
Y84892D01*
X11782D01*
Y84790D01*
X12190D01*
Y87647D01*
X12088D01*
Y88055D01*
X11986D01*
Y88157D01*
X11884D01*
Y88361D01*
X11782D01*
Y88463D01*
X11680D01*
Y88565D01*
X11578D01*
Y88667D01*
X11374D01*
Y88769D01*
X11272D01*
Y88871D01*
X11068D01*
Y88973D01*
X10762D01*
Y89075D01*
X10354D01*
Y89177D01*
X9844D01*
Y89279D01*
D02*
G37*
G36*
X1027742Y-80568D02*
X1019725D01*
Y-80854D01*
Y-81140D01*
Y-81427D01*
Y-81713D01*
Y-81999D01*
X1019438D01*
Y-82285D01*
Y-82572D01*
Y-82858D01*
Y-83144D01*
Y-83431D01*
Y-83717D01*
X1019152D01*
Y-84003D01*
Y-84290D01*
Y-84576D01*
Y-84862D01*
Y-85149D01*
Y-85435D01*
X1018866D01*
Y-85721D01*
Y-86007D01*
Y-86294D01*
Y-86580D01*
Y-86866D01*
Y-87153D01*
X1018580D01*
Y-87439D01*
Y-87725D01*
Y-88012D01*
Y-88298D01*
Y-88584D01*
Y-88871D01*
Y-89157D01*
X1018293D01*
Y-89443D01*
Y-89730D01*
Y-90016D01*
Y-90302D01*
Y-90588D01*
Y-90875D01*
X1018007D01*
Y-91161D01*
Y-91448D01*
Y-91734D01*
X1025165D01*
Y-91448D01*
X1026310D01*
Y-91161D01*
X1026883D01*
Y-90875D01*
X1027169D01*
Y-90588D01*
X1027455D01*
Y-90302D01*
X1027742D01*
Y-90016D01*
X1028028D01*
Y-89730D01*
Y-89443D01*
X1028314D01*
Y-89157D01*
Y-88871D01*
X1028601D01*
Y-88584D01*
Y-88298D01*
X1028887D01*
Y-88012D01*
Y-87725D01*
Y-87439D01*
Y-87153D01*
X1029173D01*
Y-86866D01*
Y-86580D01*
Y-86294D01*
Y-86007D01*
Y-85721D01*
X1029459D01*
Y-85435D01*
Y-85149D01*
Y-84862D01*
Y-84576D01*
Y-84290D01*
Y-84003D01*
Y-83717D01*
Y-83431D01*
Y-83144D01*
Y-82858D01*
Y-82572D01*
X1029173D01*
Y-82285D01*
Y-81999D01*
X1028887D01*
Y-81713D01*
Y-81427D01*
X1028601D01*
Y-81140D01*
X1028314D01*
Y-80854D01*
X1027742D01*
Y-80568D01*
D02*
G37*
%LPD*%
D34*
X38976Y394D02*
Y29528D01*
Y394D02*
X79134D01*
X38976Y29528D02*
X79134D01*
Y394D02*
Y29528D01*
X38976Y26378D02*
X41339D01*
Y21654D02*
Y26378D01*
X38976Y21654D02*
X41339D01*
X125591Y394D02*
Y29528D01*
Y394D02*
X165748D01*
X125591Y29528D02*
X165748D01*
Y394D02*
Y29528D01*
X125591Y26378D02*
X127953D01*
Y21654D02*
Y26378D01*
X125591Y21654D02*
X127953D01*
X184646Y394D02*
Y29528D01*
Y394D02*
X224803D01*
X184646Y29528D02*
X224803D01*
Y394D02*
Y29528D01*
X184646Y26378D02*
X187008D01*
Y21654D02*
Y26378D01*
X184646Y21654D02*
X187008D01*
X216043Y171457D02*
X217815D01*
X224311D02*
X226083D01*
X216043D02*
Y177362D01*
X226083Y171457D02*
Y177362D01*
X236024Y170079D02*
X237598D01*
X236024Y182283D02*
X237598D01*
Y170079D02*
Y182283D01*
X236024Y170079D02*
Y182283D01*
X75000Y185000D02*
Y195000D01*
X35000Y185000D02*
X75000D01*
X35000Y195000D02*
X75000D01*
X35000Y185000D02*
Y195000D01*
X154724Y175984D02*
Y188189D01*
X156299Y175984D02*
Y188189D01*
X154724D02*
X156299D01*
X154724Y175984D02*
X156299D01*
X93110Y90354D02*
X111614D01*
X93110Y139961D02*
X111614D01*
X11693Y34213D02*
Y54213D01*
X1693D02*
X11693D01*
X1693Y34213D02*
Y54213D01*
Y34213D02*
X11693D01*
X12500Y58661D02*
Y64567D01*
X2461Y58661D02*
Y64567D01*
X10728Y58661D02*
X12500D01*
X2461D02*
X4232D01*
X206693Y103937D02*
X226378D01*
X206693Y96850D02*
X226378D01*
Y103937D01*
X206693Y96850D02*
Y103937D01*
X5000Y145000D02*
X15000D01*
X5000D02*
Y185000D01*
X15000Y145000D02*
Y185000D01*
X5000D02*
X15000D01*
X186025Y33858D02*
X185434Y33267D01*
Y32086D01*
X186025Y31496D01*
X188386D01*
X188976Y32086D01*
Y33267D01*
X188386Y33858D01*
X188976Y36809D02*
X185434D01*
X187205Y35038D01*
Y37400D01*
X186025Y38580D02*
X185434Y39171D01*
Y40352D01*
X186025Y40942D01*
X188386D01*
X188976Y40352D01*
Y39171D01*
X188386Y38580D01*
X186025D01*
X243111Y35826D02*
X242521Y35236D01*
Y34055D01*
X243111Y33465D01*
X245473D01*
X246063Y34055D01*
Y35236D01*
X245473Y35826D01*
X243111Y37007D02*
X242521Y37597D01*
Y38778D01*
X243111Y39368D01*
X243702D01*
X244292Y38778D01*
Y38188D01*
Y38778D01*
X244882Y39368D01*
X245473D01*
X246063Y38778D01*
Y37597D01*
X245473Y37007D01*
Y40549D02*
X246063Y41139D01*
Y42320D01*
X245473Y42910D01*
X243111D01*
X242521Y42320D01*
Y41139D01*
X243111Y40549D01*
X243702D01*
X244292Y41139D01*
Y42910D01*
X200198Y94488D02*
X203150D01*
X203740Y95078D01*
Y96259D01*
X203150Y96850D01*
X200198D01*
X200788Y98030D02*
X200198Y98621D01*
Y99801D01*
X200788Y100392D01*
X201379D01*
X201969Y99801D01*
Y99211D01*
Y99801D01*
X202559Y100392D01*
X203150D01*
X203740Y99801D01*
Y98621D01*
X203150Y98030D01*
X200788Y101573D02*
X200198Y102163D01*
Y103344D01*
X200788Y103934D01*
X203150D01*
X203740Y103344D01*
Y102163D01*
X203150Y101573D01*
X200788D01*
X203740Y105115D02*
Y106295D01*
Y105705D01*
X200198D01*
X200788Y105115D01*
X197164Y145269D02*
X193622D01*
Y147040D01*
X194212Y147631D01*
X195393D01*
X195983Y147040D01*
Y145269D01*
Y146450D02*
X197164Y147631D01*
Y148811D02*
Y149992D01*
Y149402D01*
X193622D01*
X194212Y148811D01*
X197164Y153534D02*
X193622D01*
X195393Y151763D01*
Y154125D01*
X220064Y55726D02*
X216522D01*
Y57497D01*
X217112Y58087D01*
X218293D01*
X218883Y57497D01*
Y55726D01*
Y56907D02*
X220064Y58087D01*
Y59268D02*
Y60449D01*
Y59859D01*
X216522D01*
X217112Y59268D01*
Y62220D02*
X216522Y62810D01*
Y63991D01*
X217112Y64581D01*
X219473D01*
X220064Y63991D01*
Y62810D01*
X219473Y62220D01*
X217112D01*
X214164Y58626D02*
X210622D01*
Y60397D01*
X211212Y60987D01*
X212393D01*
X212983Y60397D01*
Y58626D01*
Y59807D02*
X214164Y60987D01*
X213573Y62168D02*
X214164Y62758D01*
Y63939D01*
X213573Y64530D01*
X211212D01*
X210622Y63939D01*
Y62758D01*
X211212Y62168D01*
X211802D01*
X212393Y62758D01*
Y64530D01*
X204724Y145669D02*
X201182D01*
Y147440D01*
X201773Y148031D01*
X202953D01*
X203544Y147440D01*
Y145669D01*
Y146850D02*
X204724Y148031D01*
X201773Y149211D02*
X201182Y149802D01*
Y150982D01*
X201773Y151573D01*
X202363D01*
X202953Y150982D01*
X203544Y151573D01*
X204134D01*
X204724Y150982D01*
Y149802D01*
X204134Y149211D01*
X203544D01*
X202953Y149802D01*
X202363Y149211D01*
X201773D01*
X202953Y149802D02*
Y150982D01*
X200787Y118110D02*
X197245D01*
Y119881D01*
X197836Y120472D01*
X199016D01*
X199607Y119881D01*
Y118110D01*
Y119291D02*
X200787Y120472D01*
X197245Y121652D02*
Y124014D01*
X197836D01*
X200197Y121652D01*
X200787D01*
X229331Y136416D02*
Y132874D01*
X231692D01*
X235234Y136416D02*
X232873D01*
Y134645D01*
X234054Y135236D01*
X234644D01*
X235234Y134645D01*
Y133464D01*
X234644Y132874D01*
X233463D01*
X232873Y133464D01*
X205312Y57287D02*
X204722Y56697D01*
Y55516D01*
X205312Y54926D01*
X207673D01*
X208264Y55516D01*
Y56697D01*
X207673Y57287D01*
X205312Y58468D02*
X204722Y59058D01*
Y60239D01*
X205312Y60830D01*
X205902D01*
X206493Y60239D01*
Y59649D01*
Y60239D01*
X207083Y60830D01*
X207673D01*
X208264Y60239D01*
Y59058D01*
X207673Y58468D01*
X205312Y62010D02*
X204722Y62601D01*
Y63781D01*
X205312Y64372D01*
X205902D01*
X206493Y63781D01*
X207083Y64372D01*
X207673D01*
X208264Y63781D01*
Y62601D01*
X207673Y62010D01*
X207083D01*
X206493Y62601D01*
X205902Y62010D01*
X205312D01*
X206493Y62601D02*
Y63781D01*
X219087Y161457D02*
X218497Y162048D01*
X217316D01*
X216726Y161457D01*
Y159096D01*
X217316Y158505D01*
X218497D01*
X219087Y159096D01*
X220268Y161457D02*
X220859Y162048D01*
X222039D01*
X222630Y161457D01*
Y160867D01*
X222039Y160277D01*
X221449D01*
X222039D01*
X222630Y159686D01*
Y159096D01*
X222039Y158505D01*
X220859D01*
X220268Y159096D01*
X223810Y162048D02*
X226172D01*
Y161457D01*
X223810Y159096D01*
Y158505D01*
X238789Y161483D02*
X238199Y162074D01*
X237018D01*
X236428Y161483D01*
Y159122D01*
X237018Y158531D01*
X238199D01*
X238789Y159122D01*
X239970Y161483D02*
X240560Y162074D01*
X241741D01*
X242331Y161483D01*
Y160893D01*
X241741Y160303D01*
X241150D01*
X241741D01*
X242331Y159712D01*
Y159122D01*
X241741Y158531D01*
X240560D01*
X239970Y159122D01*
X243512Y158531D02*
X244693D01*
X244102D01*
Y162074D01*
X243512Y161483D01*
X209212Y154731D02*
X208622Y154140D01*
Y152960D01*
X209212Y152369D01*
X211573D01*
X212164Y152960D01*
Y154140D01*
X211573Y154731D01*
X209212Y155911D02*
X208622Y156502D01*
Y157683D01*
X209212Y158273D01*
X209802D01*
X210393Y157683D01*
Y157092D01*
Y157683D01*
X210983Y158273D01*
X211573D01*
X212164Y157683D01*
Y156502D01*
X211573Y155911D01*
X209212Y159454D02*
X208622Y160044D01*
Y161225D01*
X209212Y161815D01*
X211573D01*
X212164Y161225D01*
Y160044D01*
X211573Y159454D01*
X209212D01*
X223012Y57287D02*
X222422Y56697D01*
Y55516D01*
X223012Y54926D01*
X225373D01*
X225964Y55516D01*
Y56697D01*
X225373Y57287D01*
X225964Y60830D02*
Y58468D01*
X223602Y60830D01*
X223012D01*
X222422Y60239D01*
Y59058D01*
X223012Y58468D01*
X225373Y62010D02*
X225964Y62601D01*
Y63781D01*
X225373Y64372D01*
X223012D01*
X222422Y63781D01*
Y62601D01*
X223012Y62010D01*
X223602D01*
X224193Y62601D01*
Y64372D01*
X232861Y91345D02*
X232271Y91935D01*
X231090D01*
X230500Y91345D01*
Y88983D01*
X231090Y88393D01*
X232271D01*
X232861Y88983D01*
X236404Y88393D02*
X234042D01*
X236404Y90754D01*
Y91345D01*
X235813Y91935D01*
X234632D01*
X234042Y91345D01*
X237584Y88393D02*
X238765D01*
X238175D01*
Y91935D01*
X237584Y91345D01*
X202757Y120472D02*
X202167Y119881D01*
Y118701D01*
X202757Y118110D01*
X205118D01*
X205709Y118701D01*
Y119881D01*
X205118Y120472D01*
X205709Y124014D02*
Y121652D01*
X203347Y124014D01*
X202757D01*
X202167Y123424D01*
Y122243D01*
X202757Y121652D01*
Y125195D02*
X202167Y125785D01*
Y126966D01*
X202757Y127556D01*
X205118D01*
X205709Y126966D01*
Y125785D01*
X205118Y125195D01*
X202757D01*
X204133Y170275D02*
X203543Y170865D01*
X202362D01*
X201772Y170275D01*
Y167913D01*
X202362Y167323D01*
X203543D01*
X204133Y167913D01*
X205314Y170275D02*
X205904Y170865D01*
X207085D01*
X207675Y170275D01*
Y169684D01*
X207085Y169094D01*
X206494D01*
X207085D01*
X207675Y168503D01*
Y167913D01*
X207085Y167323D01*
X205904D01*
X205314Y167913D01*
X211217Y170865D02*
X210037Y170275D01*
X208856Y169094D01*
Y167913D01*
X209446Y167323D01*
X210627D01*
X211217Y167913D01*
Y168503D01*
X210627Y169094D01*
X208856D01*
X3937Y75393D02*
X6298D01*
X5118D01*
Y71850D01*
X7479Y74802D02*
X8070Y75393D01*
X9250D01*
X9841Y74802D01*
Y74212D01*
X9250Y73621D01*
X8660D01*
X9250D01*
X9841Y73031D01*
Y72441D01*
X9250Y71850D01*
X8070D01*
X7479Y72441D01*
X25197Y49213D02*
X21655D01*
Y50984D01*
X22245Y51574D01*
X23426D01*
X24016Y50984D01*
Y49213D01*
Y50393D02*
X25197Y51574D01*
Y52755D02*
Y53935D01*
Y53345D01*
X21655D01*
X22245Y52755D01*
X21655Y55707D02*
Y58068D01*
X22245D01*
X24607Y55707D01*
X25197D01*
X3937Y28543D02*
Y32085D01*
X5708D01*
X6298Y31495D01*
Y30314D01*
X5708Y29724D01*
X3937D01*
X9841Y32085D02*
X8660Y31495D01*
X7479Y30314D01*
Y29134D01*
X8070Y28543D01*
X9250D01*
X9841Y29134D01*
Y29724D01*
X9250Y30314D01*
X7479D01*
X13190Y31496D02*
X16732D01*
Y33267D01*
X16142Y33858D01*
X13780D01*
X13190Y33267D01*
Y31496D01*
X16732Y37400D02*
Y35038D01*
X14371Y37400D01*
X13780D01*
X13190Y36809D01*
Y35629D01*
X13780Y35038D01*
X27559Y188976D02*
Y192518D01*
X29330D01*
X29921Y191928D01*
Y190747D01*
X29330Y190157D01*
X27559D01*
X32872Y188976D02*
Y192518D01*
X31101Y190747D01*
X33463D01*
X157480Y115157D02*
Y118700D01*
X159251D01*
X159842Y118109D01*
Y116929D01*
X159251Y116338D01*
X157480D01*
X158661D02*
X159842Y115157D01*
X162794D02*
Y118700D01*
X161022Y116929D01*
X163384D01*
X152954Y154528D02*
Y156889D01*
Y155708D01*
X156496D01*
Y158070D02*
X152954D01*
Y159841D01*
X153544Y160431D01*
X154725D01*
X155315Y159841D01*
Y158070D01*
X152954Y163973D02*
Y161612D01*
X154725D01*
X154135Y162793D01*
Y163383D01*
X154725Y163973D01*
X155906D01*
X156496Y163383D01*
Y162202D01*
X155906Y161612D01*
X142127Y155512D02*
Y157873D01*
Y156693D01*
X145669D01*
Y159054D02*
X142127D01*
Y160825D01*
X142718Y161415D01*
X143898D01*
X144489Y160825D01*
Y159054D01*
X145669Y164367D02*
X142127D01*
X143898Y162596D01*
Y164958D01*
X184055Y189566D02*
X186417D01*
X185236D01*
Y186024D01*
X187597D02*
Y189566D01*
X189368D01*
X189959Y188975D01*
Y187795D01*
X189368Y187204D01*
X187597D01*
X191139Y188975D02*
X191730Y189566D01*
X192911D01*
X193501Y188975D01*
Y188385D01*
X192911Y187795D01*
X192320D01*
X192911D01*
X193501Y187204D01*
Y186614D01*
X192911Y186024D01*
X191730D01*
X191139Y186614D01*
X162796Y154528D02*
Y156889D01*
Y155708D01*
X166339D01*
Y158070D02*
X162796D01*
Y159841D01*
X163387Y160431D01*
X164567D01*
X165158Y159841D01*
Y158070D01*
X166339Y163973D02*
Y161612D01*
X163977Y163973D01*
X163387D01*
X162796Y163383D01*
Y162202D01*
X163387Y161612D01*
X184055Y178739D02*
X186417D01*
X185236D01*
Y175197D01*
X187597D02*
Y178739D01*
X189368D01*
X189959Y178149D01*
Y176968D01*
X189368Y176378D01*
X187597D01*
X191139Y175197D02*
X192320D01*
X191730D01*
Y178739D01*
X191139Y178149D01*
X142125Y193897D02*
X141535Y194487D01*
X140354D01*
X139764Y193897D01*
Y191535D01*
X140354Y190945D01*
X141535D01*
X142125Y191535D01*
X143306Y190945D02*
X144487D01*
X143896D01*
Y194487D01*
X143306Y193897D01*
X158268Y194093D02*
Y191142D01*
X158858Y190551D01*
X160039D01*
X160629Y191142D01*
Y194093D01*
X161810Y190551D02*
X162991D01*
X162400D01*
Y194093D01*
X161810Y193503D01*
X141732Y171260D02*
Y174802D01*
X143503D01*
X144094Y174212D01*
Y173031D01*
X143503Y172441D01*
X141732D01*
X142913D02*
X144094Y171260D01*
X145274Y174212D02*
X145865Y174802D01*
X147046D01*
X147636Y174212D01*
Y173621D01*
X147046Y173031D01*
X146455D01*
X147046D01*
X147636Y172441D01*
Y171850D01*
X147046Y171260D01*
X145865D01*
X145274Y171850D01*
X165748Y190945D02*
Y194487D01*
X167519D01*
X168110Y193897D01*
Y192716D01*
X167519Y192126D01*
X165748D01*
X166929D02*
X168110Y190945D01*
X171652D02*
X169290D01*
X171652Y193306D01*
Y193897D01*
X171061Y194487D01*
X169880D01*
X169290Y193897D01*
X173622Y169291D02*
Y172834D01*
X175393D01*
X175984Y172243D01*
Y171062D01*
X175393Y170472D01*
X173622D01*
X174803D02*
X175984Y169291D01*
X177164D02*
X178345D01*
X177755D01*
Y172834D01*
X177164Y172243D01*
X147048Y136220D02*
Y133858D01*
X148819D01*
Y135039D01*
Y133858D01*
X150591D01*
Y137400D02*
Y138581D01*
Y137991D01*
X147048D01*
X147639Y137400D01*
X53150Y31496D02*
Y35038D01*
X54921D01*
X55511Y34448D01*
Y33267D01*
X54921Y32677D01*
X53150D01*
X56692Y31496D02*
X57872D01*
X57282D01*
Y35038D01*
X56692Y34448D01*
X135827Y31496D02*
Y35038D01*
X137598D01*
X138188Y34448D01*
Y33267D01*
X137598Y32677D01*
X135827D01*
X141730Y31496D02*
X139369D01*
X141730Y33858D01*
Y34448D01*
X141140Y35038D01*
X139959D01*
X139369Y34448D01*
X216535Y31496D02*
Y35038D01*
X218306D01*
X218897Y34448D01*
Y33267D01*
X218306Y32677D01*
X216535D01*
X220078Y34448D02*
X220668Y35038D01*
X221849D01*
X222439Y34448D01*
Y33858D01*
X221849Y33267D01*
X221258D01*
X221849D01*
X222439Y32677D01*
Y32086D01*
X221849Y31496D01*
X220668D01*
X220078Y32086D01*
X61417Y111220D02*
X60826Y111810D01*
X59645D01*
X59055Y111220D01*
Y108858D01*
X59645Y108268D01*
X60826D01*
X61417Y108858D01*
X62597Y111220D02*
X63188Y111810D01*
X64368D01*
X64959Y111220D01*
Y110629D01*
X64368Y110039D01*
X63778D01*
X64368D01*
X64959Y109448D01*
Y108858D01*
X64368Y108268D01*
X63188D01*
X62597Y108858D01*
X140749Y100787D02*
X140159Y100196D01*
Y99016D01*
X140749Y98425D01*
X143110D01*
X143701Y99016D01*
Y100196D01*
X143110Y100787D01*
X143701Y103738D02*
X140159D01*
X141930Y101967D01*
Y104329D01*
X38779Y83661D02*
X38188Y84251D01*
X37008D01*
X36417Y83661D01*
Y81299D01*
X37008Y80709D01*
X38188D01*
X38779Y81299D01*
X42321Y84251D02*
X39959D01*
Y82480D01*
X41140Y83070D01*
X41731D01*
X42321Y82480D01*
Y81299D01*
X41731Y80709D01*
X40550D01*
X39959Y81299D01*
X156889Y77755D02*
X156299Y78345D01*
X155118D01*
X154528Y77755D01*
Y75393D01*
X155118Y74803D01*
X156299D01*
X156889Y75393D01*
X160431Y78345D02*
X159250Y77755D01*
X158070Y76574D01*
Y75393D01*
X158660Y74803D01*
X159841D01*
X160431Y75393D01*
Y75984D01*
X159841Y76574D01*
X158070D01*
X48621Y82676D02*
X48031Y83267D01*
X46850D01*
X46260Y82676D01*
Y80315D01*
X46850Y79724D01*
X48031D01*
X48621Y80315D01*
X49802Y83267D02*
X52163D01*
Y82676D01*
X49802Y80315D01*
Y79724D01*
X166732Y77755D02*
X166141Y78345D01*
X164960D01*
X164370Y77755D01*
Y75393D01*
X164960Y74803D01*
X166141D01*
X166732Y75393D01*
X167912Y77755D02*
X168503Y78345D01*
X169683D01*
X170274Y77755D01*
Y77165D01*
X169683Y76574D01*
X170274Y75984D01*
Y75393D01*
X169683Y74803D01*
X168503D01*
X167912Y75393D01*
Y75984D01*
X168503Y76574D01*
X167912Y77165D01*
Y77755D01*
X168503Y76574D02*
X169683D01*
X149015Y145668D02*
X148425Y146259D01*
X147244D01*
X146653Y145668D01*
Y143307D01*
X147244Y142717D01*
X148425D01*
X149015Y143307D01*
X150196D02*
X150786Y142717D01*
X151967D01*
X152557Y143307D01*
Y145668D01*
X151967Y146259D01*
X150786D01*
X150196Y145668D01*
Y145078D01*
X150786Y144488D01*
X152557D01*
X65354Y155511D02*
X64763Y156101D01*
X63582D01*
X62992Y155511D01*
Y153149D01*
X63582Y152559D01*
X64763D01*
X65354Y153149D01*
X66534Y152559D02*
X67715D01*
X67125D01*
Y156101D01*
X66534Y155511D01*
X69486D02*
X70076Y156101D01*
X71257D01*
X71847Y155511D01*
Y153149D01*
X71257Y152559D01*
X70076D01*
X69486Y153149D01*
Y155511D01*
X127954Y133267D02*
X127363Y132677D01*
Y131496D01*
X127954Y130905D01*
X130315D01*
X130905Y131496D01*
Y132677D01*
X130315Y133267D01*
X130905Y134448D02*
Y135628D01*
Y135038D01*
X127363D01*
X127954Y134448D01*
X130905Y137399D02*
Y138580D01*
Y137990D01*
X127363D01*
X127954Y137399D01*
X65354Y150590D02*
X64763Y151180D01*
X63582D01*
X62992Y150590D01*
Y148228D01*
X63582Y147638D01*
X64763D01*
X65354Y148228D01*
X66534Y147638D02*
X67715D01*
X67125D01*
Y151180D01*
X66534Y150590D01*
X71847Y147638D02*
X69486D01*
X71847Y149999D01*
Y150590D01*
X71257Y151180D01*
X70076D01*
X69486Y150590D01*
X65354Y145668D02*
X64763Y146259D01*
X63582D01*
X62992Y145668D01*
Y143307D01*
X63582Y142717D01*
X64763D01*
X65354Y143307D01*
X66534Y142717D02*
X67715D01*
X67125D01*
Y146259D01*
X66534Y145668D01*
X69486D02*
X70076Y146259D01*
X71257D01*
X71847Y145668D01*
Y145078D01*
X71257Y144488D01*
X70667D01*
X71257D01*
X71847Y143897D01*
Y143307D01*
X71257Y142717D01*
X70076D01*
X69486Y143307D01*
X154528Y124212D02*
X153938Y123621D01*
Y122441D01*
X154528Y121850D01*
X156890D01*
X157480Y122441D01*
Y123621D01*
X156890Y124212D01*
X157480Y125393D02*
Y126573D01*
Y125983D01*
X153938D01*
X154528Y125393D01*
X157480Y130115D02*
X153938D01*
X155709Y128344D01*
Y130706D01*
X128346Y107282D02*
X127755Y107873D01*
X126575D01*
X125984Y107282D01*
Y104921D01*
X126575Y104331D01*
X127755D01*
X128346Y104921D01*
X129526Y104331D02*
X130707D01*
X130117D01*
Y107873D01*
X129526Y107282D01*
X134840Y107873D02*
X132478D01*
Y106102D01*
X133659Y106692D01*
X134249D01*
X134840Y106102D01*
Y104921D01*
X134249Y104331D01*
X133069D01*
X132478Y104921D01*
X65354Y160432D02*
X64763Y161022D01*
X63582D01*
X62992Y160432D01*
Y158071D01*
X63582Y157480D01*
X64763D01*
X65354Y158071D01*
X66534Y157480D02*
X67715D01*
X67125D01*
Y161022D01*
X66534Y160432D01*
X71847Y161022D02*
X70667Y160432D01*
X69486Y159251D01*
Y158071D01*
X70076Y157480D01*
X71257D01*
X71847Y158071D01*
Y158661D01*
X71257Y159251D01*
X69486D01*
X56495Y130905D02*
X55905Y131495D01*
X54724D01*
X54134Y130905D01*
Y128543D01*
X54724Y127953D01*
X55905D01*
X56495Y128543D01*
X57676Y127953D02*
X58857D01*
X58266D01*
Y131495D01*
X57676Y130905D01*
X60628D02*
X61218Y131495D01*
X62399D01*
X62989Y130905D01*
Y130314D01*
X62399Y129724D01*
X62989Y129133D01*
Y128543D01*
X62399Y127953D01*
X61218D01*
X60628Y128543D01*
Y129133D01*
X61218Y129724D01*
X60628Y130314D01*
Y130905D01*
X61218Y129724D02*
X62399D01*
X71259Y105314D02*
X70669Y105904D01*
X69488D01*
X68898Y105314D01*
Y102953D01*
X69488Y102362D01*
X70669D01*
X71259Y102953D01*
X72440Y102362D02*
X73620D01*
X73030D01*
Y105904D01*
X72440Y105314D01*
X75392Y102953D02*
X75982Y102362D01*
X77163D01*
X77753Y102953D01*
Y105314D01*
X77163Y105904D01*
X75982D01*
X75392Y105314D01*
Y104724D01*
X75982Y104133D01*
X77753D01*
X160434Y124212D02*
X159844Y123621D01*
Y122441D01*
X160434Y121850D01*
X162795D01*
X163386Y122441D01*
Y123621D01*
X162795Y124212D01*
X163386Y127754D02*
Y125393D01*
X161024Y127754D01*
X160434D01*
X159844Y127164D01*
Y125983D01*
X160434Y125393D01*
X124409Y91535D02*
X123818Y92125D01*
X122638D01*
X122047Y91535D01*
Y89173D01*
X122638Y88583D01*
X123818D01*
X124409Y89173D01*
X125589Y88583D02*
X126770D01*
X126180D01*
Y92125D01*
X125589Y91535D01*
X128541Y92125D02*
X130903D01*
Y91535D01*
X128541Y89173D01*
Y88583D01*
X131891Y84054D02*
X131300Y83464D01*
Y82283D01*
X131891Y81693D01*
X134252D01*
X134843Y82283D01*
Y83464D01*
X134252Y84054D01*
X134843Y87596D02*
Y85235D01*
X132481Y87596D01*
X131891D01*
X131300Y87006D01*
Y85825D01*
X131891Y85235D01*
X134843Y91139D02*
Y88777D01*
X132481Y91139D01*
X131891D01*
X131300Y90548D01*
Y89368D01*
X131891Y88777D01*
X76180Y91535D02*
X75590Y92125D01*
X74409D01*
X73819Y91535D01*
Y89173D01*
X74409Y88583D01*
X75590D01*
X76180Y89173D01*
X79722Y88583D02*
X77361D01*
X79722Y90944D01*
Y91535D01*
X79132Y92125D01*
X77951D01*
X77361Y91535D01*
X80903D02*
X81494Y92125D01*
X82674D01*
X83265Y91535D01*
Y90944D01*
X82674Y90354D01*
X82084D01*
X82674D01*
X83265Y89763D01*
Y89173D01*
X82674Y88583D01*
X81494D01*
X80903Y89173D01*
X68899Y84054D02*
X68308Y83464D01*
Y82283D01*
X68899Y81693D01*
X71260D01*
X71850Y82283D01*
Y83464D01*
X71260Y84054D01*
X71850Y87596D02*
Y85235D01*
X69489Y87596D01*
X68899D01*
X68308Y87006D01*
Y85825D01*
X68899Y85235D01*
X71850Y90548D02*
X68308D01*
X70079Y88777D01*
Y91139D01*
X66535Y43306D02*
X65944Y43896D01*
X64764D01*
X64173Y43306D01*
Y40945D01*
X64764Y40354D01*
X65944D01*
X66535Y40945D01*
X70077Y40354D02*
X67715D01*
X70077Y42716D01*
Y43306D01*
X69486Y43896D01*
X68306D01*
X67715Y43306D01*
X73619Y43896D02*
X71258D01*
Y42125D01*
X72438Y42716D01*
X73029D01*
X73619Y42125D01*
Y40945D01*
X73029Y40354D01*
X71848D01*
X71258Y40945D01*
X53543Y39369D02*
X52952Y39959D01*
X51771D01*
X51181Y39369D01*
Y37008D01*
X51771Y36417D01*
X52952D01*
X53543Y37008D01*
X57085Y36417D02*
X54723D01*
X57085Y38779D01*
Y39369D01*
X56494Y39959D01*
X55314D01*
X54723Y39369D01*
X60627Y39959D02*
X59446Y39369D01*
X58265Y38188D01*
Y37008D01*
X58856Y36417D01*
X60036D01*
X60627Y37008D01*
Y37598D01*
X60036Y38188D01*
X58265D01*
X147637Y36416D02*
X147047Y37007D01*
X145866D01*
X145276Y36416D01*
Y34055D01*
X145866Y33465D01*
X147047D01*
X147637Y34055D01*
X151179Y33465D02*
X148818D01*
X151179Y35826D01*
Y36416D01*
X150589Y37007D01*
X149408D01*
X148818Y36416D01*
X152360Y37007D02*
X154721D01*
Y36416D01*
X152360Y34055D01*
Y33465D01*
X135236Y43306D02*
X134645Y43896D01*
X133464D01*
X132874Y43306D01*
Y40945D01*
X133464Y40354D01*
X134645D01*
X135236Y40945D01*
X138778Y40354D02*
X136416D01*
X138778Y42716D01*
Y43306D01*
X138187Y43896D01*
X137006D01*
X136416Y43306D01*
X139958D02*
X140549Y43896D01*
X141729D01*
X142320Y43306D01*
Y42716D01*
X141729Y42125D01*
X142320Y41535D01*
Y40945D01*
X141729Y40354D01*
X140549D01*
X139958Y40945D01*
Y41535D01*
X140549Y42125D01*
X139958Y42716D01*
Y43306D01*
X140549Y42125D02*
X141729D01*
X63976Y51771D02*
Y48228D01*
X66338D01*
X67519D02*
X68699D01*
X68109D01*
Y51771D01*
X67519Y51180D01*
X51181Y72440D02*
Y68898D01*
X53543D01*
X57085D02*
X54723D01*
X57085Y71259D01*
Y71849D01*
X56494Y72440D01*
X55314D01*
X54723Y71849D01*
X162205Y72046D02*
Y68504D01*
X164566D01*
X165747Y71456D02*
X166337Y72046D01*
X167518D01*
X168108Y71456D01*
Y70865D01*
X167518Y70275D01*
X166928D01*
X167518D01*
X168108Y69685D01*
Y69094D01*
X167518Y68504D01*
X166337D01*
X165747Y69094D01*
X134646Y51574D02*
Y48031D01*
X137007D01*
X139959D02*
Y51574D01*
X138188Y49803D01*
X140549D01*
X247244Y182677D02*
Y186219D01*
X249015D01*
X249605Y185629D01*
Y184448D01*
X249015Y183858D01*
X247244D01*
X248425D02*
X249605Y182677D01*
X253148Y186219D02*
X250786D01*
Y184448D01*
X251967Y185039D01*
X252557D01*
X253148Y184448D01*
Y183267D01*
X252557Y182677D01*
X251377D01*
X250786Y183267D01*
X226378Y190945D02*
Y194487D01*
X228149D01*
X228739Y193897D01*
Y192716D01*
X228149Y192126D01*
X226378D01*
X227559D02*
X228739Y190945D01*
X232282Y194487D02*
X231101Y193897D01*
X229920Y192716D01*
Y191535D01*
X230510Y190945D01*
X231691D01*
X232282Y191535D01*
Y192126D01*
X231691Y192716D01*
X229920D01*
X218504Y188582D02*
X220865D01*
X219685D01*
Y185039D01*
X222046D02*
X223227D01*
X222637D01*
Y188582D01*
X222046Y187991D01*
X240945Y191337D02*
X243306D01*
X242126D01*
Y187795D01*
X246849D02*
X244487D01*
X246849Y190157D01*
Y190747D01*
X246258Y191337D01*
X245077D01*
X244487Y190747D01*
X128937Y177165D02*
Y180708D01*
X130708D01*
X131298Y180117D01*
Y178936D01*
X130708Y178346D01*
X128937D01*
X130118D02*
X131298Y177165D01*
X132479D02*
X133660D01*
X133070D01*
Y180708D01*
X132479Y180117D01*
X135431Y177165D02*
X136612D01*
X136021D01*
Y180708D01*
X135431Y180117D01*
X128937Y183071D02*
Y186613D01*
X130708D01*
X131298Y186023D01*
Y184842D01*
X130708Y184252D01*
X128937D01*
X130118D02*
X131298Y183071D01*
X132479D02*
X133660D01*
X133070D01*
Y186613D01*
X132479Y186023D01*
X137792Y183071D02*
X135431D01*
X137792Y185432D01*
Y186023D01*
X137202Y186613D01*
X136021D01*
X135431Y186023D01*
X81398Y144093D02*
Y141141D01*
X81988Y140551D01*
X83169D01*
X83759Y141141D01*
Y144093D01*
X87301Y140551D02*
X84940D01*
X87301Y142913D01*
Y143503D01*
X86711Y144093D01*
X85530D01*
X84940Y143503D01*
X140748Y105315D02*
Y108857D01*
X142519D01*
X143110Y108267D01*
Y107086D01*
X142519Y106496D01*
X140748D01*
X141929D02*
X143110Y105315D01*
X144290D02*
X145471D01*
X144880D01*
Y108857D01*
X144290Y108267D01*
X147242D02*
X147832Y108857D01*
X149013D01*
X149603Y108267D01*
Y107676D01*
X149013Y107086D01*
X148423D01*
X149013D01*
X149603Y106496D01*
Y105905D01*
X149013Y105315D01*
X147832D01*
X147242Y105905D01*
X170276Y129330D02*
X169686Y128740D01*
Y127559D01*
X170276Y126969D01*
X172638D01*
X173228Y127559D01*
Y128740D01*
X172638Y129330D01*
X170276Y130511D02*
X169686Y131101D01*
Y132282D01*
X170276Y132872D01*
X170867D01*
X171457Y132282D01*
Y131691D01*
Y132282D01*
X172048Y132872D01*
X172638D01*
X173228Y132282D01*
Y131101D01*
X172638Y130511D01*
X173228Y136414D02*
Y134053D01*
X170867Y136414D01*
X170276D01*
X169686Y135824D01*
Y134643D01*
X170276Y134053D01*
X180119Y129330D02*
X179529Y128740D01*
Y127559D01*
X180119Y126969D01*
X182481D01*
X183071Y127559D01*
Y128740D01*
X182481Y129330D01*
X180119Y130511D02*
X179529Y131101D01*
Y132282D01*
X180119Y132872D01*
X180709D01*
X181300Y132282D01*
Y131691D01*
Y132282D01*
X181890Y132872D01*
X182481D01*
X183071Y132282D01*
Y131101D01*
X182481Y130511D01*
X180119Y134053D02*
X179529Y134643D01*
Y135824D01*
X180119Y136414D01*
X180709D01*
X181300Y135824D01*
Y135233D01*
Y135824D01*
X181890Y136414D01*
X182481D01*
X183071Y135824D01*
Y134643D01*
X182481Y134053D01*
X48621Y135826D02*
X48031Y136416D01*
X46850D01*
X46260Y135826D01*
Y133464D01*
X46850Y132874D01*
X48031D01*
X48621Y133464D01*
X49802Y135826D02*
X50392Y136416D01*
X51573D01*
X52163Y135826D01*
Y135236D01*
X51573Y134645D01*
X50983D01*
X51573D01*
X52163Y134055D01*
Y133464D01*
X51573Y132874D01*
X50392D01*
X49802Y133464D01*
X55115Y132874D02*
Y136416D01*
X53344Y134645D01*
X55706D01*
X36810Y135826D02*
X36220Y136416D01*
X35039D01*
X34449Y135826D01*
Y133464D01*
X35039Y132874D01*
X36220D01*
X36810Y133464D01*
X37991Y135826D02*
X38581Y136416D01*
X39762D01*
X40352Y135826D01*
Y135236D01*
X39762Y134645D01*
X39172D01*
X39762D01*
X40352Y134055D01*
Y133464D01*
X39762Y132874D01*
X38581D01*
X37991Y133464D01*
X43895Y136416D02*
X41533D01*
Y134645D01*
X42714Y135236D01*
X43304D01*
X43895Y134645D01*
Y133464D01*
X43304Y132874D01*
X42123D01*
X41533Y133464D01*
X6890Y187008D02*
Y190550D01*
X8661D01*
X9251Y189960D01*
Y188779D01*
X8661Y188189D01*
X6890D01*
X12793Y190550D02*
X10432D01*
Y188779D01*
X11613Y189369D01*
X12203D01*
X12793Y188779D01*
Y187598D01*
X12203Y187008D01*
X11022D01*
X10432Y187598D01*
X26576Y121063D02*
X30512D01*
X29200Y122375D01*
X30512Y123687D01*
X26576D01*
X30512Y124999D02*
Y126311D01*
Y125655D01*
X27888D01*
Y124999D01*
X30512Y128279D02*
X27888D01*
Y128935D01*
X28544Y129590D01*
X30512D01*
X28544D01*
X27888Y130246D01*
X28544Y130902D01*
X30512D01*
X26576Y136150D02*
X29200D01*
X30512Y137462D01*
X29200Y138774D01*
X26576D01*
X27232Y142710D02*
X26576Y142054D01*
Y140742D01*
X27232Y140086D01*
X29856D01*
X30512Y140742D01*
Y142054D01*
X29856Y142710D01*
X28544D01*
Y141398D01*
X30315Y71260D02*
X27691D01*
X26379Y72572D01*
X27691Y73884D01*
X30315D01*
X28347D01*
Y71260D01*
X30315Y75196D02*
X26379D01*
X27691Y76508D01*
X26379Y77819D01*
X30315D01*
Y79131D02*
X26379D01*
Y81099D01*
X27035Y81755D01*
X28347D01*
X29003Y81099D01*
Y79131D01*
X30971Y83067D02*
Y85691D01*
X26379Y87003D02*
X30315D01*
X28347D01*
Y89627D01*
X26379D01*
X30315D01*
Y90939D02*
X27691D01*
X26379Y92251D01*
X27691Y93562D01*
X30315D01*
X28347D01*
Y90939D01*
X26379Y94874D02*
Y97498D01*
Y96186D01*
X30315D01*
X30971Y98810D02*
Y101434D01*
X27035Y102746D02*
X26379Y103402D01*
Y104714D01*
X27035Y105370D01*
X29659D01*
X30315Y104714D01*
Y103402D01*
X29659Y102746D01*
X27035D01*
X30315Y109305D02*
Y106682D01*
X27691Y109305D01*
X27035D01*
X26379Y108649D01*
Y107337D01*
X27035Y106682D01*
X11811Y220472D02*
G03*
X0Y208661I0J-11811D01*
G01*
Y11811D02*
G03*
X11811Y0I11811J0D01*
G01*
X244094D02*
G03*
X255906Y11811I0J11811D01*
G01*
Y208661D02*
G03*
X244094Y220472I-11811J0D01*
G01*
X255906Y11811D02*
Y208661D01*
X11811Y220472D02*
X244094D01*
X11811Y0D02*
X244094D01*
X0Y11811D02*
Y208661D01*
X-196850Y-196850D02*
X1456693D01*
X-196850D02*
Y972441D01*
X1456693Y-196850D02*
Y972441D01*
X-196850D02*
X1456693D01*
X1181102Y-196850D02*
Y-39370D01*
X984252Y-196850D02*
Y-39370D01*
X1456693D01*
X984252Y-157480D02*
X1456693D01*
X1181102Y-118110D02*
X1456693D01*
X1181102Y-78740D02*
X1456693D01*
X1338583Y-157480D02*
Y-118110D01*
X1190945Y-188976D02*
Y-183073D01*
X1193897D01*
X1194881Y-184057D01*
Y-186025D01*
X1193897Y-187009D01*
X1190945D01*
X1192913D02*
X1194881Y-188976D01*
X1196848D02*
Y-183073D01*
X1199800D01*
X1200784Y-184057D01*
Y-186025D01*
X1199800Y-187009D01*
X1196848D01*
X1202752Y-183073D02*
X1204720D01*
X1203736D01*
Y-188976D01*
X1202752D01*
X1204720D01*
X1207672Y-189960D02*
X1211607D01*
X1213575Y-183073D02*
Y-188976D01*
Y-186025D01*
X1217511D01*
Y-183073D01*
Y-188976D01*
X1219479D02*
Y-185041D01*
X1221447Y-183073D01*
X1223415Y-185041D01*
Y-188976D01*
Y-186025D01*
X1219479D01*
X1225383Y-183073D02*
X1229318D01*
X1227350D01*
Y-188976D01*
X1231286Y-189960D02*
X1235222D01*
X1237190Y-188976D02*
Y-185041D01*
X1239158Y-183073D01*
X1241125Y-185041D01*
Y-188976D01*
Y-186025D01*
X1237190D01*
X1243093Y-188976D02*
Y-183073D01*
X1245061Y-185041D01*
X1247029Y-183073D01*
Y-188976D01*
X1248997D02*
Y-183073D01*
X1251949D01*
X1252933Y-184057D01*
Y-186025D01*
X1251949Y-187009D01*
X1248997D01*
X1254900Y-189960D02*
X1258836D01*
X1260804Y-183073D02*
X1264740D01*
X1262772D01*
Y-188976D01*
X1266708D02*
Y-185041D01*
X1268676Y-183073D01*
X1270644Y-185041D01*
Y-188976D01*
Y-186025D01*
X1266708D01*
X1276547Y-184057D02*
X1275563Y-183073D01*
X1273595D01*
X1272611Y-184057D01*
Y-185041D01*
X1273595Y-186025D01*
X1275563D01*
X1276547Y-187009D01*
Y-187993D01*
X1275563Y-188976D01*
X1273595D01*
X1272611Y-187993D01*
X1282451Y-183073D02*
X1278515D01*
Y-186025D01*
X1280483Y-185041D01*
X1281467D01*
X1282451Y-186025D01*
Y-187993D01*
X1281467Y-188976D01*
X1279499D01*
X1278515Y-187993D01*
X1284418Y-183073D02*
X1288354D01*
Y-184057D01*
X1284418Y-187993D01*
Y-188976D01*
X1294258Y-183073D02*
X1290322D01*
Y-186025D01*
X1292290Y-185041D01*
X1293274D01*
X1294258Y-186025D01*
Y-187993D01*
X1293274Y-188976D01*
X1291306D01*
X1290322Y-187993D01*
X1300161Y-183073D02*
X1298194Y-184057D01*
X1296226Y-186025D01*
Y-187993D01*
X1297210Y-188976D01*
X1299177D01*
X1300161Y-187993D01*
Y-187009D01*
X1299177Y-186025D01*
X1296226D01*
X1302129Y-189960D02*
X1306065D01*
X1308033Y-184057D02*
X1309017Y-183073D01*
X1310985D01*
X1311969Y-184057D01*
Y-187993D01*
X1310985Y-188976D01*
X1309017D01*
X1308033Y-187993D01*
Y-184057D01*
X1317872Y-188976D02*
X1313937D01*
X1317872Y-185041D01*
Y-184057D01*
X1316888Y-183073D01*
X1314921D01*
X1313937Y-184057D01*
X1319840Y-188976D02*
Y-187993D01*
X1320824D01*
Y-188976D01*
X1319840D01*
X1324760D02*
Y-183073D01*
X1327712D01*
X1328696Y-184057D01*
Y-186025D01*
X1327712Y-187009D01*
X1324760D01*
X1334599Y-185041D02*
X1331647D01*
X1330663Y-186025D01*
Y-187993D01*
X1331647Y-188976D01*
X1334599D01*
X1336567Y-183073D02*
Y-188976D01*
X1339519D01*
X1340503Y-187993D01*
Y-187009D01*
Y-186025D01*
X1339519Y-185041D01*
X1336567D01*
X1342471Y-183073D02*
Y-188976D01*
X1345422D01*
X1346406Y-187993D01*
Y-184057D01*
X1345422Y-183073D01*
X1342471D01*
X1349358Y-188976D02*
X1351326D01*
X1352310Y-187993D01*
Y-186025D01*
X1351326Y-185041D01*
X1349358D01*
X1348374Y-186025D01*
Y-187993D01*
X1349358Y-188976D01*
X1358214Y-185041D02*
X1355262D01*
X1354278Y-186025D01*
Y-187993D01*
X1355262Y-188976D01*
X1358214D01*
D35*
X1202756Y-96461D02*
X1211939D01*
X1207348D01*
Y-110236D01*
X1218827D02*
X1223419D01*
X1225714Y-107940D01*
Y-103349D01*
X1223419Y-101053D01*
X1218827D01*
X1216531Y-103349D01*
Y-107940D01*
X1218827Y-110236D01*
X1230306Y-114828D02*
Y-101053D01*
X1237194D01*
X1239489Y-103349D01*
Y-107940D01*
X1237194Y-110236D01*
X1230306D01*
X1264744Y-96461D02*
X1260152D01*
X1257856Y-98757D01*
Y-107940D01*
X1260152Y-110236D01*
X1264744D01*
X1267040Y-107940D01*
Y-98757D01*
X1264744Y-96461D01*
X1271631Y-101053D02*
X1276223Y-110236D01*
X1280815Y-101053D01*
X1292294Y-110236D02*
X1287702D01*
X1285406Y-107940D01*
Y-103349D01*
X1287702Y-101053D01*
X1292294D01*
X1294590Y-103349D01*
Y-105645D01*
X1285406D01*
X1299181Y-101053D02*
Y-110236D01*
Y-105645D01*
X1301477Y-103349D01*
X1303773Y-101053D01*
X1306069D01*
X1312957Y-110236D02*
X1317548D01*
X1315252D01*
Y-96461D01*
X1312957D01*
X1326732Y-101053D02*
X1331323D01*
X1333619Y-103349D01*
Y-110236D01*
X1326732D01*
X1324436Y-107940D01*
X1326732Y-105645D01*
X1333619D01*
X1338211Y-101053D02*
Y-107940D01*
X1340507Y-110236D01*
X1347394D01*
Y-112532D01*
X1345098Y-114828D01*
X1342803D01*
X1347394Y-110236D02*
Y-101053D01*
X33463Y3937D02*
Y9185D01*
X36087Y6561D02*
X30839D01*
X82007Y3937D02*
Y9185D01*
X170589Y3937D02*
Y9185D01*
X173213Y6561D02*
X167965D01*
X228345Y3937D02*
Y9185D01*
X180117Y3937D02*
Y9185D01*
X182741Y6561D02*
X177493D01*
X122046Y3937D02*
Y9185D01*
X1190945Y-57092D02*
X1201440D01*
X1196192D01*
Y-72835D01*
X1206688D02*
Y-62339D01*
X1211936Y-57092D01*
X1217183Y-62339D01*
Y-72835D01*
Y-64963D01*
X1206688D01*
X1232926Y-59715D02*
X1230302Y-57092D01*
X1225055D01*
X1222431Y-59715D01*
Y-62339D01*
X1225055Y-64963D01*
X1230302D01*
X1232926Y-67587D01*
Y-70211D01*
X1230302Y-72835D01*
X1225055D01*
X1222431Y-70211D01*
X1248669Y-57092D02*
X1238174D01*
Y-64963D01*
X1243421Y-62339D01*
X1246045D01*
X1248669Y-64963D01*
Y-70211D01*
X1246045Y-72835D01*
X1240798D01*
X1238174Y-70211D01*
X1253917Y-57092D02*
X1264412D01*
Y-59715D01*
X1253917Y-70211D01*
Y-72835D01*
X1280155Y-57092D02*
X1269660D01*
Y-64963D01*
X1274907Y-62339D01*
X1277531D01*
X1280155Y-64963D01*
Y-70211D01*
X1277531Y-72835D01*
X1272283D01*
X1269660Y-70211D01*
X1295898Y-57092D02*
X1290650Y-59715D01*
X1285402Y-64963D01*
Y-70211D01*
X1288026Y-72835D01*
X1293274D01*
X1295898Y-70211D01*
Y-67587D01*
X1293274Y-64963D01*
X1285402D01*
X1316888Y-57092D02*
Y-72835D01*
Y-64963D01*
X1327384D01*
Y-57092D01*
Y-72835D01*
X1332631D02*
Y-62339D01*
X1337879Y-57092D01*
X1343127Y-62339D01*
Y-72835D01*
Y-64963D01*
X1332631D01*
X1348374Y-57092D02*
X1358870D01*
X1353622D01*
Y-72835D01*
X1206034Y-151575D02*
X1196850D01*
X1206034Y-142391D01*
Y-140096D01*
X1203738Y-137800D01*
X1199146D01*
X1196850Y-140096D01*
X1219809Y-151575D02*
X1210625D01*
X1219809Y-142391D01*
Y-140096D01*
X1217513Y-137800D01*
X1212921D01*
X1210625Y-140096D01*
X1224401Y-151575D02*
X1233584Y-142391D01*
X1238176Y-140096D02*
X1240471Y-137800D01*
X1245063D01*
X1247359Y-140096D01*
Y-149279D01*
X1245063Y-151575D01*
X1240471D01*
X1238176Y-149279D01*
Y-140096D01*
X1251951D02*
X1254247Y-137800D01*
X1258838D01*
X1261134Y-140096D01*
Y-142391D01*
X1258838Y-144687D01*
X1256542D01*
X1258838D01*
X1261134Y-146983D01*
Y-149279D01*
X1258838Y-151575D01*
X1254247D01*
X1251951Y-149279D01*
X1265726Y-151575D02*
X1274909Y-142391D01*
X1288684Y-151575D02*
X1279501D01*
X1288684Y-142391D01*
Y-140096D01*
X1286388Y-137800D01*
X1281797D01*
X1279501Y-140096D01*
X1293276D02*
X1295572Y-137800D01*
X1300163D01*
X1302459Y-140096D01*
Y-149279D01*
X1300163Y-151575D01*
X1295572D01*
X1293276Y-149279D01*
Y-140096D01*
X1307051Y-151575D02*
X1311643D01*
X1309347D01*
Y-137800D01*
X1307051Y-140096D01*
X1318530Y-137800D02*
X1327714D01*
Y-140096D01*
X1318530Y-149279D01*
Y-151575D01*
X1360236Y-138456D02*
X1362860Y-135832D01*
X1368108D01*
X1370732Y-138456D01*
Y-148951D01*
X1368108Y-151575D01*
X1362860D01*
X1360236Y-148951D01*
Y-138456D01*
X1386475Y-151575D02*
X1375979D01*
X1386475Y-141079D01*
Y-138456D01*
X1383851Y-135832D01*
X1378603D01*
X1375979Y-138456D01*
X1005906Y-175202D02*
Y-190945D01*
X1011153Y-185697D01*
X1016401Y-190945D01*
Y-175202D01*
X1021649Y-190945D02*
X1026896D01*
X1024272D01*
Y-180450D01*
X1021649D01*
X1034768Y-190945D02*
Y-180450D01*
X1037391D01*
X1040015Y-183073D01*
Y-190945D01*
Y-183073D01*
X1042639Y-180450D01*
X1045263Y-183073D01*
Y-190945D01*
X1050511Y-175202D02*
Y-185697D01*
X1055758Y-190945D01*
X1061006Y-185697D01*
Y-175202D01*
X1076749Y-177826D02*
X1074125Y-175202D01*
X1068877D01*
X1066253Y-177826D01*
Y-188321D01*
X1068877Y-190945D01*
X1074125D01*
X1076749Y-188321D01*
Y-183073D01*
X1071501D01*
D36*
X241929Y169095D02*
G03*
X241929Y169095I-492J0D01*
G01*
X160630Y175000D02*
G03*
X160630Y175000I-492J0D01*
G01*
X117126Y89764D02*
G03*
X117126Y89764I-492J0D01*
G01*
X227874Y109843D02*
G03*
X227874Y109843I-492J0D01*
G01*
X83661Y16534D02*
X86810D01*
X85236D01*
Y11811D01*
X88384D02*
Y14960D01*
X89959Y16534D01*
X91533Y14960D01*
Y11811D01*
Y14173D01*
X88384D01*
X96256Y15747D02*
X95469Y16534D01*
X93894D01*
X93107Y15747D01*
Y14960D01*
X93894Y14173D01*
X95469D01*
X96256Y13385D01*
Y12598D01*
X95469Y11811D01*
X93894D01*
X93107Y12598D01*
X100979Y16534D02*
X97830D01*
Y14173D01*
X99404Y14960D01*
X100191D01*
X100979Y14173D01*
Y12598D01*
X100191Y11811D01*
X98617D01*
X97830Y12598D01*
X102553Y16534D02*
X105701D01*
Y15747D01*
X102553Y12598D01*
Y11811D01*
X110424Y16534D02*
X107276D01*
Y14173D01*
X108850Y14960D01*
X109637D01*
X110424Y14173D01*
Y12598D01*
X109637Y11811D01*
X108063D01*
X107276Y12598D01*
X115147Y16534D02*
X113573Y15747D01*
X111999Y14173D01*
Y12598D01*
X112786Y11811D01*
X114360D01*
X115147Y12598D01*
Y13385D01*
X114360Y14173D01*
X111999D01*
X116722Y11811D02*
Y16534D01*
X118296Y14960D01*
X119870Y16534D01*
Y11811D01*
X53345Y5904D02*
X52558Y6691D01*
X50984D01*
X50197Y5904D01*
Y2756D01*
X50984Y1969D01*
X52558D01*
X53345Y2756D01*
X54920Y6691D02*
Y1969D01*
Y4330D01*
X55707Y5117D01*
X57281D01*
X58068Y4330D01*
Y1969D01*
X64366Y6691D02*
Y1969D01*
X66727D01*
X67514Y2756D01*
Y3543D01*
X66727Y4330D01*
X64366D01*
X66727D01*
X67514Y5117D01*
Y5904D01*
X66727Y6691D01*
X64366D01*
X193898Y1969D02*
Y6691D01*
X196259D01*
X197046Y5904D01*
Y4330D01*
X196259Y3543D01*
X193898D01*
X200982Y6691D02*
X199408D01*
X198620Y5904D01*
Y2756D01*
X199408Y1969D01*
X200982D01*
X201769Y2756D01*
Y5904D01*
X200982Y6691D01*
X203343D02*
Y1969D01*
X204918Y3543D01*
X206492Y1969D01*
Y6691D01*
X211215D02*
X208066D01*
Y1969D01*
X211215D01*
X208066Y4330D02*
X209641D01*
X212789Y1969D02*
Y6691D01*
X215151D01*
X215938Y5904D01*
Y4330D01*
X215151Y3543D01*
X212789D01*
X214364D02*
X215938Y1969D01*
X138975Y5904D02*
X138188Y6691D01*
X136614D01*
X135827Y5904D01*
Y2756D01*
X136614Y1969D01*
X138188D01*
X138975Y2756D01*
X140550Y6691D02*
Y1969D01*
Y4330D01*
X141337Y5117D01*
X142911D01*
X143698Y4330D01*
Y1969D01*
X149995D02*
Y5117D01*
X151570Y6691D01*
X153144Y5117D01*
Y1969D01*
Y4330D01*
X149995D01*
X1185039Y-161420D02*
Y-169291D01*
X1188975D01*
X1190287Y-167979D01*
Y-162732D01*
X1188975Y-161420D01*
X1185039D01*
X1194223Y-169291D02*
X1196847D01*
X1198158Y-167979D01*
Y-165356D01*
X1196847Y-164044D01*
X1194223D01*
X1192911Y-165356D01*
Y-167979D01*
X1194223Y-169291D01*
X1206030Y-164044D02*
X1202094D01*
X1200782Y-165356D01*
Y-167979D01*
X1202094Y-169291D01*
X1206030D01*
X1208654Y-164044D02*
Y-167979D01*
X1209966Y-169291D01*
X1213902D01*
Y-164044D01*
X1216525Y-169291D02*
Y-164044D01*
X1217837D01*
X1219149Y-165356D01*
Y-169291D01*
Y-165356D01*
X1220461Y-164044D01*
X1221773Y-165356D01*
Y-169291D01*
X1228333D02*
X1225709D01*
X1224397Y-167979D01*
Y-165356D01*
X1225709Y-164044D01*
X1228333D01*
X1229644Y-165356D01*
Y-166667D01*
X1224397D01*
X1232268Y-169291D02*
Y-164044D01*
X1236204D01*
X1237516Y-165356D01*
Y-169291D01*
X1241452Y-162732D02*
Y-164044D01*
X1240140D01*
X1242764D01*
X1241452D01*
Y-167979D01*
X1242764Y-169291D01*
X1185039Y-122050D02*
Y-129921D01*
X1188975D01*
X1190287Y-128609D01*
Y-123362D01*
X1188975Y-122050D01*
X1185039D01*
X1194223Y-124674D02*
X1196847D01*
X1198158Y-125986D01*
Y-129921D01*
X1194223D01*
X1192911Y-128609D01*
X1194223Y-127297D01*
X1198158D01*
X1202094Y-123362D02*
Y-124674D01*
X1200782D01*
X1203406D01*
X1202094D01*
Y-128609D01*
X1203406Y-129921D01*
X1211278D02*
X1208654D01*
X1207342Y-128609D01*
Y-125986D01*
X1208654Y-124674D01*
X1211278D01*
X1212589Y-125986D01*
Y-127297D01*
X1207342D01*
X1185039Y-82680D02*
Y-90551D01*
X1190287D01*
X1194223Y-85303D02*
X1196847D01*
X1198158Y-86615D01*
Y-90551D01*
X1194223D01*
X1192911Y-89239D01*
X1194223Y-87927D01*
X1198158D01*
X1200782Y-85303D02*
Y-89239D01*
X1202094Y-90551D01*
X1206030D01*
Y-91863D01*
X1204718Y-93175D01*
X1203406D01*
X1206030Y-90551D02*
Y-85303D01*
X1212590Y-90551D02*
X1209966D01*
X1208654Y-89239D01*
Y-86615D01*
X1209966Y-85303D01*
X1212590D01*
X1213902Y-86615D01*
Y-87927D01*
X1208654D01*
X1216525Y-85303D02*
Y-90551D01*
Y-87927D01*
X1217837Y-86615D01*
X1219149Y-85303D01*
X1220461D01*
X1232268Y-90551D02*
Y-82680D01*
X1237516Y-90551D01*
Y-82680D01*
X1241452Y-85303D02*
X1244075D01*
X1245387Y-86615D01*
Y-90551D01*
X1241452D01*
X1240140Y-89239D01*
X1241452Y-87927D01*
X1245387D01*
X1248011Y-90551D02*
Y-85303D01*
X1249323D01*
X1250635Y-86615D01*
Y-90551D01*
Y-86615D01*
X1251947Y-85303D01*
X1253259Y-86615D01*
Y-90551D01*
X1259818D02*
X1257195D01*
X1255883Y-89239D01*
Y-86615D01*
X1257195Y-85303D01*
X1259818D01*
X1261130Y-86615D01*
Y-87927D01*
X1255883D01*
X1185039Y-43310D02*
Y-51181D01*
X1188975D01*
X1190287Y-49869D01*
Y-44622D01*
X1188975Y-43310D01*
X1185039D01*
X1194223Y-51181D02*
X1196847D01*
X1198158Y-49869D01*
Y-47245D01*
X1196847Y-45933D01*
X1194223D01*
X1192911Y-47245D01*
Y-49869D01*
X1194223Y-51181D01*
X1206030Y-45933D02*
X1202094D01*
X1200782Y-47245D01*
Y-49869D01*
X1202094Y-51181D01*
X1206030D01*
X1208654Y-45933D02*
Y-49869D01*
X1209966Y-51181D01*
X1213902D01*
Y-45933D01*
X1216525Y-51181D02*
Y-45933D01*
X1217837D01*
X1219149Y-47245D01*
Y-51181D01*
Y-47245D01*
X1220461Y-45933D01*
X1221773Y-47245D01*
Y-51181D01*
X1228333D02*
X1225709D01*
X1224397Y-49869D01*
Y-47245D01*
X1225709Y-45933D01*
X1228333D01*
X1229644Y-47245D01*
Y-48557D01*
X1224397D01*
X1232268Y-51181D02*
Y-45933D01*
X1236204D01*
X1237516Y-47245D01*
Y-51181D01*
X1241452Y-44622D02*
Y-45933D01*
X1240140D01*
X1242764D01*
X1241452D01*
Y-49869D01*
X1242764Y-51181D01*
X988189Y-161420D02*
Y-169291D01*
X992125D01*
X993437Y-167979D01*
Y-162732D01*
X992125Y-161420D01*
X988189D01*
X999996Y-169291D02*
X997372D01*
X996060Y-167979D01*
Y-165356D01*
X997372Y-164044D01*
X999996D01*
X1001308Y-165356D01*
Y-166667D01*
X996060D01*
X1003932Y-169291D02*
X1007868D01*
X1009180Y-167979D01*
X1007868Y-166667D01*
X1005244D01*
X1003932Y-165356D01*
X1005244Y-164044D01*
X1009180D01*
X1014427Y-171915D02*
X1015739D01*
X1017051Y-170603D01*
Y-164044D01*
X1013115D01*
X1011803Y-165356D01*
Y-167979D01*
X1013115Y-169291D01*
X1017051D01*
X1019675D02*
X1022299D01*
X1020987D01*
Y-164044D01*
X1019675D01*
X1026235Y-169291D02*
Y-164044D01*
X1030170D01*
X1031482Y-165356D01*
Y-169291D01*
X1038042D02*
X1035418D01*
X1034106Y-167979D01*
Y-165356D01*
X1035418Y-164044D01*
X1038042D01*
X1039354Y-165356D01*
Y-166667D01*
X1034106D01*
X1041977Y-164044D02*
Y-169291D01*
Y-166667D01*
X1043289Y-165356D01*
X1044601Y-164044D01*
X1045913D01*
X1342520Y-129921D02*
Y-122050D01*
X1346455D01*
X1347767Y-123362D01*
Y-125986D01*
X1346455Y-127297D01*
X1342520D01*
X1345144D02*
X1347767Y-129921D01*
X1354327D02*
X1351703D01*
X1350391Y-128609D01*
Y-125986D01*
X1351703Y-124674D01*
X1354327D01*
X1355639Y-125986D01*
Y-127297D01*
X1350391D01*
X1358263Y-124674D02*
X1360886Y-129921D01*
X1363510Y-124674D01*
D37*
X202771Y62871D02*
G03*
X219199Y53448I1953J-15626D01*
G01*
X242126Y45276D02*
G03*
X242126Y45276I-9843J0D01*
G01*
X126575Y146850D02*
G03*
X126575Y146850I-2953J0D01*
G01*
Y156850D02*
G03*
X126575Y156850I-2953J0D01*
G01*
X162559Y167323D02*
G03*
X162559Y167323I-2953J0D01*
G01*
X152559D02*
G03*
X152559Y167323I-2953J0D01*
G01*
X182559Y187323D02*
G03*
X182559Y187323I-2953J0D01*
G01*
X172559Y167323D02*
G03*
X172559Y167323I-2953J0D01*
G01*
X182559Y177323D02*
G03*
X182559Y177323I-2953J0D01*
G01*
X217169Y144095D02*
Y147244D01*
X227713Y144095D02*
Y147244D01*
X236854Y144095D02*
Y147244D01*
X247398Y144095D02*
Y147244D01*
X237752Y74016D02*
Y77165D01*
X230752Y74016D02*
Y77165D01*
X202406Y181496D02*
Y184646D01*
X209405Y181496D02*
Y184646D01*
X144882Y133858D02*
Y136221D01*
X138583Y133858D02*
Y136221D01*
X150197Y194882D02*
X150984D01*
X150197Y190945D02*
X150984D01*
X138189Y141732D02*
X138976D01*
X138189Y145669D02*
X138976D01*
X72441Y129528D02*
X73228D01*
X72441Y133465D02*
X73228D01*
X132874Y131299D02*
Y132087D01*
X136811Y131299D02*
Y132087D01*
X72441Y127165D02*
X73228D01*
X72441Y123228D02*
X73228D01*
X72441Y117323D02*
X73228D01*
X72441Y121260D02*
X73228D01*
X72441Y136221D02*
X73228D01*
X72441Y140157D02*
X73228D01*
X146457Y121457D02*
Y122244D01*
X152756Y121457D02*
Y122244D01*
X66142Y100984D02*
Y101772D01*
X59842Y100984D02*
Y101772D01*
X151575Y97638D02*
Y98425D01*
X145276Y97638D02*
Y98425D01*
X144882Y121457D02*
Y122244D01*
X138583Y121457D02*
Y122244D01*
X130315Y109646D02*
X131102D01*
X130315Y115945D02*
X131102D01*
X121850Y80512D02*
X122638D01*
X121850Y86811D02*
X122638D01*
X62205Y119291D02*
Y120079D01*
X55905Y119291D02*
Y120079D01*
X73327Y113583D02*
X74114D01*
X73327Y107283D02*
X74114D01*
X136614Y86221D02*
Y87008D01*
X142913Y86221D02*
Y87008D01*
X82284Y86811D02*
X83071D01*
X82284Y80512D02*
X83071D01*
X59842Y86221D02*
Y87008D01*
X66142Y86221D02*
Y87008D01*
X75590Y32283D02*
X76378D01*
X75590Y38583D02*
X76378D01*
X41732D02*
X42520D01*
X41732Y32283D02*
X42520D01*
X162205D02*
X162992D01*
X162205Y38583D02*
X162992D01*
X127559D02*
X128347D01*
X127559Y32283D02*
X128347D01*
X43854Y95866D02*
Y99016D01*
X36854Y95866D02*
Y99016D01*
X161571Y90158D02*
Y93307D01*
X154571Y90158D02*
Y93307D01*
X53697Y95866D02*
Y99016D01*
X46697Y95866D02*
Y99016D01*
X171413Y90158D02*
Y93307D01*
X164413Y90158D02*
Y93307D01*
X167760Y110827D02*
Y113976D01*
X174760Y110827D02*
Y113976D01*
X177602Y110827D02*
Y113976D01*
X184602Y110827D02*
Y113976D01*
X44728Y117520D02*
Y120669D01*
X51728Y117520D02*
Y120669D01*
X34886Y117520D02*
Y120669D01*
X41886Y117520D02*
Y120669D01*
X168504Y179134D02*
X170079D01*
X168504Y175197D02*
X170079D01*
X168504Y188976D02*
X170079D01*
X168504Y185039D02*
X170079D01*
X141732Y181299D02*
Y182874D01*
X145669Y181299D02*
Y182874D01*
X157480Y109843D02*
X159055D01*
X157480Y113779D02*
X159055D01*
X248031Y175394D02*
Y176969D01*
X251969Y175394D02*
Y176969D01*
X233465Y185039D02*
X235039D01*
X233465Y188976D02*
X235039D01*
X120472Y177165D02*
X122047D01*
X120472Y181102D02*
X122047D01*
X120472Y183071D02*
X122047D01*
X120472Y187008D02*
X122047D01*
X144095Y109843D02*
X145669D01*
X144095Y113779D02*
X145669D01*
X20866Y64961D02*
Y66535D01*
X24803Y64961D02*
Y66535D01*
X208661Y74410D02*
Y75197D01*
X204724Y74410D02*
Y75197D01*
X216535Y74016D02*
Y75590D01*
X220472Y74016D02*
Y75590D01*
X222441Y74410D02*
Y75197D01*
X226378Y74410D02*
Y75197D01*
X210630Y74016D02*
Y75590D01*
X214567Y74016D02*
Y75590D01*
X197638Y135039D02*
Y136614D01*
X193701Y135039D02*
Y136614D01*
X200787Y135039D02*
Y136614D01*
X204724Y135039D02*
Y136614D01*
X212598Y125197D02*
Y126772D01*
X208661Y125197D02*
Y126772D01*
X220472Y125591D02*
Y126378D01*
X216535Y125591D02*
Y126378D01*
X212598Y143307D02*
Y144095D01*
X208661Y143307D02*
Y144095D01*
X229528Y116142D02*
X235039D01*
X229528Y131890D02*
X235039D01*
X202756Y38385D02*
X206692D01*
X204724Y40353D02*
Y36417D01*
X224016Y35433D02*
Y38057D01*
X222705Y36745D02*
X225328D01*
D53*
X128150Y127953D02*
G03*
X128150Y127953I-1181J0D01*
G01*
X82874Y110236D02*
G03*
X82874Y110236I-1181J0D01*
G01*
X83071Y150394D02*
G03*
X83071Y150394I-1181J0D01*
G01*
X80315Y145276D02*
G03*
X80315Y145276I-1181J0D01*
G01*
X127165Y138583D02*
G03*
X127165Y138583I-1181J0D01*
G01*
X124213Y133858D02*
G03*
X124213Y133858I-1181J0D01*
G01*
Y127953D02*
G03*
X124213Y127953I-1181J0D01*
G01*
X117008Y78465D02*
X142835D01*
X117008Y53425D02*
X142835D01*
Y78465D01*
X117008Y53425D02*
Y78465D01*
X145551Y66654D02*
X171378D01*
X145551Y41614D02*
X171378D01*
Y66654D01*
X145551Y41614D02*
Y66654D01*
X33346D02*
X59173D01*
X33346Y41614D02*
X59173D01*
Y66654D01*
X33346Y41614D02*
Y66654D01*
X61890Y78465D02*
X87717D01*
X61890Y53425D02*
X87717D01*
Y78465D01*
X61890Y53425D02*
Y78465D01*
X16535Y40551D02*
Y45276D01*
X13386Y40551D02*
Y45276D01*
Y42126D02*
X16535D01*
M02*
