M48
;Layer_Color=9474304
;FILE_FORMAT=2:5
INCH,LZ
;TYPE=PLATED
T1F00S00C0.01181
T2F00S00C0.02362
T3F00S00C0.02559
T4F00S00C0.02953
T5F00S00C0.03543
T6F00S00C0.05118
;TYPE=NON_PLATED
T8F00S00C0.10827
%
T01
X0166339Y002874
Y0040945
X0165945Y0080905
X0169882
X0160039
X0156102
X0148425Y008937
X0140945Y0095669
X0153937Y0102756
X0157874
X0161811
X0165748
X0169291Y0123228
X0173228
X0179134
X0183071
X0196457Y0124803
X0209035Y0116142
X0206693Y0103347
Y0097441
X0226378
X0232283
Y0103347
X0226378
X0224409Y006752
X0218504Y0067519
X0212599
X0232283Y0064764
X0236221
X0149606Y0129921
X0135039Y0117717
X0107087Y011752
X0102362
X0097638
Y0122244
X0102362
X0107087
Y0126969
X0102362
X0097638
Y0131693
X0102362
X0107087
Y0103347
Y0098622
X0102362
Y0103347
X0097638
Y0098622
X0098819Y0092717
X0102362
X0105905
X0109449
X0110236Y0087599
X0106299
X0102362
X0098425
X0094488
X0093701Y008248
X0098032
X0102362
X0106693
X0111024
X0111811Y0077362
X0107087
X0102362
X0097638
X0092913
X0092126Y0072244
X0097244
X0102362
Y0067126
Y0062008
Y005689
Y0051772
Y0046654
Y0041536
Y0036417
Y0031299
Y0026181
Y0021063
X0108661
Y0026181
Y0031299
Y0036417
Y0041536
Y0046654
Y0051772
Y005689
X0108268Y0062008
X0107874Y0067126
X010748Y0072244
X0112598
X0113386Y0067126
X0114173Y0062008
X0114961Y005689
Y0051772
Y0046654
Y0041536
Y0036417
Y0031299
Y0026181
Y0021063
X0124213Y0029528
Y0042126
X0096063Y0041536
Y0036417
Y0031299
Y0026181
Y0021063
X0089764
Y0026181
Y0031299
Y0036417
Y0041536
Y0046654
Y0051772
Y005689
X0090551Y0062008
X0091339Y0067126
X009685
X0096457Y0062008
X0096063Y005689
Y0051772
Y0046654
X0079724Y0042126
Y0029528
X0038386Y002874
Y0040945
X0017323Y0062598
X0014173Y0072441
X0038386Y0086614
X0042323
X0048228
X0052165
X0058268Y0098425
X0067716
X0065945Y0119291
X0065552Y0131496
X0050197Y0129921
X004626
X0040354
X0036417
X0038386Y0108071
X0042323
X004626
X0050197
X0095276Y0092717
Y0137598
X0098819
X0102362
X0105905
X0109449
X0110236Y0142717
X0114173
X0115354Y0147835
X0111024
X0106693
X0102362
X0098032
X0093701
X008937
X0088189Y0152953
X0092913
X0097638
X0102362
X0107087
X0111811
X0116535
X0117717Y0158071
X0112598
X010748
X0102362
Y0163189
Y0168307
Y0173425
X0108661
X0108268Y0168307
X0107874Y0163189
X0113386
X0118898
X0120079Y0168307
X0114173
X0114961Y0173425
X012126
X0112954Y0187402
X0096063Y0173425
X0096457Y0168307
X009685Y0163189
X0097244Y0158071
X0092126
X0087008
X0085827Y0163189
X0091339
X0090551Y0168307
X0089764Y0173425
X0083465
X0084646Y0168307
X0082954Y0184055
X0088189Y0194882
X0057874Y0197638
X0065552Y0138189
X008189Y0147244
X0090551Y0142717
X0094488
X0098425
X0102362
X0106299
X0125984Y0138583
X0127953Y020748
X0025591Y0153543
X0136944Y0149543
X0142913Y0151969
X0134843Y013937
X015315Y0134252
X0195669Y0143111
X021063Y0150984
X0220472Y0156496
X0224409
X0240158
X0244094
X025Y0168897
X0241536Y0187008
X0207874Y0172835
X0203937
X0198031Y0206299
X0172244Y0182087
X0165354
X021063Y0133268
T02
X0123622Y014685
Y015685
X0149606Y0167323
X0159606
X0169606
X0179606Y0177323
Y0187323
T03
X0232283Y0041339
Y0049213
T04
X0199853Y0042372
X0209596Y0052116
T05
X0006693Y0039213
Y0049213
X001Y015
Y016
Y017
Y018
X004Y019
X005
X006
X007
X0072953Y0201693
X0062954
Y0211693
X0072954
X0082954Y0211693
Y0201693
X0092954Y0201693
X0102954
X0102954Y0211693
X0112954Y0211693
Y0201693
X0122954
Y0211693
X0092954
X0052953Y0211693
X0052953Y0201693
X0042954
Y0211693
X0032954
Y0201693
X0132954
X0132954Y0211693
X0142954Y0211693
Y0201693
X0152954
X0162954
X0162954Y0211693
X0152954
X0172954Y0211693
Y0201693
X0182954Y0201693
X0182954Y0211693
X0192954Y0211693
X0192954Y0201693
X0202954Y0201693
X0202954Y0211693
X0212954
Y0201693
X0222954
X0222954Y0211693
T06
X0135669Y001378
X0155669
X0194724
X0214724
X0069055
X0049055
T08
X0242126Y001378
X001378
X0045276Y0151575
X001378Y0206693
X0242126
M30
