G04 Layer_Physical_Order=1*
G04 Layer_Color=48896*
%FSLAX25Y25*%
%MOIN*%
G70*
G01*
G75*
%ADD10C,0.05905*%
%ADD11C,0.02362*%
%ADD12C,0.01968*%
%ADD13R,0.10630X0.06299*%
%ADD14R,0.07087X0.06299*%
%ADD15R,0.20984X0.05630*%
%ADD16R,0.05905X0.02756*%
%ADD17R,0.03347X0.03937*%
%ADD18R,0.03347X0.03937*%
%ADD19R,0.04528X0.02362*%
%ADD20C,0.01575*%
%ADD21R,0.06890X0.01181*%
%ADD22R,0.16142X0.35827*%
%ADD23R,0.01575X0.01890*%
%ADD24R,0.04331X0.03937*%
%ADD25R,0.03937X0.04331*%
%ADD26R,0.05905X0.05118*%
%ADD27R,0.05118X0.05905*%
%ADD28R,0.12992X0.09488*%
%ADD29O,0.02362X0.07874*%
%ADD30R,0.04331X0.14567*%
%ADD31C,0.03504*%
%ADD32C,0.01181*%
%ADD33C,0.03937*%
%ADD34C,0.00787*%
%ADD35C,0.01575*%
%ADD36C,0.00984*%
%ADD37C,0.00591*%
%ADD38C,0.01000*%
%ADD39R,0.31496X0.09449*%
G04:AMPARAMS|DCode=40|XSize=49.21mil|YSize=49.21mil|CornerRadius=12.3mil|HoleSize=0mil|Usage=FLASHONLY|Rotation=45.000|XOffset=0mil|YOffset=0mil|HoleType=Round|Shape=RoundedRectangle|*
%AMROUNDEDRECTD40*
21,1,0.04921,0.02461,0,0,45.0*
21,1,0.02461,0.04921,0,0,45.0*
1,1,0.02461,0.01740,0.00000*
1,1,0.02461,0.00000,-0.01740*
1,1,0.02461,-0.01740,0.00000*
1,1,0.02461,0.00000,0.01740*
%
%ADD40ROUNDEDRECTD40*%
%ADD41P,0.06960X4X90.0*%
%ADD42R,0.03937X0.03937*%
G04:AMPARAMS|DCode=43|XSize=39.37mil|YSize=39.37mil|CornerRadius=9.84mil|HoleSize=0mil|Usage=FLASHONLY|Rotation=90.000|XOffset=0mil|YOffset=0mil|HoleType=Round|Shape=RoundedRectangle|*
%AMROUNDEDRECTD43*
21,1,0.03937,0.01968,0,0,90.0*
21,1,0.01968,0.03937,0,0,90.0*
1,1,0.01968,0.00984,0.00984*
1,1,0.01968,0.00984,-0.00984*
1,1,0.01968,-0.00984,-0.00984*
1,1,0.01968,-0.00984,0.00984*
%
%ADD43ROUNDEDRECTD43*%
%ADD44C,0.04724*%
%ADD45O,0.07874X0.66929*%
%ADD46C,0.05118*%
G04:AMPARAMS|DCode=47|XSize=78.74mil|YSize=78.74mil|CornerRadius=19.68mil|HoleSize=0mil|Usage=FLASHONLY|Rotation=0.000|XOffset=0mil|YOffset=0mil|HoleType=Round|Shape=RoundedRectangle|*
%AMROUNDEDRECTD47*
21,1,0.07874,0.03937,0,0,0.0*
21,1,0.03937,0.07874,0,0,0.0*
1,1,0.03937,0.01968,-0.01968*
1,1,0.03937,-0.01968,-0.01968*
1,1,0.03937,-0.01968,0.01968*
1,1,0.03937,0.01968,0.01968*
%
%ADD47ROUNDEDRECTD47*%
%ADD48R,0.07874X0.07874*%
%ADD49C,0.05905*%
%ADD50R,0.05905X0.05905*%
%ADD51R,0.05905X0.05905*%
%ADD52C,0.02756*%
G36*
X125197Y159935D02*
X124697Y159601D01*
X124393Y159727D01*
X123622Y159829D01*
X122851Y159727D01*
X122133Y159430D01*
X121516Y158956D01*
X121043Y158340D01*
X120745Y157621D01*
X120644Y156850D01*
X120745Y156080D01*
X121043Y155361D01*
X121516Y154745D01*
X122133Y154271D01*
X122851Y153974D01*
X123622Y153872D01*
X124393Y153974D01*
X124818Y154150D01*
X125197Y153840D01*
Y149935D01*
X124697Y149601D01*
X124393Y149727D01*
X123622Y149829D01*
X122851Y149727D01*
X122133Y149430D01*
X121516Y148956D01*
X121043Y148339D01*
X120745Y147621D01*
X120644Y146850D01*
X120745Y146080D01*
X121043Y145361D01*
X121516Y144745D01*
X122133Y144271D01*
X122719Y144028D01*
Y140551D01*
X111417D01*
X110236Y133071D01*
Y97638D01*
Y97244D01*
X111221Y90551D01*
X112205Y89567D01*
X115157D01*
X115841Y88883D01*
X115924Y88759D01*
X116142Y88541D01*
Y87253D01*
X115945D01*
X115493Y87066D01*
X115306Y86614D01*
Y80709D01*
X115493Y80257D01*
X115945Y80070D01*
X116142D01*
Y56102D01*
X117323Y50394D01*
Y13780D01*
X87402D01*
Y50394D01*
X88583Y56102D01*
Y80070D01*
X88976D01*
X89428Y80257D01*
X89616Y80709D01*
Y86614D01*
X89428Y87066D01*
X88976Y87253D01*
X88583D01*
Y88542D01*
X88800Y88759D01*
X88883Y88883D01*
X89567Y89567D01*
X92520Y89567D01*
X93504Y90551D01*
X94488Y97244D01*
Y97638D01*
Y133071D01*
X93307Y140551D01*
X85039D01*
X81919Y175222D01*
X82256Y175591D01*
X125197D01*
Y159935D01*
D02*
G37*
G36*
X79921Y132677D02*
X84055Y128543D01*
X91535Y128543D01*
Y127362D01*
X85827D01*
Y126575D01*
X91535D01*
Y125394D01*
X84449Y125394D01*
X79527Y130315D01*
X75590D01*
Y132677D01*
X79921Y132677D01*
D02*
G37*
G36*
X192032Y109843D02*
X193898D01*
D01*
X198819Y109843D01*
X198819Y98819D01*
X200197Y97441D01*
X201752D01*
Y93701D01*
X201828Y93317D01*
X202046Y92992D01*
X205196Y89842D01*
X205521Y89624D01*
X205906Y89548D01*
X207229D01*
Y87795D01*
X207367Y87104D01*
X207758Y86518D01*
X208344Y86126D01*
X209035Y85989D01*
X209727Y86126D01*
X209795Y86172D01*
X210236Y85936D01*
X210236Y83112D01*
X208079Y80954D01*
X204725D01*
X204273Y80767D01*
X204085Y80315D01*
Y75984D01*
X204273Y75532D01*
X204725Y75345D01*
X207722D01*
X207913Y74883D01*
X207291Y74261D01*
X204725D01*
X204273Y74074D01*
X204249Y74016D01*
X200787Y74016D01*
X200787Y8858D01*
X189641D01*
X189641Y8858D01*
X182677D01*
Y15387D01*
X182725Y15748D01*
X182708D01*
Y45276D01*
Y74803D01*
X182725D01*
X182535Y76242D01*
X181980Y77583D01*
X181096Y78734D01*
X180315Y79334D01*
X180315Y88386D01*
X174606Y94095D01*
X156299D01*
X148622Y101772D01*
X113189Y101772D01*
Y102953D01*
X117717D01*
Y103740D01*
X113189D01*
Y104921D01*
X154724Y104921D01*
Y106674D01*
X160433D01*
X160817Y106750D01*
X161143Y106968D01*
X162324Y108149D01*
X162542Y108475D01*
X162618Y108859D01*
Y109204D01*
X163780D01*
X164232Y109391D01*
X164256Y109449D01*
X166535D01*
Y109843D01*
X184252Y109843D01*
Y109843D01*
X192032Y109843D01*
D02*
G37*
G36*
X51181Y112205D02*
X56496Y106890D01*
X91535Y106890D01*
Y105709D01*
X86024D01*
Y104921D01*
X91535D01*
Y103740D01*
X86024D01*
Y102953D01*
X91535D01*
Y101772D01*
X35433Y101772D01*
X35433Y114173D01*
X51181Y114173D01*
X51181Y112205D01*
D02*
G37*
G36*
X91535Y99016D02*
Y97835D01*
X84350D01*
X82579Y96063D01*
X80512Y96063D01*
X73721Y89272D01*
X73721Y84843D01*
X68996Y80118D01*
X61516Y80118D01*
X56693Y75295D01*
Y59252D01*
X35728D01*
Y64961D01*
X43209D01*
X46654Y68405D01*
Y75098D01*
X57087Y85532D01*
X66929Y85532D01*
X69390Y87992D01*
Y92028D01*
X76378Y99016D01*
X91535Y99016D01*
D02*
G37*
G36*
X123622Y95079D02*
X129724Y88976D01*
X129724Y80118D01*
X133169Y76673D01*
X140354D01*
Y71063D01*
X119390D01*
Y76772D01*
X123228D01*
X124409Y77953D01*
X124409Y89961D01*
X120472Y93898D01*
X113189D01*
Y95079D01*
X123622Y95079D01*
D02*
G37*
G36*
X91535Y93898D02*
X84252D01*
X80315Y89961D01*
X80315Y77953D01*
X81496Y76772D01*
X85335D01*
Y71063D01*
X64370D01*
Y76673D01*
X71555D01*
X75000Y80118D01*
X75000Y88976D01*
X81102Y95079D01*
X91535Y95079D01*
Y93898D01*
D02*
G37*
G36*
X135335Y92028D02*
Y87992D01*
X137795Y85532D01*
X147638Y85532D01*
X158071Y75098D01*
Y68405D01*
X161516Y64961D01*
X168996D01*
Y59252D01*
X148031D01*
Y75295D01*
X143209Y80118D01*
X135728Y80118D01*
X131004Y84843D01*
X131004Y89272D01*
X124213Y96063D01*
X122146Y96063D01*
X120374Y97835D01*
X113189D01*
Y99016D01*
X128346Y99016D01*
X135335Y92028D01*
D02*
G37*
G36*
X139764Y9843D02*
X129134D01*
Y38976D01*
X128347Y39764D01*
Y60630D01*
X139764D01*
Y9843D01*
D02*
G37*
G36*
X76378Y39764D02*
X74803Y38189D01*
Y9843D01*
X64961D01*
Y60630D01*
X76378D01*
Y39764D01*
D02*
G37*
G36*
X161417Y48819D02*
Y9843D01*
X151575Y9843D01*
Y39764D01*
X148425Y42913D01*
Y48819D01*
X161417Y48819D01*
D02*
G37*
G36*
X56299Y42913D02*
X53150Y39764D01*
Y9843D01*
X43307Y9843D01*
Y48819D01*
X56299Y48819D01*
Y42913D01*
D02*
G37*
G36*
X1165172Y-83717D02*
X1164886D01*
Y-84003D01*
X1164599D01*
Y-84290D01*
Y-84576D01*
X1164313D01*
Y-84862D01*
X1164027D01*
Y-85149D01*
X1163740D01*
Y-85435D01*
Y-85721D01*
X1163454D01*
Y-86007D01*
X1163168D01*
Y-86294D01*
X1162881D01*
Y-86580D01*
X1162595D01*
Y-86866D01*
Y-87153D01*
X1162309D01*
Y-87439D01*
X1162022D01*
Y-87725D01*
X1161736D01*
Y-88012D01*
Y-88298D01*
X1161450D01*
Y-88584D01*
X1161163D01*
Y-88871D01*
X1160877D01*
Y-89157D01*
X1160591D01*
Y-89443D01*
Y-89730D01*
X1160305D01*
Y-90016D01*
X1160018D01*
Y-90302D01*
X1159732D01*
Y-90588D01*
Y-90875D01*
X1159445D01*
Y-91161D01*
X1159159D01*
Y-91448D01*
X1158873D01*
Y-91734D01*
Y-92020D01*
X1158587D01*
Y-92306D01*
X1158300D01*
Y-92593D01*
X1158014D01*
Y-92879D01*
X1157728D01*
Y-93165D01*
Y-93452D01*
X1157441D01*
Y-93738D01*
X1157155D01*
Y-94024D01*
X1156869D01*
Y-94311D01*
Y-94597D01*
X1156582D01*
Y-94883D01*
X1156296D01*
Y-95170D01*
X1156010D01*
Y-95456D01*
Y-95742D01*
X1155723D01*
Y-96029D01*
X1155437D01*
Y-96315D01*
X1155151D01*
Y-96601D01*
X1154865D01*
Y-96887D01*
Y-97174D01*
X1154578D01*
Y-97460D01*
X1154292D01*
Y-97746D01*
X1154006D01*
Y-98033D01*
Y-98319D01*
X1153719D01*
Y-98605D01*
X1153433D01*
Y-98892D01*
X1153147D01*
Y-99178D01*
Y-99464D01*
X1152860D01*
Y-99751D01*
X1152574D01*
Y-100037D01*
X1152288D01*
Y-100323D01*
X1152001D01*
Y-100610D01*
Y-100896D01*
X1151715D01*
Y-101182D01*
X1151429D01*
Y-101468D01*
X1151142D01*
Y-101755D01*
Y-102041D01*
X1150856D01*
Y-102327D01*
X1150570D01*
Y-102614D01*
X1150284D01*
Y-102900D01*
X1149997D01*
Y-103186D01*
Y-103473D01*
X1150284D01*
Y-103759D01*
Y-104045D01*
X1150570D01*
Y-104332D01*
Y-104618D01*
X1150856D01*
Y-104904D01*
X1151142D01*
Y-105191D01*
Y-105477D01*
X1151429D01*
Y-105763D01*
Y-106049D01*
X1151715D01*
Y-106336D01*
Y-106622D01*
X1152001D01*
Y-106908D01*
Y-107195D01*
X1152288D01*
Y-107481D01*
Y-107767D01*
X1152574D01*
Y-108054D01*
Y-108340D01*
X1152860D01*
Y-108626D01*
Y-108913D01*
X1153147D01*
Y-109199D01*
Y-109485D01*
X1153433D01*
Y-109772D01*
X1153719D01*
Y-110058D01*
Y-110344D01*
X1154006D01*
Y-110630D01*
Y-110917D01*
X1154292D01*
Y-111203D01*
Y-111489D01*
X1154578D01*
Y-111776D01*
Y-112062D01*
X1154865D01*
Y-112348D01*
Y-112635D01*
X1155151D01*
Y-112921D01*
Y-113207D01*
X1155437D01*
Y-113494D01*
Y-113780D01*
X1155723D01*
Y-114066D01*
X1156010D01*
Y-114353D01*
Y-114639D01*
X1156296D01*
Y-114925D01*
Y-115211D01*
X1156582D01*
Y-115498D01*
Y-115784D01*
X1156869D01*
Y-116070D01*
Y-116357D01*
X1157155D01*
Y-116643D01*
Y-116929D01*
X1157441D01*
Y-117216D01*
Y-117502D01*
X1157728D01*
Y-117788D01*
Y-118075D01*
X1158014D01*
Y-118361D01*
X1158300D01*
Y-118647D01*
Y-118933D01*
X1158587D01*
Y-119220D01*
Y-119506D01*
X1158873D01*
Y-119792D01*
X1143698D01*
Y-119506D01*
X1143412D01*
Y-119220D01*
Y-118933D01*
Y-118647D01*
X1143126D01*
Y-118361D01*
Y-118075D01*
Y-117788D01*
X1142839D01*
Y-117502D01*
Y-117216D01*
X1142553D01*
Y-116929D01*
Y-116643D01*
Y-116357D01*
X1142267D01*
Y-116070D01*
Y-115784D01*
Y-115498D01*
X1141980D01*
Y-115211D01*
Y-114925D01*
X1141694D01*
Y-114639D01*
Y-114353D01*
Y-114066D01*
X1141408D01*
Y-113780D01*
Y-113494D01*
Y-113207D01*
X1141121D01*
Y-112921D01*
Y-112635D01*
Y-112348D01*
X1140835D01*
Y-112062D01*
X1140263D01*
Y-112348D01*
Y-112635D01*
X1139976D01*
Y-112921D01*
X1139690D01*
Y-113207D01*
Y-113494D01*
X1139404D01*
Y-113780D01*
X1139117D01*
Y-114066D01*
Y-114353D01*
X1138831D01*
Y-114639D01*
X1138545D01*
Y-114925D01*
Y-115211D01*
X1138258D01*
Y-115498D01*
X1137972D01*
Y-115784D01*
X1137686D01*
Y-116070D01*
Y-116357D01*
X1137399D01*
Y-116643D01*
X1137113D01*
Y-116929D01*
Y-117216D01*
X1136827D01*
Y-117502D01*
X1136541D01*
Y-117788D01*
Y-118075D01*
X1136254D01*
Y-118361D01*
X1135968D01*
Y-118647D01*
Y-118933D01*
X1135682D01*
Y-119220D01*
X1135395D01*
Y-119506D01*
Y-119792D01*
X1119362D01*
Y-119506D01*
X1119648D01*
Y-119220D01*
X1119934D01*
Y-118933D01*
X1120221D01*
Y-118647D01*
X1120507D01*
Y-118361D01*
Y-118075D01*
X1120793D01*
Y-117788D01*
X1121080D01*
Y-117502D01*
X1121366D01*
Y-117216D01*
X1121652D01*
Y-116929D01*
Y-116643D01*
X1121939D01*
Y-116357D01*
X1122225D01*
Y-116070D01*
X1122511D01*
Y-115784D01*
Y-115498D01*
X1122797D01*
Y-115211D01*
X1123084D01*
Y-114925D01*
X1123370D01*
Y-114639D01*
X1123656D01*
Y-114353D01*
Y-114066D01*
X1123943D01*
Y-113780D01*
X1124229D01*
Y-113494D01*
X1124515D01*
Y-113207D01*
X1124802D01*
Y-112921D01*
Y-112635D01*
X1125088D01*
Y-112348D01*
X1125374D01*
Y-112062D01*
X1125661D01*
Y-111776D01*
Y-111489D01*
X1125947D01*
Y-111203D01*
X1126233D01*
Y-110917D01*
X1126519D01*
Y-110630D01*
X1126806D01*
Y-110344D01*
Y-110058D01*
X1127092D01*
Y-109772D01*
X1127378D01*
Y-109485D01*
X1127665D01*
Y-109199D01*
Y-108913D01*
X1127951D01*
Y-108626D01*
X1128237D01*
Y-108340D01*
X1128524D01*
Y-108054D01*
X1128810D01*
Y-107767D01*
Y-107481D01*
X1129096D01*
Y-107195D01*
X1129383D01*
Y-106908D01*
X1129669D01*
Y-106622D01*
Y-106336D01*
X1129955D01*
Y-106049D01*
X1130242D01*
Y-105763D01*
X1130528D01*
Y-105477D01*
X1130814D01*
Y-105191D01*
Y-104904D01*
X1131100D01*
Y-104618D01*
X1131387D01*
Y-104332D01*
X1131673D01*
Y-104045D01*
X1131960D01*
Y-103759D01*
Y-103473D01*
X1132246D01*
Y-103186D01*
X1132532D01*
Y-102900D01*
X1132818D01*
Y-102614D01*
Y-102327D01*
X1133105D01*
Y-102041D01*
X1133391D01*
Y-101755D01*
X1133677D01*
Y-101468D01*
X1133964D01*
Y-101182D01*
Y-100896D01*
X1134250D01*
Y-100610D01*
Y-100323D01*
Y-100037D01*
X1133964D01*
Y-99751D01*
X1133677D01*
Y-99464D01*
Y-99178D01*
X1133391D01*
Y-98892D01*
Y-98605D01*
X1133105D01*
Y-98319D01*
Y-98033D01*
X1132818D01*
Y-97746D01*
Y-97460D01*
X1132532D01*
Y-97174D01*
Y-96887D01*
X1132246D01*
Y-96601D01*
Y-96315D01*
X1131960D01*
Y-96029D01*
X1131673D01*
Y-95742D01*
Y-95456D01*
X1131387D01*
Y-95170D01*
Y-94883D01*
X1131100D01*
Y-94597D01*
Y-94311D01*
X1130814D01*
Y-94024D01*
Y-93738D01*
X1130528D01*
Y-93452D01*
Y-93165D01*
X1130242D01*
Y-92879D01*
Y-92593D01*
X1129955D01*
Y-92306D01*
X1129669D01*
Y-92020D01*
Y-91734D01*
X1129383D01*
Y-91448D01*
Y-91161D01*
X1129096D01*
Y-90875D01*
Y-90588D01*
X1128810D01*
Y-90302D01*
Y-90016D01*
X1128524D01*
Y-89730D01*
Y-89443D01*
X1128237D01*
Y-89157D01*
Y-88871D01*
X1127951D01*
Y-88584D01*
Y-88298D01*
X1127665D01*
Y-88012D01*
X1127378D01*
Y-87725D01*
Y-87439D01*
X1127092D01*
Y-87153D01*
Y-86866D01*
X1126806D01*
Y-86580D01*
Y-86294D01*
X1126519D01*
Y-86007D01*
Y-85721D01*
X1126233D01*
Y-85435D01*
Y-85149D01*
X1125947D01*
Y-84862D01*
Y-84576D01*
X1125661D01*
Y-84290D01*
X1125374D01*
Y-84003D01*
Y-83717D01*
X1125088D01*
Y-83431D01*
X1140835D01*
Y-83717D01*
X1141121D01*
Y-84003D01*
Y-84290D01*
Y-84576D01*
X1141408D01*
Y-84862D01*
Y-85149D01*
Y-85435D01*
X1141694D01*
Y-85721D01*
Y-86007D01*
Y-86294D01*
X1141980D01*
Y-86580D01*
Y-86866D01*
Y-87153D01*
X1142267D01*
Y-87439D01*
Y-87725D01*
Y-88012D01*
X1142553D01*
Y-88298D01*
Y-88584D01*
Y-88871D01*
X1142839D01*
Y-89157D01*
Y-89443D01*
Y-89730D01*
X1143126D01*
Y-90016D01*
Y-90302D01*
Y-90588D01*
X1143412D01*
Y-90875D01*
Y-91161D01*
Y-91448D01*
Y-91734D01*
X1143985D01*
Y-91448D01*
X1144271D01*
Y-91161D01*
X1144557D01*
Y-90875D01*
Y-90588D01*
X1144844D01*
Y-90302D01*
X1145130D01*
Y-90016D01*
Y-89730D01*
X1145416D01*
Y-89443D01*
X1145702D01*
Y-89157D01*
Y-88871D01*
X1145989D01*
Y-88584D01*
X1146275D01*
Y-88298D01*
Y-88012D01*
X1146561D01*
Y-87725D01*
X1146848D01*
Y-87439D01*
Y-87153D01*
X1147134D01*
Y-86866D01*
X1147420D01*
Y-86580D01*
Y-86294D01*
X1147707D01*
Y-86007D01*
X1147993D01*
Y-85721D01*
Y-85435D01*
X1148279D01*
Y-85149D01*
X1148566D01*
Y-84862D01*
Y-84576D01*
X1148852D01*
Y-84290D01*
X1149138D01*
Y-84003D01*
Y-83717D01*
X1149425D01*
Y-83431D01*
X1165172D01*
Y-83717D01*
D02*
G37*
G36*
X1032036Y-69688D02*
X1033754D01*
Y-69974D01*
X1034613D01*
Y-70260D01*
X1035472D01*
Y-70547D01*
X1036331D01*
Y-70833D01*
X1036904D01*
Y-71119D01*
X1037190D01*
Y-71406D01*
X1037763D01*
Y-71692D01*
X1038049D01*
Y-71978D01*
X1038622D01*
Y-72264D01*
X1038908D01*
Y-72551D01*
X1039194D01*
Y-72837D01*
X1039480D01*
Y-73123D01*
X1039767D01*
Y-73410D01*
X1040053D01*
Y-73696D01*
X1040339D01*
Y-73982D01*
Y-74269D01*
X1040626D01*
Y-74555D01*
X1040912D01*
Y-74841D01*
Y-75128D01*
X1041198D01*
Y-75414D01*
X1041485D01*
Y-75700D01*
Y-75987D01*
X1041771D01*
Y-76273D01*
Y-76559D01*
Y-76846D01*
X1042057D01*
Y-77132D01*
Y-77418D01*
Y-77704D01*
X1042344D01*
Y-77991D01*
Y-78277D01*
Y-78563D01*
Y-78850D01*
X1042630D01*
Y-79136D01*
Y-79422D01*
Y-79709D01*
Y-79995D01*
Y-80281D01*
X1042916D01*
Y-80568D01*
Y-80854D01*
Y-81140D01*
Y-81427D01*
Y-81713D01*
Y-81999D01*
Y-82285D01*
Y-82572D01*
Y-82858D01*
Y-83144D01*
Y-83431D01*
Y-83717D01*
Y-84003D01*
Y-84290D01*
Y-84576D01*
Y-84862D01*
Y-85149D01*
Y-85435D01*
Y-85721D01*
Y-86007D01*
X1042630D01*
Y-86294D01*
Y-86580D01*
Y-86866D01*
Y-87153D01*
Y-87439D01*
Y-87725D01*
Y-88012D01*
X1042344D01*
Y-88298D01*
Y-88584D01*
Y-88871D01*
Y-89157D01*
Y-89443D01*
X1042057D01*
Y-89730D01*
Y-90016D01*
Y-90302D01*
Y-90588D01*
Y-90875D01*
X1041771D01*
Y-91161D01*
Y-91448D01*
Y-91734D01*
X1041485D01*
Y-92020D01*
Y-92306D01*
Y-92593D01*
Y-92879D01*
X1041198D01*
Y-93165D01*
Y-93452D01*
Y-93738D01*
X1040912D01*
Y-94024D01*
Y-94311D01*
X1040626D01*
Y-94597D01*
Y-94883D01*
Y-95170D01*
X1040339D01*
Y-95456D01*
Y-95742D01*
X1040053D01*
Y-96029D01*
Y-96315D01*
X1039767D01*
Y-96601D01*
Y-96887D01*
X1039480D01*
Y-97174D01*
X1039194D01*
Y-97460D01*
Y-97746D01*
X1038908D01*
Y-98033D01*
X1038622D01*
Y-98319D01*
X1038335D01*
Y-98605D01*
Y-98892D01*
X1038049D01*
Y-99178D01*
X1037763D01*
Y-99464D01*
X1037476D01*
Y-99751D01*
X1037190D01*
Y-100037D01*
X1036904D01*
Y-100323D01*
X1036331D01*
Y-100610D01*
X1036045D01*
Y-100896D01*
X1035472D01*
Y-101182D01*
X1035186D01*
Y-101468D01*
X1034613D01*
Y-101755D01*
X1033754D01*
Y-102041D01*
X1032895D01*
Y-102327D01*
X1032036D01*
Y-102614D01*
X1030318D01*
Y-102900D01*
X1025165D01*
Y-102614D01*
X1022588D01*
Y-102327D01*
X1020584D01*
Y-102041D01*
X1019152D01*
Y-101755D01*
X1017721D01*
Y-101468D01*
X1016289D01*
Y-101755D01*
Y-102041D01*
Y-102327D01*
Y-102614D01*
Y-102900D01*
Y-103186D01*
Y-103473D01*
X1016003D01*
Y-103759D01*
Y-104045D01*
Y-104332D01*
Y-104618D01*
Y-104904D01*
Y-105191D01*
X1015716D01*
Y-105477D01*
Y-105763D01*
Y-106049D01*
Y-106336D01*
Y-106622D01*
Y-106908D01*
X1015430D01*
Y-107195D01*
Y-107481D01*
Y-107767D01*
Y-108054D01*
Y-108340D01*
Y-108626D01*
Y-108913D01*
X1015144D01*
Y-109199D01*
Y-109485D01*
Y-109772D01*
Y-110058D01*
Y-110344D01*
Y-110630D01*
X1014857D01*
Y-110917D01*
Y-111203D01*
Y-111489D01*
Y-111776D01*
Y-112062D01*
Y-112348D01*
X1014571D01*
Y-112635D01*
Y-112921D01*
Y-113207D01*
Y-113494D01*
Y-113780D01*
Y-114066D01*
Y-114353D01*
X1014285D01*
Y-114639D01*
Y-114925D01*
Y-115211D01*
Y-115498D01*
Y-115784D01*
Y-116070D01*
X1013999D01*
Y-116357D01*
Y-116643D01*
Y-116929D01*
Y-117216D01*
Y-117502D01*
Y-117788D01*
X1013712D01*
Y-118075D01*
Y-118361D01*
Y-118647D01*
Y-118933D01*
Y-119220D01*
Y-119506D01*
Y-119792D01*
X1000256D01*
Y-119506D01*
X1000542D01*
Y-119220D01*
Y-118933D01*
Y-118647D01*
Y-118361D01*
Y-118075D01*
X1000828D01*
Y-117788D01*
Y-117502D01*
Y-117216D01*
Y-116929D01*
Y-116643D01*
Y-116357D01*
Y-116070D01*
X1001114D01*
Y-115784D01*
Y-115498D01*
Y-115211D01*
Y-114925D01*
Y-114639D01*
Y-114353D01*
X1001401D01*
Y-114066D01*
Y-113780D01*
Y-113494D01*
Y-113207D01*
Y-112921D01*
Y-112635D01*
X1001687D01*
Y-112348D01*
Y-112062D01*
Y-111776D01*
Y-111489D01*
Y-111203D01*
Y-110917D01*
Y-110630D01*
X1001974D01*
Y-110344D01*
Y-110058D01*
Y-109772D01*
Y-109485D01*
Y-109199D01*
Y-108913D01*
X1002260D01*
Y-108626D01*
Y-108340D01*
Y-108054D01*
Y-107767D01*
Y-107481D01*
Y-107195D01*
X1002546D01*
Y-106908D01*
Y-106622D01*
Y-106336D01*
Y-106049D01*
Y-105763D01*
Y-105477D01*
X1002832D01*
Y-105191D01*
Y-104904D01*
Y-104618D01*
Y-104332D01*
Y-104045D01*
Y-103759D01*
Y-103473D01*
X1003119D01*
Y-103186D01*
Y-102900D01*
Y-102614D01*
Y-102327D01*
Y-102041D01*
Y-101755D01*
X1003405D01*
Y-101468D01*
Y-101182D01*
Y-100896D01*
Y-100610D01*
Y-100323D01*
Y-100037D01*
X1003691D01*
Y-99751D01*
Y-99464D01*
Y-99178D01*
Y-98892D01*
Y-98605D01*
Y-98319D01*
X1003978D01*
Y-98033D01*
Y-97746D01*
Y-97460D01*
Y-97174D01*
Y-96887D01*
Y-96601D01*
Y-96315D01*
X1004264D01*
Y-96029D01*
Y-95742D01*
Y-95456D01*
Y-95170D01*
Y-94883D01*
Y-94597D01*
X1004550D01*
Y-94311D01*
Y-94024D01*
Y-93738D01*
Y-93452D01*
Y-93165D01*
Y-92879D01*
X1004837D01*
Y-92593D01*
Y-92306D01*
Y-92020D01*
Y-91734D01*
Y-91448D01*
Y-91161D01*
Y-90875D01*
X1005123D01*
Y-90588D01*
Y-90302D01*
Y-90016D01*
Y-89730D01*
Y-89443D01*
Y-89157D01*
X1005409D01*
Y-88871D01*
Y-88584D01*
Y-88298D01*
Y-88012D01*
Y-87725D01*
Y-87439D01*
X1005696D01*
Y-87153D01*
Y-86866D01*
Y-86580D01*
Y-86294D01*
Y-86007D01*
Y-85721D01*
X1005982D01*
Y-85435D01*
Y-85149D01*
Y-84862D01*
Y-84576D01*
Y-84290D01*
Y-84003D01*
Y-83717D01*
X1006268D01*
Y-83431D01*
Y-83144D01*
Y-82858D01*
Y-82572D01*
Y-82285D01*
Y-81999D01*
X1006555D01*
Y-81713D01*
Y-81427D01*
Y-81140D01*
Y-80854D01*
Y-80568D01*
Y-80281D01*
X1006841D01*
Y-79995D01*
Y-79709D01*
Y-79422D01*
Y-79136D01*
Y-78850D01*
Y-78563D01*
Y-78277D01*
X1007127D01*
Y-77991D01*
Y-77704D01*
Y-77418D01*
Y-77132D01*
Y-76846D01*
Y-76559D01*
X1007413D01*
Y-76273D01*
Y-75987D01*
Y-75700D01*
Y-75414D01*
Y-75128D01*
Y-74841D01*
X1007700D01*
Y-74555D01*
Y-74269D01*
Y-73982D01*
Y-73696D01*
Y-73410D01*
Y-73123D01*
Y-72837D01*
X1007986D01*
Y-72551D01*
Y-72264D01*
Y-71978D01*
Y-71692D01*
Y-71406D01*
Y-71119D01*
X1008272D01*
Y-70833D01*
Y-70547D01*
Y-70260D01*
Y-69974D01*
Y-69688D01*
Y-69401D01*
X1032036D01*
Y-69688D01*
D02*
G37*
G36*
X1121080Y-83717D02*
Y-84003D01*
Y-84290D01*
Y-84576D01*
Y-84862D01*
Y-85149D01*
Y-85435D01*
Y-85721D01*
Y-86007D01*
Y-86294D01*
Y-86580D01*
Y-86866D01*
Y-87153D01*
Y-87439D01*
Y-87725D01*
Y-88012D01*
Y-88298D01*
Y-88584D01*
Y-88871D01*
Y-89157D01*
Y-89443D01*
X1120793D01*
Y-89730D01*
Y-90016D01*
Y-90302D01*
Y-90588D01*
Y-90875D01*
X1120507D01*
Y-91161D01*
Y-91448D01*
Y-91734D01*
Y-92020D01*
X1120221D01*
Y-92306D01*
Y-92593D01*
Y-92879D01*
Y-93165D01*
X1119934D01*
Y-93452D01*
Y-93738D01*
Y-94024D01*
X1119648D01*
Y-94311D01*
Y-94597D01*
Y-94883D01*
X1119362D01*
Y-95170D01*
Y-95456D01*
Y-95742D01*
X1119075D01*
Y-96029D01*
Y-96315D01*
Y-96601D01*
X1118789D01*
Y-96887D01*
Y-97174D01*
X1118503D01*
Y-97460D01*
Y-97746D01*
X1118217D01*
Y-98033D01*
Y-98319D01*
Y-98605D01*
X1117930D01*
Y-98892D01*
Y-99178D01*
X1117644D01*
Y-99464D01*
Y-99751D01*
Y-100037D01*
X1117358D01*
Y-100323D01*
Y-100610D01*
X1117071D01*
Y-100896D01*
Y-101182D01*
Y-101468D01*
X1116785D01*
Y-101755D01*
Y-102041D01*
X1116499D01*
Y-102327D01*
Y-102614D01*
Y-102900D01*
X1116212D01*
Y-103186D01*
Y-103473D01*
X1115926D01*
Y-103759D01*
Y-104045D01*
Y-104332D01*
X1115640D01*
Y-104618D01*
Y-104904D01*
X1115353D01*
Y-105191D01*
Y-105477D01*
Y-105763D01*
X1115067D01*
Y-106049D01*
Y-106336D01*
X1114781D01*
Y-106622D01*
Y-106908D01*
Y-107195D01*
X1114494D01*
Y-107481D01*
Y-107767D01*
X1114208D01*
Y-108054D01*
Y-108340D01*
Y-108626D01*
X1113922D01*
Y-108913D01*
Y-109199D01*
X1113636D01*
Y-109485D01*
Y-109772D01*
Y-110058D01*
X1113349D01*
Y-110344D01*
Y-110630D01*
X1113063D01*
Y-110917D01*
Y-111203D01*
Y-111489D01*
X1112776D01*
Y-111776D01*
Y-112062D01*
X1112490D01*
Y-112348D01*
Y-112635D01*
Y-112921D01*
X1112204D01*
Y-113207D01*
Y-113494D01*
X1111918D01*
Y-113780D01*
Y-114066D01*
Y-114353D01*
X1111631D01*
Y-114639D01*
Y-114925D01*
X1111345D01*
Y-115211D01*
Y-115498D01*
Y-115784D01*
X1111059D01*
Y-116070D01*
Y-116357D01*
X1110772D01*
Y-116643D01*
Y-116929D01*
Y-117216D01*
X1110486D01*
Y-117502D01*
Y-117788D01*
X1110200D01*
Y-118075D01*
Y-118361D01*
Y-118647D01*
X1109913D01*
Y-118933D01*
Y-119220D01*
X1109627D01*
Y-119506D01*
Y-119792D01*
Y-120079D01*
X1109341D01*
Y-120365D01*
Y-120651D01*
X1109054D01*
Y-120938D01*
Y-121224D01*
X1108768D01*
Y-121510D01*
Y-121797D01*
X1108482D01*
Y-122083D01*
Y-122369D01*
Y-122656D01*
X1108195D01*
Y-122942D01*
X1107909D01*
Y-123228D01*
Y-123514D01*
Y-123801D01*
X1107623D01*
Y-124087D01*
X1107337D01*
Y-124373D01*
Y-124660D01*
X1107050D01*
Y-124946D01*
Y-125232D01*
X1106764D01*
Y-125519D01*
Y-125805D01*
X1106478D01*
Y-126091D01*
Y-126378D01*
X1106191D01*
Y-126664D01*
X1105905D01*
Y-126950D01*
Y-127237D01*
X1105619D01*
Y-127523D01*
Y-127809D01*
X1105332D01*
Y-128095D01*
X1105046D01*
Y-128382D01*
X1104760D01*
Y-128668D01*
Y-128954D01*
X1104473D01*
Y-129241D01*
X1104187D01*
Y-129527D01*
Y-129813D01*
X1103901D01*
Y-130100D01*
X1103615D01*
Y-130386D01*
X1103328D01*
Y-130672D01*
Y-130959D01*
X1103042D01*
Y-131245D01*
X1102756D01*
Y-131531D01*
X1102469D01*
Y-131818D01*
X1102183D01*
Y-132104D01*
X1101897D01*
Y-132390D01*
Y-132676D01*
X1101610D01*
Y-132963D01*
X1101324D01*
Y-133249D01*
X1101038D01*
Y-133535D01*
X1100751D01*
Y-133822D01*
X1100465D01*
Y-134108D01*
X1100179D01*
Y-134394D01*
X1099892D01*
Y-134681D01*
X1099320D01*
Y-134967D01*
X1099034D01*
Y-135253D01*
X1098747D01*
Y-135540D01*
X1098461D01*
Y-135826D01*
X1098175D01*
Y-136112D01*
X1097602D01*
Y-136399D01*
X1097316D01*
Y-136685D01*
X1096743D01*
Y-136971D01*
X1096457D01*
Y-137258D01*
X1095884D01*
Y-137544D01*
X1095598D01*
Y-137830D01*
X1095025D01*
Y-138117D01*
X1094452D01*
Y-138403D01*
X1093880D01*
Y-138689D01*
X1093307D01*
Y-138975D01*
X1092735D01*
Y-139262D01*
X1091876D01*
Y-139548D01*
X1091303D01*
Y-139834D01*
X1090444D01*
Y-140121D01*
X1089299D01*
Y-140407D01*
X1088154D01*
Y-140693D01*
X1086436D01*
Y-140980D01*
X1084432D01*
Y-141266D01*
X1084145D01*
Y-140980D01*
Y-140693D01*
Y-140407D01*
Y-140121D01*
Y-139834D01*
Y-139548D01*
Y-139262D01*
Y-138975D01*
Y-138689D01*
Y-138403D01*
Y-138117D01*
Y-137830D01*
Y-137544D01*
Y-137258D01*
Y-136971D01*
Y-136685D01*
Y-136399D01*
Y-136112D01*
Y-135826D01*
Y-135540D01*
Y-135253D01*
Y-134967D01*
Y-134681D01*
Y-134394D01*
Y-134108D01*
Y-133822D01*
Y-133535D01*
Y-133249D01*
Y-132963D01*
Y-132676D01*
Y-132390D01*
Y-132104D01*
Y-131818D01*
X1084718D01*
Y-131531D01*
X1085291D01*
Y-131245D01*
X1085863D01*
Y-130959D01*
X1086436D01*
Y-130672D01*
X1087008D01*
Y-130386D01*
X1087581D01*
Y-130100D01*
X1087867D01*
Y-129813D01*
X1088440D01*
Y-129527D01*
X1088726D01*
Y-129241D01*
X1089299D01*
Y-128954D01*
X1089585D01*
Y-128668D01*
X1089872D01*
Y-128382D01*
X1090444D01*
Y-128095D01*
X1090730D01*
Y-127809D01*
X1091017D01*
Y-127523D01*
X1091303D01*
Y-127237D01*
X1091589D01*
Y-126950D01*
X1091876D01*
Y-126664D01*
X1092162D01*
Y-126378D01*
X1092448D01*
Y-126091D01*
X1092735D01*
Y-125805D01*
X1093021D01*
Y-125519D01*
X1093307D01*
Y-125232D01*
X1093594D01*
Y-124946D01*
Y-124660D01*
X1093880D01*
Y-124373D01*
X1094166D01*
Y-124087D01*
X1094452D01*
Y-123801D01*
Y-123514D01*
X1094739D01*
Y-123228D01*
X1095025D01*
Y-122942D01*
Y-122656D01*
X1095311D01*
Y-122369D01*
Y-122083D01*
X1095598D01*
Y-121797D01*
X1095884D01*
Y-121510D01*
Y-121224D01*
X1096170D01*
Y-120938D01*
Y-120651D01*
X1096457D01*
Y-120365D01*
Y-120079D01*
X1094739D01*
Y-119792D01*
X1092735D01*
Y-119506D01*
X1091589D01*
Y-119220D01*
X1091017D01*
Y-118933D01*
X1090158D01*
Y-118647D01*
X1089585D01*
Y-118361D01*
X1089299D01*
Y-118075D01*
X1088726D01*
Y-117788D01*
X1088440D01*
Y-117502D01*
X1088154D01*
Y-117216D01*
X1087867D01*
Y-116929D01*
X1087581D01*
Y-116643D01*
X1087295D01*
Y-116357D01*
Y-116070D01*
X1087008D01*
Y-115784D01*
X1086722D01*
Y-115498D01*
Y-115211D01*
X1086436D01*
Y-114925D01*
Y-114639D01*
X1086149D01*
Y-114353D01*
Y-114066D01*
X1085863D01*
Y-113780D01*
Y-113494D01*
Y-113207D01*
X1085577D01*
Y-112921D01*
Y-112635D01*
Y-112348D01*
Y-112062D01*
X1085291D01*
Y-111776D01*
Y-111489D01*
Y-111203D01*
Y-110917D01*
Y-110630D01*
Y-110344D01*
Y-110058D01*
X1085004D01*
Y-109772D01*
Y-109485D01*
Y-109199D01*
Y-108913D01*
Y-108626D01*
Y-108340D01*
Y-108054D01*
Y-107767D01*
Y-107481D01*
Y-107195D01*
Y-106908D01*
Y-106622D01*
Y-106336D01*
Y-106049D01*
Y-105763D01*
X1084718D01*
Y-105477D01*
Y-105191D01*
Y-104904D01*
Y-104618D01*
Y-104332D01*
Y-104045D01*
Y-103759D01*
Y-103473D01*
Y-103186D01*
Y-102900D01*
Y-102614D01*
Y-102327D01*
Y-102041D01*
Y-101755D01*
Y-101468D01*
X1084432D01*
Y-101182D01*
Y-100896D01*
Y-100610D01*
Y-100323D01*
Y-100037D01*
Y-99751D01*
Y-99464D01*
Y-99178D01*
Y-98892D01*
Y-98605D01*
Y-98319D01*
Y-98033D01*
Y-97746D01*
Y-97460D01*
Y-97174D01*
Y-96887D01*
X1084145D01*
Y-96601D01*
Y-96315D01*
Y-96029D01*
Y-95742D01*
Y-95456D01*
Y-95170D01*
Y-94883D01*
Y-94597D01*
Y-94311D01*
Y-94024D01*
Y-93738D01*
Y-93452D01*
Y-93165D01*
Y-92879D01*
Y-92593D01*
Y-92306D01*
X1083859D01*
Y-92020D01*
Y-91734D01*
Y-91448D01*
Y-91161D01*
Y-90875D01*
Y-90588D01*
Y-90302D01*
Y-90016D01*
Y-89730D01*
Y-89443D01*
Y-89157D01*
Y-88871D01*
Y-88584D01*
Y-88298D01*
X1083573D01*
Y-88012D01*
Y-87725D01*
Y-87439D01*
Y-87153D01*
Y-86866D01*
Y-86580D01*
Y-86294D01*
Y-86007D01*
Y-85721D01*
Y-85435D01*
Y-85149D01*
Y-84862D01*
Y-84576D01*
Y-84290D01*
Y-84003D01*
Y-83717D01*
X1083286D01*
Y-83431D01*
X1097029D01*
Y-83717D01*
Y-84003D01*
Y-84290D01*
Y-84576D01*
Y-84862D01*
Y-85149D01*
Y-85435D01*
Y-85721D01*
Y-86007D01*
Y-86294D01*
Y-86580D01*
Y-86866D01*
Y-87153D01*
Y-87439D01*
X1097316D01*
Y-87725D01*
Y-88012D01*
Y-88298D01*
Y-88584D01*
Y-88871D01*
Y-89157D01*
Y-89443D01*
Y-89730D01*
Y-90016D01*
Y-90302D01*
Y-90588D01*
Y-90875D01*
Y-91161D01*
Y-91448D01*
Y-91734D01*
Y-92020D01*
Y-92306D01*
Y-92593D01*
Y-92879D01*
Y-93165D01*
Y-93452D01*
Y-93738D01*
Y-94024D01*
Y-94311D01*
Y-94597D01*
Y-94883D01*
Y-95170D01*
Y-95456D01*
Y-95742D01*
Y-96029D01*
Y-96315D01*
Y-96601D01*
Y-96887D01*
Y-97174D01*
Y-97460D01*
Y-97746D01*
Y-98033D01*
Y-98319D01*
Y-98605D01*
Y-98892D01*
Y-99178D01*
X1097602D01*
Y-99464D01*
X1097316D01*
Y-99751D01*
Y-100037D01*
X1097602D01*
Y-100323D01*
Y-100610D01*
Y-100896D01*
Y-101182D01*
Y-101468D01*
Y-101755D01*
Y-102041D01*
Y-102327D01*
Y-102614D01*
Y-102900D01*
Y-103186D01*
Y-103473D01*
Y-103759D01*
Y-104045D01*
Y-104332D01*
Y-104618D01*
Y-104904D01*
Y-105191D01*
Y-105477D01*
Y-105763D01*
Y-106049D01*
Y-106336D01*
Y-106622D01*
Y-106908D01*
Y-107195D01*
Y-107481D01*
X1097888D01*
Y-107767D01*
Y-108054D01*
Y-108340D01*
X1098175D01*
Y-108626D01*
X1098461D01*
Y-108913D01*
X1098747D01*
Y-109199D01*
X1099606D01*
Y-109485D01*
X1100465D01*
Y-109199D01*
X1100751D01*
Y-108913D01*
Y-108626D01*
Y-108340D01*
X1101038D01*
Y-108054D01*
Y-107767D01*
X1101324D01*
Y-107481D01*
Y-107195D01*
Y-106908D01*
X1101610D01*
Y-106622D01*
Y-106336D01*
Y-106049D01*
X1101897D01*
Y-105763D01*
Y-105477D01*
Y-105191D01*
X1102183D01*
Y-104904D01*
Y-104618D01*
Y-104332D01*
X1102469D01*
Y-104045D01*
Y-103759D01*
X1102756D01*
Y-103473D01*
Y-103186D01*
Y-102900D01*
X1103042D01*
Y-102614D01*
Y-102327D01*
Y-102041D01*
X1103328D01*
Y-101755D01*
Y-101468D01*
Y-101182D01*
X1103615D01*
Y-100896D01*
Y-100610D01*
X1103901D01*
Y-100323D01*
Y-100037D01*
Y-99751D01*
X1104187D01*
Y-99464D01*
Y-99178D01*
Y-98892D01*
X1104473D01*
Y-98605D01*
Y-98319D01*
Y-98033D01*
X1104760D01*
Y-97746D01*
Y-97460D01*
X1105046D01*
Y-97174D01*
Y-96887D01*
Y-96601D01*
X1105332D01*
Y-96315D01*
Y-96029D01*
Y-95742D01*
X1105619D01*
Y-95456D01*
Y-95170D01*
Y-94883D01*
X1105905D01*
Y-94597D01*
Y-94311D01*
X1106191D01*
Y-94024D01*
Y-93738D01*
Y-93452D01*
X1106478D01*
Y-93165D01*
Y-92879D01*
Y-92593D01*
X1106764D01*
Y-92306D01*
Y-92020D01*
Y-91734D01*
X1107050D01*
Y-91448D01*
Y-91161D01*
Y-90875D01*
Y-90588D01*
X1107337D01*
Y-90302D01*
Y-90016D01*
Y-89730D01*
Y-89443D01*
X1107623D01*
Y-89157D01*
Y-88871D01*
Y-88584D01*
Y-88298D01*
Y-88012D01*
X1107909D01*
Y-87725D01*
Y-87439D01*
Y-87153D01*
Y-86866D01*
Y-86580D01*
Y-86294D01*
X1108195D01*
Y-86007D01*
Y-85721D01*
Y-85435D01*
Y-85149D01*
Y-84862D01*
Y-84576D01*
Y-84290D01*
Y-84003D01*
Y-83717D01*
Y-83431D01*
X1121080D01*
Y-83717D01*
D02*
G37*
G36*
X1063244Y-66252D02*
Y-66538D01*
X1062958D01*
Y-66825D01*
Y-67111D01*
Y-67397D01*
Y-67684D01*
Y-67970D01*
Y-68256D01*
X1062672D01*
Y-68542D01*
Y-68829D01*
Y-69115D01*
Y-69401D01*
Y-69688D01*
Y-69974D01*
X1062385D01*
Y-70260D01*
Y-70547D01*
Y-70833D01*
Y-71119D01*
Y-71406D01*
Y-71692D01*
Y-71978D01*
X1062099D01*
Y-72264D01*
Y-72551D01*
Y-72837D01*
Y-73123D01*
Y-73410D01*
Y-73696D01*
X1061813D01*
Y-73982D01*
Y-74269D01*
Y-74555D01*
Y-74841D01*
Y-75128D01*
Y-75414D01*
X1061526D01*
Y-75700D01*
Y-75987D01*
Y-76273D01*
Y-76559D01*
Y-76846D01*
Y-77132D01*
Y-77418D01*
X1061240D01*
Y-77704D01*
Y-77991D01*
Y-78277D01*
Y-78563D01*
Y-78850D01*
Y-79136D01*
X1060954D01*
Y-79422D01*
Y-79709D01*
Y-79995D01*
Y-80281D01*
Y-80568D01*
Y-80854D01*
X1060668D01*
Y-81140D01*
Y-81427D01*
Y-81713D01*
Y-81999D01*
Y-82285D01*
Y-82572D01*
X1060381D01*
Y-82858D01*
Y-83144D01*
Y-83431D01*
Y-83717D01*
Y-84003D01*
Y-84290D01*
Y-84576D01*
X1060095D01*
Y-84862D01*
Y-85149D01*
Y-85435D01*
Y-85721D01*
Y-86007D01*
Y-86294D01*
X1059809D01*
Y-86580D01*
Y-86866D01*
X1060381D01*
Y-86580D01*
X1060668D01*
Y-86294D01*
X1060954D01*
Y-86007D01*
X1061526D01*
Y-85721D01*
X1061813D01*
Y-85435D01*
X1062099D01*
Y-85149D01*
X1062672D01*
Y-84862D01*
X1063244D01*
Y-84576D01*
X1063531D01*
Y-84290D01*
X1064103D01*
Y-84003D01*
X1064962D01*
Y-83717D01*
X1065535D01*
Y-83431D01*
X1066394D01*
Y-83144D01*
X1067825D01*
Y-82858D01*
X1074124D01*
Y-83144D01*
X1075270D01*
Y-83431D01*
X1076128D01*
Y-83717D01*
X1076701D01*
Y-84003D01*
X1076987D01*
Y-84290D01*
X1077560D01*
Y-84576D01*
X1077846D01*
Y-84862D01*
X1078133D01*
Y-85149D01*
X1078419D01*
Y-85435D01*
X1078705D01*
Y-85721D01*
Y-86007D01*
X1078992D01*
Y-86294D01*
Y-86580D01*
X1079278D01*
Y-86866D01*
Y-87153D01*
Y-87439D01*
X1079564D01*
Y-87725D01*
Y-88012D01*
Y-88298D01*
Y-88584D01*
X1079850D01*
Y-88871D01*
Y-89157D01*
Y-89443D01*
Y-89730D01*
Y-90016D01*
Y-90302D01*
Y-90588D01*
Y-90875D01*
Y-91161D01*
Y-91448D01*
Y-91734D01*
Y-92020D01*
Y-92306D01*
Y-92593D01*
Y-92879D01*
Y-93165D01*
Y-93452D01*
Y-93738D01*
X1079564D01*
Y-94024D01*
Y-94311D01*
Y-94597D01*
Y-94883D01*
Y-95170D01*
Y-95456D01*
Y-95742D01*
X1079278D01*
Y-96029D01*
Y-96315D01*
Y-96601D01*
Y-96887D01*
Y-97174D01*
Y-97460D01*
Y-97746D01*
X1078992D01*
Y-98033D01*
Y-98319D01*
Y-98605D01*
Y-98892D01*
Y-99178D01*
Y-99464D01*
X1078705D01*
Y-99751D01*
Y-100037D01*
Y-100323D01*
Y-100610D01*
Y-100896D01*
Y-101182D01*
X1078419D01*
Y-101468D01*
Y-101755D01*
Y-102041D01*
Y-102327D01*
Y-102614D01*
Y-102900D01*
X1078133D01*
Y-103186D01*
Y-103473D01*
Y-103759D01*
Y-104045D01*
Y-104332D01*
Y-104618D01*
Y-104904D01*
X1077846D01*
Y-105191D01*
Y-105477D01*
Y-105763D01*
Y-106049D01*
Y-106336D01*
Y-106622D01*
X1077560D01*
Y-106908D01*
Y-107195D01*
Y-107481D01*
Y-107767D01*
Y-108054D01*
Y-108340D01*
X1077274D01*
Y-108626D01*
Y-108913D01*
Y-109199D01*
Y-109485D01*
Y-109772D01*
Y-110058D01*
Y-110344D01*
X1076987D01*
Y-110630D01*
Y-110917D01*
Y-111203D01*
Y-111489D01*
Y-111776D01*
Y-112062D01*
X1076701D01*
Y-112348D01*
Y-112635D01*
Y-112921D01*
Y-113207D01*
Y-113494D01*
Y-113780D01*
X1076415D01*
Y-114066D01*
Y-114353D01*
Y-114639D01*
Y-114925D01*
Y-115211D01*
Y-115498D01*
X1076128D01*
Y-115784D01*
Y-116070D01*
Y-116357D01*
Y-116643D01*
Y-116929D01*
Y-117216D01*
Y-117502D01*
X1075842D01*
Y-117788D01*
Y-118075D01*
Y-118361D01*
Y-118647D01*
Y-118933D01*
Y-119220D01*
X1075556D01*
Y-119506D01*
Y-119792D01*
X1062385D01*
Y-119506D01*
Y-119220D01*
X1062672D01*
Y-118933D01*
Y-118647D01*
Y-118361D01*
Y-118075D01*
Y-117788D01*
Y-117502D01*
X1062958D01*
Y-117216D01*
Y-116929D01*
Y-116643D01*
Y-116357D01*
Y-116070D01*
Y-115784D01*
Y-115498D01*
X1063244D01*
Y-115211D01*
Y-114925D01*
Y-114639D01*
Y-114353D01*
Y-114066D01*
Y-113780D01*
X1063531D01*
Y-113494D01*
Y-113207D01*
Y-112921D01*
Y-112635D01*
Y-112348D01*
Y-112062D01*
X1063817D01*
Y-111776D01*
Y-111489D01*
Y-111203D01*
Y-110917D01*
Y-110630D01*
Y-110344D01*
Y-110058D01*
X1064103D01*
Y-109772D01*
Y-109485D01*
Y-109199D01*
Y-108913D01*
Y-108626D01*
Y-108340D01*
X1064390D01*
Y-108054D01*
Y-107767D01*
Y-107481D01*
Y-107195D01*
Y-106908D01*
Y-106622D01*
Y-106336D01*
X1064676D01*
Y-106049D01*
Y-105763D01*
Y-105477D01*
Y-105191D01*
Y-104904D01*
Y-104618D01*
X1064962D01*
Y-104332D01*
Y-104045D01*
Y-103759D01*
Y-103473D01*
Y-103186D01*
Y-102900D01*
X1065249D01*
Y-102614D01*
Y-102327D01*
Y-102041D01*
Y-101755D01*
Y-101468D01*
Y-101182D01*
X1065535D01*
Y-100896D01*
Y-100610D01*
Y-100323D01*
Y-100037D01*
Y-99751D01*
Y-99464D01*
Y-99178D01*
X1065821D01*
Y-98892D01*
Y-98605D01*
Y-98319D01*
Y-98033D01*
Y-97746D01*
Y-97460D01*
X1066107D01*
Y-97174D01*
Y-96887D01*
Y-96601D01*
Y-96315D01*
Y-96029D01*
Y-95742D01*
Y-95456D01*
X1066394D01*
Y-95170D01*
Y-94883D01*
Y-94597D01*
Y-94311D01*
Y-94024D01*
Y-93738D01*
X1066107D01*
Y-93452D01*
Y-93165D01*
X1065821D01*
Y-92879D01*
X1065535D01*
Y-92593D01*
X1064962D01*
Y-92306D01*
X1063244D01*
Y-92593D01*
X1061813D01*
Y-92879D01*
X1060954D01*
Y-93165D01*
X1060381D01*
Y-93452D01*
X1060095D01*
Y-93738D01*
X1059522D01*
Y-94024D01*
X1059236D01*
Y-94311D01*
X1058950D01*
Y-94597D01*
Y-94883D01*
X1058663D01*
Y-95170D01*
Y-95456D01*
Y-95742D01*
X1058377D01*
Y-96029D01*
Y-96315D01*
Y-96601D01*
Y-96887D01*
Y-97174D01*
Y-97460D01*
X1058091D01*
Y-97746D01*
Y-98033D01*
Y-98319D01*
Y-98605D01*
Y-98892D01*
Y-99178D01*
Y-99464D01*
X1057804D01*
Y-99751D01*
Y-100037D01*
Y-100323D01*
Y-100610D01*
Y-100896D01*
Y-101182D01*
X1057518D01*
Y-101468D01*
Y-101755D01*
Y-102041D01*
Y-102327D01*
Y-102614D01*
Y-102900D01*
X1057232D01*
Y-103186D01*
Y-103473D01*
Y-103759D01*
Y-104045D01*
Y-104332D01*
Y-104618D01*
X1056946D01*
Y-104904D01*
Y-105191D01*
Y-105477D01*
Y-105763D01*
Y-106049D01*
Y-106336D01*
Y-106622D01*
X1056659D01*
Y-106908D01*
Y-107195D01*
Y-107481D01*
Y-107767D01*
Y-108054D01*
Y-108340D01*
X1056373D01*
Y-108626D01*
Y-108913D01*
Y-109199D01*
Y-109485D01*
Y-109772D01*
Y-110058D01*
X1056087D01*
Y-110344D01*
Y-110630D01*
Y-110917D01*
Y-111203D01*
Y-111489D01*
Y-111776D01*
Y-112062D01*
X1055800D01*
Y-112348D01*
Y-112635D01*
Y-112921D01*
Y-113207D01*
Y-113494D01*
Y-113780D01*
X1055514D01*
Y-114066D01*
Y-114353D01*
Y-114639D01*
Y-114925D01*
Y-115211D01*
Y-115498D01*
X1055228D01*
Y-115784D01*
Y-116070D01*
Y-116357D01*
Y-116643D01*
Y-116929D01*
Y-117216D01*
X1054941D01*
Y-117502D01*
Y-117788D01*
Y-118075D01*
Y-118361D01*
Y-118647D01*
Y-118933D01*
Y-119220D01*
X1054655D01*
Y-119506D01*
Y-119792D01*
X1041485D01*
Y-119506D01*
Y-119220D01*
X1041771D01*
Y-118933D01*
Y-118647D01*
Y-118361D01*
Y-118075D01*
Y-117788D01*
Y-117502D01*
Y-117216D01*
X1042057D01*
Y-116929D01*
Y-116643D01*
Y-116357D01*
Y-116070D01*
Y-115784D01*
Y-115498D01*
X1042344D01*
Y-115211D01*
Y-114925D01*
Y-114639D01*
Y-114353D01*
Y-114066D01*
Y-113780D01*
X1042630D01*
Y-113494D01*
Y-113207D01*
Y-112921D01*
Y-112635D01*
Y-112348D01*
Y-112062D01*
Y-111776D01*
X1042916D01*
Y-111489D01*
Y-111203D01*
Y-110917D01*
Y-110630D01*
Y-110344D01*
Y-110058D01*
X1043202D01*
Y-109772D01*
Y-109485D01*
Y-109199D01*
Y-108913D01*
Y-108626D01*
Y-108340D01*
X1043489D01*
Y-108054D01*
Y-107767D01*
Y-107481D01*
Y-107195D01*
Y-106908D01*
Y-106622D01*
X1043775D01*
Y-106336D01*
Y-106049D01*
Y-105763D01*
Y-105477D01*
Y-105191D01*
Y-104904D01*
Y-104618D01*
X1044061D01*
Y-104332D01*
Y-104045D01*
Y-103759D01*
Y-103473D01*
Y-103186D01*
Y-102900D01*
X1044348D01*
Y-102614D01*
Y-102327D01*
Y-102041D01*
Y-101755D01*
Y-101468D01*
Y-101182D01*
X1044634D01*
Y-100896D01*
Y-100610D01*
Y-100323D01*
Y-100037D01*
Y-99751D01*
Y-99464D01*
Y-99178D01*
X1044920D01*
Y-98892D01*
Y-98605D01*
Y-98319D01*
Y-98033D01*
Y-97746D01*
Y-97460D01*
X1045207D01*
Y-97174D01*
Y-96887D01*
Y-96601D01*
Y-96315D01*
Y-96029D01*
Y-95742D01*
X1045493D01*
Y-95456D01*
Y-95170D01*
Y-94883D01*
Y-94597D01*
Y-94311D01*
Y-94024D01*
X1045779D01*
Y-93738D01*
Y-93452D01*
Y-93165D01*
Y-92879D01*
Y-92593D01*
Y-92306D01*
Y-92020D01*
X1046066D01*
Y-91734D01*
Y-91448D01*
Y-91161D01*
Y-90875D01*
Y-90588D01*
Y-90302D01*
X1046352D01*
Y-90016D01*
Y-89730D01*
Y-89443D01*
Y-89157D01*
Y-88871D01*
Y-88584D01*
X1046638D01*
Y-88298D01*
Y-88012D01*
Y-87725D01*
Y-87439D01*
Y-87153D01*
Y-86866D01*
X1046925D01*
Y-86580D01*
Y-86294D01*
Y-86007D01*
Y-85721D01*
Y-85435D01*
Y-85149D01*
Y-84862D01*
X1047211D01*
Y-84576D01*
Y-84290D01*
Y-84003D01*
Y-83717D01*
Y-83431D01*
Y-83144D01*
X1047497D01*
Y-82858D01*
Y-82572D01*
Y-82285D01*
Y-81999D01*
Y-81713D01*
Y-81427D01*
X1047783D01*
Y-81140D01*
Y-80854D01*
Y-80568D01*
Y-80281D01*
Y-79995D01*
Y-79709D01*
Y-79422D01*
X1048070D01*
Y-79136D01*
Y-78850D01*
Y-78563D01*
Y-78277D01*
Y-77991D01*
Y-77704D01*
X1048356D01*
Y-77418D01*
Y-77132D01*
Y-76846D01*
Y-76559D01*
Y-76273D01*
Y-75987D01*
X1048642D01*
Y-75700D01*
Y-75414D01*
Y-75128D01*
Y-74841D01*
Y-74555D01*
Y-74269D01*
X1048929D01*
Y-73982D01*
Y-73696D01*
Y-73410D01*
Y-73123D01*
Y-72837D01*
Y-72551D01*
Y-72264D01*
X1049215D01*
Y-71978D01*
Y-71692D01*
Y-71406D01*
Y-71119D01*
Y-70833D01*
Y-70547D01*
X1049501D01*
Y-70260D01*
Y-69974D01*
Y-69688D01*
Y-69401D01*
Y-69115D01*
Y-68829D01*
X1049788D01*
Y-68542D01*
Y-68256D01*
Y-67970D01*
Y-67684D01*
Y-67397D01*
Y-67111D01*
Y-66825D01*
X1050074D01*
Y-66538D01*
Y-66252D01*
Y-65966D01*
X1063244D01*
Y-66252D01*
D02*
G37*
%LPC*%
G36*
X1027742Y-80568D02*
X1019725D01*
Y-80854D01*
Y-81140D01*
Y-81427D01*
Y-81713D01*
Y-81999D01*
X1019438D01*
Y-82285D01*
Y-82572D01*
Y-82858D01*
Y-83144D01*
Y-83431D01*
Y-83717D01*
X1019152D01*
Y-84003D01*
Y-84290D01*
Y-84576D01*
Y-84862D01*
Y-85149D01*
Y-85435D01*
X1018866D01*
Y-85721D01*
Y-86007D01*
Y-86294D01*
Y-86580D01*
Y-86866D01*
Y-87153D01*
X1018580D01*
Y-87439D01*
Y-87725D01*
Y-88012D01*
Y-88298D01*
Y-88584D01*
Y-88871D01*
Y-89157D01*
X1018293D01*
Y-89443D01*
Y-89730D01*
Y-90016D01*
Y-90302D01*
Y-90588D01*
Y-90875D01*
X1018007D01*
Y-91161D01*
Y-91448D01*
Y-91734D01*
X1025165D01*
Y-91448D01*
X1026310D01*
Y-91161D01*
X1026883D01*
Y-90875D01*
X1027169D01*
Y-90588D01*
X1027455D01*
Y-90302D01*
X1027742D01*
Y-90016D01*
X1028028D01*
Y-89730D01*
Y-89443D01*
X1028314D01*
Y-89157D01*
Y-88871D01*
X1028601D01*
Y-88584D01*
Y-88298D01*
X1028887D01*
Y-88012D01*
Y-87725D01*
Y-87439D01*
Y-87153D01*
X1029173D01*
Y-86866D01*
Y-86580D01*
Y-86294D01*
Y-86007D01*
Y-85721D01*
X1029459D01*
Y-85435D01*
Y-85149D01*
Y-84862D01*
Y-84576D01*
Y-84290D01*
Y-84003D01*
Y-83717D01*
Y-83431D01*
Y-83144D01*
Y-82858D01*
Y-82572D01*
X1029173D01*
Y-82285D01*
Y-81999D01*
X1028887D01*
Y-81713D01*
Y-81427D01*
X1028601D01*
Y-81140D01*
X1028314D01*
Y-80854D01*
X1027742D01*
Y-80568D01*
D02*
G37*
%LPD*%
D10*
X241732Y41732D02*
G03*
X246457Y46457I0J4724D01*
G01*
Y76772D02*
G03*
X242126Y81102I-4331J0D01*
G01*
X234252D02*
X242126D01*
X194724Y41732D02*
X241732D01*
X246457Y47244D02*
Y76772D01*
D11*
X195276Y90945D02*
G03*
X196457Y93796I-2851J2851D01*
G01*
X250000Y168897D02*
Y172834D01*
X237599Y187008D02*
X241536D01*
X203937Y172835D02*
Y175984D01*
X207874Y172835D02*
Y175984D01*
X232283Y64764D02*
Y67913D01*
X236221Y64764D02*
Y67913D01*
X212599Y67519D02*
Y71456D01*
X218504Y67519D02*
Y71456D01*
X224409Y67520D02*
Y71457D01*
X195669Y139174D02*
Y143111D01*
X210630Y147047D02*
Y150984D01*
X240158Y153347D02*
Y156496D01*
X244094Y153347D02*
Y156496D01*
X220472Y153347D02*
Y156496D01*
X224409Y153347D02*
Y156496D01*
X183071Y120079D02*
Y123228D01*
X179134Y120079D02*
Y123228D01*
X173228Y120079D02*
Y123228D01*
X169291Y120079D02*
Y123228D01*
X165945Y80905D02*
Y84055D01*
X169882Y80905D02*
Y84055D01*
X156102Y80905D02*
Y84055D01*
X160039Y80905D02*
Y84055D01*
X65552Y131496D02*
X69489D01*
X65552Y138189D02*
X69489D01*
X58268Y98425D02*
X62205D01*
X62992Y97638D01*
X63779Y98425D01*
X67716D01*
X65945Y119291D02*
X69882D01*
X42323Y86614D02*
Y89764D01*
X38386Y86614D02*
Y89764D01*
X52165Y86614D02*
Y89764D01*
X48228Y86614D02*
Y89764D01*
X40354Y126772D02*
Y129921D01*
X36417Y126772D02*
Y129921D01*
X50197Y126772D02*
Y129921D01*
X46260Y126772D02*
Y129921D01*
X149606Y125591D02*
Y129921D01*
X210630Y129331D02*
Y133268D01*
X196457Y93796D02*
Y124803D01*
D12*
X22063Y157071D02*
G03*
X14992Y160000I-7071J-7071D01*
G01*
X217323Y188189D02*
X218110Y188976D01*
X238189Y140157D02*
X242126D01*
X218110Y188976D02*
Y216752D01*
X207874Y188583D02*
Y216693D01*
X11220Y68110D02*
X11811Y68701D01*
X17323D01*
X22835D01*
X37953Y197796D02*
Y211693D01*
X20157Y180000D02*
X37953Y197796D01*
X10000Y180000D02*
X20157D01*
X10000Y160000D02*
X14992D01*
X22063Y157071D02*
X25591Y153543D01*
D13*
X222441Y151181D02*
D03*
Y140157D02*
D03*
X242126Y151181D02*
D03*
Y140157D02*
D03*
D14*
X234252Y81102D02*
D03*
Y70079D02*
D03*
X205906Y177559D02*
D03*
Y188583D02*
D03*
X40354Y102953D02*
D03*
Y91929D02*
D03*
X158071Y97244D02*
D03*
Y86221D02*
D03*
X50197Y102953D02*
D03*
Y91929D02*
D03*
X167913Y97244D02*
D03*
Y86221D02*
D03*
X171260Y106890D02*
D03*
Y117913D02*
D03*
X181102Y106890D02*
D03*
Y117913D02*
D03*
X48228Y113583D02*
D03*
Y124606D02*
D03*
X38386Y113583D02*
D03*
Y124606D02*
D03*
D15*
X129921Y57992D02*
D03*
Y73898D02*
D03*
X158465Y46181D02*
D03*
Y62087D02*
D03*
X46260Y46181D02*
D03*
Y62087D02*
D03*
X74803Y57992D02*
D03*
Y73898D02*
D03*
D16*
X141732Y138779D02*
D03*
Y131299D02*
D03*
D17*
X221063Y171457D02*
D03*
X224803Y180905D02*
D03*
X11220Y68110D02*
D03*
X7480Y58661D02*
D03*
D18*
X217323Y180905D02*
D03*
X3740Y68110D02*
D03*
D19*
X232185Y176181D02*
D03*
X241437Y172441D02*
D03*
Y176181D02*
D03*
Y179921D02*
D03*
X232185D02*
D03*
X232185Y172441D02*
D03*
X150886Y178347D02*
D03*
Y185827D02*
D03*
X160138D02*
D03*
Y182087D02*
D03*
Y178347D02*
D03*
D20*
X126969Y127953D02*
D03*
X81693Y110236D02*
D03*
X81890Y150394D02*
D03*
X79134Y145276D02*
D03*
X125984Y138583D02*
D03*
X123031Y133858D02*
D03*
Y127953D02*
D03*
D21*
X116634Y92520D02*
D03*
Y94488D02*
D03*
Y96457D02*
D03*
Y98425D02*
D03*
Y100394D02*
D03*
Y102362D02*
D03*
Y104331D02*
D03*
Y106299D02*
D03*
Y108268D02*
D03*
Y110236D02*
D03*
Y112205D02*
D03*
Y114173D02*
D03*
Y116142D02*
D03*
Y118110D02*
D03*
Y120079D02*
D03*
Y122047D02*
D03*
Y124016D02*
D03*
Y125984D02*
D03*
Y127953D02*
D03*
Y129921D02*
D03*
Y131890D02*
D03*
Y133858D02*
D03*
Y135827D02*
D03*
Y137795D02*
D03*
X88090Y92520D02*
D03*
Y94488D02*
D03*
Y96457D02*
D03*
Y98425D02*
D03*
Y100394D02*
D03*
Y102362D02*
D03*
Y104331D02*
D03*
Y106299D02*
D03*
Y108268D02*
D03*
Y110236D02*
D03*
Y112205D02*
D03*
Y114173D02*
D03*
Y116142D02*
D03*
Y118110D02*
D03*
Y120079D02*
D03*
Y122047D02*
D03*
Y124016D02*
D03*
Y125984D02*
D03*
Y127953D02*
D03*
Y129921D02*
D03*
Y131890D02*
D03*
Y133858D02*
D03*
Y135827D02*
D03*
Y137795D02*
D03*
D22*
X102362Y115157D02*
D03*
D23*
X14961Y40315D02*
D03*
Y45512D02*
D03*
D24*
X147244Y192913D02*
D03*
X153937D02*
D03*
X141929Y143701D02*
D03*
X135237D02*
D03*
X76181Y131496D02*
D03*
X69489D02*
D03*
X69488Y125197D02*
D03*
X76181D02*
D03*
X76181Y119292D02*
D03*
X69489D02*
D03*
X76181Y138189D02*
D03*
X69489D02*
D03*
X165945Y177165D02*
D03*
X172637D02*
D03*
X165945Y187007D02*
D03*
X172637D02*
D03*
X161615Y111811D02*
D03*
X154922D02*
D03*
X237599Y187008D02*
D03*
X230906D02*
D03*
X124607Y179134D02*
D03*
X117914D02*
D03*
X124607Y185040D02*
D03*
X117914D02*
D03*
X148229Y111811D02*
D03*
X141536D02*
D03*
D25*
X134843Y128346D02*
D03*
Y135039D02*
D03*
X143701Y178740D02*
D03*
Y185433D02*
D03*
X250000Y172834D02*
D03*
Y179527D02*
D03*
X22835Y62401D02*
D03*
Y69094D02*
D03*
X206693Y78149D02*
D03*
Y71456D02*
D03*
X218504D02*
D03*
Y78149D02*
D03*
X224409Y71457D02*
D03*
Y78150D02*
D03*
X212599Y71456D02*
D03*
Y78149D02*
D03*
X195669Y139174D02*
D03*
Y132481D02*
D03*
X202756Y132480D02*
D03*
Y139173D02*
D03*
X210630Y129331D02*
D03*
Y122638D02*
D03*
X218504Y129330D02*
D03*
Y122637D02*
D03*
X210630Y147047D02*
D03*
Y140354D02*
D03*
D26*
X149606Y118110D02*
D03*
Y125591D02*
D03*
X62992Y105118D02*
D03*
Y97638D02*
D03*
X148425Y101772D02*
D03*
Y94291D02*
D03*
X141732Y125591D02*
D03*
Y118110D02*
D03*
X59055Y123425D02*
D03*
Y115945D02*
D03*
X139764Y82874D02*
D03*
Y90354D02*
D03*
X62992Y82874D02*
D03*
Y90354D02*
D03*
D27*
X134449Y112795D02*
D03*
X126969D02*
D03*
X125984Y83661D02*
D03*
X118504D02*
D03*
X69980Y110433D02*
D03*
X77460D02*
D03*
X78937Y83661D02*
D03*
X86417D02*
D03*
X79724Y35433D02*
D03*
X72244D02*
D03*
X38386D02*
D03*
X45866D02*
D03*
X166339D02*
D03*
X158858D02*
D03*
X124213D02*
D03*
X131693D02*
D03*
D28*
X216535Y100394D02*
D03*
D29*
X224035Y110236D02*
D03*
X219035D02*
D03*
X214035D02*
D03*
X209035D02*
D03*
X224035Y90551D02*
D03*
X219035D02*
D03*
X214035D02*
D03*
X209035D02*
D03*
D30*
X226378Y124016D02*
D03*
X238189D02*
D03*
D31*
X205906Y188583D02*
X217323D01*
X6693Y40315D02*
X14961D01*
X21024D01*
X31102Y50394D01*
Y100394D01*
X33661Y102953D01*
X40354D01*
X232283Y140157D02*
X242126D01*
X222441D02*
X232283D01*
X226870Y171457D02*
X232677D01*
X221063D02*
X226870D01*
Y165256D02*
Y171457D01*
Y165256D02*
X232283Y159843D01*
Y140157D02*
Y159843D01*
X217323Y176181D02*
Y188583D01*
Y176181D02*
X232185D01*
X42954Y211693D02*
X48406Y217146D01*
X218110D01*
X6693Y39213D02*
Y40315D01*
X10394Y45512D02*
X14961D01*
X6693Y49213D02*
X10394Y45512D01*
X32954Y211693D02*
X37953D01*
X42954D01*
D32*
X209035Y110236D02*
Y116142D01*
Y100394D02*
X216535D01*
X209035D02*
Y110236D01*
X140355Y112992D02*
X141536Y111811D01*
X75984Y131496D02*
X77756D01*
X72835Y134645D02*
X75984Y131496D01*
X72835Y134645D02*
Y140647D01*
X72835Y140647D02*
Y182283D01*
Y140647D02*
X72835Y140647D01*
X72835Y182283D02*
X73228Y182677D01*
X112954Y201693D02*
X117402Y197244D01*
X134646Y112992D02*
X140355D01*
X134646D02*
X135039Y113386D01*
Y117717D01*
X40000Y190000D02*
X47323Y182677D01*
X73228D01*
X124213Y29528D02*
Y35433D01*
Y42126D01*
X166339Y28740D02*
Y35433D01*
Y40945D01*
X79724Y35433D02*
Y42126D01*
Y29528D02*
Y35433D01*
X38386Y28740D02*
Y35433D01*
Y40945D01*
X140157Y181890D02*
X143307Y185039D01*
X117402Y197244D02*
X142913D01*
X147638Y192520D01*
X140157Y150394D02*
Y162598D01*
Y181890D01*
Y150394D02*
X141929Y148622D01*
Y138779D02*
Y148622D01*
X134843Y135039D02*
Y139370D01*
X134843Y139370D02*
X134843Y139370D01*
X134843Y139370D02*
Y143307D01*
X135237Y143701D01*
X55905Y110433D02*
X69980D01*
X54134Y112205D02*
X55905Y110433D01*
X54134Y112205D02*
Y118701D01*
X48228Y124606D02*
X54134Y118701D01*
X112757Y187598D02*
X112954Y187402D01*
X73228Y182677D02*
X78150Y187598D01*
X112757D01*
D33*
X224409Y81102D02*
Y92520D01*
Y78150D02*
Y81102D01*
X224409Y81102D01*
X234252D01*
X238189Y124016D02*
Y140157D01*
X203741D02*
X222441D01*
X202756Y139173D02*
X203741Y140157D01*
X7480Y50000D02*
Y58661D01*
X6693Y49213D02*
X7480Y50000D01*
D34*
X226378Y118898D02*
Y124016D01*
X224035Y116555D02*
X226378Y118898D01*
X224035Y110236D02*
Y116555D01*
X205906Y90551D02*
X209035D01*
X202756Y93701D02*
X205906Y90551D01*
X202756Y93701D02*
Y132481D01*
X195669D02*
X202756D01*
X226378Y124016D02*
Y129330D01*
X218504D02*
X226378D01*
X210630Y122638D02*
X214035Y119232D01*
Y110236D02*
Y119232D01*
X218504Y122637D02*
X219035Y122106D01*
Y110236D02*
Y122106D01*
X206693Y72244D02*
X212599Y78149D01*
X206693Y71456D02*
Y72244D01*
Y78149D02*
X214035Y85492D01*
Y90551D01*
X218504Y78149D02*
X219035Y78680D01*
Y90551D01*
X59055Y115945D02*
X60532Y114469D01*
X77756Y118110D02*
X88090D01*
X77756D02*
Y119095D01*
X81496Y120079D02*
X88090D01*
X77756Y123819D02*
X81496Y120079D01*
X77756Y123819D02*
Y125197D01*
X141339Y118110D02*
X141732D01*
X138583Y120866D02*
X141339Y118110D01*
X133858Y120866D02*
X138583D01*
X130709Y117717D02*
X133858Y120866D01*
X141339Y125591D02*
X141732D01*
X137992Y122244D02*
X141339Y125591D01*
X133268Y122244D02*
X137992D01*
X83858Y133858D02*
X88090D01*
X81496Y136221D02*
X83858Y133858D01*
X81496Y136221D02*
Y142913D01*
X76181Y138189D02*
X76771D01*
X72638Y128347D02*
X79710D01*
X69488Y125197D02*
X72638Y128347D01*
X63386Y116929D02*
Y119685D01*
X59646Y123425D02*
X63386Y119685D01*
X59055Y123425D02*
X59646D01*
X64468Y115847D02*
X82677D01*
X63386Y116929D02*
X64468Y115847D01*
X79710Y128347D02*
X84041Y124016D01*
X88090D01*
X71063Y124409D02*
Y124606D01*
X83071Y138189D02*
Y143701D01*
X81890Y144882D02*
X83071Y143701D01*
X81890Y144882D02*
Y147244D01*
X79134Y145276D02*
X81496Y142913D01*
X73622Y100394D02*
X88090D01*
X63583Y90354D02*
X73622Y100394D01*
X62992Y90354D02*
X63583D01*
X82284Y114469D02*
X82579Y114173D01*
X60532Y114469D02*
X82284D01*
X116634Y108268D02*
X144685D01*
X147835Y107677D02*
X160433D01*
X146457Y106299D02*
X147835Y107677D01*
X116634Y106299D02*
X146457D01*
X148229Y111811D02*
X154922D01*
X144685Y108268D02*
X148229Y111811D01*
X161615D02*
Y115157D01*
Y108859D02*
Y111811D01*
X149606Y118110D02*
X158661D01*
X161615Y115157D01*
X160433Y107677D02*
X161615Y108859D01*
X83071Y131890D02*
X88090D01*
X76771Y138189D02*
X83071Y131890D01*
X83071Y138189D02*
X83465Y137795D01*
X173622Y159843D02*
X187795Y174016D01*
X174803Y157480D02*
X190157Y172835D01*
Y194488D01*
X192362Y196693D01*
X60630Y207480D02*
X127953D01*
X42954Y197046D02*
X50000Y190000D01*
X42954Y197046D02*
Y201693D01*
X197954Y196693D02*
X202954Y201693D01*
X187795Y203937D02*
X190157Y206299D01*
X198031D01*
X187795Y174016D02*
Y203937D01*
X81890Y147244D02*
Y150394D01*
X77165Y147244D02*
X79134Y145276D01*
X121752Y124508D02*
X126870D01*
X121260Y124016D02*
X121752Y124508D01*
X116634Y124016D02*
X121260D01*
X121654Y122047D02*
X122539Y122933D01*
X116634Y122047D02*
X121654D01*
X83465Y137795D02*
X88090D01*
X130315Y119291D02*
X133268Y122244D01*
X124508Y119291D02*
X130315D01*
X124882Y117717D02*
X130709D01*
X121358Y116142D02*
X124508Y119291D01*
X121732Y114567D02*
X124882Y117717D01*
X126378Y112205D02*
X126969Y112795D01*
X125000Y125984D02*
X126969Y127953D01*
X82677Y115847D02*
X82973Y116142D01*
X88090D01*
X82579Y114173D02*
X88090D01*
X88090Y114173D01*
X116634Y89468D02*
Y92520D01*
Y89468D02*
X118504Y87598D01*
Y83661D02*
Y87598D01*
X86221Y83661D02*
Y87598D01*
X88090Y89468D01*
Y92520D01*
X116634Y125984D02*
X125000D01*
X116634Y112205D02*
X126378D01*
X116634Y116142D02*
X121358D01*
X116634Y114173D02*
X117027Y114567D01*
X121732D01*
X116634Y118110D02*
X120669D01*
X123721Y121161D01*
X241437Y179921D02*
X250000D01*
X241437Y172441D02*
Y176181D01*
Y179921D01*
X224803Y180905D02*
X225787Y179921D01*
X232185D01*
X231299Y180118D02*
Y187008D01*
Y180118D02*
X231496Y179921D01*
X232185D01*
X73189Y185000D02*
X78347Y190157D01*
X65000Y185000D02*
X73189D01*
X60000Y190000D02*
X65000Y185000D01*
X50000Y190000D02*
X55000Y195000D01*
X74291D01*
X76772Y192520D01*
X57874Y204724D02*
X60630Y207480D01*
X57874Y197638D02*
Y204724D01*
X192362Y196693D02*
X197954D01*
X158661Y159843D02*
X173622D01*
X153150Y151181D02*
X159449Y157480D01*
X174803D01*
X116634Y100394D02*
X131102D01*
X142913Y151969D02*
X150787D01*
X158661Y159843D01*
X122539Y122933D02*
X127657D01*
X131496Y126772D01*
X123721Y121161D02*
X128248D01*
X134843Y127756D01*
Y128346D01*
X136812Y130315D01*
X140748D01*
X141732Y131299D01*
X116634Y131890D02*
X124016D01*
X126870Y124508D02*
X130118Y127756D01*
Y173623D01*
X78347Y190157D02*
X118898D01*
X121260Y187795D01*
Y182481D02*
Y187795D01*
Y182481D02*
X124607Y179134D01*
X130118Y173623D01*
X121260Y192520D02*
X124607Y189173D01*
Y185630D02*
Y189173D01*
X76772Y192520D02*
X121260D01*
X124607Y185630D02*
X131496Y178740D01*
Y126772D02*
Y178740D01*
X125197Y194882D02*
X136944Y183134D01*
X88189Y194882D02*
X125197D01*
X136944Y149543D02*
Y183134D01*
X124016Y131890D02*
X128740Y136614D01*
Y151732D01*
X123622Y156850D02*
X128740Y151732D01*
X153150Y134252D02*
Y151181D01*
X22638Y62598D02*
X22835Y62795D01*
X17323Y62598D02*
X22638D01*
X77165Y147244D02*
Y178267D01*
X82954Y184055D01*
X140748Y91339D02*
X141732Y90354D01*
X138386Y91339D02*
X140748D01*
X137205Y92520D02*
X138386Y91339D01*
X137205Y92520D02*
Y94291D01*
X131102Y100394D02*
X137205Y94291D01*
X11811Y220472D02*
G03*
X0Y208661I0J-11811D01*
G01*
Y11811D02*
G03*
X11811Y0I11811J0D01*
G01*
X244094D02*
G03*
X255906Y11811I0J11811D01*
G01*
Y208661D02*
G03*
X244094Y220472I-11811J0D01*
G01*
X255906Y11811D02*
Y208661D01*
X11811Y220472D02*
X244094D01*
X11811Y0D02*
X244094D01*
X0Y11811D02*
Y208661D01*
X-196850Y-196850D02*
X1456693D01*
X-196850D02*
Y972441D01*
X1456693Y-196850D02*
Y972441D01*
X-196850D02*
X1456693D01*
X1181102Y-196850D02*
Y-39370D01*
X984252Y-196850D02*
Y-39370D01*
X1456693D01*
X984252Y-157480D02*
X1456693D01*
X1181102Y-118110D02*
X1456693D01*
X1181102Y-78740D02*
X1456693D01*
X1338583Y-157480D02*
Y-118110D01*
X1190945Y-188976D02*
Y-183073D01*
X1193897D01*
X1194881Y-184057D01*
Y-186025D01*
X1193897Y-187009D01*
X1190945D01*
X1192913D02*
X1194881Y-188976D01*
X1196848D02*
Y-183073D01*
X1199800D01*
X1200784Y-184057D01*
Y-186025D01*
X1199800Y-187009D01*
X1196848D01*
X1202752Y-183073D02*
X1204720D01*
X1203736D01*
Y-188976D01*
X1202752D01*
X1204720D01*
X1207672Y-189960D02*
X1211607D01*
X1213575Y-183073D02*
Y-188976D01*
Y-186025D01*
X1217511D01*
Y-183073D01*
Y-188976D01*
X1219479D02*
Y-185041D01*
X1221447Y-183073D01*
X1223415Y-185041D01*
Y-188976D01*
Y-186025D01*
X1219479D01*
X1225383Y-183073D02*
X1229318D01*
X1227350D01*
Y-188976D01*
X1231286Y-189960D02*
X1235222D01*
X1237190Y-188976D02*
Y-185041D01*
X1239158Y-183073D01*
X1241125Y-185041D01*
Y-188976D01*
Y-186025D01*
X1237190D01*
X1243093Y-188976D02*
Y-183073D01*
X1245061Y-185041D01*
X1247029Y-183073D01*
Y-188976D01*
X1248997D02*
Y-183073D01*
X1251949D01*
X1252933Y-184057D01*
Y-186025D01*
X1251949Y-187009D01*
X1248997D01*
X1254900Y-189960D02*
X1258836D01*
X1260804Y-183073D02*
X1264740D01*
X1262772D01*
Y-188976D01*
X1266708D02*
Y-185041D01*
X1268676Y-183073D01*
X1270644Y-185041D01*
Y-188976D01*
Y-186025D01*
X1266708D01*
X1276547Y-184057D02*
X1275563Y-183073D01*
X1273595D01*
X1272611Y-184057D01*
Y-185041D01*
X1273595Y-186025D01*
X1275563D01*
X1276547Y-187009D01*
Y-187993D01*
X1275563Y-188976D01*
X1273595D01*
X1272611Y-187993D01*
X1282451Y-183073D02*
X1278515D01*
Y-186025D01*
X1280483Y-185041D01*
X1281467D01*
X1282451Y-186025D01*
Y-187993D01*
X1281467Y-188976D01*
X1279499D01*
X1278515Y-187993D01*
X1284418Y-183073D02*
X1288354D01*
Y-184057D01*
X1284418Y-187993D01*
Y-188976D01*
X1294258Y-183073D02*
X1290322D01*
Y-186025D01*
X1292290Y-185041D01*
X1293274D01*
X1294258Y-186025D01*
Y-187993D01*
X1293274Y-188976D01*
X1291306D01*
X1290322Y-187993D01*
X1300161Y-183073D02*
X1298194Y-184057D01*
X1296226Y-186025D01*
Y-187993D01*
X1297210Y-188976D01*
X1299177D01*
X1300161Y-187993D01*
Y-187009D01*
X1299177Y-186025D01*
X1296226D01*
X1302129Y-189960D02*
X1306065D01*
X1308033Y-184057D02*
X1309017Y-183073D01*
X1310985D01*
X1311969Y-184057D01*
Y-187993D01*
X1310985Y-188976D01*
X1309017D01*
X1308033Y-187993D01*
Y-184057D01*
X1317872Y-188976D02*
X1313937D01*
X1317872Y-185041D01*
Y-184057D01*
X1316888Y-183073D01*
X1314921D01*
X1313937Y-184057D01*
X1319840Y-188976D02*
Y-187993D01*
X1320824D01*
Y-188976D01*
X1319840D01*
X1324760D02*
Y-183073D01*
X1327712D01*
X1328696Y-184057D01*
Y-186025D01*
X1327712Y-187009D01*
X1324760D01*
X1334599Y-185041D02*
X1331647D01*
X1330663Y-186025D01*
Y-187993D01*
X1331647Y-188976D01*
X1334599D01*
X1336567Y-183073D02*
Y-188976D01*
X1339519D01*
X1340503Y-187993D01*
Y-187009D01*
Y-186025D01*
X1339519Y-185041D01*
X1336567D01*
X1342471Y-183073D02*
Y-188976D01*
X1345422D01*
X1346406Y-187993D01*
Y-184057D01*
X1345422Y-183073D01*
X1342471D01*
X1349358Y-188976D02*
X1351326D01*
X1352310Y-187993D01*
Y-186025D01*
X1351326Y-185041D01*
X1349358D01*
X1348374Y-186025D01*
Y-187993D01*
X1349358Y-188976D01*
X1358214Y-185041D02*
X1355262D01*
X1354278Y-186025D01*
Y-187993D01*
X1355262Y-188976D01*
X1358214D01*
D35*
X148425Y89370D02*
Y94882D01*
X147638Y95669D02*
X148425Y94882D01*
X140945Y95669D02*
X145669D01*
X69882Y119291D02*
X70276Y118898D01*
X3740Y68110D02*
X8071Y72441D01*
X14173D01*
X1202756Y-96461D02*
X1211939D01*
X1207348D01*
Y-110236D01*
X1218827D02*
X1223419D01*
X1225714Y-107940D01*
Y-103349D01*
X1223419Y-101053D01*
X1218827D01*
X1216531Y-103349D01*
Y-107940D01*
X1218827Y-110236D01*
X1230306Y-114828D02*
Y-101053D01*
X1237194D01*
X1239489Y-103349D01*
Y-107940D01*
X1237194Y-110236D01*
X1230306D01*
X1257856Y-96461D02*
Y-110236D01*
X1267040D01*
X1273927Y-101053D02*
X1278519D01*
X1280815Y-103349D01*
Y-110236D01*
X1273927D01*
X1271631Y-107940D01*
X1273927Y-105645D01*
X1280815D01*
X1285406Y-101053D02*
Y-107940D01*
X1287702Y-110236D01*
X1294590D01*
Y-112532D01*
X1292294Y-114828D01*
X1289998D01*
X1294590Y-110236D02*
Y-101053D01*
X1306069Y-110236D02*
X1301477D01*
X1299181Y-107940D01*
Y-103349D01*
X1301477Y-101053D01*
X1306069D01*
X1308365Y-103349D01*
Y-105645D01*
X1299181D01*
X1312957Y-101053D02*
Y-110236D01*
Y-105645D01*
X1315252Y-103349D01*
X1317548Y-101053D01*
X1319844D01*
X1190945Y-57092D02*
X1201440D01*
X1196192D01*
Y-72835D01*
X1206688D02*
Y-62339D01*
X1211936Y-57092D01*
X1217183Y-62339D01*
Y-72835D01*
Y-64963D01*
X1206688D01*
X1232926Y-59715D02*
X1230302Y-57092D01*
X1225055D01*
X1222431Y-59715D01*
Y-62339D01*
X1225055Y-64963D01*
X1230302D01*
X1232926Y-67587D01*
Y-70211D01*
X1230302Y-72835D01*
X1225055D01*
X1222431Y-70211D01*
X1248669Y-57092D02*
X1238174D01*
Y-64963D01*
X1243421Y-62339D01*
X1246045D01*
X1248669Y-64963D01*
Y-70211D01*
X1246045Y-72835D01*
X1240798D01*
X1238174Y-70211D01*
X1253917Y-57092D02*
X1264412D01*
Y-59715D01*
X1253917Y-70211D01*
Y-72835D01*
X1280155Y-57092D02*
X1269660D01*
Y-64963D01*
X1274907Y-62339D01*
X1277531D01*
X1280155Y-64963D01*
Y-70211D01*
X1277531Y-72835D01*
X1272283D01*
X1269660Y-70211D01*
X1295898Y-57092D02*
X1290650Y-59715D01*
X1285402Y-64963D01*
Y-70211D01*
X1288026Y-72835D01*
X1293274D01*
X1295898Y-70211D01*
Y-67587D01*
X1293274Y-64963D01*
X1285402D01*
X1316888Y-57092D02*
Y-72835D01*
Y-64963D01*
X1327384D01*
Y-57092D01*
Y-72835D01*
X1332631D02*
Y-62339D01*
X1337879Y-57092D01*
X1343127Y-62339D01*
Y-72835D01*
Y-64963D01*
X1332631D01*
X1348374Y-57092D02*
X1358870D01*
X1353622D01*
Y-72835D01*
X1206034Y-151575D02*
X1196850D01*
X1206034Y-142391D01*
Y-140096D01*
X1203738Y-137800D01*
X1199146D01*
X1196850Y-140096D01*
X1219809Y-151575D02*
X1210625D01*
X1219809Y-142391D01*
Y-140096D01*
X1217513Y-137800D01*
X1212921D01*
X1210625Y-140096D01*
X1224401Y-151575D02*
X1233584Y-142391D01*
X1238176Y-140096D02*
X1240471Y-137800D01*
X1245063D01*
X1247359Y-140096D01*
Y-149279D01*
X1245063Y-151575D01*
X1240471D01*
X1238176Y-149279D01*
Y-140096D01*
X1251951D02*
X1254247Y-137800D01*
X1258838D01*
X1261134Y-140096D01*
Y-142391D01*
X1258838Y-144687D01*
X1256542D01*
X1258838D01*
X1261134Y-146983D01*
Y-149279D01*
X1258838Y-151575D01*
X1254247D01*
X1251951Y-149279D01*
X1265726Y-151575D02*
X1274909Y-142391D01*
X1288684Y-151575D02*
X1279501D01*
X1288684Y-142391D01*
Y-140096D01*
X1286388Y-137800D01*
X1281797D01*
X1279501Y-140096D01*
X1293276D02*
X1295572Y-137800D01*
X1300163D01*
X1302459Y-140096D01*
Y-149279D01*
X1300163Y-151575D01*
X1295572D01*
X1293276Y-149279D01*
Y-140096D01*
X1307051Y-151575D02*
X1311643D01*
X1309347D01*
Y-137800D01*
X1307051Y-140096D01*
X1318530Y-137800D02*
X1327714D01*
Y-140096D01*
X1318530Y-149279D01*
Y-151575D01*
X1360236Y-138456D02*
X1362860Y-135832D01*
X1368108D01*
X1370732Y-138456D01*
Y-148951D01*
X1368108Y-151575D01*
X1362860D01*
X1360236Y-148951D01*
Y-138456D01*
X1386475Y-151575D02*
X1375979D01*
X1386475Y-141079D01*
Y-138456D01*
X1383851Y-135832D01*
X1378603D01*
X1375979Y-138456D01*
X1005906Y-175202D02*
Y-190945D01*
X1011153Y-185697D01*
X1016401Y-190945D01*
Y-175202D01*
X1021649Y-190945D02*
X1026896D01*
X1024272D01*
Y-180450D01*
X1021649D01*
X1034768Y-190945D02*
Y-180450D01*
X1037391D01*
X1040015Y-183073D01*
Y-190945D01*
Y-183073D01*
X1042639Y-180450D01*
X1045263Y-183073D01*
Y-190945D01*
X1050511Y-175202D02*
Y-185697D01*
X1055758Y-190945D01*
X1061006Y-185697D01*
Y-175202D01*
X1076749Y-177826D02*
X1074125Y-175202D01*
X1068877D01*
X1066253Y-177826D01*
Y-188321D01*
X1068877Y-190945D01*
X1074125D01*
X1076749Y-188321D01*
Y-183073D01*
X1071501D01*
D36*
X78248Y112205D02*
X88090D01*
X77460Y111417D02*
X78248Y112205D01*
X123031Y127953D02*
X123031Y127953D01*
X116634Y127953D02*
X123031D01*
X81693Y110236D02*
X81693Y110236D01*
X88090D01*
X77460Y110433D02*
Y111417D01*
X149606Y178347D02*
X150886D01*
X149606Y167323D02*
Y178347D01*
X176575Y190354D02*
X179606Y187323D01*
X166339Y190354D02*
X176575D01*
X160335Y178150D02*
X166339D01*
X150886Y185827D02*
Y189272D01*
X147638Y192520D02*
X150886Y189272D01*
X143701Y185039D02*
X144095Y185433D01*
X150492D01*
X150886Y185827D01*
X143701Y179134D02*
X144095Y178740D01*
X150492D01*
X150886Y178347D01*
X160138Y182087D02*
X165354D01*
X166339Y185827D02*
Y187008D01*
X160138Y185827D02*
X166339D01*
Y187008D02*
Y190354D01*
X155905Y179528D02*
X157087Y178347D01*
X155905Y179528D02*
Y188189D01*
X157087Y178347D02*
X160138D01*
X158268Y190551D02*
Y207007D01*
X155905Y188189D02*
X158268Y190551D01*
Y207007D02*
X162954Y211693D01*
X162954Y193739D02*
X166339Y190354D01*
X162954Y193739D02*
Y201693D01*
X97047Y135827D02*
X98819Y137598D01*
X88090Y135827D02*
X97047D01*
X88090Y129921D02*
X95866D01*
X97638Y131693D01*
X88090Y122047D02*
X97441D01*
X97638Y122244D01*
X88090Y108268D02*
X97441D01*
X97638Y108071D01*
X109252Y110236D02*
X116634D01*
X107087Y108071D02*
X109252Y110236D01*
X109646Y120079D02*
X116634D01*
X107087Y117520D02*
X109646Y120079D01*
X108858Y129921D02*
X116634D01*
X107087Y131693D02*
X108858Y129921D01*
X107087Y98622D02*
X109252Y96457D01*
X116634D01*
X88090D02*
X95472D01*
X97638Y98622D01*
X172244Y177165D02*
Y182087D01*
Y187008D01*
X172637Y177165D02*
X172795Y177323D01*
X179606D01*
Y170158D02*
Y177323D01*
X172047Y162598D02*
X179606Y170158D01*
X140157Y162598D02*
X172047D01*
X116634Y135827D02*
X116634Y135827D01*
X117914Y179134D02*
Y185040D01*
X115552Y187402D02*
X117914Y185040D01*
X112954Y187402D02*
X115552D01*
X1185039Y-161420D02*
Y-169291D01*
X1188975D01*
X1190287Y-167979D01*
Y-162732D01*
X1188975Y-161420D01*
X1185039D01*
X1194223Y-169291D02*
X1196847D01*
X1198158Y-167979D01*
Y-165356D01*
X1196847Y-164044D01*
X1194223D01*
X1192911Y-165356D01*
Y-167979D01*
X1194223Y-169291D01*
X1206030Y-164044D02*
X1202094D01*
X1200782Y-165356D01*
Y-167979D01*
X1202094Y-169291D01*
X1206030D01*
X1208654Y-164044D02*
Y-167979D01*
X1209966Y-169291D01*
X1213902D01*
Y-164044D01*
X1216525Y-169291D02*
Y-164044D01*
X1217837D01*
X1219149Y-165356D01*
Y-169291D01*
Y-165356D01*
X1220461Y-164044D01*
X1221773Y-165356D01*
Y-169291D01*
X1228333D02*
X1225709D01*
X1224397Y-167979D01*
Y-165356D01*
X1225709Y-164044D01*
X1228333D01*
X1229644Y-165356D01*
Y-166667D01*
X1224397D01*
X1232268Y-169291D02*
Y-164044D01*
X1236204D01*
X1237516Y-165356D01*
Y-169291D01*
X1241452Y-162732D02*
Y-164044D01*
X1240140D01*
X1242764D01*
X1241452D01*
Y-167979D01*
X1242764Y-169291D01*
X1185039Y-122050D02*
Y-129921D01*
X1188975D01*
X1190287Y-128609D01*
Y-123362D01*
X1188975Y-122050D01*
X1185039D01*
X1194223Y-124674D02*
X1196847D01*
X1198158Y-125986D01*
Y-129921D01*
X1194223D01*
X1192911Y-128609D01*
X1194223Y-127297D01*
X1198158D01*
X1202094Y-123362D02*
Y-124674D01*
X1200782D01*
X1203406D01*
X1202094D01*
Y-128609D01*
X1203406Y-129921D01*
X1211278D02*
X1208654D01*
X1207342Y-128609D01*
Y-125986D01*
X1208654Y-124674D01*
X1211278D01*
X1212589Y-125986D01*
Y-127297D01*
X1207342D01*
X1185039Y-82680D02*
Y-90551D01*
X1190287D01*
X1194223Y-85303D02*
X1196847D01*
X1198158Y-86615D01*
Y-90551D01*
X1194223D01*
X1192911Y-89239D01*
X1194223Y-87927D01*
X1198158D01*
X1200782Y-85303D02*
Y-89239D01*
X1202094Y-90551D01*
X1206030D01*
Y-91863D01*
X1204718Y-93175D01*
X1203406D01*
X1206030Y-90551D02*
Y-85303D01*
X1212590Y-90551D02*
X1209966D01*
X1208654Y-89239D01*
Y-86615D01*
X1209966Y-85303D01*
X1212590D01*
X1213902Y-86615D01*
Y-87927D01*
X1208654D01*
X1216525Y-85303D02*
Y-90551D01*
Y-87927D01*
X1217837Y-86615D01*
X1219149Y-85303D01*
X1220461D01*
X1232268Y-90551D02*
Y-82680D01*
X1237516Y-90551D01*
Y-82680D01*
X1241452Y-85303D02*
X1244075D01*
X1245387Y-86615D01*
Y-90551D01*
X1241452D01*
X1240140Y-89239D01*
X1241452Y-87927D01*
X1245387D01*
X1248011Y-90551D02*
Y-85303D01*
X1249323D01*
X1250635Y-86615D01*
Y-90551D01*
Y-86615D01*
X1251947Y-85303D01*
X1253259Y-86615D01*
Y-90551D01*
X1259818D02*
X1257195D01*
X1255883Y-89239D01*
Y-86615D01*
X1257195Y-85303D01*
X1259818D01*
X1261130Y-86615D01*
Y-87927D01*
X1255883D01*
X1185039Y-43310D02*
Y-51181D01*
X1188975D01*
X1190287Y-49869D01*
Y-44622D01*
X1188975Y-43310D01*
X1185039D01*
X1194223Y-51181D02*
X1196847D01*
X1198158Y-49869D01*
Y-47245D01*
X1196847Y-45933D01*
X1194223D01*
X1192911Y-47245D01*
Y-49869D01*
X1194223Y-51181D01*
X1206030Y-45933D02*
X1202094D01*
X1200782Y-47245D01*
Y-49869D01*
X1202094Y-51181D01*
X1206030D01*
X1208654Y-45933D02*
Y-49869D01*
X1209966Y-51181D01*
X1213902D01*
Y-45933D01*
X1216525Y-51181D02*
Y-45933D01*
X1217837D01*
X1219149Y-47245D01*
Y-51181D01*
Y-47245D01*
X1220461Y-45933D01*
X1221773Y-47245D01*
Y-51181D01*
X1228333D02*
X1225709D01*
X1224397Y-49869D01*
Y-47245D01*
X1225709Y-45933D01*
X1228333D01*
X1229644Y-47245D01*
Y-48557D01*
X1224397D01*
X1232268Y-51181D02*
Y-45933D01*
X1236204D01*
X1237516Y-47245D01*
Y-51181D01*
X1241452Y-44622D02*
Y-45933D01*
X1240140D01*
X1242764D01*
X1241452D01*
Y-49869D01*
X1242764Y-51181D01*
X988189Y-161420D02*
Y-169291D01*
X992125D01*
X993437Y-167979D01*
Y-162732D01*
X992125Y-161420D01*
X988189D01*
X999996Y-169291D02*
X997372D01*
X996060Y-167979D01*
Y-165356D01*
X997372Y-164044D01*
X999996D01*
X1001308Y-165356D01*
Y-166667D01*
X996060D01*
X1003932Y-169291D02*
X1007868D01*
X1009180Y-167979D01*
X1007868Y-166667D01*
X1005244D01*
X1003932Y-165356D01*
X1005244Y-164044D01*
X1009180D01*
X1014427Y-171915D02*
X1015739D01*
X1017051Y-170603D01*
Y-164044D01*
X1013115D01*
X1011803Y-165356D01*
Y-167979D01*
X1013115Y-169291D01*
X1017051D01*
X1019675D02*
X1022299D01*
X1020987D01*
Y-164044D01*
X1019675D01*
X1026235Y-169291D02*
Y-164044D01*
X1030170D01*
X1031482Y-165356D01*
Y-169291D01*
X1038042D02*
X1035418D01*
X1034106Y-167979D01*
Y-165356D01*
X1035418Y-164044D01*
X1038042D01*
X1039354Y-165356D01*
Y-166667D01*
X1034106D01*
X1041977Y-164044D02*
Y-169291D01*
Y-166667D01*
X1043289Y-165356D01*
X1044601Y-164044D01*
X1045913D01*
X1342520Y-129921D02*
Y-122050D01*
X1346455D01*
X1347767Y-123362D01*
Y-125986D01*
X1346455Y-127297D01*
X1342520D01*
X1345144D02*
X1347767Y-129921D01*
X1354327D02*
X1351703D01*
X1350391Y-128609D01*
Y-125986D01*
X1351703Y-124674D01*
X1354327D01*
X1355639Y-125986D01*
Y-127297D01*
X1350391D01*
X1358263Y-124674D02*
X1360886Y-129921D01*
X1363510Y-124674D01*
D37*
X123031Y133858D02*
X123031Y133858D01*
X116634Y133858D02*
X123031D01*
X116634Y137795D02*
X121653D01*
X116634Y135827D02*
X123228D01*
X123622Y139764D02*
Y146850D01*
X121653Y137795D02*
X123622Y139764D01*
X123228Y135827D02*
X125984Y138583D01*
D38*
X166339Y170591D02*
X169606Y167323D01*
X166339Y170591D02*
Y177165D01*
X152954Y193503D02*
Y201693D01*
Y193503D02*
X153543Y192913D01*
X160138Y178347D02*
X160335Y178150D01*
D39*
X220472Y100394D02*
D03*
D40*
X209596Y52116D02*
D03*
D41*
X199853Y42372D02*
D03*
D42*
X232283Y41339D02*
D03*
D43*
Y49213D02*
D03*
D44*
X123622Y146850D02*
D03*
Y156850D02*
D03*
X159606Y167323D02*
D03*
X149606D02*
D03*
X179606Y187323D02*
D03*
X169606Y167323D02*
D03*
X179606Y177323D02*
D03*
D45*
X177165Y45276D02*
D03*
D46*
X13780Y13780D02*
D03*
Y206693D02*
D03*
X242126D02*
D03*
Y13780D02*
D03*
X45276Y151575D02*
D03*
D47*
X69055Y13780D02*
D03*
X155669D02*
D03*
X214724D02*
D03*
D48*
X49055D02*
D03*
X135669D02*
D03*
X194724D02*
D03*
D49*
X102954Y201693D02*
D03*
X102954Y211693D02*
D03*
X82954D02*
D03*
Y201693D02*
D03*
X92954Y211693D02*
D03*
X92954Y201693D02*
D03*
X62954Y211693D02*
D03*
Y201693D02*
D03*
X72954Y211693D02*
D03*
X72953Y201693D02*
D03*
X52953D02*
D03*
X52953Y211693D02*
D03*
X42954Y201693D02*
D03*
Y211693D02*
D03*
X32954Y201693D02*
D03*
X112954Y211693D02*
D03*
Y201693D02*
D03*
X132954D02*
D03*
X132954Y211693D02*
D03*
X122954Y201693D02*
D03*
Y211693D02*
D03*
X142954Y201693D02*
D03*
Y211693D02*
D03*
X212954D02*
D03*
Y201693D02*
D03*
X222954Y211693D02*
D03*
X222954Y201693D02*
D03*
X202954Y201693D02*
D03*
X202954Y211693D02*
D03*
X162954Y201693D02*
D03*
X162954Y211693D02*
D03*
X152954Y201693D02*
D03*
Y211693D02*
D03*
X182954Y201693D02*
D03*
X182954Y211693D02*
D03*
X172954Y201693D02*
D03*
Y211693D02*
D03*
X192954D02*
D03*
X192954Y201693D02*
D03*
X40000Y190000D02*
D03*
X50000D02*
D03*
X60000D02*
D03*
X6693Y39213D02*
D03*
X10000Y170000D02*
D03*
Y160000D02*
D03*
Y150000D02*
D03*
D50*
X32954Y211693D02*
D03*
X70000Y190000D02*
D03*
D51*
X6693Y49213D02*
D03*
X10000Y180000D02*
D03*
D52*
X250000Y168897D02*
D03*
X241536Y187008D02*
D03*
X203937Y172835D02*
D03*
X207874D02*
D03*
X209035Y116142D02*
D03*
X206693Y97441D02*
D03*
Y103347D02*
D03*
X232283Y97441D02*
D03*
Y103347D02*
D03*
X226378Y97441D02*
D03*
Y103347D02*
D03*
X165748Y102756D02*
D03*
X161811D02*
D03*
X157874D02*
D03*
X153937D02*
D03*
X232283Y64764D02*
D03*
X236221D02*
D03*
X212599Y67519D02*
D03*
X218504D02*
D03*
X224409Y67520D02*
D03*
X195669Y143111D02*
D03*
X210630Y150984D02*
D03*
X240158Y156496D02*
D03*
X244094D02*
D03*
X220472D02*
D03*
X224409D02*
D03*
X183071Y123228D02*
D03*
X179134D02*
D03*
X173228D02*
D03*
X169291D02*
D03*
X165945Y80905D02*
D03*
X169882D02*
D03*
X156102D02*
D03*
X160039D02*
D03*
X148425Y89370D02*
D03*
X65552Y131496D02*
D03*
Y138189D02*
D03*
X58268Y98425D02*
D03*
X67716D02*
D03*
X102362Y26181D02*
D03*
X96063D02*
D03*
X108661D02*
D03*
X114961D02*
D03*
X89764D02*
D03*
Y21063D02*
D03*
X114961D02*
D03*
X108661D02*
D03*
X96063D02*
D03*
X102362D02*
D03*
Y41536D02*
D03*
X96063D02*
D03*
X108661D02*
D03*
X114961D02*
D03*
X89764D02*
D03*
Y36417D02*
D03*
X114961D02*
D03*
X108661D02*
D03*
X96063D02*
D03*
X102362D02*
D03*
X89764Y31299D02*
D03*
X114961D02*
D03*
X108661D02*
D03*
X96063D02*
D03*
X102362D02*
D03*
Y46654D02*
D03*
X96063D02*
D03*
X108661D02*
D03*
X114961D02*
D03*
X89764D02*
D03*
X102362Y51772D02*
D03*
X96063D02*
D03*
X108661D02*
D03*
X114961D02*
D03*
X89764D02*
D03*
X90551Y62008D02*
D03*
X91339Y67126D02*
D03*
X113386D02*
D03*
X114173Y62008D02*
D03*
X102362D02*
D03*
X96457D02*
D03*
X108268D02*
D03*
X102362Y67126D02*
D03*
X96850D02*
D03*
X107874D02*
D03*
X94488Y87599D02*
D03*
X110236D02*
D03*
X106299D02*
D03*
X98425D02*
D03*
X102362D02*
D03*
Y82480D02*
D03*
X98032D02*
D03*
X106693D02*
D03*
X111024D02*
D03*
X93701D02*
D03*
X92913Y77362D02*
D03*
X111811D02*
D03*
X107087D02*
D03*
X97638D02*
D03*
X102362D02*
D03*
X89764Y56890D02*
D03*
X114961D02*
D03*
X108661D02*
D03*
X96063D02*
D03*
X102362D02*
D03*
X107480Y72244D02*
D03*
X97244D02*
D03*
X92126D02*
D03*
X112598D02*
D03*
X102362D02*
D03*
X136944Y149543D02*
D03*
X127953Y207480D02*
D03*
X88189Y194882D02*
D03*
X198031Y206299D02*
D03*
X81890Y147244D02*
D03*
X83465Y173425D02*
D03*
X87008Y158071D02*
D03*
X117717D02*
D03*
X102362D02*
D03*
X92126D02*
D03*
X112598D02*
D03*
X107480D02*
D03*
X97244D02*
D03*
X121260Y173425D02*
D03*
X115354Y147835D02*
D03*
X116535Y152953D02*
D03*
X88189D02*
D03*
X89370Y147835D02*
D03*
X90551Y142717D02*
D03*
X114173D02*
D03*
X140945Y95669D02*
D03*
X135039Y117717D02*
D03*
X112954Y187402D02*
D03*
X134843Y139370D02*
D03*
X172244Y182087D02*
D03*
X165354D02*
D03*
X102362Y92717D02*
D03*
X105905D02*
D03*
X98819D02*
D03*
X95276D02*
D03*
X109449D02*
D03*
X102362Y173425D02*
D03*
X108661D02*
D03*
X96063D02*
D03*
X89764D02*
D03*
X114961D02*
D03*
X102362Y152953D02*
D03*
X107087D02*
D03*
X97638D02*
D03*
X92913D02*
D03*
X111811D02*
D03*
X111024Y147835D02*
D03*
X93701D02*
D03*
X98032D02*
D03*
X106693D02*
D03*
X102362D02*
D03*
Y142717D02*
D03*
X106299D02*
D03*
X98425D02*
D03*
X94488D02*
D03*
X110236D02*
D03*
X109449Y137598D02*
D03*
X95276D02*
D03*
X98819D02*
D03*
X105905D02*
D03*
X102362D02*
D03*
X65945Y119291D02*
D03*
X42323Y86614D02*
D03*
X38386D02*
D03*
X52165D02*
D03*
X48228D02*
D03*
X42323Y108071D02*
D03*
X38386D02*
D03*
X50197D02*
D03*
X46260D02*
D03*
X57874Y197638D02*
D03*
X40354Y129921D02*
D03*
X36417D02*
D03*
X50197D02*
D03*
X46260D02*
D03*
X14173Y72441D02*
D03*
X107087Y98622D02*
D03*
X102362D02*
D03*
X107087Y103347D02*
D03*
X102362D02*
D03*
X107087Y117520D02*
D03*
X102362D02*
D03*
X97638D02*
D03*
X107087Y122244D02*
D03*
X102362D02*
D03*
X97638D02*
D03*
X107087Y126969D02*
D03*
X102362D02*
D03*
X97638D02*
D03*
X107087Y131693D02*
D03*
X102362D02*
D03*
X97638D02*
D03*
Y98622D02*
D03*
Y103347D02*
D03*
X96850Y163189D02*
D03*
X107874D02*
D03*
X102362D02*
D03*
X96457Y168307D02*
D03*
X108268D02*
D03*
X102362D02*
D03*
X90551D02*
D03*
X91339Y163189D02*
D03*
X84646Y168307D02*
D03*
X85827Y163189D02*
D03*
X118898D02*
D03*
X120079Y168307D02*
D03*
X113386Y163189D02*
D03*
X114173Y168307D02*
D03*
X124213Y29528D02*
D03*
Y42126D02*
D03*
X166339Y28740D02*
D03*
Y40945D02*
D03*
X79724Y42126D02*
D03*
Y29528D02*
D03*
X38386Y28740D02*
D03*
Y40945D02*
D03*
X142913Y151969D02*
D03*
X125984Y138583D02*
D03*
X149606Y129921D02*
D03*
X210630Y133268D02*
D03*
X196457Y124803D02*
D03*
X153150Y134252D02*
D03*
X17323Y62598D02*
D03*
X82954Y184055D02*
D03*
X25591Y153543D02*
D03*
M02*
