G04 Layer_Color=2752767*
%FSLAX25Y25*%
%MOIN*%
G70*
G01*
G75*
%ADD34C,0.00787*%
%ADD35C,0.01575*%
%ADD36C,0.00984*%
%ADD38C,0.01000*%
%ADD85C,0.00600*%
%ADD86C,0.00200*%
%ADD87C,0.00267*%
G36*
X1121080Y-83717D02*
Y-84003D01*
Y-84290D01*
Y-84576D01*
Y-84862D01*
Y-85149D01*
Y-85435D01*
Y-85721D01*
Y-86007D01*
Y-86294D01*
Y-86580D01*
Y-86866D01*
Y-87153D01*
Y-87439D01*
Y-87725D01*
Y-88012D01*
Y-88298D01*
Y-88584D01*
Y-88871D01*
Y-89157D01*
Y-89443D01*
X1120793D01*
Y-89730D01*
Y-90016D01*
Y-90302D01*
Y-90588D01*
Y-90875D01*
X1120507D01*
Y-91161D01*
Y-91448D01*
Y-91734D01*
Y-92020D01*
X1120221D01*
Y-92306D01*
Y-92593D01*
Y-92879D01*
Y-93165D01*
X1119934D01*
Y-93452D01*
Y-93738D01*
Y-94024D01*
X1119648D01*
Y-94311D01*
Y-94597D01*
Y-94883D01*
X1119362D01*
Y-95170D01*
Y-95456D01*
Y-95742D01*
X1119075D01*
Y-96029D01*
Y-96315D01*
Y-96601D01*
X1118789D01*
Y-96887D01*
Y-97174D01*
X1118503D01*
Y-97460D01*
Y-97746D01*
X1118217D01*
Y-98033D01*
Y-98319D01*
Y-98605D01*
X1117930D01*
Y-98892D01*
Y-99178D01*
X1117644D01*
Y-99464D01*
Y-99751D01*
Y-100037D01*
X1117358D01*
Y-100323D01*
Y-100610D01*
X1117071D01*
Y-100896D01*
Y-101182D01*
Y-101468D01*
X1116785D01*
Y-101755D01*
Y-102041D01*
X1116499D01*
Y-102327D01*
Y-102614D01*
Y-102900D01*
X1116212D01*
Y-103186D01*
Y-103473D01*
X1115926D01*
Y-103759D01*
Y-104045D01*
Y-104332D01*
X1115640D01*
Y-104618D01*
Y-104904D01*
X1115353D01*
Y-105191D01*
Y-105477D01*
Y-105763D01*
X1115067D01*
Y-106049D01*
Y-106336D01*
X1114781D01*
Y-106622D01*
Y-106908D01*
Y-107195D01*
X1114494D01*
Y-107481D01*
Y-107767D01*
X1114208D01*
Y-108054D01*
Y-108340D01*
Y-108626D01*
X1113922D01*
Y-108913D01*
Y-109199D01*
X1113636D01*
Y-109485D01*
Y-109772D01*
Y-110058D01*
X1113349D01*
Y-110344D01*
Y-110630D01*
X1113063D01*
Y-110917D01*
Y-111203D01*
Y-111489D01*
X1112776D01*
Y-111776D01*
Y-112062D01*
X1112490D01*
Y-112348D01*
Y-112635D01*
Y-112921D01*
X1112204D01*
Y-113207D01*
Y-113494D01*
X1111918D01*
Y-113780D01*
Y-114066D01*
Y-114353D01*
X1111631D01*
Y-114639D01*
Y-114925D01*
X1111345D01*
Y-115211D01*
Y-115498D01*
Y-115784D01*
X1111059D01*
Y-116070D01*
Y-116357D01*
X1110772D01*
Y-116643D01*
Y-116929D01*
Y-117216D01*
X1110486D01*
Y-117502D01*
Y-117788D01*
X1110200D01*
Y-118075D01*
Y-118361D01*
Y-118647D01*
X1109913D01*
Y-118933D01*
Y-119220D01*
X1109627D01*
Y-119506D01*
Y-119792D01*
Y-120079D01*
X1109341D01*
Y-120365D01*
Y-120651D01*
X1109054D01*
Y-120938D01*
Y-121224D01*
X1108768D01*
Y-121510D01*
Y-121797D01*
X1108482D01*
Y-122083D01*
Y-122369D01*
Y-122656D01*
X1108195D01*
Y-122942D01*
X1107909D01*
Y-123228D01*
Y-123514D01*
Y-123801D01*
X1107623D01*
Y-124087D01*
X1107337D01*
Y-124373D01*
Y-124660D01*
X1107050D01*
Y-124946D01*
Y-125232D01*
X1106764D01*
Y-125519D01*
Y-125805D01*
X1106478D01*
Y-126091D01*
Y-126378D01*
X1106191D01*
Y-126664D01*
X1105905D01*
Y-126950D01*
Y-127237D01*
X1105619D01*
Y-127523D01*
Y-127809D01*
X1105332D01*
Y-128095D01*
X1105046D01*
Y-128382D01*
X1104760D01*
Y-128668D01*
Y-128954D01*
X1104473D01*
Y-129241D01*
X1104187D01*
Y-129527D01*
Y-129813D01*
X1103901D01*
Y-130100D01*
X1103615D01*
Y-130386D01*
X1103328D01*
Y-130672D01*
Y-130959D01*
X1103042D01*
Y-131245D01*
X1102756D01*
Y-131531D01*
X1102469D01*
Y-131818D01*
X1102183D01*
Y-132104D01*
X1101897D01*
Y-132390D01*
Y-132676D01*
X1101610D01*
Y-132963D01*
X1101324D01*
Y-133249D01*
X1101038D01*
Y-133535D01*
X1100751D01*
Y-133822D01*
X1100465D01*
Y-134108D01*
X1100179D01*
Y-134394D01*
X1099892D01*
Y-134681D01*
X1099320D01*
Y-134967D01*
X1099034D01*
Y-135253D01*
X1098747D01*
Y-135540D01*
X1098461D01*
Y-135826D01*
X1098175D01*
Y-136112D01*
X1097602D01*
Y-136399D01*
X1097316D01*
Y-136685D01*
X1096743D01*
Y-136971D01*
X1096457D01*
Y-137258D01*
X1095884D01*
Y-137544D01*
X1095598D01*
Y-137830D01*
X1095025D01*
Y-138117D01*
X1094452D01*
Y-138403D01*
X1093880D01*
Y-138689D01*
X1093307D01*
Y-138975D01*
X1092735D01*
Y-139262D01*
X1091876D01*
Y-139548D01*
X1091303D01*
Y-139834D01*
X1090444D01*
Y-140121D01*
X1089299D01*
Y-140407D01*
X1088154D01*
Y-140693D01*
X1086436D01*
Y-140980D01*
X1084432D01*
Y-141266D01*
X1084145D01*
Y-140980D01*
Y-140693D01*
Y-140407D01*
Y-140121D01*
Y-139834D01*
Y-139548D01*
Y-139262D01*
Y-138975D01*
Y-138689D01*
Y-138403D01*
Y-138117D01*
Y-137830D01*
Y-137544D01*
Y-137258D01*
Y-136971D01*
Y-136685D01*
Y-136399D01*
Y-136112D01*
Y-135826D01*
Y-135540D01*
Y-135253D01*
Y-134967D01*
Y-134681D01*
Y-134394D01*
Y-134108D01*
Y-133822D01*
Y-133535D01*
Y-133249D01*
Y-132963D01*
Y-132676D01*
Y-132390D01*
Y-132104D01*
Y-131818D01*
X1084718D01*
Y-131531D01*
X1085291D01*
Y-131245D01*
X1085863D01*
Y-130959D01*
X1086436D01*
Y-130672D01*
X1087008D01*
Y-130386D01*
X1087581D01*
Y-130100D01*
X1087867D01*
Y-129813D01*
X1088440D01*
Y-129527D01*
X1088726D01*
Y-129241D01*
X1089299D01*
Y-128954D01*
X1089585D01*
Y-128668D01*
X1089872D01*
Y-128382D01*
X1090444D01*
Y-128095D01*
X1090730D01*
Y-127809D01*
X1091017D01*
Y-127523D01*
X1091303D01*
Y-127237D01*
X1091589D01*
Y-126950D01*
X1091876D01*
Y-126664D01*
X1092162D01*
Y-126378D01*
X1092448D01*
Y-126091D01*
X1092735D01*
Y-125805D01*
X1093021D01*
Y-125519D01*
X1093307D01*
Y-125232D01*
X1093594D01*
Y-124946D01*
Y-124660D01*
X1093880D01*
Y-124373D01*
X1094166D01*
Y-124087D01*
X1094452D01*
Y-123801D01*
Y-123514D01*
X1094739D01*
Y-123228D01*
X1095025D01*
Y-122942D01*
Y-122656D01*
X1095311D01*
Y-122369D01*
Y-122083D01*
X1095598D01*
Y-121797D01*
X1095884D01*
Y-121510D01*
Y-121224D01*
X1096170D01*
Y-120938D01*
Y-120651D01*
X1096457D01*
Y-120365D01*
Y-120079D01*
X1094739D01*
Y-119792D01*
X1092735D01*
Y-119506D01*
X1091589D01*
Y-119220D01*
X1091017D01*
Y-118933D01*
X1090158D01*
Y-118647D01*
X1089585D01*
Y-118361D01*
X1089299D01*
Y-118075D01*
X1088726D01*
Y-117788D01*
X1088440D01*
Y-117502D01*
X1088154D01*
Y-117216D01*
X1087867D01*
Y-116929D01*
X1087581D01*
Y-116643D01*
X1087295D01*
Y-116357D01*
Y-116070D01*
X1087008D01*
Y-115784D01*
X1086722D01*
Y-115498D01*
Y-115211D01*
X1086436D01*
Y-114925D01*
Y-114639D01*
X1086149D01*
Y-114353D01*
Y-114066D01*
X1085863D01*
Y-113780D01*
Y-113494D01*
Y-113207D01*
X1085577D01*
Y-112921D01*
Y-112635D01*
Y-112348D01*
Y-112062D01*
X1085291D01*
Y-111776D01*
Y-111489D01*
Y-111203D01*
Y-110917D01*
Y-110630D01*
Y-110344D01*
Y-110058D01*
X1085004D01*
Y-109772D01*
Y-109485D01*
Y-109199D01*
Y-108913D01*
Y-108626D01*
Y-108340D01*
Y-108054D01*
Y-107767D01*
Y-107481D01*
Y-107195D01*
Y-106908D01*
Y-106622D01*
Y-106336D01*
Y-106049D01*
Y-105763D01*
X1084718D01*
Y-105477D01*
Y-105191D01*
Y-104904D01*
Y-104618D01*
Y-104332D01*
Y-104045D01*
Y-103759D01*
Y-103473D01*
Y-103186D01*
Y-102900D01*
Y-102614D01*
Y-102327D01*
Y-102041D01*
Y-101755D01*
Y-101468D01*
X1084432D01*
Y-101182D01*
Y-100896D01*
Y-100610D01*
Y-100323D01*
Y-100037D01*
Y-99751D01*
Y-99464D01*
Y-99178D01*
Y-98892D01*
Y-98605D01*
Y-98319D01*
Y-98033D01*
Y-97746D01*
Y-97460D01*
Y-97174D01*
Y-96887D01*
X1084145D01*
Y-96601D01*
Y-96315D01*
Y-96029D01*
Y-95742D01*
Y-95456D01*
Y-95170D01*
Y-94883D01*
Y-94597D01*
Y-94311D01*
Y-94024D01*
Y-93738D01*
Y-93452D01*
Y-93165D01*
Y-92879D01*
Y-92593D01*
Y-92306D01*
X1083859D01*
Y-92020D01*
Y-91734D01*
Y-91448D01*
Y-91161D01*
Y-90875D01*
Y-90588D01*
Y-90302D01*
Y-90016D01*
Y-89730D01*
Y-89443D01*
Y-89157D01*
Y-88871D01*
Y-88584D01*
Y-88298D01*
X1083573D01*
Y-88012D01*
Y-87725D01*
Y-87439D01*
Y-87153D01*
Y-86866D01*
Y-86580D01*
Y-86294D01*
Y-86007D01*
Y-85721D01*
Y-85435D01*
Y-85149D01*
Y-84862D01*
Y-84576D01*
Y-84290D01*
Y-84003D01*
Y-83717D01*
X1083286D01*
Y-83431D01*
X1097029D01*
Y-83717D01*
Y-84003D01*
Y-84290D01*
Y-84576D01*
Y-84862D01*
Y-85149D01*
Y-85435D01*
Y-85721D01*
Y-86007D01*
Y-86294D01*
Y-86580D01*
Y-86866D01*
Y-87153D01*
Y-87439D01*
X1097316D01*
Y-87725D01*
Y-88012D01*
Y-88298D01*
Y-88584D01*
Y-88871D01*
Y-89157D01*
Y-89443D01*
Y-89730D01*
Y-90016D01*
Y-90302D01*
Y-90588D01*
Y-90875D01*
Y-91161D01*
Y-91448D01*
Y-91734D01*
Y-92020D01*
Y-92306D01*
Y-92593D01*
Y-92879D01*
Y-93165D01*
Y-93452D01*
Y-93738D01*
Y-94024D01*
Y-94311D01*
Y-94597D01*
Y-94883D01*
Y-95170D01*
Y-95456D01*
Y-95742D01*
Y-96029D01*
Y-96315D01*
Y-96601D01*
Y-96887D01*
Y-97174D01*
Y-97460D01*
Y-97746D01*
Y-98033D01*
Y-98319D01*
Y-98605D01*
Y-98892D01*
Y-99178D01*
X1097602D01*
Y-99464D01*
X1097316D01*
Y-99751D01*
Y-100037D01*
X1097602D01*
Y-100323D01*
Y-100610D01*
Y-100896D01*
Y-101182D01*
Y-101468D01*
Y-101755D01*
Y-102041D01*
Y-102327D01*
Y-102614D01*
Y-102900D01*
Y-103186D01*
Y-103473D01*
Y-103759D01*
Y-104045D01*
Y-104332D01*
Y-104618D01*
Y-104904D01*
Y-105191D01*
Y-105477D01*
Y-105763D01*
Y-106049D01*
Y-106336D01*
Y-106622D01*
Y-106908D01*
Y-107195D01*
Y-107481D01*
X1097888D01*
Y-107767D01*
Y-108054D01*
Y-108340D01*
X1098175D01*
Y-108626D01*
X1098461D01*
Y-108913D01*
X1098747D01*
Y-109199D01*
X1099606D01*
Y-109485D01*
X1100465D01*
Y-109199D01*
X1100751D01*
Y-108913D01*
Y-108626D01*
Y-108340D01*
X1101038D01*
Y-108054D01*
Y-107767D01*
X1101324D01*
Y-107481D01*
Y-107195D01*
Y-106908D01*
X1101610D01*
Y-106622D01*
Y-106336D01*
Y-106049D01*
X1101897D01*
Y-105763D01*
Y-105477D01*
Y-105191D01*
X1102183D01*
Y-104904D01*
Y-104618D01*
Y-104332D01*
X1102469D01*
Y-104045D01*
Y-103759D01*
X1102756D01*
Y-103473D01*
Y-103186D01*
Y-102900D01*
X1103042D01*
Y-102614D01*
Y-102327D01*
Y-102041D01*
X1103328D01*
Y-101755D01*
Y-101468D01*
Y-101182D01*
X1103615D01*
Y-100896D01*
Y-100610D01*
X1103901D01*
Y-100323D01*
Y-100037D01*
Y-99751D01*
X1104187D01*
Y-99464D01*
Y-99178D01*
Y-98892D01*
X1104473D01*
Y-98605D01*
Y-98319D01*
Y-98033D01*
X1104760D01*
Y-97746D01*
Y-97460D01*
X1105046D01*
Y-97174D01*
Y-96887D01*
Y-96601D01*
X1105332D01*
Y-96315D01*
Y-96029D01*
Y-95742D01*
X1105619D01*
Y-95456D01*
Y-95170D01*
Y-94883D01*
X1105905D01*
Y-94597D01*
Y-94311D01*
X1106191D01*
Y-94024D01*
Y-93738D01*
Y-93452D01*
X1106478D01*
Y-93165D01*
Y-92879D01*
Y-92593D01*
X1106764D01*
Y-92306D01*
Y-92020D01*
Y-91734D01*
X1107050D01*
Y-91448D01*
Y-91161D01*
Y-90875D01*
Y-90588D01*
X1107337D01*
Y-90302D01*
Y-90016D01*
Y-89730D01*
Y-89443D01*
X1107623D01*
Y-89157D01*
Y-88871D01*
Y-88584D01*
Y-88298D01*
Y-88012D01*
X1107909D01*
Y-87725D01*
Y-87439D01*
Y-87153D01*
Y-86866D01*
Y-86580D01*
Y-86294D01*
X1108195D01*
Y-86007D01*
Y-85721D01*
Y-85435D01*
Y-85149D01*
Y-84862D01*
Y-84576D01*
Y-84290D01*
Y-84003D01*
Y-83717D01*
Y-83431D01*
X1121080D01*
Y-83717D01*
D02*
G37*
G36*
X1063244Y-66252D02*
Y-66538D01*
X1062958D01*
Y-66825D01*
Y-67111D01*
Y-67397D01*
Y-67684D01*
Y-67970D01*
Y-68256D01*
X1062672D01*
Y-68542D01*
Y-68829D01*
Y-69115D01*
Y-69401D01*
Y-69688D01*
Y-69974D01*
X1062385D01*
Y-70260D01*
Y-70547D01*
Y-70833D01*
Y-71119D01*
Y-71406D01*
Y-71692D01*
Y-71978D01*
X1062099D01*
Y-72264D01*
Y-72551D01*
Y-72837D01*
Y-73123D01*
Y-73410D01*
Y-73696D01*
X1061813D01*
Y-73982D01*
Y-74269D01*
Y-74555D01*
Y-74841D01*
Y-75128D01*
Y-75414D01*
X1061526D01*
Y-75700D01*
Y-75987D01*
Y-76273D01*
Y-76559D01*
Y-76846D01*
Y-77132D01*
Y-77418D01*
X1061240D01*
Y-77704D01*
Y-77991D01*
Y-78277D01*
Y-78563D01*
Y-78850D01*
Y-79136D01*
X1060954D01*
Y-79422D01*
Y-79709D01*
Y-79995D01*
Y-80281D01*
Y-80568D01*
Y-80854D01*
X1060668D01*
Y-81140D01*
Y-81427D01*
Y-81713D01*
Y-81999D01*
Y-82285D01*
Y-82572D01*
X1060381D01*
Y-82858D01*
Y-83144D01*
Y-83431D01*
Y-83717D01*
Y-84003D01*
Y-84290D01*
Y-84576D01*
X1060095D01*
Y-84862D01*
Y-85149D01*
Y-85435D01*
Y-85721D01*
Y-86007D01*
Y-86294D01*
X1059809D01*
Y-86580D01*
Y-86866D01*
X1060381D01*
Y-86580D01*
X1060668D01*
Y-86294D01*
X1060954D01*
Y-86007D01*
X1061526D01*
Y-85721D01*
X1061813D01*
Y-85435D01*
X1062099D01*
Y-85149D01*
X1062672D01*
Y-84862D01*
X1063244D01*
Y-84576D01*
X1063531D01*
Y-84290D01*
X1064103D01*
Y-84003D01*
X1064962D01*
Y-83717D01*
X1065535D01*
Y-83431D01*
X1066394D01*
Y-83144D01*
X1067825D01*
Y-82858D01*
X1074124D01*
Y-83144D01*
X1075270D01*
Y-83431D01*
X1076128D01*
Y-83717D01*
X1076701D01*
Y-84003D01*
X1076987D01*
Y-84290D01*
X1077560D01*
Y-84576D01*
X1077846D01*
Y-84862D01*
X1078133D01*
Y-85149D01*
X1078419D01*
Y-85435D01*
X1078705D01*
Y-85721D01*
Y-86007D01*
X1078992D01*
Y-86294D01*
Y-86580D01*
X1079278D01*
Y-86866D01*
Y-87153D01*
Y-87439D01*
X1079564D01*
Y-87725D01*
Y-88012D01*
Y-88298D01*
Y-88584D01*
X1079850D01*
Y-88871D01*
Y-89157D01*
Y-89443D01*
Y-89730D01*
Y-90016D01*
Y-90302D01*
Y-90588D01*
Y-90875D01*
Y-91161D01*
Y-91448D01*
Y-91734D01*
Y-92020D01*
Y-92306D01*
Y-92593D01*
Y-92879D01*
Y-93165D01*
Y-93452D01*
Y-93738D01*
X1079564D01*
Y-94024D01*
Y-94311D01*
Y-94597D01*
Y-94883D01*
Y-95170D01*
Y-95456D01*
Y-95742D01*
X1079278D01*
Y-96029D01*
Y-96315D01*
Y-96601D01*
Y-96887D01*
Y-97174D01*
Y-97460D01*
Y-97746D01*
X1078992D01*
Y-98033D01*
Y-98319D01*
Y-98605D01*
Y-98892D01*
Y-99178D01*
Y-99464D01*
X1078705D01*
Y-99751D01*
Y-100037D01*
Y-100323D01*
Y-100610D01*
Y-100896D01*
Y-101182D01*
X1078419D01*
Y-101468D01*
Y-101755D01*
Y-102041D01*
Y-102327D01*
Y-102614D01*
Y-102900D01*
X1078133D01*
Y-103186D01*
Y-103473D01*
Y-103759D01*
Y-104045D01*
Y-104332D01*
Y-104618D01*
Y-104904D01*
X1077846D01*
Y-105191D01*
Y-105477D01*
Y-105763D01*
Y-106049D01*
Y-106336D01*
Y-106622D01*
X1077560D01*
Y-106908D01*
Y-107195D01*
Y-107481D01*
Y-107767D01*
Y-108054D01*
Y-108340D01*
X1077274D01*
Y-108626D01*
Y-108913D01*
Y-109199D01*
Y-109485D01*
Y-109772D01*
Y-110058D01*
Y-110344D01*
X1076987D01*
Y-110630D01*
Y-110917D01*
Y-111203D01*
Y-111489D01*
Y-111776D01*
Y-112062D01*
X1076701D01*
Y-112348D01*
Y-112635D01*
Y-112921D01*
Y-113207D01*
Y-113494D01*
Y-113780D01*
X1076415D01*
Y-114066D01*
Y-114353D01*
Y-114639D01*
Y-114925D01*
Y-115211D01*
Y-115498D01*
X1076128D01*
Y-115784D01*
Y-116070D01*
Y-116357D01*
Y-116643D01*
Y-116929D01*
Y-117216D01*
Y-117502D01*
X1075842D01*
Y-117788D01*
Y-118075D01*
Y-118361D01*
Y-118647D01*
Y-118933D01*
Y-119220D01*
X1075556D01*
Y-119506D01*
Y-119792D01*
X1062385D01*
Y-119506D01*
Y-119220D01*
X1062672D01*
Y-118933D01*
Y-118647D01*
Y-118361D01*
Y-118075D01*
Y-117788D01*
Y-117502D01*
X1062958D01*
Y-117216D01*
Y-116929D01*
Y-116643D01*
Y-116357D01*
Y-116070D01*
Y-115784D01*
Y-115498D01*
X1063244D01*
Y-115211D01*
Y-114925D01*
Y-114639D01*
Y-114353D01*
Y-114066D01*
Y-113780D01*
X1063531D01*
Y-113494D01*
Y-113207D01*
Y-112921D01*
Y-112635D01*
Y-112348D01*
Y-112062D01*
X1063817D01*
Y-111776D01*
Y-111489D01*
Y-111203D01*
Y-110917D01*
Y-110630D01*
Y-110344D01*
Y-110058D01*
X1064103D01*
Y-109772D01*
Y-109485D01*
Y-109199D01*
Y-108913D01*
Y-108626D01*
Y-108340D01*
X1064390D01*
Y-108054D01*
Y-107767D01*
Y-107481D01*
Y-107195D01*
Y-106908D01*
Y-106622D01*
Y-106336D01*
X1064676D01*
Y-106049D01*
Y-105763D01*
Y-105477D01*
Y-105191D01*
Y-104904D01*
Y-104618D01*
X1064962D01*
Y-104332D01*
Y-104045D01*
Y-103759D01*
Y-103473D01*
Y-103186D01*
Y-102900D01*
X1065249D01*
Y-102614D01*
Y-102327D01*
Y-102041D01*
Y-101755D01*
Y-101468D01*
Y-101182D01*
X1065535D01*
Y-100896D01*
Y-100610D01*
Y-100323D01*
Y-100037D01*
Y-99751D01*
Y-99464D01*
Y-99178D01*
X1065821D01*
Y-98892D01*
Y-98605D01*
Y-98319D01*
Y-98033D01*
Y-97746D01*
Y-97460D01*
X1066107D01*
Y-97174D01*
Y-96887D01*
Y-96601D01*
Y-96315D01*
Y-96029D01*
Y-95742D01*
Y-95456D01*
X1066394D01*
Y-95170D01*
Y-94883D01*
Y-94597D01*
Y-94311D01*
Y-94024D01*
Y-93738D01*
X1066107D01*
Y-93452D01*
Y-93165D01*
X1065821D01*
Y-92879D01*
X1065535D01*
Y-92593D01*
X1064962D01*
Y-92306D01*
X1063244D01*
Y-92593D01*
X1061813D01*
Y-92879D01*
X1060954D01*
Y-93165D01*
X1060381D01*
Y-93452D01*
X1060095D01*
Y-93738D01*
X1059522D01*
Y-94024D01*
X1059236D01*
Y-94311D01*
X1058950D01*
Y-94597D01*
Y-94883D01*
X1058663D01*
Y-95170D01*
Y-95456D01*
Y-95742D01*
X1058377D01*
Y-96029D01*
Y-96315D01*
Y-96601D01*
Y-96887D01*
Y-97174D01*
Y-97460D01*
X1058091D01*
Y-97746D01*
Y-98033D01*
Y-98319D01*
Y-98605D01*
Y-98892D01*
Y-99178D01*
Y-99464D01*
X1057804D01*
Y-99751D01*
Y-100037D01*
Y-100323D01*
Y-100610D01*
Y-100896D01*
Y-101182D01*
X1057518D01*
Y-101468D01*
Y-101755D01*
Y-102041D01*
Y-102327D01*
Y-102614D01*
Y-102900D01*
X1057232D01*
Y-103186D01*
Y-103473D01*
Y-103759D01*
Y-104045D01*
Y-104332D01*
Y-104618D01*
X1056946D01*
Y-104904D01*
Y-105191D01*
Y-105477D01*
Y-105763D01*
Y-106049D01*
Y-106336D01*
Y-106622D01*
X1056659D01*
Y-106908D01*
Y-107195D01*
Y-107481D01*
Y-107767D01*
Y-108054D01*
Y-108340D01*
X1056373D01*
Y-108626D01*
Y-108913D01*
Y-109199D01*
Y-109485D01*
Y-109772D01*
Y-110058D01*
X1056087D01*
Y-110344D01*
Y-110630D01*
Y-110917D01*
Y-111203D01*
Y-111489D01*
Y-111776D01*
Y-112062D01*
X1055800D01*
Y-112348D01*
Y-112635D01*
Y-112921D01*
Y-113207D01*
Y-113494D01*
Y-113780D01*
X1055514D01*
Y-114066D01*
Y-114353D01*
Y-114639D01*
Y-114925D01*
Y-115211D01*
Y-115498D01*
X1055228D01*
Y-115784D01*
Y-116070D01*
Y-116357D01*
Y-116643D01*
Y-116929D01*
Y-117216D01*
X1054941D01*
Y-117502D01*
Y-117788D01*
Y-118075D01*
Y-118361D01*
Y-118647D01*
Y-118933D01*
Y-119220D01*
X1054655D01*
Y-119506D01*
Y-119792D01*
X1041485D01*
Y-119506D01*
Y-119220D01*
X1041771D01*
Y-118933D01*
Y-118647D01*
Y-118361D01*
Y-118075D01*
Y-117788D01*
Y-117502D01*
Y-117216D01*
X1042057D01*
Y-116929D01*
Y-116643D01*
Y-116357D01*
Y-116070D01*
Y-115784D01*
Y-115498D01*
X1042344D01*
Y-115211D01*
Y-114925D01*
Y-114639D01*
Y-114353D01*
Y-114066D01*
Y-113780D01*
X1042630D01*
Y-113494D01*
Y-113207D01*
Y-112921D01*
Y-112635D01*
Y-112348D01*
Y-112062D01*
Y-111776D01*
X1042916D01*
Y-111489D01*
Y-111203D01*
Y-110917D01*
Y-110630D01*
Y-110344D01*
Y-110058D01*
X1043202D01*
Y-109772D01*
Y-109485D01*
Y-109199D01*
Y-108913D01*
Y-108626D01*
Y-108340D01*
X1043489D01*
Y-108054D01*
Y-107767D01*
Y-107481D01*
Y-107195D01*
Y-106908D01*
Y-106622D01*
X1043775D01*
Y-106336D01*
Y-106049D01*
Y-105763D01*
Y-105477D01*
Y-105191D01*
Y-104904D01*
Y-104618D01*
X1044061D01*
Y-104332D01*
Y-104045D01*
Y-103759D01*
Y-103473D01*
Y-103186D01*
Y-102900D01*
X1044348D01*
Y-102614D01*
Y-102327D01*
Y-102041D01*
Y-101755D01*
Y-101468D01*
Y-101182D01*
X1044634D01*
Y-100896D01*
Y-100610D01*
Y-100323D01*
Y-100037D01*
Y-99751D01*
Y-99464D01*
Y-99178D01*
X1044920D01*
Y-98892D01*
Y-98605D01*
Y-98319D01*
Y-98033D01*
Y-97746D01*
Y-97460D01*
X1045207D01*
Y-97174D01*
Y-96887D01*
Y-96601D01*
Y-96315D01*
Y-96029D01*
Y-95742D01*
X1045493D01*
Y-95456D01*
Y-95170D01*
Y-94883D01*
Y-94597D01*
Y-94311D01*
Y-94024D01*
X1045779D01*
Y-93738D01*
Y-93452D01*
Y-93165D01*
Y-92879D01*
Y-92593D01*
Y-92306D01*
Y-92020D01*
X1046066D01*
Y-91734D01*
Y-91448D01*
Y-91161D01*
Y-90875D01*
Y-90588D01*
Y-90302D01*
X1046352D01*
Y-90016D01*
Y-89730D01*
Y-89443D01*
Y-89157D01*
Y-88871D01*
Y-88584D01*
X1046638D01*
Y-88298D01*
Y-88012D01*
Y-87725D01*
Y-87439D01*
Y-87153D01*
Y-86866D01*
X1046925D01*
Y-86580D01*
Y-86294D01*
Y-86007D01*
Y-85721D01*
Y-85435D01*
Y-85149D01*
Y-84862D01*
X1047211D01*
Y-84576D01*
Y-84290D01*
Y-84003D01*
Y-83717D01*
Y-83431D01*
Y-83144D01*
X1047497D01*
Y-82858D01*
Y-82572D01*
Y-82285D01*
Y-81999D01*
Y-81713D01*
Y-81427D01*
X1047783D01*
Y-81140D01*
Y-80854D01*
Y-80568D01*
Y-80281D01*
Y-79995D01*
Y-79709D01*
Y-79422D01*
X1048070D01*
Y-79136D01*
Y-78850D01*
Y-78563D01*
Y-78277D01*
Y-77991D01*
Y-77704D01*
X1048356D01*
Y-77418D01*
Y-77132D01*
Y-76846D01*
Y-76559D01*
Y-76273D01*
Y-75987D01*
X1048642D01*
Y-75700D01*
Y-75414D01*
Y-75128D01*
Y-74841D01*
Y-74555D01*
Y-74269D01*
X1048929D01*
Y-73982D01*
Y-73696D01*
Y-73410D01*
Y-73123D01*
Y-72837D01*
Y-72551D01*
Y-72264D01*
X1049215D01*
Y-71978D01*
Y-71692D01*
Y-71406D01*
Y-71119D01*
Y-70833D01*
Y-70547D01*
X1049501D01*
Y-70260D01*
Y-69974D01*
Y-69688D01*
Y-69401D01*
Y-69115D01*
Y-68829D01*
X1049788D01*
Y-68542D01*
Y-68256D01*
Y-67970D01*
Y-67684D01*
Y-67397D01*
Y-67111D01*
Y-66825D01*
X1050074D01*
Y-66538D01*
Y-66252D01*
Y-65966D01*
X1063244D01*
Y-66252D01*
D02*
G37*
G36*
X1032036Y-69688D02*
X1033754D01*
Y-69974D01*
X1034613D01*
Y-70260D01*
X1035472D01*
Y-70547D01*
X1036331D01*
Y-70833D01*
X1036904D01*
Y-71119D01*
X1037190D01*
Y-71406D01*
X1037763D01*
Y-71692D01*
X1038049D01*
Y-71978D01*
X1038622D01*
Y-72264D01*
X1038908D01*
Y-72551D01*
X1039194D01*
Y-72837D01*
X1039480D01*
Y-73123D01*
X1039767D01*
Y-73410D01*
X1040053D01*
Y-73696D01*
X1040339D01*
Y-73982D01*
Y-74269D01*
X1040626D01*
Y-74555D01*
X1040912D01*
Y-74841D01*
Y-75128D01*
X1041198D01*
Y-75414D01*
X1041485D01*
Y-75700D01*
Y-75987D01*
X1041771D01*
Y-76273D01*
Y-76559D01*
Y-76846D01*
X1042057D01*
Y-77132D01*
Y-77418D01*
Y-77704D01*
X1042344D01*
Y-77991D01*
Y-78277D01*
Y-78563D01*
Y-78850D01*
X1042630D01*
Y-79136D01*
Y-79422D01*
Y-79709D01*
Y-79995D01*
Y-80281D01*
X1042916D01*
Y-80568D01*
Y-80854D01*
Y-81140D01*
Y-81427D01*
Y-81713D01*
Y-81999D01*
Y-82285D01*
Y-82572D01*
Y-82858D01*
Y-83144D01*
Y-83431D01*
Y-83717D01*
Y-84003D01*
Y-84290D01*
Y-84576D01*
Y-84862D01*
Y-85149D01*
Y-85435D01*
Y-85721D01*
Y-86007D01*
X1042630D01*
Y-86294D01*
Y-86580D01*
Y-86866D01*
Y-87153D01*
Y-87439D01*
Y-87725D01*
Y-88012D01*
X1042344D01*
Y-88298D01*
Y-88584D01*
Y-88871D01*
Y-89157D01*
Y-89443D01*
X1042057D01*
Y-89730D01*
Y-90016D01*
Y-90302D01*
Y-90588D01*
Y-90875D01*
X1041771D01*
Y-91161D01*
Y-91448D01*
Y-91734D01*
X1041485D01*
Y-92020D01*
Y-92306D01*
Y-92593D01*
Y-92879D01*
X1041198D01*
Y-93165D01*
Y-93452D01*
Y-93738D01*
X1040912D01*
Y-94024D01*
Y-94311D01*
X1040626D01*
Y-94597D01*
Y-94883D01*
Y-95170D01*
X1040339D01*
Y-95456D01*
Y-95742D01*
X1040053D01*
Y-96029D01*
Y-96315D01*
X1039767D01*
Y-96601D01*
Y-96887D01*
X1039480D01*
Y-97174D01*
X1039194D01*
Y-97460D01*
Y-97746D01*
X1038908D01*
Y-98033D01*
X1038622D01*
Y-98319D01*
X1038335D01*
Y-98605D01*
Y-98892D01*
X1038049D01*
Y-99178D01*
X1037763D01*
Y-99464D01*
X1037476D01*
Y-99751D01*
X1037190D01*
Y-100037D01*
X1036904D01*
Y-100323D01*
X1036331D01*
Y-100610D01*
X1036045D01*
Y-100896D01*
X1035472D01*
Y-101182D01*
X1035186D01*
Y-101468D01*
X1034613D01*
Y-101755D01*
X1033754D01*
Y-102041D01*
X1032895D01*
Y-102327D01*
X1032036D01*
Y-102614D01*
X1030318D01*
Y-102900D01*
X1025165D01*
Y-102614D01*
X1022588D01*
Y-102327D01*
X1020584D01*
Y-102041D01*
X1019152D01*
Y-101755D01*
X1017721D01*
Y-101468D01*
X1016289D01*
Y-101755D01*
Y-102041D01*
Y-102327D01*
Y-102614D01*
Y-102900D01*
Y-103186D01*
Y-103473D01*
X1016003D01*
Y-103759D01*
Y-104045D01*
Y-104332D01*
Y-104618D01*
Y-104904D01*
Y-105191D01*
X1015716D01*
Y-105477D01*
Y-105763D01*
Y-106049D01*
Y-106336D01*
Y-106622D01*
Y-106908D01*
X1015430D01*
Y-107195D01*
Y-107481D01*
Y-107767D01*
Y-108054D01*
Y-108340D01*
Y-108626D01*
Y-108913D01*
X1015144D01*
Y-109199D01*
Y-109485D01*
Y-109772D01*
Y-110058D01*
Y-110344D01*
Y-110630D01*
X1014857D01*
Y-110917D01*
Y-111203D01*
Y-111489D01*
Y-111776D01*
Y-112062D01*
Y-112348D01*
X1014571D01*
Y-112635D01*
Y-112921D01*
Y-113207D01*
Y-113494D01*
Y-113780D01*
Y-114066D01*
Y-114353D01*
X1014285D01*
Y-114639D01*
Y-114925D01*
Y-115211D01*
Y-115498D01*
Y-115784D01*
Y-116070D01*
X1013999D01*
Y-116357D01*
Y-116643D01*
Y-116929D01*
Y-117216D01*
Y-117502D01*
Y-117788D01*
X1013712D01*
Y-118075D01*
Y-118361D01*
Y-118647D01*
Y-118933D01*
Y-119220D01*
Y-119506D01*
Y-119792D01*
X1000256D01*
Y-119506D01*
X1000542D01*
Y-119220D01*
Y-118933D01*
Y-118647D01*
Y-118361D01*
Y-118075D01*
X1000828D01*
Y-117788D01*
Y-117502D01*
Y-117216D01*
Y-116929D01*
Y-116643D01*
Y-116357D01*
Y-116070D01*
X1001114D01*
Y-115784D01*
Y-115498D01*
Y-115211D01*
Y-114925D01*
Y-114639D01*
Y-114353D01*
X1001401D01*
Y-114066D01*
Y-113780D01*
Y-113494D01*
Y-113207D01*
Y-112921D01*
Y-112635D01*
X1001687D01*
Y-112348D01*
Y-112062D01*
Y-111776D01*
Y-111489D01*
Y-111203D01*
Y-110917D01*
Y-110630D01*
X1001974D01*
Y-110344D01*
Y-110058D01*
Y-109772D01*
Y-109485D01*
Y-109199D01*
Y-108913D01*
X1002260D01*
Y-108626D01*
Y-108340D01*
Y-108054D01*
Y-107767D01*
Y-107481D01*
Y-107195D01*
X1002546D01*
Y-106908D01*
Y-106622D01*
Y-106336D01*
Y-106049D01*
Y-105763D01*
Y-105477D01*
X1002832D01*
Y-105191D01*
Y-104904D01*
Y-104618D01*
Y-104332D01*
Y-104045D01*
Y-103759D01*
Y-103473D01*
X1003119D01*
Y-103186D01*
Y-102900D01*
Y-102614D01*
Y-102327D01*
Y-102041D01*
Y-101755D01*
X1003405D01*
Y-101468D01*
Y-101182D01*
Y-100896D01*
Y-100610D01*
Y-100323D01*
Y-100037D01*
X1003691D01*
Y-99751D01*
Y-99464D01*
Y-99178D01*
Y-98892D01*
Y-98605D01*
Y-98319D01*
X1003978D01*
Y-98033D01*
Y-97746D01*
Y-97460D01*
Y-97174D01*
Y-96887D01*
Y-96601D01*
Y-96315D01*
X1004264D01*
Y-96029D01*
Y-95742D01*
Y-95456D01*
Y-95170D01*
Y-94883D01*
Y-94597D01*
X1004550D01*
Y-94311D01*
Y-94024D01*
Y-93738D01*
Y-93452D01*
Y-93165D01*
Y-92879D01*
X1004837D01*
Y-92593D01*
Y-92306D01*
Y-92020D01*
Y-91734D01*
Y-91448D01*
Y-91161D01*
Y-90875D01*
X1005123D01*
Y-90588D01*
Y-90302D01*
Y-90016D01*
Y-89730D01*
Y-89443D01*
Y-89157D01*
X1005409D01*
Y-88871D01*
Y-88584D01*
Y-88298D01*
Y-88012D01*
Y-87725D01*
Y-87439D01*
X1005696D01*
Y-87153D01*
Y-86866D01*
Y-86580D01*
Y-86294D01*
Y-86007D01*
Y-85721D01*
X1005982D01*
Y-85435D01*
Y-85149D01*
Y-84862D01*
Y-84576D01*
Y-84290D01*
Y-84003D01*
Y-83717D01*
X1006268D01*
Y-83431D01*
Y-83144D01*
Y-82858D01*
Y-82572D01*
Y-82285D01*
Y-81999D01*
X1006555D01*
Y-81713D01*
Y-81427D01*
Y-81140D01*
Y-80854D01*
Y-80568D01*
Y-80281D01*
X1006841D01*
Y-79995D01*
Y-79709D01*
Y-79422D01*
Y-79136D01*
Y-78850D01*
Y-78563D01*
Y-78277D01*
X1007127D01*
Y-77991D01*
Y-77704D01*
Y-77418D01*
Y-77132D01*
Y-76846D01*
Y-76559D01*
X1007413D01*
Y-76273D01*
Y-75987D01*
Y-75700D01*
Y-75414D01*
Y-75128D01*
Y-74841D01*
X1007700D01*
Y-74555D01*
Y-74269D01*
Y-73982D01*
Y-73696D01*
Y-73410D01*
Y-73123D01*
Y-72837D01*
X1007986D01*
Y-72551D01*
Y-72264D01*
Y-71978D01*
Y-71692D01*
Y-71406D01*
Y-71119D01*
X1008272D01*
Y-70833D01*
Y-70547D01*
Y-70260D01*
Y-69974D01*
Y-69688D01*
Y-69401D01*
X1032036D01*
Y-69688D01*
D02*
G37*
G36*
X1165172Y-83717D02*
X1164886D01*
Y-84003D01*
X1164599D01*
Y-84290D01*
Y-84576D01*
X1164313D01*
Y-84862D01*
X1164027D01*
Y-85149D01*
X1163740D01*
Y-85435D01*
Y-85721D01*
X1163454D01*
Y-86007D01*
X1163168D01*
Y-86294D01*
X1162881D01*
Y-86580D01*
X1162595D01*
Y-86866D01*
Y-87153D01*
X1162309D01*
Y-87439D01*
X1162022D01*
Y-87725D01*
X1161736D01*
Y-88012D01*
Y-88298D01*
X1161450D01*
Y-88584D01*
X1161163D01*
Y-88871D01*
X1160877D01*
Y-89157D01*
X1160591D01*
Y-89443D01*
Y-89730D01*
X1160305D01*
Y-90016D01*
X1160018D01*
Y-90302D01*
X1159732D01*
Y-90588D01*
Y-90875D01*
X1159445D01*
Y-91161D01*
X1159159D01*
Y-91448D01*
X1158873D01*
Y-91734D01*
Y-92020D01*
X1158587D01*
Y-92306D01*
X1158300D01*
Y-92593D01*
X1158014D01*
Y-92879D01*
X1157728D01*
Y-93165D01*
Y-93452D01*
X1157441D01*
Y-93738D01*
X1157155D01*
Y-94024D01*
X1156869D01*
Y-94311D01*
Y-94597D01*
X1156582D01*
Y-94883D01*
X1156296D01*
Y-95170D01*
X1156010D01*
Y-95456D01*
Y-95742D01*
X1155723D01*
Y-96029D01*
X1155437D01*
Y-96315D01*
X1155151D01*
Y-96601D01*
X1154865D01*
Y-96887D01*
Y-97174D01*
X1154578D01*
Y-97460D01*
X1154292D01*
Y-97746D01*
X1154006D01*
Y-98033D01*
Y-98319D01*
X1153719D01*
Y-98605D01*
X1153433D01*
Y-98892D01*
X1153147D01*
Y-99178D01*
Y-99464D01*
X1152860D01*
Y-99751D01*
X1152574D01*
Y-100037D01*
X1152288D01*
Y-100323D01*
X1152001D01*
Y-100610D01*
Y-100896D01*
X1151715D01*
Y-101182D01*
X1151429D01*
Y-101468D01*
X1151142D01*
Y-101755D01*
Y-102041D01*
X1150856D01*
Y-102327D01*
X1150570D01*
Y-102614D01*
X1150284D01*
Y-102900D01*
X1149997D01*
Y-103186D01*
Y-103473D01*
X1150284D01*
Y-103759D01*
Y-104045D01*
X1150570D01*
Y-104332D01*
Y-104618D01*
X1150856D01*
Y-104904D01*
X1151142D01*
Y-105191D01*
Y-105477D01*
X1151429D01*
Y-105763D01*
Y-106049D01*
X1151715D01*
Y-106336D01*
Y-106622D01*
X1152001D01*
Y-106908D01*
Y-107195D01*
X1152288D01*
Y-107481D01*
Y-107767D01*
X1152574D01*
Y-108054D01*
Y-108340D01*
X1152860D01*
Y-108626D01*
Y-108913D01*
X1153147D01*
Y-109199D01*
Y-109485D01*
X1153433D01*
Y-109772D01*
X1153719D01*
Y-110058D01*
Y-110344D01*
X1154006D01*
Y-110630D01*
Y-110917D01*
X1154292D01*
Y-111203D01*
Y-111489D01*
X1154578D01*
Y-111776D01*
Y-112062D01*
X1154865D01*
Y-112348D01*
Y-112635D01*
X1155151D01*
Y-112921D01*
Y-113207D01*
X1155437D01*
Y-113494D01*
Y-113780D01*
X1155723D01*
Y-114066D01*
X1156010D01*
Y-114353D01*
Y-114639D01*
X1156296D01*
Y-114925D01*
Y-115211D01*
X1156582D01*
Y-115498D01*
Y-115784D01*
X1156869D01*
Y-116070D01*
Y-116357D01*
X1157155D01*
Y-116643D01*
Y-116929D01*
X1157441D01*
Y-117216D01*
Y-117502D01*
X1157728D01*
Y-117788D01*
Y-118075D01*
X1158014D01*
Y-118361D01*
X1158300D01*
Y-118647D01*
Y-118933D01*
X1158587D01*
Y-119220D01*
Y-119506D01*
X1158873D01*
Y-119792D01*
X1143698D01*
Y-119506D01*
X1143412D01*
Y-119220D01*
Y-118933D01*
Y-118647D01*
X1143126D01*
Y-118361D01*
Y-118075D01*
Y-117788D01*
X1142839D01*
Y-117502D01*
Y-117216D01*
X1142553D01*
Y-116929D01*
Y-116643D01*
Y-116357D01*
X1142267D01*
Y-116070D01*
Y-115784D01*
Y-115498D01*
X1141980D01*
Y-115211D01*
Y-114925D01*
X1141694D01*
Y-114639D01*
Y-114353D01*
Y-114066D01*
X1141408D01*
Y-113780D01*
Y-113494D01*
Y-113207D01*
X1141121D01*
Y-112921D01*
Y-112635D01*
Y-112348D01*
X1140835D01*
Y-112062D01*
X1140263D01*
Y-112348D01*
Y-112635D01*
X1139976D01*
Y-112921D01*
X1139690D01*
Y-113207D01*
Y-113494D01*
X1139404D01*
Y-113780D01*
X1139117D01*
Y-114066D01*
Y-114353D01*
X1138831D01*
Y-114639D01*
X1138545D01*
Y-114925D01*
Y-115211D01*
X1138258D01*
Y-115498D01*
X1137972D01*
Y-115784D01*
X1137686D01*
Y-116070D01*
Y-116357D01*
X1137399D01*
Y-116643D01*
X1137113D01*
Y-116929D01*
Y-117216D01*
X1136827D01*
Y-117502D01*
X1136541D01*
Y-117788D01*
Y-118075D01*
X1136254D01*
Y-118361D01*
X1135968D01*
Y-118647D01*
Y-118933D01*
X1135682D01*
Y-119220D01*
X1135395D01*
Y-119506D01*
Y-119792D01*
X1119362D01*
Y-119506D01*
X1119648D01*
Y-119220D01*
X1119934D01*
Y-118933D01*
X1120221D01*
Y-118647D01*
X1120507D01*
Y-118361D01*
Y-118075D01*
X1120793D01*
Y-117788D01*
X1121080D01*
Y-117502D01*
X1121366D01*
Y-117216D01*
X1121652D01*
Y-116929D01*
Y-116643D01*
X1121939D01*
Y-116357D01*
X1122225D01*
Y-116070D01*
X1122511D01*
Y-115784D01*
Y-115498D01*
X1122797D01*
Y-115211D01*
X1123084D01*
Y-114925D01*
X1123370D01*
Y-114639D01*
X1123656D01*
Y-114353D01*
Y-114066D01*
X1123943D01*
Y-113780D01*
X1124229D01*
Y-113494D01*
X1124515D01*
Y-113207D01*
X1124802D01*
Y-112921D01*
Y-112635D01*
X1125088D01*
Y-112348D01*
X1125374D01*
Y-112062D01*
X1125661D01*
Y-111776D01*
Y-111489D01*
X1125947D01*
Y-111203D01*
X1126233D01*
Y-110917D01*
X1126519D01*
Y-110630D01*
X1126806D01*
Y-110344D01*
Y-110058D01*
X1127092D01*
Y-109772D01*
X1127378D01*
Y-109485D01*
X1127665D01*
Y-109199D01*
Y-108913D01*
X1127951D01*
Y-108626D01*
X1128237D01*
Y-108340D01*
X1128524D01*
Y-108054D01*
X1128810D01*
Y-107767D01*
Y-107481D01*
X1129096D01*
Y-107195D01*
X1129383D01*
Y-106908D01*
X1129669D01*
Y-106622D01*
Y-106336D01*
X1129955D01*
Y-106049D01*
X1130242D01*
Y-105763D01*
X1130528D01*
Y-105477D01*
X1130814D01*
Y-105191D01*
Y-104904D01*
X1131100D01*
Y-104618D01*
X1131387D01*
Y-104332D01*
X1131673D01*
Y-104045D01*
X1131960D01*
Y-103759D01*
Y-103473D01*
X1132246D01*
Y-103186D01*
X1132532D01*
Y-102900D01*
X1132818D01*
Y-102614D01*
Y-102327D01*
X1133105D01*
Y-102041D01*
X1133391D01*
Y-101755D01*
X1133677D01*
Y-101468D01*
X1133964D01*
Y-101182D01*
Y-100896D01*
X1134250D01*
Y-100610D01*
Y-100323D01*
Y-100037D01*
X1133964D01*
Y-99751D01*
X1133677D01*
Y-99464D01*
Y-99178D01*
X1133391D01*
Y-98892D01*
Y-98605D01*
X1133105D01*
Y-98319D01*
Y-98033D01*
X1132818D01*
Y-97746D01*
Y-97460D01*
X1132532D01*
Y-97174D01*
Y-96887D01*
X1132246D01*
Y-96601D01*
Y-96315D01*
X1131960D01*
Y-96029D01*
X1131673D01*
Y-95742D01*
Y-95456D01*
X1131387D01*
Y-95170D01*
Y-94883D01*
X1131100D01*
Y-94597D01*
Y-94311D01*
X1130814D01*
Y-94024D01*
Y-93738D01*
X1130528D01*
Y-93452D01*
Y-93165D01*
X1130242D01*
Y-92879D01*
Y-92593D01*
X1129955D01*
Y-92306D01*
X1129669D01*
Y-92020D01*
Y-91734D01*
X1129383D01*
Y-91448D01*
Y-91161D01*
X1129096D01*
Y-90875D01*
Y-90588D01*
X1128810D01*
Y-90302D01*
Y-90016D01*
X1128524D01*
Y-89730D01*
Y-89443D01*
X1128237D01*
Y-89157D01*
Y-88871D01*
X1127951D01*
Y-88584D01*
Y-88298D01*
X1127665D01*
Y-88012D01*
X1127378D01*
Y-87725D01*
Y-87439D01*
X1127092D01*
Y-87153D01*
Y-86866D01*
X1126806D01*
Y-86580D01*
Y-86294D01*
X1126519D01*
Y-86007D01*
Y-85721D01*
X1126233D01*
Y-85435D01*
Y-85149D01*
X1125947D01*
Y-84862D01*
Y-84576D01*
X1125661D01*
Y-84290D01*
X1125374D01*
Y-84003D01*
Y-83717D01*
X1125088D01*
Y-83431D01*
X1140835D01*
Y-83717D01*
X1141121D01*
Y-84003D01*
Y-84290D01*
Y-84576D01*
X1141408D01*
Y-84862D01*
Y-85149D01*
Y-85435D01*
X1141694D01*
Y-85721D01*
Y-86007D01*
Y-86294D01*
X1141980D01*
Y-86580D01*
Y-86866D01*
Y-87153D01*
X1142267D01*
Y-87439D01*
Y-87725D01*
Y-88012D01*
X1142553D01*
Y-88298D01*
Y-88584D01*
Y-88871D01*
X1142839D01*
Y-89157D01*
Y-89443D01*
Y-89730D01*
X1143126D01*
Y-90016D01*
Y-90302D01*
Y-90588D01*
X1143412D01*
Y-90875D01*
Y-91161D01*
Y-91448D01*
Y-91734D01*
X1143985D01*
Y-91448D01*
X1144271D01*
Y-91161D01*
X1144557D01*
Y-90875D01*
Y-90588D01*
X1144844D01*
Y-90302D01*
X1145130D01*
Y-90016D01*
Y-89730D01*
X1145416D01*
Y-89443D01*
X1145702D01*
Y-89157D01*
Y-88871D01*
X1145989D01*
Y-88584D01*
X1146275D01*
Y-88298D01*
Y-88012D01*
X1146561D01*
Y-87725D01*
X1146848D01*
Y-87439D01*
Y-87153D01*
X1147134D01*
Y-86866D01*
X1147420D01*
Y-86580D01*
Y-86294D01*
X1147707D01*
Y-86007D01*
X1147993D01*
Y-85721D01*
Y-85435D01*
X1148279D01*
Y-85149D01*
X1148566D01*
Y-84862D01*
Y-84576D01*
X1148852D01*
Y-84290D01*
X1149138D01*
Y-84003D01*
Y-83717D01*
X1149425D01*
Y-83431D01*
X1165172D01*
Y-83717D01*
D02*
G37*
%LPC*%
G36*
X1027742Y-80568D02*
X1019725D01*
Y-80854D01*
Y-81140D01*
Y-81427D01*
Y-81713D01*
Y-81999D01*
X1019438D01*
Y-82285D01*
Y-82572D01*
Y-82858D01*
Y-83144D01*
Y-83431D01*
Y-83717D01*
X1019152D01*
Y-84003D01*
Y-84290D01*
Y-84576D01*
Y-84862D01*
Y-85149D01*
Y-85435D01*
X1018866D01*
Y-85721D01*
Y-86007D01*
Y-86294D01*
Y-86580D01*
Y-86866D01*
Y-87153D01*
X1018580D01*
Y-87439D01*
Y-87725D01*
Y-88012D01*
Y-88298D01*
Y-88584D01*
Y-88871D01*
Y-89157D01*
X1018293D01*
Y-89443D01*
Y-89730D01*
Y-90016D01*
Y-90302D01*
Y-90588D01*
Y-90875D01*
X1018007D01*
Y-91161D01*
Y-91448D01*
Y-91734D01*
X1025165D01*
Y-91448D01*
X1026310D01*
Y-91161D01*
X1026883D01*
Y-90875D01*
X1027169D01*
Y-90588D01*
X1027455D01*
Y-90302D01*
X1027742D01*
Y-90016D01*
X1028028D01*
Y-89730D01*
Y-89443D01*
X1028314D01*
Y-89157D01*
Y-88871D01*
X1028601D01*
Y-88584D01*
Y-88298D01*
X1028887D01*
Y-88012D01*
Y-87725D01*
Y-87439D01*
Y-87153D01*
X1029173D01*
Y-86866D01*
Y-86580D01*
Y-86294D01*
Y-86007D01*
Y-85721D01*
X1029459D01*
Y-85435D01*
Y-85149D01*
Y-84862D01*
Y-84576D01*
Y-84290D01*
Y-84003D01*
Y-83717D01*
Y-83431D01*
Y-83144D01*
Y-82858D01*
Y-82572D01*
X1029173D01*
Y-82285D01*
Y-81999D01*
X1028887D01*
Y-81713D01*
Y-81427D01*
X1028601D01*
Y-81140D01*
X1028314D01*
Y-80854D01*
X1027742D01*
Y-80568D01*
D02*
G37*
%LPD*%
D34*
X11811Y220472D02*
G03*
X0Y208661I0J-11811D01*
G01*
Y11811D02*
G03*
X11811Y0I11811J0D01*
G01*
X244094D02*
G03*
X255906Y11811I0J11811D01*
G01*
Y208661D02*
G03*
X244094Y220472I-11811J0D01*
G01*
X255906Y11811D02*
Y208661D01*
X11811Y220472D02*
X244094D01*
X11811Y0D02*
X244094D01*
X0Y11811D02*
Y208661D01*
X-196850Y-196850D02*
X1456693D01*
X-196850D02*
Y972441D01*
X1456693Y-196850D02*
Y972441D01*
X-196850D02*
X1456693D01*
X1181102Y-196850D02*
Y-39370D01*
X984252Y-196850D02*
Y-39370D01*
X1456693D01*
X984252Y-157480D02*
X1456693D01*
X1181102Y-118110D02*
X1456693D01*
X1181102Y-78740D02*
X1456693D01*
X1338583Y-157480D02*
Y-118110D01*
X1190945Y-188976D02*
Y-183073D01*
X1193897D01*
X1194881Y-184057D01*
Y-186025D01*
X1193897Y-187009D01*
X1190945D01*
X1192913D02*
X1194881Y-188976D01*
X1196848D02*
Y-183073D01*
X1199800D01*
X1200784Y-184057D01*
Y-186025D01*
X1199800Y-187009D01*
X1196848D01*
X1202752Y-183073D02*
X1204720D01*
X1203736D01*
Y-188976D01*
X1202752D01*
X1204720D01*
X1207672Y-189960D02*
X1211607D01*
X1213575Y-183073D02*
Y-188976D01*
Y-186025D01*
X1217511D01*
Y-183073D01*
Y-188976D01*
X1219479D02*
Y-185041D01*
X1221447Y-183073D01*
X1223415Y-185041D01*
Y-188976D01*
Y-186025D01*
X1219479D01*
X1225383Y-183073D02*
X1229318D01*
X1227350D01*
Y-188976D01*
X1231286Y-189960D02*
X1235222D01*
X1237190Y-188976D02*
Y-185041D01*
X1239158Y-183073D01*
X1241125Y-185041D01*
Y-188976D01*
Y-186025D01*
X1237190D01*
X1243093Y-188976D02*
Y-183073D01*
X1245061Y-185041D01*
X1247029Y-183073D01*
Y-188976D01*
X1248997D02*
Y-183073D01*
X1251949D01*
X1252933Y-184057D01*
Y-186025D01*
X1251949Y-187009D01*
X1248997D01*
X1254900Y-189960D02*
X1258836D01*
X1260804Y-183073D02*
X1264740D01*
X1262772D01*
Y-188976D01*
X1266708D02*
Y-185041D01*
X1268676Y-183073D01*
X1270644Y-185041D01*
Y-188976D01*
Y-186025D01*
X1266708D01*
X1276547Y-184057D02*
X1275563Y-183073D01*
X1273595D01*
X1272611Y-184057D01*
Y-185041D01*
X1273595Y-186025D01*
X1275563D01*
X1276547Y-187009D01*
Y-187993D01*
X1275563Y-188976D01*
X1273595D01*
X1272611Y-187993D01*
X1282451Y-183073D02*
X1278515D01*
Y-186025D01*
X1280483Y-185041D01*
X1281467D01*
X1282451Y-186025D01*
Y-187993D01*
X1281467Y-188976D01*
X1279499D01*
X1278515Y-187993D01*
X1284418Y-183073D02*
X1288354D01*
Y-184057D01*
X1284418Y-187993D01*
Y-188976D01*
X1294258Y-183073D02*
X1290322D01*
Y-186025D01*
X1292290Y-185041D01*
X1293274D01*
X1294258Y-186025D01*
Y-187993D01*
X1293274Y-188976D01*
X1291306D01*
X1290322Y-187993D01*
X1300161Y-183073D02*
X1298194Y-184057D01*
X1296226Y-186025D01*
Y-187993D01*
X1297210Y-188976D01*
X1299177D01*
X1300161Y-187993D01*
Y-187009D01*
X1299177Y-186025D01*
X1296226D01*
X1302129Y-189960D02*
X1306065D01*
X1308033Y-184057D02*
X1309017Y-183073D01*
X1310985D01*
X1311969Y-184057D01*
Y-187993D01*
X1310985Y-188976D01*
X1309017D01*
X1308033Y-187993D01*
Y-184057D01*
X1317872Y-188976D02*
X1313937D01*
X1317872Y-185041D01*
Y-184057D01*
X1316888Y-183073D01*
X1314921D01*
X1313937Y-184057D01*
X1319840Y-188976D02*
Y-187993D01*
X1320824D01*
Y-188976D01*
X1319840D01*
X1324760D02*
Y-183073D01*
X1327712D01*
X1328696Y-184057D01*
Y-186025D01*
X1327712Y-187009D01*
X1324760D01*
X1334599Y-185041D02*
X1331647D01*
X1330663Y-186025D01*
Y-187993D01*
X1331647Y-188976D01*
X1334599D01*
X1336567Y-183073D02*
Y-188976D01*
X1339519D01*
X1340503Y-187993D01*
Y-187009D01*
Y-186025D01*
X1339519Y-185041D01*
X1336567D01*
X1342471Y-183073D02*
Y-188976D01*
X1345422D01*
X1346406Y-187993D01*
Y-184057D01*
X1345422Y-183073D01*
X1342471D01*
X1349358Y-188976D02*
X1351326D01*
X1352310Y-187993D01*
Y-186025D01*
X1351326Y-185041D01*
X1349358D01*
X1348374Y-186025D01*
Y-187993D01*
X1349358Y-188976D01*
X1358214Y-185041D02*
X1355262D01*
X1354278Y-186025D01*
Y-187993D01*
X1355262Y-188976D01*
X1358214D01*
D35*
X1190945Y-57092D02*
X1201440D01*
X1196192D01*
Y-72835D01*
X1206688D02*
Y-62339D01*
X1211936Y-57092D01*
X1217183Y-62339D01*
Y-72835D01*
Y-64963D01*
X1206688D01*
X1232926Y-59715D02*
X1230302Y-57092D01*
X1225055D01*
X1222431Y-59715D01*
Y-62339D01*
X1225055Y-64963D01*
X1230302D01*
X1232926Y-67587D01*
Y-70211D01*
X1230302Y-72835D01*
X1225055D01*
X1222431Y-70211D01*
X1248669Y-57092D02*
X1238174D01*
Y-64963D01*
X1243421Y-62339D01*
X1246045D01*
X1248669Y-64963D01*
Y-70211D01*
X1246045Y-72835D01*
X1240798D01*
X1238174Y-70211D01*
X1253917Y-57092D02*
X1264412D01*
Y-59715D01*
X1253917Y-70211D01*
Y-72835D01*
X1280155Y-57092D02*
X1269660D01*
Y-64963D01*
X1274907Y-62339D01*
X1277531D01*
X1280155Y-64963D01*
Y-70211D01*
X1277531Y-72835D01*
X1272283D01*
X1269660Y-70211D01*
X1295898Y-57092D02*
X1290650Y-59715D01*
X1285402Y-64963D01*
Y-70211D01*
X1288026Y-72835D01*
X1293274D01*
X1295898Y-70211D01*
Y-67587D01*
X1293274Y-64963D01*
X1285402D01*
X1316888Y-57092D02*
Y-72835D01*
Y-64963D01*
X1327384D01*
Y-57092D01*
Y-72835D01*
X1332631D02*
Y-62339D01*
X1337879Y-57092D01*
X1343127Y-62339D01*
Y-72835D01*
Y-64963D01*
X1332631D01*
X1348374Y-57092D02*
X1358870D01*
X1353622D01*
Y-72835D01*
X1206034Y-151575D02*
X1196850D01*
X1206034Y-142391D01*
Y-140096D01*
X1203738Y-137800D01*
X1199146D01*
X1196850Y-140096D01*
X1219809Y-151575D02*
X1210625D01*
X1219809Y-142391D01*
Y-140096D01*
X1217513Y-137800D01*
X1212921D01*
X1210625Y-140096D01*
X1224401Y-151575D02*
X1233584Y-142391D01*
X1238176Y-140096D02*
X1240471Y-137800D01*
X1245063D01*
X1247359Y-140096D01*
Y-149279D01*
X1245063Y-151575D01*
X1240471D01*
X1238176Y-149279D01*
Y-140096D01*
X1251951D02*
X1254247Y-137800D01*
X1258838D01*
X1261134Y-140096D01*
Y-142391D01*
X1258838Y-144687D01*
X1256542D01*
X1258838D01*
X1261134Y-146983D01*
Y-149279D01*
X1258838Y-151575D01*
X1254247D01*
X1251951Y-149279D01*
X1265726Y-151575D02*
X1274909Y-142391D01*
X1288684Y-151575D02*
X1279501D01*
X1288684Y-142391D01*
Y-140096D01*
X1286388Y-137800D01*
X1281797D01*
X1279501Y-140096D01*
X1293276D02*
X1295572Y-137800D01*
X1300163D01*
X1302459Y-140096D01*
Y-149279D01*
X1300163Y-151575D01*
X1295572D01*
X1293276Y-149279D01*
Y-140096D01*
X1307051Y-151575D02*
X1311643D01*
X1309347D01*
Y-137800D01*
X1307051Y-140096D01*
X1318530Y-137800D02*
X1327714D01*
Y-140096D01*
X1318530Y-149279D01*
Y-151575D01*
X1360236Y-138456D02*
X1362860Y-135832D01*
X1368108D01*
X1370732Y-138456D01*
Y-148951D01*
X1368108Y-151575D01*
X1362860D01*
X1360236Y-148951D01*
Y-138456D01*
X1386475Y-151575D02*
X1375979D01*
X1386475Y-141079D01*
Y-138456D01*
X1383851Y-135832D01*
X1378603D01*
X1375979Y-138456D01*
X1005906Y-175202D02*
Y-190945D01*
X1011153Y-185697D01*
X1016401Y-190945D01*
Y-175202D01*
X1021649Y-190945D02*
X1026896D01*
X1024272D01*
Y-180450D01*
X1021649D01*
X1034768Y-190945D02*
Y-180450D01*
X1037391D01*
X1040015Y-183073D01*
Y-190945D01*
Y-183073D01*
X1042639Y-180450D01*
X1045263Y-183073D01*
Y-190945D01*
X1050511Y-175202D02*
Y-185697D01*
X1055758Y-190945D01*
X1061006Y-185697D01*
Y-175202D01*
X1076749Y-177826D02*
X1074125Y-175202D01*
X1068877D01*
X1066253Y-177826D01*
Y-188321D01*
X1068877Y-190945D01*
X1074125D01*
X1076749Y-188321D01*
Y-183073D01*
X1071501D01*
X1202756Y-96461D02*
Y-110236D01*
X1209643D01*
X1211939Y-107940D01*
Y-98757D01*
X1209643Y-96461D01*
X1202756D01*
X1216531Y-101053D02*
Y-110236D01*
Y-105645D01*
X1218827Y-103349D01*
X1221123Y-101053D01*
X1223419D01*
X1230306Y-110236D02*
X1234898D01*
X1232602D01*
Y-101053D01*
X1230306D01*
X1241785Y-110236D02*
X1246377D01*
X1244081D01*
Y-96461D01*
X1241785D01*
X1253265Y-110236D02*
X1257856D01*
X1255560D01*
Y-96461D01*
X1253265D01*
X1278519D02*
Y-110236D01*
X1285406D01*
X1287702Y-107940D01*
Y-98757D01*
X1285406Y-96461D01*
X1278519D01*
X1292294Y-101053D02*
Y-110236D01*
Y-105645D01*
X1294590Y-103349D01*
X1296886Y-101053D01*
X1299181D01*
X1308365D02*
X1312957D01*
X1315252Y-103349D01*
Y-110236D01*
X1308365D01*
X1306069Y-107940D01*
X1308365Y-105645D01*
X1315252D01*
X1319844Y-101053D02*
Y-107940D01*
X1322140Y-110236D01*
X1324436Y-107940D01*
X1326732Y-110236D01*
X1329027Y-107940D01*
Y-101053D01*
X1333619Y-110236D02*
X1338211D01*
X1335915D01*
Y-101053D01*
X1333619D01*
X1345098Y-110236D02*
Y-101053D01*
X1351986D01*
X1354282Y-103349D01*
Y-110236D01*
X1363465Y-114828D02*
X1365761D01*
X1368057Y-112532D01*
Y-101053D01*
X1361169D01*
X1358873Y-103349D01*
Y-107940D01*
X1361169Y-110236D01*
X1368057D01*
D36*
X1185039Y-161420D02*
Y-169291D01*
X1188975D01*
X1190287Y-167979D01*
Y-162732D01*
X1188975Y-161420D01*
X1185039D01*
X1194223Y-169291D02*
X1196847D01*
X1198158Y-167979D01*
Y-165356D01*
X1196847Y-164044D01*
X1194223D01*
X1192911Y-165356D01*
Y-167979D01*
X1194223Y-169291D01*
X1206030Y-164044D02*
X1202094D01*
X1200782Y-165356D01*
Y-167979D01*
X1202094Y-169291D01*
X1206030D01*
X1208654Y-164044D02*
Y-167979D01*
X1209966Y-169291D01*
X1213902D01*
Y-164044D01*
X1216525Y-169291D02*
Y-164044D01*
X1217837D01*
X1219149Y-165356D01*
Y-169291D01*
Y-165356D01*
X1220461Y-164044D01*
X1221773Y-165356D01*
Y-169291D01*
X1228333D02*
X1225709D01*
X1224397Y-167979D01*
Y-165356D01*
X1225709Y-164044D01*
X1228333D01*
X1229644Y-165356D01*
Y-166667D01*
X1224397D01*
X1232268Y-169291D02*
Y-164044D01*
X1236204D01*
X1237516Y-165356D01*
Y-169291D01*
X1241452Y-162732D02*
Y-164044D01*
X1240140D01*
X1242764D01*
X1241452D01*
Y-167979D01*
X1242764Y-169291D01*
X1185039Y-122050D02*
Y-129921D01*
X1188975D01*
X1190287Y-128609D01*
Y-123362D01*
X1188975Y-122050D01*
X1185039D01*
X1194223Y-124674D02*
X1196847D01*
X1198158Y-125986D01*
Y-129921D01*
X1194223D01*
X1192911Y-128609D01*
X1194223Y-127297D01*
X1198158D01*
X1202094Y-123362D02*
Y-124674D01*
X1200782D01*
X1203406D01*
X1202094D01*
Y-128609D01*
X1203406Y-129921D01*
X1211278D02*
X1208654D01*
X1207342Y-128609D01*
Y-125986D01*
X1208654Y-124674D01*
X1211278D01*
X1212589Y-125986D01*
Y-127297D01*
X1207342D01*
X1185039Y-82680D02*
Y-90551D01*
X1190287D01*
X1194223Y-85303D02*
X1196847D01*
X1198158Y-86615D01*
Y-90551D01*
X1194223D01*
X1192911Y-89239D01*
X1194223Y-87927D01*
X1198158D01*
X1200782Y-85303D02*
Y-89239D01*
X1202094Y-90551D01*
X1206030D01*
Y-91863D01*
X1204718Y-93175D01*
X1203406D01*
X1206030Y-90551D02*
Y-85303D01*
X1212590Y-90551D02*
X1209966D01*
X1208654Y-89239D01*
Y-86615D01*
X1209966Y-85303D01*
X1212590D01*
X1213902Y-86615D01*
Y-87927D01*
X1208654D01*
X1216525Y-85303D02*
Y-90551D01*
Y-87927D01*
X1217837Y-86615D01*
X1219149Y-85303D01*
X1220461D01*
X1232268Y-90551D02*
Y-82680D01*
X1237516Y-90551D01*
Y-82680D01*
X1241452Y-85303D02*
X1244075D01*
X1245387Y-86615D01*
Y-90551D01*
X1241452D01*
X1240140Y-89239D01*
X1241452Y-87927D01*
X1245387D01*
X1248011Y-90551D02*
Y-85303D01*
X1249323D01*
X1250635Y-86615D01*
Y-90551D01*
Y-86615D01*
X1251947Y-85303D01*
X1253259Y-86615D01*
Y-90551D01*
X1259818D02*
X1257195D01*
X1255883Y-89239D01*
Y-86615D01*
X1257195Y-85303D01*
X1259818D01*
X1261130Y-86615D01*
Y-87927D01*
X1255883D01*
X1185039Y-43310D02*
Y-51181D01*
X1188975D01*
X1190287Y-49869D01*
Y-44622D01*
X1188975Y-43310D01*
X1185039D01*
X1194223Y-51181D02*
X1196847D01*
X1198158Y-49869D01*
Y-47245D01*
X1196847Y-45933D01*
X1194223D01*
X1192911Y-47245D01*
Y-49869D01*
X1194223Y-51181D01*
X1206030Y-45933D02*
X1202094D01*
X1200782Y-47245D01*
Y-49869D01*
X1202094Y-51181D01*
X1206030D01*
X1208654Y-45933D02*
Y-49869D01*
X1209966Y-51181D01*
X1213902D01*
Y-45933D01*
X1216525Y-51181D02*
Y-45933D01*
X1217837D01*
X1219149Y-47245D01*
Y-51181D01*
Y-47245D01*
X1220461Y-45933D01*
X1221773Y-47245D01*
Y-51181D01*
X1228333D02*
X1225709D01*
X1224397Y-49869D01*
Y-47245D01*
X1225709Y-45933D01*
X1228333D01*
X1229644Y-47245D01*
Y-48557D01*
X1224397D01*
X1232268Y-51181D02*
Y-45933D01*
X1236204D01*
X1237516Y-47245D01*
Y-51181D01*
X1241452Y-44622D02*
Y-45933D01*
X1240140D01*
X1242764D01*
X1241452D01*
Y-49869D01*
X1242764Y-51181D01*
X988189Y-161420D02*
Y-169291D01*
X992125D01*
X993437Y-167979D01*
Y-162732D01*
X992125Y-161420D01*
X988189D01*
X999996Y-169291D02*
X997372D01*
X996060Y-167979D01*
Y-165356D01*
X997372Y-164044D01*
X999996D01*
X1001308Y-165356D01*
Y-166667D01*
X996060D01*
X1003932Y-169291D02*
X1007868D01*
X1009180Y-167979D01*
X1007868Y-166667D01*
X1005244D01*
X1003932Y-165356D01*
X1005244Y-164044D01*
X1009180D01*
X1014427Y-171915D02*
X1015739D01*
X1017051Y-170603D01*
Y-164044D01*
X1013115D01*
X1011803Y-165356D01*
Y-167979D01*
X1013115Y-169291D01*
X1017051D01*
X1019675D02*
X1022299D01*
X1020987D01*
Y-164044D01*
X1019675D01*
X1026235Y-169291D02*
Y-164044D01*
X1030170D01*
X1031482Y-165356D01*
Y-169291D01*
X1038042D02*
X1035418D01*
X1034106Y-167979D01*
Y-165356D01*
X1035418Y-164044D01*
X1038042D01*
X1039354Y-165356D01*
Y-166667D01*
X1034106D01*
X1041977Y-164044D02*
Y-169291D01*
Y-166667D01*
X1043289Y-165356D01*
X1044601Y-164044D01*
X1045913D01*
X1342520Y-129921D02*
Y-122050D01*
X1346455D01*
X1347767Y-123362D01*
Y-125986D01*
X1346455Y-127297D01*
X1342520D01*
X1345144D02*
X1347767Y-129921D01*
X1354327D02*
X1351703D01*
X1350391Y-128609D01*
Y-125986D01*
X1351703Y-124674D01*
X1354327D01*
X1355639Y-125986D01*
Y-127297D01*
X1350391D01*
X1358263Y-124674D02*
X1360886Y-129921D01*
X1363510Y-124674D01*
D38*
X13780Y-12811D02*
Y575D01*
X0Y-12811D02*
Y0D01*
X-10000Y-11811D02*
X0D01*
X13780D02*
X23779D01*
X-6000Y-9811D02*
X0Y-11811D01*
X-6000Y-13811D02*
X0Y-11811D01*
X13780D02*
X19780Y-13811D01*
X13780Y-11811D02*
X19780Y-9811D01*
X-14780Y13780D02*
X575D01*
X-14780Y0D02*
X0D01*
X-13780Y-10000D02*
Y0D01*
Y13780D02*
Y23779D01*
X-15779Y-6000D02*
X-13780Y0D01*
X-11779Y-6000D01*
X-13780Y13780D02*
X-11779Y19780D01*
X-15779D02*
X-13780Y13780D01*
D85*
X-5707Y-25207D02*
X-4707Y-24208D01*
X-2708D01*
X-1708Y-25207D01*
Y-26207D01*
X-2708Y-27207D01*
X-3707D01*
X-2708D01*
X-1708Y-28207D01*
Y-29206D01*
X-2708Y-30206D01*
X-4707D01*
X-5707Y-29206D01*
X1291Y-31205D02*
X2291Y-30206D01*
Y-29206D01*
X1291D01*
Y-30206D01*
X2291D01*
X1291Y-31205D01*
X291Y-32205D01*
X10288Y-24208D02*
X6289D01*
Y-27207D01*
X8289Y-26207D01*
X9289D01*
X10288Y-27207D01*
Y-29206D01*
X9289Y-30206D01*
X7289D01*
X6289Y-29206D01*
X12287Y-25207D02*
X13287Y-24208D01*
X15286D01*
X16286Y-25207D01*
Y-29206D01*
X15286Y-30206D01*
X13287D01*
X12287Y-29206D01*
Y-25207D01*
X-27975Y-5707D02*
X-28975Y-4707D01*
Y-2708D01*
X-27975Y-1708D01*
X-26976D01*
X-25976Y-2708D01*
Y-3707D01*
Y-2708D01*
X-24976Y-1708D01*
X-23977D01*
X-22977Y-2708D01*
Y-4707D01*
X-23977Y-5707D01*
X-21977Y1291D02*
X-22977Y2291D01*
X-23977D01*
Y1291D01*
X-22977D01*
Y2291D01*
X-21977Y1291D01*
X-20978Y291D01*
X-28975Y10288D02*
Y6289D01*
X-25976D01*
X-26976Y8289D01*
Y9289D01*
X-25976Y10288D01*
X-23977D01*
X-22977Y9289D01*
Y7289D01*
X-23977Y6289D01*
X-27975Y12287D02*
X-28975Y13287D01*
Y15286D01*
X-27975Y16286D01*
X-23977D01*
X-22977Y15286D01*
Y13287D01*
X-23977Y12287D01*
X-27975D01*
D86*
X208796Y51316D02*
Y52916D01*
X210396D01*
Y51316D01*
X208796D01*
X199053Y41572D02*
Y43172D01*
X200653D01*
Y41572D01*
X199053D01*
X123622Y146050D02*
X122822Y147650D01*
X124422D01*
X123622Y146050D01*
Y156050D02*
X122822Y157650D01*
X124422D01*
X123622Y156050D01*
X177165Y44476D02*
X177565Y44876D01*
X177965D01*
X177565Y45276D01*
X177965Y45676D01*
X177565D01*
X177165Y46076D01*
X176765Y45676D01*
X176365D01*
X176765Y45276D01*
X176365Y44876D01*
X176765D01*
X177165Y44476D01*
X12979Y12979D02*
X13379Y13780D01*
X12979Y14580D01*
X13780Y14179D01*
X14580Y14580D01*
X14179Y13780D01*
X14580Y12979D01*
X13780Y13379D01*
X12979Y12979D01*
Y205893D02*
X13379Y206693D01*
X12979Y207493D01*
X13780Y207093D01*
X14580Y207493D01*
X14179Y206693D01*
X14580Y205893D01*
X13780Y206293D01*
X12979Y205893D01*
X241326D02*
X241726Y206693D01*
X241326Y207493D01*
X242126Y207093D01*
X242926Y207493D01*
X242526Y206693D01*
X242926Y205893D01*
X242126Y206293D01*
X241326Y205893D01*
Y12979D02*
X241726Y13780D01*
X241326Y14580D01*
X242126Y14179D01*
X242926Y14580D01*
X242526Y13780D01*
X242926Y12979D01*
X242126Y13379D01*
X241326Y12979D01*
X68655Y13379D02*
Y12979D01*
X69455D01*
Y13379D01*
X69855D01*
Y14179D01*
X69455D01*
Y14580D01*
X68655D01*
Y14179D01*
X68255D01*
Y13379D01*
X68655D01*
X48655D02*
Y12979D01*
X49455D01*
Y13379D01*
X49855D01*
Y14179D01*
X49455D01*
Y14580D01*
X48655D01*
Y14179D01*
X48255D01*
Y13379D01*
X48655D01*
X155269D02*
Y12979D01*
X156069D01*
Y13379D01*
X156469D01*
Y14179D01*
X156069D01*
Y14580D01*
X155269D01*
Y14179D01*
X154869D01*
Y13379D01*
X155269D01*
X135269D02*
Y12979D01*
X136069D01*
Y13379D01*
X136469D01*
Y14179D01*
X136069D01*
Y14580D01*
X135269D01*
Y14179D01*
X134869D01*
Y13379D01*
X135269D01*
X214324D02*
Y12979D01*
X215124D01*
Y13379D01*
X215524D01*
Y14179D01*
X215124D01*
Y14580D01*
X214324D01*
Y14179D01*
X213924D01*
Y13379D01*
X214324D01*
X194324D02*
Y12979D01*
X195124D01*
Y13379D01*
X195524D01*
Y14179D01*
X195124D01*
Y14580D01*
X194324D01*
Y14179D01*
X193924D01*
Y13379D01*
X194324D01*
X102154Y200893D02*
X102554D01*
X102954Y201293D01*
X103354Y200893D01*
X103754D01*
Y201293D01*
X103354Y201693D01*
X103754Y202093D01*
Y202493D01*
X103354D01*
X102954Y202093D01*
X102554Y202493D01*
X102154D01*
Y202093D01*
X102554Y201693D01*
X102154Y201293D01*
Y200893D01*
X102154Y210893D02*
X102554D01*
X102954Y211293D01*
X103354Y210893D01*
X103754D01*
Y211293D01*
X103354Y211693D01*
X103754Y212093D01*
Y212493D01*
X103354D01*
X102954Y212093D01*
X102554Y212493D01*
X102154D01*
Y212093D01*
X102554Y211693D01*
X102154Y211293D01*
Y210893D01*
X82154D02*
X82554D01*
X82954Y211293D01*
X83354Y210893D01*
X83754D01*
Y211293D01*
X83354Y211693D01*
X83754Y212093D01*
Y212493D01*
X83354D01*
X82954Y212093D01*
X82554Y212493D01*
X82154D01*
Y212093D01*
X82554Y211693D01*
X82154Y211293D01*
Y210893D01*
Y200893D02*
X82554D01*
X82954Y201293D01*
X83354Y200893D01*
X83754D01*
Y201293D01*
X83354Y201693D01*
X83754Y202093D01*
Y202493D01*
X83354D01*
X82954Y202093D01*
X82554Y202493D01*
X82154D01*
Y202093D01*
X82554Y201693D01*
X82154Y201293D01*
Y200893D01*
X92154Y210893D02*
X92554D01*
X92954Y211293D01*
X93354Y210893D01*
X93754D01*
Y211293D01*
X93354Y211693D01*
X93754Y212093D01*
Y212493D01*
X93354D01*
X92954Y212093D01*
X92554Y212493D01*
X92154D01*
Y212093D01*
X92554Y211693D01*
X92154Y211293D01*
Y210893D01*
X92154Y200893D02*
X92554D01*
X92954Y201293D01*
X93354Y200893D01*
X93754D01*
Y201293D01*
X93354Y201693D01*
X93754Y202093D01*
Y202493D01*
X93354D01*
X92954Y202093D01*
X92554Y202493D01*
X92154D01*
Y202093D01*
X92554Y201693D01*
X92154Y201293D01*
Y200893D01*
X62154Y210893D02*
X62554D01*
X62954Y211293D01*
X63354Y210893D01*
X63753D01*
Y211293D01*
X63354Y211693D01*
X63753Y212093D01*
Y212493D01*
X63354D01*
X62954Y212093D01*
X62554Y212493D01*
X62154D01*
Y212093D01*
X62554Y211693D01*
X62154Y211293D01*
Y210893D01*
Y200893D02*
X62554D01*
X62954Y201293D01*
X63354Y200893D01*
X63753D01*
Y201293D01*
X63354Y201693D01*
X63753Y202093D01*
Y202493D01*
X63354D01*
X62954Y202093D01*
X62554Y202493D01*
X62154D01*
Y202093D01*
X62554Y201693D01*
X62154Y201293D01*
Y200893D01*
X72154Y210893D02*
X72554D01*
X72954Y211293D01*
X73354Y210893D01*
X73754D01*
Y211293D01*
X73354Y211693D01*
X73754Y212093D01*
Y212493D01*
X73354D01*
X72954Y212093D01*
X72554Y212493D01*
X72154D01*
Y212093D01*
X72554Y211693D01*
X72154Y211293D01*
Y210893D01*
X72154Y200893D02*
X72553D01*
X72953Y201293D01*
X73353Y200893D01*
X73753D01*
Y201293D01*
X73353Y201693D01*
X73753Y202093D01*
Y202493D01*
X73353D01*
X72953Y202093D01*
X72553Y202493D01*
X72154D01*
Y202093D01*
X72553Y201693D01*
X72154Y201293D01*
Y200893D01*
X52153D02*
X52553D01*
X52953Y201293D01*
X53354Y200893D01*
X53754D01*
Y201293D01*
X53354Y201693D01*
X53754Y202093D01*
Y202493D01*
X53354D01*
X52953Y202093D01*
X52553Y202493D01*
X52153D01*
Y202093D01*
X52553Y201693D01*
X52153Y201293D01*
Y200893D01*
X52153Y210893D02*
X52553D01*
X52953Y211293D01*
X53354Y210893D01*
X53754D01*
Y211293D01*
X53354Y211693D01*
X53754Y212093D01*
Y212493D01*
X53354D01*
X52953Y212093D01*
X52553Y212493D01*
X52153D01*
Y212093D01*
X52553Y211693D01*
X52153Y211293D01*
Y210893D01*
X42153Y200893D02*
X42553D01*
X42954Y201293D01*
X43354Y200893D01*
X43753D01*
Y201293D01*
X43354Y201693D01*
X43753Y202093D01*
Y202493D01*
X43354D01*
X42954Y202093D01*
X42553Y202493D01*
X42153D01*
Y202093D01*
X42553Y201693D01*
X42153Y201293D01*
Y200893D01*
Y210893D02*
X42553D01*
X42954Y211293D01*
X43354Y210893D01*
X43753D01*
Y211293D01*
X43354Y211693D01*
X43753Y212093D01*
Y212493D01*
X43354D01*
X42954Y212093D01*
X42553Y212493D01*
X42153D01*
Y212093D01*
X42553Y211693D01*
X42153Y211293D01*
Y210893D01*
X32153Y200893D02*
X32553D01*
X32954Y201293D01*
X33353Y200893D01*
X33753D01*
Y201293D01*
X33353Y201693D01*
X33753Y202093D01*
Y202493D01*
X33353D01*
X32954Y202093D01*
X32553Y202493D01*
X32153D01*
Y202093D01*
X32553Y201693D01*
X32153Y201293D01*
Y200893D01*
Y210893D02*
X32553D01*
X32954Y211293D01*
X33353Y210893D01*
X33753D01*
Y211293D01*
X33353Y211693D01*
X33753Y212093D01*
Y212493D01*
X33353D01*
X32954Y212093D01*
X32553Y212493D01*
X32153D01*
Y212093D01*
X32553Y211693D01*
X32153Y211293D01*
Y210893D01*
X112154D02*
X112554D01*
X112954Y211293D01*
X113354Y210893D01*
X113754D01*
Y211293D01*
X113354Y211693D01*
X113754Y212093D01*
Y212493D01*
X113354D01*
X112954Y212093D01*
X112554Y212493D01*
X112154D01*
Y212093D01*
X112554Y211693D01*
X112154Y211293D01*
Y210893D01*
Y200893D02*
X112554D01*
X112954Y201293D01*
X113354Y200893D01*
X113754D01*
Y201293D01*
X113354Y201693D01*
X113754Y202093D01*
Y202493D01*
X113354D01*
X112954Y202093D01*
X112554Y202493D01*
X112154D01*
Y202093D01*
X112554Y201693D01*
X112154Y201293D01*
Y200893D01*
X132154D02*
X132554D01*
X132954Y201293D01*
X133354Y200893D01*
X133754D01*
Y201293D01*
X133354Y201693D01*
X133754Y202093D01*
Y202493D01*
X133354D01*
X132954Y202093D01*
X132554Y202493D01*
X132154D01*
Y202093D01*
X132554Y201693D01*
X132154Y201293D01*
Y200893D01*
X132154Y210893D02*
X132554D01*
X132954Y211293D01*
X133354Y210893D01*
X133754D01*
Y211293D01*
X133354Y211693D01*
X133754Y212093D01*
Y212493D01*
X133354D01*
X132954Y212093D01*
X132554Y212493D01*
X132154D01*
Y212093D01*
X132554Y211693D01*
X132154Y211293D01*
Y210893D01*
X122154Y200893D02*
X122554D01*
X122954Y201293D01*
X123354Y200893D01*
X123754D01*
Y201293D01*
X123354Y201693D01*
X123754Y202093D01*
Y202493D01*
X123354D01*
X122954Y202093D01*
X122554Y202493D01*
X122154D01*
Y202093D01*
X122554Y201693D01*
X122154Y201293D01*
Y200893D01*
Y210893D02*
X122554D01*
X122954Y211293D01*
X123354Y210893D01*
X123754D01*
Y211293D01*
X123354Y211693D01*
X123754Y212093D01*
Y212493D01*
X123354D01*
X122954Y212093D01*
X122554Y212493D01*
X122154D01*
Y212093D01*
X122554Y211693D01*
X122154Y211293D01*
Y210893D01*
X142154Y200893D02*
X142554D01*
X142954Y201293D01*
X143354Y200893D01*
X143754D01*
Y201293D01*
X143354Y201693D01*
X143754Y202093D01*
Y202493D01*
X143354D01*
X142954Y202093D01*
X142554Y202493D01*
X142154D01*
Y202093D01*
X142554Y201693D01*
X142154Y201293D01*
Y200893D01*
Y210893D02*
X142554D01*
X142954Y211293D01*
X143354Y210893D01*
X143754D01*
Y211293D01*
X143354Y211693D01*
X143754Y212093D01*
Y212493D01*
X143354D01*
X142954Y212093D01*
X142554Y212493D01*
X142154D01*
Y212093D01*
X142554Y211693D01*
X142154Y211293D01*
Y210893D01*
X212154D02*
X212554D01*
X212954Y211293D01*
X213354Y210893D01*
X213754D01*
Y211293D01*
X213354Y211693D01*
X213754Y212093D01*
Y212493D01*
X213354D01*
X212954Y212093D01*
X212554Y212493D01*
X212154D01*
Y212093D01*
X212554Y211693D01*
X212154Y211293D01*
Y210893D01*
Y200893D02*
X212554D01*
X212954Y201293D01*
X213354Y200893D01*
X213754D01*
Y201293D01*
X213354Y201693D01*
X213754Y202093D01*
Y202493D01*
X213354D01*
X212954Y202093D01*
X212554Y202493D01*
X212154D01*
Y202093D01*
X212554Y201693D01*
X212154Y201293D01*
Y200893D01*
X222154Y210893D02*
X222554D01*
X222954Y211293D01*
X223354Y210893D01*
X223754D01*
Y211293D01*
X223354Y211693D01*
X223754Y212093D01*
Y212493D01*
X223354D01*
X222954Y212093D01*
X222554Y212493D01*
X222154D01*
Y212093D01*
X222554Y211693D01*
X222154Y211293D01*
Y210893D01*
X222154Y200893D02*
X222554D01*
X222954Y201293D01*
X223354Y200893D01*
X223754D01*
Y201293D01*
X223354Y201693D01*
X223754Y202093D01*
Y202493D01*
X223354D01*
X222954Y202093D01*
X222554Y202493D01*
X222154D01*
Y202093D01*
X222554Y201693D01*
X222154Y201293D01*
Y200893D01*
X202154Y200893D02*
X202554D01*
X202954Y201293D01*
X203354Y200893D01*
X203754D01*
Y201293D01*
X203354Y201693D01*
X203754Y202093D01*
Y202493D01*
X203354D01*
X202954Y202093D01*
X202554Y202493D01*
X202154D01*
Y202093D01*
X202554Y201693D01*
X202154Y201293D01*
Y200893D01*
X202154Y210893D02*
X202554D01*
X202954Y211293D01*
X203354Y210893D01*
X203754D01*
Y211293D01*
X203354Y211693D01*
X203754Y212093D01*
Y212493D01*
X203354D01*
X202954Y212093D01*
X202554Y212493D01*
X202154D01*
Y212093D01*
X202554Y211693D01*
X202154Y211293D01*
Y210893D01*
X162154Y200893D02*
X162554D01*
X162954Y201293D01*
X163354Y200893D01*
X163754D01*
Y201293D01*
X163354Y201693D01*
X163754Y202093D01*
Y202493D01*
X163354D01*
X162954Y202093D01*
X162554Y202493D01*
X162154D01*
Y202093D01*
X162554Y201693D01*
X162154Y201293D01*
Y200893D01*
X162154Y210893D02*
X162554D01*
X162954Y211293D01*
X163354Y210893D01*
X163754D01*
Y211293D01*
X163354Y211693D01*
X163754Y212093D01*
Y212493D01*
X163354D01*
X162954Y212093D01*
X162554Y212493D01*
X162154D01*
Y212093D01*
X162554Y211693D01*
X162154Y211293D01*
Y210893D01*
X152154Y200893D02*
X152554D01*
X152954Y201293D01*
X153354Y200893D01*
X153754D01*
Y201293D01*
X153354Y201693D01*
X153754Y202093D01*
Y202493D01*
X153354D01*
X152954Y202093D01*
X152554Y202493D01*
X152154D01*
Y202093D01*
X152554Y201693D01*
X152154Y201293D01*
Y200893D01*
Y210893D02*
X152554D01*
X152954Y211293D01*
X153354Y210893D01*
X153754D01*
Y211293D01*
X153354Y211693D01*
X153754Y212093D01*
Y212493D01*
X153354D01*
X152954Y212093D01*
X152554Y212493D01*
X152154D01*
Y212093D01*
X152554Y211693D01*
X152154Y211293D01*
Y210893D01*
X182154Y200893D02*
X182554D01*
X182954Y201293D01*
X183354Y200893D01*
X183754D01*
Y201293D01*
X183354Y201693D01*
X183754Y202093D01*
Y202493D01*
X183354D01*
X182954Y202093D01*
X182554Y202493D01*
X182154D01*
Y202093D01*
X182554Y201693D01*
X182154Y201293D01*
Y200893D01*
X182154Y210893D02*
X182554D01*
X182954Y211293D01*
X183354Y210893D01*
X183754D01*
Y211293D01*
X183354Y211693D01*
X183754Y212093D01*
Y212493D01*
X183354D01*
X182954Y212093D01*
X182554Y212493D01*
X182154D01*
Y212093D01*
X182554Y211693D01*
X182154Y211293D01*
Y210893D01*
X172154Y200893D02*
X172554D01*
X172954Y201293D01*
X173354Y200893D01*
X173754D01*
Y201293D01*
X173354Y201693D01*
X173754Y202093D01*
Y202493D01*
X173354D01*
X172954Y202093D01*
X172554Y202493D01*
X172154D01*
Y202093D01*
X172554Y201693D01*
X172154Y201293D01*
Y200893D01*
Y210893D02*
X172554D01*
X172954Y211293D01*
X173354Y210893D01*
X173754D01*
Y211293D01*
X173354Y211693D01*
X173754Y212093D01*
Y212493D01*
X173354D01*
X172954Y212093D01*
X172554Y212493D01*
X172154D01*
Y212093D01*
X172554Y211693D01*
X172154Y211293D01*
Y210893D01*
X192154D02*
X192554D01*
X192954Y211293D01*
X193354Y210893D01*
X193754D01*
Y211293D01*
X193354Y211693D01*
X193754Y212093D01*
Y212493D01*
X193354D01*
X192954Y212093D01*
X192554Y212493D01*
X192154D01*
Y212093D01*
X192554Y211693D01*
X192154Y211293D01*
Y210893D01*
X192154Y200893D02*
X192554D01*
X192954Y201293D01*
X193354Y200893D01*
X193754D01*
Y201293D01*
X193354Y201693D01*
X193754Y202093D01*
Y202493D01*
X193354D01*
X192954Y202093D01*
X192554Y202493D01*
X192154D01*
Y202093D01*
X192554Y201693D01*
X192154Y201293D01*
Y200893D01*
X39200Y189200D02*
X39600D01*
X40000Y189600D01*
X40400Y189200D01*
X40800D01*
Y189600D01*
X40400Y190000D01*
X40800Y190400D01*
Y190800D01*
X40400D01*
X40000Y190400D01*
X39600Y190800D01*
X39200D01*
Y190400D01*
X39600Y190000D01*
X39200Y189600D01*
Y189200D01*
X49200D02*
X49600D01*
X50000Y189600D01*
X50400Y189200D01*
X50800D01*
Y189600D01*
X50400Y190000D01*
X50800Y190400D01*
Y190800D01*
X50400D01*
X50000Y190400D01*
X49600Y190800D01*
X49200D01*
Y190400D01*
X49600Y190000D01*
X49200Y189600D01*
Y189200D01*
X59200D02*
X59600D01*
X60000Y189600D01*
X60400Y189200D01*
X60800D01*
Y189600D01*
X60400Y190000D01*
X60800Y190400D01*
Y190800D01*
X60400D01*
X60000Y190400D01*
X59600Y190800D01*
X59200D01*
Y190400D01*
X59600Y190000D01*
X59200Y189600D01*
Y189200D01*
X69200D02*
X69600D01*
X70000Y189600D01*
X70400Y189200D01*
X70800D01*
Y189600D01*
X70400Y190000D01*
X70800Y190400D01*
Y190800D01*
X70400D01*
X70000Y190400D01*
X69600Y190800D01*
X69200D01*
Y190400D01*
X69600Y190000D01*
X69200Y189600D01*
Y189200D01*
X159606Y166523D02*
X158806Y168123D01*
X160406D01*
X159606Y166523D01*
X149606D02*
X148806Y168123D01*
X150406D01*
X149606Y166523D01*
X179606Y186523D02*
X178806Y188123D01*
X180406D01*
X179606Y186523D01*
X169606Y166523D02*
X168806Y168123D01*
X170406D01*
X169606Y166523D01*
X179606Y176523D02*
X178806Y178123D01*
X180406D01*
X179606Y176523D01*
X5893Y38413D02*
X6293D01*
X6693Y38813D01*
X7093Y38413D01*
X7493D01*
Y38813D01*
X7093Y39213D01*
X7493Y39613D01*
Y40013D01*
X7093D01*
X6693Y39613D01*
X6293Y40013D01*
X5893D01*
Y39613D01*
X6293Y39213D01*
X5893Y38813D01*
Y38413D01*
Y48413D02*
X6293D01*
X6693Y48813D01*
X7093Y48413D01*
X7493D01*
Y48813D01*
X7093Y49213D01*
X7493Y49613D01*
Y50013D01*
X7093D01*
X6693Y49613D01*
X6293Y50013D01*
X5893D01*
Y49613D01*
X6293Y49213D01*
X5893Y48813D01*
Y48413D01*
X44476Y150775D02*
X44876Y151575D01*
X44476Y152375D01*
X45276Y151975D01*
X46076Y152375D01*
X45676Y151575D01*
X46076Y150775D01*
X45276Y151175D01*
X44476Y150775D01*
X9200Y179200D02*
X9600D01*
X10000Y179600D01*
X10400Y179200D01*
X10800D01*
Y179600D01*
X10400Y180000D01*
X10800Y180400D01*
Y180800D01*
X10400D01*
X10000Y180400D01*
X9600Y180800D01*
X9200D01*
Y180400D01*
X9600Y180000D01*
X9200Y179600D01*
Y179200D01*
Y169200D02*
X9600D01*
X10000Y169600D01*
X10400Y169200D01*
X10800D01*
Y169600D01*
X10400Y170000D01*
X10800Y170400D01*
Y170800D01*
X10400D01*
X10000Y170400D01*
X9600Y170800D01*
X9200D01*
Y170400D01*
X9600Y170000D01*
X9200Y169600D01*
Y169200D01*
Y159200D02*
X9600D01*
X10000Y159600D01*
X10400Y159200D01*
X10800D01*
Y159600D01*
X10400Y160000D01*
X10800Y160400D01*
Y160800D01*
X10400D01*
X10000Y160400D01*
X9600Y160800D01*
X9200D01*
Y160400D01*
X9600Y160000D01*
X9200Y159600D01*
Y159200D01*
Y149200D02*
X9600D01*
X10000Y149600D01*
X10400Y149200D01*
X10800D01*
Y149600D01*
X10400Y150000D01*
X10800Y150400D01*
Y150800D01*
X10400D01*
X10000Y150400D01*
X9600Y150800D01*
X9200D01*
Y150400D01*
X9600Y150000D01*
X9200Y149600D01*
Y149200D01*
X249200Y168897D02*
X250000Y169697D01*
X250800Y168897D01*
X250000Y168097D01*
X249200Y168897D01*
X240736Y187008D02*
X241536Y187808D01*
X242336Y187008D01*
X241536Y186208D01*
X240736Y187008D01*
X203137Y172835D02*
X203937Y173635D01*
X204737Y172835D01*
X203937Y172035D01*
X203137Y172835D01*
X207074D02*
X207874Y173635D01*
X208674Y172835D01*
X207874Y172035D01*
X207074Y172835D01*
X208235Y116142D02*
X209035Y116942D01*
X209835Y116142D01*
X209035Y115342D01*
X208235Y116142D01*
X205893Y97441D02*
X206693Y98241D01*
X207493Y97441D01*
X206693Y96641D01*
X205893Y97441D01*
Y103347D02*
X206693Y104147D01*
X207493Y103347D01*
X206693Y102547D01*
X205893Y103347D01*
X231484Y97441D02*
X232283Y98241D01*
X233084Y97441D01*
X232283Y96641D01*
X231484Y97441D01*
Y103347D02*
X232283Y104147D01*
X233084Y103347D01*
X232283Y102547D01*
X231484Y103347D01*
X225578Y97441D02*
X226378Y98241D01*
X227178Y97441D01*
X226378Y96641D01*
X225578Y97441D01*
Y103347D02*
X226378Y104147D01*
X227178Y103347D01*
X226378Y102547D01*
X225578Y103347D01*
X164948Y102756D02*
X165748Y103556D01*
X166548Y102756D01*
X165748Y101956D01*
X164948Y102756D01*
X161011D02*
X161811Y103556D01*
X162611Y102756D01*
X161811Y101956D01*
X161011Y102756D01*
X157074D02*
X157874Y103556D01*
X158674Y102756D01*
X157874Y101956D01*
X157074Y102756D01*
X153137D02*
X153937Y103556D01*
X154737Y102756D01*
X153937Y101956D01*
X153137Y102756D01*
X231484Y64764D02*
X232283Y65564D01*
X233084Y64764D01*
X232283Y63964D01*
X231484Y64764D01*
X235420D02*
X236221Y65564D01*
X237020Y64764D01*
X236221Y63964D01*
X235420Y64764D01*
X211799Y67519D02*
X212599Y68319D01*
X213399Y67519D01*
X212599Y66719D01*
X211799Y67519D01*
X217704D02*
X218504Y68319D01*
X219304Y67519D01*
X218504Y66719D01*
X217704Y67519D01*
X223609Y67520D02*
X224409Y68320D01*
X225209Y67520D01*
X224409Y66720D01*
X223609Y67520D01*
X194869Y143111D02*
X195669Y143911D01*
X196469Y143111D01*
X195669Y142311D01*
X194869Y143111D01*
X209830Y150984D02*
X210630Y151784D01*
X211430Y150984D01*
X210630Y150184D01*
X209830Y150984D01*
X239357Y156496D02*
X240158Y157296D01*
X240957Y156496D01*
X240158Y155696D01*
X239357Y156496D01*
X243295D02*
X244094Y157296D01*
X244895Y156496D01*
X244094Y155696D01*
X243295Y156496D01*
X219672D02*
X220472Y157296D01*
X221272Y156496D01*
X220472Y155696D01*
X219672Y156496D01*
X223609D02*
X224409Y157296D01*
X225209Y156496D01*
X224409Y155696D01*
X223609Y156496D01*
X182271Y123228D02*
X183071Y124028D01*
X183871Y123228D01*
X183071Y122428D01*
X182271Y123228D01*
X178334D02*
X179134Y124028D01*
X179934Y123228D01*
X179134Y122428D01*
X178334Y123228D01*
X172428D02*
X173228Y124028D01*
X174028Y123228D01*
X173228Y122428D01*
X172428Y123228D01*
X168491D02*
X169291Y124028D01*
X170091Y123228D01*
X169291Y122428D01*
X168491Y123228D01*
X165145Y80905D02*
X165945Y81705D01*
X166745Y80905D01*
X165945Y80106D01*
X165145Y80905D01*
X169082D02*
X169882Y81705D01*
X170682Y80905D01*
X169882Y80106D01*
X169082Y80905D01*
X155302D02*
X156102Y81705D01*
X156902Y80905D01*
X156102Y80106D01*
X155302Y80905D01*
X159239D02*
X160039Y81705D01*
X160839Y80905D01*
X160039Y80106D01*
X159239Y80905D01*
X147625Y89370D02*
X148425Y90170D01*
X149225Y89370D01*
X148425Y88570D01*
X147625Y89370D01*
X64751Y131496D02*
X65552Y132296D01*
X66351Y131496D01*
X65552Y130696D01*
X64751Y131496D01*
Y138189D02*
X65552Y138989D01*
X66351Y138189D01*
X65552Y137389D01*
X64751Y138189D01*
X57468Y98425D02*
X58268Y99225D01*
X59068Y98425D01*
X58268Y97625D01*
X57468Y98425D01*
X66917D02*
X67716Y99225D01*
X68516Y98425D01*
X67716Y97625D01*
X66917Y98425D01*
X101562Y26181D02*
X102362Y26981D01*
X103162Y26181D01*
X102362Y25381D01*
X101562Y26181D01*
X95263D02*
X96063Y26981D01*
X96863Y26181D01*
X96063Y25381D01*
X95263Y26181D01*
X107861D02*
X108661Y26981D01*
X109461Y26181D01*
X108661Y25381D01*
X107861Y26181D01*
X114161D02*
X114961Y26981D01*
X115761Y26181D01*
X114961Y25381D01*
X114161Y26181D01*
X88964D02*
X89764Y26981D01*
X90564Y26181D01*
X89764Y25381D01*
X88964Y26181D01*
Y21063D02*
X89764Y21863D01*
X90564Y21063D01*
X89764Y20263D01*
X88964Y21063D01*
X114161D02*
X114961Y21863D01*
X115761Y21063D01*
X114961Y20263D01*
X114161Y21063D01*
X107861D02*
X108661Y21863D01*
X109461Y21063D01*
X108661Y20263D01*
X107861Y21063D01*
X95263D02*
X96063Y21863D01*
X96863Y21063D01*
X96063Y20263D01*
X95263Y21063D01*
X101562D02*
X102362Y21863D01*
X103162Y21063D01*
X102362Y20263D01*
X101562Y21063D01*
Y41536D02*
X102362Y42336D01*
X103162Y41536D01*
X102362Y40736D01*
X101562Y41536D01*
X95263D02*
X96063Y42336D01*
X96863Y41536D01*
X96063Y40736D01*
X95263Y41536D01*
X107861D02*
X108661Y42336D01*
X109461Y41536D01*
X108661Y40736D01*
X107861Y41536D01*
X114161D02*
X114961Y42336D01*
X115761Y41536D01*
X114961Y40736D01*
X114161Y41536D01*
X88964D02*
X89764Y42336D01*
X90564Y41536D01*
X89764Y40736D01*
X88964Y41536D01*
Y36417D02*
X89764Y37218D01*
X90564Y36417D01*
X89764Y35618D01*
X88964Y36417D01*
X114161D02*
X114961Y37218D01*
X115761Y36417D01*
X114961Y35618D01*
X114161Y36417D01*
X107861D02*
X108661Y37218D01*
X109461Y36417D01*
X108661Y35618D01*
X107861Y36417D01*
X95263D02*
X96063Y37218D01*
X96863Y36417D01*
X96063Y35618D01*
X95263Y36417D01*
X101562D02*
X102362Y37218D01*
X103162Y36417D01*
X102362Y35618D01*
X101562Y36417D01*
X88964Y31299D02*
X89764Y32099D01*
X90564Y31299D01*
X89764Y30499D01*
X88964Y31299D01*
X114161D02*
X114961Y32099D01*
X115761Y31299D01*
X114961Y30499D01*
X114161Y31299D01*
X107861D02*
X108661Y32099D01*
X109461Y31299D01*
X108661Y30499D01*
X107861Y31299D01*
X95263D02*
X96063Y32099D01*
X96863Y31299D01*
X96063Y30499D01*
X95263Y31299D01*
X101562D02*
X102362Y32099D01*
X103162Y31299D01*
X102362Y30499D01*
X101562Y31299D01*
Y46654D02*
X102362Y47454D01*
X103162Y46654D01*
X102362Y45854D01*
X101562Y46654D01*
X95263D02*
X96063Y47454D01*
X96863Y46654D01*
X96063Y45854D01*
X95263Y46654D01*
X107861D02*
X108661Y47454D01*
X109461Y46654D01*
X108661Y45854D01*
X107861Y46654D01*
X114161D02*
X114961Y47454D01*
X115761Y46654D01*
X114961Y45854D01*
X114161Y46654D01*
X88964D02*
X89764Y47454D01*
X90564Y46654D01*
X89764Y45854D01*
X88964Y46654D01*
X101562Y51772D02*
X102362Y52572D01*
X103162Y51772D01*
X102362Y50972D01*
X101562Y51772D01*
X95263D02*
X96063Y52572D01*
X96863Y51772D01*
X96063Y50972D01*
X95263Y51772D01*
X107861D02*
X108661Y52572D01*
X109461Y51772D01*
X108661Y50972D01*
X107861Y51772D01*
X114161D02*
X114961Y52572D01*
X115761Y51772D01*
X114961Y50972D01*
X114161Y51772D01*
X88964D02*
X89764Y52572D01*
X90564Y51772D01*
X89764Y50972D01*
X88964Y51772D01*
X89751Y62008D02*
X90551Y62808D01*
X91351Y62008D01*
X90551Y61208D01*
X89751Y62008D01*
X90539Y67126D02*
X91339Y67926D01*
X92139Y67126D01*
X91339Y66326D01*
X90539Y67126D01*
X112586D02*
X113386Y67926D01*
X114186Y67126D01*
X113386Y66326D01*
X112586Y67126D01*
X113373Y62008D02*
X114173Y62808D01*
X114973Y62008D01*
X114173Y61208D01*
X113373Y62008D01*
X101562D02*
X102362Y62808D01*
X103162Y62008D01*
X102362Y61208D01*
X101562Y62008D01*
X95657D02*
X96457Y62808D01*
X97257Y62008D01*
X96457Y61208D01*
X95657Y62008D01*
X107468D02*
X108268Y62808D01*
X109068Y62008D01*
X108268Y61208D01*
X107468Y62008D01*
X101562Y67126D02*
X102362Y67926D01*
X103162Y67126D01*
X102362Y66326D01*
X101562Y67126D01*
X96050D02*
X96850Y67926D01*
X97650Y67126D01*
X96850Y66326D01*
X96050Y67126D01*
X107074D02*
X107874Y67926D01*
X108674Y67126D01*
X107874Y66326D01*
X107074Y67126D01*
X93688Y87599D02*
X94488Y88398D01*
X95288Y87599D01*
X94488Y86799D01*
X93688Y87599D01*
X109436D02*
X110236Y88398D01*
X111036Y87599D01*
X110236Y86799D01*
X109436Y87599D01*
X105499D02*
X106299Y88398D01*
X107099Y87599D01*
X106299Y86799D01*
X105499Y87599D01*
X97625D02*
X98425Y88398D01*
X99225Y87599D01*
X98425Y86799D01*
X97625Y87599D01*
X101562D02*
X102362Y88398D01*
X103162Y87599D01*
X102362Y86799D01*
X101562Y87599D01*
Y82480D02*
X102362Y83280D01*
X103162Y82480D01*
X102362Y81680D01*
X101562Y82480D01*
X97232D02*
X98032Y83280D01*
X98831Y82480D01*
X98032Y81680D01*
X97232Y82480D01*
X105893D02*
X106693Y83280D01*
X107493Y82480D01*
X106693Y81680D01*
X105893Y82480D01*
X110224D02*
X111024Y83280D01*
X111824Y82480D01*
X111024Y81680D01*
X110224Y82480D01*
X92901D02*
X93701Y83280D01*
X94501Y82480D01*
X93701Y81680D01*
X92901Y82480D01*
X92113Y77362D02*
X92913Y78162D01*
X93713Y77362D01*
X92913Y76562D01*
X92113Y77362D01*
X111011D02*
X111811Y78162D01*
X112611Y77362D01*
X111811Y76562D01*
X111011Y77362D01*
X106287D02*
X107087Y78162D01*
X107887Y77362D01*
X107087Y76562D01*
X106287Y77362D01*
X96838D02*
X97638Y78162D01*
X98438Y77362D01*
X97638Y76562D01*
X96838Y77362D01*
X101562D02*
X102362Y78162D01*
X103162Y77362D01*
X102362Y76562D01*
X101562Y77362D01*
X88964Y56890D02*
X89764Y57690D01*
X90564Y56890D01*
X89764Y56090D01*
X88964Y56890D01*
X114161D02*
X114961Y57690D01*
X115761Y56890D01*
X114961Y56090D01*
X114161Y56890D01*
X107861D02*
X108661Y57690D01*
X109461Y56890D01*
X108661Y56090D01*
X107861Y56890D01*
X95263D02*
X96063Y57690D01*
X96863Y56890D01*
X96063Y56090D01*
X95263Y56890D01*
X101562D02*
X102362Y57690D01*
X103162Y56890D01*
X102362Y56090D01*
X101562Y56890D01*
X106680Y72244D02*
X107480Y73044D01*
X108280Y72244D01*
X107480Y71444D01*
X106680Y72244D01*
X96444D02*
X97244Y73044D01*
X98044Y72244D01*
X97244Y71444D01*
X96444Y72244D01*
X91326D02*
X92126Y73044D01*
X92926Y72244D01*
X92126Y71444D01*
X91326Y72244D01*
X111798D02*
X112598Y73044D01*
X113398Y72244D01*
X112598Y71444D01*
X111798Y72244D01*
X101562D02*
X102362Y73044D01*
X103162Y72244D01*
X102362Y71444D01*
X101562Y72244D01*
X136144Y149543D02*
X136944Y150343D01*
X137744Y149543D01*
X136944Y148743D01*
X136144Y149543D01*
X127153Y207480D02*
X127953Y208280D01*
X128753Y207480D01*
X127953Y206680D01*
X127153Y207480D01*
X87389Y194882D02*
X88189Y195682D01*
X88989Y194882D01*
X88189Y194082D01*
X87389Y194882D01*
X197231Y206299D02*
X198031Y207099D01*
X198831Y206299D01*
X198031Y205499D01*
X197231Y206299D01*
X81090Y147244D02*
X81890Y148044D01*
X82690Y147244D01*
X81890Y146444D01*
X81090Y147244D01*
X82665Y173425D02*
X83465Y174225D01*
X84265Y173425D01*
X83465Y172625D01*
X82665Y173425D01*
X86208Y158071D02*
X87008Y158871D01*
X87808Y158071D01*
X87008Y157271D01*
X86208Y158071D01*
X116917D02*
X117717Y158871D01*
X118517Y158071D01*
X117717Y157271D01*
X116917Y158071D01*
X101562D02*
X102362Y158871D01*
X103162Y158071D01*
X102362Y157271D01*
X101562Y158071D01*
X91326D02*
X92126Y158871D01*
X92926Y158071D01*
X92126Y157271D01*
X91326Y158071D01*
X111798D02*
X112598Y158871D01*
X113398Y158071D01*
X112598Y157271D01*
X111798Y158071D01*
X106680D02*
X107480Y158871D01*
X108280Y158071D01*
X107480Y157271D01*
X106680Y158071D01*
X96444D02*
X97244Y158871D01*
X98044Y158071D01*
X97244Y157271D01*
X96444Y158071D01*
X120460Y173425D02*
X121260Y174225D01*
X122060Y173425D01*
X121260Y172625D01*
X120460Y173425D01*
X114554Y147835D02*
X115354Y148635D01*
X116154Y147835D01*
X115354Y147035D01*
X114554Y147835D01*
X115735Y152953D02*
X116535Y153753D01*
X117335Y152953D01*
X116535Y152153D01*
X115735Y152953D01*
X87389D02*
X88189Y153753D01*
X88989Y152953D01*
X88189Y152153D01*
X87389Y152953D01*
X88570Y147835D02*
X89370Y148635D01*
X90170Y147835D01*
X89370Y147035D01*
X88570Y147835D01*
X89751Y142717D02*
X90551Y143517D01*
X91351Y142717D01*
X90551Y141917D01*
X89751Y142717D01*
X113373D02*
X114173Y143517D01*
X114973Y142717D01*
X114173Y141917D01*
X113373Y142717D01*
X140145Y95669D02*
X140945Y96469D01*
X141745Y95669D01*
X140945Y94869D01*
X140145Y95669D01*
X134239Y117717D02*
X135039Y118517D01*
X135839Y117717D01*
X135039Y116917D01*
X134239Y117717D01*
X112154Y187402D02*
X112954Y188202D01*
X113754Y187402D01*
X112954Y186602D01*
X112154Y187402D01*
X134043Y139370D02*
X134843Y140170D01*
X135643Y139370D01*
X134843Y138570D01*
X134043Y139370D01*
X171444Y182087D02*
X172244Y182887D01*
X173044Y182087D01*
X172244Y181287D01*
X171444Y182087D01*
X164554D02*
X165354Y182887D01*
X166154Y182087D01*
X165354Y181287D01*
X164554Y182087D01*
X101562Y92717D02*
X102362Y93517D01*
X103162Y92717D01*
X102362Y91917D01*
X101562Y92717D01*
X105105D02*
X105905Y93517D01*
X106705Y92717D01*
X105905Y91917D01*
X105105Y92717D01*
X98019D02*
X98819Y93517D01*
X99619Y92717D01*
X98819Y91917D01*
X98019Y92717D01*
X94476D02*
X95276Y93517D01*
X96076Y92717D01*
X95276Y91917D01*
X94476Y92717D01*
X108649D02*
X109449Y93517D01*
X110249Y92717D01*
X109449Y91917D01*
X108649Y92717D01*
X101562Y173425D02*
X102362Y174225D01*
X103162Y173425D01*
X102362Y172625D01*
X101562Y173425D01*
X107861D02*
X108661Y174225D01*
X109461Y173425D01*
X108661Y172625D01*
X107861Y173425D01*
X95263D02*
X96063Y174225D01*
X96863Y173425D01*
X96063Y172625D01*
X95263Y173425D01*
X88964D02*
X89764Y174225D01*
X90564Y173425D01*
X89764Y172625D01*
X88964Y173425D01*
X114161D02*
X114961Y174225D01*
X115761Y173425D01*
X114961Y172625D01*
X114161Y173425D01*
X101562Y152953D02*
X102362Y153753D01*
X103162Y152953D01*
X102362Y152153D01*
X101562Y152953D01*
X106287D02*
X107087Y153753D01*
X107887Y152953D01*
X107087Y152153D01*
X106287Y152953D01*
X96838D02*
X97638Y153753D01*
X98438Y152953D01*
X97638Y152153D01*
X96838Y152953D01*
X92113D02*
X92913Y153753D01*
X93713Y152953D01*
X92913Y152153D01*
X92113Y152953D01*
X111011D02*
X111811Y153753D01*
X112611Y152953D01*
X111811Y152153D01*
X111011Y152953D01*
X110224Y147835D02*
X111024Y148635D01*
X111824Y147835D01*
X111024Y147035D01*
X110224Y147835D01*
X92901D02*
X93701Y148635D01*
X94501Y147835D01*
X93701Y147035D01*
X92901Y147835D01*
X97232D02*
X98032Y148635D01*
X98831Y147835D01*
X98032Y147035D01*
X97232Y147835D01*
X105893D02*
X106693Y148635D01*
X107493Y147835D01*
X106693Y147035D01*
X105893Y147835D01*
X101562D02*
X102362Y148635D01*
X103162Y147835D01*
X102362Y147035D01*
X101562Y147835D01*
Y142717D02*
X102362Y143517D01*
X103162Y142717D01*
X102362Y141917D01*
X101562Y142717D01*
X105499D02*
X106299Y143517D01*
X107099Y142717D01*
X106299Y141917D01*
X105499Y142717D01*
X97625D02*
X98425Y143517D01*
X99225Y142717D01*
X98425Y141917D01*
X97625Y142717D01*
X93688D02*
X94488Y143517D01*
X95288Y142717D01*
X94488Y141917D01*
X93688Y142717D01*
X109436D02*
X110236Y143517D01*
X111036Y142717D01*
X110236Y141917D01*
X109436Y142717D01*
X108649Y137598D02*
X109449Y138398D01*
X110249Y137598D01*
X109449Y136798D01*
X108649Y137598D01*
X94476D02*
X95276Y138398D01*
X96076Y137598D01*
X95276Y136798D01*
X94476Y137598D01*
X98019D02*
X98819Y138398D01*
X99619Y137598D01*
X98819Y136798D01*
X98019Y137598D01*
X105105D02*
X105905Y138398D01*
X106705Y137598D01*
X105905Y136798D01*
X105105Y137598D01*
X101562D02*
X102362Y138398D01*
X103162Y137598D01*
X102362Y136798D01*
X101562Y137598D01*
X65145Y119291D02*
X65945Y120091D01*
X66745Y119291D01*
X65945Y118491D01*
X65145Y119291D01*
X41523Y86614D02*
X42323Y87414D01*
X43123Y86614D01*
X42323Y85814D01*
X41523Y86614D01*
X37586D02*
X38386Y87414D01*
X39186Y86614D01*
X38386Y85814D01*
X37586Y86614D01*
X51365D02*
X52165Y87414D01*
X52965Y86614D01*
X52165Y85814D01*
X51365Y86614D01*
X47428D02*
X48228Y87414D01*
X49028Y86614D01*
X48228Y85814D01*
X47428Y86614D01*
X41523Y108071D02*
X42323Y108871D01*
X43123Y108071D01*
X42323Y107271D01*
X41523Y108071D01*
X37586D02*
X38386Y108871D01*
X39186Y108071D01*
X38386Y107271D01*
X37586Y108071D01*
X49397D02*
X50197Y108871D01*
X50997Y108071D01*
X50197Y107271D01*
X49397Y108071D01*
X45460D02*
X46260Y108871D01*
X47060Y108071D01*
X46260Y107271D01*
X45460Y108071D01*
X57074Y197638D02*
X57874Y198438D01*
X58674Y197638D01*
X57874Y196838D01*
X57074Y197638D01*
X39554Y129921D02*
X40354Y130721D01*
X41154Y129921D01*
X40354Y129121D01*
X39554Y129921D01*
X35617D02*
X36417Y130721D01*
X37217Y129921D01*
X36417Y129121D01*
X35617Y129921D01*
X49397D02*
X50197Y130721D01*
X50997Y129921D01*
X50197Y129121D01*
X49397Y129921D01*
X45460D02*
X46260Y130721D01*
X47060Y129921D01*
X46260Y129121D01*
X45460Y129921D01*
X13373Y72441D02*
X14173Y73241D01*
X14973Y72441D01*
X14173Y71641D01*
X13373Y72441D01*
X106287Y98622D02*
X107087Y99422D01*
X107887Y98622D01*
X107087Y97822D01*
X106287Y98622D01*
X101562D02*
X102362Y99422D01*
X103162Y98622D01*
X102362Y97822D01*
X101562Y98622D01*
X106287Y103347D02*
X107087Y104147D01*
X107887Y103347D01*
X107087Y102547D01*
X106287Y103347D01*
X101562D02*
X102362Y104147D01*
X103162Y103347D01*
X102362Y102547D01*
X101562Y103347D01*
X106287Y117520D02*
X107087Y118320D01*
X107887Y117520D01*
X107087Y116720D01*
X106287Y117520D01*
X101562D02*
X102362Y118320D01*
X103162Y117520D01*
X102362Y116720D01*
X101562Y117520D01*
X96838D02*
X97638Y118320D01*
X98438Y117520D01*
X97638Y116720D01*
X96838Y117520D01*
X106287Y122244D02*
X107087Y123044D01*
X107887Y122244D01*
X107087Y121444D01*
X106287Y122244D01*
X101562D02*
X102362Y123044D01*
X103162Y122244D01*
X102362Y121444D01*
X101562Y122244D01*
X96838D02*
X97638Y123044D01*
X98438Y122244D01*
X97638Y121444D01*
X96838Y122244D01*
X106287Y126969D02*
X107087Y127769D01*
X107887Y126969D01*
X107087Y126169D01*
X106287Y126969D01*
X101562D02*
X102362Y127769D01*
X103162Y126969D01*
X102362Y126169D01*
X101562Y126969D01*
X96838D02*
X97638Y127769D01*
X98438Y126969D01*
X97638Y126169D01*
X96838Y126969D01*
X106287Y131693D02*
X107087Y132493D01*
X107887Y131693D01*
X107087Y130893D01*
X106287Y131693D01*
X101562D02*
X102362Y132493D01*
X103162Y131693D01*
X102362Y130893D01*
X101562Y131693D01*
X96838D02*
X97638Y132493D01*
X98438Y131693D01*
X97638Y130893D01*
X96838Y131693D01*
Y98622D02*
X97638Y99422D01*
X98438Y98622D01*
X97638Y97822D01*
X96838Y98622D01*
Y103347D02*
X97638Y104147D01*
X98438Y103347D01*
X97638Y102547D01*
X96838Y103347D01*
X96050Y163189D02*
X96850Y163989D01*
X97650Y163189D01*
X96850Y162389D01*
X96050Y163189D01*
X107074D02*
X107874Y163989D01*
X108674Y163189D01*
X107874Y162389D01*
X107074Y163189D01*
X101562D02*
X102362Y163989D01*
X103162Y163189D01*
X102362Y162389D01*
X101562Y163189D01*
X95657Y168307D02*
X96457Y169107D01*
X97257Y168307D01*
X96457Y167507D01*
X95657Y168307D01*
X107468D02*
X108268Y169107D01*
X109068Y168307D01*
X108268Y167507D01*
X107468Y168307D01*
X101562D02*
X102362Y169107D01*
X103162Y168307D01*
X102362Y167507D01*
X101562Y168307D01*
X89751D02*
X90551Y169107D01*
X91351Y168307D01*
X90551Y167507D01*
X89751Y168307D01*
X90539Y163189D02*
X91339Y163989D01*
X92139Y163189D01*
X91339Y162389D01*
X90539Y163189D01*
X83846Y168307D02*
X84646Y169107D01*
X85446Y168307D01*
X84646Y167507D01*
X83846Y168307D01*
X85027Y163189D02*
X85827Y163989D01*
X86627Y163189D01*
X85827Y162389D01*
X85027Y163189D01*
X118098D02*
X118898Y163989D01*
X119698Y163189D01*
X118898Y162389D01*
X118098Y163189D01*
X119279Y168307D02*
X120079Y169107D01*
X120879Y168307D01*
X120079Y167507D01*
X119279Y168307D01*
X112586Y163189D02*
X113386Y163989D01*
X114186Y163189D01*
X113386Y162389D01*
X112586Y163189D01*
X113373Y168307D02*
X114173Y169107D01*
X114973Y168307D01*
X114173Y167507D01*
X113373Y168307D01*
X123413Y29528D02*
X124213Y30328D01*
X125013Y29528D01*
X124213Y28728D01*
X123413Y29528D01*
Y42126D02*
X124213Y42926D01*
X125013Y42126D01*
X124213Y41326D01*
X123413Y42126D01*
X165539Y28740D02*
X166339Y29540D01*
X167139Y28740D01*
X166339Y27940D01*
X165539Y28740D01*
Y40945D02*
X166339Y41745D01*
X167139Y40945D01*
X166339Y40145D01*
X165539Y40945D01*
X78924Y42126D02*
X79724Y42926D01*
X80524Y42126D01*
X79724Y41326D01*
X78924Y42126D01*
Y29528D02*
X79724Y30328D01*
X80524Y29528D01*
X79724Y28728D01*
X78924Y29528D01*
X37586Y28740D02*
X38386Y29540D01*
X39186Y28740D01*
X38386Y27940D01*
X37586Y28740D01*
Y40945D02*
X38386Y41745D01*
X39186Y40945D01*
X38386Y40145D01*
X37586Y40945D01*
X142113Y151969D02*
X142913Y152769D01*
X143713Y151969D01*
X142913Y151169D01*
X142113Y151969D01*
X125184Y138583D02*
X125984Y139383D01*
X126784Y138583D01*
X125984Y137783D01*
X125184Y138583D01*
X148806Y129921D02*
X149606Y130721D01*
X150406Y129921D01*
X149606Y129121D01*
X148806Y129921D01*
X209830Y133268D02*
X210630Y134068D01*
X211430Y133268D01*
X210630Y132468D01*
X209830Y133268D01*
X195657Y124803D02*
X196457Y125603D01*
X197257Y124803D01*
X196457Y124003D01*
X195657Y124803D01*
X152350Y134252D02*
X153150Y135052D01*
X153950Y134252D01*
X153150Y133452D01*
X152350Y134252D01*
X16523Y62598D02*
X17323Y63398D01*
X18123Y62598D01*
X17323Y61798D01*
X16523Y62598D01*
X82154Y184055D02*
X82954Y184855D01*
X83754Y184055D01*
X82954Y183255D01*
X82154Y184055D01*
X24791Y153543D02*
X25591Y154343D01*
X26391Y153543D01*
X25591Y152743D01*
X24791Y153543D01*
D87*
X233084Y41339D02*
G03*
X233084Y41339I-800J0D01*
G01*
Y49213D02*
G03*
X233084Y49213I-800J0D01*
G01*
M02*
