G04 Layer_Color=16711935*
%FSLAX25Y25*%
%MOIN*%
G70*
G01*
G75*
%ADD34C,0.00787*%
%ADD35C,0.01575*%
%ADD36C,0.00984*%
%ADD37C,0.00591*%
%ADD53C,0.00394*%
G36*
X1121080Y-83717D02*
Y-84003D01*
Y-84290D01*
Y-84576D01*
Y-84862D01*
Y-85149D01*
Y-85435D01*
Y-85721D01*
Y-86007D01*
Y-86294D01*
Y-86580D01*
Y-86866D01*
Y-87153D01*
Y-87439D01*
Y-87725D01*
Y-88012D01*
Y-88298D01*
Y-88584D01*
Y-88871D01*
Y-89157D01*
Y-89443D01*
X1120793D01*
Y-89730D01*
Y-90016D01*
Y-90302D01*
Y-90588D01*
Y-90875D01*
X1120507D01*
Y-91161D01*
Y-91448D01*
Y-91734D01*
Y-92020D01*
X1120221D01*
Y-92306D01*
Y-92593D01*
Y-92879D01*
Y-93165D01*
X1119934D01*
Y-93452D01*
Y-93738D01*
Y-94024D01*
X1119648D01*
Y-94311D01*
Y-94597D01*
Y-94883D01*
X1119362D01*
Y-95170D01*
Y-95456D01*
Y-95742D01*
X1119075D01*
Y-96029D01*
Y-96315D01*
Y-96601D01*
X1118789D01*
Y-96887D01*
Y-97174D01*
X1118503D01*
Y-97460D01*
Y-97746D01*
X1118217D01*
Y-98033D01*
Y-98319D01*
Y-98605D01*
X1117930D01*
Y-98892D01*
Y-99178D01*
X1117644D01*
Y-99464D01*
Y-99751D01*
Y-100037D01*
X1117358D01*
Y-100323D01*
Y-100610D01*
X1117071D01*
Y-100896D01*
Y-101182D01*
Y-101468D01*
X1116785D01*
Y-101755D01*
Y-102041D01*
X1116499D01*
Y-102327D01*
Y-102614D01*
Y-102900D01*
X1116212D01*
Y-103186D01*
Y-103473D01*
X1115926D01*
Y-103759D01*
Y-104045D01*
Y-104332D01*
X1115640D01*
Y-104618D01*
Y-104904D01*
X1115353D01*
Y-105191D01*
Y-105477D01*
Y-105763D01*
X1115067D01*
Y-106049D01*
Y-106336D01*
X1114781D01*
Y-106622D01*
Y-106908D01*
Y-107195D01*
X1114494D01*
Y-107481D01*
Y-107767D01*
X1114208D01*
Y-108054D01*
Y-108340D01*
Y-108626D01*
X1113922D01*
Y-108913D01*
Y-109199D01*
X1113636D01*
Y-109485D01*
Y-109772D01*
Y-110058D01*
X1113349D01*
Y-110344D01*
Y-110630D01*
X1113063D01*
Y-110917D01*
Y-111203D01*
Y-111489D01*
X1112776D01*
Y-111776D01*
Y-112062D01*
X1112490D01*
Y-112348D01*
Y-112635D01*
Y-112921D01*
X1112204D01*
Y-113207D01*
Y-113494D01*
X1111918D01*
Y-113780D01*
Y-114066D01*
Y-114353D01*
X1111631D01*
Y-114639D01*
Y-114925D01*
X1111345D01*
Y-115211D01*
Y-115498D01*
Y-115784D01*
X1111059D01*
Y-116070D01*
Y-116357D01*
X1110772D01*
Y-116643D01*
Y-116929D01*
Y-117216D01*
X1110486D01*
Y-117502D01*
Y-117788D01*
X1110200D01*
Y-118075D01*
Y-118361D01*
Y-118647D01*
X1109913D01*
Y-118933D01*
Y-119220D01*
X1109627D01*
Y-119506D01*
Y-119792D01*
Y-120079D01*
X1109341D01*
Y-120365D01*
Y-120651D01*
X1109054D01*
Y-120938D01*
Y-121224D01*
X1108768D01*
Y-121510D01*
Y-121797D01*
X1108482D01*
Y-122083D01*
Y-122369D01*
Y-122656D01*
X1108195D01*
Y-122942D01*
X1107909D01*
Y-123228D01*
Y-123514D01*
Y-123801D01*
X1107623D01*
Y-124087D01*
X1107337D01*
Y-124373D01*
Y-124660D01*
X1107050D01*
Y-124946D01*
Y-125232D01*
X1106764D01*
Y-125519D01*
Y-125805D01*
X1106478D01*
Y-126091D01*
Y-126378D01*
X1106191D01*
Y-126664D01*
X1105905D01*
Y-126950D01*
Y-127237D01*
X1105619D01*
Y-127523D01*
Y-127809D01*
X1105332D01*
Y-128095D01*
X1105046D01*
Y-128382D01*
X1104760D01*
Y-128668D01*
Y-128954D01*
X1104473D01*
Y-129241D01*
X1104187D01*
Y-129527D01*
Y-129813D01*
X1103901D01*
Y-130100D01*
X1103615D01*
Y-130386D01*
X1103328D01*
Y-130672D01*
Y-130959D01*
X1103042D01*
Y-131245D01*
X1102756D01*
Y-131531D01*
X1102469D01*
Y-131818D01*
X1102183D01*
Y-132104D01*
X1101897D01*
Y-132390D01*
Y-132676D01*
X1101610D01*
Y-132963D01*
X1101324D01*
Y-133249D01*
X1101038D01*
Y-133535D01*
X1100751D01*
Y-133822D01*
X1100465D01*
Y-134108D01*
X1100179D01*
Y-134394D01*
X1099892D01*
Y-134681D01*
X1099320D01*
Y-134967D01*
X1099034D01*
Y-135253D01*
X1098747D01*
Y-135540D01*
X1098461D01*
Y-135826D01*
X1098175D01*
Y-136112D01*
X1097602D01*
Y-136399D01*
X1097316D01*
Y-136685D01*
X1096743D01*
Y-136971D01*
X1096457D01*
Y-137258D01*
X1095884D01*
Y-137544D01*
X1095598D01*
Y-137830D01*
X1095025D01*
Y-138117D01*
X1094452D01*
Y-138403D01*
X1093880D01*
Y-138689D01*
X1093307D01*
Y-138975D01*
X1092735D01*
Y-139262D01*
X1091876D01*
Y-139548D01*
X1091303D01*
Y-139834D01*
X1090444D01*
Y-140121D01*
X1089299D01*
Y-140407D01*
X1088154D01*
Y-140693D01*
X1086436D01*
Y-140980D01*
X1084432D01*
Y-141266D01*
X1084145D01*
Y-140980D01*
Y-140693D01*
Y-140407D01*
Y-140121D01*
Y-139834D01*
Y-139548D01*
Y-139262D01*
Y-138975D01*
Y-138689D01*
Y-138403D01*
Y-138117D01*
Y-137830D01*
Y-137544D01*
Y-137258D01*
Y-136971D01*
Y-136685D01*
Y-136399D01*
Y-136112D01*
Y-135826D01*
Y-135540D01*
Y-135253D01*
Y-134967D01*
Y-134681D01*
Y-134394D01*
Y-134108D01*
Y-133822D01*
Y-133535D01*
Y-133249D01*
Y-132963D01*
Y-132676D01*
Y-132390D01*
Y-132104D01*
Y-131818D01*
X1084718D01*
Y-131531D01*
X1085291D01*
Y-131245D01*
X1085863D01*
Y-130959D01*
X1086436D01*
Y-130672D01*
X1087008D01*
Y-130386D01*
X1087581D01*
Y-130100D01*
X1087867D01*
Y-129813D01*
X1088440D01*
Y-129527D01*
X1088726D01*
Y-129241D01*
X1089299D01*
Y-128954D01*
X1089585D01*
Y-128668D01*
X1089872D01*
Y-128382D01*
X1090444D01*
Y-128095D01*
X1090730D01*
Y-127809D01*
X1091017D01*
Y-127523D01*
X1091303D01*
Y-127237D01*
X1091589D01*
Y-126950D01*
X1091876D01*
Y-126664D01*
X1092162D01*
Y-126378D01*
X1092448D01*
Y-126091D01*
X1092735D01*
Y-125805D01*
X1093021D01*
Y-125519D01*
X1093307D01*
Y-125232D01*
X1093594D01*
Y-124946D01*
Y-124660D01*
X1093880D01*
Y-124373D01*
X1094166D01*
Y-124087D01*
X1094452D01*
Y-123801D01*
Y-123514D01*
X1094739D01*
Y-123228D01*
X1095025D01*
Y-122942D01*
Y-122656D01*
X1095311D01*
Y-122369D01*
Y-122083D01*
X1095598D01*
Y-121797D01*
X1095884D01*
Y-121510D01*
Y-121224D01*
X1096170D01*
Y-120938D01*
Y-120651D01*
X1096457D01*
Y-120365D01*
Y-120079D01*
X1094739D01*
Y-119792D01*
X1092735D01*
Y-119506D01*
X1091589D01*
Y-119220D01*
X1091017D01*
Y-118933D01*
X1090158D01*
Y-118647D01*
X1089585D01*
Y-118361D01*
X1089299D01*
Y-118075D01*
X1088726D01*
Y-117788D01*
X1088440D01*
Y-117502D01*
X1088154D01*
Y-117216D01*
X1087867D01*
Y-116929D01*
X1087581D01*
Y-116643D01*
X1087295D01*
Y-116357D01*
Y-116070D01*
X1087008D01*
Y-115784D01*
X1086722D01*
Y-115498D01*
Y-115211D01*
X1086436D01*
Y-114925D01*
Y-114639D01*
X1086149D01*
Y-114353D01*
Y-114066D01*
X1085863D01*
Y-113780D01*
Y-113494D01*
Y-113207D01*
X1085577D01*
Y-112921D01*
Y-112635D01*
Y-112348D01*
Y-112062D01*
X1085291D01*
Y-111776D01*
Y-111489D01*
Y-111203D01*
Y-110917D01*
Y-110630D01*
Y-110344D01*
Y-110058D01*
X1085004D01*
Y-109772D01*
Y-109485D01*
Y-109199D01*
Y-108913D01*
Y-108626D01*
Y-108340D01*
Y-108054D01*
Y-107767D01*
Y-107481D01*
Y-107195D01*
Y-106908D01*
Y-106622D01*
Y-106336D01*
Y-106049D01*
Y-105763D01*
X1084718D01*
Y-105477D01*
Y-105191D01*
Y-104904D01*
Y-104618D01*
Y-104332D01*
Y-104045D01*
Y-103759D01*
Y-103473D01*
Y-103186D01*
Y-102900D01*
Y-102614D01*
Y-102327D01*
Y-102041D01*
Y-101755D01*
Y-101468D01*
X1084432D01*
Y-101182D01*
Y-100896D01*
Y-100610D01*
Y-100323D01*
Y-100037D01*
Y-99751D01*
Y-99464D01*
Y-99178D01*
Y-98892D01*
Y-98605D01*
Y-98319D01*
Y-98033D01*
Y-97746D01*
Y-97460D01*
Y-97174D01*
Y-96887D01*
X1084145D01*
Y-96601D01*
Y-96315D01*
Y-96029D01*
Y-95742D01*
Y-95456D01*
Y-95170D01*
Y-94883D01*
Y-94597D01*
Y-94311D01*
Y-94024D01*
Y-93738D01*
Y-93452D01*
Y-93165D01*
Y-92879D01*
Y-92593D01*
Y-92306D01*
X1083859D01*
Y-92020D01*
Y-91734D01*
Y-91448D01*
Y-91161D01*
Y-90875D01*
Y-90588D01*
Y-90302D01*
Y-90016D01*
Y-89730D01*
Y-89443D01*
Y-89157D01*
Y-88871D01*
Y-88584D01*
Y-88298D01*
X1083573D01*
Y-88012D01*
Y-87725D01*
Y-87439D01*
Y-87153D01*
Y-86866D01*
Y-86580D01*
Y-86294D01*
Y-86007D01*
Y-85721D01*
Y-85435D01*
Y-85149D01*
Y-84862D01*
Y-84576D01*
Y-84290D01*
Y-84003D01*
Y-83717D01*
X1083286D01*
Y-83431D01*
X1097029D01*
Y-83717D01*
Y-84003D01*
Y-84290D01*
Y-84576D01*
Y-84862D01*
Y-85149D01*
Y-85435D01*
Y-85721D01*
Y-86007D01*
Y-86294D01*
Y-86580D01*
Y-86866D01*
Y-87153D01*
Y-87439D01*
X1097316D01*
Y-87725D01*
Y-88012D01*
Y-88298D01*
Y-88584D01*
Y-88871D01*
Y-89157D01*
Y-89443D01*
Y-89730D01*
Y-90016D01*
Y-90302D01*
Y-90588D01*
Y-90875D01*
Y-91161D01*
Y-91448D01*
Y-91734D01*
Y-92020D01*
Y-92306D01*
Y-92593D01*
Y-92879D01*
Y-93165D01*
Y-93452D01*
Y-93738D01*
Y-94024D01*
Y-94311D01*
Y-94597D01*
Y-94883D01*
Y-95170D01*
Y-95456D01*
Y-95742D01*
Y-96029D01*
Y-96315D01*
Y-96601D01*
Y-96887D01*
Y-97174D01*
Y-97460D01*
Y-97746D01*
Y-98033D01*
Y-98319D01*
Y-98605D01*
Y-98892D01*
Y-99178D01*
X1097602D01*
Y-99464D01*
X1097316D01*
Y-99751D01*
Y-100037D01*
X1097602D01*
Y-100323D01*
Y-100610D01*
Y-100896D01*
Y-101182D01*
Y-101468D01*
Y-101755D01*
Y-102041D01*
Y-102327D01*
Y-102614D01*
Y-102900D01*
Y-103186D01*
Y-103473D01*
Y-103759D01*
Y-104045D01*
Y-104332D01*
Y-104618D01*
Y-104904D01*
Y-105191D01*
Y-105477D01*
Y-105763D01*
Y-106049D01*
Y-106336D01*
Y-106622D01*
Y-106908D01*
Y-107195D01*
Y-107481D01*
X1097888D01*
Y-107767D01*
Y-108054D01*
Y-108340D01*
X1098175D01*
Y-108626D01*
X1098461D01*
Y-108913D01*
X1098747D01*
Y-109199D01*
X1099606D01*
Y-109485D01*
X1100465D01*
Y-109199D01*
X1100751D01*
Y-108913D01*
Y-108626D01*
Y-108340D01*
X1101038D01*
Y-108054D01*
Y-107767D01*
X1101324D01*
Y-107481D01*
Y-107195D01*
Y-106908D01*
X1101610D01*
Y-106622D01*
Y-106336D01*
Y-106049D01*
X1101897D01*
Y-105763D01*
Y-105477D01*
Y-105191D01*
X1102183D01*
Y-104904D01*
Y-104618D01*
Y-104332D01*
X1102469D01*
Y-104045D01*
Y-103759D01*
X1102756D01*
Y-103473D01*
Y-103186D01*
Y-102900D01*
X1103042D01*
Y-102614D01*
Y-102327D01*
Y-102041D01*
X1103328D01*
Y-101755D01*
Y-101468D01*
Y-101182D01*
X1103615D01*
Y-100896D01*
Y-100610D01*
X1103901D01*
Y-100323D01*
Y-100037D01*
Y-99751D01*
X1104187D01*
Y-99464D01*
Y-99178D01*
Y-98892D01*
X1104473D01*
Y-98605D01*
Y-98319D01*
Y-98033D01*
X1104760D01*
Y-97746D01*
Y-97460D01*
X1105046D01*
Y-97174D01*
Y-96887D01*
Y-96601D01*
X1105332D01*
Y-96315D01*
Y-96029D01*
Y-95742D01*
X1105619D01*
Y-95456D01*
Y-95170D01*
Y-94883D01*
X1105905D01*
Y-94597D01*
Y-94311D01*
X1106191D01*
Y-94024D01*
Y-93738D01*
Y-93452D01*
X1106478D01*
Y-93165D01*
Y-92879D01*
Y-92593D01*
X1106764D01*
Y-92306D01*
Y-92020D01*
Y-91734D01*
X1107050D01*
Y-91448D01*
Y-91161D01*
Y-90875D01*
Y-90588D01*
X1107337D01*
Y-90302D01*
Y-90016D01*
Y-89730D01*
Y-89443D01*
X1107623D01*
Y-89157D01*
Y-88871D01*
Y-88584D01*
Y-88298D01*
Y-88012D01*
X1107909D01*
Y-87725D01*
Y-87439D01*
Y-87153D01*
Y-86866D01*
Y-86580D01*
Y-86294D01*
X1108195D01*
Y-86007D01*
Y-85721D01*
Y-85435D01*
Y-85149D01*
Y-84862D01*
Y-84576D01*
Y-84290D01*
Y-84003D01*
Y-83717D01*
Y-83431D01*
X1121080D01*
Y-83717D01*
D02*
G37*
G36*
X1063244Y-66252D02*
Y-66538D01*
X1062958D01*
Y-66825D01*
Y-67111D01*
Y-67397D01*
Y-67684D01*
Y-67970D01*
Y-68256D01*
X1062672D01*
Y-68542D01*
Y-68829D01*
Y-69115D01*
Y-69401D01*
Y-69688D01*
Y-69974D01*
X1062385D01*
Y-70260D01*
Y-70547D01*
Y-70833D01*
Y-71119D01*
Y-71406D01*
Y-71692D01*
Y-71978D01*
X1062099D01*
Y-72264D01*
Y-72551D01*
Y-72837D01*
Y-73123D01*
Y-73410D01*
Y-73696D01*
X1061813D01*
Y-73982D01*
Y-74269D01*
Y-74555D01*
Y-74841D01*
Y-75128D01*
Y-75414D01*
X1061526D01*
Y-75700D01*
Y-75987D01*
Y-76273D01*
Y-76559D01*
Y-76846D01*
Y-77132D01*
Y-77418D01*
X1061240D01*
Y-77704D01*
Y-77991D01*
Y-78277D01*
Y-78563D01*
Y-78850D01*
Y-79136D01*
X1060954D01*
Y-79422D01*
Y-79709D01*
Y-79995D01*
Y-80281D01*
Y-80568D01*
Y-80854D01*
X1060668D01*
Y-81140D01*
Y-81427D01*
Y-81713D01*
Y-81999D01*
Y-82285D01*
Y-82572D01*
X1060381D01*
Y-82858D01*
Y-83144D01*
Y-83431D01*
Y-83717D01*
Y-84003D01*
Y-84290D01*
Y-84576D01*
X1060095D01*
Y-84862D01*
Y-85149D01*
Y-85435D01*
Y-85721D01*
Y-86007D01*
Y-86294D01*
X1059809D01*
Y-86580D01*
Y-86866D01*
X1060381D01*
Y-86580D01*
X1060668D01*
Y-86294D01*
X1060954D01*
Y-86007D01*
X1061526D01*
Y-85721D01*
X1061813D01*
Y-85435D01*
X1062099D01*
Y-85149D01*
X1062672D01*
Y-84862D01*
X1063244D01*
Y-84576D01*
X1063531D01*
Y-84290D01*
X1064103D01*
Y-84003D01*
X1064962D01*
Y-83717D01*
X1065535D01*
Y-83431D01*
X1066394D01*
Y-83144D01*
X1067825D01*
Y-82858D01*
X1074124D01*
Y-83144D01*
X1075270D01*
Y-83431D01*
X1076128D01*
Y-83717D01*
X1076701D01*
Y-84003D01*
X1076987D01*
Y-84290D01*
X1077560D01*
Y-84576D01*
X1077846D01*
Y-84862D01*
X1078133D01*
Y-85149D01*
X1078419D01*
Y-85435D01*
X1078705D01*
Y-85721D01*
Y-86007D01*
X1078992D01*
Y-86294D01*
Y-86580D01*
X1079278D01*
Y-86866D01*
Y-87153D01*
Y-87439D01*
X1079564D01*
Y-87725D01*
Y-88012D01*
Y-88298D01*
Y-88584D01*
X1079850D01*
Y-88871D01*
Y-89157D01*
Y-89443D01*
Y-89730D01*
Y-90016D01*
Y-90302D01*
Y-90588D01*
Y-90875D01*
Y-91161D01*
Y-91448D01*
Y-91734D01*
Y-92020D01*
Y-92306D01*
Y-92593D01*
Y-92879D01*
Y-93165D01*
Y-93452D01*
Y-93738D01*
X1079564D01*
Y-94024D01*
Y-94311D01*
Y-94597D01*
Y-94883D01*
Y-95170D01*
Y-95456D01*
Y-95742D01*
X1079278D01*
Y-96029D01*
Y-96315D01*
Y-96601D01*
Y-96887D01*
Y-97174D01*
Y-97460D01*
Y-97746D01*
X1078992D01*
Y-98033D01*
Y-98319D01*
Y-98605D01*
Y-98892D01*
Y-99178D01*
Y-99464D01*
X1078705D01*
Y-99751D01*
Y-100037D01*
Y-100323D01*
Y-100610D01*
Y-100896D01*
Y-101182D01*
X1078419D01*
Y-101468D01*
Y-101755D01*
Y-102041D01*
Y-102327D01*
Y-102614D01*
Y-102900D01*
X1078133D01*
Y-103186D01*
Y-103473D01*
Y-103759D01*
Y-104045D01*
Y-104332D01*
Y-104618D01*
Y-104904D01*
X1077846D01*
Y-105191D01*
Y-105477D01*
Y-105763D01*
Y-106049D01*
Y-106336D01*
Y-106622D01*
X1077560D01*
Y-106908D01*
Y-107195D01*
Y-107481D01*
Y-107767D01*
Y-108054D01*
Y-108340D01*
X1077274D01*
Y-108626D01*
Y-108913D01*
Y-109199D01*
Y-109485D01*
Y-109772D01*
Y-110058D01*
Y-110344D01*
X1076987D01*
Y-110630D01*
Y-110917D01*
Y-111203D01*
Y-111489D01*
Y-111776D01*
Y-112062D01*
X1076701D01*
Y-112348D01*
Y-112635D01*
Y-112921D01*
Y-113207D01*
Y-113494D01*
Y-113780D01*
X1076415D01*
Y-114066D01*
Y-114353D01*
Y-114639D01*
Y-114925D01*
Y-115211D01*
Y-115498D01*
X1076128D01*
Y-115784D01*
Y-116070D01*
Y-116357D01*
Y-116643D01*
Y-116929D01*
Y-117216D01*
Y-117502D01*
X1075842D01*
Y-117788D01*
Y-118075D01*
Y-118361D01*
Y-118647D01*
Y-118933D01*
Y-119220D01*
X1075556D01*
Y-119506D01*
Y-119792D01*
X1062385D01*
Y-119506D01*
Y-119220D01*
X1062672D01*
Y-118933D01*
Y-118647D01*
Y-118361D01*
Y-118075D01*
Y-117788D01*
Y-117502D01*
X1062958D01*
Y-117216D01*
Y-116929D01*
Y-116643D01*
Y-116357D01*
Y-116070D01*
Y-115784D01*
Y-115498D01*
X1063244D01*
Y-115211D01*
Y-114925D01*
Y-114639D01*
Y-114353D01*
Y-114066D01*
Y-113780D01*
X1063531D01*
Y-113494D01*
Y-113207D01*
Y-112921D01*
Y-112635D01*
Y-112348D01*
Y-112062D01*
X1063817D01*
Y-111776D01*
Y-111489D01*
Y-111203D01*
Y-110917D01*
Y-110630D01*
Y-110344D01*
Y-110058D01*
X1064103D01*
Y-109772D01*
Y-109485D01*
Y-109199D01*
Y-108913D01*
Y-108626D01*
Y-108340D01*
X1064390D01*
Y-108054D01*
Y-107767D01*
Y-107481D01*
Y-107195D01*
Y-106908D01*
Y-106622D01*
Y-106336D01*
X1064676D01*
Y-106049D01*
Y-105763D01*
Y-105477D01*
Y-105191D01*
Y-104904D01*
Y-104618D01*
X1064962D01*
Y-104332D01*
Y-104045D01*
Y-103759D01*
Y-103473D01*
Y-103186D01*
Y-102900D01*
X1065249D01*
Y-102614D01*
Y-102327D01*
Y-102041D01*
Y-101755D01*
Y-101468D01*
Y-101182D01*
X1065535D01*
Y-100896D01*
Y-100610D01*
Y-100323D01*
Y-100037D01*
Y-99751D01*
Y-99464D01*
Y-99178D01*
X1065821D01*
Y-98892D01*
Y-98605D01*
Y-98319D01*
Y-98033D01*
Y-97746D01*
Y-97460D01*
X1066107D01*
Y-97174D01*
Y-96887D01*
Y-96601D01*
Y-96315D01*
Y-96029D01*
Y-95742D01*
Y-95456D01*
X1066394D01*
Y-95170D01*
Y-94883D01*
Y-94597D01*
Y-94311D01*
Y-94024D01*
Y-93738D01*
X1066107D01*
Y-93452D01*
Y-93165D01*
X1065821D01*
Y-92879D01*
X1065535D01*
Y-92593D01*
X1064962D01*
Y-92306D01*
X1063244D01*
Y-92593D01*
X1061813D01*
Y-92879D01*
X1060954D01*
Y-93165D01*
X1060381D01*
Y-93452D01*
X1060095D01*
Y-93738D01*
X1059522D01*
Y-94024D01*
X1059236D01*
Y-94311D01*
X1058950D01*
Y-94597D01*
Y-94883D01*
X1058663D01*
Y-95170D01*
Y-95456D01*
Y-95742D01*
X1058377D01*
Y-96029D01*
Y-96315D01*
Y-96601D01*
Y-96887D01*
Y-97174D01*
Y-97460D01*
X1058091D01*
Y-97746D01*
Y-98033D01*
Y-98319D01*
Y-98605D01*
Y-98892D01*
Y-99178D01*
Y-99464D01*
X1057804D01*
Y-99751D01*
Y-100037D01*
Y-100323D01*
Y-100610D01*
Y-100896D01*
Y-101182D01*
X1057518D01*
Y-101468D01*
Y-101755D01*
Y-102041D01*
Y-102327D01*
Y-102614D01*
Y-102900D01*
X1057232D01*
Y-103186D01*
Y-103473D01*
Y-103759D01*
Y-104045D01*
Y-104332D01*
Y-104618D01*
X1056946D01*
Y-104904D01*
Y-105191D01*
Y-105477D01*
Y-105763D01*
Y-106049D01*
Y-106336D01*
Y-106622D01*
X1056659D01*
Y-106908D01*
Y-107195D01*
Y-107481D01*
Y-107767D01*
Y-108054D01*
Y-108340D01*
X1056373D01*
Y-108626D01*
Y-108913D01*
Y-109199D01*
Y-109485D01*
Y-109772D01*
Y-110058D01*
X1056087D01*
Y-110344D01*
Y-110630D01*
Y-110917D01*
Y-111203D01*
Y-111489D01*
Y-111776D01*
Y-112062D01*
X1055800D01*
Y-112348D01*
Y-112635D01*
Y-112921D01*
Y-113207D01*
Y-113494D01*
Y-113780D01*
X1055514D01*
Y-114066D01*
Y-114353D01*
Y-114639D01*
Y-114925D01*
Y-115211D01*
Y-115498D01*
X1055228D01*
Y-115784D01*
Y-116070D01*
Y-116357D01*
Y-116643D01*
Y-116929D01*
Y-117216D01*
X1054941D01*
Y-117502D01*
Y-117788D01*
Y-118075D01*
Y-118361D01*
Y-118647D01*
Y-118933D01*
Y-119220D01*
X1054655D01*
Y-119506D01*
Y-119792D01*
X1041485D01*
Y-119506D01*
Y-119220D01*
X1041771D01*
Y-118933D01*
Y-118647D01*
Y-118361D01*
Y-118075D01*
Y-117788D01*
Y-117502D01*
Y-117216D01*
X1042057D01*
Y-116929D01*
Y-116643D01*
Y-116357D01*
Y-116070D01*
Y-115784D01*
Y-115498D01*
X1042344D01*
Y-115211D01*
Y-114925D01*
Y-114639D01*
Y-114353D01*
Y-114066D01*
Y-113780D01*
X1042630D01*
Y-113494D01*
Y-113207D01*
Y-112921D01*
Y-112635D01*
Y-112348D01*
Y-112062D01*
Y-111776D01*
X1042916D01*
Y-111489D01*
Y-111203D01*
Y-110917D01*
Y-110630D01*
Y-110344D01*
Y-110058D01*
X1043202D01*
Y-109772D01*
Y-109485D01*
Y-109199D01*
Y-108913D01*
Y-108626D01*
Y-108340D01*
X1043489D01*
Y-108054D01*
Y-107767D01*
Y-107481D01*
Y-107195D01*
Y-106908D01*
Y-106622D01*
X1043775D01*
Y-106336D01*
Y-106049D01*
Y-105763D01*
Y-105477D01*
Y-105191D01*
Y-104904D01*
Y-104618D01*
X1044061D01*
Y-104332D01*
Y-104045D01*
Y-103759D01*
Y-103473D01*
Y-103186D01*
Y-102900D01*
X1044348D01*
Y-102614D01*
Y-102327D01*
Y-102041D01*
Y-101755D01*
Y-101468D01*
Y-101182D01*
X1044634D01*
Y-100896D01*
Y-100610D01*
Y-100323D01*
Y-100037D01*
Y-99751D01*
Y-99464D01*
Y-99178D01*
X1044920D01*
Y-98892D01*
Y-98605D01*
Y-98319D01*
Y-98033D01*
Y-97746D01*
Y-97460D01*
X1045207D01*
Y-97174D01*
Y-96887D01*
Y-96601D01*
Y-96315D01*
Y-96029D01*
Y-95742D01*
X1045493D01*
Y-95456D01*
Y-95170D01*
Y-94883D01*
Y-94597D01*
Y-94311D01*
Y-94024D01*
X1045779D01*
Y-93738D01*
Y-93452D01*
Y-93165D01*
Y-92879D01*
Y-92593D01*
Y-92306D01*
Y-92020D01*
X1046066D01*
Y-91734D01*
Y-91448D01*
Y-91161D01*
Y-90875D01*
Y-90588D01*
Y-90302D01*
X1046352D01*
Y-90016D01*
Y-89730D01*
Y-89443D01*
Y-89157D01*
Y-88871D01*
Y-88584D01*
X1046638D01*
Y-88298D01*
Y-88012D01*
Y-87725D01*
Y-87439D01*
Y-87153D01*
Y-86866D01*
X1046925D01*
Y-86580D01*
Y-86294D01*
Y-86007D01*
Y-85721D01*
Y-85435D01*
Y-85149D01*
Y-84862D01*
X1047211D01*
Y-84576D01*
Y-84290D01*
Y-84003D01*
Y-83717D01*
Y-83431D01*
Y-83144D01*
X1047497D01*
Y-82858D01*
Y-82572D01*
Y-82285D01*
Y-81999D01*
Y-81713D01*
Y-81427D01*
X1047783D01*
Y-81140D01*
Y-80854D01*
Y-80568D01*
Y-80281D01*
Y-79995D01*
Y-79709D01*
Y-79422D01*
X1048070D01*
Y-79136D01*
Y-78850D01*
Y-78563D01*
Y-78277D01*
Y-77991D01*
Y-77704D01*
X1048356D01*
Y-77418D01*
Y-77132D01*
Y-76846D01*
Y-76559D01*
Y-76273D01*
Y-75987D01*
X1048642D01*
Y-75700D01*
Y-75414D01*
Y-75128D01*
Y-74841D01*
Y-74555D01*
Y-74269D01*
X1048929D01*
Y-73982D01*
Y-73696D01*
Y-73410D01*
Y-73123D01*
Y-72837D01*
Y-72551D01*
Y-72264D01*
X1049215D01*
Y-71978D01*
Y-71692D01*
Y-71406D01*
Y-71119D01*
Y-70833D01*
Y-70547D01*
X1049501D01*
Y-70260D01*
Y-69974D01*
Y-69688D01*
Y-69401D01*
Y-69115D01*
Y-68829D01*
X1049788D01*
Y-68542D01*
Y-68256D01*
Y-67970D01*
Y-67684D01*
Y-67397D01*
Y-67111D01*
Y-66825D01*
X1050074D01*
Y-66538D01*
Y-66252D01*
Y-65966D01*
X1063244D01*
Y-66252D01*
D02*
G37*
G36*
X1032036Y-69688D02*
X1033754D01*
Y-69974D01*
X1034613D01*
Y-70260D01*
X1035472D01*
Y-70547D01*
X1036331D01*
Y-70833D01*
X1036904D01*
Y-71119D01*
X1037190D01*
Y-71406D01*
X1037763D01*
Y-71692D01*
X1038049D01*
Y-71978D01*
X1038622D01*
Y-72264D01*
X1038908D01*
Y-72551D01*
X1039194D01*
Y-72837D01*
X1039480D01*
Y-73123D01*
X1039767D01*
Y-73410D01*
X1040053D01*
Y-73696D01*
X1040339D01*
Y-73982D01*
Y-74269D01*
X1040626D01*
Y-74555D01*
X1040912D01*
Y-74841D01*
Y-75128D01*
X1041198D01*
Y-75414D01*
X1041485D01*
Y-75700D01*
Y-75987D01*
X1041771D01*
Y-76273D01*
Y-76559D01*
Y-76846D01*
X1042057D01*
Y-77132D01*
Y-77418D01*
Y-77704D01*
X1042344D01*
Y-77991D01*
Y-78277D01*
Y-78563D01*
Y-78850D01*
X1042630D01*
Y-79136D01*
Y-79422D01*
Y-79709D01*
Y-79995D01*
Y-80281D01*
X1042916D01*
Y-80568D01*
Y-80854D01*
Y-81140D01*
Y-81427D01*
Y-81713D01*
Y-81999D01*
Y-82285D01*
Y-82572D01*
Y-82858D01*
Y-83144D01*
Y-83431D01*
Y-83717D01*
Y-84003D01*
Y-84290D01*
Y-84576D01*
Y-84862D01*
Y-85149D01*
Y-85435D01*
Y-85721D01*
Y-86007D01*
X1042630D01*
Y-86294D01*
Y-86580D01*
Y-86866D01*
Y-87153D01*
Y-87439D01*
Y-87725D01*
Y-88012D01*
X1042344D01*
Y-88298D01*
Y-88584D01*
Y-88871D01*
Y-89157D01*
Y-89443D01*
X1042057D01*
Y-89730D01*
Y-90016D01*
Y-90302D01*
Y-90588D01*
Y-90875D01*
X1041771D01*
Y-91161D01*
Y-91448D01*
Y-91734D01*
X1041485D01*
Y-92020D01*
Y-92306D01*
Y-92593D01*
Y-92879D01*
X1041198D01*
Y-93165D01*
Y-93452D01*
Y-93738D01*
X1040912D01*
Y-94024D01*
Y-94311D01*
X1040626D01*
Y-94597D01*
Y-94883D01*
Y-95170D01*
X1040339D01*
Y-95456D01*
Y-95742D01*
X1040053D01*
Y-96029D01*
Y-96315D01*
X1039767D01*
Y-96601D01*
Y-96887D01*
X1039480D01*
Y-97174D01*
X1039194D01*
Y-97460D01*
Y-97746D01*
X1038908D01*
Y-98033D01*
X1038622D01*
Y-98319D01*
X1038335D01*
Y-98605D01*
Y-98892D01*
X1038049D01*
Y-99178D01*
X1037763D01*
Y-99464D01*
X1037476D01*
Y-99751D01*
X1037190D01*
Y-100037D01*
X1036904D01*
Y-100323D01*
X1036331D01*
Y-100610D01*
X1036045D01*
Y-100896D01*
X1035472D01*
Y-101182D01*
X1035186D01*
Y-101468D01*
X1034613D01*
Y-101755D01*
X1033754D01*
Y-102041D01*
X1032895D01*
Y-102327D01*
X1032036D01*
Y-102614D01*
X1030318D01*
Y-102900D01*
X1025165D01*
Y-102614D01*
X1022588D01*
Y-102327D01*
X1020584D01*
Y-102041D01*
X1019152D01*
Y-101755D01*
X1017721D01*
Y-101468D01*
X1016289D01*
Y-101755D01*
Y-102041D01*
Y-102327D01*
Y-102614D01*
Y-102900D01*
Y-103186D01*
Y-103473D01*
X1016003D01*
Y-103759D01*
Y-104045D01*
Y-104332D01*
Y-104618D01*
Y-104904D01*
Y-105191D01*
X1015716D01*
Y-105477D01*
Y-105763D01*
Y-106049D01*
Y-106336D01*
Y-106622D01*
Y-106908D01*
X1015430D01*
Y-107195D01*
Y-107481D01*
Y-107767D01*
Y-108054D01*
Y-108340D01*
Y-108626D01*
Y-108913D01*
X1015144D01*
Y-109199D01*
Y-109485D01*
Y-109772D01*
Y-110058D01*
Y-110344D01*
Y-110630D01*
X1014857D01*
Y-110917D01*
Y-111203D01*
Y-111489D01*
Y-111776D01*
Y-112062D01*
Y-112348D01*
X1014571D01*
Y-112635D01*
Y-112921D01*
Y-113207D01*
Y-113494D01*
Y-113780D01*
Y-114066D01*
Y-114353D01*
X1014285D01*
Y-114639D01*
Y-114925D01*
Y-115211D01*
Y-115498D01*
Y-115784D01*
Y-116070D01*
X1013999D01*
Y-116357D01*
Y-116643D01*
Y-116929D01*
Y-117216D01*
Y-117502D01*
Y-117788D01*
X1013712D01*
Y-118075D01*
Y-118361D01*
Y-118647D01*
Y-118933D01*
Y-119220D01*
Y-119506D01*
Y-119792D01*
X1000256D01*
Y-119506D01*
X1000542D01*
Y-119220D01*
Y-118933D01*
Y-118647D01*
Y-118361D01*
Y-118075D01*
X1000828D01*
Y-117788D01*
Y-117502D01*
Y-117216D01*
Y-116929D01*
Y-116643D01*
Y-116357D01*
Y-116070D01*
X1001114D01*
Y-115784D01*
Y-115498D01*
Y-115211D01*
Y-114925D01*
Y-114639D01*
Y-114353D01*
X1001401D01*
Y-114066D01*
Y-113780D01*
Y-113494D01*
Y-113207D01*
Y-112921D01*
Y-112635D01*
X1001687D01*
Y-112348D01*
Y-112062D01*
Y-111776D01*
Y-111489D01*
Y-111203D01*
Y-110917D01*
Y-110630D01*
X1001974D01*
Y-110344D01*
Y-110058D01*
Y-109772D01*
Y-109485D01*
Y-109199D01*
Y-108913D01*
X1002260D01*
Y-108626D01*
Y-108340D01*
Y-108054D01*
Y-107767D01*
Y-107481D01*
Y-107195D01*
X1002546D01*
Y-106908D01*
Y-106622D01*
Y-106336D01*
Y-106049D01*
Y-105763D01*
Y-105477D01*
X1002832D01*
Y-105191D01*
Y-104904D01*
Y-104618D01*
Y-104332D01*
Y-104045D01*
Y-103759D01*
Y-103473D01*
X1003119D01*
Y-103186D01*
Y-102900D01*
Y-102614D01*
Y-102327D01*
Y-102041D01*
Y-101755D01*
X1003405D01*
Y-101468D01*
Y-101182D01*
Y-100896D01*
Y-100610D01*
Y-100323D01*
Y-100037D01*
X1003691D01*
Y-99751D01*
Y-99464D01*
Y-99178D01*
Y-98892D01*
Y-98605D01*
Y-98319D01*
X1003978D01*
Y-98033D01*
Y-97746D01*
Y-97460D01*
Y-97174D01*
Y-96887D01*
Y-96601D01*
Y-96315D01*
X1004264D01*
Y-96029D01*
Y-95742D01*
Y-95456D01*
Y-95170D01*
Y-94883D01*
Y-94597D01*
X1004550D01*
Y-94311D01*
Y-94024D01*
Y-93738D01*
Y-93452D01*
Y-93165D01*
Y-92879D01*
X1004837D01*
Y-92593D01*
Y-92306D01*
Y-92020D01*
Y-91734D01*
Y-91448D01*
Y-91161D01*
Y-90875D01*
X1005123D01*
Y-90588D01*
Y-90302D01*
Y-90016D01*
Y-89730D01*
Y-89443D01*
Y-89157D01*
X1005409D01*
Y-88871D01*
Y-88584D01*
Y-88298D01*
Y-88012D01*
Y-87725D01*
Y-87439D01*
X1005696D01*
Y-87153D01*
Y-86866D01*
Y-86580D01*
Y-86294D01*
Y-86007D01*
Y-85721D01*
X1005982D01*
Y-85435D01*
Y-85149D01*
Y-84862D01*
Y-84576D01*
Y-84290D01*
Y-84003D01*
Y-83717D01*
X1006268D01*
Y-83431D01*
Y-83144D01*
Y-82858D01*
Y-82572D01*
Y-82285D01*
Y-81999D01*
X1006555D01*
Y-81713D01*
Y-81427D01*
Y-81140D01*
Y-80854D01*
Y-80568D01*
Y-80281D01*
X1006841D01*
Y-79995D01*
Y-79709D01*
Y-79422D01*
Y-79136D01*
Y-78850D01*
Y-78563D01*
Y-78277D01*
X1007127D01*
Y-77991D01*
Y-77704D01*
Y-77418D01*
Y-77132D01*
Y-76846D01*
Y-76559D01*
X1007413D01*
Y-76273D01*
Y-75987D01*
Y-75700D01*
Y-75414D01*
Y-75128D01*
Y-74841D01*
X1007700D01*
Y-74555D01*
Y-74269D01*
Y-73982D01*
Y-73696D01*
Y-73410D01*
Y-73123D01*
Y-72837D01*
X1007986D01*
Y-72551D01*
Y-72264D01*
Y-71978D01*
Y-71692D01*
Y-71406D01*
Y-71119D01*
X1008272D01*
Y-70833D01*
Y-70547D01*
Y-70260D01*
Y-69974D01*
Y-69688D01*
Y-69401D01*
X1032036D01*
Y-69688D01*
D02*
G37*
G36*
X1165172Y-83717D02*
X1164886D01*
Y-84003D01*
X1164599D01*
Y-84290D01*
Y-84576D01*
X1164313D01*
Y-84862D01*
X1164027D01*
Y-85149D01*
X1163740D01*
Y-85435D01*
Y-85721D01*
X1163454D01*
Y-86007D01*
X1163168D01*
Y-86294D01*
X1162881D01*
Y-86580D01*
X1162595D01*
Y-86866D01*
Y-87153D01*
X1162309D01*
Y-87439D01*
X1162022D01*
Y-87725D01*
X1161736D01*
Y-88012D01*
Y-88298D01*
X1161450D01*
Y-88584D01*
X1161163D01*
Y-88871D01*
X1160877D01*
Y-89157D01*
X1160591D01*
Y-89443D01*
Y-89730D01*
X1160305D01*
Y-90016D01*
X1160018D01*
Y-90302D01*
X1159732D01*
Y-90588D01*
Y-90875D01*
X1159445D01*
Y-91161D01*
X1159159D01*
Y-91448D01*
X1158873D01*
Y-91734D01*
Y-92020D01*
X1158587D01*
Y-92306D01*
X1158300D01*
Y-92593D01*
X1158014D01*
Y-92879D01*
X1157728D01*
Y-93165D01*
Y-93452D01*
X1157441D01*
Y-93738D01*
X1157155D01*
Y-94024D01*
X1156869D01*
Y-94311D01*
Y-94597D01*
X1156582D01*
Y-94883D01*
X1156296D01*
Y-95170D01*
X1156010D01*
Y-95456D01*
Y-95742D01*
X1155723D01*
Y-96029D01*
X1155437D01*
Y-96315D01*
X1155151D01*
Y-96601D01*
X1154865D01*
Y-96887D01*
Y-97174D01*
X1154578D01*
Y-97460D01*
X1154292D01*
Y-97746D01*
X1154006D01*
Y-98033D01*
Y-98319D01*
X1153719D01*
Y-98605D01*
X1153433D01*
Y-98892D01*
X1153147D01*
Y-99178D01*
Y-99464D01*
X1152860D01*
Y-99751D01*
X1152574D01*
Y-100037D01*
X1152288D01*
Y-100323D01*
X1152001D01*
Y-100610D01*
Y-100896D01*
X1151715D01*
Y-101182D01*
X1151429D01*
Y-101468D01*
X1151142D01*
Y-101755D01*
Y-102041D01*
X1150856D01*
Y-102327D01*
X1150570D01*
Y-102614D01*
X1150284D01*
Y-102900D01*
X1149997D01*
Y-103186D01*
Y-103473D01*
X1150284D01*
Y-103759D01*
Y-104045D01*
X1150570D01*
Y-104332D01*
Y-104618D01*
X1150856D01*
Y-104904D01*
X1151142D01*
Y-105191D01*
Y-105477D01*
X1151429D01*
Y-105763D01*
Y-106049D01*
X1151715D01*
Y-106336D01*
Y-106622D01*
X1152001D01*
Y-106908D01*
Y-107195D01*
X1152288D01*
Y-107481D01*
Y-107767D01*
X1152574D01*
Y-108054D01*
Y-108340D01*
X1152860D01*
Y-108626D01*
Y-108913D01*
X1153147D01*
Y-109199D01*
Y-109485D01*
X1153433D01*
Y-109772D01*
X1153719D01*
Y-110058D01*
Y-110344D01*
X1154006D01*
Y-110630D01*
Y-110917D01*
X1154292D01*
Y-111203D01*
Y-111489D01*
X1154578D01*
Y-111776D01*
Y-112062D01*
X1154865D01*
Y-112348D01*
Y-112635D01*
X1155151D01*
Y-112921D01*
Y-113207D01*
X1155437D01*
Y-113494D01*
Y-113780D01*
X1155723D01*
Y-114066D01*
X1156010D01*
Y-114353D01*
Y-114639D01*
X1156296D01*
Y-114925D01*
Y-115211D01*
X1156582D01*
Y-115498D01*
Y-115784D01*
X1156869D01*
Y-116070D01*
Y-116357D01*
X1157155D01*
Y-116643D01*
Y-116929D01*
X1157441D01*
Y-117216D01*
Y-117502D01*
X1157728D01*
Y-117788D01*
Y-118075D01*
X1158014D01*
Y-118361D01*
X1158300D01*
Y-118647D01*
Y-118933D01*
X1158587D01*
Y-119220D01*
Y-119506D01*
X1158873D01*
Y-119792D01*
X1143698D01*
Y-119506D01*
X1143412D01*
Y-119220D01*
Y-118933D01*
Y-118647D01*
X1143126D01*
Y-118361D01*
Y-118075D01*
Y-117788D01*
X1142839D01*
Y-117502D01*
Y-117216D01*
X1142553D01*
Y-116929D01*
Y-116643D01*
Y-116357D01*
X1142267D01*
Y-116070D01*
Y-115784D01*
Y-115498D01*
X1141980D01*
Y-115211D01*
Y-114925D01*
X1141694D01*
Y-114639D01*
Y-114353D01*
Y-114066D01*
X1141408D01*
Y-113780D01*
Y-113494D01*
Y-113207D01*
X1141121D01*
Y-112921D01*
Y-112635D01*
Y-112348D01*
X1140835D01*
Y-112062D01*
X1140263D01*
Y-112348D01*
Y-112635D01*
X1139976D01*
Y-112921D01*
X1139690D01*
Y-113207D01*
Y-113494D01*
X1139404D01*
Y-113780D01*
X1139117D01*
Y-114066D01*
Y-114353D01*
X1138831D01*
Y-114639D01*
X1138545D01*
Y-114925D01*
Y-115211D01*
X1138258D01*
Y-115498D01*
X1137972D01*
Y-115784D01*
X1137686D01*
Y-116070D01*
Y-116357D01*
X1137399D01*
Y-116643D01*
X1137113D01*
Y-116929D01*
Y-117216D01*
X1136827D01*
Y-117502D01*
X1136541D01*
Y-117788D01*
Y-118075D01*
X1136254D01*
Y-118361D01*
X1135968D01*
Y-118647D01*
Y-118933D01*
X1135682D01*
Y-119220D01*
X1135395D01*
Y-119506D01*
Y-119792D01*
X1119362D01*
Y-119506D01*
X1119648D01*
Y-119220D01*
X1119934D01*
Y-118933D01*
X1120221D01*
Y-118647D01*
X1120507D01*
Y-118361D01*
Y-118075D01*
X1120793D01*
Y-117788D01*
X1121080D01*
Y-117502D01*
X1121366D01*
Y-117216D01*
X1121652D01*
Y-116929D01*
Y-116643D01*
X1121939D01*
Y-116357D01*
X1122225D01*
Y-116070D01*
X1122511D01*
Y-115784D01*
Y-115498D01*
X1122797D01*
Y-115211D01*
X1123084D01*
Y-114925D01*
X1123370D01*
Y-114639D01*
X1123656D01*
Y-114353D01*
Y-114066D01*
X1123943D01*
Y-113780D01*
X1124229D01*
Y-113494D01*
X1124515D01*
Y-113207D01*
X1124802D01*
Y-112921D01*
Y-112635D01*
X1125088D01*
Y-112348D01*
X1125374D01*
Y-112062D01*
X1125661D01*
Y-111776D01*
Y-111489D01*
X1125947D01*
Y-111203D01*
X1126233D01*
Y-110917D01*
X1126519D01*
Y-110630D01*
X1126806D01*
Y-110344D01*
Y-110058D01*
X1127092D01*
Y-109772D01*
X1127378D01*
Y-109485D01*
X1127665D01*
Y-109199D01*
Y-108913D01*
X1127951D01*
Y-108626D01*
X1128237D01*
Y-108340D01*
X1128524D01*
Y-108054D01*
X1128810D01*
Y-107767D01*
Y-107481D01*
X1129096D01*
Y-107195D01*
X1129383D01*
Y-106908D01*
X1129669D01*
Y-106622D01*
Y-106336D01*
X1129955D01*
Y-106049D01*
X1130242D01*
Y-105763D01*
X1130528D01*
Y-105477D01*
X1130814D01*
Y-105191D01*
Y-104904D01*
X1131100D01*
Y-104618D01*
X1131387D01*
Y-104332D01*
X1131673D01*
Y-104045D01*
X1131960D01*
Y-103759D01*
Y-103473D01*
X1132246D01*
Y-103186D01*
X1132532D01*
Y-102900D01*
X1132818D01*
Y-102614D01*
Y-102327D01*
X1133105D01*
Y-102041D01*
X1133391D01*
Y-101755D01*
X1133677D01*
Y-101468D01*
X1133964D01*
Y-101182D01*
Y-100896D01*
X1134250D01*
Y-100610D01*
Y-100323D01*
Y-100037D01*
X1133964D01*
Y-99751D01*
X1133677D01*
Y-99464D01*
Y-99178D01*
X1133391D01*
Y-98892D01*
Y-98605D01*
X1133105D01*
Y-98319D01*
Y-98033D01*
X1132818D01*
Y-97746D01*
Y-97460D01*
X1132532D01*
Y-97174D01*
Y-96887D01*
X1132246D01*
Y-96601D01*
Y-96315D01*
X1131960D01*
Y-96029D01*
X1131673D01*
Y-95742D01*
Y-95456D01*
X1131387D01*
Y-95170D01*
Y-94883D01*
X1131100D01*
Y-94597D01*
Y-94311D01*
X1130814D01*
Y-94024D01*
Y-93738D01*
X1130528D01*
Y-93452D01*
Y-93165D01*
X1130242D01*
Y-92879D01*
Y-92593D01*
X1129955D01*
Y-92306D01*
X1129669D01*
Y-92020D01*
Y-91734D01*
X1129383D01*
Y-91448D01*
Y-91161D01*
X1129096D01*
Y-90875D01*
Y-90588D01*
X1128810D01*
Y-90302D01*
Y-90016D01*
X1128524D01*
Y-89730D01*
Y-89443D01*
X1128237D01*
Y-89157D01*
Y-88871D01*
X1127951D01*
Y-88584D01*
Y-88298D01*
X1127665D01*
Y-88012D01*
X1127378D01*
Y-87725D01*
Y-87439D01*
X1127092D01*
Y-87153D01*
Y-86866D01*
X1126806D01*
Y-86580D01*
Y-86294D01*
X1126519D01*
Y-86007D01*
Y-85721D01*
X1126233D01*
Y-85435D01*
Y-85149D01*
X1125947D01*
Y-84862D01*
Y-84576D01*
X1125661D01*
Y-84290D01*
X1125374D01*
Y-84003D01*
Y-83717D01*
X1125088D01*
Y-83431D01*
X1140835D01*
Y-83717D01*
X1141121D01*
Y-84003D01*
Y-84290D01*
Y-84576D01*
X1141408D01*
Y-84862D01*
Y-85149D01*
Y-85435D01*
X1141694D01*
Y-85721D01*
Y-86007D01*
Y-86294D01*
X1141980D01*
Y-86580D01*
Y-86866D01*
Y-87153D01*
X1142267D01*
Y-87439D01*
Y-87725D01*
Y-88012D01*
X1142553D01*
Y-88298D01*
Y-88584D01*
Y-88871D01*
X1142839D01*
Y-89157D01*
Y-89443D01*
Y-89730D01*
X1143126D01*
Y-90016D01*
Y-90302D01*
Y-90588D01*
X1143412D01*
Y-90875D01*
Y-91161D01*
Y-91448D01*
Y-91734D01*
X1143985D01*
Y-91448D01*
X1144271D01*
Y-91161D01*
X1144557D01*
Y-90875D01*
Y-90588D01*
X1144844D01*
Y-90302D01*
X1145130D01*
Y-90016D01*
Y-89730D01*
X1145416D01*
Y-89443D01*
X1145702D01*
Y-89157D01*
Y-88871D01*
X1145989D01*
Y-88584D01*
X1146275D01*
Y-88298D01*
Y-88012D01*
X1146561D01*
Y-87725D01*
X1146848D01*
Y-87439D01*
Y-87153D01*
X1147134D01*
Y-86866D01*
X1147420D01*
Y-86580D01*
Y-86294D01*
X1147707D01*
Y-86007D01*
X1147993D01*
Y-85721D01*
Y-85435D01*
X1148279D01*
Y-85149D01*
X1148566D01*
Y-84862D01*
Y-84576D01*
X1148852D01*
Y-84290D01*
X1149138D01*
Y-84003D01*
Y-83717D01*
X1149425D01*
Y-83431D01*
X1165172D01*
Y-83717D01*
D02*
G37*
%LPC*%
G36*
X1027742Y-80568D02*
X1019725D01*
Y-80854D01*
Y-81140D01*
Y-81427D01*
Y-81713D01*
Y-81999D01*
X1019438D01*
Y-82285D01*
Y-82572D01*
Y-82858D01*
Y-83144D01*
Y-83431D01*
Y-83717D01*
X1019152D01*
Y-84003D01*
Y-84290D01*
Y-84576D01*
Y-84862D01*
Y-85149D01*
Y-85435D01*
X1018866D01*
Y-85721D01*
Y-86007D01*
Y-86294D01*
Y-86580D01*
Y-86866D01*
Y-87153D01*
X1018580D01*
Y-87439D01*
Y-87725D01*
Y-88012D01*
Y-88298D01*
Y-88584D01*
Y-88871D01*
Y-89157D01*
X1018293D01*
Y-89443D01*
Y-89730D01*
Y-90016D01*
Y-90302D01*
Y-90588D01*
Y-90875D01*
X1018007D01*
Y-91161D01*
Y-91448D01*
Y-91734D01*
X1025165D01*
Y-91448D01*
X1026310D01*
Y-91161D01*
X1026883D01*
Y-90875D01*
X1027169D01*
Y-90588D01*
X1027455D01*
Y-90302D01*
X1027742D01*
Y-90016D01*
X1028028D01*
Y-89730D01*
Y-89443D01*
X1028314D01*
Y-89157D01*
Y-88871D01*
X1028601D01*
Y-88584D01*
Y-88298D01*
X1028887D01*
Y-88012D01*
Y-87725D01*
Y-87439D01*
Y-87153D01*
X1029173D01*
Y-86866D01*
Y-86580D01*
Y-86294D01*
Y-86007D01*
Y-85721D01*
X1029459D01*
Y-85435D01*
Y-85149D01*
Y-84862D01*
Y-84576D01*
Y-84290D01*
Y-84003D01*
Y-83717D01*
Y-83431D01*
Y-83144D01*
Y-82858D01*
Y-82572D01*
X1029173D01*
Y-82285D01*
Y-81999D01*
X1028887D01*
Y-81713D01*
Y-81427D01*
X1028601D01*
Y-81140D01*
X1028314D01*
Y-80854D01*
X1027742D01*
Y-80568D01*
D02*
G37*
%LPD*%
D34*
X113712Y92323D02*
G03*
X113712Y92323I-1114J0D01*
G01*
X79134Y394D02*
Y29528D01*
X38976D02*
X79134D01*
X38976Y394D02*
X79134D01*
X38976D02*
Y29528D01*
X79134Y26378D02*
X81496D01*
Y21654D02*
Y26378D01*
X79134Y21654D02*
X81496D01*
X38976D02*
X41339D01*
Y26378D01*
X38976D02*
X41339D01*
X79134Y20472D02*
Y21654D01*
X165748Y394D02*
Y29528D01*
X125591D02*
X165748D01*
X125591Y394D02*
X165748D01*
X125591D02*
Y29528D01*
X165748Y26378D02*
X168110D01*
Y21654D02*
Y26378D01*
X165748Y21654D02*
X168110D01*
X125591D02*
X127953D01*
Y26378D01*
X125591D02*
X127953D01*
X165748Y20472D02*
Y21654D01*
X224803Y394D02*
Y29528D01*
X184646D02*
X224803D01*
X184646Y394D02*
X224803D01*
X184646D02*
Y29528D01*
X224803Y26378D02*
X227165D01*
Y21654D02*
Y26378D01*
X224803Y21654D02*
X227165D01*
X184646D02*
X187008D01*
Y26378D01*
X184646D02*
X187008D01*
X224803Y20472D02*
Y21654D01*
X226083Y171457D02*
Y177362D01*
X216043Y171457D02*
Y177362D01*
X224311Y171457D02*
X226083D01*
X216043D02*
X217815D01*
X240354Y170079D02*
Y182283D01*
X233268Y170079D02*
Y182283D01*
Y170079D02*
X240354D01*
X233268Y182283D02*
X240354D01*
X35000Y185000D02*
Y195000D01*
X75000D01*
X35000Y185000D02*
X75000D01*
Y195000D01*
X151969Y188189D02*
X159055D01*
X151969Y175984D02*
X159055D01*
X151969D02*
Y188189D01*
X159055Y175984D02*
Y188189D01*
X90158Y90354D02*
X114567D01*
X90158Y139961D02*
X114567D01*
X90158Y90354D02*
Y139961D01*
X114567Y90354D02*
Y139961D01*
X1693Y34213D02*
X11693D01*
X1693D02*
Y54213D01*
X11693D01*
Y34213D02*
Y54213D01*
X2461Y58661D02*
X4232D01*
X10728D02*
X12500D01*
X2461D02*
Y64567D01*
X12500Y58661D02*
Y64567D01*
X5000Y185000D02*
X15000D01*
Y145000D02*
Y185000D01*
X5000Y145000D02*
Y185000D01*
Y145000D02*
X15000D01*
X203704Y41397D02*
X202776D01*
X201849Y40469D01*
Y39541D01*
X203704Y37686D01*
X204631D01*
X205559Y38614D01*
Y39541D01*
X208342Y41397D02*
X205559Y44180D01*
Y41397D01*
X207414Y43252D01*
Y45107D02*
Y46035D01*
X208342Y46963D01*
X209270Y46963D01*
X211125Y45107D01*
X211125Y44180D01*
X210197Y43252D01*
X209270D01*
X207414Y45107D01*
X234122Y41994D02*
X233466Y41338D01*
Y40026D01*
X234122Y39370D01*
X236746D01*
X237402Y40026D01*
Y41338D01*
X236746Y41994D01*
X234122Y43306D02*
X233466Y43962D01*
Y45274D01*
X234122Y45930D01*
X234778D01*
X235434Y45274D01*
Y44618D01*
Y45274D01*
X236090Y45930D01*
X236746D01*
X237402Y45274D01*
Y43962D01*
X236746Y43306D01*
Y47242D02*
X237402Y47897D01*
Y49209D01*
X236746Y49865D01*
X234122D01*
X233466Y49209D01*
Y47897D01*
X234122Y47242D01*
X234778D01*
X235434Y47897D01*
Y49865D01*
X221161Y145293D02*
X220505Y144637D01*
Y143325D01*
X221161Y142669D01*
X223785D01*
X224441Y143325D01*
Y144637D01*
X223785Y145293D01*
X221161Y146605D02*
X220505Y147261D01*
Y148573D01*
X221161Y149229D01*
X221817D01*
X222473Y148573D01*
Y147917D01*
Y148573D01*
X223129Y149229D01*
X223785D01*
X224441Y148573D01*
Y147261D01*
X223785Y146605D01*
X220505Y150541D02*
Y153165D01*
X221161D01*
X223785Y150541D01*
X224441D01*
X240846Y145293D02*
X240190Y144637D01*
Y143325D01*
X240846Y142669D01*
X243470D01*
X244126Y143325D01*
Y144637D01*
X243470Y145293D01*
X240846Y146605D02*
X240190Y147261D01*
Y148573D01*
X240846Y149229D01*
X241502D01*
X242158Y148573D01*
Y147917D01*
Y148573D01*
X242814Y149229D01*
X243470D01*
X244126Y148573D01*
Y147261D01*
X243470Y146605D01*
X244126Y150541D02*
Y151853D01*
Y151197D01*
X240190D01*
X240846Y150541D01*
X235532Y75967D02*
X236188Y76623D01*
Y77935D01*
X235532Y78591D01*
X232908D01*
X232252Y77935D01*
Y76623D01*
X232908Y75967D01*
X232252Y72031D02*
Y74655D01*
X234876Y72031D01*
X235532D01*
X236188Y72687D01*
Y73999D01*
X235532Y74655D01*
X232252Y70719D02*
Y69407D01*
Y70063D01*
X236188D01*
X235532Y70719D01*
X207185Y183447D02*
X207841Y184103D01*
Y185415D01*
X207185Y186071D01*
X204561D01*
X203906Y185415D01*
Y184103D01*
X204561Y183447D01*
X207185Y182135D02*
X207841Y181479D01*
Y180167D01*
X207185Y179511D01*
X206529D01*
X205873Y180167D01*
Y180823D01*
Y180167D01*
X205217Y179511D01*
X204561D01*
X203906Y180167D01*
Y181479D01*
X204561Y182135D01*
X207841Y175576D02*
X207185Y176888D01*
X205873Y178199D01*
X204561D01*
X203906Y177543D01*
Y176232D01*
X204561Y175576D01*
X205217D01*
X205873Y176232D01*
Y178199D01*
X158726Y194225D02*
X158070Y194881D01*
X156758D01*
X156102Y194225D01*
Y191601D01*
X156758Y190945D01*
X158070D01*
X158726Y191601D01*
X160038Y190945D02*
X161350D01*
X160694D01*
Y194881D01*
X160038Y194225D01*
X130447Y142390D02*
X131103Y141734D01*
X132415D01*
X133071Y142390D01*
Y145013D01*
X132415Y145669D01*
X131103D01*
X130447Y145013D01*
X129135D02*
X128479Y145669D01*
X127167D01*
X126511Y145013D01*
Y142390D01*
X127167Y141734D01*
X128479D01*
X129135Y142390D01*
Y143045D01*
X128479Y143701D01*
X126511D01*
X64699Y130185D02*
X65355Y129529D01*
X66667D01*
X67323Y130185D01*
Y132809D01*
X66667Y133465D01*
X65355D01*
X64699Y132809D01*
X63387Y133465D02*
X62075D01*
X62731D01*
Y129529D01*
X63387Y130185D01*
X60107D02*
X59451Y129529D01*
X58139D01*
X57484Y130185D01*
Y132809D01*
X58139Y133465D01*
X59451D01*
X60107Y132809D01*
Y130185D01*
X133531Y139829D02*
X132875Y139173D01*
Y137861D01*
X133531Y137205D01*
X136155D01*
X136811Y137861D01*
Y139173D01*
X136155Y139829D01*
X136811Y141140D02*
Y142452D01*
Y141796D01*
X132875D01*
X133531Y141140D01*
X136811Y144420D02*
Y145732D01*
Y145076D01*
X132875D01*
X133531Y144420D01*
X80970Y126508D02*
X80314Y127164D01*
X79002D01*
X78347Y126508D01*
Y123884D01*
X79002Y123228D01*
X80314D01*
X80970Y123884D01*
X82282Y123228D02*
X83594D01*
X82938D01*
Y127164D01*
X82282Y126508D01*
X88186Y123228D02*
X85562D01*
X88186Y125852D01*
Y126508D01*
X87530Y127164D01*
X86218D01*
X85562Y126508D01*
X64699Y117980D02*
X65355Y117324D01*
X66667D01*
X67323Y117980D01*
Y120604D01*
X66667Y121260D01*
X65355D01*
X64699Y120604D01*
X63387Y121260D02*
X62075D01*
X62731D01*
Y117324D01*
X63387Y117980D01*
X60107D02*
X59451Y117324D01*
X58139D01*
X57484Y117980D01*
Y118636D01*
X58139Y119292D01*
X58795D01*
X58139D01*
X57484Y119948D01*
Y120604D01*
X58139Y121260D01*
X59451D01*
X60107Y120604D01*
X64699Y136878D02*
X65355Y136222D01*
X66667D01*
X67323Y136878D01*
Y139502D01*
X66667Y140157D01*
X65355D01*
X64699Y139502D01*
X63387Y140157D02*
X62075D01*
X62731D01*
Y136222D01*
X63387Y136878D01*
X57484Y136222D02*
X58795Y136878D01*
X60107Y138190D01*
Y139502D01*
X59451Y140157D01*
X58139D01*
X57484Y139502D01*
Y138846D01*
X58139Y138190D01*
X60107D01*
X148295Y121423D02*
X147639Y120767D01*
Y119455D01*
X148295Y118799D01*
X150919D01*
X151575Y119455D01*
Y120767D01*
X150919Y121423D01*
X151575Y125359D02*
Y122735D01*
X148951Y125359D01*
X148295D01*
X147639Y124703D01*
Y123391D01*
X148295Y122735D01*
X64303Y101805D02*
X64959Y102461D01*
Y103773D01*
X64303Y104429D01*
X61680D01*
X61024Y103773D01*
Y102461D01*
X61680Y101805D01*
X64303Y100493D02*
X64959Y99837D01*
Y98526D01*
X64303Y97870D01*
X63648D01*
X62991Y98526D01*
Y99181D01*
Y98526D01*
X62335Y97870D01*
X61680D01*
X61024Y98526D01*
Y99837D01*
X61680Y100493D01*
X149736Y98459D02*
X150392Y99115D01*
Y100427D01*
X149736Y101083D01*
X147113D01*
X146457Y100427D01*
Y99115D01*
X147113Y98459D01*
X146457Y95179D02*
X150392D01*
X148425Y97147D01*
Y94523D01*
X143044Y122278D02*
X143700Y122934D01*
Y124246D01*
X143044Y124902D01*
X140420D01*
X139764Y124246D01*
Y122934D01*
X140420Y122278D01*
X139764Y120966D02*
Y119654D01*
Y120310D01*
X143700D01*
X143044Y120966D01*
X139764Y115718D02*
X143700D01*
X141732Y117686D01*
Y115062D01*
X131136Y111484D02*
X131792Y110828D01*
X133104D01*
X133760Y111484D01*
Y114108D01*
X133104Y114764D01*
X131792D01*
X131136Y114108D01*
X129824Y114764D02*
X128512D01*
X129168D01*
Y110828D01*
X129824Y111484D01*
X123921Y110828D02*
X126544D01*
Y112796D01*
X125232Y112140D01*
X124576D01*
X123921Y112796D01*
Y114108D01*
X124576Y114764D01*
X125888D01*
X126544Y114108D01*
X122671Y82350D02*
X123327Y81694D01*
X124639D01*
X125295Y82350D01*
Y84974D01*
X124639Y85630D01*
X123327D01*
X122671Y84974D01*
X121360Y85630D02*
X120048D01*
X120704D01*
Y81694D01*
X121360Y82350D01*
X118080Y81694D02*
X115456D01*
Y82350D01*
X118080Y84974D01*
Y85630D01*
X60366Y120112D02*
X61022Y120768D01*
Y122080D01*
X60366Y122736D01*
X57743D01*
X57087Y122080D01*
Y120768D01*
X57743Y120112D01*
X57087Y118800D02*
Y117489D01*
Y118145D01*
X61022D01*
X60366Y118800D01*
Y115521D02*
X61022Y114865D01*
Y113553D01*
X60366Y112897D01*
X59710D01*
X59054Y113553D01*
X58398Y112897D01*
X57743D01*
X57087Y113553D01*
Y114865D01*
X57743Y115521D01*
X58398D01*
X59054Y114865D01*
X59710Y115521D01*
X60366D01*
X59054Y114865D02*
Y113553D01*
X73293Y111744D02*
X72637Y112400D01*
X71325D01*
X70669Y111744D01*
Y109121D01*
X71325Y108465D01*
X72637D01*
X73293Y109121D01*
X74605Y108465D02*
X75917D01*
X75261D01*
Y112400D01*
X74605Y111744D01*
X77885Y109121D02*
X78541Y108465D01*
X79853D01*
X80509Y109121D01*
Y111744D01*
X79853Y112400D01*
X78541D01*
X77885Y111744D01*
Y111088D01*
X78541Y110432D01*
X80509D01*
X138452Y86187D02*
X137796Y85531D01*
Y84219D01*
X138452Y83563D01*
X141076D01*
X141732Y84219D01*
Y85531D01*
X141076Y86187D01*
X141732Y90123D02*
Y87499D01*
X139109Y90123D01*
X138452D01*
X137796Y89467D01*
Y88155D01*
X138452Y87499D01*
X141732Y94058D02*
Y91435D01*
X139109Y94058D01*
X138452D01*
X137796Y93402D01*
Y92090D01*
X138452Y91435D01*
X82250Y84973D02*
X81594Y85629D01*
X80282D01*
X79626Y84973D01*
Y82349D01*
X80282Y81693D01*
X81594D01*
X82250Y82349D01*
X86186Y81693D02*
X83562D01*
X86186Y84317D01*
Y84973D01*
X85530Y85629D01*
X84218D01*
X83562Y84973D01*
X87498D02*
X88153Y85629D01*
X89465D01*
X90121Y84973D01*
Y84317D01*
X89465Y83661D01*
X88809D01*
X89465D01*
X90121Y83005D01*
Y82349D01*
X89465Y81693D01*
X88153D01*
X87498Y82349D01*
X61681Y86187D02*
X61025Y85531D01*
Y84219D01*
X61681Y83563D01*
X64305D01*
X64961Y84219D01*
Y85531D01*
X64305Y86187D01*
X64961Y90123D02*
Y87499D01*
X62337Y90123D01*
X61681D01*
X61025Y89467D01*
Y88155D01*
X61681Y87499D01*
X64961Y93402D02*
X61025D01*
X62993Y91435D01*
Y94058D01*
X76412Y34122D02*
X77068Y33466D01*
X78379D01*
X79035Y34122D01*
Y36746D01*
X78379Y37402D01*
X77068D01*
X76412Y36746D01*
X72476Y37402D02*
X75100D01*
X72476Y34778D01*
Y34122D01*
X73132Y33466D01*
X74444D01*
X75100Y34122D01*
X68540Y33466D02*
X71164D01*
Y35434D01*
X69852Y34778D01*
X69196D01*
X68540Y35434D01*
Y36746D01*
X69196Y37402D01*
X70508D01*
X71164Y36746D01*
X41699Y36744D02*
X41043Y37400D01*
X39731D01*
X39075Y36744D01*
Y34121D01*
X39731Y33465D01*
X41043D01*
X41699Y34121D01*
X45634Y33465D02*
X43011D01*
X45634Y36088D01*
Y36744D01*
X44978Y37400D01*
X43666D01*
X43011Y36744D01*
X49570Y37400D02*
X48258Y36744D01*
X46946Y35432D01*
Y34121D01*
X47602Y33465D01*
X48914D01*
X49570Y34121D01*
Y34776D01*
X48914Y35432D01*
X46946D01*
X163026Y34122D02*
X163682Y33466D01*
X164994D01*
X165650Y34122D01*
Y36746D01*
X164994Y37402D01*
X163682D01*
X163026Y36746D01*
X159090Y37402D02*
X161714D01*
X159090Y34778D01*
Y34122D01*
X159746Y33466D01*
X161058D01*
X161714Y34122D01*
X157778Y33466D02*
X155154D01*
Y34122D01*
X157778Y36746D01*
Y37402D01*
X127525Y36744D02*
X126869Y37400D01*
X125557D01*
X124902Y36744D01*
Y34121D01*
X125557Y33465D01*
X126869D01*
X127525Y34121D01*
X131461Y33465D02*
X128837D01*
X131461Y36088D01*
Y36744D01*
X130805Y37400D01*
X129493D01*
X128837Y36744D01*
X132773D02*
X133429Y37400D01*
X134741D01*
X135397Y36744D01*
Y36088D01*
X134741Y35432D01*
X135397Y34776D01*
Y34121D01*
X134741Y33465D01*
X133429D01*
X132773Y34121D01*
Y34776D01*
X133429Y35432D01*
X132773Y36088D01*
Y36744D01*
X133429Y35432D02*
X134741D01*
X41634Y97817D02*
X42290Y98473D01*
Y99785D01*
X41634Y100441D01*
X39010D01*
X38354Y99785D01*
Y98473D01*
X39010Y97817D01*
X42290Y93881D02*
Y96505D01*
X40322D01*
X40978Y95193D01*
Y94537D01*
X40322Y93881D01*
X39010D01*
X38354Y94537D01*
Y95849D01*
X39010Y96505D01*
X159351Y92109D02*
X160007Y92764D01*
Y94076D01*
X159351Y94732D01*
X156727D01*
X156071Y94076D01*
Y92764D01*
X156727Y92109D01*
X160007Y88173D02*
X159351Y89485D01*
X158039Y90797D01*
X156727D01*
X156071Y90141D01*
Y88829D01*
X156727Y88173D01*
X157383D01*
X158039Y88829D01*
Y90797D01*
X51477Y97817D02*
X52133Y98473D01*
Y99785D01*
X51477Y100441D01*
X48853D01*
X48197Y99785D01*
Y98473D01*
X48853Y97817D01*
X52133Y96505D02*
Y93881D01*
X51477D01*
X48853Y96505D01*
X48197D01*
X169193Y92109D02*
X169849Y92764D01*
Y94076D01*
X169193Y94732D01*
X166569D01*
X165913Y94076D01*
Y92764D01*
X166569Y92109D01*
X169193Y90797D02*
X169849Y90141D01*
Y88829D01*
X169193Y88173D01*
X168537D01*
X167881Y88829D01*
X167225Y88173D01*
X166569D01*
X165913Y88829D01*
Y90141D01*
X166569Y90797D01*
X167225D01*
X167881Y90141D01*
X168537Y90797D01*
X169193D01*
X167881Y90141D02*
Y88829D01*
X169980Y112025D02*
X169324Y111369D01*
Y110057D01*
X169980Y109402D01*
X172604D01*
X173260Y110057D01*
Y111369D01*
X172604Y112025D01*
X169980Y113337D02*
X169324Y113993D01*
Y115305D01*
X169980Y115961D01*
X170636D01*
X171292Y115305D01*
Y114649D01*
Y115305D01*
X171948Y115961D01*
X172604D01*
X173260Y115305D01*
Y113993D01*
X172604Y113337D01*
X173260Y119897D02*
Y117273D01*
X170636Y119897D01*
X169980D01*
X169324Y119241D01*
Y117929D01*
X169980Y117273D01*
X179823Y112025D02*
X179167Y111369D01*
Y110057D01*
X179823Y109402D01*
X182446D01*
X183102Y110057D01*
Y111369D01*
X182446Y112025D01*
X179823Y113337D02*
X179167Y113993D01*
Y115305D01*
X179823Y115961D01*
X180479D01*
X181134Y115305D01*
Y114649D01*
Y115305D01*
X181790Y115961D01*
X182446D01*
X183102Y115305D01*
Y113993D01*
X182446Y113337D01*
X179823Y117273D02*
X179167Y117929D01*
Y119241D01*
X179823Y119897D01*
X180479D01*
X181134Y119241D01*
Y118585D01*
Y119241D01*
X181790Y119897D01*
X182446D01*
X183102Y119241D01*
Y117929D01*
X182446Y117273D01*
X46949Y118718D02*
X46293Y118062D01*
Y116751D01*
X46949Y116095D01*
X49572D01*
X50228Y116751D01*
Y118062D01*
X49572Y118718D01*
X46949Y120030D02*
X46293Y120686D01*
Y121998D01*
X46949Y122654D01*
X47605D01*
X48261Y121998D01*
Y121342D01*
Y121998D01*
X48916Y122654D01*
X49572D01*
X50228Y121998D01*
Y120686D01*
X49572Y120030D01*
X50228Y125934D02*
X46293D01*
X48261Y123966D01*
Y126590D01*
X37106Y118718D02*
X36450Y118062D01*
Y116751D01*
X37106Y116095D01*
X39730D01*
X40386Y116751D01*
Y118062D01*
X39730Y118718D01*
X37106Y120030D02*
X36450Y120686D01*
Y121998D01*
X37106Y122654D01*
X37762D01*
X38418Y121998D01*
Y121342D01*
Y121998D01*
X39074Y122654D01*
X39730D01*
X40386Y121998D01*
Y120686D01*
X39730Y120030D01*
X36450Y126590D02*
Y123966D01*
X38418D01*
X37762Y125278D01*
Y125934D01*
X38418Y126590D01*
X39730D01*
X40386Y125934D01*
Y124622D01*
X39730Y123966D01*
X163779Y179134D02*
Y175198D01*
X161812D01*
X161156Y175854D01*
Y177166D01*
X161812Y177822D01*
X163779D01*
X162468D02*
X161156Y179134D01*
X159844D02*
X158532D01*
X159188D01*
Y175198D01*
X159844Y175854D01*
X163779Y188976D02*
Y185041D01*
X161812D01*
X161156Y185697D01*
Y187009D01*
X161812Y187664D01*
X163779D01*
X162468D02*
X161156Y188976D01*
X157220D02*
X159844D01*
X157220Y186353D01*
Y185697D01*
X157876Y185041D01*
X159188D01*
X159844Y185697D01*
X141732Y176575D02*
X145668D01*
Y174607D01*
X145012Y173951D01*
X143700D01*
X143044Y174607D01*
Y176575D01*
Y175263D02*
X141732Y173951D01*
X145012Y172639D02*
X145668Y171983D01*
Y170671D01*
X145012Y170015D01*
X144356D01*
X143700Y170671D01*
Y171327D01*
Y170671D01*
X143044Y170015D01*
X142388D01*
X141732Y170671D01*
Y171983D01*
X142388Y172639D01*
X163779Y109843D02*
Y113778D01*
X165747D01*
X166403Y113122D01*
Y111810D01*
X165747Y111154D01*
X163779D01*
X165091D02*
X166403Y109843D01*
X169683D02*
Y113778D01*
X167715Y111810D01*
X170339D01*
X248031Y170669D02*
X251967D01*
Y168701D01*
X251311Y168045D01*
X249999D01*
X249343Y168701D01*
Y170669D01*
Y169357D02*
X248031Y168045D01*
X251967Y164110D02*
Y166734D01*
X249999D01*
X250655Y165422D01*
Y164766D01*
X249999Y164110D01*
X248688D01*
X248031Y164766D01*
Y166078D01*
X248688Y166734D01*
X239764Y185039D02*
Y188975D01*
X241732D01*
X242388Y188319D01*
Y187007D01*
X241732Y186351D01*
X239764D01*
X241076D02*
X242388Y185039D01*
X246323Y188975D02*
X245011Y188319D01*
X243700Y187007D01*
Y185695D01*
X244356Y185039D01*
X245667D01*
X246323Y185695D01*
Y186351D01*
X245667Y187007D01*
X243700D01*
X126772Y177165D02*
Y181101D01*
X128740D01*
X129395Y180445D01*
Y179133D01*
X128740Y178477D01*
X126772D01*
X128084D02*
X129395Y177165D01*
X130707D02*
X132019D01*
X131363D01*
Y181101D01*
X130707Y180445D01*
X133987Y177165D02*
X135299D01*
X134643D01*
Y181101D01*
X133987Y180445D01*
X126772Y183071D02*
Y187007D01*
X128740D01*
X129395Y186351D01*
Y185039D01*
X128740Y184383D01*
X126772D01*
X128084D02*
X129395Y183071D01*
X130707D02*
X132019D01*
X131363D01*
Y187007D01*
X130707Y186351D01*
X136611Y183071D02*
X133987D01*
X136611Y185695D01*
Y186351D01*
X135955Y187007D01*
X134643D01*
X133987Y186351D01*
X150394Y109843D02*
Y113778D01*
X152362D01*
X153017Y113122D01*
Y111810D01*
X152362Y111154D01*
X150394D01*
X151706D02*
X153017Y109843D01*
X154329D02*
X155641D01*
X154985D01*
Y113778D01*
X154329Y113122D01*
X157609D02*
X158265Y113778D01*
X159577D01*
X160233Y113122D01*
Y112466D01*
X159577Y111810D01*
X158921D01*
X159577D01*
X160233Y111154D01*
Y110498D01*
X159577Y109843D01*
X158265D01*
X157609Y110498D01*
X20866Y60236D02*
X24802D01*
Y58268D01*
X24146Y57612D01*
X22834D01*
X22178Y58268D01*
Y60236D01*
Y58924D02*
X20866Y57612D01*
Y56300D02*
Y54989D01*
Y55645D01*
X24802D01*
X24146Y56300D01*
X24802Y53021D02*
Y50397D01*
X24146D01*
X21522Y53021D01*
X20866D01*
X205382Y82939D02*
X204726Y82283D01*
Y80971D01*
X205382Y80315D01*
X208005D01*
X208661Y80971D01*
Y82283D01*
X208005Y82939D01*
X205382Y84251D02*
X204726Y84907D01*
Y86219D01*
X205382Y86875D01*
X206038D01*
X206694Y86219D01*
Y85563D01*
Y86219D01*
X207349Y86875D01*
X208005D01*
X208661Y86219D01*
Y84907D01*
X208005Y84251D01*
X205382Y88186D02*
X204726Y88842D01*
Y90154D01*
X205382Y90810D01*
X206038D01*
X206694Y90154D01*
X207349Y90810D01*
X208005D01*
X208661Y90154D01*
Y88842D01*
X208005Y88186D01*
X207349D01*
X206694Y88842D01*
X206038Y88186D01*
X205382D01*
X206694Y88842D02*
Y90154D01*
X225721Y66667D02*
X226377Y67323D01*
Y68635D01*
X225721Y69291D01*
X223097D01*
X222441Y68635D01*
Y67323D01*
X223097Y66667D01*
X222441Y62732D02*
Y65356D01*
X225065Y62732D01*
X225721D01*
X226377Y63388D01*
Y64700D01*
X225721Y65356D01*
X223097Y61420D02*
X222441Y60764D01*
Y59452D01*
X223097Y58796D01*
X225721D01*
X226377Y59452D01*
Y60764D01*
X225721Y61420D01*
X225065D01*
X224409Y60764D01*
Y58796D01*
X209035Y102329D02*
Y99050D01*
X209691Y98394D01*
X211003D01*
X211659Y99050D01*
Y102329D01*
X212971Y101673D02*
X213627Y102329D01*
X214939D01*
X215595Y101673D01*
Y101017D01*
X214939Y100362D01*
X214283D01*
X214939D01*
X215595Y99706D01*
Y99050D01*
X214939Y98394D01*
X213627D01*
X212971Y99050D01*
X216907Y101673D02*
X217563Y102329D01*
X218875D01*
X219531Y101673D01*
Y99050D01*
X218875Y98394D01*
X217563D01*
X216907Y99050D01*
Y101673D01*
X220843Y98394D02*
X222155D01*
X221499D01*
Y102329D01*
X220843Y101673D01*
X217193Y134120D02*
X216537Y133464D01*
Y132152D01*
X217193Y131496D01*
X219816D01*
X220472Y132152D01*
Y133464D01*
X219816Y134120D01*
X220472Y138056D02*
Y135432D01*
X217849Y138056D01*
X217193D01*
X216537Y137400D01*
Y136088D01*
X217193Y135432D01*
Y139367D02*
X216537Y140024D01*
Y141335D01*
X217193Y141991D01*
X219816D01*
X220472Y141335D01*
Y140024D01*
X219816Y139367D01*
X217193D01*
X209319Y151836D02*
X208663Y151181D01*
Y149869D01*
X209319Y149213D01*
X211943D01*
X212598Y149869D01*
Y151181D01*
X211943Y151836D01*
X209319Y153148D02*
X208663Y153804D01*
Y155116D01*
X209319Y155772D01*
X209975D01*
X210630Y155116D01*
Y154460D01*
Y155116D01*
X211286Y155772D01*
X211943D01*
X212598Y155116D01*
Y153804D01*
X211943Y153148D01*
X209319Y157084D02*
X208663Y157740D01*
Y159052D01*
X209319Y159708D01*
X211943D01*
X212598Y159052D01*
Y157740D01*
X211943Y157084D01*
X209319D01*
X229923Y118110D02*
X233858D01*
Y120734D01*
X229923Y124670D02*
Y122046D01*
X231890D01*
X231234Y123358D01*
Y124014D01*
X231890Y124670D01*
X233202D01*
X233858Y124014D01*
Y122702D01*
X233202Y122046D01*
X6500Y181500D02*
X10436D01*
Y179532D01*
X9780Y178876D01*
X8468D01*
X7812Y179532D01*
Y181500D01*
X10436Y174940D02*
Y177564D01*
X8468D01*
X9124Y176252D01*
Y175596D01*
X8468Y174940D01*
X7156D01*
X6500Y175596D01*
Y176908D01*
X7156Y177564D01*
X11811Y220472D02*
G03*
X0Y208661I0J-11811D01*
G01*
Y11811D02*
G03*
X11811Y0I11811J0D01*
G01*
X244094D02*
G03*
X255906Y11811I0J11811D01*
G01*
Y208661D02*
G03*
X244094Y220472I-11811J0D01*
G01*
X255906Y11811D02*
Y208661D01*
X11811Y220472D02*
X244094D01*
X11811Y0D02*
X244094D01*
X0Y11811D02*
Y208661D01*
X-196850Y-196850D02*
X1456693D01*
X-196850D02*
Y972441D01*
X1456693Y-196850D02*
Y972441D01*
X-196850D02*
X1456693D01*
X1181102Y-196850D02*
Y-39370D01*
X984252Y-196850D02*
Y-39370D01*
X1456693D01*
X984252Y-157480D02*
X1456693D01*
X1181102Y-118110D02*
X1456693D01*
X1181102Y-78740D02*
X1456693D01*
X1338583Y-157480D02*
Y-118110D01*
X1190945Y-188976D02*
Y-183073D01*
X1193897D01*
X1194881Y-184057D01*
Y-186025D01*
X1193897Y-187009D01*
X1190945D01*
X1192913D02*
X1194881Y-188976D01*
X1196848D02*
Y-183073D01*
X1199800D01*
X1200784Y-184057D01*
Y-186025D01*
X1199800Y-187009D01*
X1196848D01*
X1202752Y-183073D02*
X1204720D01*
X1203736D01*
Y-188976D01*
X1202752D01*
X1204720D01*
X1207672Y-189960D02*
X1211607D01*
X1213575Y-183073D02*
Y-188976D01*
Y-186025D01*
X1217511D01*
Y-183073D01*
Y-188976D01*
X1219479D02*
Y-185041D01*
X1221447Y-183073D01*
X1223415Y-185041D01*
Y-188976D01*
Y-186025D01*
X1219479D01*
X1225383Y-183073D02*
X1229318D01*
X1227350D01*
Y-188976D01*
X1231286Y-189960D02*
X1235222D01*
X1237190Y-188976D02*
Y-185041D01*
X1239158Y-183073D01*
X1241125Y-185041D01*
Y-188976D01*
Y-186025D01*
X1237190D01*
X1243093Y-188976D02*
Y-183073D01*
X1245061Y-185041D01*
X1247029Y-183073D01*
Y-188976D01*
X1248997D02*
Y-183073D01*
X1251949D01*
X1252933Y-184057D01*
Y-186025D01*
X1251949Y-187009D01*
X1248997D01*
X1254900Y-189960D02*
X1258836D01*
X1260804Y-183073D02*
X1264740D01*
X1262772D01*
Y-188976D01*
X1266708D02*
Y-185041D01*
X1268676Y-183073D01*
X1270644Y-185041D01*
Y-188976D01*
Y-186025D01*
X1266708D01*
X1276547Y-184057D02*
X1275563Y-183073D01*
X1273595D01*
X1272611Y-184057D01*
Y-185041D01*
X1273595Y-186025D01*
X1275563D01*
X1276547Y-187009D01*
Y-187993D01*
X1275563Y-188976D01*
X1273595D01*
X1272611Y-187993D01*
X1282451Y-183073D02*
X1278515D01*
Y-186025D01*
X1280483Y-185041D01*
X1281467D01*
X1282451Y-186025D01*
Y-187993D01*
X1281467Y-188976D01*
X1279499D01*
X1278515Y-187993D01*
X1284418Y-183073D02*
X1288354D01*
Y-184057D01*
X1284418Y-187993D01*
Y-188976D01*
X1294258Y-183073D02*
X1290322D01*
Y-186025D01*
X1292290Y-185041D01*
X1293274D01*
X1294258Y-186025D01*
Y-187993D01*
X1293274Y-188976D01*
X1291306D01*
X1290322Y-187993D01*
X1300161Y-183073D02*
X1298194Y-184057D01*
X1296226Y-186025D01*
Y-187993D01*
X1297210Y-188976D01*
X1299177D01*
X1300161Y-187993D01*
Y-187009D01*
X1299177Y-186025D01*
X1296226D01*
X1302129Y-189960D02*
X1306065D01*
X1308033Y-184057D02*
X1309017Y-183073D01*
X1310985D01*
X1311969Y-184057D01*
Y-187993D01*
X1310985Y-188976D01*
X1309017D01*
X1308033Y-187993D01*
Y-184057D01*
X1317872Y-188976D02*
X1313937D01*
X1317872Y-185041D01*
Y-184057D01*
X1316888Y-183073D01*
X1314921D01*
X1313937Y-184057D01*
X1319840Y-188976D02*
Y-187993D01*
X1320824D01*
Y-188976D01*
X1319840D01*
X1324760D02*
Y-183073D01*
X1327712D01*
X1328696Y-184057D01*
Y-186025D01*
X1327712Y-187009D01*
X1324760D01*
X1334599Y-185041D02*
X1331647D01*
X1330663Y-186025D01*
Y-187993D01*
X1331647Y-188976D01*
X1334599D01*
X1336567Y-183073D02*
Y-188976D01*
X1339519D01*
X1340503Y-187993D01*
Y-187009D01*
Y-186025D01*
X1339519Y-185041D01*
X1336567D01*
X1342471Y-183073D02*
Y-188976D01*
X1345422D01*
X1346406Y-187993D01*
Y-184057D01*
X1345422Y-183073D01*
X1342471D01*
X1349358Y-188976D02*
X1351326D01*
X1352310Y-187993D01*
Y-186025D01*
X1351326Y-185041D01*
X1349358D01*
X1348374Y-186025D01*
Y-187993D01*
X1349358Y-188976D01*
X1358214Y-185041D02*
X1355262D01*
X1354278Y-186025D01*
Y-187993D01*
X1355262Y-188976D01*
X1358214D01*
D35*
X124016Y70864D02*
Y62992D01*
X129263D01*
X135823D02*
Y70864D01*
X131887Y66928D01*
X137135D01*
X151575Y57084D02*
Y49213D01*
X156823D01*
X159446Y55772D02*
X160758Y57084D01*
X163382D01*
X164694Y55772D01*
Y54460D01*
X163382Y53148D01*
X162070D01*
X163382D01*
X164694Y51836D01*
Y50524D01*
X163382Y49213D01*
X160758D01*
X159446Y50524D01*
X39370Y58068D02*
Y50197D01*
X44618D01*
X52489D02*
X47242D01*
X52489Y55445D01*
Y56756D01*
X51177Y58068D01*
X48553D01*
X47242Y56756D01*
X68898Y70864D02*
Y62992D01*
X74145D01*
X76769D02*
X79393D01*
X78081D01*
Y70864D01*
X76769Y69552D01*
X1202756Y-110236D02*
Y-101053D01*
X1207348Y-96461D01*
X1211939Y-101053D01*
Y-110236D01*
Y-103349D01*
X1202756D01*
X1216531Y-110236D02*
X1223419D01*
X1225714Y-107940D01*
X1223419Y-105645D01*
X1218827D01*
X1216531Y-103349D01*
X1218827Y-101053D01*
X1225714D01*
X1230306Y-110236D02*
X1237194D01*
X1239489Y-107940D01*
X1237194Y-105645D01*
X1232602D01*
X1230306Y-103349D01*
X1232602Y-101053D01*
X1239489D01*
X1250969Y-110236D02*
X1246377D01*
X1244081Y-107940D01*
Y-103349D01*
X1246377Y-101053D01*
X1250969D01*
X1253265Y-103349D01*
Y-105645D01*
X1244081D01*
X1257856Y-110236D02*
Y-101053D01*
X1260152D01*
X1262448Y-103349D01*
Y-110236D01*
Y-103349D01*
X1264744Y-101053D01*
X1267040Y-103349D01*
Y-110236D01*
X1271631Y-96461D02*
Y-110236D01*
X1278519D01*
X1280815Y-107940D01*
Y-105645D01*
Y-103349D01*
X1278519Y-101053D01*
X1271631D01*
X1285406Y-110236D02*
X1289998D01*
X1287702D01*
Y-96461D01*
X1285406D01*
X1296886Y-101053D02*
Y-107940D01*
X1299181Y-110236D01*
X1306069D01*
Y-112532D01*
X1303773Y-114828D01*
X1301477D01*
X1306069Y-110236D02*
Y-101053D01*
X1324436Y-96461D02*
X1333619D01*
X1329027D01*
Y-110236D01*
X1340507D02*
X1345098D01*
X1347394Y-107940D01*
Y-103349D01*
X1345098Y-101053D01*
X1340507D01*
X1338211Y-103349D01*
Y-107940D01*
X1340507Y-110236D01*
X1351986Y-114828D02*
Y-101053D01*
X1358873D01*
X1361169Y-103349D01*
Y-107940D01*
X1358873Y-110236D01*
X1351986D01*
X52953Y11811D02*
Y19682D01*
X56889D01*
X58200Y18371D01*
Y15747D01*
X56889Y14435D01*
X52953D01*
X60824Y11811D02*
X63448D01*
X62136D01*
Y19682D01*
X60824Y18371D01*
X139567Y11811D02*
Y19682D01*
X143503D01*
X144815Y18371D01*
Y15747D01*
X143503Y14435D01*
X139567D01*
X152686Y11811D02*
X147438D01*
X152686Y17059D01*
Y18371D01*
X151374Y19682D01*
X148750D01*
X147438Y18371D01*
X198622Y11811D02*
Y19682D01*
X202558D01*
X203870Y18371D01*
Y15747D01*
X202558Y14435D01*
X198622D01*
X206493Y18371D02*
X207805Y19682D01*
X210429D01*
X211741Y18371D01*
Y17059D01*
X210429Y15747D01*
X209117D01*
X210429D01*
X211741Y14435D01*
Y13123D01*
X210429Y11811D01*
X207805D01*
X206493Y13123D01*
X95472Y122045D02*
Y115485D01*
X96784Y114173D01*
X99408D01*
X100720Y115485D01*
Y122045D01*
X108592Y114173D02*
X103344D01*
X108592Y119421D01*
Y120733D01*
X107280Y122045D01*
X104656D01*
X103344Y120733D01*
X1190945Y-57092D02*
X1201440D01*
X1196192D01*
Y-72835D01*
X1206688D02*
Y-62339D01*
X1211936Y-57092D01*
X1217183Y-62339D01*
Y-72835D01*
Y-64963D01*
X1206688D01*
X1232926Y-59715D02*
X1230302Y-57092D01*
X1225055D01*
X1222431Y-59715D01*
Y-62339D01*
X1225055Y-64963D01*
X1230302D01*
X1232926Y-67587D01*
Y-70211D01*
X1230302Y-72835D01*
X1225055D01*
X1222431Y-70211D01*
X1248669Y-57092D02*
X1238174D01*
Y-64963D01*
X1243421Y-62339D01*
X1246045D01*
X1248669Y-64963D01*
Y-70211D01*
X1246045Y-72835D01*
X1240798D01*
X1238174Y-70211D01*
X1253917Y-57092D02*
X1264412D01*
Y-59715D01*
X1253917Y-70211D01*
Y-72835D01*
X1280155Y-57092D02*
X1269660D01*
Y-64963D01*
X1274907Y-62339D01*
X1277531D01*
X1280155Y-64963D01*
Y-70211D01*
X1277531Y-72835D01*
X1272283D01*
X1269660Y-70211D01*
X1295898Y-57092D02*
X1290650Y-59715D01*
X1285402Y-64963D01*
Y-70211D01*
X1288026Y-72835D01*
X1293274D01*
X1295898Y-70211D01*
Y-67587D01*
X1293274Y-64963D01*
X1285402D01*
X1316888Y-57092D02*
Y-72835D01*
Y-64963D01*
X1327384D01*
Y-57092D01*
Y-72835D01*
X1332631D02*
Y-62339D01*
X1337879Y-57092D01*
X1343127Y-62339D01*
Y-72835D01*
Y-64963D01*
X1332631D01*
X1348374Y-57092D02*
X1358870D01*
X1353622D01*
Y-72835D01*
X1206034Y-151575D02*
X1196850D01*
X1206034Y-142391D01*
Y-140096D01*
X1203738Y-137800D01*
X1199146D01*
X1196850Y-140096D01*
X1219809Y-151575D02*
X1210625D01*
X1219809Y-142391D01*
Y-140096D01*
X1217513Y-137800D01*
X1212921D01*
X1210625Y-140096D01*
X1224401Y-151575D02*
X1233584Y-142391D01*
X1238176Y-140096D02*
X1240471Y-137800D01*
X1245063D01*
X1247359Y-140096D01*
Y-149279D01*
X1245063Y-151575D01*
X1240471D01*
X1238176Y-149279D01*
Y-140096D01*
X1251951D02*
X1254247Y-137800D01*
X1258838D01*
X1261134Y-140096D01*
Y-142391D01*
X1258838Y-144687D01*
X1256542D01*
X1258838D01*
X1261134Y-146983D01*
Y-149279D01*
X1258838Y-151575D01*
X1254247D01*
X1251951Y-149279D01*
X1265726Y-151575D02*
X1274909Y-142391D01*
X1288684Y-151575D02*
X1279501D01*
X1288684Y-142391D01*
Y-140096D01*
X1286388Y-137800D01*
X1281797D01*
X1279501Y-140096D01*
X1293276D02*
X1295572Y-137800D01*
X1300163D01*
X1302459Y-140096D01*
Y-149279D01*
X1300163Y-151575D01*
X1295572D01*
X1293276Y-149279D01*
Y-140096D01*
X1307051Y-151575D02*
X1311643D01*
X1309347D01*
Y-137800D01*
X1307051Y-140096D01*
X1318530Y-137800D02*
X1327714D01*
Y-140096D01*
X1318530Y-149279D01*
Y-151575D01*
X1360236Y-138456D02*
X1362860Y-135832D01*
X1368108D01*
X1370732Y-138456D01*
Y-148951D01*
X1368108Y-151575D01*
X1362860D01*
X1360236Y-148951D01*
Y-138456D01*
X1386475Y-151575D02*
X1375979D01*
X1386475Y-141079D01*
Y-138456D01*
X1383851Y-135832D01*
X1378603D01*
X1375979Y-138456D01*
X1005906Y-175202D02*
Y-190945D01*
X1011153Y-185697D01*
X1016401Y-190945D01*
Y-175202D01*
X1021649Y-190945D02*
X1026896D01*
X1024272D01*
Y-180450D01*
X1021649D01*
X1034768Y-190945D02*
Y-180450D01*
X1037391D01*
X1040015Y-183073D01*
Y-190945D01*
Y-183073D01*
X1042639Y-180450D01*
X1045263Y-183073D01*
Y-190945D01*
X1050511Y-175202D02*
Y-185697D01*
X1055758Y-190945D01*
X1061006Y-185697D01*
Y-175202D01*
X1076749Y-177826D02*
X1074125Y-175202D01*
X1068877D01*
X1066253Y-177826D01*
Y-188321D01*
X1068877Y-190945D01*
X1074125D01*
X1076749Y-188321D01*
Y-183073D01*
X1071501D01*
D36*
X241929Y169095D02*
G03*
X241929Y169095I-492J0D01*
G01*
X160630Y175000D02*
G03*
X160630Y175000I-492J0D01*
G01*
X1185039Y-161420D02*
Y-169291D01*
X1188975D01*
X1190287Y-167979D01*
Y-162732D01*
X1188975Y-161420D01*
X1185039D01*
X1194223Y-169291D02*
X1196847D01*
X1198158Y-167979D01*
Y-165356D01*
X1196847Y-164044D01*
X1194223D01*
X1192911Y-165356D01*
Y-167979D01*
X1194223Y-169291D01*
X1206030Y-164044D02*
X1202094D01*
X1200782Y-165356D01*
Y-167979D01*
X1202094Y-169291D01*
X1206030D01*
X1208654Y-164044D02*
Y-167979D01*
X1209966Y-169291D01*
X1213902D01*
Y-164044D01*
X1216525Y-169291D02*
Y-164044D01*
X1217837D01*
X1219149Y-165356D01*
Y-169291D01*
Y-165356D01*
X1220461Y-164044D01*
X1221773Y-165356D01*
Y-169291D01*
X1228333D02*
X1225709D01*
X1224397Y-167979D01*
Y-165356D01*
X1225709Y-164044D01*
X1228333D01*
X1229644Y-165356D01*
Y-166667D01*
X1224397D01*
X1232268Y-169291D02*
Y-164044D01*
X1236204D01*
X1237516Y-165356D01*
Y-169291D01*
X1241452Y-162732D02*
Y-164044D01*
X1240140D01*
X1242764D01*
X1241452D01*
Y-167979D01*
X1242764Y-169291D01*
X1185039Y-122050D02*
Y-129921D01*
X1188975D01*
X1190287Y-128609D01*
Y-123362D01*
X1188975Y-122050D01*
X1185039D01*
X1194223Y-124674D02*
X1196847D01*
X1198158Y-125986D01*
Y-129921D01*
X1194223D01*
X1192911Y-128609D01*
X1194223Y-127297D01*
X1198158D01*
X1202094Y-123362D02*
Y-124674D01*
X1200782D01*
X1203406D01*
X1202094D01*
Y-128609D01*
X1203406Y-129921D01*
X1211278D02*
X1208654D01*
X1207342Y-128609D01*
Y-125986D01*
X1208654Y-124674D01*
X1211278D01*
X1212589Y-125986D01*
Y-127297D01*
X1207342D01*
X1185039Y-82680D02*
Y-90551D01*
X1190287D01*
X1194223Y-85303D02*
X1196847D01*
X1198158Y-86615D01*
Y-90551D01*
X1194223D01*
X1192911Y-89239D01*
X1194223Y-87927D01*
X1198158D01*
X1200782Y-85303D02*
Y-89239D01*
X1202094Y-90551D01*
X1206030D01*
Y-91863D01*
X1204718Y-93175D01*
X1203406D01*
X1206030Y-90551D02*
Y-85303D01*
X1212590Y-90551D02*
X1209966D01*
X1208654Y-89239D01*
Y-86615D01*
X1209966Y-85303D01*
X1212590D01*
X1213902Y-86615D01*
Y-87927D01*
X1208654D01*
X1216525Y-85303D02*
Y-90551D01*
Y-87927D01*
X1217837Y-86615D01*
X1219149Y-85303D01*
X1220461D01*
X1232268Y-90551D02*
Y-82680D01*
X1237516Y-90551D01*
Y-82680D01*
X1241452Y-85303D02*
X1244075D01*
X1245387Y-86615D01*
Y-90551D01*
X1241452D01*
X1240140Y-89239D01*
X1241452Y-87927D01*
X1245387D01*
X1248011Y-90551D02*
Y-85303D01*
X1249323D01*
X1250635Y-86615D01*
Y-90551D01*
Y-86615D01*
X1251947Y-85303D01*
X1253259Y-86615D01*
Y-90551D01*
X1259818D02*
X1257195D01*
X1255883Y-89239D01*
Y-86615D01*
X1257195Y-85303D01*
X1259818D01*
X1261130Y-86615D01*
Y-87927D01*
X1255883D01*
X1185039Y-43310D02*
Y-51181D01*
X1188975D01*
X1190287Y-49869D01*
Y-44622D01*
X1188975Y-43310D01*
X1185039D01*
X1194223Y-51181D02*
X1196847D01*
X1198158Y-49869D01*
Y-47245D01*
X1196847Y-45933D01*
X1194223D01*
X1192911Y-47245D01*
Y-49869D01*
X1194223Y-51181D01*
X1206030Y-45933D02*
X1202094D01*
X1200782Y-47245D01*
Y-49869D01*
X1202094Y-51181D01*
X1206030D01*
X1208654Y-45933D02*
Y-49869D01*
X1209966Y-51181D01*
X1213902D01*
Y-45933D01*
X1216525Y-51181D02*
Y-45933D01*
X1217837D01*
X1219149Y-47245D01*
Y-51181D01*
Y-47245D01*
X1220461Y-45933D01*
X1221773Y-47245D01*
Y-51181D01*
X1228333D02*
X1225709D01*
X1224397Y-49869D01*
Y-47245D01*
X1225709Y-45933D01*
X1228333D01*
X1229644Y-47245D01*
Y-48557D01*
X1224397D01*
X1232268Y-51181D02*
Y-45933D01*
X1236204D01*
X1237516Y-47245D01*
Y-51181D01*
X1241452Y-44622D02*
Y-45933D01*
X1240140D01*
X1242764D01*
X1241452D01*
Y-49869D01*
X1242764Y-51181D01*
X988189Y-161420D02*
Y-169291D01*
X992125D01*
X993437Y-167979D01*
Y-162732D01*
X992125Y-161420D01*
X988189D01*
X999996Y-169291D02*
X997372D01*
X996060Y-167979D01*
Y-165356D01*
X997372Y-164044D01*
X999996D01*
X1001308Y-165356D01*
Y-166667D01*
X996060D01*
X1003932Y-169291D02*
X1007868D01*
X1009180Y-167979D01*
X1007868Y-166667D01*
X1005244D01*
X1003932Y-165356D01*
X1005244Y-164044D01*
X1009180D01*
X1014427Y-171915D02*
X1015739D01*
X1017051Y-170603D01*
Y-164044D01*
X1013115D01*
X1011803Y-165356D01*
Y-167979D01*
X1013115Y-169291D01*
X1017051D01*
X1019675D02*
X1022299D01*
X1020987D01*
Y-164044D01*
X1019675D01*
X1026235Y-169291D02*
Y-164044D01*
X1030170D01*
X1031482Y-165356D01*
Y-169291D01*
X1038042D02*
X1035418D01*
X1034106Y-167979D01*
Y-165356D01*
X1035418Y-164044D01*
X1038042D01*
X1039354Y-165356D01*
Y-166667D01*
X1034106D01*
X1041977Y-164044D02*
Y-169291D01*
Y-166667D01*
X1043289Y-165356D01*
X1044601Y-164044D01*
X1045913D01*
X1342520Y-129921D02*
Y-122050D01*
X1346455D01*
X1347767Y-123362D01*
Y-125986D01*
X1346455Y-127297D01*
X1342520D01*
X1345144D02*
X1347767Y-129921D01*
X1354327D02*
X1351703D01*
X1350391Y-128609D01*
Y-125986D01*
X1351703Y-124674D01*
X1354327D01*
X1355639Y-125986D01*
Y-127297D01*
X1350391D01*
X1358263Y-124674D02*
X1360886Y-129921D01*
X1363510Y-124674D01*
D37*
X220472Y47244D02*
G03*
X220472Y47244I-15748J0D01*
G01*
X242126Y45276D02*
G03*
X242126Y45276I-9843J0D01*
G01*
X229134Y131890D02*
X235433D01*
X236221Y131102D01*
X240158D01*
X224409D02*
X228346D01*
X229134Y131890D01*
X235433Y116142D02*
X236221Y116929D01*
X240158D01*
X224409D02*
X228346D01*
X229134Y116142D01*
X235433D01*
X240158Y116929D02*
Y131102D01*
X224409Y116929D02*
Y131102D01*
X184542Y45712D02*
X187325Y48495D01*
X184542Y48495D02*
X187325Y45712D01*
X224016Y35433D02*
Y38057D01*
X222705Y36745D02*
X225328D01*
X139962Y135826D02*
Y133858D01*
X141437D01*
Y134842D01*
Y133858D01*
X142913D01*
Y136810D02*
Y137794D01*
Y137302D01*
X139962D01*
X140454Y136810D01*
X218504Y176180D02*
X220472D01*
X219488D01*
Y173228D01*
X221456D02*
X222440D01*
X221948D01*
Y176180D01*
X221456Y175688D01*
X235237Y172244D02*
Y174212D01*
Y173228D01*
X238189D01*
Y177164D02*
Y175196D01*
X236221Y177164D01*
X235729D01*
X235237Y176672D01*
Y175688D01*
X235729Y175196D01*
X52756Y188583D02*
Y191534D01*
X54232D01*
X54724Y191042D01*
Y190059D01*
X54232Y189567D01*
X52756D01*
X57184Y188583D02*
Y191534D01*
X55708Y190059D01*
X57676D01*
X154528Y179528D02*
X156988D01*
X157480Y180019D01*
Y181003D01*
X156988Y181495D01*
X154528D01*
X157480Y182479D02*
Y183463D01*
Y182971D01*
X154528D01*
X155020Y182479D01*
X12993Y33465D02*
X16142D01*
Y35039D01*
X15617Y35564D01*
X13518D01*
X12993Y35039D01*
Y33465D01*
X16142Y38712D02*
Y36613D01*
X14043Y38712D01*
X13518D01*
X12993Y38188D01*
Y37138D01*
X13518Y36613D01*
X7874Y41732D02*
X4922D01*
Y43208D01*
X5414Y43700D01*
X6398D01*
X6890Y43208D01*
Y41732D01*
X4922Y46652D02*
X5414Y45668D01*
X6398Y44684D01*
X7382D01*
X7874Y45176D01*
Y46160D01*
X7382Y46652D01*
X6890D01*
X6398Y46160D01*
Y44684D01*
X5118Y63582D02*
X7086D01*
X6102D01*
Y60630D01*
X8070Y63090D02*
X8562Y63582D01*
X9546D01*
X10038Y63090D01*
Y62598D01*
X9546Y62106D01*
X9054D01*
X9546D01*
X10038Y61614D01*
Y61122D01*
X9546Y60630D01*
X8562D01*
X8070Y61122D01*
D53*
X224606Y104528D02*
G03*
X224606Y104528I-1969J0D01*
G01*
X217717Y139764D02*
X227165D01*
Y151575D01*
X217717D02*
X227165D01*
X217717Y139764D02*
Y151575D01*
X237402Y139764D02*
X246850D01*
Y151575D01*
X237402D02*
X246850D01*
X237402Y139764D02*
Y151575D01*
X231299Y81496D02*
X237205D01*
X231299Y69685D02*
Y81496D01*
Y69685D02*
X237205D01*
Y81496D01*
X208858Y177165D02*
Y188976D01*
X202953Y177165D02*
X208858D01*
X202953D02*
Y188976D01*
X208858D01*
X117008Y53425D02*
Y78465D01*
X142835Y53425D02*
Y78465D01*
X117008Y53425D02*
X142835D01*
X117008Y78465D02*
X142835D01*
X145551Y41614D02*
Y66654D01*
X171378Y41614D02*
Y66654D01*
X145551Y41614D02*
X171378D01*
X145551Y66654D02*
X171378D01*
X33346Y41614D02*
Y66654D01*
X59173Y41614D02*
Y66654D01*
X33346Y41614D02*
X59173D01*
X33346Y66654D02*
X59173D01*
X61890Y53425D02*
Y78465D01*
X87717Y53425D02*
Y78465D01*
X61890Y53425D02*
X87717D01*
X61890Y78465D02*
X87717D01*
X138583Y133858D02*
Y136221D01*
X144882Y133858D02*
Y136221D01*
Y129528D02*
Y133858D01*
X138583Y129528D02*
X144882D01*
X138583D02*
Y140551D01*
X144882D01*
Y136221D02*
Y140551D01*
X13386Y40551D02*
Y45276D01*
X16535D01*
Y40551D02*
Y45276D01*
X13386Y40551D02*
X16535D01*
X13386Y41732D02*
X16535D01*
X13386Y42126D02*
X16535D01*
X147638Y194488D02*
X153543D01*
Y191339D02*
Y194488D01*
X147638Y191339D02*
X153543D01*
X147638D02*
Y194488D01*
X135630Y142126D02*
X141535D01*
X135630D02*
Y145276D01*
X141535D01*
Y142126D02*
Y145276D01*
X69882Y129921D02*
X75787D01*
X69882D02*
Y133071D01*
X75787D01*
Y129921D02*
Y133071D01*
X133268Y128740D02*
Y134646D01*
X136417D01*
Y128740D02*
Y134646D01*
X133268Y128740D02*
X136417D01*
X69882Y126772D02*
X75787D01*
Y123622D02*
Y126772D01*
X69882Y123622D02*
X75787D01*
X69882D02*
Y126772D01*
Y117717D02*
X75787D01*
X69882D02*
Y120866D01*
X75787D01*
Y117717D02*
Y120866D01*
X69882Y136614D02*
X75787D01*
X69882D02*
Y139764D01*
X75787D01*
Y136614D02*
Y139764D01*
X147047Y117913D02*
X152165D01*
Y125787D01*
X147047D02*
X152165D01*
X147047Y117913D02*
Y125787D01*
X147146Y120669D02*
X147933D01*
X60433Y105315D02*
X65551D01*
X60433Y97441D02*
Y105315D01*
Y97441D02*
X65551D01*
Y105315D01*
X64665Y102559D02*
X65453D01*
X145866Y101969D02*
X150984D01*
X145866Y94095D02*
Y101969D01*
Y94095D02*
X150984D01*
Y101969D01*
X150098Y99213D02*
X150886D01*
X139173Y125787D02*
X144291D01*
X139173Y117913D02*
Y125787D01*
Y117913D02*
X144291D01*
Y125787D01*
X143405Y123031D02*
X144193D01*
X134646Y110236D02*
Y115354D01*
X126772D02*
X134646D01*
X126772Y110236D02*
Y115354D01*
Y110236D02*
X134646D01*
X131890Y110335D02*
Y111122D01*
X126181Y81102D02*
Y86221D01*
X118307D02*
X126181D01*
X118307Y81102D02*
Y86221D01*
Y81102D02*
X126181D01*
X123425Y81201D02*
Y81988D01*
X56496Y123622D02*
X61614D01*
X56496Y115748D02*
Y123622D01*
Y115748D02*
X61614D01*
Y123622D01*
X60728Y120866D02*
X61516D01*
X69783Y107874D02*
Y112992D01*
Y107874D02*
X77657D01*
Y112992D01*
X69783D02*
X77657D01*
X72539Y112106D02*
Y112894D01*
X137205Y82677D02*
X142323D01*
Y90551D01*
X137205D02*
X142323D01*
X137205Y82677D02*
Y90551D01*
X137303Y85433D02*
X138091D01*
X78740Y81102D02*
Y86221D01*
Y81102D02*
X86614D01*
Y86221D01*
X78740D02*
X86614D01*
X81496Y85335D02*
Y86122D01*
X60433Y82677D02*
X65551D01*
Y90551D01*
X60433D02*
X65551D01*
X60433Y82677D02*
Y90551D01*
X60532Y85433D02*
X61319D01*
X79921Y32874D02*
Y37992D01*
X72047D02*
X79921D01*
X72047Y32874D02*
Y37992D01*
Y32874D02*
X79921D01*
X77165Y32972D02*
Y33760D01*
X38189Y32874D02*
Y37992D01*
Y32874D02*
X46063D01*
Y37992D01*
X38189D02*
X46063D01*
X40945Y37106D02*
Y37894D01*
X166535Y32874D02*
Y37992D01*
X158661D02*
X166535D01*
X158661Y32874D02*
Y37992D01*
Y32874D02*
X166535D01*
X163779Y32972D02*
Y33760D01*
X124016Y32874D02*
Y37992D01*
Y32874D02*
X131890D01*
Y37992D01*
X124016D02*
X131890D01*
X126772Y37106D02*
Y37894D01*
X37402Y103347D02*
X43307D01*
X37402Y91535D02*
Y103347D01*
Y91535D02*
X43307D01*
Y103347D01*
X155118Y97638D02*
X161024D01*
X155118Y85827D02*
Y97638D01*
Y85827D02*
X161024D01*
Y97638D01*
X47244Y103347D02*
X53150D01*
X47244Y91535D02*
Y103347D01*
Y91535D02*
X53150D01*
Y103347D01*
X164961Y97638D02*
X170866D01*
X164961Y85827D02*
Y97638D01*
Y85827D02*
X170866D01*
Y97638D01*
X168307Y106496D02*
X174213D01*
Y118307D01*
X168307D02*
X174213D01*
X168307Y106496D02*
Y118307D01*
X178150Y106496D02*
X184055D01*
Y118307D01*
X178150D02*
X184055D01*
X178150Y106496D02*
Y118307D01*
X45276Y113189D02*
X51181D01*
Y125000D01*
X45276D02*
X51181D01*
X45276Y113189D02*
Y125000D01*
X35433Y113189D02*
X41339D01*
Y125000D01*
X35433D02*
X41339D01*
X35433Y113189D02*
Y125000D01*
X172244Y175591D02*
Y178740D01*
X166339D02*
X172244D01*
X166339Y175591D02*
Y178740D01*
Y175591D02*
X172244D01*
Y185433D02*
Y188583D01*
X166339D02*
X172244D01*
X166339Y185433D02*
Y188583D01*
Y185433D02*
X172244D01*
X142126Y185039D02*
X145276D01*
X142126Y179134D02*
Y185039D01*
Y179134D02*
X145276D01*
Y185039D01*
X155315Y110236D02*
Y113386D01*
Y110236D02*
X161221D01*
Y113386D01*
X155315D02*
X161221D01*
X248425Y179134D02*
X251575D01*
X248425Y173228D02*
Y179134D01*
Y173228D02*
X251575D01*
Y179134D01*
X231299Y185433D02*
Y188583D01*
Y185433D02*
X237205D01*
Y188583D01*
X231299D02*
X237205D01*
X118307Y177559D02*
Y180709D01*
Y177559D02*
X124213D01*
Y180709D01*
X118307D02*
X124213D01*
X118307Y183465D02*
Y186614D01*
Y183465D02*
X124213D01*
Y186614D01*
X118307D02*
X124213D01*
X141929Y110236D02*
Y113386D01*
Y110236D02*
X147835D01*
Y113386D01*
X141929D02*
X147835D01*
X21260Y68701D02*
X24409D01*
X21260Y62795D02*
Y68701D01*
Y62795D02*
X24409D01*
Y68701D01*
X205118Y71850D02*
X208268D01*
Y77756D01*
X205118D02*
X208268D01*
X205118Y71850D02*
Y77756D01*
X216929D02*
X220079D01*
X216929Y71850D02*
Y77756D01*
Y71850D02*
X220079D01*
Y77756D01*
X222835D02*
X225984D01*
X222835Y71850D02*
Y77756D01*
Y71850D02*
X225984D01*
Y77756D01*
X211024D02*
X214173D01*
X211024Y71850D02*
Y77756D01*
Y71850D02*
X214173D01*
Y77756D01*
X206890Y108071D02*
X226181D01*
X206890Y92716D02*
X226181D01*
Y108071D01*
X206890Y92716D02*
Y108071D01*
X194095Y132874D02*
X197244D01*
Y138779D01*
X194095D02*
X197244D01*
X194095Y132874D02*
Y138779D01*
X201181D02*
X204331D01*
X201181Y132874D02*
Y138779D01*
Y132874D02*
X204331D01*
Y138779D01*
X209055Y123031D02*
X212205D01*
Y128937D01*
X209055D02*
X212205D01*
X209055Y123031D02*
Y128937D01*
X216929Y123031D02*
X220079D01*
Y128937D01*
X216929D02*
X220079D01*
X216929Y123031D02*
Y128937D01*
X209055Y140748D02*
X212205D01*
Y146653D01*
X209055D02*
X212205D01*
X209055Y140748D02*
Y146653D01*
X217717Y70866D02*
X219684D01*
Y69882D01*
X219356Y69554D01*
X218701D01*
X218373Y69882D01*
Y70866D01*
Y70210D02*
X217717Y69554D01*
Y68898D02*
Y68242D01*
Y68570D01*
X219684D01*
X219356Y68898D01*
Y67258D02*
X219684Y66930D01*
Y66274D01*
X219356Y65947D01*
X218044D01*
X217717Y66274D01*
Y66930D01*
X218044Y67258D01*
X219356D01*
X211811Y70866D02*
X213779D01*
Y69882D01*
X213451Y69554D01*
X212795D01*
X212467Y69882D01*
Y70866D01*
Y70210D02*
X211811Y69554D01*
X212139Y68898D02*
X211811Y68570D01*
Y67914D01*
X212139Y67586D01*
X213451D01*
X213779Y67914D01*
Y68570D01*
X213451Y68898D01*
X213123D01*
X212795Y68570D01*
Y67586D01*
X196457Y139764D02*
X194489D01*
Y140748D01*
X194817Y141076D01*
X195473D01*
X195801Y140748D01*
Y139764D01*
Y140420D02*
X196457Y141076D01*
Y141732D02*
Y142388D01*
Y142060D01*
X194489D01*
X194817Y141732D01*
X196457Y144355D02*
X194489D01*
X195473Y143371D01*
Y144683D01*
X201969Y131890D02*
X203936D01*
Y130906D01*
X203608Y130578D01*
X202952D01*
X202625Y130906D01*
Y131890D01*
Y131234D02*
X201969Y130578D01*
X203608Y129922D02*
X203936Y129594D01*
Y128938D01*
X203608Y128610D01*
X203280D01*
X202952Y128938D01*
X202625Y128610D01*
X202296D01*
X201969Y128938D01*
Y129594D01*
X202296Y129922D01*
X202625D01*
X202952Y129594D01*
X203280Y129922D01*
X203608D01*
X202952Y129594D02*
Y128938D01*
X211417Y129921D02*
X209450D01*
Y130905D01*
X209777Y131233D01*
X210433D01*
X210761Y130905D01*
Y129921D01*
Y130577D02*
X211417Y131233D01*
X209450Y131889D02*
Y133201D01*
X209777D01*
X211089Y131889D01*
X211417D01*
M02*
