G04 Layer_Color=16711935*
%FSLAX25Y25*%
%MOIN*%
G70*
G01*
G75*
%ADD31C,0.00787*%
%ADD33C,0.00984*%
%ADD34C,0.00591*%
%ADD36C,0.01575*%
%ADD53C,0.00394*%
G36*
X1121080Y-83717D02*
Y-84003D01*
Y-84290D01*
Y-84576D01*
Y-84862D01*
Y-85149D01*
Y-85435D01*
Y-85721D01*
Y-86007D01*
Y-86294D01*
Y-86580D01*
Y-86866D01*
Y-87153D01*
Y-87439D01*
Y-87725D01*
Y-88012D01*
Y-88298D01*
Y-88584D01*
Y-88871D01*
Y-89157D01*
Y-89443D01*
X1120793D01*
Y-89730D01*
Y-90016D01*
Y-90302D01*
Y-90588D01*
Y-90875D01*
X1120507D01*
Y-91161D01*
Y-91448D01*
Y-91734D01*
Y-92020D01*
X1120221D01*
Y-92306D01*
Y-92593D01*
Y-92879D01*
Y-93165D01*
X1119934D01*
Y-93452D01*
Y-93738D01*
Y-94024D01*
X1119648D01*
Y-94311D01*
Y-94597D01*
Y-94883D01*
X1119362D01*
Y-95170D01*
Y-95456D01*
Y-95742D01*
X1119075D01*
Y-96029D01*
Y-96315D01*
Y-96601D01*
X1118789D01*
Y-96887D01*
Y-97174D01*
X1118503D01*
Y-97460D01*
Y-97746D01*
X1118217D01*
Y-98033D01*
Y-98319D01*
Y-98605D01*
X1117930D01*
Y-98892D01*
Y-99178D01*
X1117644D01*
Y-99464D01*
Y-99751D01*
Y-100037D01*
X1117358D01*
Y-100323D01*
Y-100610D01*
X1117071D01*
Y-100896D01*
Y-101182D01*
Y-101468D01*
X1116785D01*
Y-101755D01*
Y-102041D01*
X1116499D01*
Y-102327D01*
Y-102614D01*
Y-102900D01*
X1116212D01*
Y-103186D01*
Y-103473D01*
X1115926D01*
Y-103759D01*
Y-104045D01*
Y-104332D01*
X1115640D01*
Y-104618D01*
Y-104904D01*
X1115353D01*
Y-105191D01*
Y-105477D01*
Y-105763D01*
X1115067D01*
Y-106049D01*
Y-106336D01*
X1114781D01*
Y-106622D01*
Y-106908D01*
Y-107195D01*
X1114494D01*
Y-107481D01*
Y-107767D01*
X1114208D01*
Y-108054D01*
Y-108340D01*
Y-108626D01*
X1113922D01*
Y-108913D01*
Y-109199D01*
X1113636D01*
Y-109485D01*
Y-109772D01*
Y-110058D01*
X1113349D01*
Y-110344D01*
Y-110630D01*
X1113063D01*
Y-110917D01*
Y-111203D01*
Y-111489D01*
X1112776D01*
Y-111776D01*
Y-112062D01*
X1112490D01*
Y-112348D01*
Y-112635D01*
Y-112921D01*
X1112204D01*
Y-113207D01*
Y-113494D01*
X1111918D01*
Y-113780D01*
Y-114066D01*
Y-114353D01*
X1111631D01*
Y-114639D01*
Y-114925D01*
X1111345D01*
Y-115211D01*
Y-115498D01*
Y-115784D01*
X1111059D01*
Y-116070D01*
Y-116357D01*
X1110772D01*
Y-116643D01*
Y-116929D01*
Y-117216D01*
X1110486D01*
Y-117502D01*
Y-117788D01*
X1110200D01*
Y-118075D01*
Y-118361D01*
Y-118647D01*
X1109913D01*
Y-118933D01*
Y-119220D01*
X1109627D01*
Y-119506D01*
Y-119792D01*
Y-120079D01*
X1109341D01*
Y-120365D01*
Y-120651D01*
X1109054D01*
Y-120938D01*
Y-121224D01*
X1108768D01*
Y-121510D01*
Y-121797D01*
X1108482D01*
Y-122083D01*
Y-122369D01*
Y-122656D01*
X1108195D01*
Y-122942D01*
X1107909D01*
Y-123228D01*
Y-123514D01*
Y-123801D01*
X1107623D01*
Y-124087D01*
X1107337D01*
Y-124373D01*
Y-124660D01*
X1107050D01*
Y-124946D01*
Y-125232D01*
X1106764D01*
Y-125519D01*
Y-125805D01*
X1106478D01*
Y-126091D01*
Y-126378D01*
X1106191D01*
Y-126664D01*
X1105905D01*
Y-126950D01*
Y-127237D01*
X1105619D01*
Y-127523D01*
Y-127809D01*
X1105332D01*
Y-128095D01*
X1105046D01*
Y-128382D01*
X1104760D01*
Y-128668D01*
Y-128954D01*
X1104473D01*
Y-129241D01*
X1104187D01*
Y-129527D01*
Y-129813D01*
X1103901D01*
Y-130100D01*
X1103615D01*
Y-130386D01*
X1103328D01*
Y-130672D01*
Y-130959D01*
X1103042D01*
Y-131245D01*
X1102756D01*
Y-131531D01*
X1102469D01*
Y-131818D01*
X1102183D01*
Y-132104D01*
X1101897D01*
Y-132390D01*
Y-132676D01*
X1101610D01*
Y-132963D01*
X1101324D01*
Y-133249D01*
X1101038D01*
Y-133535D01*
X1100751D01*
Y-133822D01*
X1100465D01*
Y-134108D01*
X1100179D01*
Y-134394D01*
X1099892D01*
Y-134681D01*
X1099320D01*
Y-134967D01*
X1099034D01*
Y-135253D01*
X1098747D01*
Y-135540D01*
X1098461D01*
Y-135826D01*
X1098175D01*
Y-136112D01*
X1097602D01*
Y-136399D01*
X1097316D01*
Y-136685D01*
X1096743D01*
Y-136971D01*
X1096457D01*
Y-137258D01*
X1095884D01*
Y-137544D01*
X1095598D01*
Y-137830D01*
X1095025D01*
Y-138117D01*
X1094452D01*
Y-138403D01*
X1093880D01*
Y-138689D01*
X1093307D01*
Y-138975D01*
X1092735D01*
Y-139262D01*
X1091876D01*
Y-139548D01*
X1091303D01*
Y-139834D01*
X1090444D01*
Y-140121D01*
X1089299D01*
Y-140407D01*
X1088154D01*
Y-140693D01*
X1086436D01*
Y-140980D01*
X1084432D01*
Y-141266D01*
X1084145D01*
Y-140980D01*
Y-140693D01*
Y-140407D01*
Y-140121D01*
Y-139834D01*
Y-139548D01*
Y-139262D01*
Y-138975D01*
Y-138689D01*
Y-138403D01*
Y-138117D01*
Y-137830D01*
Y-137544D01*
Y-137258D01*
Y-136971D01*
Y-136685D01*
Y-136399D01*
Y-136112D01*
Y-135826D01*
Y-135540D01*
Y-135253D01*
Y-134967D01*
Y-134681D01*
Y-134394D01*
Y-134108D01*
Y-133822D01*
Y-133535D01*
Y-133249D01*
Y-132963D01*
Y-132676D01*
Y-132390D01*
Y-132104D01*
Y-131818D01*
X1084718D01*
Y-131531D01*
X1085291D01*
Y-131245D01*
X1085863D01*
Y-130959D01*
X1086436D01*
Y-130672D01*
X1087008D01*
Y-130386D01*
X1087581D01*
Y-130100D01*
X1087867D01*
Y-129813D01*
X1088440D01*
Y-129527D01*
X1088726D01*
Y-129241D01*
X1089299D01*
Y-128954D01*
X1089585D01*
Y-128668D01*
X1089872D01*
Y-128382D01*
X1090444D01*
Y-128095D01*
X1090730D01*
Y-127809D01*
X1091017D01*
Y-127523D01*
X1091303D01*
Y-127237D01*
X1091589D01*
Y-126950D01*
X1091876D01*
Y-126664D01*
X1092162D01*
Y-126378D01*
X1092448D01*
Y-126091D01*
X1092735D01*
Y-125805D01*
X1093021D01*
Y-125519D01*
X1093307D01*
Y-125232D01*
X1093594D01*
Y-124946D01*
Y-124660D01*
X1093880D01*
Y-124373D01*
X1094166D01*
Y-124087D01*
X1094452D01*
Y-123801D01*
Y-123514D01*
X1094739D01*
Y-123228D01*
X1095025D01*
Y-122942D01*
Y-122656D01*
X1095311D01*
Y-122369D01*
Y-122083D01*
X1095598D01*
Y-121797D01*
X1095884D01*
Y-121510D01*
Y-121224D01*
X1096170D01*
Y-120938D01*
Y-120651D01*
X1096457D01*
Y-120365D01*
Y-120079D01*
X1094739D01*
Y-119792D01*
X1092735D01*
Y-119506D01*
X1091589D01*
Y-119220D01*
X1091017D01*
Y-118933D01*
X1090158D01*
Y-118647D01*
X1089585D01*
Y-118361D01*
X1089299D01*
Y-118075D01*
X1088726D01*
Y-117788D01*
X1088440D01*
Y-117502D01*
X1088154D01*
Y-117216D01*
X1087867D01*
Y-116929D01*
X1087581D01*
Y-116643D01*
X1087295D01*
Y-116357D01*
Y-116070D01*
X1087008D01*
Y-115784D01*
X1086722D01*
Y-115498D01*
Y-115211D01*
X1086436D01*
Y-114925D01*
Y-114639D01*
X1086149D01*
Y-114353D01*
Y-114066D01*
X1085863D01*
Y-113780D01*
Y-113494D01*
Y-113207D01*
X1085577D01*
Y-112921D01*
Y-112635D01*
Y-112348D01*
Y-112062D01*
X1085291D01*
Y-111776D01*
Y-111489D01*
Y-111203D01*
Y-110917D01*
Y-110630D01*
Y-110344D01*
Y-110058D01*
X1085004D01*
Y-109772D01*
Y-109485D01*
Y-109199D01*
Y-108913D01*
Y-108626D01*
Y-108340D01*
Y-108054D01*
Y-107767D01*
Y-107481D01*
Y-107195D01*
Y-106908D01*
Y-106622D01*
Y-106336D01*
Y-106049D01*
Y-105763D01*
X1084718D01*
Y-105477D01*
Y-105191D01*
Y-104904D01*
Y-104618D01*
Y-104332D01*
Y-104045D01*
Y-103759D01*
Y-103473D01*
Y-103186D01*
Y-102900D01*
Y-102614D01*
Y-102327D01*
Y-102041D01*
Y-101755D01*
Y-101468D01*
X1084432D01*
Y-101182D01*
Y-100896D01*
Y-100610D01*
Y-100323D01*
Y-100037D01*
Y-99751D01*
Y-99464D01*
Y-99178D01*
Y-98892D01*
Y-98605D01*
Y-98319D01*
Y-98033D01*
Y-97746D01*
Y-97460D01*
Y-97174D01*
Y-96887D01*
X1084145D01*
Y-96601D01*
Y-96315D01*
Y-96029D01*
Y-95742D01*
Y-95456D01*
Y-95170D01*
Y-94883D01*
Y-94597D01*
Y-94311D01*
Y-94024D01*
Y-93738D01*
Y-93452D01*
Y-93165D01*
Y-92879D01*
Y-92593D01*
Y-92306D01*
X1083859D01*
Y-92020D01*
Y-91734D01*
Y-91448D01*
Y-91161D01*
Y-90875D01*
Y-90588D01*
Y-90302D01*
Y-90016D01*
Y-89730D01*
Y-89443D01*
Y-89157D01*
Y-88871D01*
Y-88584D01*
Y-88298D01*
X1083573D01*
Y-88012D01*
Y-87725D01*
Y-87439D01*
Y-87153D01*
Y-86866D01*
Y-86580D01*
Y-86294D01*
Y-86007D01*
Y-85721D01*
Y-85435D01*
Y-85149D01*
Y-84862D01*
Y-84576D01*
Y-84290D01*
Y-84003D01*
Y-83717D01*
X1083286D01*
Y-83431D01*
X1097029D01*
Y-83717D01*
Y-84003D01*
Y-84290D01*
Y-84576D01*
Y-84862D01*
Y-85149D01*
Y-85435D01*
Y-85721D01*
Y-86007D01*
Y-86294D01*
Y-86580D01*
Y-86866D01*
Y-87153D01*
Y-87439D01*
X1097316D01*
Y-87725D01*
Y-88012D01*
Y-88298D01*
Y-88584D01*
Y-88871D01*
Y-89157D01*
Y-89443D01*
Y-89730D01*
Y-90016D01*
Y-90302D01*
Y-90588D01*
Y-90875D01*
Y-91161D01*
Y-91448D01*
Y-91734D01*
Y-92020D01*
Y-92306D01*
Y-92593D01*
Y-92879D01*
Y-93165D01*
Y-93452D01*
Y-93738D01*
Y-94024D01*
Y-94311D01*
Y-94597D01*
Y-94883D01*
Y-95170D01*
Y-95456D01*
Y-95742D01*
Y-96029D01*
Y-96315D01*
Y-96601D01*
Y-96887D01*
Y-97174D01*
Y-97460D01*
Y-97746D01*
Y-98033D01*
Y-98319D01*
Y-98605D01*
Y-98892D01*
Y-99178D01*
X1097602D01*
Y-99464D01*
X1097316D01*
Y-99751D01*
Y-100037D01*
X1097602D01*
Y-100323D01*
Y-100610D01*
Y-100896D01*
Y-101182D01*
Y-101468D01*
Y-101755D01*
Y-102041D01*
Y-102327D01*
Y-102614D01*
Y-102900D01*
Y-103186D01*
Y-103473D01*
Y-103759D01*
Y-104045D01*
Y-104332D01*
Y-104618D01*
Y-104904D01*
Y-105191D01*
Y-105477D01*
Y-105763D01*
Y-106049D01*
Y-106336D01*
Y-106622D01*
Y-106908D01*
Y-107195D01*
Y-107481D01*
X1097888D01*
Y-107767D01*
Y-108054D01*
Y-108340D01*
X1098175D01*
Y-108626D01*
X1098461D01*
Y-108913D01*
X1098747D01*
Y-109199D01*
X1099606D01*
Y-109485D01*
X1100465D01*
Y-109199D01*
X1100751D01*
Y-108913D01*
Y-108626D01*
Y-108340D01*
X1101038D01*
Y-108054D01*
Y-107767D01*
X1101324D01*
Y-107481D01*
Y-107195D01*
Y-106908D01*
X1101610D01*
Y-106622D01*
Y-106336D01*
Y-106049D01*
X1101897D01*
Y-105763D01*
Y-105477D01*
Y-105191D01*
X1102183D01*
Y-104904D01*
Y-104618D01*
Y-104332D01*
X1102469D01*
Y-104045D01*
Y-103759D01*
X1102756D01*
Y-103473D01*
Y-103186D01*
Y-102900D01*
X1103042D01*
Y-102614D01*
Y-102327D01*
Y-102041D01*
X1103328D01*
Y-101755D01*
Y-101468D01*
Y-101182D01*
X1103615D01*
Y-100896D01*
Y-100610D01*
X1103901D01*
Y-100323D01*
Y-100037D01*
Y-99751D01*
X1104187D01*
Y-99464D01*
Y-99178D01*
Y-98892D01*
X1104473D01*
Y-98605D01*
Y-98319D01*
Y-98033D01*
X1104760D01*
Y-97746D01*
Y-97460D01*
X1105046D01*
Y-97174D01*
Y-96887D01*
Y-96601D01*
X1105332D01*
Y-96315D01*
Y-96029D01*
Y-95742D01*
X1105619D01*
Y-95456D01*
Y-95170D01*
Y-94883D01*
X1105905D01*
Y-94597D01*
Y-94311D01*
X1106191D01*
Y-94024D01*
Y-93738D01*
Y-93452D01*
X1106478D01*
Y-93165D01*
Y-92879D01*
Y-92593D01*
X1106764D01*
Y-92306D01*
Y-92020D01*
Y-91734D01*
X1107050D01*
Y-91448D01*
Y-91161D01*
Y-90875D01*
Y-90588D01*
X1107337D01*
Y-90302D01*
Y-90016D01*
Y-89730D01*
Y-89443D01*
X1107623D01*
Y-89157D01*
Y-88871D01*
Y-88584D01*
Y-88298D01*
Y-88012D01*
X1107909D01*
Y-87725D01*
Y-87439D01*
Y-87153D01*
Y-86866D01*
Y-86580D01*
Y-86294D01*
X1108195D01*
Y-86007D01*
Y-85721D01*
Y-85435D01*
Y-85149D01*
Y-84862D01*
Y-84576D01*
Y-84290D01*
Y-84003D01*
Y-83717D01*
Y-83431D01*
X1121080D01*
Y-83717D01*
D02*
G37*
G36*
X1063244Y-66252D02*
Y-66538D01*
X1062958D01*
Y-66825D01*
Y-67111D01*
Y-67397D01*
Y-67684D01*
Y-67970D01*
Y-68256D01*
X1062672D01*
Y-68542D01*
Y-68829D01*
Y-69115D01*
Y-69401D01*
Y-69688D01*
Y-69974D01*
X1062385D01*
Y-70260D01*
Y-70547D01*
Y-70833D01*
Y-71119D01*
Y-71406D01*
Y-71692D01*
Y-71978D01*
X1062099D01*
Y-72264D01*
Y-72551D01*
Y-72837D01*
Y-73123D01*
Y-73410D01*
Y-73696D01*
X1061813D01*
Y-73982D01*
Y-74269D01*
Y-74555D01*
Y-74841D01*
Y-75128D01*
Y-75414D01*
X1061526D01*
Y-75700D01*
Y-75987D01*
Y-76273D01*
Y-76559D01*
Y-76846D01*
Y-77132D01*
Y-77418D01*
X1061240D01*
Y-77704D01*
Y-77991D01*
Y-78277D01*
Y-78563D01*
Y-78850D01*
Y-79136D01*
X1060954D01*
Y-79422D01*
Y-79709D01*
Y-79995D01*
Y-80281D01*
Y-80568D01*
Y-80854D01*
X1060668D01*
Y-81140D01*
Y-81427D01*
Y-81713D01*
Y-81999D01*
Y-82285D01*
Y-82572D01*
X1060381D01*
Y-82858D01*
Y-83144D01*
Y-83431D01*
Y-83717D01*
Y-84003D01*
Y-84290D01*
Y-84576D01*
X1060095D01*
Y-84862D01*
Y-85149D01*
Y-85435D01*
Y-85721D01*
Y-86007D01*
Y-86294D01*
X1059809D01*
Y-86580D01*
Y-86866D01*
X1060381D01*
Y-86580D01*
X1060668D01*
Y-86294D01*
X1060954D01*
Y-86007D01*
X1061526D01*
Y-85721D01*
X1061813D01*
Y-85435D01*
X1062099D01*
Y-85149D01*
X1062672D01*
Y-84862D01*
X1063244D01*
Y-84576D01*
X1063531D01*
Y-84290D01*
X1064103D01*
Y-84003D01*
X1064962D01*
Y-83717D01*
X1065535D01*
Y-83431D01*
X1066394D01*
Y-83144D01*
X1067825D01*
Y-82858D01*
X1074124D01*
Y-83144D01*
X1075270D01*
Y-83431D01*
X1076128D01*
Y-83717D01*
X1076701D01*
Y-84003D01*
X1076987D01*
Y-84290D01*
X1077560D01*
Y-84576D01*
X1077846D01*
Y-84862D01*
X1078133D01*
Y-85149D01*
X1078419D01*
Y-85435D01*
X1078705D01*
Y-85721D01*
Y-86007D01*
X1078992D01*
Y-86294D01*
Y-86580D01*
X1079278D01*
Y-86866D01*
Y-87153D01*
Y-87439D01*
X1079564D01*
Y-87725D01*
Y-88012D01*
Y-88298D01*
Y-88584D01*
X1079850D01*
Y-88871D01*
Y-89157D01*
Y-89443D01*
Y-89730D01*
Y-90016D01*
Y-90302D01*
Y-90588D01*
Y-90875D01*
Y-91161D01*
Y-91448D01*
Y-91734D01*
Y-92020D01*
Y-92306D01*
Y-92593D01*
Y-92879D01*
Y-93165D01*
Y-93452D01*
Y-93738D01*
X1079564D01*
Y-94024D01*
Y-94311D01*
Y-94597D01*
Y-94883D01*
Y-95170D01*
Y-95456D01*
Y-95742D01*
X1079278D01*
Y-96029D01*
Y-96315D01*
Y-96601D01*
Y-96887D01*
Y-97174D01*
Y-97460D01*
Y-97746D01*
X1078992D01*
Y-98033D01*
Y-98319D01*
Y-98605D01*
Y-98892D01*
Y-99178D01*
Y-99464D01*
X1078705D01*
Y-99751D01*
Y-100037D01*
Y-100323D01*
Y-100610D01*
Y-100896D01*
Y-101182D01*
X1078419D01*
Y-101468D01*
Y-101755D01*
Y-102041D01*
Y-102327D01*
Y-102614D01*
Y-102900D01*
X1078133D01*
Y-103186D01*
Y-103473D01*
Y-103759D01*
Y-104045D01*
Y-104332D01*
Y-104618D01*
Y-104904D01*
X1077846D01*
Y-105191D01*
Y-105477D01*
Y-105763D01*
Y-106049D01*
Y-106336D01*
Y-106622D01*
X1077560D01*
Y-106908D01*
Y-107195D01*
Y-107481D01*
Y-107767D01*
Y-108054D01*
Y-108340D01*
X1077274D01*
Y-108626D01*
Y-108913D01*
Y-109199D01*
Y-109485D01*
Y-109772D01*
Y-110058D01*
Y-110344D01*
X1076987D01*
Y-110630D01*
Y-110917D01*
Y-111203D01*
Y-111489D01*
Y-111776D01*
Y-112062D01*
X1076701D01*
Y-112348D01*
Y-112635D01*
Y-112921D01*
Y-113207D01*
Y-113494D01*
Y-113780D01*
X1076415D01*
Y-114066D01*
Y-114353D01*
Y-114639D01*
Y-114925D01*
Y-115211D01*
Y-115498D01*
X1076128D01*
Y-115784D01*
Y-116070D01*
Y-116357D01*
Y-116643D01*
Y-116929D01*
Y-117216D01*
Y-117502D01*
X1075842D01*
Y-117788D01*
Y-118075D01*
Y-118361D01*
Y-118647D01*
Y-118933D01*
Y-119220D01*
X1075556D01*
Y-119506D01*
Y-119792D01*
X1062385D01*
Y-119506D01*
Y-119220D01*
X1062672D01*
Y-118933D01*
Y-118647D01*
Y-118361D01*
Y-118075D01*
Y-117788D01*
Y-117502D01*
X1062958D01*
Y-117216D01*
Y-116929D01*
Y-116643D01*
Y-116357D01*
Y-116070D01*
Y-115784D01*
Y-115498D01*
X1063244D01*
Y-115211D01*
Y-114925D01*
Y-114639D01*
Y-114353D01*
Y-114066D01*
Y-113780D01*
X1063531D01*
Y-113494D01*
Y-113207D01*
Y-112921D01*
Y-112635D01*
Y-112348D01*
Y-112062D01*
X1063817D01*
Y-111776D01*
Y-111489D01*
Y-111203D01*
Y-110917D01*
Y-110630D01*
Y-110344D01*
Y-110058D01*
X1064103D01*
Y-109772D01*
Y-109485D01*
Y-109199D01*
Y-108913D01*
Y-108626D01*
Y-108340D01*
X1064390D01*
Y-108054D01*
Y-107767D01*
Y-107481D01*
Y-107195D01*
Y-106908D01*
Y-106622D01*
Y-106336D01*
X1064676D01*
Y-106049D01*
Y-105763D01*
Y-105477D01*
Y-105191D01*
Y-104904D01*
Y-104618D01*
X1064962D01*
Y-104332D01*
Y-104045D01*
Y-103759D01*
Y-103473D01*
Y-103186D01*
Y-102900D01*
X1065249D01*
Y-102614D01*
Y-102327D01*
Y-102041D01*
Y-101755D01*
Y-101468D01*
Y-101182D01*
X1065535D01*
Y-100896D01*
Y-100610D01*
Y-100323D01*
Y-100037D01*
Y-99751D01*
Y-99464D01*
Y-99178D01*
X1065821D01*
Y-98892D01*
Y-98605D01*
Y-98319D01*
Y-98033D01*
Y-97746D01*
Y-97460D01*
X1066107D01*
Y-97174D01*
Y-96887D01*
Y-96601D01*
Y-96315D01*
Y-96029D01*
Y-95742D01*
Y-95456D01*
X1066394D01*
Y-95170D01*
Y-94883D01*
Y-94597D01*
Y-94311D01*
Y-94024D01*
Y-93738D01*
X1066107D01*
Y-93452D01*
Y-93165D01*
X1065821D01*
Y-92879D01*
X1065535D01*
Y-92593D01*
X1064962D01*
Y-92306D01*
X1063244D01*
Y-92593D01*
X1061813D01*
Y-92879D01*
X1060954D01*
Y-93165D01*
X1060381D01*
Y-93452D01*
X1060095D01*
Y-93738D01*
X1059522D01*
Y-94024D01*
X1059236D01*
Y-94311D01*
X1058950D01*
Y-94597D01*
Y-94883D01*
X1058663D01*
Y-95170D01*
Y-95456D01*
Y-95742D01*
X1058377D01*
Y-96029D01*
Y-96315D01*
Y-96601D01*
Y-96887D01*
Y-97174D01*
Y-97460D01*
X1058091D01*
Y-97746D01*
Y-98033D01*
Y-98319D01*
Y-98605D01*
Y-98892D01*
Y-99178D01*
Y-99464D01*
X1057804D01*
Y-99751D01*
Y-100037D01*
Y-100323D01*
Y-100610D01*
Y-100896D01*
Y-101182D01*
X1057518D01*
Y-101468D01*
Y-101755D01*
Y-102041D01*
Y-102327D01*
Y-102614D01*
Y-102900D01*
X1057232D01*
Y-103186D01*
Y-103473D01*
Y-103759D01*
Y-104045D01*
Y-104332D01*
Y-104618D01*
X1056946D01*
Y-104904D01*
Y-105191D01*
Y-105477D01*
Y-105763D01*
Y-106049D01*
Y-106336D01*
Y-106622D01*
X1056659D01*
Y-106908D01*
Y-107195D01*
Y-107481D01*
Y-107767D01*
Y-108054D01*
Y-108340D01*
X1056373D01*
Y-108626D01*
Y-108913D01*
Y-109199D01*
Y-109485D01*
Y-109772D01*
Y-110058D01*
X1056087D01*
Y-110344D01*
Y-110630D01*
Y-110917D01*
Y-111203D01*
Y-111489D01*
Y-111776D01*
Y-112062D01*
X1055800D01*
Y-112348D01*
Y-112635D01*
Y-112921D01*
Y-113207D01*
Y-113494D01*
Y-113780D01*
X1055514D01*
Y-114066D01*
Y-114353D01*
Y-114639D01*
Y-114925D01*
Y-115211D01*
Y-115498D01*
X1055228D01*
Y-115784D01*
Y-116070D01*
Y-116357D01*
Y-116643D01*
Y-116929D01*
Y-117216D01*
X1054941D01*
Y-117502D01*
Y-117788D01*
Y-118075D01*
Y-118361D01*
Y-118647D01*
Y-118933D01*
Y-119220D01*
X1054655D01*
Y-119506D01*
Y-119792D01*
X1041485D01*
Y-119506D01*
Y-119220D01*
X1041771D01*
Y-118933D01*
Y-118647D01*
Y-118361D01*
Y-118075D01*
Y-117788D01*
Y-117502D01*
Y-117216D01*
X1042057D01*
Y-116929D01*
Y-116643D01*
Y-116357D01*
Y-116070D01*
Y-115784D01*
Y-115498D01*
X1042344D01*
Y-115211D01*
Y-114925D01*
Y-114639D01*
Y-114353D01*
Y-114066D01*
Y-113780D01*
X1042630D01*
Y-113494D01*
Y-113207D01*
Y-112921D01*
Y-112635D01*
Y-112348D01*
Y-112062D01*
Y-111776D01*
X1042916D01*
Y-111489D01*
Y-111203D01*
Y-110917D01*
Y-110630D01*
Y-110344D01*
Y-110058D01*
X1043202D01*
Y-109772D01*
Y-109485D01*
Y-109199D01*
Y-108913D01*
Y-108626D01*
Y-108340D01*
X1043489D01*
Y-108054D01*
Y-107767D01*
Y-107481D01*
Y-107195D01*
Y-106908D01*
Y-106622D01*
X1043775D01*
Y-106336D01*
Y-106049D01*
Y-105763D01*
Y-105477D01*
Y-105191D01*
Y-104904D01*
Y-104618D01*
X1044061D01*
Y-104332D01*
Y-104045D01*
Y-103759D01*
Y-103473D01*
Y-103186D01*
Y-102900D01*
X1044348D01*
Y-102614D01*
Y-102327D01*
Y-102041D01*
Y-101755D01*
Y-101468D01*
Y-101182D01*
X1044634D01*
Y-100896D01*
Y-100610D01*
Y-100323D01*
Y-100037D01*
Y-99751D01*
Y-99464D01*
Y-99178D01*
X1044920D01*
Y-98892D01*
Y-98605D01*
Y-98319D01*
Y-98033D01*
Y-97746D01*
Y-97460D01*
X1045207D01*
Y-97174D01*
Y-96887D01*
Y-96601D01*
Y-96315D01*
Y-96029D01*
Y-95742D01*
X1045493D01*
Y-95456D01*
Y-95170D01*
Y-94883D01*
Y-94597D01*
Y-94311D01*
Y-94024D01*
X1045779D01*
Y-93738D01*
Y-93452D01*
Y-93165D01*
Y-92879D01*
Y-92593D01*
Y-92306D01*
Y-92020D01*
X1046066D01*
Y-91734D01*
Y-91448D01*
Y-91161D01*
Y-90875D01*
Y-90588D01*
Y-90302D01*
X1046352D01*
Y-90016D01*
Y-89730D01*
Y-89443D01*
Y-89157D01*
Y-88871D01*
Y-88584D01*
X1046638D01*
Y-88298D01*
Y-88012D01*
Y-87725D01*
Y-87439D01*
Y-87153D01*
Y-86866D01*
X1046925D01*
Y-86580D01*
Y-86294D01*
Y-86007D01*
Y-85721D01*
Y-85435D01*
Y-85149D01*
Y-84862D01*
X1047211D01*
Y-84576D01*
Y-84290D01*
Y-84003D01*
Y-83717D01*
Y-83431D01*
Y-83144D01*
X1047497D01*
Y-82858D01*
Y-82572D01*
Y-82285D01*
Y-81999D01*
Y-81713D01*
Y-81427D01*
X1047783D01*
Y-81140D01*
Y-80854D01*
Y-80568D01*
Y-80281D01*
Y-79995D01*
Y-79709D01*
Y-79422D01*
X1048070D01*
Y-79136D01*
Y-78850D01*
Y-78563D01*
Y-78277D01*
Y-77991D01*
Y-77704D01*
X1048356D01*
Y-77418D01*
Y-77132D01*
Y-76846D01*
Y-76559D01*
Y-76273D01*
Y-75987D01*
X1048642D01*
Y-75700D01*
Y-75414D01*
Y-75128D01*
Y-74841D01*
Y-74555D01*
Y-74269D01*
X1048929D01*
Y-73982D01*
Y-73696D01*
Y-73410D01*
Y-73123D01*
Y-72837D01*
Y-72551D01*
Y-72264D01*
X1049215D01*
Y-71978D01*
Y-71692D01*
Y-71406D01*
Y-71119D01*
Y-70833D01*
Y-70547D01*
X1049501D01*
Y-70260D01*
Y-69974D01*
Y-69688D01*
Y-69401D01*
Y-69115D01*
Y-68829D01*
X1049788D01*
Y-68542D01*
Y-68256D01*
Y-67970D01*
Y-67684D01*
Y-67397D01*
Y-67111D01*
Y-66825D01*
X1050074D01*
Y-66538D01*
Y-66252D01*
Y-65966D01*
X1063244D01*
Y-66252D01*
D02*
G37*
G36*
X1032036Y-69688D02*
X1033754D01*
Y-69974D01*
X1034613D01*
Y-70260D01*
X1035472D01*
Y-70547D01*
X1036331D01*
Y-70833D01*
X1036904D01*
Y-71119D01*
X1037190D01*
Y-71406D01*
X1037763D01*
Y-71692D01*
X1038049D01*
Y-71978D01*
X1038622D01*
Y-72264D01*
X1038908D01*
Y-72551D01*
X1039194D01*
Y-72837D01*
X1039480D01*
Y-73123D01*
X1039767D01*
Y-73410D01*
X1040053D01*
Y-73696D01*
X1040339D01*
Y-73982D01*
Y-74269D01*
X1040626D01*
Y-74555D01*
X1040912D01*
Y-74841D01*
Y-75128D01*
X1041198D01*
Y-75414D01*
X1041485D01*
Y-75700D01*
Y-75987D01*
X1041771D01*
Y-76273D01*
Y-76559D01*
Y-76846D01*
X1042057D01*
Y-77132D01*
Y-77418D01*
Y-77704D01*
X1042344D01*
Y-77991D01*
Y-78277D01*
Y-78563D01*
Y-78850D01*
X1042630D01*
Y-79136D01*
Y-79422D01*
Y-79709D01*
Y-79995D01*
Y-80281D01*
X1042916D01*
Y-80568D01*
Y-80854D01*
Y-81140D01*
Y-81427D01*
Y-81713D01*
Y-81999D01*
Y-82285D01*
Y-82572D01*
Y-82858D01*
Y-83144D01*
Y-83431D01*
Y-83717D01*
Y-84003D01*
Y-84290D01*
Y-84576D01*
Y-84862D01*
Y-85149D01*
Y-85435D01*
Y-85721D01*
Y-86007D01*
X1042630D01*
Y-86294D01*
Y-86580D01*
Y-86866D01*
Y-87153D01*
Y-87439D01*
Y-87725D01*
Y-88012D01*
X1042344D01*
Y-88298D01*
Y-88584D01*
Y-88871D01*
Y-89157D01*
Y-89443D01*
X1042057D01*
Y-89730D01*
Y-90016D01*
Y-90302D01*
Y-90588D01*
Y-90875D01*
X1041771D01*
Y-91161D01*
Y-91448D01*
Y-91734D01*
X1041485D01*
Y-92020D01*
Y-92306D01*
Y-92593D01*
Y-92879D01*
X1041198D01*
Y-93165D01*
Y-93452D01*
Y-93738D01*
X1040912D01*
Y-94024D01*
Y-94311D01*
X1040626D01*
Y-94597D01*
Y-94883D01*
Y-95170D01*
X1040339D01*
Y-95456D01*
Y-95742D01*
X1040053D01*
Y-96029D01*
Y-96315D01*
X1039767D01*
Y-96601D01*
Y-96887D01*
X1039480D01*
Y-97174D01*
X1039194D01*
Y-97460D01*
Y-97746D01*
X1038908D01*
Y-98033D01*
X1038622D01*
Y-98319D01*
X1038335D01*
Y-98605D01*
Y-98892D01*
X1038049D01*
Y-99178D01*
X1037763D01*
Y-99464D01*
X1037476D01*
Y-99751D01*
X1037190D01*
Y-100037D01*
X1036904D01*
Y-100323D01*
X1036331D01*
Y-100610D01*
X1036045D01*
Y-100896D01*
X1035472D01*
Y-101182D01*
X1035186D01*
Y-101468D01*
X1034613D01*
Y-101755D01*
X1033754D01*
Y-102041D01*
X1032895D01*
Y-102327D01*
X1032036D01*
Y-102614D01*
X1030318D01*
Y-102900D01*
X1025165D01*
Y-102614D01*
X1022588D01*
Y-102327D01*
X1020584D01*
Y-102041D01*
X1019152D01*
Y-101755D01*
X1017721D01*
Y-101468D01*
X1016289D01*
Y-101755D01*
Y-102041D01*
Y-102327D01*
Y-102614D01*
Y-102900D01*
Y-103186D01*
Y-103473D01*
X1016003D01*
Y-103759D01*
Y-104045D01*
Y-104332D01*
Y-104618D01*
Y-104904D01*
Y-105191D01*
X1015716D01*
Y-105477D01*
Y-105763D01*
Y-106049D01*
Y-106336D01*
Y-106622D01*
Y-106908D01*
X1015430D01*
Y-107195D01*
Y-107481D01*
Y-107767D01*
Y-108054D01*
Y-108340D01*
Y-108626D01*
Y-108913D01*
X1015144D01*
Y-109199D01*
Y-109485D01*
Y-109772D01*
Y-110058D01*
Y-110344D01*
Y-110630D01*
X1014857D01*
Y-110917D01*
Y-111203D01*
Y-111489D01*
Y-111776D01*
Y-112062D01*
Y-112348D01*
X1014571D01*
Y-112635D01*
Y-112921D01*
Y-113207D01*
Y-113494D01*
Y-113780D01*
Y-114066D01*
Y-114353D01*
X1014285D01*
Y-114639D01*
Y-114925D01*
Y-115211D01*
Y-115498D01*
Y-115784D01*
Y-116070D01*
X1013999D01*
Y-116357D01*
Y-116643D01*
Y-116929D01*
Y-117216D01*
Y-117502D01*
Y-117788D01*
X1013712D01*
Y-118075D01*
Y-118361D01*
Y-118647D01*
Y-118933D01*
Y-119220D01*
Y-119506D01*
Y-119792D01*
X1000256D01*
Y-119506D01*
X1000542D01*
Y-119220D01*
Y-118933D01*
Y-118647D01*
Y-118361D01*
Y-118075D01*
X1000828D01*
Y-117788D01*
Y-117502D01*
Y-117216D01*
Y-116929D01*
Y-116643D01*
Y-116357D01*
Y-116070D01*
X1001114D01*
Y-115784D01*
Y-115498D01*
Y-115211D01*
Y-114925D01*
Y-114639D01*
Y-114353D01*
X1001401D01*
Y-114066D01*
Y-113780D01*
Y-113494D01*
Y-113207D01*
Y-112921D01*
Y-112635D01*
X1001687D01*
Y-112348D01*
Y-112062D01*
Y-111776D01*
Y-111489D01*
Y-111203D01*
Y-110917D01*
Y-110630D01*
X1001974D01*
Y-110344D01*
Y-110058D01*
Y-109772D01*
Y-109485D01*
Y-109199D01*
Y-108913D01*
X1002260D01*
Y-108626D01*
Y-108340D01*
Y-108054D01*
Y-107767D01*
Y-107481D01*
Y-107195D01*
X1002546D01*
Y-106908D01*
Y-106622D01*
Y-106336D01*
Y-106049D01*
Y-105763D01*
Y-105477D01*
X1002832D01*
Y-105191D01*
Y-104904D01*
Y-104618D01*
Y-104332D01*
Y-104045D01*
Y-103759D01*
Y-103473D01*
X1003119D01*
Y-103186D01*
Y-102900D01*
Y-102614D01*
Y-102327D01*
Y-102041D01*
Y-101755D01*
X1003405D01*
Y-101468D01*
Y-101182D01*
Y-100896D01*
Y-100610D01*
Y-100323D01*
Y-100037D01*
X1003691D01*
Y-99751D01*
Y-99464D01*
Y-99178D01*
Y-98892D01*
Y-98605D01*
Y-98319D01*
X1003978D01*
Y-98033D01*
Y-97746D01*
Y-97460D01*
Y-97174D01*
Y-96887D01*
Y-96601D01*
Y-96315D01*
X1004264D01*
Y-96029D01*
Y-95742D01*
Y-95456D01*
Y-95170D01*
Y-94883D01*
Y-94597D01*
X1004550D01*
Y-94311D01*
Y-94024D01*
Y-93738D01*
Y-93452D01*
Y-93165D01*
Y-92879D01*
X1004837D01*
Y-92593D01*
Y-92306D01*
Y-92020D01*
Y-91734D01*
Y-91448D01*
Y-91161D01*
Y-90875D01*
X1005123D01*
Y-90588D01*
Y-90302D01*
Y-90016D01*
Y-89730D01*
Y-89443D01*
Y-89157D01*
X1005409D01*
Y-88871D01*
Y-88584D01*
Y-88298D01*
Y-88012D01*
Y-87725D01*
Y-87439D01*
X1005696D01*
Y-87153D01*
Y-86866D01*
Y-86580D01*
Y-86294D01*
Y-86007D01*
Y-85721D01*
X1005982D01*
Y-85435D01*
Y-85149D01*
Y-84862D01*
Y-84576D01*
Y-84290D01*
Y-84003D01*
Y-83717D01*
X1006268D01*
Y-83431D01*
Y-83144D01*
Y-82858D01*
Y-82572D01*
Y-82285D01*
Y-81999D01*
X1006555D01*
Y-81713D01*
Y-81427D01*
Y-81140D01*
Y-80854D01*
Y-80568D01*
Y-80281D01*
X1006841D01*
Y-79995D01*
Y-79709D01*
Y-79422D01*
Y-79136D01*
Y-78850D01*
Y-78563D01*
Y-78277D01*
X1007127D01*
Y-77991D01*
Y-77704D01*
Y-77418D01*
Y-77132D01*
Y-76846D01*
Y-76559D01*
X1007413D01*
Y-76273D01*
Y-75987D01*
Y-75700D01*
Y-75414D01*
Y-75128D01*
Y-74841D01*
X1007700D01*
Y-74555D01*
Y-74269D01*
Y-73982D01*
Y-73696D01*
Y-73410D01*
Y-73123D01*
Y-72837D01*
X1007986D01*
Y-72551D01*
Y-72264D01*
Y-71978D01*
Y-71692D01*
Y-71406D01*
Y-71119D01*
X1008272D01*
Y-70833D01*
Y-70547D01*
Y-70260D01*
Y-69974D01*
Y-69688D01*
Y-69401D01*
X1032036D01*
Y-69688D01*
D02*
G37*
G36*
X1165172Y-83717D02*
X1164886D01*
Y-84003D01*
X1164599D01*
Y-84290D01*
Y-84576D01*
X1164313D01*
Y-84862D01*
X1164027D01*
Y-85149D01*
X1163740D01*
Y-85435D01*
Y-85721D01*
X1163454D01*
Y-86007D01*
X1163168D01*
Y-86294D01*
X1162881D01*
Y-86580D01*
X1162595D01*
Y-86866D01*
Y-87153D01*
X1162309D01*
Y-87439D01*
X1162022D01*
Y-87725D01*
X1161736D01*
Y-88012D01*
Y-88298D01*
X1161450D01*
Y-88584D01*
X1161163D01*
Y-88871D01*
X1160877D01*
Y-89157D01*
X1160591D01*
Y-89443D01*
Y-89730D01*
X1160305D01*
Y-90016D01*
X1160018D01*
Y-90302D01*
X1159732D01*
Y-90588D01*
Y-90875D01*
X1159445D01*
Y-91161D01*
X1159159D01*
Y-91448D01*
X1158873D01*
Y-91734D01*
Y-92020D01*
X1158587D01*
Y-92306D01*
X1158300D01*
Y-92593D01*
X1158014D01*
Y-92879D01*
X1157728D01*
Y-93165D01*
Y-93452D01*
X1157441D01*
Y-93738D01*
X1157155D01*
Y-94024D01*
X1156869D01*
Y-94311D01*
Y-94597D01*
X1156582D01*
Y-94883D01*
X1156296D01*
Y-95170D01*
X1156010D01*
Y-95456D01*
Y-95742D01*
X1155723D01*
Y-96029D01*
X1155437D01*
Y-96315D01*
X1155151D01*
Y-96601D01*
X1154865D01*
Y-96887D01*
Y-97174D01*
X1154578D01*
Y-97460D01*
X1154292D01*
Y-97746D01*
X1154006D01*
Y-98033D01*
Y-98319D01*
X1153719D01*
Y-98605D01*
X1153433D01*
Y-98892D01*
X1153147D01*
Y-99178D01*
Y-99464D01*
X1152860D01*
Y-99751D01*
X1152574D01*
Y-100037D01*
X1152288D01*
Y-100323D01*
X1152001D01*
Y-100610D01*
Y-100896D01*
X1151715D01*
Y-101182D01*
X1151429D01*
Y-101468D01*
X1151142D01*
Y-101755D01*
Y-102041D01*
X1150856D01*
Y-102327D01*
X1150570D01*
Y-102614D01*
X1150284D01*
Y-102900D01*
X1149997D01*
Y-103186D01*
Y-103473D01*
X1150284D01*
Y-103759D01*
Y-104045D01*
X1150570D01*
Y-104332D01*
Y-104618D01*
X1150856D01*
Y-104904D01*
X1151142D01*
Y-105191D01*
Y-105477D01*
X1151429D01*
Y-105763D01*
Y-106049D01*
X1151715D01*
Y-106336D01*
Y-106622D01*
X1152001D01*
Y-106908D01*
Y-107195D01*
X1152288D01*
Y-107481D01*
Y-107767D01*
X1152574D01*
Y-108054D01*
Y-108340D01*
X1152860D01*
Y-108626D01*
Y-108913D01*
X1153147D01*
Y-109199D01*
Y-109485D01*
X1153433D01*
Y-109772D01*
X1153719D01*
Y-110058D01*
Y-110344D01*
X1154006D01*
Y-110630D01*
Y-110917D01*
X1154292D01*
Y-111203D01*
Y-111489D01*
X1154578D01*
Y-111776D01*
Y-112062D01*
X1154865D01*
Y-112348D01*
Y-112635D01*
X1155151D01*
Y-112921D01*
Y-113207D01*
X1155437D01*
Y-113494D01*
Y-113780D01*
X1155723D01*
Y-114066D01*
X1156010D01*
Y-114353D01*
Y-114639D01*
X1156296D01*
Y-114925D01*
Y-115211D01*
X1156582D01*
Y-115498D01*
Y-115784D01*
X1156869D01*
Y-116070D01*
Y-116357D01*
X1157155D01*
Y-116643D01*
Y-116929D01*
X1157441D01*
Y-117216D01*
Y-117502D01*
X1157728D01*
Y-117788D01*
Y-118075D01*
X1158014D01*
Y-118361D01*
X1158300D01*
Y-118647D01*
Y-118933D01*
X1158587D01*
Y-119220D01*
Y-119506D01*
X1158873D01*
Y-119792D01*
X1143698D01*
Y-119506D01*
X1143412D01*
Y-119220D01*
Y-118933D01*
Y-118647D01*
X1143126D01*
Y-118361D01*
Y-118075D01*
Y-117788D01*
X1142839D01*
Y-117502D01*
Y-117216D01*
X1142553D01*
Y-116929D01*
Y-116643D01*
Y-116357D01*
X1142267D01*
Y-116070D01*
Y-115784D01*
Y-115498D01*
X1141980D01*
Y-115211D01*
Y-114925D01*
X1141694D01*
Y-114639D01*
Y-114353D01*
Y-114066D01*
X1141408D01*
Y-113780D01*
Y-113494D01*
Y-113207D01*
X1141121D01*
Y-112921D01*
Y-112635D01*
Y-112348D01*
X1140835D01*
Y-112062D01*
X1140263D01*
Y-112348D01*
Y-112635D01*
X1139976D01*
Y-112921D01*
X1139690D01*
Y-113207D01*
Y-113494D01*
X1139404D01*
Y-113780D01*
X1139117D01*
Y-114066D01*
Y-114353D01*
X1138831D01*
Y-114639D01*
X1138545D01*
Y-114925D01*
Y-115211D01*
X1138258D01*
Y-115498D01*
X1137972D01*
Y-115784D01*
X1137686D01*
Y-116070D01*
Y-116357D01*
X1137399D01*
Y-116643D01*
X1137113D01*
Y-116929D01*
Y-117216D01*
X1136827D01*
Y-117502D01*
X1136541D01*
Y-117788D01*
Y-118075D01*
X1136254D01*
Y-118361D01*
X1135968D01*
Y-118647D01*
Y-118933D01*
X1135682D01*
Y-119220D01*
X1135395D01*
Y-119506D01*
Y-119792D01*
X1119362D01*
Y-119506D01*
X1119648D01*
Y-119220D01*
X1119934D01*
Y-118933D01*
X1120221D01*
Y-118647D01*
X1120507D01*
Y-118361D01*
Y-118075D01*
X1120793D01*
Y-117788D01*
X1121080D01*
Y-117502D01*
X1121366D01*
Y-117216D01*
X1121652D01*
Y-116929D01*
Y-116643D01*
X1121939D01*
Y-116357D01*
X1122225D01*
Y-116070D01*
X1122511D01*
Y-115784D01*
Y-115498D01*
X1122797D01*
Y-115211D01*
X1123084D01*
Y-114925D01*
X1123370D01*
Y-114639D01*
X1123656D01*
Y-114353D01*
Y-114066D01*
X1123943D01*
Y-113780D01*
X1124229D01*
Y-113494D01*
X1124515D01*
Y-113207D01*
X1124802D01*
Y-112921D01*
Y-112635D01*
X1125088D01*
Y-112348D01*
X1125374D01*
Y-112062D01*
X1125661D01*
Y-111776D01*
Y-111489D01*
X1125947D01*
Y-111203D01*
X1126233D01*
Y-110917D01*
X1126519D01*
Y-110630D01*
X1126806D01*
Y-110344D01*
Y-110058D01*
X1127092D01*
Y-109772D01*
X1127378D01*
Y-109485D01*
X1127665D01*
Y-109199D01*
Y-108913D01*
X1127951D01*
Y-108626D01*
X1128237D01*
Y-108340D01*
X1128524D01*
Y-108054D01*
X1128810D01*
Y-107767D01*
Y-107481D01*
X1129096D01*
Y-107195D01*
X1129383D01*
Y-106908D01*
X1129669D01*
Y-106622D01*
Y-106336D01*
X1129955D01*
Y-106049D01*
X1130242D01*
Y-105763D01*
X1130528D01*
Y-105477D01*
X1130814D01*
Y-105191D01*
Y-104904D01*
X1131100D01*
Y-104618D01*
X1131387D01*
Y-104332D01*
X1131673D01*
Y-104045D01*
X1131960D01*
Y-103759D01*
Y-103473D01*
X1132246D01*
Y-103186D01*
X1132532D01*
Y-102900D01*
X1132818D01*
Y-102614D01*
Y-102327D01*
X1133105D01*
Y-102041D01*
X1133391D01*
Y-101755D01*
X1133677D01*
Y-101468D01*
X1133964D01*
Y-101182D01*
Y-100896D01*
X1134250D01*
Y-100610D01*
Y-100323D01*
Y-100037D01*
X1133964D01*
Y-99751D01*
X1133677D01*
Y-99464D01*
Y-99178D01*
X1133391D01*
Y-98892D01*
Y-98605D01*
X1133105D01*
Y-98319D01*
Y-98033D01*
X1132818D01*
Y-97746D01*
Y-97460D01*
X1132532D01*
Y-97174D01*
Y-96887D01*
X1132246D01*
Y-96601D01*
Y-96315D01*
X1131960D01*
Y-96029D01*
X1131673D01*
Y-95742D01*
Y-95456D01*
X1131387D01*
Y-95170D01*
Y-94883D01*
X1131100D01*
Y-94597D01*
Y-94311D01*
X1130814D01*
Y-94024D01*
Y-93738D01*
X1130528D01*
Y-93452D01*
Y-93165D01*
X1130242D01*
Y-92879D01*
Y-92593D01*
X1129955D01*
Y-92306D01*
X1129669D01*
Y-92020D01*
Y-91734D01*
X1129383D01*
Y-91448D01*
Y-91161D01*
X1129096D01*
Y-90875D01*
Y-90588D01*
X1128810D01*
Y-90302D01*
Y-90016D01*
X1128524D01*
Y-89730D01*
Y-89443D01*
X1128237D01*
Y-89157D01*
Y-88871D01*
X1127951D01*
Y-88584D01*
Y-88298D01*
X1127665D01*
Y-88012D01*
X1127378D01*
Y-87725D01*
Y-87439D01*
X1127092D01*
Y-87153D01*
Y-86866D01*
X1126806D01*
Y-86580D01*
Y-86294D01*
X1126519D01*
Y-86007D01*
Y-85721D01*
X1126233D01*
Y-85435D01*
Y-85149D01*
X1125947D01*
Y-84862D01*
Y-84576D01*
X1125661D01*
Y-84290D01*
X1125374D01*
Y-84003D01*
Y-83717D01*
X1125088D01*
Y-83431D01*
X1140835D01*
Y-83717D01*
X1141121D01*
Y-84003D01*
Y-84290D01*
Y-84576D01*
X1141408D01*
Y-84862D01*
Y-85149D01*
Y-85435D01*
X1141694D01*
Y-85721D01*
Y-86007D01*
Y-86294D01*
X1141980D01*
Y-86580D01*
Y-86866D01*
Y-87153D01*
X1142267D01*
Y-87439D01*
Y-87725D01*
Y-88012D01*
X1142553D01*
Y-88298D01*
Y-88584D01*
Y-88871D01*
X1142839D01*
Y-89157D01*
Y-89443D01*
Y-89730D01*
X1143126D01*
Y-90016D01*
Y-90302D01*
Y-90588D01*
X1143412D01*
Y-90875D01*
Y-91161D01*
Y-91448D01*
Y-91734D01*
X1143985D01*
Y-91448D01*
X1144271D01*
Y-91161D01*
X1144557D01*
Y-90875D01*
Y-90588D01*
X1144844D01*
Y-90302D01*
X1145130D01*
Y-90016D01*
Y-89730D01*
X1145416D01*
Y-89443D01*
X1145702D01*
Y-89157D01*
Y-88871D01*
X1145989D01*
Y-88584D01*
X1146275D01*
Y-88298D01*
Y-88012D01*
X1146561D01*
Y-87725D01*
X1146848D01*
Y-87439D01*
Y-87153D01*
X1147134D01*
Y-86866D01*
X1147420D01*
Y-86580D01*
Y-86294D01*
X1147707D01*
Y-86007D01*
X1147993D01*
Y-85721D01*
Y-85435D01*
X1148279D01*
Y-85149D01*
X1148566D01*
Y-84862D01*
Y-84576D01*
X1148852D01*
Y-84290D01*
X1149138D01*
Y-84003D01*
Y-83717D01*
X1149425D01*
Y-83431D01*
X1165172D01*
Y-83717D01*
D02*
G37*
%LPC*%
G36*
X1027742Y-80568D02*
X1019725D01*
Y-80854D01*
Y-81140D01*
Y-81427D01*
Y-81713D01*
Y-81999D01*
X1019438D01*
Y-82285D01*
Y-82572D01*
Y-82858D01*
Y-83144D01*
Y-83431D01*
Y-83717D01*
X1019152D01*
Y-84003D01*
Y-84290D01*
Y-84576D01*
Y-84862D01*
Y-85149D01*
Y-85435D01*
X1018866D01*
Y-85721D01*
Y-86007D01*
Y-86294D01*
Y-86580D01*
Y-86866D01*
Y-87153D01*
X1018580D01*
Y-87439D01*
Y-87725D01*
Y-88012D01*
Y-88298D01*
Y-88584D01*
Y-88871D01*
Y-89157D01*
X1018293D01*
Y-89443D01*
Y-89730D01*
Y-90016D01*
Y-90302D01*
Y-90588D01*
Y-90875D01*
X1018007D01*
Y-91161D01*
Y-91448D01*
Y-91734D01*
X1025165D01*
Y-91448D01*
X1026310D01*
Y-91161D01*
X1026883D01*
Y-90875D01*
X1027169D01*
Y-90588D01*
X1027455D01*
Y-90302D01*
X1027742D01*
Y-90016D01*
X1028028D01*
Y-89730D01*
Y-89443D01*
X1028314D01*
Y-89157D01*
Y-88871D01*
X1028601D01*
Y-88584D01*
Y-88298D01*
X1028887D01*
Y-88012D01*
Y-87725D01*
Y-87439D01*
Y-87153D01*
X1029173D01*
Y-86866D01*
Y-86580D01*
Y-86294D01*
Y-86007D01*
Y-85721D01*
X1029459D01*
Y-85435D01*
Y-85149D01*
Y-84862D01*
Y-84576D01*
Y-84290D01*
Y-84003D01*
Y-83717D01*
Y-83431D01*
Y-83144D01*
Y-82858D01*
Y-82572D01*
X1029173D01*
Y-82285D01*
Y-81999D01*
X1028887D01*
Y-81713D01*
Y-81427D01*
X1028601D01*
Y-81140D01*
X1028314D01*
Y-80854D01*
X1027742D01*
Y-80568D01*
D02*
G37*
%LPD*%
D31*
X113712Y92323D02*
G03*
X113712Y92323I-1114J0D01*
G01*
X5000Y145000D02*
X15000D01*
X5000D02*
Y185000D01*
X15000Y145000D02*
Y185000D01*
X5000D02*
X15000D01*
X12500Y58661D02*
Y64567D01*
X2461Y58661D02*
Y64567D01*
X10728Y58661D02*
X12500D01*
X2461D02*
X4232D01*
X11693Y34213D02*
Y54213D01*
X1693D02*
X11693D01*
X1693Y34213D02*
Y54213D01*
Y34213D02*
X11693D01*
X114567Y90354D02*
Y139961D01*
X90158Y90354D02*
Y139961D01*
X114567D01*
X90158Y90354D02*
X114567D01*
X159055Y175984D02*
Y188189D01*
X151969Y175984D02*
Y188189D01*
Y175984D02*
X159055D01*
X151969Y188189D02*
X159055D01*
X75000Y185000D02*
Y195000D01*
X35000Y185000D02*
X75000D01*
X35000Y195000D02*
X75000D01*
X35000Y185000D02*
Y195000D01*
X233268Y182283D02*
X240354D01*
X233268Y170079D02*
X240354D01*
X233268D02*
Y182283D01*
X240354Y170079D02*
Y182283D01*
X216043Y171457D02*
X217815D01*
X224311D02*
X226083D01*
X216043D02*
Y177362D01*
X226083Y171457D02*
Y177362D01*
X224803Y20472D02*
Y21654D01*
X184646Y26378D02*
X187008D01*
Y21654D02*
Y26378D01*
X184646Y21654D02*
X187008D01*
X224803D02*
X227165D01*
Y26378D01*
X224803D02*
X227165D01*
X184646Y394D02*
Y29528D01*
Y394D02*
X224803D01*
X184646Y29528D02*
X224803D01*
Y394D02*
Y29528D01*
X165748Y20472D02*
Y21654D01*
X125591Y26378D02*
X127953D01*
Y21654D02*
Y26378D01*
X125591Y21654D02*
X127953D01*
X165748D02*
X168110D01*
Y26378D01*
X165748D02*
X168110D01*
X125591Y394D02*
Y29528D01*
Y394D02*
X165748D01*
X125591Y29528D02*
X165748D01*
Y394D02*
Y29528D01*
X79134Y20472D02*
Y21654D01*
X38976Y26378D02*
X41339D01*
Y21654D02*
Y26378D01*
X38976Y21654D02*
X41339D01*
X79134D02*
X81496D01*
Y26378D01*
X79134D02*
X81496D01*
X38976Y394D02*
Y29528D01*
Y394D02*
X79134D01*
X38976Y29528D02*
X79134D01*
Y394D02*
Y29528D01*
X11811Y166339D02*
X7875D01*
Y168306D01*
X8531Y168962D01*
X9843D01*
X10499Y168306D01*
Y166339D01*
X7875Y172898D02*
Y170274D01*
X9843D01*
X9187Y171586D01*
Y172242D01*
X9843Y172898D01*
X11155D01*
X11811Y172242D01*
Y170930D01*
X11155Y170274D01*
X255906Y208661D02*
G03*
X244094Y220472I-11811J0D01*
G01*
Y0D02*
G03*
X255906Y11811I0J11811D01*
G01*
X0D02*
G03*
X11811Y0I11811J0D01*
G01*
Y220472D02*
G03*
X0Y208661I0J-11811D01*
G01*
Y11811D02*
Y208661D01*
X11811Y0D02*
X244094D01*
X11811Y220472D02*
X244094D01*
X255906Y11811D02*
Y208661D01*
X1338583Y-157480D02*
Y-118110D01*
X1181102Y-78740D02*
X1456693D01*
X1181102Y-118110D02*
X1456693D01*
X984252Y-157480D02*
X1456693D01*
X984252Y-39370D02*
X1456693D01*
X984252Y-196850D02*
Y-39370D01*
X1181102Y-196850D02*
Y-39370D01*
X-196850Y972441D02*
X1456693D01*
Y-196850D02*
Y972441D01*
X-196850Y-196850D02*
Y972441D01*
Y-196850D02*
X1456693D01*
X1190945Y-188976D02*
Y-183073D01*
X1193897D01*
X1194881Y-184057D01*
Y-186025D01*
X1193897Y-187009D01*
X1190945D01*
X1192913D02*
X1194881Y-188976D01*
X1196848D02*
Y-183073D01*
X1199800D01*
X1200784Y-184057D01*
Y-186025D01*
X1199800Y-187009D01*
X1196848D01*
X1202752Y-183073D02*
X1204720D01*
X1203736D01*
Y-188976D01*
X1202752D01*
X1204720D01*
X1207672Y-189960D02*
X1211607D01*
X1213575Y-183073D02*
Y-188976D01*
Y-186025D01*
X1217511D01*
Y-183073D01*
Y-188976D01*
X1219479D02*
Y-185041D01*
X1221447Y-183073D01*
X1223415Y-185041D01*
Y-188976D01*
Y-186025D01*
X1219479D01*
X1225383Y-183073D02*
X1229318D01*
X1227350D01*
Y-188976D01*
X1231286Y-189960D02*
X1235222D01*
X1237190Y-188976D02*
Y-185041D01*
X1239158Y-183073D01*
X1241125Y-185041D01*
Y-188976D01*
Y-186025D01*
X1237190D01*
X1243093Y-188976D02*
Y-183073D01*
X1245061Y-185041D01*
X1247029Y-183073D01*
Y-188976D01*
X1248997D02*
Y-183073D01*
X1251949D01*
X1252933Y-184057D01*
Y-186025D01*
X1251949Y-187009D01*
X1248997D01*
X1254900Y-189960D02*
X1258836D01*
X1260804Y-183073D02*
X1264740D01*
X1262772D01*
Y-188976D01*
X1266708D02*
Y-185041D01*
X1268676Y-183073D01*
X1270644Y-185041D01*
Y-188976D01*
Y-186025D01*
X1266708D01*
X1276547Y-184057D02*
X1275563Y-183073D01*
X1273595D01*
X1272611Y-184057D01*
Y-185041D01*
X1273595Y-186025D01*
X1275563D01*
X1276547Y-187009D01*
Y-187993D01*
X1275563Y-188976D01*
X1273595D01*
X1272611Y-187993D01*
X1282451Y-183073D02*
X1278515D01*
Y-186025D01*
X1280483Y-185041D01*
X1281467D01*
X1282451Y-186025D01*
Y-187993D01*
X1281467Y-188976D01*
X1279499D01*
X1278515Y-187993D01*
X1284418Y-183073D02*
X1288354D01*
Y-184057D01*
X1284418Y-187993D01*
Y-188976D01*
X1294258Y-183073D02*
X1290322D01*
Y-186025D01*
X1292290Y-185041D01*
X1293274D01*
X1294258Y-186025D01*
Y-187993D01*
X1293274Y-188976D01*
X1291306D01*
X1290322Y-187993D01*
X1300161Y-183073D02*
X1298194Y-184057D01*
X1296226Y-186025D01*
Y-187993D01*
X1297210Y-188976D01*
X1299177D01*
X1300161Y-187993D01*
Y-187009D01*
X1299177Y-186025D01*
X1296226D01*
X1302129Y-189960D02*
X1306065D01*
X1308033Y-184057D02*
X1309017Y-183073D01*
X1310985D01*
X1311969Y-184057D01*
Y-187993D01*
X1310985Y-188976D01*
X1309017D01*
X1308033Y-187993D01*
Y-184057D01*
X1317872Y-188976D02*
X1313937D01*
X1317872Y-185041D01*
Y-184057D01*
X1316888Y-183073D01*
X1314921D01*
X1313937Y-184057D01*
X1319840Y-188976D02*
Y-187993D01*
X1320824D01*
Y-188976D01*
X1319840D01*
X1324760D02*
Y-183073D01*
X1327712D01*
X1328696Y-184057D01*
Y-186025D01*
X1327712Y-187009D01*
X1324760D01*
X1334599Y-185041D02*
X1331647D01*
X1330663Y-186025D01*
Y-187993D01*
X1331647Y-188976D01*
X1334599D01*
X1336567Y-183073D02*
Y-188976D01*
X1339519D01*
X1340503Y-187993D01*
Y-187009D01*
Y-186025D01*
X1339519Y-185041D01*
X1336567D01*
X1342471Y-183073D02*
Y-188976D01*
X1345422D01*
X1346406Y-187993D01*
Y-184057D01*
X1345422Y-183073D01*
X1342471D01*
X1349358Y-188976D02*
X1351326D01*
X1352310Y-187993D01*
Y-186025D01*
X1351326Y-185041D01*
X1349358D01*
X1348374Y-186025D01*
Y-187993D01*
X1349358Y-188976D01*
X1358214Y-185041D02*
X1355262D01*
X1354278Y-186025D01*
Y-187993D01*
X1355262Y-188976D01*
X1358214D01*
D33*
X160630Y175000D02*
G03*
X160630Y175000I-492J0D01*
G01*
X241929Y169095D02*
G03*
X241929Y169095I-492J0D01*
G01*
X1342520Y-129921D02*
Y-122050D01*
X1346455D01*
X1347767Y-123362D01*
Y-125986D01*
X1346455Y-127297D01*
X1342520D01*
X1345144D02*
X1347767Y-129921D01*
X1354327D02*
X1351703D01*
X1350391Y-128609D01*
Y-125986D01*
X1351703Y-124674D01*
X1354327D01*
X1355639Y-125986D01*
Y-127297D01*
X1350391D01*
X1358263Y-124674D02*
X1360886Y-129921D01*
X1363510Y-124674D01*
X988189Y-161420D02*
Y-169291D01*
X992125D01*
X993437Y-167979D01*
Y-162732D01*
X992125Y-161420D01*
X988189D01*
X999996Y-169291D02*
X997372D01*
X996060Y-167979D01*
Y-165356D01*
X997372Y-164044D01*
X999996D01*
X1001308Y-165356D01*
Y-166667D01*
X996060D01*
X1003932Y-169291D02*
X1007868D01*
X1009180Y-167979D01*
X1007868Y-166667D01*
X1005244D01*
X1003932Y-165356D01*
X1005244Y-164044D01*
X1009180D01*
X1014427Y-171915D02*
X1015739D01*
X1017051Y-170603D01*
Y-164044D01*
X1013115D01*
X1011803Y-165356D01*
Y-167979D01*
X1013115Y-169291D01*
X1017051D01*
X1019675D02*
X1022299D01*
X1020987D01*
Y-164044D01*
X1019675D01*
X1026235Y-169291D02*
Y-164044D01*
X1030170D01*
X1031482Y-165356D01*
Y-169291D01*
X1038042D02*
X1035418D01*
X1034106Y-167979D01*
Y-165356D01*
X1035418Y-164044D01*
X1038042D01*
X1039354Y-165356D01*
Y-166667D01*
X1034106D01*
X1041977Y-164044D02*
Y-169291D01*
Y-166667D01*
X1043289Y-165356D01*
X1044601Y-164044D01*
X1045913D01*
X1185039Y-43310D02*
Y-51181D01*
X1188975D01*
X1190287Y-49869D01*
Y-44622D01*
X1188975Y-43310D01*
X1185039D01*
X1194223Y-51181D02*
X1196847D01*
X1198158Y-49869D01*
Y-47245D01*
X1196847Y-45933D01*
X1194223D01*
X1192911Y-47245D01*
Y-49869D01*
X1194223Y-51181D01*
X1206030Y-45933D02*
X1202094D01*
X1200782Y-47245D01*
Y-49869D01*
X1202094Y-51181D01*
X1206030D01*
X1208654Y-45933D02*
Y-49869D01*
X1209966Y-51181D01*
X1213902D01*
Y-45933D01*
X1216525Y-51181D02*
Y-45933D01*
X1217837D01*
X1219149Y-47245D01*
Y-51181D01*
Y-47245D01*
X1220461Y-45933D01*
X1221773Y-47245D01*
Y-51181D01*
X1228333D02*
X1225709D01*
X1224397Y-49869D01*
Y-47245D01*
X1225709Y-45933D01*
X1228333D01*
X1229644Y-47245D01*
Y-48557D01*
X1224397D01*
X1232268Y-51181D02*
Y-45933D01*
X1236204D01*
X1237516Y-47245D01*
Y-51181D01*
X1241452Y-44622D02*
Y-45933D01*
X1240140D01*
X1242764D01*
X1241452D01*
Y-49869D01*
X1242764Y-51181D01*
X1185039Y-82680D02*
Y-90551D01*
X1190287D01*
X1194223Y-85303D02*
X1196847D01*
X1198158Y-86615D01*
Y-90551D01*
X1194223D01*
X1192911Y-89239D01*
X1194223Y-87927D01*
X1198158D01*
X1200782Y-85303D02*
Y-89239D01*
X1202094Y-90551D01*
X1206030D01*
Y-91863D01*
X1204718Y-93175D01*
X1203406D01*
X1206030Y-90551D02*
Y-85303D01*
X1212590Y-90551D02*
X1209966D01*
X1208654Y-89239D01*
Y-86615D01*
X1209966Y-85303D01*
X1212590D01*
X1213902Y-86615D01*
Y-87927D01*
X1208654D01*
X1216525Y-85303D02*
Y-90551D01*
Y-87927D01*
X1217837Y-86615D01*
X1219149Y-85303D01*
X1220461D01*
X1232268Y-90551D02*
Y-82680D01*
X1237516Y-90551D01*
Y-82680D01*
X1241452Y-85303D02*
X1244075D01*
X1245387Y-86615D01*
Y-90551D01*
X1241452D01*
X1240140Y-89239D01*
X1241452Y-87927D01*
X1245387D01*
X1248011Y-90551D02*
Y-85303D01*
X1249323D01*
X1250635Y-86615D01*
Y-90551D01*
Y-86615D01*
X1251947Y-85303D01*
X1253259Y-86615D01*
Y-90551D01*
X1259818D02*
X1257195D01*
X1255883Y-89239D01*
Y-86615D01*
X1257195Y-85303D01*
X1259818D01*
X1261130Y-86615D01*
Y-87927D01*
X1255883D01*
X1185039Y-122050D02*
Y-129921D01*
X1188975D01*
X1190287Y-128609D01*
Y-123362D01*
X1188975Y-122050D01*
X1185039D01*
X1194223Y-124674D02*
X1196847D01*
X1198158Y-125986D01*
Y-129921D01*
X1194223D01*
X1192911Y-128609D01*
X1194223Y-127297D01*
X1198158D01*
X1202094Y-123362D02*
Y-124674D01*
X1200782D01*
X1203406D01*
X1202094D01*
Y-128609D01*
X1203406Y-129921D01*
X1211278D02*
X1208654D01*
X1207342Y-128609D01*
Y-125986D01*
X1208654Y-124674D01*
X1211278D01*
X1212589Y-125986D01*
Y-127297D01*
X1207342D01*
X1185039Y-161420D02*
Y-169291D01*
X1188975D01*
X1190287Y-167979D01*
Y-162732D01*
X1188975Y-161420D01*
X1185039D01*
X1194223Y-169291D02*
X1196847D01*
X1198158Y-167979D01*
Y-165356D01*
X1196847Y-164044D01*
X1194223D01*
X1192911Y-165356D01*
Y-167979D01*
X1194223Y-169291D01*
X1206030Y-164044D02*
X1202094D01*
X1200782Y-165356D01*
Y-167979D01*
X1202094Y-169291D01*
X1206030D01*
X1208654Y-164044D02*
Y-167979D01*
X1209966Y-169291D01*
X1213902D01*
Y-164044D01*
X1216525Y-169291D02*
Y-164044D01*
X1217837D01*
X1219149Y-165356D01*
Y-169291D01*
Y-165356D01*
X1220461Y-164044D01*
X1221773Y-165356D01*
Y-169291D01*
X1228333D02*
X1225709D01*
X1224397Y-167979D01*
Y-165356D01*
X1225709Y-164044D01*
X1228333D01*
X1229644Y-165356D01*
Y-166667D01*
X1224397D01*
X1232268Y-169291D02*
Y-164044D01*
X1236204D01*
X1237516Y-165356D01*
Y-169291D01*
X1241452Y-162732D02*
Y-164044D01*
X1240140D01*
X1242764D01*
X1241452D01*
Y-167979D01*
X1242764Y-169291D01*
D34*
X242126Y45276D02*
G03*
X242126Y45276I-9843J0D01*
G01*
X220472Y47244D02*
G03*
X220472Y47244I-15748J0D01*
G01*
X224409Y116929D02*
Y131102D01*
X240158Y116929D02*
Y131102D01*
X229134Y116142D02*
X235433D01*
X228346Y116929D02*
X229134Y116142D01*
X224409Y116929D02*
X228346D01*
X236221D02*
X240158D01*
X235433Y116142D02*
X236221Y116929D01*
X228346Y131102D02*
X229134Y131890D01*
X224409Y131102D02*
X228346D01*
X236221D02*
X240158D01*
X235433Y131890D02*
X236221Y131102D01*
X229134Y131890D02*
X235433D01*
X52756Y188583D02*
Y191534D01*
X54232D01*
X54724Y191042D01*
Y190059D01*
X54232Y189567D01*
X52756D01*
X57184Y188583D02*
Y191534D01*
X55708Y190059D01*
X57676D01*
X224016Y35433D02*
Y38057D01*
X222705Y36745D02*
X225328D01*
X184542Y45712D02*
X187325Y48495D01*
X184542Y48495D02*
X187325Y45712D01*
D36*
X95472Y122045D02*
Y115485D01*
X96784Y114173D01*
X99408D01*
X100720Y115485D01*
Y122045D01*
X108592Y114173D02*
X103344D01*
X108592Y119421D01*
Y120733D01*
X107280Y122045D01*
X104656D01*
X103344Y120733D01*
X198622Y11811D02*
Y19682D01*
X202558D01*
X203870Y18371D01*
Y15747D01*
X202558Y14435D01*
X198622D01*
X206493Y18371D02*
X207805Y19682D01*
X210429D01*
X211741Y18371D01*
Y17059D01*
X210429Y15747D01*
X209117D01*
X210429D01*
X211741Y14435D01*
Y13123D01*
X210429Y11811D01*
X207805D01*
X206493Y13123D01*
X139567Y11811D02*
Y19682D01*
X143503D01*
X144815Y18371D01*
Y15747D01*
X143503Y14435D01*
X139567D01*
X152686Y11811D02*
X147438D01*
X152686Y17059D01*
Y18371D01*
X151374Y19682D01*
X148750D01*
X147438Y18371D01*
X52953Y11811D02*
Y19682D01*
X56889D01*
X58200Y18371D01*
Y15747D01*
X56889Y14435D01*
X52953D01*
X60824Y11811D02*
X63448D01*
X62136D01*
Y19682D01*
X60824Y18371D01*
X1202756Y-110236D02*
Y-101053D01*
X1207348Y-96461D01*
X1211939Y-101053D01*
Y-110236D01*
Y-103349D01*
X1202756D01*
X1216531Y-110236D02*
X1223419D01*
X1225714Y-107940D01*
X1223419Y-105645D01*
X1218827D01*
X1216531Y-103349D01*
X1218827Y-101053D01*
X1225714D01*
X1230306Y-110236D02*
X1237194D01*
X1239489Y-107940D01*
X1237194Y-105645D01*
X1232602D01*
X1230306Y-103349D01*
X1232602Y-101053D01*
X1239489D01*
X1250969Y-110236D02*
X1246377D01*
X1244081Y-107940D01*
Y-103349D01*
X1246377Y-101053D01*
X1250969D01*
X1253265Y-103349D01*
Y-105645D01*
X1244081D01*
X1257856Y-110236D02*
Y-101053D01*
X1260152D01*
X1262448Y-103349D01*
Y-110236D01*
Y-103349D01*
X1264744Y-101053D01*
X1267040Y-103349D01*
Y-110236D01*
X1271631Y-96461D02*
Y-110236D01*
X1278519D01*
X1280815Y-107940D01*
Y-105645D01*
Y-103349D01*
X1278519Y-101053D01*
X1271631D01*
X1285406Y-110236D02*
X1289998D01*
X1287702D01*
Y-96461D01*
X1285406D01*
X1296886Y-101053D02*
Y-107940D01*
X1299181Y-110236D01*
X1306069D01*
Y-112532D01*
X1303773Y-114828D01*
X1301477D01*
X1306069Y-110236D02*
Y-101053D01*
X1324436Y-96461D02*
X1333619D01*
X1329027D01*
Y-110236D01*
X1340507D02*
X1345098D01*
X1347394Y-107940D01*
Y-103349D01*
X1345098Y-101053D01*
X1340507D01*
X1338211Y-103349D01*
Y-107940D01*
X1340507Y-110236D01*
X1351986Y-114828D02*
Y-101053D01*
X1358873D01*
X1361169Y-103349D01*
Y-107940D01*
X1358873Y-110236D01*
X1351986D01*
X68898Y70864D02*
Y62992D01*
X74145D01*
X76769D02*
X79393D01*
X78081D01*
Y70864D01*
X76769Y69552D01*
X39370Y58068D02*
Y50197D01*
X44618D01*
X52489D02*
X47242D01*
X52489Y55445D01*
Y56756D01*
X51177Y58068D01*
X48553D01*
X47242Y56756D01*
X151575Y57084D02*
Y49213D01*
X156823D01*
X159446Y55772D02*
X160758Y57084D01*
X163382D01*
X164694Y55772D01*
Y54460D01*
X163382Y53148D01*
X162070D01*
X163382D01*
X164694Y51836D01*
Y50524D01*
X163382Y49213D01*
X160758D01*
X159446Y50524D01*
X124016Y70864D02*
Y62992D01*
X129263D01*
X135823D02*
Y70864D01*
X131887Y66928D01*
X137135D01*
X1005906Y-175202D02*
Y-190945D01*
X1011153Y-185697D01*
X1016401Y-190945D01*
Y-175202D01*
X1021649Y-190945D02*
X1026896D01*
X1024272D01*
Y-180450D01*
X1021649D01*
X1034768Y-190945D02*
Y-180450D01*
X1037391D01*
X1040015Y-183073D01*
Y-190945D01*
Y-183073D01*
X1042639Y-180450D01*
X1045263Y-183073D01*
Y-190945D01*
X1050511Y-175202D02*
Y-185697D01*
X1055758Y-190945D01*
X1061006Y-185697D01*
Y-175202D01*
X1076749Y-177826D02*
X1074125Y-175202D01*
X1068877D01*
X1066253Y-177826D01*
Y-188321D01*
X1068877Y-190945D01*
X1074125D01*
X1076749Y-188321D01*
Y-183073D01*
X1071501D01*
X1360236Y-138456D02*
X1362860Y-135832D01*
X1368108D01*
X1370732Y-138456D01*
Y-148951D01*
X1368108Y-151575D01*
X1362860D01*
X1360236Y-148951D01*
Y-138456D01*
X1386475Y-151575D02*
X1375979D01*
X1386475Y-141079D01*
Y-138456D01*
X1383851Y-135832D01*
X1378603D01*
X1375979Y-138456D01*
X1206034Y-151575D02*
X1196850D01*
X1206034Y-142391D01*
Y-140096D01*
X1203738Y-137800D01*
X1199146D01*
X1196850Y-140096D01*
X1219809Y-151575D02*
X1210625D01*
X1219809Y-142391D01*
Y-140096D01*
X1217513Y-137800D01*
X1212921D01*
X1210625Y-140096D01*
X1224401Y-151575D02*
X1233584Y-142391D01*
X1238176Y-140096D02*
X1240471Y-137800D01*
X1245063D01*
X1247359Y-140096D01*
Y-149279D01*
X1245063Y-151575D01*
X1240471D01*
X1238176Y-149279D01*
Y-140096D01*
X1251951D02*
X1254247Y-137800D01*
X1258838D01*
X1261134Y-140096D01*
Y-142391D01*
X1258838Y-144687D01*
X1256542D01*
X1258838D01*
X1261134Y-146983D01*
Y-149279D01*
X1258838Y-151575D01*
X1254247D01*
X1251951Y-149279D01*
X1265726Y-151575D02*
X1274909Y-142391D01*
X1288684Y-151575D02*
X1279501D01*
X1288684Y-142391D01*
Y-140096D01*
X1286388Y-137800D01*
X1281797D01*
X1279501Y-140096D01*
X1293276D02*
X1295572Y-137800D01*
X1300163D01*
X1302459Y-140096D01*
Y-149279D01*
X1300163Y-151575D01*
X1295572D01*
X1293276Y-149279D01*
Y-140096D01*
X1307051Y-151575D02*
X1311643D01*
X1309347D01*
Y-137800D01*
X1307051Y-140096D01*
X1318530Y-137800D02*
X1327714D01*
Y-140096D01*
X1318530Y-149279D01*
Y-151575D01*
X1190945Y-57092D02*
X1201440D01*
X1196192D01*
Y-72835D01*
X1206688D02*
Y-62339D01*
X1211936Y-57092D01*
X1217183Y-62339D01*
Y-72835D01*
Y-64963D01*
X1206688D01*
X1232926Y-59715D02*
X1230302Y-57092D01*
X1225055D01*
X1222431Y-59715D01*
Y-62339D01*
X1225055Y-64963D01*
X1230302D01*
X1232926Y-67587D01*
Y-70211D01*
X1230302Y-72835D01*
X1225055D01*
X1222431Y-70211D01*
X1248669Y-57092D02*
X1238174D01*
Y-64963D01*
X1243421Y-62339D01*
X1246045D01*
X1248669Y-64963D01*
Y-70211D01*
X1246045Y-72835D01*
X1240798D01*
X1238174Y-70211D01*
X1253917Y-57092D02*
X1264412D01*
Y-59715D01*
X1253917Y-70211D01*
Y-72835D01*
X1280155Y-57092D02*
X1269660D01*
Y-64963D01*
X1274907Y-62339D01*
X1277531D01*
X1280155Y-64963D01*
Y-70211D01*
X1277531Y-72835D01*
X1272283D01*
X1269660Y-70211D01*
X1295898Y-57092D02*
X1290650Y-59715D01*
X1285402Y-64963D01*
Y-70211D01*
X1288026Y-72835D01*
X1293274D01*
X1295898Y-70211D01*
Y-67587D01*
X1293274Y-64963D01*
X1285402D01*
X1316888Y-57092D02*
Y-72835D01*
Y-64963D01*
X1327384D01*
Y-57092D01*
Y-72835D01*
X1332631D02*
Y-62339D01*
X1337879Y-57092D01*
X1343127Y-62339D01*
Y-72835D01*
Y-64963D01*
X1332631D01*
X1348374Y-57092D02*
X1358870D01*
X1353622D01*
Y-72835D01*
D53*
X224606Y104528D02*
G03*
X224606Y104528I-1969J0D01*
G01*
X209055Y140748D02*
Y146653D01*
X212205D01*
Y140748D02*
Y146653D01*
X209055Y140748D02*
X212205D01*
X216929Y123031D02*
Y128937D01*
X220079D01*
Y123031D02*
Y128937D01*
X216929Y123031D02*
X220079D01*
X209055D02*
Y128937D01*
X212205D01*
Y123031D02*
Y128937D01*
X209055Y123031D02*
X212205D01*
X204331Y132874D02*
Y138779D01*
X201181Y132874D02*
X204331D01*
X201181D02*
Y138779D01*
X204331D01*
X194095Y132874D02*
Y138779D01*
X197244D01*
Y132874D02*
Y138779D01*
X194095Y132874D02*
X197244D01*
X206890Y92716D02*
Y108071D01*
X226181Y92716D02*
Y108071D01*
X206890Y92716D02*
X226181D01*
X206890Y108071D02*
X226181D01*
X214173Y71850D02*
Y77756D01*
X211024Y71850D02*
X214173D01*
X211024D02*
Y77756D01*
X214173D01*
X225984Y71850D02*
Y77756D01*
X222835Y71850D02*
X225984D01*
X222835D02*
Y77756D01*
X225984D01*
X220079Y71850D02*
Y77756D01*
X216929Y71850D02*
X220079D01*
X216929D02*
Y77756D01*
X220079D01*
X205118Y71850D02*
Y77756D01*
X208268D01*
Y71850D02*
Y77756D01*
X205118Y71850D02*
X208268D01*
X24409Y62795D02*
Y68701D01*
X21260Y62795D02*
X24409D01*
X21260D02*
Y68701D01*
X24409D01*
X141929Y113386D02*
X147835D01*
Y110236D02*
Y113386D01*
X141929Y110236D02*
X147835D01*
X141929D02*
Y113386D01*
X118307Y186614D02*
X124213D01*
Y183465D02*
Y186614D01*
X118307Y183465D02*
X124213D01*
X118307D02*
Y186614D01*
Y180709D02*
X124213D01*
Y177559D02*
Y180709D01*
X118307Y177559D02*
X124213D01*
X118307D02*
Y180709D01*
X231299Y188583D02*
X237205D01*
Y185433D02*
Y188583D01*
X231299Y185433D02*
X237205D01*
X231299D02*
Y188583D01*
X251575Y173228D02*
Y179134D01*
X248425Y173228D02*
X251575D01*
X248425D02*
Y179134D01*
X251575D01*
X155315Y113386D02*
X161221D01*
Y110236D02*
Y113386D01*
X155315Y110236D02*
X161221D01*
X155315D02*
Y113386D01*
X145276Y179134D02*
Y185039D01*
X142126Y179134D02*
X145276D01*
X142126D02*
Y185039D01*
X145276D01*
X166339Y185433D02*
X172244D01*
X166339D02*
Y188583D01*
X172244D01*
Y185433D02*
Y188583D01*
X166339Y175591D02*
X172244D01*
X166339D02*
Y178740D01*
X172244D01*
Y175591D02*
Y178740D01*
X35433Y113189D02*
Y125000D01*
X41339D01*
Y113189D02*
Y125000D01*
X35433Y113189D02*
X41339D01*
X45276D02*
Y125000D01*
X51181D01*
Y113189D02*
Y125000D01*
X45276Y113189D02*
X51181D01*
X178150Y106496D02*
Y118307D01*
X184055D01*
Y106496D02*
Y118307D01*
X178150Y106496D02*
X184055D01*
X168307D02*
Y118307D01*
X174213D01*
Y106496D02*
Y118307D01*
X168307Y106496D02*
X174213D01*
X170866Y85827D02*
Y97638D01*
X164961Y85827D02*
X170866D01*
X164961D02*
Y97638D01*
X170866D01*
X53150Y91535D02*
Y103347D01*
X47244Y91535D02*
X53150D01*
X47244D02*
Y103347D01*
X53150D01*
X161024Y85827D02*
Y97638D01*
X155118Y85827D02*
X161024D01*
X155118D02*
Y97638D01*
X161024D01*
X43307Y91535D02*
Y103347D01*
X37402Y91535D02*
X43307D01*
X37402D02*
Y103347D01*
X43307D01*
X126772Y37106D02*
Y37894D01*
X124016Y37992D02*
X131890D01*
Y32874D02*
Y37992D01*
X124016Y32874D02*
X131890D01*
X124016D02*
Y37992D01*
X163779Y32972D02*
Y33760D01*
X158661Y32874D02*
X166535D01*
X158661D02*
Y37992D01*
X166535D01*
Y32874D02*
Y37992D01*
X40945Y37106D02*
Y37894D01*
X38189Y37992D02*
X46063D01*
Y32874D02*
Y37992D01*
X38189Y32874D02*
X46063D01*
X38189D02*
Y37992D01*
X77165Y32972D02*
Y33760D01*
X72047Y32874D02*
X79921D01*
X72047D02*
Y37992D01*
X79921D01*
Y32874D02*
Y37992D01*
X60532Y85433D02*
X61319D01*
X60433Y82677D02*
Y90551D01*
X65551D01*
Y82677D02*
Y90551D01*
X60433Y82677D02*
X65551D01*
X81496Y85335D02*
Y86122D01*
X78740Y86221D02*
X86614D01*
Y81102D02*
Y86221D01*
X78740Y81102D02*
X86614D01*
X78740D02*
Y86221D01*
X137303Y85433D02*
X138091D01*
X137205Y82677D02*
Y90551D01*
X142323D01*
Y82677D02*
Y90551D01*
X137205Y82677D02*
X142323D01*
X72539Y112106D02*
Y112894D01*
X69783Y112992D02*
X77657D01*
Y107874D02*
Y112992D01*
X69783Y107874D02*
X77657D01*
X69783D02*
Y112992D01*
X60728Y120866D02*
X61516D01*
X61614Y115748D02*
Y123622D01*
X56496Y115748D02*
X61614D01*
X56496D02*
Y123622D01*
X61614D01*
X123425Y81201D02*
Y81988D01*
X118307Y81102D02*
X126181D01*
X118307D02*
Y86221D01*
X126181D01*
Y81102D02*
Y86221D01*
X131890Y110335D02*
Y111122D01*
X126772Y110236D02*
X134646D01*
X126772D02*
Y115354D01*
X134646D01*
Y110236D02*
Y115354D01*
X143405Y123031D02*
X144193D01*
X144291Y117913D02*
Y125787D01*
X139173Y117913D02*
X144291D01*
X139173D02*
Y125787D01*
X144291D01*
X150098Y99213D02*
X150886D01*
X150984Y94095D02*
Y101969D01*
X145866Y94095D02*
X150984D01*
X145866D02*
Y101969D01*
X150984D01*
X64665Y102559D02*
X65453D01*
X65551Y97441D02*
Y105315D01*
X60433Y97441D02*
X65551D01*
X60433D02*
Y105315D01*
X65551D01*
X147146Y120669D02*
X147933D01*
X147047Y117913D02*
Y125787D01*
X152165D01*
Y117913D02*
Y125787D01*
X147047Y117913D02*
X152165D01*
X75787Y136614D02*
Y139764D01*
X69882D02*
X75787D01*
X69882Y136614D02*
Y139764D01*
Y136614D02*
X75787D01*
Y117717D02*
Y120866D01*
X69882D02*
X75787D01*
X69882Y117717D02*
Y120866D01*
Y117717D02*
X75787D01*
X69882Y123622D02*
Y126772D01*
Y123622D02*
X75787D01*
Y126772D01*
X69882D02*
X75787D01*
X133268Y128740D02*
X136417D01*
Y134646D01*
X133268D02*
X136417D01*
X133268Y128740D02*
Y134646D01*
X75787Y129921D02*
Y133071D01*
X69882D02*
X75787D01*
X69882Y129921D02*
Y133071D01*
Y129921D02*
X75787D01*
X141535Y142126D02*
Y145276D01*
X135630D02*
X141535D01*
X135630Y142126D02*
Y145276D01*
Y142126D02*
X141535D01*
X147638Y191339D02*
Y194488D01*
Y191339D02*
X153543D01*
Y194488D01*
X147638D02*
X153543D01*
X13386Y42126D02*
X16535D01*
X13386Y41732D02*
X16535D01*
X13386Y40551D02*
X16535D01*
Y45276D01*
X13386D02*
X16535D01*
X13386Y40551D02*
Y45276D01*
X144882Y136221D02*
Y140551D01*
X138583D02*
X144882D01*
X138583Y129528D02*
Y140551D01*
Y129528D02*
X144882D01*
Y133858D01*
Y136221D01*
X138583Y133858D02*
Y136221D01*
X61890Y78465D02*
X87717D01*
X61890Y53425D02*
X87717D01*
Y78465D01*
X61890Y53425D02*
Y78465D01*
X33346Y66654D02*
X59173D01*
X33346Y41614D02*
X59173D01*
Y66654D01*
X33346Y41614D02*
Y66654D01*
X145551D02*
X171378D01*
X145551Y41614D02*
X171378D01*
Y66654D01*
X145551Y41614D02*
Y66654D01*
X117008Y78465D02*
X142835D01*
X117008Y53425D02*
X142835D01*
Y78465D01*
X117008Y53425D02*
Y78465D01*
X202953Y188976D02*
X208858D01*
X202953Y177165D02*
Y188976D01*
Y177165D02*
X208858D01*
Y188976D01*
X237205Y69685D02*
Y81496D01*
X231299Y69685D02*
X237205D01*
X231299D02*
Y81496D01*
X237205D01*
X237402Y139764D02*
Y151575D01*
X246850D01*
Y139764D02*
Y151575D01*
X237402Y139764D02*
X246850D01*
X217717D02*
Y151575D01*
X227165D01*
Y139764D02*
Y151575D01*
X217717Y139764D02*
X227165D01*
X231890Y118110D02*
X233858D01*
Y119422D01*
X231890Y121390D02*
Y120078D01*
X232874D01*
X232546Y120734D01*
Y121062D01*
X232874Y121390D01*
X233530D01*
X233858Y121062D01*
Y120406D01*
X233530Y120078D01*
X210959Y150524D02*
X210631Y150197D01*
Y149541D01*
X210959Y149213D01*
X212270D01*
X212598Y149541D01*
Y150197D01*
X212270Y150524D01*
X210959Y151181D02*
X210631Y151508D01*
Y152164D01*
X210959Y152492D01*
X211286D01*
X211614Y152164D01*
Y151836D01*
Y152164D01*
X211943Y152492D01*
X212270D01*
X212598Y152164D01*
Y151508D01*
X212270Y151181D01*
X210959Y153148D02*
X210631Y153476D01*
Y154132D01*
X210959Y154460D01*
X212270D01*
X212598Y154132D01*
Y153476D01*
X212270Y153148D01*
X210959D01*
X218832Y132808D02*
X218505Y132480D01*
Y131824D01*
X218832Y131496D01*
X220145D01*
X220472Y131824D01*
Y132480D01*
X220145Y132808D01*
X220472Y134776D02*
Y133464D01*
X219161Y134776D01*
X218832D01*
X218505Y134448D01*
Y133792D01*
X218832Y133464D01*
Y135432D02*
X218505Y135760D01*
Y136416D01*
X218832Y136744D01*
X220145D01*
X220472Y136416D01*
Y135760D01*
X220145Y135432D01*
X218832D01*
X211417Y129921D02*
X209450D01*
Y130905D01*
X209777Y131233D01*
X210433D01*
X210761Y130905D01*
Y129921D01*
Y130577D02*
X211417Y131233D01*
X209450Y131889D02*
Y133201D01*
X209777D01*
X211089Y131889D01*
X211417D01*
X203740Y140157D02*
X201772D01*
Y141141D01*
X202100Y141469D01*
X202756D01*
X203084Y141141D01*
Y140157D01*
Y140813D02*
X203740Y141469D01*
X202100Y142125D02*
X201772Y142453D01*
Y143109D01*
X202100Y143437D01*
X202428D01*
X202756Y143109D01*
X203084Y143437D01*
X203412D01*
X203740Y143109D01*
Y142453D01*
X203412Y142125D01*
X203084D01*
X202756Y142453D01*
X202428Y142125D01*
X202100D01*
X202756Y142453D02*
Y143109D01*
X196457Y139764D02*
X194489D01*
Y140748D01*
X194817Y141076D01*
X195473D01*
X195801Y140748D01*
Y139764D01*
Y140420D02*
X196457Y141076D01*
Y141732D02*
Y142388D01*
Y142060D01*
X194489D01*
X194817Y141732D01*
X196457Y144355D02*
X194489D01*
X195473Y143371D01*
Y144683D01*
X209035Y100362D02*
Y98722D01*
X209363Y98394D01*
X210019D01*
X210347Y98722D01*
Y100362D01*
X211003Y100034D02*
X211331Y100362D01*
X211987D01*
X212315Y100034D01*
Y99706D01*
X211987Y99378D01*
X211659D01*
X211987D01*
X212315Y99050D01*
Y98722D01*
X211987Y98394D01*
X211331D01*
X211003Y98722D01*
X212971Y100034D02*
X213299Y100362D01*
X213955D01*
X214283Y100034D01*
Y98722D01*
X213955Y98394D01*
X213299D01*
X212971Y98722D01*
Y100034D01*
X214939Y98394D02*
X215595D01*
X215267D01*
Y100362D01*
X214939Y100034D01*
X213583Y78740D02*
X211615D01*
Y79724D01*
X211943Y80052D01*
X212599D01*
X212927Y79724D01*
Y78740D01*
Y79396D02*
X213583Y80052D01*
X213255Y80708D02*
X213583Y81036D01*
Y81692D01*
X213255Y82020D01*
X211943D01*
X211615Y81692D01*
Y81036D01*
X211943Y80708D01*
X212271D01*
X212599Y81036D01*
Y82020D01*
X223754Y80052D02*
X223426Y79724D01*
Y79068D01*
X223754Y78740D01*
X225066D01*
X225394Y79068D01*
Y79724D01*
X225066Y80052D01*
X225394Y82020D02*
Y80708D01*
X224082Y82020D01*
X223754D01*
X223426Y81692D01*
Y81036D01*
X223754Y80708D01*
X225066Y82676D02*
X225394Y83004D01*
Y83660D01*
X225066Y83988D01*
X223754D01*
X223426Y83660D01*
Y83004D01*
X223754Y82676D01*
X224082D01*
X224410Y83004D01*
Y83988D01*
X219488Y78740D02*
X217520D01*
Y79724D01*
X217848Y80052D01*
X218504D01*
X218832Y79724D01*
Y78740D01*
Y79396D02*
X219488Y80052D01*
Y80708D02*
Y81364D01*
Y81036D01*
X217520D01*
X217848Y80708D01*
Y82348D02*
X217520Y82676D01*
Y83332D01*
X217848Y83660D01*
X219160D01*
X219488Y83332D01*
Y82676D01*
X219160Y82348D01*
X217848D01*
X206037Y80445D02*
X205709Y80117D01*
Y79461D01*
X206037Y79133D01*
X207349D01*
X207677Y79461D01*
Y80117D01*
X207349Y80445D01*
X206037Y81101D02*
X205709Y81429D01*
Y82085D01*
X206037Y82413D01*
X206365D01*
X206693Y82085D01*
Y81757D01*
Y82085D01*
X207021Y82413D01*
X207349D01*
X207677Y82085D01*
Y81429D01*
X207349Y81101D01*
X206037Y83069D02*
X205709Y83397D01*
Y84053D01*
X206037Y84381D01*
X206365D01*
X206693Y84053D01*
X207021Y84381D01*
X207349D01*
X207677Y84053D01*
Y83397D01*
X207349Y83069D01*
X207021D01*
X206693Y83397D01*
X206365Y83069D01*
X206037D01*
X206693Y83397D02*
Y84053D01*
X23622Y57087D02*
X21654D01*
Y58070D01*
X21982Y58398D01*
X22638D01*
X22966Y58070D01*
Y57087D01*
Y57743D02*
X23622Y58398D01*
Y59054D02*
Y59710D01*
Y59382D01*
X21654D01*
X21982Y59054D01*
X21654Y60694D02*
Y62006D01*
X21982D01*
X23294Y60694D01*
X23622D01*
X140748Y107283D02*
Y109251D01*
X141732D01*
X142060Y108923D01*
Y108267D01*
X141732Y107939D01*
X140748D01*
X141404D02*
X142060Y107283D01*
X142716D02*
X143372D01*
X143044D01*
Y109251D01*
X142716Y108923D01*
X144356D02*
X144684Y109251D01*
X145340D01*
X145668Y108923D01*
Y108595D01*
X145340Y108267D01*
X145012D01*
X145340D01*
X145668Y107939D01*
Y107611D01*
X145340Y107283D01*
X144684D01*
X144356Y107611D01*
X126772Y184055D02*
Y186023D01*
X127756D01*
X128084Y185695D01*
Y185039D01*
X127756Y184711D01*
X126772D01*
X127428D02*
X128084Y184055D01*
X128740D02*
X129395D01*
X129068D01*
Y186023D01*
X128740Y185695D01*
X131691Y184055D02*
X130379D01*
X131691Y185367D01*
Y185695D01*
X131363Y186023D01*
X130707D01*
X130379Y185695D01*
X126772Y178150D02*
Y180117D01*
X127756D01*
X128084Y179789D01*
Y179133D01*
X127756Y178806D01*
X126772D01*
X127428D02*
X128084Y178150D01*
X128740D02*
X129395D01*
X129068D01*
Y180117D01*
X128740Y179789D01*
X130379Y178150D02*
X131035D01*
X130707D01*
Y180117D01*
X130379Y179789D01*
X239173Y186024D02*
Y187991D01*
X240157D01*
X240485Y187663D01*
Y187007D01*
X240157Y186680D01*
X239173D01*
X239829D02*
X240485Y186024D01*
X242453Y187991D02*
X241797Y187663D01*
X241141Y187007D01*
Y186352D01*
X241469Y186024D01*
X242125D01*
X242453Y186352D01*
Y186680D01*
X242125Y187007D01*
X241141D01*
X250984Y168307D02*
X249016D01*
Y169291D01*
X249344Y169619D01*
X250000D01*
X250328Y169291D01*
Y168307D01*
Y168963D02*
X250984Y169619D01*
X249016Y171587D02*
Y170275D01*
X250000D01*
X249672Y170931D01*
Y171259D01*
X250000Y171587D01*
X250656D01*
X250984Y171259D01*
Y170603D01*
X250656Y170275D01*
X157480Y107283D02*
Y109251D01*
X158464D01*
X158792Y108923D01*
Y108267D01*
X158464Y107939D01*
X157480D01*
X158136D02*
X158792Y107283D01*
X160432D02*
Y109251D01*
X159448Y108267D01*
X160760D01*
X144685Y174213D02*
X142717D01*
Y175197D01*
X143045Y175524D01*
X143701D01*
X144029Y175197D01*
Y174213D01*
Y174869D02*
X144685Y175524D01*
X143045Y176181D02*
X142717Y176508D01*
Y177164D01*
X143045Y177492D01*
X143373D01*
X143701Y177164D01*
Y176836D01*
Y177164D01*
X144029Y177492D01*
X144357D01*
X144685Y177164D01*
Y176508D01*
X144357Y176181D01*
X161417Y186024D02*
Y187991D01*
X162401D01*
X162729Y187663D01*
Y187007D01*
X162401Y186680D01*
X161417D01*
X162073D02*
X162729Y186024D01*
X164697D02*
X163385D01*
X164697Y187336D01*
Y187663D01*
X164369Y187991D01*
X163713D01*
X163385Y187663D01*
X162402Y176181D02*
Y178149D01*
X163385D01*
X163714Y177821D01*
Y177165D01*
X163385Y176837D01*
X162402D01*
X163057D02*
X163714Y176181D01*
X164369D02*
X165025D01*
X164697D01*
Y178149D01*
X164369Y177821D01*
X38746Y117406D02*
X38418Y117078D01*
Y116422D01*
X38746Y116095D01*
X40058D01*
X40386Y116422D01*
Y117078D01*
X40058Y117406D01*
X38746Y118062D02*
X38418Y118390D01*
Y119046D01*
X38746Y119374D01*
X39074D01*
X39402Y119046D01*
Y118718D01*
Y119046D01*
X39730Y119374D01*
X40058D01*
X40386Y119046D01*
Y118390D01*
X40058Y118062D01*
X38418Y121342D02*
Y120030D01*
X39402D01*
X39074Y120686D01*
Y121014D01*
X39402Y121342D01*
X40058D01*
X40386Y121014D01*
Y120358D01*
X40058Y120030D01*
X48588Y117406D02*
X48261Y117078D01*
Y116422D01*
X48588Y116095D01*
X49900D01*
X50228Y116422D01*
Y117078D01*
X49900Y117406D01*
X48588Y118062D02*
X48261Y118390D01*
Y119046D01*
X48588Y119374D01*
X48916D01*
X49244Y119046D01*
Y118718D01*
Y119046D01*
X49572Y119374D01*
X49900D01*
X50228Y119046D01*
Y118390D01*
X49900Y118062D01*
X50228Y121014D02*
X48261D01*
X49244Y120030D01*
Y121342D01*
X181463Y110714D02*
X181134Y110386D01*
Y109730D01*
X181463Y109402D01*
X182774D01*
X183102Y109730D01*
Y110386D01*
X182774Y110714D01*
X181463Y111369D02*
X181134Y111697D01*
Y112353D01*
X181463Y112681D01*
X181790D01*
X182118Y112353D01*
Y112025D01*
Y112353D01*
X182446Y112681D01*
X182774D01*
X183102Y112353D01*
Y111697D01*
X182774Y111369D01*
X181463Y113337D02*
X181134Y113665D01*
Y114321D01*
X181463Y114649D01*
X181790D01*
X182118Y114321D01*
Y113993D01*
Y114321D01*
X182446Y114649D01*
X182774D01*
X183102Y114321D01*
Y113665D01*
X182774Y113337D01*
X171620Y110714D02*
X171292Y110386D01*
Y109730D01*
X171620Y109402D01*
X172932D01*
X173260Y109730D01*
Y110386D01*
X172932Y110714D01*
X171620Y111369D02*
X171292Y111697D01*
Y112353D01*
X171620Y112681D01*
X171948D01*
X172276Y112353D01*
Y112025D01*
Y112353D01*
X172604Y112681D01*
X172932D01*
X173260Y112353D01*
Y111697D01*
X172932Y111369D01*
X173260Y114649D02*
Y113337D01*
X171948Y114649D01*
X171620D01*
X171292Y114321D01*
Y113665D01*
X171620Y113337D01*
X167226Y91123D02*
X166898Y90795D01*
Y90139D01*
X167226Y89811D01*
X168538D01*
X168866Y90139D01*
Y90795D01*
X168538Y91123D01*
X167226Y91779D02*
X166898Y92107D01*
Y92763D01*
X167226Y93091D01*
X167554D01*
X167882Y92763D01*
X168210Y93091D01*
X168538D01*
X168866Y92763D01*
Y92107D01*
X168538Y91779D01*
X168210D01*
X167882Y92107D01*
X167554Y91779D01*
X167226D01*
X167882Y92107D02*
Y92763D01*
X49510Y96832D02*
X49182Y96504D01*
Y95848D01*
X49510Y95520D01*
X50822D01*
X51150Y95848D01*
Y96504D01*
X50822Y96832D01*
X49182Y97487D02*
Y98800D01*
X49510D01*
X50822Y97487D01*
X51150D01*
X157384Y91123D02*
X157056Y90795D01*
Y90139D01*
X157384Y89811D01*
X158696D01*
X159024Y90139D01*
Y90795D01*
X158696Y91123D01*
X157056Y93091D02*
X157384Y92435D01*
X158040Y91779D01*
X158696D01*
X159024Y92107D01*
Y92763D01*
X158696Y93091D01*
X158368D01*
X158040Y92763D01*
Y91779D01*
X39667Y96832D02*
X39339Y96504D01*
Y95848D01*
X39667Y95520D01*
X40979D01*
X41307Y95848D01*
Y96504D01*
X40979Y96832D01*
X39339Y98800D02*
Y97487D01*
X40323D01*
X39995Y98144D01*
Y98471D01*
X40323Y98800D01*
X40979D01*
X41307Y98471D01*
Y97816D01*
X40979Y97487D01*
X126214Y35105D02*
X125885Y35432D01*
X125230D01*
X124902Y35105D01*
Y33792D01*
X125230Y33465D01*
X125885D01*
X126214Y33792D01*
X128181Y33465D02*
X126869D01*
X128181Y34776D01*
Y35105D01*
X127853Y35432D01*
X127197D01*
X126869Y35105D01*
X128837D02*
X129165Y35432D01*
X129821D01*
X130149Y35105D01*
Y34776D01*
X129821Y34449D01*
X130149Y34121D01*
Y33792D01*
X129821Y33465D01*
X129165D01*
X128837Y33792D01*
Y34121D01*
X129165Y34449D01*
X128837Y34776D01*
Y35105D01*
X129165Y34449D02*
X129821D01*
X161745Y37073D02*
X161417Y37401D01*
X160761D01*
X160433Y37073D01*
Y35761D01*
X160761Y35433D01*
X161417D01*
X161745Y35761D01*
X163713Y35433D02*
X162401D01*
X163713Y36745D01*
Y37073D01*
X163385Y37401D01*
X162729D01*
X162401Y37073D01*
X164369Y37401D02*
X165681D01*
Y37073D01*
X164369Y35761D01*
Y35433D01*
X40387Y35105D02*
X40059Y35432D01*
X39403D01*
X39075Y35105D01*
Y33792D01*
X39403Y33465D01*
X40059D01*
X40387Y33792D01*
X42355Y33465D02*
X41043D01*
X42355Y34776D01*
Y35105D01*
X42027Y35432D01*
X41371D01*
X41043Y35105D01*
X44322Y35432D02*
X43666Y35105D01*
X43011Y34449D01*
Y33792D01*
X43339Y33465D01*
X43995D01*
X44322Y33792D01*
Y34121D01*
X43995Y34449D01*
X43011D01*
X75131Y37073D02*
X74803Y37401D01*
X74147D01*
X73819Y37073D01*
Y35761D01*
X74147Y35433D01*
X74803D01*
X75131Y35761D01*
X77099Y35433D02*
X75787D01*
X77099Y36745D01*
Y37073D01*
X76771Y37401D01*
X76115D01*
X75787Y37073D01*
X79066Y37401D02*
X77755D01*
Y36417D01*
X78411Y36745D01*
X78738D01*
X79066Y36417D01*
Y35761D01*
X78738Y35433D01*
X78083D01*
X77755Y35761D01*
X63321Y84875D02*
X62993Y84547D01*
Y83891D01*
X63321Y83563D01*
X64633D01*
X64961Y83891D01*
Y84547D01*
X64633Y84875D01*
X64961Y86843D02*
Y85531D01*
X63649Y86843D01*
X63321D01*
X62993Y86515D01*
Y85859D01*
X63321Y85531D01*
X64961Y88483D02*
X62993D01*
X63977Y87499D01*
Y88811D01*
X80938Y83333D02*
X80610Y83661D01*
X79954D01*
X79626Y83333D01*
Y82021D01*
X79954Y81693D01*
X80610D01*
X80938Y82021D01*
X82906Y81693D02*
X81594D01*
X82906Y83005D01*
Y83333D01*
X82578Y83661D01*
X81922D01*
X81594Y83333D01*
X83562D02*
X83890Y83661D01*
X84546D01*
X84874Y83333D01*
Y83005D01*
X84546Y82677D01*
X84218D01*
X84546D01*
X84874Y82349D01*
Y82021D01*
X84546Y81693D01*
X83890D01*
X83562Y82021D01*
X140092Y84875D02*
X139764Y84547D01*
Y83891D01*
X140092Y83563D01*
X141404D01*
X141732Y83891D01*
Y84547D01*
X141404Y84875D01*
X141732Y86843D02*
Y85531D01*
X140420Y86843D01*
X140092D01*
X139764Y86515D01*
Y85859D01*
X140092Y85531D01*
X141732Y88811D02*
Y87499D01*
X140420Y88811D01*
X140092D01*
X139764Y88483D01*
Y87827D01*
X140092Y87499D01*
X71981Y110104D02*
X71653Y110432D01*
X70997D01*
X70669Y110104D01*
Y108792D01*
X70997Y108465D01*
X71653D01*
X71981Y108792D01*
X72637Y108465D02*
X73293D01*
X72965D01*
Y110432D01*
X72637Y110104D01*
X74277Y108792D02*
X74605Y108465D01*
X75261D01*
X75589Y108792D01*
Y110104D01*
X75261Y110432D01*
X74605D01*
X74277Y110104D01*
Y109776D01*
X74605Y109449D01*
X75589D01*
X57415Y118438D02*
X57087Y118110D01*
Y117454D01*
X57415Y117126D01*
X58727D01*
X59055Y117454D01*
Y118110D01*
X58727Y118438D01*
X59055Y119094D02*
Y119750D01*
Y119422D01*
X57087D01*
X57415Y119094D01*
Y120734D02*
X57087Y121062D01*
Y121718D01*
X57415Y122046D01*
X57743D01*
X58071Y121718D01*
X58399Y122046D01*
X58727D01*
X59055Y121718D01*
Y121062D01*
X58727Y120734D01*
X58399D01*
X58071Y121062D01*
X57743Y120734D01*
X57415D01*
X58071Y121062D02*
Y121718D01*
X121391Y85301D02*
X121063Y85629D01*
X120407D01*
X120079Y85301D01*
Y83989D01*
X120407Y83661D01*
X121063D01*
X121391Y83989D01*
X122047Y83661D02*
X122703D01*
X122375D01*
Y85629D01*
X122047Y85301D01*
X123687Y85629D02*
X124998D01*
Y85301D01*
X123687Y83989D01*
Y83661D01*
X129265Y108923D02*
X128937Y109251D01*
X128281D01*
X127953Y108923D01*
Y107611D01*
X128281Y107283D01*
X128937D01*
X129265Y107611D01*
X129921Y107283D02*
X130577D01*
X130249D01*
Y109251D01*
X129921Y108923D01*
X132872Y109251D02*
X131561D01*
Y108267D01*
X132217Y108595D01*
X132544D01*
X132872Y108267D01*
Y107611D01*
X132544Y107283D01*
X131888D01*
X131561Y107611D01*
X140092Y120406D02*
X139764Y120078D01*
Y119422D01*
X140092Y119095D01*
X141404D01*
X141732Y119422D01*
Y120078D01*
X141404Y120406D01*
X141732Y121062D02*
Y121718D01*
Y121390D01*
X139764D01*
X140092Y121062D01*
X141732Y123686D02*
X139764D01*
X140748Y122702D01*
Y124014D01*
X147770Y97473D02*
X147442Y97145D01*
Y96489D01*
X147770Y96161D01*
X149082D01*
X149409Y96489D01*
Y97145D01*
X149082Y97473D01*
X149409Y99113D02*
X147442D01*
X148425Y98129D01*
Y99441D01*
X62336Y100721D02*
X62009Y100393D01*
Y99737D01*
X62336Y99410D01*
X63648D01*
X63976Y99737D01*
Y100393D01*
X63648Y100721D01*
X62336Y101377D02*
X62009Y101705D01*
Y102361D01*
X62336Y102689D01*
X62665D01*
X62992Y102361D01*
Y102033D01*
Y102361D01*
X63320Y102689D01*
X63648D01*
X63976Y102361D01*
Y101705D01*
X63648Y101377D01*
X149935Y120111D02*
X149607Y119783D01*
Y119127D01*
X149935Y118799D01*
X151247D01*
X151575Y119127D01*
Y119783D01*
X151247Y120111D01*
X151575Y122079D02*
Y120767D01*
X150263Y122079D01*
X149935D01*
X149607Y121751D01*
Y121095D01*
X149935Y120767D01*
X65288Y139435D02*
X64960Y139763D01*
X64304D01*
X63976Y139435D01*
Y138123D01*
X64304Y137795D01*
X64960D01*
X65288Y138123D01*
X65944Y137795D02*
X66600D01*
X66272D01*
Y139763D01*
X65944Y139435D01*
X68896Y139763D02*
X68240Y139435D01*
X67584Y138779D01*
Y138123D01*
X67912Y137795D01*
X68568D01*
X68896Y138123D01*
Y138451D01*
X68568Y138779D01*
X67584D01*
X65288Y119750D02*
X64960Y120078D01*
X64304D01*
X63976Y119750D01*
Y118438D01*
X64304Y118110D01*
X64960D01*
X65288Y118438D01*
X65944Y118110D02*
X66600D01*
X66272D01*
Y120078D01*
X65944Y119750D01*
X67584D02*
X67912Y120078D01*
X68568D01*
X68896Y119750D01*
Y119422D01*
X68568Y119094D01*
X68240D01*
X68568D01*
X68896Y118766D01*
Y118438D01*
X68568Y118110D01*
X67912D01*
X67584Y118438D01*
X65288Y125656D02*
X64960Y125984D01*
X64304D01*
X63976Y125656D01*
Y124344D01*
X64304Y124016D01*
X64960D01*
X65288Y124344D01*
X65944Y124016D02*
X66600D01*
X66272D01*
Y125984D01*
X65944Y125656D01*
X68896Y124016D02*
X67584D01*
X68896Y125328D01*
Y125656D01*
X68568Y125984D01*
X67912D01*
X67584Y125656D01*
X134187Y137139D02*
X133859Y136811D01*
Y136155D01*
X134187Y135827D01*
X135499D01*
X135827Y136155D01*
Y136811D01*
X135499Y137139D01*
X135827Y137795D02*
Y138451D01*
Y138123D01*
X133859D01*
X134187Y137795D01*
X135827Y139435D02*
Y140091D01*
Y139762D01*
X133859D01*
X134187Y139435D01*
X65288Y132545D02*
X64960Y132873D01*
X64304D01*
X63976Y132545D01*
Y131234D01*
X64304Y130905D01*
X64960D01*
X65288Y131234D01*
X65944Y130905D02*
X66600D01*
X66272D01*
Y132873D01*
X65944Y132545D01*
X67584D02*
X67912Y132873D01*
X68568D01*
X68896Y132545D01*
Y131234D01*
X68568Y130905D01*
X67912D01*
X67584Y131234D01*
Y132545D01*
X131233Y144160D02*
X130905Y144488D01*
X130249D01*
X129921Y144160D01*
Y142848D01*
X130249Y142520D01*
X130905D01*
X131233Y142848D01*
X131889D02*
X132217Y142520D01*
X132873D01*
X133201Y142848D01*
Y144160D01*
X132873Y144488D01*
X132217D01*
X131889Y144160D01*
Y143832D01*
X132217Y143504D01*
X133201D01*
X156824Y193569D02*
X156496Y193897D01*
X155840D01*
X155512Y193569D01*
Y192257D01*
X155840Y191929D01*
X156496D01*
X156824Y192257D01*
X157480Y191929D02*
X158136D01*
X157808D01*
Y193897D01*
X157480Y193569D01*
X5118Y62598D02*
X6430D01*
X5774D01*
Y60630D01*
X7086Y62270D02*
X7414Y62598D01*
X8070D01*
X8398Y62270D01*
Y61942D01*
X8070Y61614D01*
X7742D01*
X8070D01*
X8398Y61286D01*
Y60958D01*
X8070Y60630D01*
X7414D01*
X7086Y60958D01*
X7874Y41732D02*
X5906D01*
Y42716D01*
X6234Y43044D01*
X6890D01*
X7218Y42716D01*
Y41732D01*
X5906Y45012D02*
X6234Y44356D01*
X6890Y43700D01*
X7546D01*
X7874Y44028D01*
Y44684D01*
X7546Y45012D01*
X7218D01*
X6890Y44684D01*
Y43700D01*
X13780Y35433D02*
X15748D01*
Y36417D01*
X15420Y36745D01*
X14108D01*
X13780Y36417D01*
Y35433D01*
X15748Y38713D02*
Y37401D01*
X14436Y38713D01*
X14108D01*
X13780Y38385D01*
Y37729D01*
X14108Y37401D01*
X154724Y183070D02*
Y181430D01*
X155052Y181102D01*
X155708D01*
X156036Y181430D01*
Y183070D01*
X156692Y181102D02*
X157348D01*
X157020D01*
Y183070D01*
X156692Y182742D01*
X236221Y172244D02*
Y173556D01*
Y172900D01*
X238189D01*
Y175524D02*
Y174212D01*
X236877Y175524D01*
X236549D01*
X236221Y175196D01*
Y174540D01*
X236549Y174212D01*
X218504Y175196D02*
X219816D01*
X219160D01*
Y173228D01*
X220472D02*
X221128D01*
X220800D01*
Y175196D01*
X220472Y174868D01*
X140945Y135170D02*
Y133858D01*
X141929D01*
Y134514D01*
Y133858D01*
X142913D01*
Y135826D02*
Y136482D01*
Y136154D01*
X140945D01*
X141273Y135826D01*
X205053Y181430D02*
X204725Y181102D01*
Y180446D01*
X205053Y180118D01*
X206365D01*
X206693Y180446D01*
Y181102D01*
X206365Y181430D01*
X205053Y182086D02*
X204725Y182414D01*
Y183070D01*
X205053Y183398D01*
X205381D01*
X205709Y183070D01*
Y182742D01*
Y183070D01*
X206037Y183398D01*
X206365D01*
X206693Y183070D01*
Y182414D01*
X206365Y182086D01*
X204725Y185366D02*
X205053Y184710D01*
X205709Y184054D01*
X206365D01*
X206693Y184382D01*
Y185038D01*
X206365Y185366D01*
X206037D01*
X205709Y185038D01*
Y184054D01*
X233596Y74147D02*
X233268Y73819D01*
Y73163D01*
X233596Y72835D01*
X234908D01*
X235236Y73163D01*
Y73819D01*
X234908Y74147D01*
X235236Y76114D02*
Y74803D01*
X233924Y76114D01*
X233596D01*
X233268Y75786D01*
Y75130D01*
X233596Y74803D01*
X235236Y76770D02*
Y77426D01*
Y77098D01*
X233268D01*
X233596Y76770D01*
X242486Y143981D02*
X242158Y143653D01*
Y142997D01*
X242486Y142669D01*
X243798D01*
X244126Y142997D01*
Y143653D01*
X243798Y143981D01*
X242486Y144637D02*
X242158Y144965D01*
Y145621D01*
X242486Y145949D01*
X242814D01*
X243142Y145621D01*
Y145293D01*
Y145621D01*
X243470Y145949D01*
X243798D01*
X244126Y145621D01*
Y144965D01*
X243798Y144637D01*
X244126Y146605D02*
Y147261D01*
Y146933D01*
X242158D01*
X242486Y146605D01*
X222801Y143981D02*
X222473Y143653D01*
Y142997D01*
X222801Y142669D01*
X224113D01*
X224441Y142997D01*
Y143653D01*
X224113Y143981D01*
X222801Y144637D02*
X222473Y144965D01*
Y145621D01*
X222801Y145949D01*
X223129D01*
X223457Y145621D01*
Y145293D01*
Y145621D01*
X223785Y145949D01*
X224113D01*
X224441Y145621D01*
Y144965D01*
X224113Y144637D01*
X222473Y146605D02*
Y147917D01*
X222801D01*
X224113Y146605D01*
X224441D01*
X235762Y40682D02*
X235434Y40354D01*
Y39698D01*
X235762Y39370D01*
X237074D01*
X237402Y39698D01*
Y40354D01*
X237074Y40682D01*
X235762Y41338D02*
X235434Y41666D01*
Y42322D01*
X235762Y42650D01*
X236090D01*
X236418Y42322D01*
Y41994D01*
Y42322D01*
X236746Y42650D01*
X237074D01*
X237402Y42322D01*
Y41666D01*
X237074Y41338D01*
Y43306D02*
X237402Y43634D01*
Y44290D01*
X237074Y44618D01*
X235762D01*
X235434Y44290D01*
Y43634D01*
X235762Y43306D01*
X236090D01*
X236418Y43634D01*
Y44618D01*
X203936Y39309D02*
X203472Y39309D01*
X203008Y38846D01*
X203008Y38382D01*
X203936Y37454D01*
X204399D01*
X204863Y37918D01*
Y38382D01*
X206255Y39309D02*
X204863Y40701D01*
Y39309D01*
X205791Y40237D01*
Y41165D02*
Y41629D01*
X206255Y42092D01*
X206719D01*
X207646Y41165D01*
Y40701D01*
X207183Y40237D01*
X206719D01*
X205791Y41165D01*
M02*
