M48
;Layer_Color=9474304
;FILE_FORMAT=2:5
INCH,LZ
;TYPE=PLATED
T1F00S00C0.01181
T2F00S00C0.02362
T3F00S00C0.03543
T4F00S00C0.05118
;TYPE=NON_PLATED
T5F00S00C0.10827
%
T01
X0169882Y0032677
Y0038189
X0168307Y0082874
X016437
X0158465
X0154528
X0147638Y009252
X0140945Y0095669
X0156693Y010748
X016063
X0164567
X0168504
X0167323Y011811
X017126
X0161417
X015748
X0151575Y012874
X0147638
X0135039Y0117717
X0187008Y0116142
Y0124016
Y013189
X0190945Y0127953
X0194882Y013189
Y0124016
X0190945Y0120079
X0194882Y0116142
X0198819Y0120079
Y0127953
X0202756Y013189
X0206693Y0127953
X021063Y013189
Y0124016
Y0116142
Y0108268
Y0100394
X0206693Y0104331
Y0112205
Y0120079
X0202756Y0116142
Y0108268
Y0100394
Y0124016
X0236221
Y013189
X0240158Y0127953
X0244094Y013189
Y0124016
Y0116142
Y0108268
Y0100394
X0240158Y0104331
Y0112205
Y0120079
X0236221Y0116142
Y0108268
Y0100394
X0248031Y0081299
X0251969
X0240551Y0065551
X0224016Y0062795
X0223031Y0072441
X0223819Y0079921
X0213622Y0080295
X0202362Y0065158
X0198425
X0201575Y0054331
X0205118
X0208661
X0212205
X0115748Y0051772
X0111417
X0107087
Y0046654
X0111417
X0115748
Y0041536
X0111417
X0107087
Y0036417
X0111417
X0115748
Y0031299
X0111417
X0107087
Y0026181
X0111417
X0115748
Y0021063
X0111417
X0107087
Y0015945
X0111417
X0115748
X0093307
X0088976
Y0021063
X0093307
X0097638
Y0026181
X0093307
X0088976
Y0031299
X0093307
X0097638
Y0036417
X0093307
X0088976
Y0041536
X0093307
X0097638
Y0046654
X0093307
X0088976
Y0051772
X0093307
X0097638
X0096063Y005689
X0096457Y0062008
Y0067126
X0091339
X0090551Y0062008
X0089764Y005689
X0092126Y0072244
X0097244
X0097638Y0077362
X0092913
X0093701Y008248
X0098032
X0102362
X0106693
X0111024
X0111811Y0077362
X0107087
X0102362
X0109449Y007441
X0114961Y0072244
Y0067126
X0114173Y0062008
X0109055
Y005689
X0114961
X0102362Y0065551
Y0087599
X0106299
X0110236
X0114173
X0109449Y0092717
X0105905
X0102362
X0098819
X0095276
X0094488Y0087599
X0098425
X0090551
X0097638Y0098622
Y0103347
X0102362
X0107087
Y0098622
X0102362
Y011752
Y0122244
Y0126969
Y0131693
X0097638
Y0126969
Y0122244
Y011752
X0107087
Y0122244
Y0126969
Y0131693
X0068701Y0128937
X0069095Y0118898
X005748Y0119291
X0054134Y0127953
X0050197
X0044291
X0040354
Y0108858
X0044291
X0048228
X0052165
X0061024Y0098819
X0064961
X0054134Y0088583
X0050197
X0044291
X0040354
X0026378Y0062795
X0026181Y0057874
X0027953Y0051181
X0027559Y003622
X0021654Y0035433
X0034449Y0037402
Y0033465
X0083661
Y0037402
X0121063
Y0033465
X0098819Y0005118
X0014173Y0072441
X0031496Y0143701
X0068701Y0133858
X008189Y0147244
X008937Y0147835
X0093701
X0098032
X0102362
X0106693
X0111024
X0115354
X0119685
X0120866Y0152953
X0116535
X0111811
X0107087
X0102362
X0097638
X0092913
X0088189
X0087008Y0158071
X0092126
X0097244
X0102362
Y0163189
Y0168307
Y0173425
Y0178543
X0109055
X0108661Y0173425
X0108268Y0168307
X0107874Y0163189
X010748Y0158071
X0112598
X0117717
X0122835
X0118898Y0163189
X0113386
X0114173Y0168307
X0114961Y0173425
X0115748Y0178543
X0122441
X012126Y0173425
X0120079Y0168307
X0096457
X009685Y0163189
X0091339
X0085827
X0084646Y0168307
X0090551
X0089764Y0173425
X0088976Y0178543
X0082677
X0083465Y0173425
X0096063
X0095669Y0178543
X0077165Y0182677
X0088189Y0194882
X0067716Y0197638
X0057874
X0112954Y0187402
X0127953Y020748
X0126969Y0139764
X0126969Y0135827
X011811Y0142717
X0114173
X0110236
X0106299
X0102362
X0098425
X0094488
X0090551
X0086614
X0095276Y0137598
X0098819
X0102362
X0105905
X0109449
X0134843Y0133465
X0140945Y0142126
X0136944Y015033
X015315Y0135039
X0187008Y0139764
Y0147638
X0194882
X0190945Y0143701
Y0151575
X0198819
X0206693
Y0143701
X0202756Y0147638
X0198819Y0143701
Y0135827
X0202756Y0139764
X0194882
X0190945Y0135827
X0206693
X021063Y0139764
X0214567Y0135827
Y0143701
X0222441
X0218504Y0139764
X0222441Y0135827
X0226378Y0139764
X0230315Y0135827
X0240158Y0135827
X0242126Y0148425
X0237402
X024685
Y0158661
X0242126
X0237402
X025Y0170276
X0240158Y0187008
X0204724Y0171653
Y0166929
Y0162205
X0194488
Y0166929
Y0171653
X0172244Y0182087
X0165354
X0150886Y0189272
X0198031Y0206299
T02
X0149606Y0167323
X0159606
X0169606
X0179606Y0177323
Y0187323
T03
X0006693Y0039213
Y0049213
X001Y015
Y016
Y017
Y018
X004Y019
X005
X006
X007
X0072953Y0201693
X0062954
Y0211693
X0052953Y0211693
X0052953Y0201693
X0042954
X0032954
Y0211693
X0042954
X0072954
X0082954Y0211693
Y0201693
X0092954Y0201693
X0092954Y0211693
X0102954Y0211693
X0102954Y0201693
X0112954
X0122954
Y0211693
X0112954
X0132954Y0211693
X0142954Y0211693
Y0201693
X0132954
X0152954
Y0211693
X0162954
X0172954Y0211693
Y0201693
X0182954Y0201693
X0192954
X0192954Y0211693
X0202954Y0211693
X0202954Y0201693
X0212954Y0201693
X0222954
X0222954Y0211693
X0212954Y0211693
X0182954
X0162954Y0201693
T04
X0135669Y001378
X0155669
X0194724
X0214724
X0069055
X0049055
T05
X0242126Y001378
X001378
X0045276Y0151575
X001378Y0206693
X0242126
M30
