G04 Layer_Physical_Order=1*
G04 Layer_Color=48896*
%FSLAX25Y25*%
%MOIN*%
G70*
G01*
G75*
%ADD10C,0.01969*%
%ADD11C,0.03504*%
%ADD12R,0.03543X0.02362*%
%ADD13R,0.01181X0.01772*%
%ADD14R,0.03347X0.03937*%
%ADD15R,0.03347X0.03937*%
%ADD16R,0.05906X0.02756*%
%ADD17R,0.07087X0.03543*%
%ADD18R,0.02362X0.03543*%
%ADD19R,0.01575X0.01890*%
%ADD20R,0.16142X0.35827*%
%ADD21R,0.06890X0.01181*%
%ADD22R,0.04528X0.02362*%
%ADD23C,0.01575*%
%ADD24R,0.12598X0.06299*%
%ADD25R,0.06299X0.12598*%
%ADD26R,0.03937X0.03347*%
%ADD27R,0.03937X0.03347*%
%ADD28R,0.03504X0.12047*%
%ADD29R,0.21063X0.33622*%
%ADD30R,0.02756X0.05906*%
%ADD31R,0.20984X0.05630*%
%ADD32C,0.00984*%
%ADD33C,0.00787*%
%ADD34C,0.01181*%
%ADD35C,0.01575*%
%ADD36C,0.00591*%
%ADD37C,0.03937*%
%ADD38C,0.02362*%
%ADD39C,0.01000*%
%ADD40C,0.05118*%
%ADD41R,0.05906X0.05906*%
%ADD42C,0.05906*%
%ADD43C,0.04724*%
%ADD44R,0.05906X0.05906*%
%ADD45R,0.07874X0.07874*%
G04:AMPARAMS|DCode=46|XSize=78.74mil|YSize=78.74mil|CornerRadius=19.69mil|HoleSize=0mil|Usage=FLASHONLY|Rotation=0.000|XOffset=0mil|YOffset=0mil|HoleType=Round|Shape=RoundedRectangle|*
%AMROUNDEDRECTD46*
21,1,0.07874,0.03937,0,0,0.0*
21,1,0.03937,0.07874,0,0,0.0*
1,1,0.03937,0.01969,-0.01969*
1,1,0.03937,-0.01969,-0.01969*
1,1,0.03937,-0.01969,0.01969*
1,1,0.03937,0.01969,0.01969*
%
%ADD46ROUNDEDRECTD46*%
%ADD47C,0.02756*%
G36*
X235449Y36872D02*
X235390D01*
Y36930D01*
X235449D01*
Y36872D01*
D02*
G37*
G36*
X240810Y51791D02*
X240868D01*
Y51733D01*
X240927D01*
Y51674D01*
X240868D01*
Y51616D01*
X240927D01*
Y51558D01*
Y51500D01*
Y51441D01*
X240985D01*
Y51383D01*
X240927D01*
Y51325D01*
X240985D01*
Y51267D01*
Y51208D01*
Y51150D01*
X241043D01*
Y51092D01*
X240985D01*
Y51034D01*
X241043D01*
Y50975D01*
X240985D01*
Y50917D01*
X241043D01*
Y50859D01*
Y50800D01*
Y50742D01*
X241102D01*
Y50684D01*
Y50625D01*
Y50567D01*
X241160D01*
Y50509D01*
X241102D01*
Y50451D01*
X241160D01*
Y50392D01*
X241102D01*
Y50334D01*
X241160D01*
Y50276D01*
Y50218D01*
Y50159D01*
X241218D01*
Y50101D01*
Y50043D01*
Y49984D01*
X241276D01*
Y49926D01*
X241218D01*
Y49868D01*
X241276D01*
Y49810D01*
X241218D01*
Y49751D01*
X241276D01*
Y49693D01*
Y49635D01*
Y49577D01*
Y49518D01*
X241335D01*
Y49460D01*
Y49402D01*
X241510D01*
Y49343D01*
X241684D01*
Y49285D01*
X241859D01*
Y49227D01*
X241917D01*
Y49169D01*
X242092D01*
Y49110D01*
X242151D01*
Y49052D01*
X242209D01*
Y49110D01*
X242267D01*
Y49052D01*
X242325D01*
Y48994D01*
X242384D01*
Y49052D01*
X242442D01*
Y48994D01*
X242500D01*
Y48935D01*
X242675D01*
Y48877D01*
X242733D01*
Y48819D01*
X242792D01*
Y48877D01*
X242850D01*
Y48819D01*
X243025D01*
Y48877D01*
X243083D01*
Y48935D01*
X243258D01*
Y48994D01*
X243316D01*
Y49052D01*
X243374D01*
Y49110D01*
X243433D01*
Y49169D01*
X243608D01*
Y49227D01*
X243666D01*
Y49285D01*
X243724D01*
Y49343D01*
X243782D01*
Y49402D01*
X243957D01*
Y49460D01*
X244016D01*
Y49518D01*
X244074D01*
Y49577D01*
X244132D01*
Y49635D01*
X244249D01*
Y49693D01*
X244307D01*
Y49751D01*
X244424D01*
Y49810D01*
X244482D01*
Y49868D01*
X244540D01*
Y49926D01*
X244657D01*
Y49984D01*
X244773D01*
Y50043D01*
X244831D01*
Y50101D01*
X245006D01*
Y50043D01*
X245064D01*
Y49984D01*
X245123D01*
Y49926D01*
X245181D01*
Y49868D01*
X245239D01*
Y49810D01*
X245298D01*
Y49751D01*
X245356D01*
Y49693D01*
X245414D01*
Y49635D01*
X245473D01*
Y49577D01*
X245531D01*
Y49518D01*
X245589D01*
Y49460D01*
X245647D01*
Y49402D01*
X245706D01*
Y49343D01*
X245764D01*
Y49285D01*
X245822D01*
Y49227D01*
X245880D01*
Y49169D01*
X245939D01*
Y49110D01*
X245997D01*
Y49052D01*
X246055D01*
Y48994D01*
X246113D01*
Y48935D01*
X246172D01*
Y48877D01*
X246230D01*
Y48819D01*
X246288D01*
Y48761D01*
X246347D01*
Y48702D01*
X246405D01*
Y48644D01*
X246463D01*
Y48586D01*
X246521D01*
Y48528D01*
X246580D01*
Y48469D01*
Y48411D01*
Y48353D01*
X246521D01*
Y48294D01*
X246463D01*
Y48236D01*
Y48178D01*
X246405D01*
Y48120D01*
Y48061D01*
X246347D01*
Y48003D01*
X246288D01*
Y47945D01*
X246230D01*
Y47886D01*
Y47828D01*
X246172D01*
Y47770D01*
Y47712D01*
X246113D01*
Y47653D01*
X246055D01*
Y47595D01*
X245997D01*
Y47537D01*
X245939D01*
Y47479D01*
X245880D01*
Y47420D01*
X245939D01*
Y47362D01*
X245880D01*
Y47304D01*
X245822D01*
Y47245D01*
X245764D01*
Y47187D01*
X245706D01*
Y47129D01*
Y47071D01*
Y47012D01*
X245647D01*
Y46954D01*
X245589D01*
Y46896D01*
X245531D01*
Y46837D01*
X245473D01*
Y46779D01*
X245414D01*
Y46721D01*
X245473D01*
Y46663D01*
X245356D01*
Y46604D01*
Y46546D01*
X245298D01*
Y46488D01*
X245356D01*
Y46429D01*
X245298D01*
Y46371D01*
X245356D01*
Y46313D01*
X245414D01*
Y46255D01*
Y46196D01*
Y46138D01*
X245473D01*
Y46080D01*
Y46022D01*
X245531D01*
Y45963D01*
Y45905D01*
X245589D01*
Y45847D01*
Y45788D01*
Y45730D01*
X245647D01*
Y45672D01*
Y45614D01*
Y45555D01*
X245706D01*
Y45497D01*
X245764D01*
Y45439D01*
Y45380D01*
Y45322D01*
X245822D01*
Y45264D01*
Y45206D01*
X245880D01*
Y45147D01*
Y45089D01*
X245939D01*
Y45031D01*
Y44973D01*
Y44914D01*
X245997D01*
Y44856D01*
X246055D01*
Y44798D01*
X246230D01*
Y44739D01*
X246638D01*
Y44681D01*
X246813D01*
Y44623D01*
X246871D01*
Y44681D01*
X246929D01*
Y44623D01*
X247221D01*
Y44565D01*
X247279D01*
Y44623D01*
X247337D01*
Y44565D01*
X247396D01*
Y44506D01*
X247454D01*
Y44565D01*
X247512D01*
Y44506D01*
X247804D01*
Y44448D01*
X247862D01*
Y44506D01*
X247920D01*
Y44448D01*
X248095D01*
Y44390D01*
X248153D01*
Y44448D01*
X248212D01*
Y44390D01*
X248270D01*
Y44331D01*
X248328D01*
Y44273D01*
Y44215D01*
Y44157D01*
Y44098D01*
Y44040D01*
Y43982D01*
Y43924D01*
Y43865D01*
Y43807D01*
Y43749D01*
Y43690D01*
Y43632D01*
Y43574D01*
Y43516D01*
Y43457D01*
Y43399D01*
Y43341D01*
Y43282D01*
Y43224D01*
Y43166D01*
Y43108D01*
Y43049D01*
Y42991D01*
Y42933D01*
Y42875D01*
Y42816D01*
Y42758D01*
Y42700D01*
Y42641D01*
Y42583D01*
Y42525D01*
Y42467D01*
Y42408D01*
Y42350D01*
Y42292D01*
Y42233D01*
Y42175D01*
Y42117D01*
Y42059D01*
X248270D01*
Y42000D01*
X248095D01*
Y41942D01*
X247920D01*
Y41884D01*
X247862D01*
Y41942D01*
X247804D01*
Y41884D01*
X247512D01*
Y41826D01*
X247454D01*
Y41884D01*
X247396D01*
Y41826D01*
X247337D01*
Y41767D01*
X247279D01*
Y41826D01*
X247221D01*
Y41767D01*
X246929D01*
Y41709D01*
X246871D01*
Y41767D01*
X246813D01*
Y41709D01*
X246638D01*
Y41651D01*
X246580D01*
Y41709D01*
X246521D01*
Y41651D01*
X246230D01*
Y41592D01*
X246172D01*
Y41651D01*
X246113D01*
Y41592D01*
X246055D01*
Y41534D01*
X245997D01*
Y41476D01*
X246055D01*
Y41418D01*
X245997D01*
Y41359D01*
X245939D01*
Y41301D01*
Y41243D01*
Y41184D01*
X245880D01*
Y41126D01*
Y41068D01*
X245822D01*
Y41010D01*
Y40951D01*
X245764D01*
Y40893D01*
X245822D01*
Y40835D01*
X245764D01*
Y40777D01*
X245706D01*
Y40718D01*
X245647D01*
Y40660D01*
X245706D01*
Y40602D01*
X245647D01*
Y40543D01*
Y40485D01*
Y40427D01*
X245589D01*
Y40369D01*
X245531D01*
Y40310D01*
X245589D01*
Y40252D01*
X245531D01*
Y40194D01*
X245473D01*
Y40135D01*
Y40077D01*
Y40019D01*
X245414D01*
Y39961D01*
Y39902D01*
X245356D01*
Y39844D01*
Y39786D01*
X245414D01*
Y39728D01*
X245473D01*
Y39669D01*
Y39611D01*
Y39553D01*
X245531D01*
Y39494D01*
X245589D01*
Y39436D01*
X245647D01*
Y39378D01*
X245706D01*
Y39320D01*
X245647D01*
Y39261D01*
X245764D01*
Y39203D01*
Y39145D01*
X245822D01*
Y39086D01*
X245880D01*
Y39028D01*
X245939D01*
Y38970D01*
Y38912D01*
X245997D01*
Y38853D01*
Y38795D01*
X246055D01*
Y38737D01*
X246113D01*
Y38679D01*
X246172D01*
Y38620D01*
Y38562D01*
X246230D01*
Y38504D01*
Y38445D01*
X246288D01*
Y38387D01*
X246347D01*
Y38329D01*
X246405D01*
Y38271D01*
Y38212D01*
X246463D01*
Y38154D01*
Y38096D01*
X246521D01*
Y38037D01*
X246580D01*
Y37979D01*
Y37921D01*
Y37863D01*
X246521D01*
Y37804D01*
X246463D01*
Y37746D01*
X246405D01*
Y37688D01*
X246347D01*
Y37630D01*
X246288D01*
Y37571D01*
X246230D01*
Y37513D01*
X246172D01*
Y37455D01*
X246113D01*
Y37396D01*
X246055D01*
Y37338D01*
X245997D01*
Y37280D01*
X245939D01*
Y37222D01*
X245880D01*
Y37163D01*
X245822D01*
Y37105D01*
X245764D01*
Y37047D01*
X245706D01*
Y36988D01*
X245647D01*
Y36930D01*
X245589D01*
Y36872D01*
X245531D01*
Y36814D01*
X245473D01*
Y36755D01*
X245414D01*
Y36697D01*
X245356D01*
Y36639D01*
X245298D01*
Y36581D01*
X245239D01*
Y36522D01*
X245181D01*
Y36464D01*
X245123D01*
Y36406D01*
X245064D01*
Y36347D01*
X245006D01*
Y36289D01*
X244831D01*
Y36347D01*
X244773D01*
Y36406D01*
X244657D01*
Y36464D01*
X244598D01*
Y36522D01*
X244482D01*
Y36581D01*
X244424D01*
Y36639D01*
X244365D01*
Y36697D01*
X244307D01*
Y36755D01*
X244132D01*
Y36814D01*
X244074D01*
Y36872D01*
X244016D01*
Y36930D01*
X243957D01*
Y36988D01*
X243782D01*
Y37047D01*
X243724D01*
Y37105D01*
X243666D01*
Y37163D01*
X243608D01*
Y37222D01*
X243433D01*
Y37280D01*
X243374D01*
Y37338D01*
X243316D01*
Y37396D01*
X243258D01*
Y37455D01*
X243083D01*
Y37513D01*
X243025D01*
Y37455D01*
X242967D01*
Y37396D01*
X242908D01*
Y37338D01*
X242850D01*
Y37396D01*
X242792D01*
Y37338D01*
X242733D01*
Y37280D01*
X242675D01*
Y37222D01*
X242500D01*
Y37163D01*
X242442D01*
Y37105D01*
X242267D01*
Y37047D01*
X242209D01*
Y37105D01*
X242151D01*
Y37163D01*
X242092D01*
Y37222D01*
Y37280D01*
Y37338D01*
X242034D01*
Y37396D01*
Y37455D01*
Y37513D01*
X241976D01*
Y37571D01*
X241917D01*
Y37630D01*
X241976D01*
Y37688D01*
X241917D01*
Y37746D01*
X241859D01*
Y37804D01*
Y37863D01*
Y37921D01*
X241801D01*
Y37979D01*
X241743D01*
Y38037D01*
Y38096D01*
Y38154D01*
X241684D01*
Y38212D01*
Y38271D01*
Y38329D01*
X241626D01*
Y38387D01*
X241568D01*
Y38445D01*
X241626D01*
Y38504D01*
X241568D01*
Y38562D01*
Y38620D01*
X241510D01*
Y38679D01*
Y38737D01*
X241451D01*
Y38795D01*
Y38853D01*
Y38912D01*
X241393D01*
Y38970D01*
X241335D01*
Y39028D01*
X241393D01*
Y39086D01*
X241335D01*
Y39145D01*
X241276D01*
Y39203D01*
X241218D01*
Y39261D01*
X241276D01*
Y39320D01*
X241218D01*
Y39378D01*
Y39436D01*
Y39494D01*
X241160D01*
Y39553D01*
X241102D01*
Y39611D01*
X241160D01*
Y39669D01*
X241102D01*
Y39728D01*
X241043D01*
Y39786D01*
Y39844D01*
Y39902D01*
X240985D01*
Y39961D01*
X240927D01*
Y40019D01*
Y40077D01*
Y40135D01*
X240868D01*
Y40194D01*
Y40252D01*
Y40310D01*
X240810D01*
Y40369D01*
X240752D01*
Y40427D01*
X240810D01*
Y40485D01*
X240752D01*
Y40543D01*
X240694D01*
Y40602D01*
Y40660D01*
Y40718D01*
X240635D01*
Y40777D01*
Y40835D01*
Y40893D01*
Y40951D01*
Y41010D01*
X240810D01*
Y41068D01*
X240868D01*
Y41126D01*
X240927D01*
Y41184D01*
X241043D01*
Y41243D01*
X241160D01*
Y41301D01*
X241218D01*
Y41359D01*
X241276D01*
Y41418D01*
X241335D01*
Y41476D01*
X241393D01*
Y41534D01*
X241451D01*
Y41592D01*
X241510D01*
Y41651D01*
X241568D01*
Y41709D01*
X241626D01*
Y41767D01*
Y41826D01*
X241684D01*
Y41884D01*
Y41942D01*
X241743D01*
Y42000D01*
X241801D01*
Y42059D01*
X241859D01*
Y42117D01*
X241801D01*
Y42175D01*
X241859D01*
Y42233D01*
X241917D01*
Y42292D01*
X241976D01*
Y42350D01*
X241917D01*
Y42408D01*
X241976D01*
Y42467D01*
Y42525D01*
Y42583D01*
X242034D01*
Y42641D01*
Y42700D01*
Y42758D01*
X242092D01*
Y42816D01*
X242034D01*
Y42875D01*
X242092D01*
Y42933D01*
X242034D01*
Y42991D01*
X242092D01*
Y43049D01*
X242034D01*
Y43108D01*
X242092D01*
Y43166D01*
X242034D01*
Y43224D01*
X242092D01*
Y43282D01*
X242034D01*
Y43341D01*
X242092D01*
Y43399D01*
X242034D01*
Y43457D01*
X242092D01*
Y43516D01*
X242034D01*
Y43574D01*
X242092D01*
Y43632D01*
X242034D01*
Y43690D01*
Y43749D01*
Y43807D01*
X241976D01*
Y43865D01*
X241917D01*
Y43924D01*
X241976D01*
Y43982D01*
X241917D01*
Y44040D01*
Y44098D01*
Y44157D01*
X241859D01*
Y44215D01*
X241801D01*
Y44273D01*
X241859D01*
Y44331D01*
X241801D01*
Y44390D01*
X241743D01*
Y44448D01*
X241684D01*
Y44506D01*
Y44565D01*
X241626D01*
Y44623D01*
Y44681D01*
X241568D01*
Y44739D01*
X241510D01*
Y44798D01*
X241451D01*
Y44856D01*
X241393D01*
Y44914D01*
X241335D01*
Y44973D01*
X241276D01*
Y45031D01*
X241218D01*
Y45089D01*
X241160D01*
Y45147D01*
X240985D01*
Y45206D01*
X240927D01*
Y45264D01*
X240752D01*
Y45322D01*
X240810D01*
Y45380D01*
X240752D01*
Y45322D01*
X240694D01*
Y45380D01*
X240635D01*
Y45439D01*
X240577D01*
Y45380D01*
X240519D01*
Y45439D01*
X240460D01*
Y45497D01*
X240286D01*
Y45555D01*
X240227D01*
Y45497D01*
X240169D01*
Y45555D01*
X239994D01*
Y45614D01*
X239936D01*
Y45555D01*
X239878D01*
Y45614D01*
X239820D01*
Y45555D01*
X239761D01*
Y45614D01*
X239703D01*
Y45555D01*
X239645D01*
Y45614D01*
X239586D01*
Y45555D01*
X239528D01*
Y45614D01*
X239470D01*
Y45555D01*
X239411D01*
Y45614D01*
X239353D01*
Y45555D01*
X239178D01*
Y45497D01*
X239004D01*
Y45439D01*
X238945D01*
Y45497D01*
X238887D01*
Y45439D01*
X238829D01*
Y45380D01*
X238654D01*
Y45322D01*
X238537D01*
Y45264D01*
X238421D01*
Y45206D01*
X238363D01*
Y45147D01*
X238188D01*
Y45089D01*
X238246D01*
Y45031D01*
X238071D01*
Y44973D01*
X238013D01*
Y44914D01*
X237955D01*
Y44856D01*
X237896D01*
Y44798D01*
X237838D01*
Y44739D01*
Y44681D01*
X237721D01*
Y44623D01*
X237780D01*
Y44565D01*
X237721D01*
Y44506D01*
X237663D01*
Y44448D01*
X237605D01*
Y44390D01*
Y44331D01*
X237547D01*
Y44273D01*
Y44215D01*
X237488D01*
Y44157D01*
Y44098D01*
X237430D01*
Y44040D01*
Y43982D01*
X237372D01*
Y43924D01*
X237430D01*
Y43865D01*
X237372D01*
Y43807D01*
X237314D01*
Y43749D01*
Y43690D01*
Y43632D01*
Y43574D01*
Y43516D01*
X237255D01*
Y43457D01*
X237314D01*
Y43399D01*
X237255D01*
Y43341D01*
X237314D01*
Y43282D01*
X237255D01*
Y43224D01*
X237314D01*
Y43166D01*
X237255D01*
Y43108D01*
X237314D01*
Y43049D01*
X237255D01*
Y42991D01*
X237314D01*
Y42933D01*
X237255D01*
Y42875D01*
X237314D01*
Y42816D01*
Y42758D01*
Y42700D01*
X237372D01*
Y42641D01*
X237314D01*
Y42583D01*
X237372D01*
Y42525D01*
Y42467D01*
Y42408D01*
X237430D01*
Y42350D01*
Y42292D01*
Y42233D01*
X237488D01*
Y42175D01*
X237547D01*
Y42117D01*
X237488D01*
Y42059D01*
X237547D01*
Y42000D01*
X237605D01*
Y41942D01*
X237663D01*
Y41884D01*
Y41826D01*
X237780D01*
Y41767D01*
Y41709D01*
Y41651D01*
X237838D01*
Y41592D01*
X237896D01*
Y41534D01*
X237955D01*
Y41476D01*
X238013D01*
Y41418D01*
X238071D01*
Y41359D01*
X238129D01*
Y41301D01*
X238188D01*
Y41243D01*
X238363D01*
Y41184D01*
X238421D01*
Y41126D01*
X238479D01*
Y41068D01*
X238537D01*
Y41010D01*
X238712D01*
Y40951D01*
Y40893D01*
Y40835D01*
X238771D01*
Y40777D01*
X238712D01*
Y40718D01*
X238654D01*
Y40660D01*
X238712D01*
Y40602D01*
X238654D01*
Y40543D01*
X238596D01*
Y40485D01*
Y40427D01*
Y40369D01*
X238537D01*
Y40310D01*
X238479D01*
Y40252D01*
Y40194D01*
Y40135D01*
X238421D01*
Y40077D01*
Y40019D01*
Y39961D01*
X238363D01*
Y39902D01*
X238304D01*
Y39844D01*
X238363D01*
Y39786D01*
X238304D01*
Y39728D01*
Y39669D01*
X238246D01*
Y39611D01*
Y39553D01*
X238188D01*
Y39494D01*
Y39436D01*
Y39378D01*
X238129D01*
Y39320D01*
X238071D01*
Y39261D01*
X238129D01*
Y39203D01*
X238071D01*
Y39145D01*
X238013D01*
Y39086D01*
X237955D01*
Y39028D01*
X238013D01*
Y38970D01*
X237955D01*
Y38912D01*
Y38853D01*
Y38795D01*
X237896D01*
Y38737D01*
X237838D01*
Y38679D01*
X237896D01*
Y38620D01*
X237838D01*
Y38562D01*
X237780D01*
Y38504D01*
Y38445D01*
Y38387D01*
X237721D01*
Y38329D01*
X237663D01*
Y38271D01*
Y38212D01*
Y38154D01*
X237605D01*
Y38096D01*
Y38037D01*
Y37979D01*
X237547D01*
Y37921D01*
X237488D01*
Y37863D01*
X237547D01*
Y37804D01*
X237488D01*
Y37746D01*
X237430D01*
Y37688D01*
Y37630D01*
Y37571D01*
X237372D01*
Y37513D01*
Y37455D01*
X237314D01*
Y37396D01*
Y37338D01*
X237255D01*
Y37280D01*
Y37222D01*
Y37163D01*
X237197D01*
Y37105D01*
X237139D01*
Y37047D01*
X237080D01*
Y37105D01*
X236906D01*
Y37163D01*
X236847D01*
Y37222D01*
X236672D01*
Y37280D01*
X236614D01*
Y37338D01*
X236556D01*
Y37396D01*
X236381D01*
Y37455D01*
X236323D01*
Y37513D01*
X236264D01*
Y37455D01*
X236090D01*
Y37396D01*
X236031D01*
Y37338D01*
X235973D01*
Y37280D01*
X235915D01*
Y37222D01*
X235740D01*
Y37163D01*
X235682D01*
Y37105D01*
X235624D01*
Y37047D01*
X235565D01*
Y36988D01*
X235390D01*
Y36930D01*
X235332D01*
Y36872D01*
X235274D01*
Y36814D01*
X235215D01*
Y36755D01*
X235099D01*
Y36697D01*
X235041D01*
Y36639D01*
X234924D01*
Y36581D01*
X234866D01*
Y36522D01*
X234749D01*
Y36464D01*
Y36406D01*
X234574D01*
Y36347D01*
X234516D01*
Y36289D01*
X234341D01*
Y36347D01*
X234283D01*
Y36406D01*
X234225D01*
Y36464D01*
X234167D01*
Y36522D01*
X234108D01*
Y36581D01*
X234050D01*
Y36639D01*
X233992D01*
Y36697D01*
X233933D01*
Y36755D01*
X233875D01*
Y36814D01*
X233817D01*
Y36872D01*
X233758D01*
Y36930D01*
X233700D01*
Y36988D01*
X233642D01*
Y37047D01*
X233584D01*
Y37105D01*
X233525D01*
Y37163D01*
X233467D01*
Y37222D01*
X233409D01*
Y37280D01*
X233351D01*
Y37338D01*
X233292D01*
Y37396D01*
X233234D01*
Y37455D01*
X233176D01*
Y37513D01*
X233118D01*
Y37571D01*
X233059D01*
Y37630D01*
X233001D01*
Y37688D01*
X232943D01*
Y37746D01*
X232884D01*
Y37804D01*
X232826D01*
Y37863D01*
X232768D01*
Y37921D01*
Y37979D01*
Y38037D01*
X232826D01*
Y38096D01*
X232884D01*
Y38154D01*
Y38212D01*
X232943D01*
Y38271D01*
Y38329D01*
X233001D01*
Y38387D01*
X233059D01*
Y38445D01*
X233118D01*
Y38504D01*
Y38562D01*
X233176D01*
Y38620D01*
Y38679D01*
X233234D01*
Y38737D01*
X233292D01*
Y38795D01*
X233351D01*
Y38853D01*
X233409D01*
Y38912D01*
X233467D01*
Y38970D01*
Y39028D01*
Y39086D01*
X233525D01*
Y39145D01*
X233584D01*
Y39203D01*
X233642D01*
Y39261D01*
X233700D01*
Y39320D01*
Y39378D01*
X233758D01*
Y39436D01*
Y39494D01*
X233817D01*
Y39553D01*
X233875D01*
Y39611D01*
X233933D01*
Y39669D01*
Y39728D01*
X233992D01*
Y39786D01*
Y39844D01*
Y39902D01*
Y39961D01*
X233933D01*
Y40019D01*
X233875D01*
Y40077D01*
X233933D01*
Y40135D01*
X233875D01*
Y40194D01*
X233817D01*
Y40252D01*
Y40310D01*
Y40369D01*
X233758D01*
Y40427D01*
Y40485D01*
Y40543D01*
X233700D01*
Y40602D01*
X233642D01*
Y40660D01*
X233700D01*
Y40718D01*
X233642D01*
Y40777D01*
X233584D01*
Y40835D01*
Y40893D01*
Y40951D01*
X233525D01*
Y41010D01*
Y41068D01*
Y41126D01*
X233467D01*
Y41184D01*
X233409D01*
Y41243D01*
X233467D01*
Y41301D01*
X233409D01*
Y41359D01*
X233351D01*
Y41418D01*
Y41476D01*
Y41534D01*
X233292D01*
Y41592D01*
X233234D01*
Y41651D01*
X233176D01*
Y41592D01*
X233118D01*
Y41651D01*
X232826D01*
Y41709D01*
X232768D01*
Y41651D01*
X232710D01*
Y41709D01*
X232535D01*
Y41767D01*
X232476D01*
Y41709D01*
X232418D01*
Y41767D01*
X232127D01*
Y41826D01*
X231952D01*
Y41884D01*
X231894D01*
Y41826D01*
X231835D01*
Y41884D01*
X231544D01*
Y41942D01*
X231369D01*
Y42000D01*
X231311D01*
Y41942D01*
X231253D01*
Y42000D01*
X231078D01*
Y42059D01*
Y42117D01*
Y42175D01*
X231019D01*
Y42233D01*
X231078D01*
Y42292D01*
X231019D01*
Y42350D01*
X231078D01*
Y42408D01*
X231019D01*
Y42467D01*
X231078D01*
Y42525D01*
X231019D01*
Y42583D01*
X231078D01*
Y42641D01*
X231019D01*
Y42700D01*
X231078D01*
Y42758D01*
X231019D01*
Y42816D01*
X231078D01*
Y42875D01*
X231019D01*
Y42933D01*
X231078D01*
Y42991D01*
X231019D01*
Y43049D01*
X231078D01*
Y43108D01*
X231019D01*
Y43166D01*
X231078D01*
Y43224D01*
X231019D01*
Y43282D01*
X231078D01*
Y43341D01*
X231019D01*
Y43399D01*
X231078D01*
Y43457D01*
X231019D01*
Y43516D01*
X231078D01*
Y43574D01*
X231019D01*
Y43632D01*
X231078D01*
Y43690D01*
X231019D01*
Y43749D01*
X231078D01*
Y43807D01*
X231019D01*
Y43865D01*
X231078D01*
Y43924D01*
X231019D01*
Y43982D01*
X231078D01*
Y44040D01*
X231019D01*
Y44098D01*
X231078D01*
Y44157D01*
X231019D01*
Y44215D01*
X231078D01*
Y44273D01*
X231019D01*
Y44331D01*
X231078D01*
Y44390D01*
X231136D01*
Y44448D01*
X231194D01*
Y44390D01*
X231253D01*
Y44448D01*
X231427D01*
Y44506D01*
X231486D01*
Y44448D01*
X231544D01*
Y44506D01*
X231835D01*
Y44565D01*
X231894D01*
Y44506D01*
X231952D01*
Y44565D01*
X232010D01*
Y44623D01*
X232068D01*
Y44565D01*
X232127D01*
Y44623D01*
X232418D01*
Y44681D01*
X232476D01*
Y44623D01*
X232535D01*
Y44681D01*
X232710D01*
Y44739D01*
X232768D01*
Y44681D01*
X232826D01*
Y44739D01*
X233118D01*
Y44798D01*
X233176D01*
Y44739D01*
X233234D01*
Y44798D01*
X233292D01*
Y44856D01*
X233351D01*
Y44914D01*
X233409D01*
Y44973D01*
X233467D01*
Y45031D01*
X233409D01*
Y45089D01*
X233467D01*
Y45147D01*
X233525D01*
Y45206D01*
Y45264D01*
Y45322D01*
X233584D01*
Y45380D01*
X233642D01*
Y45439D01*
Y45497D01*
Y45555D01*
X233700D01*
Y45614D01*
Y45672D01*
Y45730D01*
X233758D01*
Y45788D01*
X233817D01*
Y45847D01*
X233758D01*
Y45905D01*
X233817D01*
Y45963D01*
X233875D01*
Y46022D01*
Y46080D01*
Y46138D01*
X233933D01*
Y46196D01*
Y46255D01*
X233992D01*
Y46313D01*
Y46371D01*
X234050D01*
Y46429D01*
X233992D01*
Y46488D01*
X234050D01*
Y46546D01*
X233992D01*
Y46604D01*
Y46663D01*
X233933D01*
Y46721D01*
Y46779D01*
X233875D01*
Y46837D01*
X233817D01*
Y46896D01*
X233758D01*
Y46954D01*
Y47012D01*
X233700D01*
Y47071D01*
Y47129D01*
X233642D01*
Y47187D01*
X233584D01*
Y47245D01*
X233525D01*
Y47304D01*
Y47362D01*
X233467D01*
Y47420D01*
Y47479D01*
X233409D01*
Y47537D01*
X233351D01*
Y47595D01*
X233292D01*
Y47653D01*
X233234D01*
Y47712D01*
X233176D01*
Y47770D01*
X233234D01*
Y47828D01*
X233176D01*
Y47886D01*
X233118D01*
Y47945D01*
X233059D01*
Y48003D01*
X233001D01*
Y48061D01*
X232943D01*
Y48120D01*
Y48178D01*
Y48236D01*
X232884D01*
Y48294D01*
X232826D01*
Y48353D01*
X232768D01*
Y48411D01*
Y48469D01*
Y48528D01*
X232826D01*
Y48586D01*
X232884D01*
Y48644D01*
X232943D01*
Y48702D01*
X233001D01*
Y48761D01*
X233059D01*
Y48819D01*
X233118D01*
Y48877D01*
X233176D01*
Y48935D01*
X233234D01*
Y48994D01*
X233292D01*
Y49052D01*
X233351D01*
Y49110D01*
X233409D01*
Y49169D01*
X233467D01*
Y49227D01*
X233525D01*
Y49285D01*
X233584D01*
Y49343D01*
X233642D01*
Y49402D01*
X233700D01*
Y49460D01*
X233758D01*
Y49518D01*
X233817D01*
Y49577D01*
X233875D01*
Y49635D01*
X233933D01*
Y49693D01*
X233992D01*
Y49751D01*
X234050D01*
Y49810D01*
X234108D01*
Y49868D01*
X234167D01*
Y49926D01*
X234225D01*
Y49984D01*
X234283D01*
Y50043D01*
X234341D01*
Y50101D01*
X234516D01*
Y50043D01*
X234574D01*
Y49984D01*
X234749D01*
Y49926D01*
X234807D01*
Y49868D01*
X234866D01*
Y49810D01*
X234924D01*
Y49751D01*
X235041D01*
Y49693D01*
X235099D01*
Y49635D01*
X235215D01*
Y49577D01*
X235274D01*
Y49518D01*
X235449D01*
Y49460D01*
X235507D01*
Y49402D01*
X235565D01*
Y49343D01*
X235624D01*
Y49285D01*
X235740D01*
Y49227D01*
Y49169D01*
X235915D01*
Y49110D01*
X235973D01*
Y49052D01*
X236031D01*
Y48994D01*
X236090D01*
Y48935D01*
X236264D01*
Y48877D01*
X236323D01*
Y48819D01*
X236614D01*
Y48877D01*
X236672D01*
Y48935D01*
X236847D01*
Y48994D01*
X237022D01*
Y49052D01*
X237197D01*
Y49110D01*
X237255D01*
Y49169D01*
X237430D01*
Y49227D01*
X237488D01*
Y49285D01*
X237663D01*
Y49343D01*
X237721D01*
Y49285D01*
X237780D01*
Y49343D01*
X237838D01*
Y49402D01*
X238013D01*
Y49460D01*
Y49518D01*
X238071D01*
Y49577D01*
Y49635D01*
X238129D01*
Y49693D01*
X238071D01*
Y49751D01*
X238129D01*
Y49810D01*
X238071D01*
Y49868D01*
X238129D01*
Y49926D01*
Y49984D01*
Y50043D01*
X238188D01*
Y50101D01*
Y50159D01*
Y50218D01*
X238246D01*
Y50276D01*
X238188D01*
Y50334D01*
X238246D01*
Y50392D01*
X238188D01*
Y50451D01*
X238246D01*
Y50509D01*
Y50567D01*
Y50625D01*
Y50684D01*
X238304D01*
Y50742D01*
Y50800D01*
Y50859D01*
Y50917D01*
X238363D01*
Y50975D01*
X238304D01*
Y51034D01*
X238363D01*
Y51092D01*
Y51150D01*
Y51208D01*
Y51267D01*
Y51325D01*
X238421D01*
Y51383D01*
Y51441D01*
Y51500D01*
X238479D01*
Y51558D01*
X238421D01*
Y51616D01*
X238479D01*
Y51674D01*
X238421D01*
Y51733D01*
X238479D01*
Y51791D01*
X238537D01*
Y51849D01*
X240810D01*
Y51791D01*
D02*
G37*
G36*
X139764Y9843D02*
X129921D01*
Y38189D01*
X128347Y39764D01*
Y60630D01*
X139764D01*
Y9843D01*
D02*
G37*
G36*
X195866Y97441D02*
X210236D01*
Y95547D01*
X209883Y95193D01*
X209122D01*
Y88169D01*
Y81146D01*
X210236D01*
Y74369D01*
X209883Y74016D01*
X204346D01*
Y75287D01*
X196441D01*
Y74369D01*
X196087Y74016D01*
X193898D01*
X193898Y24606D01*
X200787Y17717D01*
X200787Y8858D01*
X189787D01*
Y8858D01*
X180315D01*
X180315Y17520D01*
X180315Y17520D01*
X180315Y53362D01*
X180315D01*
X180315Y88386D01*
X171850Y96850D01*
X151969D01*
X147047Y101772D01*
X113189Y101772D01*
Y102953D01*
X117717D01*
Y103740D01*
X113189D01*
Y104921D01*
X154724D01*
Y106740D01*
X154724D01*
Y107274D01*
Y109252D01*
X154724D01*
Y109449D01*
X195866D01*
Y97441D01*
D02*
G37*
G36*
X135335Y92028D02*
Y87992D01*
X137795Y85532D01*
X147638Y85532D01*
X158071Y75098D01*
Y68405D01*
X161516Y64961D01*
X168996D01*
Y59252D01*
X148031D01*
Y75295D01*
X143209Y80118D01*
X135728Y80118D01*
X131004Y84843D01*
X131004Y89272D01*
X124213Y96063D01*
X122146Y96063D01*
X120374Y97835D01*
X113189D01*
Y99016D01*
X128346Y99016D01*
X135335Y92028D01*
D02*
G37*
G36*
X125197Y140868D02*
X125000D01*
X124578Y140784D01*
X124230Y140551D01*
X111417D01*
X110236Y133071D01*
Y97638D01*
Y97244D01*
X111221Y90551D01*
X112205Y89567D01*
X115157D01*
X115841Y88883D01*
X115924Y88759D01*
X116142Y88541D01*
Y56102D01*
X117323Y50394D01*
Y13780D01*
X105435D01*
Y61201D01*
X107080Y62846D01*
X107319Y63204D01*
X107403Y63626D01*
Y64644D01*
X108268D01*
Y64173D01*
X112992D01*
Y67716D01*
X108268D01*
Y66852D01*
X107403D01*
Y69561D01*
X107858Y69669D01*
X107903Y69669D01*
X110130D01*
Y71350D01*
X107858D01*
Y70747D01*
X107358Y70698D01*
X107319Y70895D01*
X107080Y71253D01*
X106292Y72040D01*
X105934Y72280D01*
X105921Y72282D01*
Y73417D01*
X104331D01*
Y73917D01*
X103831D01*
Y75803D01*
X102740D01*
Y75394D01*
X99213D01*
Y72441D01*
X99281D01*
X99404Y71941D01*
X98180Y70717D01*
X97984Y70424D01*
X97916Y70079D01*
Y63386D01*
X97984Y63040D01*
X98180Y62747D01*
X99687Y61240D01*
Y17106D01*
X96360Y13780D01*
X87402D01*
Y50394D01*
X88583Y56102D01*
Y88542D01*
X88800Y88759D01*
X88883Y88883D01*
X89567Y89567D01*
X92520Y89567D01*
X93504Y90551D01*
X94488Y97244D01*
Y97638D01*
Y133071D01*
X93307Y140551D01*
X85039D01*
X81496Y179921D01*
Y185039D01*
X125197D01*
Y140868D01*
D02*
G37*
G36*
X123622Y95079D02*
X129724Y88976D01*
X129724Y80118D01*
X133169Y76673D01*
X140354D01*
Y71063D01*
X119390D01*
Y76772D01*
X123228D01*
X124409Y77953D01*
X124409Y89961D01*
X120472Y93898D01*
X113189D01*
Y95079D01*
X123622Y95079D01*
D02*
G37*
G36*
X91535Y93898D02*
X84252D01*
X80315Y89961D01*
X80315Y77953D01*
X81496Y76772D01*
X85335D01*
Y71063D01*
X64370D01*
Y76673D01*
X71555D01*
X75000Y80118D01*
X75000Y88976D01*
X81102Y95079D01*
X91535Y95079D01*
Y93898D01*
D02*
G37*
G36*
X210630Y147638D02*
X222441D01*
X232283Y137795D01*
X246063D01*
Y98425D01*
X198819D01*
Y112205D01*
X185039D01*
Y153543D01*
X210630D01*
Y147638D01*
D02*
G37*
G36*
X213386Y55905D02*
X220473Y48819D01*
X220472Y8661D01*
X207283D01*
X207283Y36417D01*
X200000Y43701D01*
X200000Y55905D01*
X213386Y55905D01*
D02*
G37*
G36*
X81201Y129921D02*
X82579Y128543D01*
X91535D01*
Y127362D01*
X85827D01*
Y126575D01*
X91535D01*
Y125394D01*
X82874D01*
X79921Y128347D01*
X76772D01*
Y129921D01*
X81201Y129921D01*
D02*
G37*
G36*
X55512Y110433D02*
X59055Y106890D01*
X91535D01*
Y105709D01*
X86024D01*
Y104921D01*
X91535D01*
Y103740D01*
X86024D01*
Y102953D01*
X91535D01*
Y101772D01*
X38976Y101772D01*
X38976Y114173D01*
X55512Y114173D01*
Y110433D01*
D02*
G37*
G36*
X161417Y48819D02*
Y9843D01*
X151575Y9843D01*
Y39764D01*
X148425Y42913D01*
Y48819D01*
X161417Y48819D01*
D02*
G37*
G36*
X76378Y39764D02*
X74803Y38189D01*
Y9843D01*
X64961D01*
Y60630D01*
X76378D01*
Y39764D01*
D02*
G37*
G36*
X91535Y99016D02*
Y97835D01*
X84350D01*
X82579Y96063D01*
X80512Y96063D01*
X73721Y89272D01*
X73721Y84843D01*
X68996Y80118D01*
X61516Y80118D01*
X56693Y75295D01*
Y59252D01*
X35728D01*
Y64961D01*
X43209D01*
X46654Y68405D01*
Y75098D01*
X57087Y85532D01*
X66929Y85532D01*
X69390Y87992D01*
Y92028D01*
X76378Y99016D01*
X91535Y99016D01*
D02*
G37*
G36*
X56299Y42913D02*
X53150Y39764D01*
Y9843D01*
X43307Y9843D01*
Y48819D01*
X56299Y48819D01*
Y42913D01*
D02*
G37*
%LPC*%
G36*
X204346Y78165D02*
X200894D01*
Y76287D01*
X204346D01*
Y78165D01*
D02*
G37*
G36*
X199894D02*
X196441D01*
Y76287D01*
X199894D01*
Y78165D01*
D02*
G37*
G36*
X208122Y95193D02*
X205870D01*
Y88669D01*
X208122D01*
Y95193D01*
D02*
G37*
G36*
Y87669D02*
X205870D01*
Y81146D01*
X208122D01*
Y87669D01*
D02*
G37*
G36*
X110130Y74032D02*
X107858D01*
Y72350D01*
X110130D01*
Y74032D01*
D02*
G37*
G36*
X113402Y71350D02*
X111130D01*
Y69669D01*
X113402D01*
Y71350D01*
D02*
G37*
G36*
X105921Y75803D02*
X104831D01*
Y74417D01*
X105921D01*
Y75803D01*
D02*
G37*
G36*
X113402Y74032D02*
X111130D01*
Y72350D01*
X113402D01*
Y74032D01*
D02*
G37*
%LPD*%
G36*
X1121080Y-83717D02*
Y-84003D01*
Y-84290D01*
Y-84576D01*
Y-84862D01*
Y-85149D01*
Y-85435D01*
Y-85721D01*
Y-86007D01*
Y-86294D01*
Y-86580D01*
Y-86866D01*
Y-87153D01*
Y-87439D01*
Y-87725D01*
Y-88012D01*
Y-88298D01*
Y-88584D01*
Y-88871D01*
Y-89157D01*
Y-89443D01*
X1120793D01*
Y-89730D01*
Y-90016D01*
Y-90302D01*
Y-90588D01*
Y-90875D01*
X1120507D01*
Y-91161D01*
Y-91448D01*
Y-91734D01*
Y-92020D01*
X1120221D01*
Y-92306D01*
Y-92593D01*
Y-92879D01*
Y-93165D01*
X1119934D01*
Y-93452D01*
Y-93738D01*
Y-94024D01*
X1119648D01*
Y-94311D01*
Y-94597D01*
Y-94883D01*
X1119362D01*
Y-95170D01*
Y-95456D01*
Y-95742D01*
X1119075D01*
Y-96029D01*
Y-96315D01*
Y-96601D01*
X1118789D01*
Y-96887D01*
Y-97174D01*
X1118503D01*
Y-97460D01*
Y-97746D01*
X1118217D01*
Y-98033D01*
Y-98319D01*
Y-98605D01*
X1117930D01*
Y-98892D01*
Y-99178D01*
X1117644D01*
Y-99464D01*
Y-99751D01*
Y-100037D01*
X1117358D01*
Y-100323D01*
Y-100610D01*
X1117071D01*
Y-100896D01*
Y-101182D01*
Y-101468D01*
X1116785D01*
Y-101755D01*
Y-102041D01*
X1116499D01*
Y-102327D01*
Y-102614D01*
Y-102900D01*
X1116212D01*
Y-103186D01*
Y-103473D01*
X1115926D01*
Y-103759D01*
Y-104045D01*
Y-104332D01*
X1115640D01*
Y-104618D01*
Y-104904D01*
X1115353D01*
Y-105191D01*
Y-105477D01*
Y-105763D01*
X1115067D01*
Y-106049D01*
Y-106336D01*
X1114781D01*
Y-106622D01*
Y-106908D01*
Y-107195D01*
X1114494D01*
Y-107481D01*
Y-107767D01*
X1114208D01*
Y-108054D01*
Y-108340D01*
Y-108626D01*
X1113922D01*
Y-108913D01*
Y-109199D01*
X1113636D01*
Y-109485D01*
Y-109772D01*
Y-110058D01*
X1113349D01*
Y-110344D01*
Y-110630D01*
X1113063D01*
Y-110917D01*
Y-111203D01*
Y-111489D01*
X1112776D01*
Y-111776D01*
Y-112062D01*
X1112490D01*
Y-112348D01*
Y-112635D01*
Y-112921D01*
X1112204D01*
Y-113207D01*
Y-113494D01*
X1111918D01*
Y-113780D01*
Y-114066D01*
Y-114353D01*
X1111631D01*
Y-114639D01*
Y-114925D01*
X1111345D01*
Y-115211D01*
Y-115498D01*
Y-115784D01*
X1111059D01*
Y-116070D01*
Y-116357D01*
X1110772D01*
Y-116643D01*
Y-116929D01*
Y-117216D01*
X1110486D01*
Y-117502D01*
Y-117788D01*
X1110200D01*
Y-118075D01*
Y-118361D01*
Y-118647D01*
X1109913D01*
Y-118933D01*
Y-119220D01*
X1109627D01*
Y-119506D01*
Y-119792D01*
Y-120079D01*
X1109341D01*
Y-120365D01*
Y-120651D01*
X1109054D01*
Y-120938D01*
Y-121224D01*
X1108768D01*
Y-121510D01*
Y-121797D01*
X1108482D01*
Y-122083D01*
Y-122369D01*
Y-122656D01*
X1108195D01*
Y-122942D01*
X1107909D01*
Y-123228D01*
Y-123514D01*
Y-123801D01*
X1107623D01*
Y-124087D01*
X1107337D01*
Y-124373D01*
Y-124660D01*
X1107050D01*
Y-124946D01*
Y-125232D01*
X1106764D01*
Y-125519D01*
Y-125805D01*
X1106478D01*
Y-126091D01*
Y-126378D01*
X1106191D01*
Y-126664D01*
X1105905D01*
Y-126950D01*
Y-127237D01*
X1105619D01*
Y-127523D01*
Y-127809D01*
X1105332D01*
Y-128095D01*
X1105046D01*
Y-128382D01*
X1104760D01*
Y-128668D01*
Y-128954D01*
X1104473D01*
Y-129241D01*
X1104187D01*
Y-129527D01*
Y-129813D01*
X1103901D01*
Y-130100D01*
X1103615D01*
Y-130386D01*
X1103328D01*
Y-130672D01*
Y-130959D01*
X1103042D01*
Y-131245D01*
X1102756D01*
Y-131531D01*
X1102469D01*
Y-131818D01*
X1102183D01*
Y-132104D01*
X1101897D01*
Y-132390D01*
Y-132676D01*
X1101610D01*
Y-132963D01*
X1101324D01*
Y-133249D01*
X1101038D01*
Y-133535D01*
X1100751D01*
Y-133822D01*
X1100465D01*
Y-134108D01*
X1100179D01*
Y-134394D01*
X1099892D01*
Y-134681D01*
X1099320D01*
Y-134967D01*
X1099034D01*
Y-135253D01*
X1098747D01*
Y-135540D01*
X1098461D01*
Y-135826D01*
X1098175D01*
Y-136112D01*
X1097602D01*
Y-136399D01*
X1097316D01*
Y-136685D01*
X1096743D01*
Y-136971D01*
X1096457D01*
Y-137258D01*
X1095884D01*
Y-137544D01*
X1095598D01*
Y-137830D01*
X1095025D01*
Y-138117D01*
X1094452D01*
Y-138403D01*
X1093880D01*
Y-138689D01*
X1093307D01*
Y-138975D01*
X1092735D01*
Y-139262D01*
X1091876D01*
Y-139548D01*
X1091303D01*
Y-139834D01*
X1090444D01*
Y-140121D01*
X1089299D01*
Y-140407D01*
X1088154D01*
Y-140693D01*
X1086436D01*
Y-140980D01*
X1084432D01*
Y-141266D01*
X1084145D01*
Y-140980D01*
Y-140693D01*
Y-140407D01*
Y-140121D01*
Y-139834D01*
Y-139548D01*
Y-139262D01*
Y-138975D01*
Y-138689D01*
Y-138403D01*
Y-138117D01*
Y-137830D01*
Y-137544D01*
Y-137258D01*
Y-136971D01*
Y-136685D01*
Y-136399D01*
Y-136112D01*
Y-135826D01*
Y-135540D01*
Y-135253D01*
Y-134967D01*
Y-134681D01*
Y-134394D01*
Y-134108D01*
Y-133822D01*
Y-133535D01*
Y-133249D01*
Y-132963D01*
Y-132676D01*
Y-132390D01*
Y-132104D01*
Y-131818D01*
X1084718D01*
Y-131531D01*
X1085291D01*
Y-131245D01*
X1085863D01*
Y-130959D01*
X1086436D01*
Y-130672D01*
X1087008D01*
Y-130386D01*
X1087581D01*
Y-130100D01*
X1087867D01*
Y-129813D01*
X1088440D01*
Y-129527D01*
X1088726D01*
Y-129241D01*
X1089299D01*
Y-128954D01*
X1089585D01*
Y-128668D01*
X1089872D01*
Y-128382D01*
X1090444D01*
Y-128095D01*
X1090730D01*
Y-127809D01*
X1091017D01*
Y-127523D01*
X1091303D01*
Y-127237D01*
X1091589D01*
Y-126950D01*
X1091876D01*
Y-126664D01*
X1092162D01*
Y-126378D01*
X1092448D01*
Y-126091D01*
X1092735D01*
Y-125805D01*
X1093021D01*
Y-125519D01*
X1093307D01*
Y-125232D01*
X1093594D01*
Y-124946D01*
Y-124660D01*
X1093880D01*
Y-124373D01*
X1094166D01*
Y-124087D01*
X1094452D01*
Y-123801D01*
Y-123514D01*
X1094739D01*
Y-123228D01*
X1095025D01*
Y-122942D01*
Y-122656D01*
X1095311D01*
Y-122369D01*
Y-122083D01*
X1095598D01*
Y-121797D01*
X1095884D01*
Y-121510D01*
Y-121224D01*
X1096170D01*
Y-120938D01*
Y-120651D01*
X1096457D01*
Y-120365D01*
Y-120079D01*
X1094739D01*
Y-119792D01*
X1092735D01*
Y-119506D01*
X1091589D01*
Y-119220D01*
X1091017D01*
Y-118933D01*
X1090158D01*
Y-118647D01*
X1089585D01*
Y-118361D01*
X1089299D01*
Y-118075D01*
X1088726D01*
Y-117788D01*
X1088440D01*
Y-117502D01*
X1088154D01*
Y-117216D01*
X1087867D01*
Y-116929D01*
X1087581D01*
Y-116643D01*
X1087295D01*
Y-116357D01*
Y-116070D01*
X1087008D01*
Y-115784D01*
X1086722D01*
Y-115498D01*
Y-115211D01*
X1086436D01*
Y-114925D01*
Y-114639D01*
X1086149D01*
Y-114353D01*
Y-114066D01*
X1085863D01*
Y-113780D01*
Y-113494D01*
Y-113207D01*
X1085577D01*
Y-112921D01*
Y-112635D01*
Y-112348D01*
Y-112062D01*
X1085291D01*
Y-111776D01*
Y-111489D01*
Y-111203D01*
Y-110917D01*
Y-110630D01*
Y-110344D01*
Y-110058D01*
X1085004D01*
Y-109772D01*
Y-109485D01*
Y-109199D01*
Y-108913D01*
Y-108626D01*
Y-108340D01*
Y-108054D01*
Y-107767D01*
Y-107481D01*
Y-107195D01*
Y-106908D01*
Y-106622D01*
Y-106336D01*
Y-106049D01*
Y-105763D01*
X1084718D01*
Y-105477D01*
Y-105191D01*
Y-104904D01*
Y-104618D01*
Y-104332D01*
Y-104045D01*
Y-103759D01*
Y-103473D01*
Y-103186D01*
Y-102900D01*
Y-102614D01*
Y-102327D01*
Y-102041D01*
Y-101755D01*
Y-101468D01*
X1084432D01*
Y-101182D01*
Y-100896D01*
Y-100610D01*
Y-100323D01*
Y-100037D01*
Y-99751D01*
Y-99464D01*
Y-99178D01*
Y-98892D01*
Y-98605D01*
Y-98319D01*
Y-98033D01*
Y-97746D01*
Y-97460D01*
Y-97174D01*
Y-96887D01*
X1084145D01*
Y-96601D01*
Y-96315D01*
Y-96029D01*
Y-95742D01*
Y-95456D01*
Y-95170D01*
Y-94883D01*
Y-94597D01*
Y-94311D01*
Y-94024D01*
Y-93738D01*
Y-93452D01*
Y-93165D01*
Y-92879D01*
Y-92593D01*
Y-92306D01*
X1083859D01*
Y-92020D01*
Y-91734D01*
Y-91448D01*
Y-91161D01*
Y-90875D01*
Y-90588D01*
Y-90302D01*
Y-90016D01*
Y-89730D01*
Y-89443D01*
Y-89157D01*
Y-88871D01*
Y-88584D01*
Y-88298D01*
X1083573D01*
Y-88012D01*
Y-87725D01*
Y-87439D01*
Y-87153D01*
Y-86866D01*
Y-86580D01*
Y-86294D01*
Y-86007D01*
Y-85721D01*
Y-85435D01*
Y-85149D01*
Y-84862D01*
Y-84576D01*
Y-84290D01*
Y-84003D01*
Y-83717D01*
X1083286D01*
Y-83431D01*
X1097029D01*
Y-83717D01*
Y-84003D01*
Y-84290D01*
Y-84576D01*
Y-84862D01*
Y-85149D01*
Y-85435D01*
Y-85721D01*
Y-86007D01*
Y-86294D01*
Y-86580D01*
Y-86866D01*
Y-87153D01*
Y-87439D01*
X1097316D01*
Y-87725D01*
Y-88012D01*
Y-88298D01*
Y-88584D01*
Y-88871D01*
Y-89157D01*
Y-89443D01*
Y-89730D01*
Y-90016D01*
Y-90302D01*
Y-90588D01*
Y-90875D01*
Y-91161D01*
Y-91448D01*
Y-91734D01*
Y-92020D01*
Y-92306D01*
Y-92593D01*
Y-92879D01*
Y-93165D01*
Y-93452D01*
Y-93738D01*
Y-94024D01*
Y-94311D01*
Y-94597D01*
Y-94883D01*
Y-95170D01*
Y-95456D01*
Y-95742D01*
Y-96029D01*
Y-96315D01*
Y-96601D01*
Y-96887D01*
Y-97174D01*
Y-97460D01*
Y-97746D01*
Y-98033D01*
Y-98319D01*
Y-98605D01*
Y-98892D01*
Y-99178D01*
X1097602D01*
Y-99464D01*
X1097316D01*
Y-99751D01*
Y-100037D01*
X1097602D01*
Y-100323D01*
Y-100610D01*
Y-100896D01*
Y-101182D01*
Y-101468D01*
Y-101755D01*
Y-102041D01*
Y-102327D01*
Y-102614D01*
Y-102900D01*
Y-103186D01*
Y-103473D01*
Y-103759D01*
Y-104045D01*
Y-104332D01*
Y-104618D01*
Y-104904D01*
Y-105191D01*
Y-105477D01*
Y-105763D01*
Y-106049D01*
Y-106336D01*
Y-106622D01*
Y-106908D01*
Y-107195D01*
Y-107481D01*
X1097888D01*
Y-107767D01*
Y-108054D01*
Y-108340D01*
X1098175D01*
Y-108626D01*
X1098461D01*
Y-108913D01*
X1098747D01*
Y-109199D01*
X1099606D01*
Y-109485D01*
X1100465D01*
Y-109199D01*
X1100751D01*
Y-108913D01*
Y-108626D01*
Y-108340D01*
X1101038D01*
Y-108054D01*
Y-107767D01*
X1101324D01*
Y-107481D01*
Y-107195D01*
Y-106908D01*
X1101610D01*
Y-106622D01*
Y-106336D01*
Y-106049D01*
X1101897D01*
Y-105763D01*
Y-105477D01*
Y-105191D01*
X1102183D01*
Y-104904D01*
Y-104618D01*
Y-104332D01*
X1102469D01*
Y-104045D01*
Y-103759D01*
X1102756D01*
Y-103473D01*
Y-103186D01*
Y-102900D01*
X1103042D01*
Y-102614D01*
Y-102327D01*
Y-102041D01*
X1103328D01*
Y-101755D01*
Y-101468D01*
Y-101182D01*
X1103615D01*
Y-100896D01*
Y-100610D01*
X1103901D01*
Y-100323D01*
Y-100037D01*
Y-99751D01*
X1104187D01*
Y-99464D01*
Y-99178D01*
Y-98892D01*
X1104473D01*
Y-98605D01*
Y-98319D01*
Y-98033D01*
X1104760D01*
Y-97746D01*
Y-97460D01*
X1105046D01*
Y-97174D01*
Y-96887D01*
Y-96601D01*
X1105332D01*
Y-96315D01*
Y-96029D01*
Y-95742D01*
X1105619D01*
Y-95456D01*
Y-95170D01*
Y-94883D01*
X1105905D01*
Y-94597D01*
Y-94311D01*
X1106191D01*
Y-94024D01*
Y-93738D01*
Y-93452D01*
X1106478D01*
Y-93165D01*
Y-92879D01*
Y-92593D01*
X1106764D01*
Y-92306D01*
Y-92020D01*
Y-91734D01*
X1107050D01*
Y-91448D01*
Y-91161D01*
Y-90875D01*
Y-90588D01*
X1107337D01*
Y-90302D01*
Y-90016D01*
Y-89730D01*
Y-89443D01*
X1107623D01*
Y-89157D01*
Y-88871D01*
Y-88584D01*
Y-88298D01*
Y-88012D01*
X1107909D01*
Y-87725D01*
Y-87439D01*
Y-87153D01*
Y-86866D01*
Y-86580D01*
Y-86294D01*
X1108195D01*
Y-86007D01*
Y-85721D01*
Y-85435D01*
Y-85149D01*
Y-84862D01*
Y-84576D01*
Y-84290D01*
Y-84003D01*
Y-83717D01*
Y-83431D01*
X1121080D01*
Y-83717D01*
D02*
G37*
G36*
X1063244Y-66252D02*
Y-66538D01*
X1062958D01*
Y-66825D01*
Y-67111D01*
Y-67397D01*
Y-67684D01*
Y-67970D01*
Y-68256D01*
X1062672D01*
Y-68542D01*
Y-68829D01*
Y-69115D01*
Y-69401D01*
Y-69688D01*
Y-69974D01*
X1062385D01*
Y-70260D01*
Y-70547D01*
Y-70833D01*
Y-71119D01*
Y-71406D01*
Y-71692D01*
Y-71978D01*
X1062099D01*
Y-72264D01*
Y-72551D01*
Y-72837D01*
Y-73123D01*
Y-73410D01*
Y-73696D01*
X1061813D01*
Y-73982D01*
Y-74269D01*
Y-74555D01*
Y-74841D01*
Y-75128D01*
Y-75414D01*
X1061526D01*
Y-75700D01*
Y-75987D01*
Y-76273D01*
Y-76559D01*
Y-76846D01*
Y-77132D01*
Y-77418D01*
X1061240D01*
Y-77704D01*
Y-77991D01*
Y-78277D01*
Y-78563D01*
Y-78850D01*
Y-79136D01*
X1060954D01*
Y-79422D01*
Y-79709D01*
Y-79995D01*
Y-80281D01*
Y-80568D01*
Y-80854D01*
X1060668D01*
Y-81140D01*
Y-81427D01*
Y-81713D01*
Y-81999D01*
Y-82285D01*
Y-82572D01*
X1060381D01*
Y-82858D01*
Y-83144D01*
Y-83431D01*
Y-83717D01*
Y-84003D01*
Y-84290D01*
Y-84576D01*
X1060095D01*
Y-84862D01*
Y-85149D01*
Y-85435D01*
Y-85721D01*
Y-86007D01*
Y-86294D01*
X1059809D01*
Y-86580D01*
Y-86866D01*
X1060381D01*
Y-86580D01*
X1060668D01*
Y-86294D01*
X1060954D01*
Y-86007D01*
X1061526D01*
Y-85721D01*
X1061813D01*
Y-85435D01*
X1062099D01*
Y-85149D01*
X1062672D01*
Y-84862D01*
X1063244D01*
Y-84576D01*
X1063531D01*
Y-84290D01*
X1064103D01*
Y-84003D01*
X1064962D01*
Y-83717D01*
X1065535D01*
Y-83431D01*
X1066394D01*
Y-83144D01*
X1067825D01*
Y-82858D01*
X1074124D01*
Y-83144D01*
X1075270D01*
Y-83431D01*
X1076128D01*
Y-83717D01*
X1076701D01*
Y-84003D01*
X1076987D01*
Y-84290D01*
X1077560D01*
Y-84576D01*
X1077846D01*
Y-84862D01*
X1078133D01*
Y-85149D01*
X1078419D01*
Y-85435D01*
X1078705D01*
Y-85721D01*
Y-86007D01*
X1078992D01*
Y-86294D01*
Y-86580D01*
X1079278D01*
Y-86866D01*
Y-87153D01*
Y-87439D01*
X1079564D01*
Y-87725D01*
Y-88012D01*
Y-88298D01*
Y-88584D01*
X1079850D01*
Y-88871D01*
Y-89157D01*
Y-89443D01*
Y-89730D01*
Y-90016D01*
Y-90302D01*
Y-90588D01*
Y-90875D01*
Y-91161D01*
Y-91448D01*
Y-91734D01*
Y-92020D01*
Y-92306D01*
Y-92593D01*
Y-92879D01*
Y-93165D01*
Y-93452D01*
Y-93738D01*
X1079564D01*
Y-94024D01*
Y-94311D01*
Y-94597D01*
Y-94883D01*
Y-95170D01*
Y-95456D01*
Y-95742D01*
X1079278D01*
Y-96029D01*
Y-96315D01*
Y-96601D01*
Y-96887D01*
Y-97174D01*
Y-97460D01*
Y-97746D01*
X1078992D01*
Y-98033D01*
Y-98319D01*
Y-98605D01*
Y-98892D01*
Y-99178D01*
Y-99464D01*
X1078705D01*
Y-99751D01*
Y-100037D01*
Y-100323D01*
Y-100610D01*
Y-100896D01*
Y-101182D01*
X1078419D01*
Y-101468D01*
Y-101755D01*
Y-102041D01*
Y-102327D01*
Y-102614D01*
Y-102900D01*
X1078133D01*
Y-103186D01*
Y-103473D01*
Y-103759D01*
Y-104045D01*
Y-104332D01*
Y-104618D01*
Y-104904D01*
X1077846D01*
Y-105191D01*
Y-105477D01*
Y-105763D01*
Y-106049D01*
Y-106336D01*
Y-106622D01*
X1077560D01*
Y-106908D01*
Y-107195D01*
Y-107481D01*
Y-107767D01*
Y-108054D01*
Y-108340D01*
X1077274D01*
Y-108626D01*
Y-108913D01*
Y-109199D01*
Y-109485D01*
Y-109772D01*
Y-110058D01*
Y-110344D01*
X1076987D01*
Y-110630D01*
Y-110917D01*
Y-111203D01*
Y-111489D01*
Y-111776D01*
Y-112062D01*
X1076701D01*
Y-112348D01*
Y-112635D01*
Y-112921D01*
Y-113207D01*
Y-113494D01*
Y-113780D01*
X1076415D01*
Y-114066D01*
Y-114353D01*
Y-114639D01*
Y-114925D01*
Y-115211D01*
Y-115498D01*
X1076128D01*
Y-115784D01*
Y-116070D01*
Y-116357D01*
Y-116643D01*
Y-116929D01*
Y-117216D01*
Y-117502D01*
X1075842D01*
Y-117788D01*
Y-118075D01*
Y-118361D01*
Y-118647D01*
Y-118933D01*
Y-119220D01*
X1075556D01*
Y-119506D01*
Y-119792D01*
X1062385D01*
Y-119506D01*
Y-119220D01*
X1062672D01*
Y-118933D01*
Y-118647D01*
Y-118361D01*
Y-118075D01*
Y-117788D01*
Y-117502D01*
X1062958D01*
Y-117216D01*
Y-116929D01*
Y-116643D01*
Y-116357D01*
Y-116070D01*
Y-115784D01*
Y-115498D01*
X1063244D01*
Y-115211D01*
Y-114925D01*
Y-114639D01*
Y-114353D01*
Y-114066D01*
Y-113780D01*
X1063531D01*
Y-113494D01*
Y-113207D01*
Y-112921D01*
Y-112635D01*
Y-112348D01*
Y-112062D01*
X1063817D01*
Y-111776D01*
Y-111489D01*
Y-111203D01*
Y-110917D01*
Y-110630D01*
Y-110344D01*
Y-110058D01*
X1064103D01*
Y-109772D01*
Y-109485D01*
Y-109199D01*
Y-108913D01*
Y-108626D01*
Y-108340D01*
X1064390D01*
Y-108054D01*
Y-107767D01*
Y-107481D01*
Y-107195D01*
Y-106908D01*
Y-106622D01*
Y-106336D01*
X1064676D01*
Y-106049D01*
Y-105763D01*
Y-105477D01*
Y-105191D01*
Y-104904D01*
Y-104618D01*
X1064962D01*
Y-104332D01*
Y-104045D01*
Y-103759D01*
Y-103473D01*
Y-103186D01*
Y-102900D01*
X1065249D01*
Y-102614D01*
Y-102327D01*
Y-102041D01*
Y-101755D01*
Y-101468D01*
Y-101182D01*
X1065535D01*
Y-100896D01*
Y-100610D01*
Y-100323D01*
Y-100037D01*
Y-99751D01*
Y-99464D01*
Y-99178D01*
X1065821D01*
Y-98892D01*
Y-98605D01*
Y-98319D01*
Y-98033D01*
Y-97746D01*
Y-97460D01*
X1066107D01*
Y-97174D01*
Y-96887D01*
Y-96601D01*
Y-96315D01*
Y-96029D01*
Y-95742D01*
Y-95456D01*
X1066394D01*
Y-95170D01*
Y-94883D01*
Y-94597D01*
Y-94311D01*
Y-94024D01*
Y-93738D01*
X1066107D01*
Y-93452D01*
Y-93165D01*
X1065821D01*
Y-92879D01*
X1065535D01*
Y-92593D01*
X1064962D01*
Y-92306D01*
X1063244D01*
Y-92593D01*
X1061813D01*
Y-92879D01*
X1060954D01*
Y-93165D01*
X1060381D01*
Y-93452D01*
X1060095D01*
Y-93738D01*
X1059522D01*
Y-94024D01*
X1059236D01*
Y-94311D01*
X1058950D01*
Y-94597D01*
Y-94883D01*
X1058663D01*
Y-95170D01*
Y-95456D01*
Y-95742D01*
X1058377D01*
Y-96029D01*
Y-96315D01*
Y-96601D01*
Y-96887D01*
Y-97174D01*
Y-97460D01*
X1058091D01*
Y-97746D01*
Y-98033D01*
Y-98319D01*
Y-98605D01*
Y-98892D01*
Y-99178D01*
Y-99464D01*
X1057804D01*
Y-99751D01*
Y-100037D01*
Y-100323D01*
Y-100610D01*
Y-100896D01*
Y-101182D01*
X1057518D01*
Y-101468D01*
Y-101755D01*
Y-102041D01*
Y-102327D01*
Y-102614D01*
Y-102900D01*
X1057232D01*
Y-103186D01*
Y-103473D01*
Y-103759D01*
Y-104045D01*
Y-104332D01*
Y-104618D01*
X1056946D01*
Y-104904D01*
Y-105191D01*
Y-105477D01*
Y-105763D01*
Y-106049D01*
Y-106336D01*
Y-106622D01*
X1056659D01*
Y-106908D01*
Y-107195D01*
Y-107481D01*
Y-107767D01*
Y-108054D01*
Y-108340D01*
X1056373D01*
Y-108626D01*
Y-108913D01*
Y-109199D01*
Y-109485D01*
Y-109772D01*
Y-110058D01*
X1056087D01*
Y-110344D01*
Y-110630D01*
Y-110917D01*
Y-111203D01*
Y-111489D01*
Y-111776D01*
Y-112062D01*
X1055800D01*
Y-112348D01*
Y-112635D01*
Y-112921D01*
Y-113207D01*
Y-113494D01*
Y-113780D01*
X1055514D01*
Y-114066D01*
Y-114353D01*
Y-114639D01*
Y-114925D01*
Y-115211D01*
Y-115498D01*
X1055228D01*
Y-115784D01*
Y-116070D01*
Y-116357D01*
Y-116643D01*
Y-116929D01*
Y-117216D01*
X1054941D01*
Y-117502D01*
Y-117788D01*
Y-118075D01*
Y-118361D01*
Y-118647D01*
Y-118933D01*
Y-119220D01*
X1054655D01*
Y-119506D01*
Y-119792D01*
X1041485D01*
Y-119506D01*
Y-119220D01*
X1041771D01*
Y-118933D01*
Y-118647D01*
Y-118361D01*
Y-118075D01*
Y-117788D01*
Y-117502D01*
Y-117216D01*
X1042057D01*
Y-116929D01*
Y-116643D01*
Y-116357D01*
Y-116070D01*
Y-115784D01*
Y-115498D01*
X1042344D01*
Y-115211D01*
Y-114925D01*
Y-114639D01*
Y-114353D01*
Y-114066D01*
Y-113780D01*
X1042630D01*
Y-113494D01*
Y-113207D01*
Y-112921D01*
Y-112635D01*
Y-112348D01*
Y-112062D01*
Y-111776D01*
X1042916D01*
Y-111489D01*
Y-111203D01*
Y-110917D01*
Y-110630D01*
Y-110344D01*
Y-110058D01*
X1043202D01*
Y-109772D01*
Y-109485D01*
Y-109199D01*
Y-108913D01*
Y-108626D01*
Y-108340D01*
X1043489D01*
Y-108054D01*
Y-107767D01*
Y-107481D01*
Y-107195D01*
Y-106908D01*
Y-106622D01*
X1043775D01*
Y-106336D01*
Y-106049D01*
Y-105763D01*
Y-105477D01*
Y-105191D01*
Y-104904D01*
Y-104618D01*
X1044061D01*
Y-104332D01*
Y-104045D01*
Y-103759D01*
Y-103473D01*
Y-103186D01*
Y-102900D01*
X1044348D01*
Y-102614D01*
Y-102327D01*
Y-102041D01*
Y-101755D01*
Y-101468D01*
Y-101182D01*
X1044634D01*
Y-100896D01*
Y-100610D01*
Y-100323D01*
Y-100037D01*
Y-99751D01*
Y-99464D01*
Y-99178D01*
X1044920D01*
Y-98892D01*
Y-98605D01*
Y-98319D01*
Y-98033D01*
Y-97746D01*
Y-97460D01*
X1045207D01*
Y-97174D01*
Y-96887D01*
Y-96601D01*
Y-96315D01*
Y-96029D01*
Y-95742D01*
X1045493D01*
Y-95456D01*
Y-95170D01*
Y-94883D01*
Y-94597D01*
Y-94311D01*
Y-94024D01*
X1045779D01*
Y-93738D01*
Y-93452D01*
Y-93165D01*
Y-92879D01*
Y-92593D01*
Y-92306D01*
Y-92020D01*
X1046066D01*
Y-91734D01*
Y-91448D01*
Y-91161D01*
Y-90875D01*
Y-90588D01*
Y-90302D01*
X1046352D01*
Y-90016D01*
Y-89730D01*
Y-89443D01*
Y-89157D01*
Y-88871D01*
Y-88584D01*
X1046638D01*
Y-88298D01*
Y-88012D01*
Y-87725D01*
Y-87439D01*
Y-87153D01*
Y-86866D01*
X1046925D01*
Y-86580D01*
Y-86294D01*
Y-86007D01*
Y-85721D01*
Y-85435D01*
Y-85149D01*
Y-84862D01*
X1047211D01*
Y-84576D01*
Y-84290D01*
Y-84003D01*
Y-83717D01*
Y-83431D01*
Y-83144D01*
X1047497D01*
Y-82858D01*
Y-82572D01*
Y-82285D01*
Y-81999D01*
Y-81713D01*
Y-81427D01*
X1047783D01*
Y-81140D01*
Y-80854D01*
Y-80568D01*
Y-80281D01*
Y-79995D01*
Y-79709D01*
Y-79422D01*
X1048070D01*
Y-79136D01*
Y-78850D01*
Y-78563D01*
Y-78277D01*
Y-77991D01*
Y-77704D01*
X1048356D01*
Y-77418D01*
Y-77132D01*
Y-76846D01*
Y-76559D01*
Y-76273D01*
Y-75987D01*
X1048642D01*
Y-75700D01*
Y-75414D01*
Y-75128D01*
Y-74841D01*
Y-74555D01*
Y-74269D01*
X1048929D01*
Y-73982D01*
Y-73696D01*
Y-73410D01*
Y-73123D01*
Y-72837D01*
Y-72551D01*
Y-72264D01*
X1049215D01*
Y-71978D01*
Y-71692D01*
Y-71406D01*
Y-71119D01*
Y-70833D01*
Y-70547D01*
X1049501D01*
Y-70260D01*
Y-69974D01*
Y-69688D01*
Y-69401D01*
Y-69115D01*
Y-68829D01*
X1049788D01*
Y-68542D01*
Y-68256D01*
Y-67970D01*
Y-67684D01*
Y-67397D01*
Y-67111D01*
Y-66825D01*
X1050074D01*
Y-66538D01*
Y-66252D01*
Y-65966D01*
X1063244D01*
Y-66252D01*
D02*
G37*
G36*
X1032036Y-69688D02*
X1033754D01*
Y-69974D01*
X1034613D01*
Y-70260D01*
X1035472D01*
Y-70547D01*
X1036331D01*
Y-70833D01*
X1036904D01*
Y-71119D01*
X1037190D01*
Y-71406D01*
X1037763D01*
Y-71692D01*
X1038049D01*
Y-71978D01*
X1038622D01*
Y-72264D01*
X1038908D01*
Y-72551D01*
X1039194D01*
Y-72837D01*
X1039480D01*
Y-73123D01*
X1039767D01*
Y-73410D01*
X1040053D01*
Y-73696D01*
X1040339D01*
Y-73982D01*
Y-74269D01*
X1040626D01*
Y-74555D01*
X1040912D01*
Y-74841D01*
Y-75128D01*
X1041198D01*
Y-75414D01*
X1041485D01*
Y-75700D01*
Y-75987D01*
X1041771D01*
Y-76273D01*
Y-76559D01*
Y-76846D01*
X1042057D01*
Y-77132D01*
Y-77418D01*
Y-77704D01*
X1042344D01*
Y-77991D01*
Y-78277D01*
Y-78563D01*
Y-78850D01*
X1042630D01*
Y-79136D01*
Y-79422D01*
Y-79709D01*
Y-79995D01*
Y-80281D01*
X1042916D01*
Y-80568D01*
Y-80854D01*
Y-81140D01*
Y-81427D01*
Y-81713D01*
Y-81999D01*
Y-82285D01*
Y-82572D01*
Y-82858D01*
Y-83144D01*
Y-83431D01*
Y-83717D01*
Y-84003D01*
Y-84290D01*
Y-84576D01*
Y-84862D01*
Y-85149D01*
Y-85435D01*
Y-85721D01*
Y-86007D01*
X1042630D01*
Y-86294D01*
Y-86580D01*
Y-86866D01*
Y-87153D01*
Y-87439D01*
Y-87725D01*
Y-88012D01*
X1042344D01*
Y-88298D01*
Y-88584D01*
Y-88871D01*
Y-89157D01*
Y-89443D01*
X1042057D01*
Y-89730D01*
Y-90016D01*
Y-90302D01*
Y-90588D01*
Y-90875D01*
X1041771D01*
Y-91161D01*
Y-91448D01*
Y-91734D01*
X1041485D01*
Y-92020D01*
Y-92306D01*
Y-92593D01*
Y-92879D01*
X1041198D01*
Y-93165D01*
Y-93452D01*
Y-93738D01*
X1040912D01*
Y-94024D01*
Y-94311D01*
X1040626D01*
Y-94597D01*
Y-94883D01*
Y-95170D01*
X1040339D01*
Y-95456D01*
Y-95742D01*
X1040053D01*
Y-96029D01*
Y-96315D01*
X1039767D01*
Y-96601D01*
Y-96887D01*
X1039480D01*
Y-97174D01*
X1039194D01*
Y-97460D01*
Y-97746D01*
X1038908D01*
Y-98033D01*
X1038622D01*
Y-98319D01*
X1038335D01*
Y-98605D01*
Y-98892D01*
X1038049D01*
Y-99178D01*
X1037763D01*
Y-99464D01*
X1037476D01*
Y-99751D01*
X1037190D01*
Y-100037D01*
X1036904D01*
Y-100323D01*
X1036331D01*
Y-100610D01*
X1036045D01*
Y-100896D01*
X1035472D01*
Y-101182D01*
X1035186D01*
Y-101468D01*
X1034613D01*
Y-101755D01*
X1033754D01*
Y-102041D01*
X1032895D01*
Y-102327D01*
X1032036D01*
Y-102614D01*
X1030318D01*
Y-102900D01*
X1025165D01*
Y-102614D01*
X1022588D01*
Y-102327D01*
X1020584D01*
Y-102041D01*
X1019152D01*
Y-101755D01*
X1017721D01*
Y-101468D01*
X1016289D01*
Y-101755D01*
Y-102041D01*
Y-102327D01*
Y-102614D01*
Y-102900D01*
Y-103186D01*
Y-103473D01*
X1016003D01*
Y-103759D01*
Y-104045D01*
Y-104332D01*
Y-104618D01*
Y-104904D01*
Y-105191D01*
X1015716D01*
Y-105477D01*
Y-105763D01*
Y-106049D01*
Y-106336D01*
Y-106622D01*
Y-106908D01*
X1015430D01*
Y-107195D01*
Y-107481D01*
Y-107767D01*
Y-108054D01*
Y-108340D01*
Y-108626D01*
Y-108913D01*
X1015144D01*
Y-109199D01*
Y-109485D01*
Y-109772D01*
Y-110058D01*
Y-110344D01*
Y-110630D01*
X1014857D01*
Y-110917D01*
Y-111203D01*
Y-111489D01*
Y-111776D01*
Y-112062D01*
Y-112348D01*
X1014571D01*
Y-112635D01*
Y-112921D01*
Y-113207D01*
Y-113494D01*
Y-113780D01*
Y-114066D01*
Y-114353D01*
X1014285D01*
Y-114639D01*
Y-114925D01*
Y-115211D01*
Y-115498D01*
Y-115784D01*
Y-116070D01*
X1013999D01*
Y-116357D01*
Y-116643D01*
Y-116929D01*
Y-117216D01*
Y-117502D01*
Y-117788D01*
X1013712D01*
Y-118075D01*
Y-118361D01*
Y-118647D01*
Y-118933D01*
Y-119220D01*
Y-119506D01*
Y-119792D01*
X1000256D01*
Y-119506D01*
X1000542D01*
Y-119220D01*
Y-118933D01*
Y-118647D01*
Y-118361D01*
Y-118075D01*
X1000828D01*
Y-117788D01*
Y-117502D01*
Y-117216D01*
Y-116929D01*
Y-116643D01*
Y-116357D01*
Y-116070D01*
X1001114D01*
Y-115784D01*
Y-115498D01*
Y-115211D01*
Y-114925D01*
Y-114639D01*
Y-114353D01*
X1001401D01*
Y-114066D01*
Y-113780D01*
Y-113494D01*
Y-113207D01*
Y-112921D01*
Y-112635D01*
X1001687D01*
Y-112348D01*
Y-112062D01*
Y-111776D01*
Y-111489D01*
Y-111203D01*
Y-110917D01*
Y-110630D01*
X1001974D01*
Y-110344D01*
Y-110058D01*
Y-109772D01*
Y-109485D01*
Y-109199D01*
Y-108913D01*
X1002260D01*
Y-108626D01*
Y-108340D01*
Y-108054D01*
Y-107767D01*
Y-107481D01*
Y-107195D01*
X1002546D01*
Y-106908D01*
Y-106622D01*
Y-106336D01*
Y-106049D01*
Y-105763D01*
Y-105477D01*
X1002832D01*
Y-105191D01*
Y-104904D01*
Y-104618D01*
Y-104332D01*
Y-104045D01*
Y-103759D01*
Y-103473D01*
X1003119D01*
Y-103186D01*
Y-102900D01*
Y-102614D01*
Y-102327D01*
Y-102041D01*
Y-101755D01*
X1003405D01*
Y-101468D01*
Y-101182D01*
Y-100896D01*
Y-100610D01*
Y-100323D01*
Y-100037D01*
X1003691D01*
Y-99751D01*
Y-99464D01*
Y-99178D01*
Y-98892D01*
Y-98605D01*
Y-98319D01*
X1003978D01*
Y-98033D01*
Y-97746D01*
Y-97460D01*
Y-97174D01*
Y-96887D01*
Y-96601D01*
Y-96315D01*
X1004264D01*
Y-96029D01*
Y-95742D01*
Y-95456D01*
Y-95170D01*
Y-94883D01*
Y-94597D01*
X1004550D01*
Y-94311D01*
Y-94024D01*
Y-93738D01*
Y-93452D01*
Y-93165D01*
Y-92879D01*
X1004837D01*
Y-92593D01*
Y-92306D01*
Y-92020D01*
Y-91734D01*
Y-91448D01*
Y-91161D01*
Y-90875D01*
X1005123D01*
Y-90588D01*
Y-90302D01*
Y-90016D01*
Y-89730D01*
Y-89443D01*
Y-89157D01*
X1005409D01*
Y-88871D01*
Y-88584D01*
Y-88298D01*
Y-88012D01*
Y-87725D01*
Y-87439D01*
X1005696D01*
Y-87153D01*
Y-86866D01*
Y-86580D01*
Y-86294D01*
Y-86007D01*
Y-85721D01*
X1005982D01*
Y-85435D01*
Y-85149D01*
Y-84862D01*
Y-84576D01*
Y-84290D01*
Y-84003D01*
Y-83717D01*
X1006268D01*
Y-83431D01*
Y-83144D01*
Y-82858D01*
Y-82572D01*
Y-82285D01*
Y-81999D01*
X1006555D01*
Y-81713D01*
Y-81427D01*
Y-81140D01*
Y-80854D01*
Y-80568D01*
Y-80281D01*
X1006841D01*
Y-79995D01*
Y-79709D01*
Y-79422D01*
Y-79136D01*
Y-78850D01*
Y-78563D01*
Y-78277D01*
X1007127D01*
Y-77991D01*
Y-77704D01*
Y-77418D01*
Y-77132D01*
Y-76846D01*
Y-76559D01*
X1007413D01*
Y-76273D01*
Y-75987D01*
Y-75700D01*
Y-75414D01*
Y-75128D01*
Y-74841D01*
X1007700D01*
Y-74555D01*
Y-74269D01*
Y-73982D01*
Y-73696D01*
Y-73410D01*
Y-73123D01*
Y-72837D01*
X1007986D01*
Y-72551D01*
Y-72264D01*
Y-71978D01*
Y-71692D01*
Y-71406D01*
Y-71119D01*
X1008272D01*
Y-70833D01*
Y-70547D01*
Y-70260D01*
Y-69974D01*
Y-69688D01*
Y-69401D01*
X1032036D01*
Y-69688D01*
D02*
G37*
G36*
X1165172Y-83717D02*
X1164886D01*
Y-84003D01*
X1164599D01*
Y-84290D01*
Y-84576D01*
X1164313D01*
Y-84862D01*
X1164027D01*
Y-85149D01*
X1163740D01*
Y-85435D01*
Y-85721D01*
X1163454D01*
Y-86007D01*
X1163168D01*
Y-86294D01*
X1162881D01*
Y-86580D01*
X1162595D01*
Y-86866D01*
Y-87153D01*
X1162309D01*
Y-87439D01*
X1162022D01*
Y-87725D01*
X1161736D01*
Y-88012D01*
Y-88298D01*
X1161450D01*
Y-88584D01*
X1161163D01*
Y-88871D01*
X1160877D01*
Y-89157D01*
X1160591D01*
Y-89443D01*
Y-89730D01*
X1160305D01*
Y-90016D01*
X1160018D01*
Y-90302D01*
X1159732D01*
Y-90588D01*
Y-90875D01*
X1159445D01*
Y-91161D01*
X1159159D01*
Y-91448D01*
X1158873D01*
Y-91734D01*
Y-92020D01*
X1158587D01*
Y-92306D01*
X1158300D01*
Y-92593D01*
X1158014D01*
Y-92879D01*
X1157728D01*
Y-93165D01*
Y-93452D01*
X1157441D01*
Y-93738D01*
X1157155D01*
Y-94024D01*
X1156869D01*
Y-94311D01*
Y-94597D01*
X1156582D01*
Y-94883D01*
X1156296D01*
Y-95170D01*
X1156010D01*
Y-95456D01*
Y-95742D01*
X1155723D01*
Y-96029D01*
X1155437D01*
Y-96315D01*
X1155151D01*
Y-96601D01*
X1154865D01*
Y-96887D01*
Y-97174D01*
X1154578D01*
Y-97460D01*
X1154292D01*
Y-97746D01*
X1154006D01*
Y-98033D01*
Y-98319D01*
X1153719D01*
Y-98605D01*
X1153433D01*
Y-98892D01*
X1153147D01*
Y-99178D01*
Y-99464D01*
X1152860D01*
Y-99751D01*
X1152574D01*
Y-100037D01*
X1152288D01*
Y-100323D01*
X1152001D01*
Y-100610D01*
Y-100896D01*
X1151715D01*
Y-101182D01*
X1151429D01*
Y-101468D01*
X1151142D01*
Y-101755D01*
Y-102041D01*
X1150856D01*
Y-102327D01*
X1150570D01*
Y-102614D01*
X1150284D01*
Y-102900D01*
X1149997D01*
Y-103186D01*
Y-103473D01*
X1150284D01*
Y-103759D01*
Y-104045D01*
X1150570D01*
Y-104332D01*
Y-104618D01*
X1150856D01*
Y-104904D01*
X1151142D01*
Y-105191D01*
Y-105477D01*
X1151429D01*
Y-105763D01*
Y-106049D01*
X1151715D01*
Y-106336D01*
Y-106622D01*
X1152001D01*
Y-106908D01*
Y-107195D01*
X1152288D01*
Y-107481D01*
Y-107767D01*
X1152574D01*
Y-108054D01*
Y-108340D01*
X1152860D01*
Y-108626D01*
Y-108913D01*
X1153147D01*
Y-109199D01*
Y-109485D01*
X1153433D01*
Y-109772D01*
X1153719D01*
Y-110058D01*
Y-110344D01*
X1154006D01*
Y-110630D01*
Y-110917D01*
X1154292D01*
Y-111203D01*
Y-111489D01*
X1154578D01*
Y-111776D01*
Y-112062D01*
X1154865D01*
Y-112348D01*
Y-112635D01*
X1155151D01*
Y-112921D01*
Y-113207D01*
X1155437D01*
Y-113494D01*
Y-113780D01*
X1155723D01*
Y-114066D01*
X1156010D01*
Y-114353D01*
Y-114639D01*
X1156296D01*
Y-114925D01*
Y-115211D01*
X1156582D01*
Y-115498D01*
Y-115784D01*
X1156869D01*
Y-116070D01*
Y-116357D01*
X1157155D01*
Y-116643D01*
Y-116929D01*
X1157441D01*
Y-117216D01*
Y-117502D01*
X1157728D01*
Y-117788D01*
Y-118075D01*
X1158014D01*
Y-118361D01*
X1158300D01*
Y-118647D01*
Y-118933D01*
X1158587D01*
Y-119220D01*
Y-119506D01*
X1158873D01*
Y-119792D01*
X1143698D01*
Y-119506D01*
X1143412D01*
Y-119220D01*
Y-118933D01*
Y-118647D01*
X1143126D01*
Y-118361D01*
Y-118075D01*
Y-117788D01*
X1142839D01*
Y-117502D01*
Y-117216D01*
X1142553D01*
Y-116929D01*
Y-116643D01*
Y-116357D01*
X1142267D01*
Y-116070D01*
Y-115784D01*
Y-115498D01*
X1141980D01*
Y-115211D01*
Y-114925D01*
X1141694D01*
Y-114639D01*
Y-114353D01*
Y-114066D01*
X1141408D01*
Y-113780D01*
Y-113494D01*
Y-113207D01*
X1141121D01*
Y-112921D01*
Y-112635D01*
Y-112348D01*
X1140835D01*
Y-112062D01*
X1140263D01*
Y-112348D01*
Y-112635D01*
X1139976D01*
Y-112921D01*
X1139690D01*
Y-113207D01*
Y-113494D01*
X1139404D01*
Y-113780D01*
X1139117D01*
Y-114066D01*
Y-114353D01*
X1138831D01*
Y-114639D01*
X1138545D01*
Y-114925D01*
Y-115211D01*
X1138258D01*
Y-115498D01*
X1137972D01*
Y-115784D01*
X1137686D01*
Y-116070D01*
Y-116357D01*
X1137399D01*
Y-116643D01*
X1137113D01*
Y-116929D01*
Y-117216D01*
X1136827D01*
Y-117502D01*
X1136541D01*
Y-117788D01*
Y-118075D01*
X1136254D01*
Y-118361D01*
X1135968D01*
Y-118647D01*
Y-118933D01*
X1135682D01*
Y-119220D01*
X1135395D01*
Y-119506D01*
Y-119792D01*
X1119362D01*
Y-119506D01*
X1119648D01*
Y-119220D01*
X1119934D01*
Y-118933D01*
X1120221D01*
Y-118647D01*
X1120507D01*
Y-118361D01*
Y-118075D01*
X1120793D01*
Y-117788D01*
X1121080D01*
Y-117502D01*
X1121366D01*
Y-117216D01*
X1121652D01*
Y-116929D01*
Y-116643D01*
X1121939D01*
Y-116357D01*
X1122225D01*
Y-116070D01*
X1122511D01*
Y-115784D01*
Y-115498D01*
X1122797D01*
Y-115211D01*
X1123084D01*
Y-114925D01*
X1123370D01*
Y-114639D01*
X1123656D01*
Y-114353D01*
Y-114066D01*
X1123943D01*
Y-113780D01*
X1124229D01*
Y-113494D01*
X1124515D01*
Y-113207D01*
X1124802D01*
Y-112921D01*
Y-112635D01*
X1125088D01*
Y-112348D01*
X1125374D01*
Y-112062D01*
X1125661D01*
Y-111776D01*
Y-111489D01*
X1125947D01*
Y-111203D01*
X1126233D01*
Y-110917D01*
X1126519D01*
Y-110630D01*
X1126806D01*
Y-110344D01*
Y-110058D01*
X1127092D01*
Y-109772D01*
X1127378D01*
Y-109485D01*
X1127665D01*
Y-109199D01*
Y-108913D01*
X1127951D01*
Y-108626D01*
X1128237D01*
Y-108340D01*
X1128524D01*
Y-108054D01*
X1128810D01*
Y-107767D01*
Y-107481D01*
X1129096D01*
Y-107195D01*
X1129383D01*
Y-106908D01*
X1129669D01*
Y-106622D01*
Y-106336D01*
X1129955D01*
Y-106049D01*
X1130242D01*
Y-105763D01*
X1130528D01*
Y-105477D01*
X1130814D01*
Y-105191D01*
Y-104904D01*
X1131100D01*
Y-104618D01*
X1131387D01*
Y-104332D01*
X1131673D01*
Y-104045D01*
X1131960D01*
Y-103759D01*
Y-103473D01*
X1132246D01*
Y-103186D01*
X1132532D01*
Y-102900D01*
X1132818D01*
Y-102614D01*
Y-102327D01*
X1133105D01*
Y-102041D01*
X1133391D01*
Y-101755D01*
X1133677D01*
Y-101468D01*
X1133964D01*
Y-101182D01*
Y-100896D01*
X1134250D01*
Y-100610D01*
Y-100323D01*
Y-100037D01*
X1133964D01*
Y-99751D01*
X1133677D01*
Y-99464D01*
Y-99178D01*
X1133391D01*
Y-98892D01*
Y-98605D01*
X1133105D01*
Y-98319D01*
Y-98033D01*
X1132818D01*
Y-97746D01*
Y-97460D01*
X1132532D01*
Y-97174D01*
Y-96887D01*
X1132246D01*
Y-96601D01*
Y-96315D01*
X1131960D01*
Y-96029D01*
X1131673D01*
Y-95742D01*
Y-95456D01*
X1131387D01*
Y-95170D01*
Y-94883D01*
X1131100D01*
Y-94597D01*
Y-94311D01*
X1130814D01*
Y-94024D01*
Y-93738D01*
X1130528D01*
Y-93452D01*
Y-93165D01*
X1130242D01*
Y-92879D01*
Y-92593D01*
X1129955D01*
Y-92306D01*
X1129669D01*
Y-92020D01*
Y-91734D01*
X1129383D01*
Y-91448D01*
Y-91161D01*
X1129096D01*
Y-90875D01*
Y-90588D01*
X1128810D01*
Y-90302D01*
Y-90016D01*
X1128524D01*
Y-89730D01*
Y-89443D01*
X1128237D01*
Y-89157D01*
Y-88871D01*
X1127951D01*
Y-88584D01*
Y-88298D01*
X1127665D01*
Y-88012D01*
X1127378D01*
Y-87725D01*
Y-87439D01*
X1127092D01*
Y-87153D01*
Y-86866D01*
X1126806D01*
Y-86580D01*
Y-86294D01*
X1126519D01*
Y-86007D01*
Y-85721D01*
X1126233D01*
Y-85435D01*
Y-85149D01*
X1125947D01*
Y-84862D01*
Y-84576D01*
X1125661D01*
Y-84290D01*
X1125374D01*
Y-84003D01*
Y-83717D01*
X1125088D01*
Y-83431D01*
X1140835D01*
Y-83717D01*
X1141121D01*
Y-84003D01*
Y-84290D01*
Y-84576D01*
X1141408D01*
Y-84862D01*
Y-85149D01*
Y-85435D01*
X1141694D01*
Y-85721D01*
Y-86007D01*
Y-86294D01*
X1141980D01*
Y-86580D01*
Y-86866D01*
Y-87153D01*
X1142267D01*
Y-87439D01*
Y-87725D01*
Y-88012D01*
X1142553D01*
Y-88298D01*
Y-88584D01*
Y-88871D01*
X1142839D01*
Y-89157D01*
Y-89443D01*
Y-89730D01*
X1143126D01*
Y-90016D01*
Y-90302D01*
Y-90588D01*
X1143412D01*
Y-90875D01*
Y-91161D01*
Y-91448D01*
Y-91734D01*
X1143985D01*
Y-91448D01*
X1144271D01*
Y-91161D01*
X1144557D01*
Y-90875D01*
Y-90588D01*
X1144844D01*
Y-90302D01*
X1145130D01*
Y-90016D01*
Y-89730D01*
X1145416D01*
Y-89443D01*
X1145702D01*
Y-89157D01*
Y-88871D01*
X1145989D01*
Y-88584D01*
X1146275D01*
Y-88298D01*
Y-88012D01*
X1146561D01*
Y-87725D01*
X1146848D01*
Y-87439D01*
Y-87153D01*
X1147134D01*
Y-86866D01*
X1147420D01*
Y-86580D01*
Y-86294D01*
X1147707D01*
Y-86007D01*
X1147993D01*
Y-85721D01*
Y-85435D01*
X1148279D01*
Y-85149D01*
X1148566D01*
Y-84862D01*
Y-84576D01*
X1148852D01*
Y-84290D01*
X1149138D01*
Y-84003D01*
Y-83717D01*
X1149425D01*
Y-83431D01*
X1165172D01*
Y-83717D01*
D02*
G37*
%LPC*%
G36*
X1027742Y-80568D02*
X1019725D01*
Y-80854D01*
Y-81140D01*
Y-81427D01*
Y-81713D01*
Y-81999D01*
X1019438D01*
Y-82285D01*
Y-82572D01*
Y-82858D01*
Y-83144D01*
Y-83431D01*
Y-83717D01*
X1019152D01*
Y-84003D01*
Y-84290D01*
Y-84576D01*
Y-84862D01*
Y-85149D01*
Y-85435D01*
X1018866D01*
Y-85721D01*
Y-86007D01*
Y-86294D01*
Y-86580D01*
Y-86866D01*
Y-87153D01*
X1018580D01*
Y-87439D01*
Y-87725D01*
Y-88012D01*
Y-88298D01*
Y-88584D01*
Y-88871D01*
Y-89157D01*
X1018293D01*
Y-89443D01*
Y-89730D01*
Y-90016D01*
Y-90302D01*
Y-90588D01*
Y-90875D01*
X1018007D01*
Y-91161D01*
Y-91448D01*
Y-91734D01*
X1025165D01*
Y-91448D01*
X1026310D01*
Y-91161D01*
X1026883D01*
Y-90875D01*
X1027169D01*
Y-90588D01*
X1027455D01*
Y-90302D01*
X1027742D01*
Y-90016D01*
X1028028D01*
Y-89730D01*
Y-89443D01*
X1028314D01*
Y-89157D01*
Y-88871D01*
X1028601D01*
Y-88584D01*
Y-88298D01*
X1028887D01*
Y-88012D01*
Y-87725D01*
Y-87439D01*
Y-87153D01*
X1029173D01*
Y-86866D01*
Y-86580D01*
Y-86294D01*
Y-86007D01*
Y-85721D01*
X1029459D01*
Y-85435D01*
Y-85149D01*
Y-84862D01*
Y-84576D01*
Y-84290D01*
Y-84003D01*
Y-83717D01*
Y-83431D01*
Y-83144D01*
Y-82858D01*
Y-82572D01*
X1029173D01*
Y-82285D01*
Y-81999D01*
X1028887D01*
Y-81713D01*
Y-81427D01*
X1028601D01*
Y-81140D01*
X1028314D01*
Y-80854D01*
X1027742D01*
Y-80568D01*
D02*
G37*
%LPD*%
D10*
X201575Y88583D02*
G03*
X200394Y87402I0J-1181D01*
G01*
X201575Y88583D02*
G03*
X201988Y88169I413J0D01*
G01*
X208661Y78740D02*
G03*
X207283Y77362I0J-1378D01*
G01*
X246457Y77592D02*
G03*
X244127Y79921I-2329J0D01*
G01*
X239370Y81496D02*
G03*
X240945Y79921I1575J0D01*
G01*
X239370Y87421D02*
G03*
X238622Y88169I-748J0D01*
G01*
X244094Y61811D02*
G03*
X246457Y64173I0J2362D01*
G01*
X233858Y64173D02*
G03*
X236221Y61811I2362J0D01*
G01*
X31496Y150000D02*
G03*
X21496Y160000I-10000J0D01*
G01*
X10000Y180000D02*
X20157D01*
X37953Y197796D01*
Y211693D01*
X200394Y75787D02*
Y87402D01*
X201988Y88169D02*
X208622D01*
X208661Y78740D02*
Y88169D01*
X207283Y70472D02*
Y77362D01*
X208622Y88169D02*
X208661D01*
X240945Y79921D02*
X244127D01*
X246457Y64173D02*
Y77592D01*
X239370Y81496D02*
Y87421D01*
X236221Y61811D02*
X244094D01*
X233858Y64173D02*
Y67520D01*
X17323Y68701D02*
X22835D01*
X11811D02*
X17323D01*
X11220Y68110D02*
X11811Y68701D01*
X10000Y160000D02*
X21496D01*
X31496Y143701D02*
Y150000D01*
D11*
X232679Y145667D02*
G03*
X239331Y142913I6651J6656D01*
G01*
X232677Y145669D02*
G03*
X232679Y145667I6653J6653D01*
G01*
X250000Y137402D02*
G03*
X244488Y142913I-5512J0D01*
G01*
X37953Y211693D02*
X42954D01*
X32954D02*
X37953D01*
X238622Y88169D02*
Y91929D01*
X239331Y142913D02*
X244488D01*
X224803Y153543D02*
X232677Y145669D01*
X250000Y91929D02*
Y137402D01*
X238622Y91929D02*
X250000D01*
X221063Y171457D02*
X232677D01*
X222441Y153543D02*
X224803D01*
X221063Y154921D02*
X222441Y153543D01*
X221063Y154921D02*
Y171457D01*
X6693Y40315D02*
X14961D01*
X6693Y49213D02*
X10394Y45512D01*
X14961D01*
X6693Y39213D02*
Y40315D01*
X48406Y217146D02*
X218110D01*
X42954Y211693D02*
X48406Y217146D01*
X217323Y176181D02*
X232185D01*
X200394Y190945D02*
X217323D01*
Y176181D02*
Y190945D01*
D12*
X110630Y71850D02*
D03*
Y65945D02*
D03*
X17323Y68701D02*
D03*
Y62795D02*
D03*
X22835Y68701D02*
D03*
Y62795D02*
D03*
X143701Y185039D02*
D03*
Y179134D02*
D03*
X148622Y138583D02*
D03*
Y132677D02*
D03*
X134843Y124803D02*
D03*
Y130709D02*
D03*
X150000Y113583D02*
D03*
Y107677D02*
D03*
X250000Y179134D02*
D03*
Y173228D02*
D03*
X233858Y67520D02*
D03*
X233858Y73425D02*
D03*
D13*
X102362Y73917D02*
D03*
X100394Y68602D02*
D03*
X102362D02*
D03*
X104331D02*
D03*
Y73917D02*
D03*
X100394D02*
D03*
D14*
X7480Y58661D02*
D03*
X11220Y68110D02*
D03*
X224803Y180905D02*
D03*
X221063Y171457D02*
D03*
D15*
X3740Y68110D02*
D03*
X217323Y180905D02*
D03*
D16*
X250000Y84449D02*
D03*
Y91929D02*
D03*
X62992Y103150D02*
D03*
Y95669D02*
D03*
X145669Y103150D02*
D03*
Y95669D02*
D03*
X141732Y125591D02*
D03*
Y118110D02*
D03*
X62992Y121850D02*
D03*
Y114370D02*
D03*
X200394Y75787D02*
D03*
Y68307D02*
D03*
X149606Y118110D02*
D03*
Y125591D02*
D03*
X141732Y82874D02*
D03*
Y90354D02*
D03*
X62992Y82874D02*
D03*
Y90354D02*
D03*
X240551Y68701D02*
D03*
Y76181D02*
D03*
X141732Y130905D02*
D03*
Y138386D02*
D03*
D17*
X159449Y103543D02*
D03*
Y114961D02*
D03*
X169291Y103543D02*
D03*
Y114961D02*
D03*
X52165Y113386D02*
D03*
Y124803D02*
D03*
X42323Y113386D02*
D03*
Y124803D02*
D03*
X166339Y97441D02*
D03*
Y86024D02*
D03*
X52165Y103150D02*
D03*
Y91732D02*
D03*
X156496Y97441D02*
D03*
Y86024D02*
D03*
X42323Y103150D02*
D03*
Y91732D02*
D03*
D18*
X145079Y112992D02*
D03*
X139173D02*
D03*
X23425Y57874D02*
D03*
X17520D02*
D03*
X23425Y52362D02*
D03*
X17520D02*
D03*
X27756Y46850D02*
D03*
X21850D02*
D03*
X27756Y41339D02*
D03*
X21850D02*
D03*
X172244Y177165D02*
D03*
X166339D02*
D03*
X172244Y187008D02*
D03*
X166339D02*
D03*
X147638Y192913D02*
D03*
X153543D02*
D03*
X77756Y128937D02*
D03*
X71850D02*
D03*
Y123425D02*
D03*
X77756D02*
D03*
Y118504D02*
D03*
X71850D02*
D03*
X77756Y133858D02*
D03*
X71850D02*
D03*
X231299Y187008D02*
D03*
X237205D02*
D03*
X228937Y75984D02*
D03*
X223031D02*
D03*
X207283Y70472D02*
D03*
X213189D02*
D03*
X212795Y75984D02*
D03*
X218701D02*
D03*
D19*
X14961Y45512D02*
D03*
Y40315D02*
D03*
D20*
X102362Y115157D02*
D03*
D21*
X88090Y137795D02*
D03*
Y135827D02*
D03*
Y133858D02*
D03*
Y131890D02*
D03*
Y129921D02*
D03*
Y127953D02*
D03*
Y125984D02*
D03*
Y124016D02*
D03*
Y122047D02*
D03*
Y120079D02*
D03*
Y118110D02*
D03*
Y116142D02*
D03*
Y114173D02*
D03*
Y112205D02*
D03*
Y110236D02*
D03*
Y108268D02*
D03*
Y106299D02*
D03*
Y104331D02*
D03*
Y102362D02*
D03*
Y100394D02*
D03*
Y98425D02*
D03*
Y96457D02*
D03*
Y94488D02*
D03*
Y92520D02*
D03*
X116634Y137795D02*
D03*
Y135827D02*
D03*
Y133858D02*
D03*
Y131890D02*
D03*
Y129921D02*
D03*
Y127953D02*
D03*
Y125984D02*
D03*
Y124016D02*
D03*
Y122047D02*
D03*
Y120079D02*
D03*
Y118110D02*
D03*
Y116142D02*
D03*
Y114173D02*
D03*
Y112205D02*
D03*
Y110236D02*
D03*
Y108268D02*
D03*
Y106299D02*
D03*
Y104331D02*
D03*
Y102362D02*
D03*
Y100394D02*
D03*
Y98425D02*
D03*
Y96457D02*
D03*
Y94488D02*
D03*
Y92520D02*
D03*
D22*
X160138Y178347D02*
D03*
Y182087D02*
D03*
Y185827D02*
D03*
X150886D02*
D03*
Y178347D02*
D03*
X232185Y172441D02*
D03*
X232185Y179921D02*
D03*
X241437D02*
D03*
Y176181D02*
D03*
Y172441D02*
D03*
X232185Y176181D02*
D03*
D23*
X123031Y127953D02*
D03*
X126969Y131890D02*
D03*
X123031Y133858D02*
D03*
X126969Y135827D02*
D03*
X123031Y137795D02*
D03*
X79134Y145276D02*
D03*
X81890Y150394D02*
D03*
X81693Y110236D02*
D03*
X126969Y127953D02*
D03*
D24*
X242126Y153543D02*
D03*
X222441D02*
D03*
X187008Y49213D02*
D03*
X206693D02*
D03*
D25*
X199606Y166929D02*
D03*
Y186614D02*
D03*
D26*
X227953Y62795D02*
D03*
X218504Y66535D02*
D03*
D27*
X227953Y70276D02*
D03*
D28*
X218622Y88169D02*
D03*
X213622D02*
D03*
X208622D02*
D03*
X238622D02*
D03*
X233622D02*
D03*
X223622Y88169D02*
D03*
X228622Y88169D02*
D03*
D29*
X223622Y116929D02*
D03*
D30*
X134449Y112795D02*
D03*
X126969D02*
D03*
X69980Y110433D02*
D03*
X77460D02*
D03*
X125984Y83661D02*
D03*
X118504D02*
D03*
X78937D02*
D03*
X86417D02*
D03*
X80512Y35433D02*
D03*
X73032D02*
D03*
X37598D02*
D03*
X45079D02*
D03*
X167126D02*
D03*
X159646D02*
D03*
X124213D02*
D03*
X131693D02*
D03*
D31*
X74803Y73898D02*
D03*
Y57992D02*
D03*
X46260Y62087D02*
D03*
Y46181D02*
D03*
X158465Y62087D02*
D03*
Y46181D02*
D03*
X129921Y73898D02*
D03*
Y57992D02*
D03*
D32*
X104331Y10630D02*
Y61658D01*
X98819Y5118D02*
X104331Y10630D01*
X106299Y63626D02*
Y65748D01*
X104331Y61658D02*
X106299Y63626D01*
X231299Y75984D02*
X233858Y73425D01*
X228937Y75984D02*
X231299D01*
X228622Y76299D02*
X228937Y75984D01*
X228622Y76299D02*
Y88169D01*
X238779Y76181D02*
X240551D01*
X233622Y81339D02*
X238779Y76181D01*
X233622Y81339D02*
Y88169D01*
X106299Y65748D02*
Y70472D01*
Y65748D02*
X110433D01*
X110630Y65945D01*
X102362Y72047D02*
Y73917D01*
Y72047D02*
X103150Y71260D01*
X105512D01*
X106299Y70472D01*
X172244Y182087D02*
Y187008D01*
Y177165D02*
Y182087D01*
X125000Y139764D02*
X126969D01*
X123031Y137795D02*
X125000Y139764D01*
X95472Y96457D02*
X97638Y98622D01*
X88090Y96457D02*
X95472D01*
X109252D02*
X116634D01*
X107087Y98622D02*
X109252Y96457D01*
X107087Y131693D02*
X108858Y129921D01*
X116634D01*
X107087Y117520D02*
X109646Y120079D01*
X116634D01*
X107087Y108071D02*
X109252Y110236D01*
X116634D01*
X97441Y108268D02*
X97638Y108071D01*
X88090Y108268D02*
X97441D01*
Y122047D02*
X97638Y122244D01*
X88090Y122047D02*
X97441D01*
X95866Y129921D02*
X97638Y131693D01*
X88090Y129921D02*
X95866D01*
X88090Y135827D02*
X97047D01*
X98819Y137598D01*
X162954Y193739D02*
Y201693D01*
Y193739D02*
X166339Y190354D01*
X158268Y207007D02*
X162954Y211693D01*
X155905Y188189D02*
X158268Y190551D01*
Y207007D01*
X157087Y178347D02*
X160138D01*
X155905Y179528D02*
Y188189D01*
Y179528D02*
X157087Y178347D01*
X166339Y187008D02*
Y190354D01*
X160138Y185827D02*
X166339D01*
Y187008D01*
X160138Y182087D02*
X165354D01*
X150492Y178740D02*
X150886Y178347D01*
X144095Y178740D02*
X150492D01*
X143701Y179134D02*
X144095Y178740D01*
X150492Y185433D02*
X150886Y185827D01*
X144095Y185433D02*
X150492D01*
X143701Y185039D02*
X144095Y185433D01*
X147638Y192520D02*
Y192913D01*
Y192520D02*
X150886Y189272D01*
Y185827D02*
Y189272D01*
X160335Y178150D02*
X166339D01*
Y190354D02*
X176575D01*
X179606Y187323D01*
X149606Y167323D02*
Y178347D01*
X150886D01*
X77460Y110433D02*
Y111417D01*
X78248Y112205D01*
X88090D01*
X81693Y110236D02*
X88090D01*
X81693Y110236D02*
X81693Y110236D01*
X116634Y137795D02*
X123031D01*
X123031Y137795D01*
X116634Y135827D02*
X126969D01*
X126969Y135827D01*
X116634Y133858D02*
X123031D01*
X123031Y133858D01*
X116634Y131890D02*
X126969D01*
X126969Y131890D01*
X116634Y127953D02*
X123031D01*
X123031Y127953D01*
X1342520Y-129921D02*
Y-122050D01*
X1346455D01*
X1347767Y-123362D01*
Y-125986D01*
X1346455Y-127297D01*
X1342520D01*
X1345144D02*
X1347767Y-129921D01*
X1354327D02*
X1351703D01*
X1350391Y-128609D01*
Y-125986D01*
X1351703Y-124674D01*
X1354327D01*
X1355639Y-125986D01*
Y-127297D01*
X1350391D01*
X1358263Y-124674D02*
X1360886Y-129921D01*
X1363510Y-124674D01*
X988189Y-161420D02*
Y-169291D01*
X992125D01*
X993437Y-167979D01*
Y-162732D01*
X992125Y-161420D01*
X988189D01*
X999996Y-169291D02*
X997372D01*
X996060Y-167979D01*
Y-165356D01*
X997372Y-164044D01*
X999996D01*
X1001308Y-165356D01*
Y-166667D01*
X996060D01*
X1003932Y-169291D02*
X1007868D01*
X1009180Y-167979D01*
X1007868Y-166667D01*
X1005244D01*
X1003932Y-165356D01*
X1005244Y-164044D01*
X1009180D01*
X1014427Y-171915D02*
X1015739D01*
X1017051Y-170603D01*
Y-164044D01*
X1013115D01*
X1011803Y-165356D01*
Y-167979D01*
X1013115Y-169291D01*
X1017051D01*
X1019675D02*
X1022299D01*
X1020987D01*
Y-164044D01*
X1019675D01*
X1026235Y-169291D02*
Y-164044D01*
X1030170D01*
X1031482Y-165356D01*
Y-169291D01*
X1038042D02*
X1035418D01*
X1034106Y-167979D01*
Y-165356D01*
X1035418Y-164044D01*
X1038042D01*
X1039354Y-165356D01*
Y-166667D01*
X1034106D01*
X1041977Y-164044D02*
Y-169291D01*
Y-166667D01*
X1043289Y-165356D01*
X1044601Y-164044D01*
X1045913D01*
X1185039Y-43310D02*
Y-51181D01*
X1188975D01*
X1190287Y-49869D01*
Y-44622D01*
X1188975Y-43310D01*
X1185039D01*
X1194223Y-51181D02*
X1196847D01*
X1198158Y-49869D01*
Y-47245D01*
X1196847Y-45933D01*
X1194223D01*
X1192911Y-47245D01*
Y-49869D01*
X1194223Y-51181D01*
X1206030Y-45933D02*
X1202094D01*
X1200782Y-47245D01*
Y-49869D01*
X1202094Y-51181D01*
X1206030D01*
X1208654Y-45933D02*
Y-49869D01*
X1209966Y-51181D01*
X1213902D01*
Y-45933D01*
X1216525Y-51181D02*
Y-45933D01*
X1217837D01*
X1219149Y-47245D01*
Y-51181D01*
Y-47245D01*
X1220461Y-45933D01*
X1221773Y-47245D01*
Y-51181D01*
X1228333D02*
X1225709D01*
X1224397Y-49869D01*
Y-47245D01*
X1225709Y-45933D01*
X1228333D01*
X1229644Y-47245D01*
Y-48557D01*
X1224397D01*
X1232268Y-51181D02*
Y-45933D01*
X1236204D01*
X1237516Y-47245D01*
Y-51181D01*
X1241452Y-44622D02*
Y-45933D01*
X1240140D01*
X1242764D01*
X1241452D01*
Y-49869D01*
X1242764Y-51181D01*
X1185039Y-82680D02*
Y-90551D01*
X1190287D01*
X1194223Y-85303D02*
X1196847D01*
X1198158Y-86615D01*
Y-90551D01*
X1194223D01*
X1192911Y-89239D01*
X1194223Y-87927D01*
X1198158D01*
X1200782Y-85303D02*
Y-89239D01*
X1202094Y-90551D01*
X1206030D01*
Y-91863D01*
X1204718Y-93175D01*
X1203406D01*
X1206030Y-90551D02*
Y-85303D01*
X1212590Y-90551D02*
X1209966D01*
X1208654Y-89239D01*
Y-86615D01*
X1209966Y-85303D01*
X1212590D01*
X1213902Y-86615D01*
Y-87927D01*
X1208654D01*
X1216525Y-85303D02*
Y-90551D01*
Y-87927D01*
X1217837Y-86615D01*
X1219149Y-85303D01*
X1220461D01*
X1232268Y-90551D02*
Y-82680D01*
X1237516Y-90551D01*
Y-82680D01*
X1241452Y-85303D02*
X1244075D01*
X1245387Y-86615D01*
Y-90551D01*
X1241452D01*
X1240140Y-89239D01*
X1241452Y-87927D01*
X1245387D01*
X1248011Y-90551D02*
Y-85303D01*
X1249323D01*
X1250635Y-86615D01*
Y-90551D01*
Y-86615D01*
X1251947Y-85303D01*
X1253259Y-86615D01*
Y-90551D01*
X1259818D02*
X1257195D01*
X1255883Y-89239D01*
Y-86615D01*
X1257195Y-85303D01*
X1259818D01*
X1261130Y-86615D01*
Y-87927D01*
X1255883D01*
X1185039Y-122050D02*
Y-129921D01*
X1188975D01*
X1190287Y-128609D01*
Y-123362D01*
X1188975Y-122050D01*
X1185039D01*
X1194223Y-124674D02*
X1196847D01*
X1198158Y-125986D01*
Y-129921D01*
X1194223D01*
X1192911Y-128609D01*
X1194223Y-127297D01*
X1198158D01*
X1202094Y-123362D02*
Y-124674D01*
X1200782D01*
X1203406D01*
X1202094D01*
Y-128609D01*
X1203406Y-129921D01*
X1211278D02*
X1208654D01*
X1207342Y-128609D01*
Y-125986D01*
X1208654Y-124674D01*
X1211278D01*
X1212589Y-125986D01*
Y-127297D01*
X1207342D01*
X1185039Y-161420D02*
Y-169291D01*
X1188975D01*
X1190287Y-167979D01*
Y-162732D01*
X1188975Y-161420D01*
X1185039D01*
X1194223Y-169291D02*
X1196847D01*
X1198158Y-167979D01*
Y-165356D01*
X1196847Y-164044D01*
X1194223D01*
X1192911Y-165356D01*
Y-167979D01*
X1194223Y-169291D01*
X1206030Y-164044D02*
X1202094D01*
X1200782Y-165356D01*
Y-167979D01*
X1202094Y-169291D01*
X1206030D01*
X1208654Y-164044D02*
Y-167979D01*
X1209966Y-169291D01*
X1213902D01*
Y-164044D01*
X1216525Y-169291D02*
Y-164044D01*
X1217837D01*
X1219149Y-165356D01*
Y-169291D01*
Y-165356D01*
X1220461Y-164044D01*
X1221773Y-165356D01*
Y-169291D01*
X1228333D02*
X1225709D01*
X1224397Y-167979D01*
Y-165356D01*
X1225709Y-164044D01*
X1228333D01*
X1229644Y-165356D01*
Y-166667D01*
X1224397D01*
X1232268Y-169291D02*
Y-164044D01*
X1236204D01*
X1237516Y-165356D01*
Y-169291D01*
X1241452Y-162732D02*
Y-164044D01*
X1240140D01*
X1242764D01*
X1241452D01*
Y-167979D01*
X1242764Y-169291D01*
D33*
X192362Y196693D02*
X197954D01*
X213779Y66535D02*
X218504D01*
X213189Y67126D02*
X213779Y66535D01*
X213189Y67126D02*
Y70472D01*
X218504Y66535D02*
X218701Y66732D01*
Y75984D01*
X218622Y76063D02*
X218701Y75984D01*
X218622Y76063D02*
Y88169D01*
X23425Y57874D02*
X26181D01*
X22835Y62795D02*
X26378D01*
X17323D02*
X17520Y62598D01*
Y57874D02*
Y62598D01*
X57874Y197638D02*
Y204724D01*
X60630Y207480D01*
X67716Y197638D02*
Y203150D01*
X70472Y205906D01*
X76772Y192520D02*
X125591D01*
X74291Y195000D02*
X76772Y192520D01*
X55000Y195000D02*
X74291D01*
X50000Y190000D02*
X55000Y195000D01*
X60000Y190000D02*
X65000Y185000D01*
X78347Y190157D02*
X124724D01*
X65000Y185000D02*
X73189D01*
X78347Y190157D01*
X231496Y179921D02*
X232185D01*
X231299Y180118D02*
X231496Y179921D01*
X231299Y180118D02*
Y187008D01*
X225787Y179921D02*
X232185D01*
X224803Y180905D02*
X225787Y179921D01*
X241437Y176181D02*
Y179921D01*
Y172441D02*
Y176181D01*
X247047Y179134D02*
X250000D01*
X246260Y179921D02*
X247047Y179134D01*
X241437Y179921D02*
X246260D01*
X120669Y118110D02*
X123721Y121161D01*
X116634Y118110D02*
X120669D01*
X117027Y114567D02*
X121732D01*
X116634Y114173D02*
X117027Y114567D01*
X116634Y116142D02*
X121358D01*
X116634Y112205D02*
X126378D01*
X74803Y100394D02*
X88090D01*
X64764Y90354D02*
X74803Y100394D01*
X62992Y90354D02*
X64764D01*
X139961D02*
X141732D01*
X129921Y100394D02*
X139961Y90354D01*
X116634Y100394D02*
X129921D01*
X116634Y125984D02*
X125000D01*
X88090Y89468D02*
Y92520D01*
X86221Y87598D02*
X88090Y89468D01*
X86221Y83661D02*
Y87598D01*
X118504Y83661D02*
Y87598D01*
X116634Y89468D02*
X118504Y87598D01*
X116634Y89468D02*
Y92520D01*
X64370Y121850D02*
X66437Y119783D01*
Y117913D02*
Y119783D01*
Y117913D02*
X68602Y115748D01*
X82579D01*
X62992Y121850D02*
X64370D01*
X62992Y114370D02*
X73833D01*
X73833Y114370D01*
X77742D01*
X88090Y114173D02*
X88090Y114173D01*
X77742Y114370D02*
X77742Y114370D01*
X82382D01*
X82579Y114173D01*
X88090D01*
X82973Y116142D02*
X88090D01*
X82579Y115748D02*
X82973Y116142D01*
X62992Y114370D02*
X62992Y114370D01*
X77756Y119095D02*
X78740Y118110D01*
X88090D01*
X77756Y123425D02*
Y124016D01*
Y123031D02*
Y123425D01*
Y123031D02*
X80709Y120079D01*
X88090D01*
X81890Y124016D02*
X88090D01*
X79724Y126181D02*
X81890Y124016D01*
X71850Y123425D02*
Y123819D01*
X74213Y126181D01*
X79724D01*
X77756Y133268D02*
Y133858D01*
Y133268D02*
X79134Y131890D01*
X88090D01*
X125000Y125984D02*
X126969Y127953D01*
X147638Y142126D02*
X150394Y144882D01*
X140945Y142126D02*
X147638D01*
X150394Y144882D02*
Y154724D01*
X134843Y124803D02*
X135827D01*
X140354Y130905D02*
X141732D01*
X135827Y124803D02*
X137795Y126772D01*
Y128347D01*
X140354Y130905D01*
X140157Y125591D02*
X141732D01*
X116634Y108268D02*
X140945D01*
X116634Y106299D02*
X144882D01*
X146260Y107677D01*
X150000D01*
X150591D01*
X153543Y110630D01*
Y115748D01*
X151181Y118110D02*
X153543Y115748D01*
X149606Y118110D02*
X151181D01*
X145669Y113583D02*
X150000D01*
X145079Y112992D02*
X145669Y113583D01*
X140945Y108268D02*
X145079Y112402D01*
Y112992D01*
X136221Y121653D02*
X140157Y125591D01*
X140157Y118110D02*
X141732D01*
X137992Y120276D02*
X140157Y118110D01*
X123721Y121161D02*
X130610D01*
X134547Y125098D01*
X126378Y112205D02*
X126969Y112795D01*
X121732Y114567D02*
X124882Y117717D01*
X121358Y116142D02*
X124508Y119291D01*
X124882Y117717D02*
X131496D01*
X134055Y120276D01*
X137992D01*
X124508Y119291D02*
X131102D01*
X133465Y121653D01*
X136221D01*
X82677Y133858D02*
X88090D01*
X79134Y137402D02*
X82677Y133858D01*
X83465Y137795D02*
X88090D01*
X81890Y139370D02*
X83465Y137795D01*
X116634Y122047D02*
X121654D01*
X122539Y122933D01*
X127657D01*
X131496Y126772D01*
X125591Y192520D02*
X131496Y186614D01*
Y126772D02*
Y186614D01*
X116634Y124016D02*
X121260D01*
X121752Y124508D01*
X126870D01*
X129724Y127362D01*
X124724Y190157D02*
X129724Y185158D01*
Y127362D02*
Y185158D01*
X17520Y52362D02*
Y57874D01*
X77165Y147244D02*
X79134Y145276D01*
Y137402D02*
Y145276D01*
X77165Y147244D02*
Y182677D01*
X81890Y139370D02*
Y147244D01*
Y150394D01*
X153150Y135039D02*
Y154331D01*
X187795Y174016D02*
Y203937D01*
X190157Y206299D02*
X198031D01*
X187795Y203937D02*
X190157Y206299D01*
X197954Y196693D02*
X202954Y201693D01*
X42954Y197046D02*
Y201693D01*
Y197046D02*
X50000Y190000D01*
X60630Y207480D02*
X127953D01*
X118741Y205906D02*
X122954Y201693D01*
X70472Y205906D02*
X118741D01*
X127559Y194882D02*
X136944Y185496D01*
Y150330D02*
Y185496D01*
X88189Y194882D02*
X127559D01*
X190157Y194488D02*
X192362Y196693D01*
X190157Y172835D02*
Y194488D01*
X174803Y157480D02*
X190157Y172835D01*
X153150Y154331D02*
X156299Y157480D01*
X174803D01*
X150394Y154724D02*
X155512Y159843D01*
X173622D01*
X187795Y174016D01*
X255906Y208661D02*
G03*
X244094Y220472I-11811J0D01*
G01*
Y0D02*
G03*
X255906Y11811I0J11811D01*
G01*
X0D02*
G03*
X11811Y0I11811J0D01*
G01*
Y220472D02*
G03*
X0Y208661I0J-11811D01*
G01*
Y11811D02*
Y208661D01*
X11811Y0D02*
X244094D01*
X11811Y220472D02*
X244094D01*
X255906Y11811D02*
Y208661D01*
X1338583Y-157480D02*
Y-118110D01*
X1181102Y-78740D02*
X1456693D01*
X1181102Y-118110D02*
X1456693D01*
X984252Y-157480D02*
X1456693D01*
X984252Y-39370D02*
X1456693D01*
X984252Y-196850D02*
Y-39370D01*
X1181102Y-196850D02*
Y-39370D01*
X-196850Y972441D02*
X1456693D01*
Y-196850D02*
Y972441D01*
X-196850Y-196850D02*
Y972441D01*
Y-196850D02*
X1456693D01*
X1190945Y-188976D02*
Y-183073D01*
X1193897D01*
X1194881Y-184057D01*
Y-186025D01*
X1193897Y-187009D01*
X1190945D01*
X1192913D02*
X1194881Y-188976D01*
X1196848D02*
Y-183073D01*
X1199800D01*
X1200784Y-184057D01*
Y-186025D01*
X1199800Y-187009D01*
X1196848D01*
X1202752Y-183073D02*
X1204720D01*
X1203736D01*
Y-188976D01*
X1202752D01*
X1204720D01*
X1207672Y-189960D02*
X1211607D01*
X1213575Y-183073D02*
Y-188976D01*
Y-186025D01*
X1217511D01*
Y-183073D01*
Y-188976D01*
X1219479D02*
Y-185041D01*
X1221447Y-183073D01*
X1223415Y-185041D01*
Y-188976D01*
Y-186025D01*
X1219479D01*
X1225383Y-183073D02*
X1229318D01*
X1227350D01*
Y-188976D01*
X1231286Y-189960D02*
X1235222D01*
X1237190Y-188976D02*
Y-185041D01*
X1239158Y-183073D01*
X1241125Y-185041D01*
Y-188976D01*
Y-186025D01*
X1237190D01*
X1243093Y-188976D02*
Y-183073D01*
X1245061Y-185041D01*
X1247029Y-183073D01*
Y-188976D01*
X1248997D02*
Y-183073D01*
X1251949D01*
X1252933Y-184057D01*
Y-186025D01*
X1251949Y-187009D01*
X1248997D01*
X1254900Y-189960D02*
X1258836D01*
X1260804Y-183073D02*
X1264740D01*
X1262772D01*
Y-188976D01*
X1266708D02*
Y-185041D01*
X1268676Y-183073D01*
X1270644Y-185041D01*
Y-188976D01*
Y-186025D01*
X1266708D01*
X1276547Y-184057D02*
X1275563Y-183073D01*
X1273595D01*
X1272611Y-184057D01*
Y-185041D01*
X1273595Y-186025D01*
X1275563D01*
X1276547Y-187009D01*
Y-187993D01*
X1275563Y-188976D01*
X1273595D01*
X1272611Y-187993D01*
X1282451Y-183073D02*
X1278515D01*
Y-186025D01*
X1280483Y-185041D01*
X1281467D01*
X1282451Y-186025D01*
Y-187993D01*
X1281467Y-188976D01*
X1279499D01*
X1278515Y-187993D01*
X1284418Y-183073D02*
X1288354D01*
Y-184057D01*
X1284418Y-187993D01*
Y-188976D01*
X1294258Y-183073D02*
X1290322D01*
Y-186025D01*
X1292290Y-185041D01*
X1293274D01*
X1294258Y-186025D01*
Y-187993D01*
X1293274Y-188976D01*
X1291306D01*
X1290322Y-187993D01*
X1300161Y-183073D02*
X1298194Y-184057D01*
X1296226Y-186025D01*
Y-187993D01*
X1297210Y-188976D01*
X1299177D01*
X1300161Y-187993D01*
Y-187009D01*
X1299177Y-186025D01*
X1296226D01*
X1302129Y-189960D02*
X1306065D01*
X1308033Y-184057D02*
X1309017Y-183073D01*
X1310985D01*
X1311969Y-184057D01*
Y-187993D01*
X1310985Y-188976D01*
X1309017D01*
X1308033Y-187993D01*
Y-184057D01*
X1313937Y-188976D02*
X1315904D01*
X1314921D01*
Y-183073D01*
X1313937Y-184057D01*
X1318856Y-188976D02*
Y-187993D01*
X1319840D01*
Y-188976D01*
X1318856D01*
X1323776D02*
Y-183073D01*
X1326728D01*
X1327712Y-184057D01*
Y-186025D01*
X1326728Y-187009D01*
X1323776D01*
X1333615Y-185041D02*
X1330663D01*
X1329679Y-186025D01*
Y-187993D01*
X1330663Y-188976D01*
X1333615D01*
X1335583Y-183073D02*
Y-188976D01*
X1338535D01*
X1339519Y-187993D01*
Y-187009D01*
Y-186025D01*
X1338535Y-185041D01*
X1335583D01*
X1341487Y-183073D02*
Y-188976D01*
X1344438D01*
X1345422Y-187993D01*
Y-184057D01*
X1344438Y-183073D01*
X1341487D01*
X1348374Y-188976D02*
X1350342D01*
X1351326Y-187993D01*
Y-186025D01*
X1350342Y-185041D01*
X1348374D01*
X1347390Y-186025D01*
Y-187993D01*
X1348374Y-188976D01*
X1357230Y-185041D02*
X1354278D01*
X1353294Y-186025D01*
Y-187993D01*
X1354278Y-188976D01*
X1357230D01*
D34*
X73228Y182677D02*
X74803Y181102D01*
X47323Y182677D02*
X73228D01*
X40000Y190000D02*
X47323Y182677D01*
X73228D02*
X78150Y187598D01*
X74803Y131890D02*
Y181102D01*
Y131890D02*
X77756Y128937D01*
X23228Y52165D02*
X23425Y52362D01*
X23228Y48819D02*
Y52165D01*
X21850Y47441D02*
X23228Y48819D01*
X21850Y46850D02*
Y47441D01*
X21654Y41142D02*
X21850Y41339D01*
X21654Y35433D02*
Y41142D01*
X21850Y41339D02*
Y46850D01*
X104331Y77362D02*
X107087D01*
X104331Y73917D02*
Y77362D01*
X78150Y187598D02*
X112757D01*
X237205Y187008D02*
X240158D01*
X250000Y170276D02*
Y173228D01*
X134843Y130709D02*
Y133465D01*
X147933Y132677D02*
X148622D01*
X147638Y132382D02*
X147933Y132677D01*
X147638Y128740D02*
Y132382D01*
X135039Y113386D02*
Y117717D01*
X134646Y112992D02*
X135039Y113386D01*
X134646Y112992D02*
X139173D01*
X140157Y138583D02*
X148622D01*
X102362Y65551D02*
Y68602D01*
X112757Y187598D02*
X112954Y187402D01*
Y201693D02*
X117402Y197244D01*
X143307D01*
X147638Y192913D01*
X137402Y141339D02*
X140157Y138583D01*
X137402Y141339D02*
Y143764D01*
X140157Y146520D01*
Y181890D01*
X143307Y185039D01*
D35*
X200394Y68307D02*
X202362D01*
Y65158D02*
Y68307D01*
X198425Y65158D02*
Y68307D01*
X200394D01*
X213622Y77795D02*
Y80295D01*
X212795Y76968D02*
X213622Y77795D01*
X212795Y75984D02*
Y76968D01*
X213622Y80295D02*
Y88169D01*
X223819Y79921D02*
Y88169D01*
X223622D02*
X223819D01*
X224016Y62795D02*
X227953D01*
X223031Y72441D02*
Y75984D01*
X240551Y65551D02*
Y68701D01*
X248031Y84449D02*
X250000D01*
X248031Y81299D02*
Y84449D01*
X251969Y81299D02*
Y84449D01*
X250000D02*
X251969D01*
X237402Y148425D02*
Y158661D01*
X242126Y148425D02*
Y153543D01*
Y158661D01*
X246850Y148425D02*
Y158661D01*
X194488Y162205D02*
X204724D01*
X199606Y166929D02*
X204724D01*
X194488D02*
X199606D01*
X194488Y171653D02*
X204724D01*
X8071Y72441D02*
X14173D01*
X3740Y68110D02*
X8071Y72441D01*
X109449Y71850D02*
Y74410D01*
Y71850D02*
X110630D01*
X57480Y112795D02*
Y119291D01*
Y112795D02*
X59843Y110433D01*
X212205Y51181D02*
Y54331D01*
X208661Y51181D02*
Y54331D01*
X205118Y51181D02*
Y54331D01*
X201575Y51181D02*
Y54331D01*
X169488Y33071D02*
X169882Y32677D01*
X167126Y37795D02*
X169488D01*
X167126Y37795D02*
X167126Y37795D01*
X169488D02*
X169882Y38189D01*
X147638Y92520D02*
Y95669D01*
X64961Y95669D02*
Y98819D01*
X61024Y95669D02*
Y98819D01*
X34449Y37402D02*
X37598D01*
X34449Y33465D02*
X37598D01*
X167126Y33071D02*
X169488D01*
X121063Y37402D02*
X124213D01*
X121063Y33465D02*
X124213D01*
X80512D02*
X83661D01*
X80512Y37402D02*
X83661D01*
X207874Y192126D02*
Y216693D01*
X59843Y110433D02*
X69980D01*
X68701Y133858D02*
X71850D01*
X68701Y128937D02*
X71850D01*
X69095Y118898D02*
X71457D01*
X71850Y118504D01*
X147638Y125591D02*
Y128740D01*
X151575Y125591D02*
Y128740D01*
X140945Y95669D02*
X145669D01*
X218110Y191732D02*
Y216752D01*
X217323Y190945D02*
X218110Y191732D01*
X207874Y192126D02*
X209055Y190945D01*
X1202756Y-96461D02*
X1211939D01*
X1207348D01*
Y-110236D01*
X1218827D02*
X1223419D01*
X1225714Y-107940D01*
Y-103349D01*
X1223419Y-101053D01*
X1218827D01*
X1216531Y-103349D01*
Y-107940D01*
X1218827Y-110236D01*
X1230306Y-114828D02*
Y-101053D01*
X1237194D01*
X1239489Y-103349D01*
Y-107940D01*
X1237194Y-110236D01*
X1230306D01*
X1257856Y-96461D02*
Y-110236D01*
X1267040D01*
X1273927Y-101053D02*
X1278519D01*
X1280815Y-103349D01*
Y-110236D01*
X1273927D01*
X1271631Y-107940D01*
X1273927Y-105645D01*
X1280815D01*
X1285406Y-101053D02*
Y-107940D01*
X1287702Y-110236D01*
X1294590D01*
Y-112532D01*
X1292294Y-114828D01*
X1289998D01*
X1294590Y-110236D02*
Y-101053D01*
X1306069Y-110236D02*
X1301477D01*
X1299181Y-107940D01*
Y-103349D01*
X1301477Y-101053D01*
X1306069D01*
X1308365Y-103349D01*
Y-105645D01*
X1299181D01*
X1312957Y-101053D02*
Y-110236D01*
Y-105645D01*
X1315252Y-103349D01*
X1317548Y-101053D01*
X1319844D01*
X1005906Y-175202D02*
Y-190945D01*
X1011153Y-185697D01*
X1016401Y-190945D01*
Y-175202D01*
X1021649Y-190945D02*
X1026896D01*
X1024272D01*
Y-180450D01*
X1021649D01*
X1034768Y-190945D02*
Y-180450D01*
X1037391D01*
X1040015Y-183073D01*
Y-190945D01*
Y-183073D01*
X1042639Y-180450D01*
X1045263Y-183073D01*
Y-190945D01*
X1050511Y-175202D02*
Y-185697D01*
X1055758Y-190945D01*
X1061006Y-185697D01*
Y-175202D01*
X1076749Y-177826D02*
X1074125Y-175202D01*
X1068877D01*
X1066253Y-177826D01*
Y-188321D01*
X1068877Y-190945D01*
X1074125D01*
X1076749Y-188321D01*
Y-183073D01*
X1071501D01*
X1360236Y-138456D02*
X1362860Y-135832D01*
X1368108D01*
X1370732Y-138456D01*
Y-148951D01*
X1368108Y-151575D01*
X1362860D01*
X1360236Y-148951D01*
Y-138456D01*
X1375979Y-151575D02*
X1381227D01*
X1378603D01*
Y-135832D01*
X1375979Y-138456D01*
X1206034Y-151575D02*
X1196850D01*
X1206034Y-142391D01*
Y-140096D01*
X1203738Y-137800D01*
X1199146D01*
X1196850Y-140096D01*
X1210625Y-149279D02*
X1212921Y-151575D01*
X1217513D01*
X1219809Y-149279D01*
Y-140096D01*
X1217513Y-137800D01*
X1212921D01*
X1210625Y-140096D01*
Y-142391D01*
X1212921Y-144687D01*
X1219809D01*
X1224401Y-151575D02*
X1233584Y-142391D01*
X1238176Y-140096D02*
X1240471Y-137800D01*
X1245063D01*
X1247359Y-140096D01*
Y-149279D01*
X1245063Y-151575D01*
X1240471D01*
X1238176Y-149279D01*
Y-140096D01*
X1251951D02*
X1254247Y-137800D01*
X1258838D01*
X1261134Y-140096D01*
Y-142391D01*
X1258838Y-144687D01*
X1261134Y-146983D01*
Y-149279D01*
X1258838Y-151575D01*
X1254247D01*
X1251951Y-149279D01*
Y-146983D01*
X1254247Y-144687D01*
X1251951Y-142391D01*
Y-140096D01*
X1254247Y-144687D02*
X1258838D01*
X1265726Y-151575D02*
X1274909Y-142391D01*
X1288684Y-151575D02*
X1279501D01*
X1288684Y-142391D01*
Y-140096D01*
X1286388Y-137800D01*
X1281797D01*
X1279501Y-140096D01*
X1293276D02*
X1295572Y-137800D01*
X1300163D01*
X1302459Y-140096D01*
Y-149279D01*
X1300163Y-151575D01*
X1295572D01*
X1293276Y-149279D01*
Y-140096D01*
X1307051Y-151575D02*
X1311643D01*
X1309347D01*
Y-137800D01*
X1307051Y-140096D01*
X1327714Y-137800D02*
X1318530D01*
Y-144687D01*
X1323122Y-142391D01*
X1325418D01*
X1327714Y-144687D01*
Y-149279D01*
X1325418Y-151575D01*
X1320826D01*
X1318530Y-149279D01*
X1190945Y-57092D02*
X1201440D01*
X1196192D01*
Y-72835D01*
X1206688D02*
Y-62339D01*
X1211936Y-57092D01*
X1217183Y-62339D01*
Y-72835D01*
Y-64963D01*
X1206688D01*
X1232926Y-59715D02*
X1230302Y-57092D01*
X1225055D01*
X1222431Y-59715D01*
Y-62339D01*
X1225055Y-64963D01*
X1230302D01*
X1232926Y-67587D01*
Y-70211D01*
X1230302Y-72835D01*
X1225055D01*
X1222431Y-70211D01*
X1248669Y-57092D02*
X1238174D01*
Y-64963D01*
X1243421Y-62339D01*
X1246045D01*
X1248669Y-64963D01*
Y-70211D01*
X1246045Y-72835D01*
X1240798D01*
X1238174Y-70211D01*
X1253917Y-57092D02*
X1264412D01*
Y-59715D01*
X1253917Y-70211D01*
Y-72835D01*
X1280155Y-57092D02*
X1269660D01*
Y-64963D01*
X1274907Y-62339D01*
X1277531D01*
X1280155Y-64963D01*
Y-70211D01*
X1277531Y-72835D01*
X1272283D01*
X1269660Y-70211D01*
X1295898Y-57092D02*
X1290650Y-59715D01*
X1285402Y-64963D01*
Y-70211D01*
X1288026Y-72835D01*
X1293274D01*
X1295898Y-70211D01*
Y-67587D01*
X1293274Y-64963D01*
X1285402D01*
X1316888Y-57092D02*
Y-72835D01*
Y-64963D01*
X1327384D01*
Y-57092D01*
Y-72835D01*
X1332631D02*
Y-62339D01*
X1337879Y-57092D01*
X1343127Y-62339D01*
Y-72835D01*
Y-64963D01*
X1332631D01*
X1348374Y-57092D02*
X1358870D01*
X1353622D01*
Y-72835D01*
D36*
X100394Y71653D02*
Y73917D01*
X98819Y70079D02*
X100394Y71653D01*
X104724Y64173D02*
X104724Y66535D01*
X102953Y62402D02*
X104724Y64173D01*
X104331Y66929D02*
X104724Y66535D01*
X104331Y66929D02*
Y68602D01*
X100394Y66929D02*
Y68602D01*
X100000Y66535D02*
X100394Y66929D01*
X100000Y64173D02*
Y66535D01*
X93110Y3740D02*
X102953Y13583D01*
X37936Y3740D02*
X93110D01*
X31102Y10574D02*
X37936Y3740D01*
X102953Y13583D02*
Y62402D01*
X92154Y5512D02*
X101772Y15130D01*
X27953Y47047D02*
Y51181D01*
X27756Y46850D02*
X27953Y47047D01*
X27756Y25394D02*
Y41339D01*
X27559Y41142D02*
X27756Y41339D01*
X27559Y36220D02*
Y41142D01*
X27756Y25394D02*
X33071Y20079D01*
X27756Y46260D02*
X30709Y43307D01*
Y24803D02*
Y43307D01*
Y24803D02*
X35039Y20472D01*
X27756Y46260D02*
Y46850D01*
X17520Y51772D02*
X18504Y50787D01*
Y32283D02*
Y50787D01*
Y32283D02*
X31102Y19685D01*
X35039Y12205D02*
Y20472D01*
X33071Y11389D02*
Y20079D01*
X31102Y10574D02*
Y19685D01*
X98819Y63386D02*
X100591Y61614D01*
Y16732D02*
Y61614D01*
X90945Y7087D02*
X100591Y16732D01*
X100000Y64173D02*
X101772Y62402D01*
Y15130D02*
Y62402D01*
X98819Y63386D02*
Y70079D01*
X38948Y5512D02*
X92154D01*
X17520Y51772D02*
Y52362D01*
X35039Y12205D02*
X40157Y7087D01*
X90945D01*
X33071Y11389D02*
X38948Y5512D01*
D37*
X6693Y49213D02*
X7480Y50000D01*
Y58661D01*
D38*
X167323Y114961D02*
Y118110D01*
X171260Y114961D02*
Y118110D01*
X157480Y114961D02*
Y118110D01*
X161417Y114961D02*
Y118110D01*
X50197Y124803D02*
Y127953D01*
X54134Y124803D02*
Y127953D01*
X40354Y124803D02*
Y127953D01*
X44291Y124803D02*
Y127953D01*
X158465Y82874D02*
Y86024D01*
X154528Y82874D02*
Y86024D01*
X168307Y82874D02*
Y86024D01*
X164370Y82874D02*
Y86024D01*
X50197Y88583D02*
Y91732D01*
X54134Y88583D02*
Y91732D01*
X40354Y88583D02*
Y91732D01*
X44291Y88583D02*
Y91732D01*
D39*
X160138Y178347D02*
X160335Y178150D01*
X152954Y193503D02*
X153543Y192913D01*
X152954Y193503D02*
Y201693D01*
X166339Y170591D02*
Y177165D01*
Y170591D02*
X169606Y167323D01*
D40*
X45276Y151575D02*
D03*
X242126Y13780D02*
D03*
Y206693D02*
D03*
X13780D02*
D03*
Y13780D02*
D03*
D41*
X6693Y49213D02*
D03*
X10000Y180000D02*
D03*
D42*
X6693Y39213D02*
D03*
X60000Y190000D02*
D03*
X50000D02*
D03*
X40000D02*
D03*
X192954Y201693D02*
D03*
X192954Y211693D02*
D03*
X172954D02*
D03*
Y201693D02*
D03*
X182954Y211693D02*
D03*
X182954Y201693D02*
D03*
X152954Y211693D02*
D03*
Y201693D02*
D03*
X162954Y211693D02*
D03*
X162954Y201693D02*
D03*
X202954Y211693D02*
D03*
X202954Y201693D02*
D03*
X222954Y201693D02*
D03*
X222954Y211693D02*
D03*
X212954Y201693D02*
D03*
Y211693D02*
D03*
X142954D02*
D03*
Y201693D02*
D03*
X122954Y211693D02*
D03*
Y201693D02*
D03*
X132954Y211693D02*
D03*
X132954Y201693D02*
D03*
X112954D02*
D03*
Y211693D02*
D03*
X32954Y201693D02*
D03*
X42954Y211693D02*
D03*
Y201693D02*
D03*
X52953Y211693D02*
D03*
X52953Y201693D02*
D03*
X72953D02*
D03*
X72954Y211693D02*
D03*
X62954Y201693D02*
D03*
Y211693D02*
D03*
X92954Y201693D02*
D03*
X92954Y211693D02*
D03*
X82954Y201693D02*
D03*
Y211693D02*
D03*
X102954D02*
D03*
X102954Y201693D02*
D03*
X10000Y170000D02*
D03*
Y160000D02*
D03*
Y150000D02*
D03*
D43*
X179606Y177323D02*
D03*
X169606Y167323D02*
D03*
X179606Y187323D02*
D03*
X149606Y167323D02*
D03*
X159606D02*
D03*
D44*
X70000Y190000D02*
D03*
X32954Y211693D02*
D03*
D45*
X194724Y13780D02*
D03*
X135669D02*
D03*
X49055D02*
D03*
D46*
X214724D02*
D03*
X155669D02*
D03*
X69055D02*
D03*
D47*
X31496Y143701D02*
D03*
X115748Y15945D02*
D03*
X107087D02*
D03*
X111417D02*
D03*
X93307D02*
D03*
X88976D02*
D03*
X98819Y5118D02*
D03*
X115748Y21063D02*
D03*
X107087D02*
D03*
X111417D02*
D03*
X93307D02*
D03*
X97638D02*
D03*
X88976D02*
D03*
X115748Y26181D02*
D03*
X107087D02*
D03*
X111417D02*
D03*
X93307D02*
D03*
X97638D02*
D03*
X88976D02*
D03*
X114173Y168307D02*
D03*
X113386Y163189D02*
D03*
X120079Y168307D02*
D03*
X118898Y163189D02*
D03*
X85827D02*
D03*
X84646Y168307D02*
D03*
X91339Y163189D02*
D03*
X90551Y168307D02*
D03*
X102362D02*
D03*
X108268D02*
D03*
X96457D02*
D03*
X102362Y163189D02*
D03*
X107874D02*
D03*
X96850D02*
D03*
X97638Y103347D02*
D03*
Y98622D02*
D03*
Y131693D02*
D03*
X102362D02*
D03*
X107087D02*
D03*
X97638Y126969D02*
D03*
X102362D02*
D03*
X107087D02*
D03*
X97638Y122244D02*
D03*
X102362D02*
D03*
X107087D02*
D03*
X97638Y117520D02*
D03*
X102362D02*
D03*
X107087D02*
D03*
X102362Y103347D02*
D03*
X107087D02*
D03*
X102362Y98622D02*
D03*
X107087D02*
D03*
X206693Y151575D02*
D03*
X202756Y147638D02*
D03*
X194882D02*
D03*
X198819Y151575D02*
D03*
X187008Y147638D02*
D03*
X190945Y151575D02*
D03*
X187008Y131890D02*
D03*
Y124016D02*
D03*
Y116142D02*
D03*
X190945Y135827D02*
D03*
Y127953D02*
D03*
Y120079D02*
D03*
Y143701D02*
D03*
X187008Y139764D02*
D03*
X194882Y131890D02*
D03*
Y124016D02*
D03*
Y116142D02*
D03*
X198819Y135827D02*
D03*
Y127953D02*
D03*
Y120079D02*
D03*
Y143701D02*
D03*
X194882Y139764D02*
D03*
X202756D02*
D03*
X206693Y143701D02*
D03*
X222441Y143701D02*
D03*
X214567D02*
D03*
X222441Y135827D02*
D03*
X230315D02*
D03*
X226378Y139764D02*
D03*
X210630Y139764D02*
D03*
X214567Y135827D02*
D03*
X218504Y139764D02*
D03*
X210630Y131890D02*
D03*
Y124016D02*
D03*
Y116142D02*
D03*
Y108268D02*
D03*
Y100394D02*
D03*
X206693Y104331D02*
D03*
Y112205D02*
D03*
Y120079D02*
D03*
Y127953D02*
D03*
Y135827D02*
D03*
X202756Y100394D02*
D03*
Y108268D02*
D03*
Y116142D02*
D03*
Y124016D02*
D03*
Y131890D02*
D03*
X244094D02*
D03*
Y124016D02*
D03*
Y116142D02*
D03*
Y108268D02*
D03*
Y100394D02*
D03*
X240158Y135827D02*
D03*
Y127953D02*
D03*
Y120079D02*
D03*
Y112205D02*
D03*
Y104331D02*
D03*
X236221Y100394D02*
D03*
Y108268D02*
D03*
Y116142D02*
D03*
Y124016D02*
D03*
Y131890D02*
D03*
X202362Y65158D02*
D03*
X198425D02*
D03*
X213622Y80295D02*
D03*
X223819Y79921D02*
D03*
X224016Y62795D02*
D03*
X223031Y72441D02*
D03*
X240551Y65551D02*
D03*
X248031Y81299D02*
D03*
X251969D02*
D03*
X237402Y158661D02*
D03*
Y148425D02*
D03*
X242126D02*
D03*
Y158661D02*
D03*
X246850Y148425D02*
D03*
Y158661D02*
D03*
X204724Y162205D02*
D03*
X194488D02*
D03*
X204724Y166929D02*
D03*
X194488D02*
D03*
Y171653D02*
D03*
X204724D02*
D03*
X14173Y72441D02*
D03*
X27559Y36220D02*
D03*
X27953Y51181D02*
D03*
X21654Y35433D02*
D03*
X26181Y57874D02*
D03*
X26378Y62795D02*
D03*
X109449Y74410D02*
D03*
X88976Y31299D02*
D03*
X97638D02*
D03*
X88976Y36417D02*
D03*
X97638D02*
D03*
X88976Y41536D02*
D03*
X97638D02*
D03*
X88976Y46654D02*
D03*
X97638D02*
D03*
Y51772D02*
D03*
X88976D02*
D03*
X93307D02*
D03*
Y46654D02*
D03*
Y41536D02*
D03*
Y36417D02*
D03*
Y31299D02*
D03*
X111417D02*
D03*
Y36417D02*
D03*
Y41536D02*
D03*
Y46654D02*
D03*
Y51772D02*
D03*
X57480Y119291D02*
D03*
X167323Y118110D02*
D03*
X171260D02*
D03*
X157480D02*
D03*
X161417D02*
D03*
X50197Y127953D02*
D03*
X54134D02*
D03*
X40354D02*
D03*
X44291D02*
D03*
X57874Y197638D02*
D03*
X67716D02*
D03*
X158465Y82874D02*
D03*
X154528D02*
D03*
X168307D02*
D03*
X164370D02*
D03*
X160630Y107480D02*
D03*
X156693D02*
D03*
X168504D02*
D03*
X164567D02*
D03*
X48228Y108858D02*
D03*
X52165D02*
D03*
X40354D02*
D03*
X44291D02*
D03*
X240158Y187008D02*
D03*
X250000Y170276D02*
D03*
X212205Y54331D02*
D03*
X208661D02*
D03*
X205118D02*
D03*
X201575D02*
D03*
X147638Y92520D02*
D03*
X64961Y98819D02*
D03*
X61024D02*
D03*
X147638Y128740D02*
D03*
X50197Y88583D02*
D03*
X54134D02*
D03*
X40354D02*
D03*
X44291D02*
D03*
X34449Y37402D02*
D03*
Y33465D02*
D03*
X169882Y38189D02*
D03*
Y32677D02*
D03*
X121063Y37402D02*
D03*
Y33465D02*
D03*
X83661D02*
D03*
Y37402D02*
D03*
X150886Y189272D02*
D03*
X126969Y139764D02*
D03*
X68701Y133858D02*
D03*
Y128937D02*
D03*
X69095Y118898D02*
D03*
X102362Y137598D02*
D03*
X105905D02*
D03*
X98819D02*
D03*
X95276D02*
D03*
X109449D02*
D03*
X110236Y142717D02*
D03*
X94488D02*
D03*
X98425D02*
D03*
X106299D02*
D03*
X102362D02*
D03*
Y147835D02*
D03*
X106693D02*
D03*
X98032D02*
D03*
X93701D02*
D03*
X111024D02*
D03*
X111811Y152953D02*
D03*
X92913D02*
D03*
X97638D02*
D03*
X107087D02*
D03*
X102362D02*
D03*
X114961Y173425D02*
D03*
X89764D02*
D03*
X96063D02*
D03*
X108661D02*
D03*
X102362D02*
D03*
Y178543D02*
D03*
X109055D02*
D03*
X95669D02*
D03*
X88976D02*
D03*
X115748D02*
D03*
Y51772D02*
D03*
X107087D02*
D03*
X109055Y56890D02*
D03*
X96063D02*
D03*
X89764D02*
D03*
X114961D02*
D03*
X114173Y62008D02*
D03*
X90551D02*
D03*
X96457D02*
D03*
X109055D02*
D03*
X102362Y65551D02*
D03*
X96457Y67126D02*
D03*
X91339D02*
D03*
X114961D02*
D03*
X92126Y72244D02*
D03*
X97244D02*
D03*
X107087Y77362D02*
D03*
X97638D02*
D03*
X92913D02*
D03*
X111811D02*
D03*
X111024Y82480D02*
D03*
X93701D02*
D03*
X98032D02*
D03*
X106693D02*
D03*
X102362D02*
D03*
Y87599D02*
D03*
X106299D02*
D03*
X98425D02*
D03*
X94488D02*
D03*
X110236D02*
D03*
X109449Y92717D02*
D03*
X95276D02*
D03*
X98819D02*
D03*
X105905D02*
D03*
X102362D02*
D03*
X165354Y182087D02*
D03*
X172244D02*
D03*
X134843Y133465D02*
D03*
X112954Y187402D02*
D03*
X140945Y142126D02*
D03*
X151575Y128740D02*
D03*
X135039Y117717D02*
D03*
X140945Y95669D02*
D03*
X102362Y77362D02*
D03*
X90551Y87599D02*
D03*
X114173D02*
D03*
Y142717D02*
D03*
X118110D02*
D03*
X90551D02*
D03*
X86614D02*
D03*
X89370Y147835D02*
D03*
X88189Y152953D02*
D03*
X116535D02*
D03*
X115354Y147835D02*
D03*
X120866Y152953D02*
D03*
X119685Y147835D02*
D03*
X122441Y178543D02*
D03*
X121260Y173425D02*
D03*
X97244Y158071D02*
D03*
X107480D02*
D03*
X112598D02*
D03*
X92126D02*
D03*
X102362D02*
D03*
X122835D02*
D03*
X117717D02*
D03*
X87008D02*
D03*
X107087Y46654D02*
D03*
X115748D02*
D03*
X107087Y41536D02*
D03*
X115748D02*
D03*
X107087Y36417D02*
D03*
X115748D02*
D03*
X107087Y31299D02*
D03*
X115748D02*
D03*
X114961Y72244D02*
D03*
X82677Y178543D02*
D03*
X83465Y173425D02*
D03*
X77165Y182677D02*
D03*
X81890Y147244D02*
D03*
X153150Y135039D02*
D03*
X198031Y206299D02*
D03*
X88189Y194882D02*
D03*
X127953Y207480D02*
D03*
X136944Y150330D02*
D03*
X126969Y135827D02*
D03*
M02*
