G04 Layer_Color=2752767*
%FSLAX25Y25*%
%MOIN*%
G70*
G01*
G75*
%ADD32C,0.00984*%
%ADD33C,0.00787*%
%ADD35C,0.01575*%
%ADD39C,0.01000*%
%ADD81C,0.00600*%
%ADD82C,0.00200*%
%ADD83C,0.00267*%
%ADD84C,0.01260*%
G36*
X1121080Y-83717D02*
Y-84003D01*
Y-84290D01*
Y-84576D01*
Y-84862D01*
Y-85149D01*
Y-85435D01*
Y-85721D01*
Y-86007D01*
Y-86294D01*
Y-86580D01*
Y-86866D01*
Y-87153D01*
Y-87439D01*
Y-87725D01*
Y-88012D01*
Y-88298D01*
Y-88584D01*
Y-88871D01*
Y-89157D01*
Y-89443D01*
X1120793D01*
Y-89730D01*
Y-90016D01*
Y-90302D01*
Y-90588D01*
Y-90875D01*
X1120507D01*
Y-91161D01*
Y-91448D01*
Y-91734D01*
Y-92020D01*
X1120221D01*
Y-92306D01*
Y-92593D01*
Y-92879D01*
Y-93165D01*
X1119934D01*
Y-93452D01*
Y-93738D01*
Y-94024D01*
X1119648D01*
Y-94311D01*
Y-94597D01*
Y-94883D01*
X1119362D01*
Y-95170D01*
Y-95456D01*
Y-95742D01*
X1119075D01*
Y-96029D01*
Y-96315D01*
Y-96601D01*
X1118789D01*
Y-96887D01*
Y-97174D01*
X1118503D01*
Y-97460D01*
Y-97746D01*
X1118217D01*
Y-98033D01*
Y-98319D01*
Y-98605D01*
X1117930D01*
Y-98892D01*
Y-99178D01*
X1117644D01*
Y-99464D01*
Y-99751D01*
Y-100037D01*
X1117358D01*
Y-100323D01*
Y-100610D01*
X1117071D01*
Y-100896D01*
Y-101182D01*
Y-101468D01*
X1116785D01*
Y-101755D01*
Y-102041D01*
X1116499D01*
Y-102327D01*
Y-102614D01*
Y-102900D01*
X1116212D01*
Y-103186D01*
Y-103473D01*
X1115926D01*
Y-103759D01*
Y-104045D01*
Y-104332D01*
X1115640D01*
Y-104618D01*
Y-104904D01*
X1115353D01*
Y-105191D01*
Y-105477D01*
Y-105763D01*
X1115067D01*
Y-106049D01*
Y-106336D01*
X1114781D01*
Y-106622D01*
Y-106908D01*
Y-107195D01*
X1114494D01*
Y-107481D01*
Y-107767D01*
X1114208D01*
Y-108054D01*
Y-108340D01*
Y-108626D01*
X1113922D01*
Y-108913D01*
Y-109199D01*
X1113636D01*
Y-109485D01*
Y-109772D01*
Y-110058D01*
X1113349D01*
Y-110344D01*
Y-110630D01*
X1113063D01*
Y-110917D01*
Y-111203D01*
Y-111489D01*
X1112776D01*
Y-111776D01*
Y-112062D01*
X1112490D01*
Y-112348D01*
Y-112635D01*
Y-112921D01*
X1112204D01*
Y-113207D01*
Y-113494D01*
X1111918D01*
Y-113780D01*
Y-114066D01*
Y-114353D01*
X1111631D01*
Y-114639D01*
Y-114925D01*
X1111345D01*
Y-115211D01*
Y-115498D01*
Y-115784D01*
X1111059D01*
Y-116070D01*
Y-116357D01*
X1110772D01*
Y-116643D01*
Y-116929D01*
Y-117216D01*
X1110486D01*
Y-117502D01*
Y-117788D01*
X1110200D01*
Y-118075D01*
Y-118361D01*
Y-118647D01*
X1109913D01*
Y-118933D01*
Y-119220D01*
X1109627D01*
Y-119506D01*
Y-119792D01*
Y-120079D01*
X1109341D01*
Y-120365D01*
Y-120651D01*
X1109054D01*
Y-120938D01*
Y-121224D01*
X1108768D01*
Y-121510D01*
Y-121797D01*
X1108482D01*
Y-122083D01*
Y-122369D01*
Y-122656D01*
X1108195D01*
Y-122942D01*
X1107909D01*
Y-123228D01*
Y-123514D01*
Y-123801D01*
X1107623D01*
Y-124087D01*
X1107337D01*
Y-124373D01*
Y-124660D01*
X1107050D01*
Y-124946D01*
Y-125232D01*
X1106764D01*
Y-125519D01*
Y-125805D01*
X1106478D01*
Y-126091D01*
Y-126378D01*
X1106191D01*
Y-126664D01*
X1105905D01*
Y-126950D01*
Y-127237D01*
X1105619D01*
Y-127523D01*
Y-127809D01*
X1105332D01*
Y-128095D01*
X1105046D01*
Y-128382D01*
X1104760D01*
Y-128668D01*
Y-128954D01*
X1104473D01*
Y-129241D01*
X1104187D01*
Y-129527D01*
Y-129813D01*
X1103901D01*
Y-130100D01*
X1103615D01*
Y-130386D01*
X1103328D01*
Y-130672D01*
Y-130959D01*
X1103042D01*
Y-131245D01*
X1102756D01*
Y-131531D01*
X1102469D01*
Y-131818D01*
X1102183D01*
Y-132104D01*
X1101897D01*
Y-132390D01*
Y-132676D01*
X1101610D01*
Y-132963D01*
X1101324D01*
Y-133249D01*
X1101038D01*
Y-133535D01*
X1100751D01*
Y-133822D01*
X1100465D01*
Y-134108D01*
X1100179D01*
Y-134394D01*
X1099892D01*
Y-134681D01*
X1099320D01*
Y-134967D01*
X1099034D01*
Y-135253D01*
X1098747D01*
Y-135540D01*
X1098461D01*
Y-135826D01*
X1098175D01*
Y-136112D01*
X1097602D01*
Y-136399D01*
X1097316D01*
Y-136685D01*
X1096743D01*
Y-136971D01*
X1096457D01*
Y-137258D01*
X1095884D01*
Y-137544D01*
X1095598D01*
Y-137830D01*
X1095025D01*
Y-138117D01*
X1094452D01*
Y-138403D01*
X1093880D01*
Y-138689D01*
X1093307D01*
Y-138975D01*
X1092735D01*
Y-139262D01*
X1091876D01*
Y-139548D01*
X1091303D01*
Y-139834D01*
X1090444D01*
Y-140121D01*
X1089299D01*
Y-140407D01*
X1088154D01*
Y-140693D01*
X1086436D01*
Y-140980D01*
X1084432D01*
Y-141266D01*
X1084145D01*
Y-140980D01*
Y-140693D01*
Y-140407D01*
Y-140121D01*
Y-139834D01*
Y-139548D01*
Y-139262D01*
Y-138975D01*
Y-138689D01*
Y-138403D01*
Y-138117D01*
Y-137830D01*
Y-137544D01*
Y-137258D01*
Y-136971D01*
Y-136685D01*
Y-136399D01*
Y-136112D01*
Y-135826D01*
Y-135540D01*
Y-135253D01*
Y-134967D01*
Y-134681D01*
Y-134394D01*
Y-134108D01*
Y-133822D01*
Y-133535D01*
Y-133249D01*
Y-132963D01*
Y-132676D01*
Y-132390D01*
Y-132104D01*
Y-131818D01*
X1084718D01*
Y-131531D01*
X1085291D01*
Y-131245D01*
X1085863D01*
Y-130959D01*
X1086436D01*
Y-130672D01*
X1087008D01*
Y-130386D01*
X1087581D01*
Y-130100D01*
X1087867D01*
Y-129813D01*
X1088440D01*
Y-129527D01*
X1088726D01*
Y-129241D01*
X1089299D01*
Y-128954D01*
X1089585D01*
Y-128668D01*
X1089872D01*
Y-128382D01*
X1090444D01*
Y-128095D01*
X1090730D01*
Y-127809D01*
X1091017D01*
Y-127523D01*
X1091303D01*
Y-127237D01*
X1091589D01*
Y-126950D01*
X1091876D01*
Y-126664D01*
X1092162D01*
Y-126378D01*
X1092448D01*
Y-126091D01*
X1092735D01*
Y-125805D01*
X1093021D01*
Y-125519D01*
X1093307D01*
Y-125232D01*
X1093594D01*
Y-124946D01*
Y-124660D01*
X1093880D01*
Y-124373D01*
X1094166D01*
Y-124087D01*
X1094452D01*
Y-123801D01*
Y-123514D01*
X1094739D01*
Y-123228D01*
X1095025D01*
Y-122942D01*
Y-122656D01*
X1095311D01*
Y-122369D01*
Y-122083D01*
X1095598D01*
Y-121797D01*
X1095884D01*
Y-121510D01*
Y-121224D01*
X1096170D01*
Y-120938D01*
Y-120651D01*
X1096457D01*
Y-120365D01*
Y-120079D01*
X1094739D01*
Y-119792D01*
X1092735D01*
Y-119506D01*
X1091589D01*
Y-119220D01*
X1091017D01*
Y-118933D01*
X1090158D01*
Y-118647D01*
X1089585D01*
Y-118361D01*
X1089299D01*
Y-118075D01*
X1088726D01*
Y-117788D01*
X1088440D01*
Y-117502D01*
X1088154D01*
Y-117216D01*
X1087867D01*
Y-116929D01*
X1087581D01*
Y-116643D01*
X1087295D01*
Y-116357D01*
Y-116070D01*
X1087008D01*
Y-115784D01*
X1086722D01*
Y-115498D01*
Y-115211D01*
X1086436D01*
Y-114925D01*
Y-114639D01*
X1086149D01*
Y-114353D01*
Y-114066D01*
X1085863D01*
Y-113780D01*
Y-113494D01*
Y-113207D01*
X1085577D01*
Y-112921D01*
Y-112635D01*
Y-112348D01*
Y-112062D01*
X1085291D01*
Y-111776D01*
Y-111489D01*
Y-111203D01*
Y-110917D01*
Y-110630D01*
Y-110344D01*
Y-110058D01*
X1085004D01*
Y-109772D01*
Y-109485D01*
Y-109199D01*
Y-108913D01*
Y-108626D01*
Y-108340D01*
Y-108054D01*
Y-107767D01*
Y-107481D01*
Y-107195D01*
Y-106908D01*
Y-106622D01*
Y-106336D01*
Y-106049D01*
Y-105763D01*
X1084718D01*
Y-105477D01*
Y-105191D01*
Y-104904D01*
Y-104618D01*
Y-104332D01*
Y-104045D01*
Y-103759D01*
Y-103473D01*
Y-103186D01*
Y-102900D01*
Y-102614D01*
Y-102327D01*
Y-102041D01*
Y-101755D01*
Y-101468D01*
X1084432D01*
Y-101182D01*
Y-100896D01*
Y-100610D01*
Y-100323D01*
Y-100037D01*
Y-99751D01*
Y-99464D01*
Y-99178D01*
Y-98892D01*
Y-98605D01*
Y-98319D01*
Y-98033D01*
Y-97746D01*
Y-97460D01*
Y-97174D01*
Y-96887D01*
X1084145D01*
Y-96601D01*
Y-96315D01*
Y-96029D01*
Y-95742D01*
Y-95456D01*
Y-95170D01*
Y-94883D01*
Y-94597D01*
Y-94311D01*
Y-94024D01*
Y-93738D01*
Y-93452D01*
Y-93165D01*
Y-92879D01*
Y-92593D01*
Y-92306D01*
X1083859D01*
Y-92020D01*
Y-91734D01*
Y-91448D01*
Y-91161D01*
Y-90875D01*
Y-90588D01*
Y-90302D01*
Y-90016D01*
Y-89730D01*
Y-89443D01*
Y-89157D01*
Y-88871D01*
Y-88584D01*
Y-88298D01*
X1083573D01*
Y-88012D01*
Y-87725D01*
Y-87439D01*
Y-87153D01*
Y-86866D01*
Y-86580D01*
Y-86294D01*
Y-86007D01*
Y-85721D01*
Y-85435D01*
Y-85149D01*
Y-84862D01*
Y-84576D01*
Y-84290D01*
Y-84003D01*
Y-83717D01*
X1083286D01*
Y-83431D01*
X1097029D01*
Y-83717D01*
Y-84003D01*
Y-84290D01*
Y-84576D01*
Y-84862D01*
Y-85149D01*
Y-85435D01*
Y-85721D01*
Y-86007D01*
Y-86294D01*
Y-86580D01*
Y-86866D01*
Y-87153D01*
Y-87439D01*
X1097316D01*
Y-87725D01*
Y-88012D01*
Y-88298D01*
Y-88584D01*
Y-88871D01*
Y-89157D01*
Y-89443D01*
Y-89730D01*
Y-90016D01*
Y-90302D01*
Y-90588D01*
Y-90875D01*
Y-91161D01*
Y-91448D01*
Y-91734D01*
Y-92020D01*
Y-92306D01*
Y-92593D01*
Y-92879D01*
Y-93165D01*
Y-93452D01*
Y-93738D01*
Y-94024D01*
Y-94311D01*
Y-94597D01*
Y-94883D01*
Y-95170D01*
Y-95456D01*
Y-95742D01*
Y-96029D01*
Y-96315D01*
Y-96601D01*
Y-96887D01*
Y-97174D01*
Y-97460D01*
Y-97746D01*
Y-98033D01*
Y-98319D01*
Y-98605D01*
Y-98892D01*
Y-99178D01*
X1097602D01*
Y-99464D01*
X1097316D01*
Y-99751D01*
Y-100037D01*
X1097602D01*
Y-100323D01*
Y-100610D01*
Y-100896D01*
Y-101182D01*
Y-101468D01*
Y-101755D01*
Y-102041D01*
Y-102327D01*
Y-102614D01*
Y-102900D01*
Y-103186D01*
Y-103473D01*
Y-103759D01*
Y-104045D01*
Y-104332D01*
Y-104618D01*
Y-104904D01*
Y-105191D01*
Y-105477D01*
Y-105763D01*
Y-106049D01*
Y-106336D01*
Y-106622D01*
Y-106908D01*
Y-107195D01*
Y-107481D01*
X1097888D01*
Y-107767D01*
Y-108054D01*
Y-108340D01*
X1098175D01*
Y-108626D01*
X1098461D01*
Y-108913D01*
X1098747D01*
Y-109199D01*
X1099606D01*
Y-109485D01*
X1100465D01*
Y-109199D01*
X1100751D01*
Y-108913D01*
Y-108626D01*
Y-108340D01*
X1101038D01*
Y-108054D01*
Y-107767D01*
X1101324D01*
Y-107481D01*
Y-107195D01*
Y-106908D01*
X1101610D01*
Y-106622D01*
Y-106336D01*
Y-106049D01*
X1101897D01*
Y-105763D01*
Y-105477D01*
Y-105191D01*
X1102183D01*
Y-104904D01*
Y-104618D01*
Y-104332D01*
X1102469D01*
Y-104045D01*
Y-103759D01*
X1102756D01*
Y-103473D01*
Y-103186D01*
Y-102900D01*
X1103042D01*
Y-102614D01*
Y-102327D01*
Y-102041D01*
X1103328D01*
Y-101755D01*
Y-101468D01*
Y-101182D01*
X1103615D01*
Y-100896D01*
Y-100610D01*
X1103901D01*
Y-100323D01*
Y-100037D01*
Y-99751D01*
X1104187D01*
Y-99464D01*
Y-99178D01*
Y-98892D01*
X1104473D01*
Y-98605D01*
Y-98319D01*
Y-98033D01*
X1104760D01*
Y-97746D01*
Y-97460D01*
X1105046D01*
Y-97174D01*
Y-96887D01*
Y-96601D01*
X1105332D01*
Y-96315D01*
Y-96029D01*
Y-95742D01*
X1105619D01*
Y-95456D01*
Y-95170D01*
Y-94883D01*
X1105905D01*
Y-94597D01*
Y-94311D01*
X1106191D01*
Y-94024D01*
Y-93738D01*
Y-93452D01*
X1106478D01*
Y-93165D01*
Y-92879D01*
Y-92593D01*
X1106764D01*
Y-92306D01*
Y-92020D01*
Y-91734D01*
X1107050D01*
Y-91448D01*
Y-91161D01*
Y-90875D01*
Y-90588D01*
X1107337D01*
Y-90302D01*
Y-90016D01*
Y-89730D01*
Y-89443D01*
X1107623D01*
Y-89157D01*
Y-88871D01*
Y-88584D01*
Y-88298D01*
Y-88012D01*
X1107909D01*
Y-87725D01*
Y-87439D01*
Y-87153D01*
Y-86866D01*
Y-86580D01*
Y-86294D01*
X1108195D01*
Y-86007D01*
Y-85721D01*
Y-85435D01*
Y-85149D01*
Y-84862D01*
Y-84576D01*
Y-84290D01*
Y-84003D01*
Y-83717D01*
Y-83431D01*
X1121080D01*
Y-83717D01*
D02*
G37*
G36*
X1063244Y-66252D02*
Y-66538D01*
X1062958D01*
Y-66825D01*
Y-67111D01*
Y-67397D01*
Y-67684D01*
Y-67970D01*
Y-68256D01*
X1062672D01*
Y-68542D01*
Y-68829D01*
Y-69115D01*
Y-69401D01*
Y-69688D01*
Y-69974D01*
X1062385D01*
Y-70260D01*
Y-70547D01*
Y-70833D01*
Y-71119D01*
Y-71406D01*
Y-71692D01*
Y-71978D01*
X1062099D01*
Y-72264D01*
Y-72551D01*
Y-72837D01*
Y-73123D01*
Y-73410D01*
Y-73696D01*
X1061813D01*
Y-73982D01*
Y-74269D01*
Y-74555D01*
Y-74841D01*
Y-75128D01*
Y-75414D01*
X1061526D01*
Y-75700D01*
Y-75987D01*
Y-76273D01*
Y-76559D01*
Y-76846D01*
Y-77132D01*
Y-77418D01*
X1061240D01*
Y-77704D01*
Y-77991D01*
Y-78277D01*
Y-78563D01*
Y-78850D01*
Y-79136D01*
X1060954D01*
Y-79422D01*
Y-79709D01*
Y-79995D01*
Y-80281D01*
Y-80568D01*
Y-80854D01*
X1060668D01*
Y-81140D01*
Y-81427D01*
Y-81713D01*
Y-81999D01*
Y-82285D01*
Y-82572D01*
X1060381D01*
Y-82858D01*
Y-83144D01*
Y-83431D01*
Y-83717D01*
Y-84003D01*
Y-84290D01*
Y-84576D01*
X1060095D01*
Y-84862D01*
Y-85149D01*
Y-85435D01*
Y-85721D01*
Y-86007D01*
Y-86294D01*
X1059809D01*
Y-86580D01*
Y-86866D01*
X1060381D01*
Y-86580D01*
X1060668D01*
Y-86294D01*
X1060954D01*
Y-86007D01*
X1061526D01*
Y-85721D01*
X1061813D01*
Y-85435D01*
X1062099D01*
Y-85149D01*
X1062672D01*
Y-84862D01*
X1063244D01*
Y-84576D01*
X1063531D01*
Y-84290D01*
X1064103D01*
Y-84003D01*
X1064962D01*
Y-83717D01*
X1065535D01*
Y-83431D01*
X1066394D01*
Y-83144D01*
X1067825D01*
Y-82858D01*
X1074124D01*
Y-83144D01*
X1075270D01*
Y-83431D01*
X1076128D01*
Y-83717D01*
X1076701D01*
Y-84003D01*
X1076987D01*
Y-84290D01*
X1077560D01*
Y-84576D01*
X1077846D01*
Y-84862D01*
X1078133D01*
Y-85149D01*
X1078419D01*
Y-85435D01*
X1078705D01*
Y-85721D01*
Y-86007D01*
X1078992D01*
Y-86294D01*
Y-86580D01*
X1079278D01*
Y-86866D01*
Y-87153D01*
Y-87439D01*
X1079564D01*
Y-87725D01*
Y-88012D01*
Y-88298D01*
Y-88584D01*
X1079850D01*
Y-88871D01*
Y-89157D01*
Y-89443D01*
Y-89730D01*
Y-90016D01*
Y-90302D01*
Y-90588D01*
Y-90875D01*
Y-91161D01*
Y-91448D01*
Y-91734D01*
Y-92020D01*
Y-92306D01*
Y-92593D01*
Y-92879D01*
Y-93165D01*
Y-93452D01*
Y-93738D01*
X1079564D01*
Y-94024D01*
Y-94311D01*
Y-94597D01*
Y-94883D01*
Y-95170D01*
Y-95456D01*
Y-95742D01*
X1079278D01*
Y-96029D01*
Y-96315D01*
Y-96601D01*
Y-96887D01*
Y-97174D01*
Y-97460D01*
Y-97746D01*
X1078992D01*
Y-98033D01*
Y-98319D01*
Y-98605D01*
Y-98892D01*
Y-99178D01*
Y-99464D01*
X1078705D01*
Y-99751D01*
Y-100037D01*
Y-100323D01*
Y-100610D01*
Y-100896D01*
Y-101182D01*
X1078419D01*
Y-101468D01*
Y-101755D01*
Y-102041D01*
Y-102327D01*
Y-102614D01*
Y-102900D01*
X1078133D01*
Y-103186D01*
Y-103473D01*
Y-103759D01*
Y-104045D01*
Y-104332D01*
Y-104618D01*
Y-104904D01*
X1077846D01*
Y-105191D01*
Y-105477D01*
Y-105763D01*
Y-106049D01*
Y-106336D01*
Y-106622D01*
X1077560D01*
Y-106908D01*
Y-107195D01*
Y-107481D01*
Y-107767D01*
Y-108054D01*
Y-108340D01*
X1077274D01*
Y-108626D01*
Y-108913D01*
Y-109199D01*
Y-109485D01*
Y-109772D01*
Y-110058D01*
Y-110344D01*
X1076987D01*
Y-110630D01*
Y-110917D01*
Y-111203D01*
Y-111489D01*
Y-111776D01*
Y-112062D01*
X1076701D01*
Y-112348D01*
Y-112635D01*
Y-112921D01*
Y-113207D01*
Y-113494D01*
Y-113780D01*
X1076415D01*
Y-114066D01*
Y-114353D01*
Y-114639D01*
Y-114925D01*
Y-115211D01*
Y-115498D01*
X1076128D01*
Y-115784D01*
Y-116070D01*
Y-116357D01*
Y-116643D01*
Y-116929D01*
Y-117216D01*
Y-117502D01*
X1075842D01*
Y-117788D01*
Y-118075D01*
Y-118361D01*
Y-118647D01*
Y-118933D01*
Y-119220D01*
X1075556D01*
Y-119506D01*
Y-119792D01*
X1062385D01*
Y-119506D01*
Y-119220D01*
X1062672D01*
Y-118933D01*
Y-118647D01*
Y-118361D01*
Y-118075D01*
Y-117788D01*
Y-117502D01*
X1062958D01*
Y-117216D01*
Y-116929D01*
Y-116643D01*
Y-116357D01*
Y-116070D01*
Y-115784D01*
Y-115498D01*
X1063244D01*
Y-115211D01*
Y-114925D01*
Y-114639D01*
Y-114353D01*
Y-114066D01*
Y-113780D01*
X1063531D01*
Y-113494D01*
Y-113207D01*
Y-112921D01*
Y-112635D01*
Y-112348D01*
Y-112062D01*
X1063817D01*
Y-111776D01*
Y-111489D01*
Y-111203D01*
Y-110917D01*
Y-110630D01*
Y-110344D01*
Y-110058D01*
X1064103D01*
Y-109772D01*
Y-109485D01*
Y-109199D01*
Y-108913D01*
Y-108626D01*
Y-108340D01*
X1064390D01*
Y-108054D01*
Y-107767D01*
Y-107481D01*
Y-107195D01*
Y-106908D01*
Y-106622D01*
Y-106336D01*
X1064676D01*
Y-106049D01*
Y-105763D01*
Y-105477D01*
Y-105191D01*
Y-104904D01*
Y-104618D01*
X1064962D01*
Y-104332D01*
Y-104045D01*
Y-103759D01*
Y-103473D01*
Y-103186D01*
Y-102900D01*
X1065249D01*
Y-102614D01*
Y-102327D01*
Y-102041D01*
Y-101755D01*
Y-101468D01*
Y-101182D01*
X1065535D01*
Y-100896D01*
Y-100610D01*
Y-100323D01*
Y-100037D01*
Y-99751D01*
Y-99464D01*
Y-99178D01*
X1065821D01*
Y-98892D01*
Y-98605D01*
Y-98319D01*
Y-98033D01*
Y-97746D01*
Y-97460D01*
X1066107D01*
Y-97174D01*
Y-96887D01*
Y-96601D01*
Y-96315D01*
Y-96029D01*
Y-95742D01*
Y-95456D01*
X1066394D01*
Y-95170D01*
Y-94883D01*
Y-94597D01*
Y-94311D01*
Y-94024D01*
Y-93738D01*
X1066107D01*
Y-93452D01*
Y-93165D01*
X1065821D01*
Y-92879D01*
X1065535D01*
Y-92593D01*
X1064962D01*
Y-92306D01*
X1063244D01*
Y-92593D01*
X1061813D01*
Y-92879D01*
X1060954D01*
Y-93165D01*
X1060381D01*
Y-93452D01*
X1060095D01*
Y-93738D01*
X1059522D01*
Y-94024D01*
X1059236D01*
Y-94311D01*
X1058950D01*
Y-94597D01*
Y-94883D01*
X1058663D01*
Y-95170D01*
Y-95456D01*
Y-95742D01*
X1058377D01*
Y-96029D01*
Y-96315D01*
Y-96601D01*
Y-96887D01*
Y-97174D01*
Y-97460D01*
X1058091D01*
Y-97746D01*
Y-98033D01*
Y-98319D01*
Y-98605D01*
Y-98892D01*
Y-99178D01*
Y-99464D01*
X1057804D01*
Y-99751D01*
Y-100037D01*
Y-100323D01*
Y-100610D01*
Y-100896D01*
Y-101182D01*
X1057518D01*
Y-101468D01*
Y-101755D01*
Y-102041D01*
Y-102327D01*
Y-102614D01*
Y-102900D01*
X1057232D01*
Y-103186D01*
Y-103473D01*
Y-103759D01*
Y-104045D01*
Y-104332D01*
Y-104618D01*
X1056946D01*
Y-104904D01*
Y-105191D01*
Y-105477D01*
Y-105763D01*
Y-106049D01*
Y-106336D01*
Y-106622D01*
X1056659D01*
Y-106908D01*
Y-107195D01*
Y-107481D01*
Y-107767D01*
Y-108054D01*
Y-108340D01*
X1056373D01*
Y-108626D01*
Y-108913D01*
Y-109199D01*
Y-109485D01*
Y-109772D01*
Y-110058D01*
X1056087D01*
Y-110344D01*
Y-110630D01*
Y-110917D01*
Y-111203D01*
Y-111489D01*
Y-111776D01*
Y-112062D01*
X1055800D01*
Y-112348D01*
Y-112635D01*
Y-112921D01*
Y-113207D01*
Y-113494D01*
Y-113780D01*
X1055514D01*
Y-114066D01*
Y-114353D01*
Y-114639D01*
Y-114925D01*
Y-115211D01*
Y-115498D01*
X1055228D01*
Y-115784D01*
Y-116070D01*
Y-116357D01*
Y-116643D01*
Y-116929D01*
Y-117216D01*
X1054941D01*
Y-117502D01*
Y-117788D01*
Y-118075D01*
Y-118361D01*
Y-118647D01*
Y-118933D01*
Y-119220D01*
X1054655D01*
Y-119506D01*
Y-119792D01*
X1041485D01*
Y-119506D01*
Y-119220D01*
X1041771D01*
Y-118933D01*
Y-118647D01*
Y-118361D01*
Y-118075D01*
Y-117788D01*
Y-117502D01*
Y-117216D01*
X1042057D01*
Y-116929D01*
Y-116643D01*
Y-116357D01*
Y-116070D01*
Y-115784D01*
Y-115498D01*
X1042344D01*
Y-115211D01*
Y-114925D01*
Y-114639D01*
Y-114353D01*
Y-114066D01*
Y-113780D01*
X1042630D01*
Y-113494D01*
Y-113207D01*
Y-112921D01*
Y-112635D01*
Y-112348D01*
Y-112062D01*
Y-111776D01*
X1042916D01*
Y-111489D01*
Y-111203D01*
Y-110917D01*
Y-110630D01*
Y-110344D01*
Y-110058D01*
X1043202D01*
Y-109772D01*
Y-109485D01*
Y-109199D01*
Y-108913D01*
Y-108626D01*
Y-108340D01*
X1043489D01*
Y-108054D01*
Y-107767D01*
Y-107481D01*
Y-107195D01*
Y-106908D01*
Y-106622D01*
X1043775D01*
Y-106336D01*
Y-106049D01*
Y-105763D01*
Y-105477D01*
Y-105191D01*
Y-104904D01*
Y-104618D01*
X1044061D01*
Y-104332D01*
Y-104045D01*
Y-103759D01*
Y-103473D01*
Y-103186D01*
Y-102900D01*
X1044348D01*
Y-102614D01*
Y-102327D01*
Y-102041D01*
Y-101755D01*
Y-101468D01*
Y-101182D01*
X1044634D01*
Y-100896D01*
Y-100610D01*
Y-100323D01*
Y-100037D01*
Y-99751D01*
Y-99464D01*
Y-99178D01*
X1044920D01*
Y-98892D01*
Y-98605D01*
Y-98319D01*
Y-98033D01*
Y-97746D01*
Y-97460D01*
X1045207D01*
Y-97174D01*
Y-96887D01*
Y-96601D01*
Y-96315D01*
Y-96029D01*
Y-95742D01*
X1045493D01*
Y-95456D01*
Y-95170D01*
Y-94883D01*
Y-94597D01*
Y-94311D01*
Y-94024D01*
X1045779D01*
Y-93738D01*
Y-93452D01*
Y-93165D01*
Y-92879D01*
Y-92593D01*
Y-92306D01*
Y-92020D01*
X1046066D01*
Y-91734D01*
Y-91448D01*
Y-91161D01*
Y-90875D01*
Y-90588D01*
Y-90302D01*
X1046352D01*
Y-90016D01*
Y-89730D01*
Y-89443D01*
Y-89157D01*
Y-88871D01*
Y-88584D01*
X1046638D01*
Y-88298D01*
Y-88012D01*
Y-87725D01*
Y-87439D01*
Y-87153D01*
Y-86866D01*
X1046925D01*
Y-86580D01*
Y-86294D01*
Y-86007D01*
Y-85721D01*
Y-85435D01*
Y-85149D01*
Y-84862D01*
X1047211D01*
Y-84576D01*
Y-84290D01*
Y-84003D01*
Y-83717D01*
Y-83431D01*
Y-83144D01*
X1047497D01*
Y-82858D01*
Y-82572D01*
Y-82285D01*
Y-81999D01*
Y-81713D01*
Y-81427D01*
X1047783D01*
Y-81140D01*
Y-80854D01*
Y-80568D01*
Y-80281D01*
Y-79995D01*
Y-79709D01*
Y-79422D01*
X1048070D01*
Y-79136D01*
Y-78850D01*
Y-78563D01*
Y-78277D01*
Y-77991D01*
Y-77704D01*
X1048356D01*
Y-77418D01*
Y-77132D01*
Y-76846D01*
Y-76559D01*
Y-76273D01*
Y-75987D01*
X1048642D01*
Y-75700D01*
Y-75414D01*
Y-75128D01*
Y-74841D01*
Y-74555D01*
Y-74269D01*
X1048929D01*
Y-73982D01*
Y-73696D01*
Y-73410D01*
Y-73123D01*
Y-72837D01*
Y-72551D01*
Y-72264D01*
X1049215D01*
Y-71978D01*
Y-71692D01*
Y-71406D01*
Y-71119D01*
Y-70833D01*
Y-70547D01*
X1049501D01*
Y-70260D01*
Y-69974D01*
Y-69688D01*
Y-69401D01*
Y-69115D01*
Y-68829D01*
X1049788D01*
Y-68542D01*
Y-68256D01*
Y-67970D01*
Y-67684D01*
Y-67397D01*
Y-67111D01*
Y-66825D01*
X1050074D01*
Y-66538D01*
Y-66252D01*
Y-65966D01*
X1063244D01*
Y-66252D01*
D02*
G37*
G36*
X1032036Y-69688D02*
X1033754D01*
Y-69974D01*
X1034613D01*
Y-70260D01*
X1035472D01*
Y-70547D01*
X1036331D01*
Y-70833D01*
X1036904D01*
Y-71119D01*
X1037190D01*
Y-71406D01*
X1037763D01*
Y-71692D01*
X1038049D01*
Y-71978D01*
X1038622D01*
Y-72264D01*
X1038908D01*
Y-72551D01*
X1039194D01*
Y-72837D01*
X1039480D01*
Y-73123D01*
X1039767D01*
Y-73410D01*
X1040053D01*
Y-73696D01*
X1040339D01*
Y-73982D01*
Y-74269D01*
X1040626D01*
Y-74555D01*
X1040912D01*
Y-74841D01*
Y-75128D01*
X1041198D01*
Y-75414D01*
X1041485D01*
Y-75700D01*
Y-75987D01*
X1041771D01*
Y-76273D01*
Y-76559D01*
Y-76846D01*
X1042057D01*
Y-77132D01*
Y-77418D01*
Y-77704D01*
X1042344D01*
Y-77991D01*
Y-78277D01*
Y-78563D01*
Y-78850D01*
X1042630D01*
Y-79136D01*
Y-79422D01*
Y-79709D01*
Y-79995D01*
Y-80281D01*
X1042916D01*
Y-80568D01*
Y-80854D01*
Y-81140D01*
Y-81427D01*
Y-81713D01*
Y-81999D01*
Y-82285D01*
Y-82572D01*
Y-82858D01*
Y-83144D01*
Y-83431D01*
Y-83717D01*
Y-84003D01*
Y-84290D01*
Y-84576D01*
Y-84862D01*
Y-85149D01*
Y-85435D01*
Y-85721D01*
Y-86007D01*
X1042630D01*
Y-86294D01*
Y-86580D01*
Y-86866D01*
Y-87153D01*
Y-87439D01*
Y-87725D01*
Y-88012D01*
X1042344D01*
Y-88298D01*
Y-88584D01*
Y-88871D01*
Y-89157D01*
Y-89443D01*
X1042057D01*
Y-89730D01*
Y-90016D01*
Y-90302D01*
Y-90588D01*
Y-90875D01*
X1041771D01*
Y-91161D01*
Y-91448D01*
Y-91734D01*
X1041485D01*
Y-92020D01*
Y-92306D01*
Y-92593D01*
Y-92879D01*
X1041198D01*
Y-93165D01*
Y-93452D01*
Y-93738D01*
X1040912D01*
Y-94024D01*
Y-94311D01*
X1040626D01*
Y-94597D01*
Y-94883D01*
Y-95170D01*
X1040339D01*
Y-95456D01*
Y-95742D01*
X1040053D01*
Y-96029D01*
Y-96315D01*
X1039767D01*
Y-96601D01*
Y-96887D01*
X1039480D01*
Y-97174D01*
X1039194D01*
Y-97460D01*
Y-97746D01*
X1038908D01*
Y-98033D01*
X1038622D01*
Y-98319D01*
X1038335D01*
Y-98605D01*
Y-98892D01*
X1038049D01*
Y-99178D01*
X1037763D01*
Y-99464D01*
X1037476D01*
Y-99751D01*
X1037190D01*
Y-100037D01*
X1036904D01*
Y-100323D01*
X1036331D01*
Y-100610D01*
X1036045D01*
Y-100896D01*
X1035472D01*
Y-101182D01*
X1035186D01*
Y-101468D01*
X1034613D01*
Y-101755D01*
X1033754D01*
Y-102041D01*
X1032895D01*
Y-102327D01*
X1032036D01*
Y-102614D01*
X1030318D01*
Y-102900D01*
X1025165D01*
Y-102614D01*
X1022588D01*
Y-102327D01*
X1020584D01*
Y-102041D01*
X1019152D01*
Y-101755D01*
X1017721D01*
Y-101468D01*
X1016289D01*
Y-101755D01*
Y-102041D01*
Y-102327D01*
Y-102614D01*
Y-102900D01*
Y-103186D01*
Y-103473D01*
X1016003D01*
Y-103759D01*
Y-104045D01*
Y-104332D01*
Y-104618D01*
Y-104904D01*
Y-105191D01*
X1015716D01*
Y-105477D01*
Y-105763D01*
Y-106049D01*
Y-106336D01*
Y-106622D01*
Y-106908D01*
X1015430D01*
Y-107195D01*
Y-107481D01*
Y-107767D01*
Y-108054D01*
Y-108340D01*
Y-108626D01*
Y-108913D01*
X1015144D01*
Y-109199D01*
Y-109485D01*
Y-109772D01*
Y-110058D01*
Y-110344D01*
Y-110630D01*
X1014857D01*
Y-110917D01*
Y-111203D01*
Y-111489D01*
Y-111776D01*
Y-112062D01*
Y-112348D01*
X1014571D01*
Y-112635D01*
Y-112921D01*
Y-113207D01*
Y-113494D01*
Y-113780D01*
Y-114066D01*
Y-114353D01*
X1014285D01*
Y-114639D01*
Y-114925D01*
Y-115211D01*
Y-115498D01*
Y-115784D01*
Y-116070D01*
X1013999D01*
Y-116357D01*
Y-116643D01*
Y-116929D01*
Y-117216D01*
Y-117502D01*
Y-117788D01*
X1013712D01*
Y-118075D01*
Y-118361D01*
Y-118647D01*
Y-118933D01*
Y-119220D01*
Y-119506D01*
Y-119792D01*
X1000256D01*
Y-119506D01*
X1000542D01*
Y-119220D01*
Y-118933D01*
Y-118647D01*
Y-118361D01*
Y-118075D01*
X1000828D01*
Y-117788D01*
Y-117502D01*
Y-117216D01*
Y-116929D01*
Y-116643D01*
Y-116357D01*
Y-116070D01*
X1001114D01*
Y-115784D01*
Y-115498D01*
Y-115211D01*
Y-114925D01*
Y-114639D01*
Y-114353D01*
X1001401D01*
Y-114066D01*
Y-113780D01*
Y-113494D01*
Y-113207D01*
Y-112921D01*
Y-112635D01*
X1001687D01*
Y-112348D01*
Y-112062D01*
Y-111776D01*
Y-111489D01*
Y-111203D01*
Y-110917D01*
Y-110630D01*
X1001974D01*
Y-110344D01*
Y-110058D01*
Y-109772D01*
Y-109485D01*
Y-109199D01*
Y-108913D01*
X1002260D01*
Y-108626D01*
Y-108340D01*
Y-108054D01*
Y-107767D01*
Y-107481D01*
Y-107195D01*
X1002546D01*
Y-106908D01*
Y-106622D01*
Y-106336D01*
Y-106049D01*
Y-105763D01*
Y-105477D01*
X1002832D01*
Y-105191D01*
Y-104904D01*
Y-104618D01*
Y-104332D01*
Y-104045D01*
Y-103759D01*
Y-103473D01*
X1003119D01*
Y-103186D01*
Y-102900D01*
Y-102614D01*
Y-102327D01*
Y-102041D01*
Y-101755D01*
X1003405D01*
Y-101468D01*
Y-101182D01*
Y-100896D01*
Y-100610D01*
Y-100323D01*
Y-100037D01*
X1003691D01*
Y-99751D01*
Y-99464D01*
Y-99178D01*
Y-98892D01*
Y-98605D01*
Y-98319D01*
X1003978D01*
Y-98033D01*
Y-97746D01*
Y-97460D01*
Y-97174D01*
Y-96887D01*
Y-96601D01*
Y-96315D01*
X1004264D01*
Y-96029D01*
Y-95742D01*
Y-95456D01*
Y-95170D01*
Y-94883D01*
Y-94597D01*
X1004550D01*
Y-94311D01*
Y-94024D01*
Y-93738D01*
Y-93452D01*
Y-93165D01*
Y-92879D01*
X1004837D01*
Y-92593D01*
Y-92306D01*
Y-92020D01*
Y-91734D01*
Y-91448D01*
Y-91161D01*
Y-90875D01*
X1005123D01*
Y-90588D01*
Y-90302D01*
Y-90016D01*
Y-89730D01*
Y-89443D01*
Y-89157D01*
X1005409D01*
Y-88871D01*
Y-88584D01*
Y-88298D01*
Y-88012D01*
Y-87725D01*
Y-87439D01*
X1005696D01*
Y-87153D01*
Y-86866D01*
Y-86580D01*
Y-86294D01*
Y-86007D01*
Y-85721D01*
X1005982D01*
Y-85435D01*
Y-85149D01*
Y-84862D01*
Y-84576D01*
Y-84290D01*
Y-84003D01*
Y-83717D01*
X1006268D01*
Y-83431D01*
Y-83144D01*
Y-82858D01*
Y-82572D01*
Y-82285D01*
Y-81999D01*
X1006555D01*
Y-81713D01*
Y-81427D01*
Y-81140D01*
Y-80854D01*
Y-80568D01*
Y-80281D01*
X1006841D01*
Y-79995D01*
Y-79709D01*
Y-79422D01*
Y-79136D01*
Y-78850D01*
Y-78563D01*
Y-78277D01*
X1007127D01*
Y-77991D01*
Y-77704D01*
Y-77418D01*
Y-77132D01*
Y-76846D01*
Y-76559D01*
X1007413D01*
Y-76273D01*
Y-75987D01*
Y-75700D01*
Y-75414D01*
Y-75128D01*
Y-74841D01*
X1007700D01*
Y-74555D01*
Y-74269D01*
Y-73982D01*
Y-73696D01*
Y-73410D01*
Y-73123D01*
Y-72837D01*
X1007986D01*
Y-72551D01*
Y-72264D01*
Y-71978D01*
Y-71692D01*
Y-71406D01*
Y-71119D01*
X1008272D01*
Y-70833D01*
Y-70547D01*
Y-70260D01*
Y-69974D01*
Y-69688D01*
Y-69401D01*
X1032036D01*
Y-69688D01*
D02*
G37*
G36*
X1165172Y-83717D02*
X1164886D01*
Y-84003D01*
X1164599D01*
Y-84290D01*
Y-84576D01*
X1164313D01*
Y-84862D01*
X1164027D01*
Y-85149D01*
X1163740D01*
Y-85435D01*
Y-85721D01*
X1163454D01*
Y-86007D01*
X1163168D01*
Y-86294D01*
X1162881D01*
Y-86580D01*
X1162595D01*
Y-86866D01*
Y-87153D01*
X1162309D01*
Y-87439D01*
X1162022D01*
Y-87725D01*
X1161736D01*
Y-88012D01*
Y-88298D01*
X1161450D01*
Y-88584D01*
X1161163D01*
Y-88871D01*
X1160877D01*
Y-89157D01*
X1160591D01*
Y-89443D01*
Y-89730D01*
X1160305D01*
Y-90016D01*
X1160018D01*
Y-90302D01*
X1159732D01*
Y-90588D01*
Y-90875D01*
X1159445D01*
Y-91161D01*
X1159159D01*
Y-91448D01*
X1158873D01*
Y-91734D01*
Y-92020D01*
X1158587D01*
Y-92306D01*
X1158300D01*
Y-92593D01*
X1158014D01*
Y-92879D01*
X1157728D01*
Y-93165D01*
Y-93452D01*
X1157441D01*
Y-93738D01*
X1157155D01*
Y-94024D01*
X1156869D01*
Y-94311D01*
Y-94597D01*
X1156582D01*
Y-94883D01*
X1156296D01*
Y-95170D01*
X1156010D01*
Y-95456D01*
Y-95742D01*
X1155723D01*
Y-96029D01*
X1155437D01*
Y-96315D01*
X1155151D01*
Y-96601D01*
X1154865D01*
Y-96887D01*
Y-97174D01*
X1154578D01*
Y-97460D01*
X1154292D01*
Y-97746D01*
X1154006D01*
Y-98033D01*
Y-98319D01*
X1153719D01*
Y-98605D01*
X1153433D01*
Y-98892D01*
X1153147D01*
Y-99178D01*
Y-99464D01*
X1152860D01*
Y-99751D01*
X1152574D01*
Y-100037D01*
X1152288D01*
Y-100323D01*
X1152001D01*
Y-100610D01*
Y-100896D01*
X1151715D01*
Y-101182D01*
X1151429D01*
Y-101468D01*
X1151142D01*
Y-101755D01*
Y-102041D01*
X1150856D01*
Y-102327D01*
X1150570D01*
Y-102614D01*
X1150284D01*
Y-102900D01*
X1149997D01*
Y-103186D01*
Y-103473D01*
X1150284D01*
Y-103759D01*
Y-104045D01*
X1150570D01*
Y-104332D01*
Y-104618D01*
X1150856D01*
Y-104904D01*
X1151142D01*
Y-105191D01*
Y-105477D01*
X1151429D01*
Y-105763D01*
Y-106049D01*
X1151715D01*
Y-106336D01*
Y-106622D01*
X1152001D01*
Y-106908D01*
Y-107195D01*
X1152288D01*
Y-107481D01*
Y-107767D01*
X1152574D01*
Y-108054D01*
Y-108340D01*
X1152860D01*
Y-108626D01*
Y-108913D01*
X1153147D01*
Y-109199D01*
Y-109485D01*
X1153433D01*
Y-109772D01*
X1153719D01*
Y-110058D01*
Y-110344D01*
X1154006D01*
Y-110630D01*
Y-110917D01*
X1154292D01*
Y-111203D01*
Y-111489D01*
X1154578D01*
Y-111776D01*
Y-112062D01*
X1154865D01*
Y-112348D01*
Y-112635D01*
X1155151D01*
Y-112921D01*
Y-113207D01*
X1155437D01*
Y-113494D01*
Y-113780D01*
X1155723D01*
Y-114066D01*
X1156010D01*
Y-114353D01*
Y-114639D01*
X1156296D01*
Y-114925D01*
Y-115211D01*
X1156582D01*
Y-115498D01*
Y-115784D01*
X1156869D01*
Y-116070D01*
Y-116357D01*
X1157155D01*
Y-116643D01*
Y-116929D01*
X1157441D01*
Y-117216D01*
Y-117502D01*
X1157728D01*
Y-117788D01*
Y-118075D01*
X1158014D01*
Y-118361D01*
X1158300D01*
Y-118647D01*
Y-118933D01*
X1158587D01*
Y-119220D01*
Y-119506D01*
X1158873D01*
Y-119792D01*
X1143698D01*
Y-119506D01*
X1143412D01*
Y-119220D01*
Y-118933D01*
Y-118647D01*
X1143126D01*
Y-118361D01*
Y-118075D01*
Y-117788D01*
X1142839D01*
Y-117502D01*
Y-117216D01*
X1142553D01*
Y-116929D01*
Y-116643D01*
Y-116357D01*
X1142267D01*
Y-116070D01*
Y-115784D01*
Y-115498D01*
X1141980D01*
Y-115211D01*
Y-114925D01*
X1141694D01*
Y-114639D01*
Y-114353D01*
Y-114066D01*
X1141408D01*
Y-113780D01*
Y-113494D01*
Y-113207D01*
X1141121D01*
Y-112921D01*
Y-112635D01*
Y-112348D01*
X1140835D01*
Y-112062D01*
X1140263D01*
Y-112348D01*
Y-112635D01*
X1139976D01*
Y-112921D01*
X1139690D01*
Y-113207D01*
Y-113494D01*
X1139404D01*
Y-113780D01*
X1139117D01*
Y-114066D01*
Y-114353D01*
X1138831D01*
Y-114639D01*
X1138545D01*
Y-114925D01*
Y-115211D01*
X1138258D01*
Y-115498D01*
X1137972D01*
Y-115784D01*
X1137686D01*
Y-116070D01*
Y-116357D01*
X1137399D01*
Y-116643D01*
X1137113D01*
Y-116929D01*
Y-117216D01*
X1136827D01*
Y-117502D01*
X1136541D01*
Y-117788D01*
Y-118075D01*
X1136254D01*
Y-118361D01*
X1135968D01*
Y-118647D01*
Y-118933D01*
X1135682D01*
Y-119220D01*
X1135395D01*
Y-119506D01*
Y-119792D01*
X1119362D01*
Y-119506D01*
X1119648D01*
Y-119220D01*
X1119934D01*
Y-118933D01*
X1120221D01*
Y-118647D01*
X1120507D01*
Y-118361D01*
Y-118075D01*
X1120793D01*
Y-117788D01*
X1121080D01*
Y-117502D01*
X1121366D01*
Y-117216D01*
X1121652D01*
Y-116929D01*
Y-116643D01*
X1121939D01*
Y-116357D01*
X1122225D01*
Y-116070D01*
X1122511D01*
Y-115784D01*
Y-115498D01*
X1122797D01*
Y-115211D01*
X1123084D01*
Y-114925D01*
X1123370D01*
Y-114639D01*
X1123656D01*
Y-114353D01*
Y-114066D01*
X1123943D01*
Y-113780D01*
X1124229D01*
Y-113494D01*
X1124515D01*
Y-113207D01*
X1124802D01*
Y-112921D01*
Y-112635D01*
X1125088D01*
Y-112348D01*
X1125374D01*
Y-112062D01*
X1125661D01*
Y-111776D01*
Y-111489D01*
X1125947D01*
Y-111203D01*
X1126233D01*
Y-110917D01*
X1126519D01*
Y-110630D01*
X1126806D01*
Y-110344D01*
Y-110058D01*
X1127092D01*
Y-109772D01*
X1127378D01*
Y-109485D01*
X1127665D01*
Y-109199D01*
Y-108913D01*
X1127951D01*
Y-108626D01*
X1128237D01*
Y-108340D01*
X1128524D01*
Y-108054D01*
X1128810D01*
Y-107767D01*
Y-107481D01*
X1129096D01*
Y-107195D01*
X1129383D01*
Y-106908D01*
X1129669D01*
Y-106622D01*
Y-106336D01*
X1129955D01*
Y-106049D01*
X1130242D01*
Y-105763D01*
X1130528D01*
Y-105477D01*
X1130814D01*
Y-105191D01*
Y-104904D01*
X1131100D01*
Y-104618D01*
X1131387D01*
Y-104332D01*
X1131673D01*
Y-104045D01*
X1131960D01*
Y-103759D01*
Y-103473D01*
X1132246D01*
Y-103186D01*
X1132532D01*
Y-102900D01*
X1132818D01*
Y-102614D01*
Y-102327D01*
X1133105D01*
Y-102041D01*
X1133391D01*
Y-101755D01*
X1133677D01*
Y-101468D01*
X1133964D01*
Y-101182D01*
Y-100896D01*
X1134250D01*
Y-100610D01*
Y-100323D01*
Y-100037D01*
X1133964D01*
Y-99751D01*
X1133677D01*
Y-99464D01*
Y-99178D01*
X1133391D01*
Y-98892D01*
Y-98605D01*
X1133105D01*
Y-98319D01*
Y-98033D01*
X1132818D01*
Y-97746D01*
Y-97460D01*
X1132532D01*
Y-97174D01*
Y-96887D01*
X1132246D01*
Y-96601D01*
Y-96315D01*
X1131960D01*
Y-96029D01*
X1131673D01*
Y-95742D01*
Y-95456D01*
X1131387D01*
Y-95170D01*
Y-94883D01*
X1131100D01*
Y-94597D01*
Y-94311D01*
X1130814D01*
Y-94024D01*
Y-93738D01*
X1130528D01*
Y-93452D01*
Y-93165D01*
X1130242D01*
Y-92879D01*
Y-92593D01*
X1129955D01*
Y-92306D01*
X1129669D01*
Y-92020D01*
Y-91734D01*
X1129383D01*
Y-91448D01*
Y-91161D01*
X1129096D01*
Y-90875D01*
Y-90588D01*
X1128810D01*
Y-90302D01*
Y-90016D01*
X1128524D01*
Y-89730D01*
Y-89443D01*
X1128237D01*
Y-89157D01*
Y-88871D01*
X1127951D01*
Y-88584D01*
Y-88298D01*
X1127665D01*
Y-88012D01*
X1127378D01*
Y-87725D01*
Y-87439D01*
X1127092D01*
Y-87153D01*
Y-86866D01*
X1126806D01*
Y-86580D01*
Y-86294D01*
X1126519D01*
Y-86007D01*
Y-85721D01*
X1126233D01*
Y-85435D01*
Y-85149D01*
X1125947D01*
Y-84862D01*
Y-84576D01*
X1125661D01*
Y-84290D01*
X1125374D01*
Y-84003D01*
Y-83717D01*
X1125088D01*
Y-83431D01*
X1140835D01*
Y-83717D01*
X1141121D01*
Y-84003D01*
Y-84290D01*
Y-84576D01*
X1141408D01*
Y-84862D01*
Y-85149D01*
Y-85435D01*
X1141694D01*
Y-85721D01*
Y-86007D01*
Y-86294D01*
X1141980D01*
Y-86580D01*
Y-86866D01*
Y-87153D01*
X1142267D01*
Y-87439D01*
Y-87725D01*
Y-88012D01*
X1142553D01*
Y-88298D01*
Y-88584D01*
Y-88871D01*
X1142839D01*
Y-89157D01*
Y-89443D01*
Y-89730D01*
X1143126D01*
Y-90016D01*
Y-90302D01*
Y-90588D01*
X1143412D01*
Y-90875D01*
Y-91161D01*
Y-91448D01*
Y-91734D01*
X1143985D01*
Y-91448D01*
X1144271D01*
Y-91161D01*
X1144557D01*
Y-90875D01*
Y-90588D01*
X1144844D01*
Y-90302D01*
X1145130D01*
Y-90016D01*
Y-89730D01*
X1145416D01*
Y-89443D01*
X1145702D01*
Y-89157D01*
Y-88871D01*
X1145989D01*
Y-88584D01*
X1146275D01*
Y-88298D01*
Y-88012D01*
X1146561D01*
Y-87725D01*
X1146848D01*
Y-87439D01*
Y-87153D01*
X1147134D01*
Y-86866D01*
X1147420D01*
Y-86580D01*
Y-86294D01*
X1147707D01*
Y-86007D01*
X1147993D01*
Y-85721D01*
Y-85435D01*
X1148279D01*
Y-85149D01*
X1148566D01*
Y-84862D01*
Y-84576D01*
X1148852D01*
Y-84290D01*
X1149138D01*
Y-84003D01*
Y-83717D01*
X1149425D01*
Y-83431D01*
X1165172D01*
Y-83717D01*
D02*
G37*
%LPC*%
G36*
X1027742Y-80568D02*
X1019725D01*
Y-80854D01*
Y-81140D01*
Y-81427D01*
Y-81713D01*
Y-81999D01*
X1019438D01*
Y-82285D01*
Y-82572D01*
Y-82858D01*
Y-83144D01*
Y-83431D01*
Y-83717D01*
X1019152D01*
Y-84003D01*
Y-84290D01*
Y-84576D01*
Y-84862D01*
Y-85149D01*
Y-85435D01*
X1018866D01*
Y-85721D01*
Y-86007D01*
Y-86294D01*
Y-86580D01*
Y-86866D01*
Y-87153D01*
X1018580D01*
Y-87439D01*
Y-87725D01*
Y-88012D01*
Y-88298D01*
Y-88584D01*
Y-88871D01*
Y-89157D01*
X1018293D01*
Y-89443D01*
Y-89730D01*
Y-90016D01*
Y-90302D01*
Y-90588D01*
Y-90875D01*
X1018007D01*
Y-91161D01*
Y-91448D01*
Y-91734D01*
X1025165D01*
Y-91448D01*
X1026310D01*
Y-91161D01*
X1026883D01*
Y-90875D01*
X1027169D01*
Y-90588D01*
X1027455D01*
Y-90302D01*
X1027742D01*
Y-90016D01*
X1028028D01*
Y-89730D01*
Y-89443D01*
X1028314D01*
Y-89157D01*
Y-88871D01*
X1028601D01*
Y-88584D01*
Y-88298D01*
X1028887D01*
Y-88012D01*
Y-87725D01*
Y-87439D01*
Y-87153D01*
X1029173D01*
Y-86866D01*
Y-86580D01*
Y-86294D01*
Y-86007D01*
Y-85721D01*
X1029459D01*
Y-85435D01*
Y-85149D01*
Y-84862D01*
Y-84576D01*
Y-84290D01*
Y-84003D01*
Y-83717D01*
Y-83431D01*
Y-83144D01*
Y-82858D01*
Y-82572D01*
X1029173D01*
Y-82285D01*
Y-81999D01*
X1028887D01*
Y-81713D01*
Y-81427D01*
X1028601D01*
Y-81140D01*
X1028314D01*
Y-80854D01*
X1027742D01*
Y-80568D01*
D02*
G37*
%LPD*%
D32*
X1342520Y-129921D02*
Y-122050D01*
X1346455D01*
X1347767Y-123362D01*
Y-125986D01*
X1346455Y-127297D01*
X1342520D01*
X1345144D02*
X1347767Y-129921D01*
X1354327D02*
X1351703D01*
X1350391Y-128609D01*
Y-125986D01*
X1351703Y-124674D01*
X1354327D01*
X1355639Y-125986D01*
Y-127297D01*
X1350391D01*
X1358263Y-124674D02*
X1360886Y-129921D01*
X1363510Y-124674D01*
X988189Y-161420D02*
Y-169291D01*
X992125D01*
X993437Y-167979D01*
Y-162732D01*
X992125Y-161420D01*
X988189D01*
X999996Y-169291D02*
X997372D01*
X996060Y-167979D01*
Y-165356D01*
X997372Y-164044D01*
X999996D01*
X1001308Y-165356D01*
Y-166667D01*
X996060D01*
X1003932Y-169291D02*
X1007868D01*
X1009180Y-167979D01*
X1007868Y-166667D01*
X1005244D01*
X1003932Y-165356D01*
X1005244Y-164044D01*
X1009180D01*
X1014427Y-171915D02*
X1015739D01*
X1017051Y-170603D01*
Y-164044D01*
X1013115D01*
X1011803Y-165356D01*
Y-167979D01*
X1013115Y-169291D01*
X1017051D01*
X1019675D02*
X1022299D01*
X1020987D01*
Y-164044D01*
X1019675D01*
X1026235Y-169291D02*
Y-164044D01*
X1030170D01*
X1031482Y-165356D01*
Y-169291D01*
X1038042D02*
X1035418D01*
X1034106Y-167979D01*
Y-165356D01*
X1035418Y-164044D01*
X1038042D01*
X1039354Y-165356D01*
Y-166667D01*
X1034106D01*
X1041977Y-164044D02*
Y-169291D01*
Y-166667D01*
X1043289Y-165356D01*
X1044601Y-164044D01*
X1045913D01*
X1185039Y-43310D02*
Y-51181D01*
X1188975D01*
X1190287Y-49869D01*
Y-44622D01*
X1188975Y-43310D01*
X1185039D01*
X1194223Y-51181D02*
X1196847D01*
X1198158Y-49869D01*
Y-47245D01*
X1196847Y-45933D01*
X1194223D01*
X1192911Y-47245D01*
Y-49869D01*
X1194223Y-51181D01*
X1206030Y-45933D02*
X1202094D01*
X1200782Y-47245D01*
Y-49869D01*
X1202094Y-51181D01*
X1206030D01*
X1208654Y-45933D02*
Y-49869D01*
X1209966Y-51181D01*
X1213902D01*
Y-45933D01*
X1216525Y-51181D02*
Y-45933D01*
X1217837D01*
X1219149Y-47245D01*
Y-51181D01*
Y-47245D01*
X1220461Y-45933D01*
X1221773Y-47245D01*
Y-51181D01*
X1228333D02*
X1225709D01*
X1224397Y-49869D01*
Y-47245D01*
X1225709Y-45933D01*
X1228333D01*
X1229644Y-47245D01*
Y-48557D01*
X1224397D01*
X1232268Y-51181D02*
Y-45933D01*
X1236204D01*
X1237516Y-47245D01*
Y-51181D01*
X1241452Y-44622D02*
Y-45933D01*
X1240140D01*
X1242764D01*
X1241452D01*
Y-49869D01*
X1242764Y-51181D01*
X1185039Y-82680D02*
Y-90551D01*
X1190287D01*
X1194223Y-85303D02*
X1196847D01*
X1198158Y-86615D01*
Y-90551D01*
X1194223D01*
X1192911Y-89239D01*
X1194223Y-87927D01*
X1198158D01*
X1200782Y-85303D02*
Y-89239D01*
X1202094Y-90551D01*
X1206030D01*
Y-91863D01*
X1204718Y-93175D01*
X1203406D01*
X1206030Y-90551D02*
Y-85303D01*
X1212590Y-90551D02*
X1209966D01*
X1208654Y-89239D01*
Y-86615D01*
X1209966Y-85303D01*
X1212590D01*
X1213902Y-86615D01*
Y-87927D01*
X1208654D01*
X1216525Y-85303D02*
Y-90551D01*
Y-87927D01*
X1217837Y-86615D01*
X1219149Y-85303D01*
X1220461D01*
X1232268Y-90551D02*
Y-82680D01*
X1237516Y-90551D01*
Y-82680D01*
X1241452Y-85303D02*
X1244075D01*
X1245387Y-86615D01*
Y-90551D01*
X1241452D01*
X1240140Y-89239D01*
X1241452Y-87927D01*
X1245387D01*
X1248011Y-90551D02*
Y-85303D01*
X1249323D01*
X1250635Y-86615D01*
Y-90551D01*
Y-86615D01*
X1251947Y-85303D01*
X1253259Y-86615D01*
Y-90551D01*
X1259818D02*
X1257195D01*
X1255883Y-89239D01*
Y-86615D01*
X1257195Y-85303D01*
X1259818D01*
X1261130Y-86615D01*
Y-87927D01*
X1255883D01*
X1185039Y-122050D02*
Y-129921D01*
X1188975D01*
X1190287Y-128609D01*
Y-123362D01*
X1188975Y-122050D01*
X1185039D01*
X1194223Y-124674D02*
X1196847D01*
X1198158Y-125986D01*
Y-129921D01*
X1194223D01*
X1192911Y-128609D01*
X1194223Y-127297D01*
X1198158D01*
X1202094Y-123362D02*
Y-124674D01*
X1200782D01*
X1203406D01*
X1202094D01*
Y-128609D01*
X1203406Y-129921D01*
X1211278D02*
X1208654D01*
X1207342Y-128609D01*
Y-125986D01*
X1208654Y-124674D01*
X1211278D01*
X1212589Y-125986D01*
Y-127297D01*
X1207342D01*
X1185039Y-161420D02*
Y-169291D01*
X1188975D01*
X1190287Y-167979D01*
Y-162732D01*
X1188975Y-161420D01*
X1185039D01*
X1194223Y-169291D02*
X1196847D01*
X1198158Y-167979D01*
Y-165356D01*
X1196847Y-164044D01*
X1194223D01*
X1192911Y-165356D01*
Y-167979D01*
X1194223Y-169291D01*
X1206030Y-164044D02*
X1202094D01*
X1200782Y-165356D01*
Y-167979D01*
X1202094Y-169291D01*
X1206030D01*
X1208654Y-164044D02*
Y-167979D01*
X1209966Y-169291D01*
X1213902D01*
Y-164044D01*
X1216525Y-169291D02*
Y-164044D01*
X1217837D01*
X1219149Y-165356D01*
Y-169291D01*
Y-165356D01*
X1220461Y-164044D01*
X1221773Y-165356D01*
Y-169291D01*
X1228333D02*
X1225709D01*
X1224397Y-167979D01*
Y-165356D01*
X1225709Y-164044D01*
X1228333D01*
X1229644Y-165356D01*
Y-166667D01*
X1224397D01*
X1232268Y-169291D02*
Y-164044D01*
X1236204D01*
X1237516Y-165356D01*
Y-169291D01*
X1241452Y-162732D02*
Y-164044D01*
X1240140D01*
X1242764D01*
X1241452D01*
Y-167979D01*
X1242764Y-169291D01*
D33*
X255906Y208661D02*
G03*
X244094Y220472I-11811J0D01*
G01*
Y0D02*
G03*
X255906Y11811I0J11811D01*
G01*
X0D02*
G03*
X11811Y0I11811J0D01*
G01*
Y220472D02*
G03*
X0Y208661I0J-11811D01*
G01*
Y11811D02*
Y208661D01*
X11811Y0D02*
X244094D01*
X11811Y220472D02*
X244094D01*
X255906Y11811D02*
Y208661D01*
X1338583Y-157480D02*
Y-118110D01*
X1181102Y-78740D02*
X1456693D01*
X1181102Y-118110D02*
X1456693D01*
X984252Y-157480D02*
X1456693D01*
X984252Y-39370D02*
X1456693D01*
X984252Y-196850D02*
Y-39370D01*
X1181102Y-196850D02*
Y-39370D01*
X-196850Y972441D02*
X1456693D01*
Y-196850D02*
Y972441D01*
X-196850Y-196850D02*
Y972441D01*
Y-196850D02*
X1456693D01*
X1190945Y-188976D02*
Y-183073D01*
X1193897D01*
X1194881Y-184057D01*
Y-186025D01*
X1193897Y-187009D01*
X1190945D01*
X1192913D02*
X1194881Y-188976D01*
X1196848D02*
Y-183073D01*
X1199800D01*
X1200784Y-184057D01*
Y-186025D01*
X1199800Y-187009D01*
X1196848D01*
X1202752Y-183073D02*
X1204720D01*
X1203736D01*
Y-188976D01*
X1202752D01*
X1204720D01*
X1207672Y-189960D02*
X1211607D01*
X1213575Y-183073D02*
Y-188976D01*
Y-186025D01*
X1217511D01*
Y-183073D01*
Y-188976D01*
X1219479D02*
Y-185041D01*
X1221447Y-183073D01*
X1223415Y-185041D01*
Y-188976D01*
Y-186025D01*
X1219479D01*
X1225383Y-183073D02*
X1229318D01*
X1227350D01*
Y-188976D01*
X1231286Y-189960D02*
X1235222D01*
X1237190Y-188976D02*
Y-185041D01*
X1239158Y-183073D01*
X1241125Y-185041D01*
Y-188976D01*
Y-186025D01*
X1237190D01*
X1243093Y-188976D02*
Y-183073D01*
X1245061Y-185041D01*
X1247029Y-183073D01*
Y-188976D01*
X1248997D02*
Y-183073D01*
X1251949D01*
X1252933Y-184057D01*
Y-186025D01*
X1251949Y-187009D01*
X1248997D01*
X1254900Y-189960D02*
X1258836D01*
X1260804Y-183073D02*
X1264740D01*
X1262772D01*
Y-188976D01*
X1266708D02*
Y-185041D01*
X1268676Y-183073D01*
X1270644Y-185041D01*
Y-188976D01*
Y-186025D01*
X1266708D01*
X1276547Y-184057D02*
X1275563Y-183073D01*
X1273595D01*
X1272611Y-184057D01*
Y-185041D01*
X1273595Y-186025D01*
X1275563D01*
X1276547Y-187009D01*
Y-187993D01*
X1275563Y-188976D01*
X1273595D01*
X1272611Y-187993D01*
X1282451Y-183073D02*
X1278515D01*
Y-186025D01*
X1280483Y-185041D01*
X1281467D01*
X1282451Y-186025D01*
Y-187993D01*
X1281467Y-188976D01*
X1279499D01*
X1278515Y-187993D01*
X1284418Y-183073D02*
X1288354D01*
Y-184057D01*
X1284418Y-187993D01*
Y-188976D01*
X1294258Y-183073D02*
X1290322D01*
Y-186025D01*
X1292290Y-185041D01*
X1293274D01*
X1294258Y-186025D01*
Y-187993D01*
X1293274Y-188976D01*
X1291306D01*
X1290322Y-187993D01*
X1300161Y-183073D02*
X1298194Y-184057D01*
X1296226Y-186025D01*
Y-187993D01*
X1297210Y-188976D01*
X1299177D01*
X1300161Y-187993D01*
Y-187009D01*
X1299177Y-186025D01*
X1296226D01*
X1302129Y-189960D02*
X1306065D01*
X1308033Y-184057D02*
X1309017Y-183073D01*
X1310985D01*
X1311969Y-184057D01*
Y-187993D01*
X1310985Y-188976D01*
X1309017D01*
X1308033Y-187993D01*
Y-184057D01*
X1313937Y-188976D02*
X1315904D01*
X1314921D01*
Y-183073D01*
X1313937Y-184057D01*
X1318856Y-188976D02*
Y-187993D01*
X1319840D01*
Y-188976D01*
X1318856D01*
X1323776D02*
Y-183073D01*
X1326728D01*
X1327712Y-184057D01*
Y-186025D01*
X1326728Y-187009D01*
X1323776D01*
X1333615Y-185041D02*
X1330663D01*
X1329679Y-186025D01*
Y-187993D01*
X1330663Y-188976D01*
X1333615D01*
X1335583Y-183073D02*
Y-188976D01*
X1338535D01*
X1339519Y-187993D01*
Y-187009D01*
Y-186025D01*
X1338535Y-185041D01*
X1335583D01*
X1341487Y-183073D02*
Y-188976D01*
X1344438D01*
X1345422Y-187993D01*
Y-184057D01*
X1344438Y-183073D01*
X1341487D01*
X1348374Y-188976D02*
X1350342D01*
X1351326Y-187993D01*
Y-186025D01*
X1350342Y-185041D01*
X1348374D01*
X1347390Y-186025D01*
Y-187993D01*
X1348374Y-188976D01*
X1357230Y-185041D02*
X1354278D01*
X1353294Y-186025D01*
Y-187993D01*
X1354278Y-188976D01*
X1357230D01*
X427779Y107938D02*
X429091Y109249D01*
X431715D01*
X433027Y107938D01*
Y106626D01*
X431715Y105314D01*
X430403D01*
X431715D01*
X433027Y104002D01*
Y102690D01*
X431715Y101378D01*
X429091D01*
X427779Y102690D01*
X440898Y101378D02*
X435650D01*
X440898Y106626D01*
Y107938D01*
X439586Y109249D01*
X436962D01*
X435650Y107938D01*
X448770Y109249D02*
X446146Y107938D01*
X443522Y105314D01*
Y102690D01*
X444834Y101378D01*
X447458D01*
X448770Y102690D01*
Y104002D01*
X447458Y105314D01*
X443522D01*
X516573Y101378D02*
X519197D01*
X517885D01*
Y109249D01*
X516573Y107938D01*
X523133Y101378D02*
X525757D01*
X524445D01*
Y109249D01*
X523133Y107938D01*
X529693Y101378D02*
Y102690D01*
X531004D01*
Y101378D01*
X529693D01*
X536252Y107938D02*
X537564Y109249D01*
X540188D01*
X541500Y107938D01*
Y106626D01*
X540188Y105314D01*
X541500Y104002D01*
Y102690D01*
X540188Y101378D01*
X537564D01*
X536252Y102690D01*
Y104002D01*
X537564Y105314D01*
X536252Y106626D01*
Y107938D01*
X537564Y105314D02*
X540188D01*
X544124Y101378D02*
X546747D01*
X545436D01*
Y109249D01*
X544124Y107938D01*
X550683Y101378D02*
X553307D01*
X551995D01*
Y109249D01*
X550683Y107938D01*
X557243Y101378D02*
Y106626D01*
X558555D01*
X559867Y105314D01*
Y101378D01*
Y105314D01*
X561178Y106626D01*
X562490Y105314D01*
Y101378D01*
X565114D02*
X567738D01*
X566426D01*
Y106626D01*
X565114D01*
X571674Y101378D02*
X574298D01*
X572986D01*
Y109249D01*
X571674D01*
X588729Y101378D02*
X586105Y104002D01*
Y106626D01*
X588729Y109249D01*
X592664Y107938D02*
X593976Y109249D01*
X596600D01*
X597912Y107938D01*
Y102690D01*
X596600Y101378D01*
X593976D01*
X592664Y102690D01*
Y107938D01*
X600536Y101378D02*
Y102690D01*
X601848D01*
Y101378D01*
X600536D01*
X607095Y107938D02*
X608407Y109249D01*
X611031D01*
X612343Y107938D01*
Y106626D01*
X611031Y105314D01*
X609719D01*
X611031D01*
X612343Y104002D01*
Y102690D01*
X611031Y101378D01*
X608407D01*
X607095Y102690D01*
X614967Y101378D02*
Y106626D01*
X616279D01*
X617591Y105314D01*
Y101378D01*
Y105314D01*
X618903Y106626D01*
X620215Y105314D01*
Y101378D01*
X622838D02*
Y106626D01*
X624150D01*
X625462Y105314D01*
Y101378D01*
Y105314D01*
X626774Y106626D01*
X628086Y105314D01*
Y101378D01*
X630710D02*
X633334Y104002D01*
Y106626D01*
X630710Y109249D01*
X690380Y101378D02*
Y109249D01*
X694316D01*
X695628Y107938D01*
Y105314D01*
X694316Y104002D01*
X690380D01*
X698251Y109249D02*
X703499D01*
X700875D01*
Y101378D01*
X706123Y109249D02*
Y101378D01*
Y105314D01*
X711371D01*
Y109249D01*
Y101378D01*
X753986D02*
Y109249D01*
X757921D01*
X759233Y107938D01*
Y105314D01*
X757921Y104002D01*
X753986D01*
X756609D02*
X759233Y101378D01*
X763169D02*
X765793D01*
X767105Y102690D01*
Y105314D01*
X765793Y106626D01*
X763169D01*
X761857Y105314D01*
Y102690D01*
X763169Y101378D01*
X769729Y106626D02*
Y102690D01*
X771040Y101378D01*
X774976D01*
Y106626D01*
X777600Y101378D02*
Y106626D01*
X781536D01*
X782848Y105314D01*
Y101378D01*
X790719Y109249D02*
Y101378D01*
X786784D01*
X785472Y102690D01*
Y105314D01*
X786784Y106626D01*
X790719D01*
X433027Y93501D02*
X427779D01*
Y89566D01*
X430403Y90878D01*
X431715D01*
X433027Y89566D01*
Y86942D01*
X431715Y85630D01*
X429091D01*
X427779Y86942D01*
X521821Y85630D02*
X516573D01*
X521821Y90878D01*
Y92190D01*
X520509Y93501D01*
X517885D01*
X516573Y92190D01*
X524445D02*
X525757Y93501D01*
X528381D01*
X529693Y92190D01*
Y90878D01*
X528381Y89566D01*
X527069D01*
X528381D01*
X529693Y88254D01*
Y86942D01*
X528381Y85630D01*
X525757D01*
X524445Y86942D01*
X532316Y85630D02*
Y86942D01*
X533628D01*
Y85630D01*
X532316D01*
X544124Y93501D02*
X541500Y92190D01*
X538876Y89566D01*
Y86942D01*
X540188Y85630D01*
X542812D01*
X544124Y86942D01*
Y88254D01*
X542812Y89566D01*
X538876D01*
X551995Y85630D02*
X546747D01*
X551995Y90878D01*
Y92190D01*
X550683Y93501D01*
X548059D01*
X546747Y92190D01*
X559867Y85630D02*
X554619D01*
X559867Y90878D01*
Y92190D01*
X558555Y93501D01*
X555931D01*
X554619Y92190D01*
X562491Y85630D02*
Y90878D01*
X563802D01*
X565114Y89566D01*
Y85630D01*
Y89566D01*
X566426Y90878D01*
X567738Y89566D01*
Y85630D01*
X570362D02*
X572986D01*
X571674D01*
Y90878D01*
X570362D01*
X576922Y85630D02*
X579545D01*
X578233D01*
Y93501D01*
X576922D01*
X593976Y85630D02*
X591353Y88254D01*
Y90878D01*
X593976Y93501D01*
X597912Y92190D02*
X599224Y93501D01*
X601848D01*
X603160Y92190D01*
Y86942D01*
X601848Y85630D01*
X599224D01*
X597912Y86942D01*
Y92190D01*
X605784Y85630D02*
Y86942D01*
X607095D01*
Y85630D01*
X605784D01*
X617591Y93501D02*
X614967Y92190D01*
X612343Y89566D01*
Y86942D01*
X613655Y85630D01*
X616279D01*
X617591Y86942D01*
Y88254D01*
X616279Y89566D01*
X612343D01*
X620215Y85630D02*
Y90878D01*
X621526D01*
X622838Y89566D01*
Y85630D01*
Y89566D01*
X624150Y90878D01*
X625462Y89566D01*
Y85630D01*
X628086D02*
Y90878D01*
X629398D01*
X630710Y89566D01*
Y85630D01*
Y89566D01*
X632022Y90878D01*
X633334Y89566D01*
Y85630D01*
X635958D02*
X638581Y88254D01*
Y90878D01*
X635958Y93501D01*
X690380Y85630D02*
Y93501D01*
X694316D01*
X695628Y92190D01*
Y89566D01*
X694316Y88254D01*
X690380D01*
X698251Y93501D02*
X703499D01*
X700875D01*
Y85630D01*
X706123Y93501D02*
Y85630D01*
Y89566D01*
X711371D01*
Y93501D01*
Y85630D01*
X753986D02*
Y93501D01*
X757921D01*
X759233Y92190D01*
Y89566D01*
X757921Y88254D01*
X753986D01*
X756609D02*
X759233Y85630D01*
X763169D02*
X765793D01*
X767105Y86942D01*
Y89566D01*
X765793Y90878D01*
X763169D01*
X761857Y89566D01*
Y86942D01*
X763169Y85630D01*
X769729Y90878D02*
Y86942D01*
X771040Y85630D01*
X774976D01*
Y90878D01*
X777600Y85630D02*
Y90878D01*
X781536D01*
X782848Y89566D01*
Y85630D01*
X790719Y93501D02*
Y85630D01*
X786784D01*
X785472Y86942D01*
Y89566D01*
X786784Y90878D01*
X790719D01*
X433027Y77753D02*
X427779D01*
Y73818D01*
X430403Y75130D01*
X431715D01*
X433027Y73818D01*
Y71194D01*
X431715Y69882D01*
X429091D01*
X427779Y71194D01*
X435650Y76442D02*
X436962Y77753D01*
X439586D01*
X440898Y76442D01*
Y71194D01*
X439586Y69882D01*
X436962D01*
X435650Y71194D01*
Y76442D01*
X516573D02*
X517885Y77753D01*
X520509D01*
X521821Y76442D01*
Y75130D01*
X520509Y73818D01*
X519197D01*
X520509D01*
X521821Y72506D01*
Y71194D01*
X520509Y69882D01*
X517885D01*
X516573Y71194D01*
X529693Y77753D02*
X524445D01*
Y73818D01*
X527069Y75130D01*
X528381D01*
X529693Y73818D01*
Y71194D01*
X528381Y69882D01*
X525757D01*
X524445Y71194D01*
X532316Y69882D02*
Y71194D01*
X533628D01*
Y69882D01*
X532316D01*
X542812D02*
Y77753D01*
X538876Y73818D01*
X544124D01*
X546747Y76442D02*
X548059Y77753D01*
X550683D01*
X551995Y76442D01*
Y75130D01*
X550683Y73818D01*
X549371D01*
X550683D01*
X551995Y72506D01*
Y71194D01*
X550683Y69882D01*
X548059D01*
X546747Y71194D01*
X554619Y76442D02*
X555931Y77753D01*
X558555D01*
X559867Y76442D01*
Y75130D01*
X558555Y73818D01*
X557243D01*
X558555D01*
X559867Y72506D01*
Y71194D01*
X558555Y69882D01*
X555931D01*
X554619Y71194D01*
X562491Y69882D02*
Y75130D01*
X563802D01*
X565114Y73818D01*
Y69882D01*
Y73818D01*
X566426Y75130D01*
X567738Y73818D01*
Y69882D01*
X570362D02*
X572986D01*
X571674D01*
Y75130D01*
X570362D01*
X576922Y69882D02*
X579545D01*
X578233D01*
Y77753D01*
X576922D01*
X593976Y69882D02*
X591353Y72506D01*
Y75130D01*
X593976Y77753D01*
X597912Y76442D02*
X599224Y77753D01*
X601848D01*
X603160Y76442D01*
Y71194D01*
X601848Y69882D01*
X599224D01*
X597912Y71194D01*
Y76442D01*
X605784Y69882D02*
Y71194D01*
X607095D01*
Y69882D01*
X605784D01*
X612343Y71194D02*
X613655Y69882D01*
X616279D01*
X617591Y71194D01*
Y76442D01*
X616279Y77753D01*
X613655D01*
X612343Y76442D01*
Y75130D01*
X613655Y73818D01*
X617591D01*
X620215Y69882D02*
Y75130D01*
X621526D01*
X622838Y73818D01*
Y69882D01*
Y73818D01*
X624150Y75130D01*
X625462Y73818D01*
Y69882D01*
X628086D02*
Y75130D01*
X629398D01*
X630710Y73818D01*
Y69882D01*
Y73818D01*
X632022Y75130D01*
X633334Y73818D01*
Y69882D01*
X635958D02*
X638581Y72506D01*
Y75130D01*
X635958Y77753D01*
X690380Y69882D02*
Y77753D01*
X694316D01*
X695628Y76442D01*
Y73818D01*
X694316Y72506D01*
X690380D01*
X698251Y77753D02*
X703499D01*
X700875D01*
Y69882D01*
X706123Y77753D02*
Y69882D01*
Y73818D01*
X711371D01*
Y77753D01*
Y69882D01*
X753986D02*
Y77753D01*
X757921D01*
X759233Y76442D01*
Y73818D01*
X757921Y72506D01*
X753986D01*
X756609D02*
X759233Y69882D01*
X763169D02*
X765793D01*
X767105Y71194D01*
Y73818D01*
X765793Y75130D01*
X763169D01*
X761857Y73818D01*
Y71194D01*
X763169Y69882D01*
X769729Y75130D02*
Y71194D01*
X771040Y69882D01*
X774976D01*
Y75130D01*
X777600Y69882D02*
Y75130D01*
X781536D01*
X782848Y73818D01*
Y69882D01*
X790719Y77753D02*
Y69882D01*
X786784D01*
X785472Y71194D01*
Y73818D01*
X786784Y75130D01*
X790719D01*
X433027Y62005D02*
X430403Y60693D01*
X427779Y58070D01*
Y55446D01*
X429091Y54134D01*
X431715D01*
X433027Y55446D01*
Y56758D01*
X431715Y58070D01*
X427779D01*
X521821Y62005D02*
X516573D01*
Y58070D01*
X519197Y59382D01*
X520509D01*
X521821Y58070D01*
Y55446D01*
X520509Y54134D01*
X517885D01*
X516573Y55446D01*
X524445Y54134D02*
X527069D01*
X525757D01*
Y62005D01*
X524445Y60693D01*
X531004Y54134D02*
Y55446D01*
X532316D01*
Y54134D01*
X531004D01*
X537564D02*
X540188D01*
X538876D01*
Y62005D01*
X537564Y60693D01*
X544124D02*
X545436Y62005D01*
X548059D01*
X549371Y60693D01*
Y59382D01*
X548059Y58070D01*
X549371Y56758D01*
Y55446D01*
X548059Y54134D01*
X545436D01*
X544124Y55446D01*
Y56758D01*
X545436Y58070D01*
X544124Y59382D01*
Y60693D01*
X545436Y58070D02*
X548059D01*
X551995Y54134D02*
X554619D01*
X553307D01*
Y62005D01*
X551995Y60693D01*
X558555Y54134D02*
Y59382D01*
X559867D01*
X561178Y58070D01*
Y54134D01*
Y58070D01*
X562490Y59382D01*
X563802Y58070D01*
Y54134D01*
X566426D02*
X569050D01*
X567738D01*
Y59382D01*
X566426D01*
X572986Y54134D02*
X575610D01*
X574298D01*
Y62005D01*
X572986D01*
X590041Y54134D02*
X587417Y56758D01*
Y59382D01*
X590041Y62005D01*
X593976Y54134D02*
X596600D01*
X595288D01*
Y62005D01*
X593976Y60693D01*
X600536Y54134D02*
Y55446D01*
X601848D01*
Y54134D01*
X600536D01*
X607095Y60693D02*
X608407Y62005D01*
X611031D01*
X612343Y60693D01*
Y59382D01*
X611031Y58070D01*
X609719D01*
X611031D01*
X612343Y56758D01*
Y55446D01*
X611031Y54134D01*
X608407D01*
X607095Y55446D01*
X614967Y54134D02*
Y59382D01*
X616279D01*
X617591Y58070D01*
Y54134D01*
Y58070D01*
X618903Y59382D01*
X620215Y58070D01*
Y54134D01*
X622838D02*
Y59382D01*
X624150D01*
X625462Y58070D01*
Y54134D01*
Y58070D01*
X626774Y59382D01*
X628086Y58070D01*
Y54134D01*
X630710D02*
X633334Y56758D01*
Y59382D01*
X630710Y62005D01*
X690380Y54134D02*
Y62005D01*
X694316D01*
X695628Y60693D01*
Y58070D01*
X694316Y56758D01*
X690380D01*
X698251Y62005D02*
X703499D01*
X700875D01*
Y54134D01*
X706123Y62005D02*
Y54134D01*
Y58070D01*
X711371D01*
Y62005D01*
Y54134D01*
X753986D02*
Y62005D01*
X757921D01*
X759233Y60693D01*
Y58070D01*
X757921Y56758D01*
X753986D01*
X756609D02*
X759233Y54134D01*
X763169D02*
X765793D01*
X767105Y55446D01*
Y58070D01*
X765793Y59382D01*
X763169D01*
X761857Y58070D01*
Y55446D01*
X763169Y54134D01*
X769729Y59382D02*
Y55446D01*
X771040Y54134D01*
X774976D01*
Y59382D01*
X777600Y54134D02*
Y59382D01*
X781536D01*
X782848Y58070D01*
Y54134D01*
X790719Y62005D02*
Y54134D01*
X786784D01*
X785472Y55446D01*
Y58070D01*
X786784Y59382D01*
X790719D01*
X433027Y46257D02*
X427779D01*
Y42322D01*
X430403Y43633D01*
X431715D01*
X433027Y42322D01*
Y39698D01*
X431715Y38386D01*
X429091D01*
X427779Y39698D01*
X516573Y38386D02*
X519197D01*
X517885D01*
Y46257D01*
X516573Y44945D01*
X523133D02*
X524445Y46257D01*
X527069D01*
X528381Y44945D01*
Y39698D01*
X527069Y38386D01*
X524445D01*
X523133Y39698D01*
Y44945D01*
X531004D02*
X532316Y46257D01*
X534940D01*
X536252Y44945D01*
Y43633D01*
X534940Y42322D01*
X536252Y41010D01*
Y39698D01*
X534940Y38386D01*
X532316D01*
X531004Y39698D01*
Y41010D01*
X532316Y42322D01*
X531004Y43633D01*
Y44945D01*
X532316Y42322D02*
X534940D01*
X538876Y38386D02*
Y39698D01*
X540188D01*
Y38386D01*
X538876D01*
X550683D02*
X545436D01*
X550683Y43633D01*
Y44945D01*
X549371Y46257D01*
X546747D01*
X545436Y44945D01*
X558555Y46257D02*
X555931Y44945D01*
X553307Y42322D01*
Y39698D01*
X554619Y38386D01*
X557243D01*
X558555Y39698D01*
Y41010D01*
X557243Y42322D01*
X553307D01*
X561178Y44945D02*
X562490Y46257D01*
X565114D01*
X566426Y44945D01*
Y43633D01*
X565114Y42322D01*
X566426Y41010D01*
Y39698D01*
X565114Y38386D01*
X562490D01*
X561178Y39698D01*
Y41010D01*
X562490Y42322D01*
X561178Y43633D01*
Y44945D01*
X562490Y42322D02*
X565114D01*
X569050Y38386D02*
Y43633D01*
X570362D01*
X571674Y42322D01*
Y38386D01*
Y42322D01*
X572986Y43633D01*
X574298Y42322D01*
Y38386D01*
X576922D02*
X579545D01*
X578233D01*
Y43633D01*
X576922D01*
X583481Y38386D02*
X586105D01*
X584793D01*
Y46257D01*
X583481D01*
X600536Y38386D02*
X597912Y41010D01*
Y43633D01*
X600536Y46257D01*
X609719Y38386D02*
X604472D01*
X609719Y43633D01*
Y44945D01*
X608407Y46257D01*
X605784D01*
X604472Y44945D01*
X612343Y38386D02*
Y39698D01*
X613655D01*
Y38386D01*
X612343D01*
X618903Y46257D02*
X624150D01*
Y44945D01*
X618903Y39698D01*
Y38386D01*
X632022Y46257D02*
X626774D01*
Y42322D01*
X629398Y43633D01*
X630710D01*
X632022Y42322D01*
Y39698D01*
X630710Y38386D01*
X628086D01*
X626774Y39698D01*
X634646Y38386D02*
Y43633D01*
X635958D01*
X637269Y42322D01*
Y38386D01*
Y42322D01*
X638581Y43633D01*
X639893Y42322D01*
Y38386D01*
X642517D02*
Y43633D01*
X643829D01*
X645141Y42322D01*
Y38386D01*
Y42322D01*
X646453Y43633D01*
X647765Y42322D01*
Y38386D01*
X650389D02*
X653012Y41010D01*
Y43633D01*
X650389Y46257D01*
X690380Y38386D02*
Y46257D01*
X695628Y38386D01*
Y46257D01*
X698251Y38386D02*
Y46257D01*
X702187D01*
X703499Y44945D01*
Y42322D01*
X702187Y41010D01*
X698251D01*
X706123Y46257D02*
X711371D01*
X708747D01*
Y38386D01*
X713994Y46257D02*
Y38386D01*
Y42322D01*
X719242D01*
Y46257D01*
Y38386D01*
X753986D02*
Y46257D01*
X757921D01*
X759233Y44945D01*
Y42322D01*
X757921Y41010D01*
X753986D01*
X756609D02*
X759233Y38386D01*
X763169D02*
X765793D01*
X767105Y39698D01*
Y42322D01*
X765793Y43633D01*
X763169D01*
X761857Y42322D01*
Y39698D01*
X763169Y38386D01*
X769729Y43633D02*
Y39698D01*
X771040Y38386D01*
X774976D01*
Y43633D01*
X777600Y38386D02*
Y43633D01*
X781536D01*
X782848Y42322D01*
Y38386D01*
X790719Y46257D02*
Y38386D01*
X786784D01*
X785472Y39698D01*
Y42322D01*
X786784Y43633D01*
X790719D01*
X427779Y29197D02*
X429091Y30509D01*
X431715D01*
X433027Y29197D01*
Y27885D01*
X431715Y26574D01*
X430403D01*
X431715D01*
X433027Y25262D01*
Y23950D01*
X431715Y22638D01*
X429091D01*
X427779Y23950D01*
X435650D02*
X436962Y22638D01*
X439586D01*
X440898Y23950D01*
Y29197D01*
X439586Y30509D01*
X436962D01*
X435650Y29197D01*
Y27885D01*
X436962Y26574D01*
X440898D01*
X448770Y22638D02*
X443522D01*
X448770Y27885D01*
Y29197D01*
X447458Y30509D01*
X444834D01*
X443522Y29197D01*
X461053Y30509D02*
X466301D01*
X463677D01*
Y22638D01*
X470236D02*
X472860D01*
X474172Y23950D01*
Y26574D01*
X472860Y27885D01*
X470236D01*
X468925Y26574D01*
Y23950D01*
X470236Y22638D01*
X478108Y29197D02*
Y27885D01*
X476796D01*
X479420D01*
X478108D01*
Y23950D01*
X479420Y22638D01*
X484667Y27885D02*
X487291D01*
X488603Y26574D01*
Y22638D01*
X484667D01*
X483356Y23950D01*
X484667Y25262D01*
X488603D01*
X491227Y22638D02*
X493851D01*
X492539D01*
Y30509D01*
X491227D01*
D35*
X1005906Y-175202D02*
Y-190945D01*
X1011153Y-185697D01*
X1016401Y-190945D01*
Y-175202D01*
X1021649Y-190945D02*
X1026896D01*
X1024272D01*
Y-180450D01*
X1021649D01*
X1034768Y-190945D02*
Y-180450D01*
X1037391D01*
X1040015Y-183073D01*
Y-190945D01*
Y-183073D01*
X1042639Y-180450D01*
X1045263Y-183073D01*
Y-190945D01*
X1050511Y-175202D02*
Y-185697D01*
X1055758Y-190945D01*
X1061006Y-185697D01*
Y-175202D01*
X1076749Y-177826D02*
X1074125Y-175202D01*
X1068877D01*
X1066253Y-177826D01*
Y-188321D01*
X1068877Y-190945D01*
X1074125D01*
X1076749Y-188321D01*
Y-183073D01*
X1071501D01*
X1360236Y-138456D02*
X1362860Y-135832D01*
X1368108D01*
X1370732Y-138456D01*
Y-148951D01*
X1368108Y-151575D01*
X1362860D01*
X1360236Y-148951D01*
Y-138456D01*
X1375979Y-151575D02*
X1381227D01*
X1378603D01*
Y-135832D01*
X1375979Y-138456D01*
X1206034Y-151575D02*
X1196850D01*
X1206034Y-142391D01*
Y-140096D01*
X1203738Y-137800D01*
X1199146D01*
X1196850Y-140096D01*
X1210625Y-149279D02*
X1212921Y-151575D01*
X1217513D01*
X1219809Y-149279D01*
Y-140096D01*
X1217513Y-137800D01*
X1212921D01*
X1210625Y-140096D01*
Y-142391D01*
X1212921Y-144687D01*
X1219809D01*
X1224401Y-151575D02*
X1233584Y-142391D01*
X1238176Y-140096D02*
X1240471Y-137800D01*
X1245063D01*
X1247359Y-140096D01*
Y-149279D01*
X1245063Y-151575D01*
X1240471D01*
X1238176Y-149279D01*
Y-140096D01*
X1251951D02*
X1254247Y-137800D01*
X1258838D01*
X1261134Y-140096D01*
Y-142391D01*
X1258838Y-144687D01*
X1261134Y-146983D01*
Y-149279D01*
X1258838Y-151575D01*
X1254247D01*
X1251951Y-149279D01*
Y-146983D01*
X1254247Y-144687D01*
X1251951Y-142391D01*
Y-140096D01*
X1254247Y-144687D02*
X1258838D01*
X1265726Y-151575D02*
X1274909Y-142391D01*
X1288684Y-151575D02*
X1279501D01*
X1288684Y-142391D01*
Y-140096D01*
X1286388Y-137800D01*
X1281797D01*
X1279501Y-140096D01*
X1293276D02*
X1295572Y-137800D01*
X1300163D01*
X1302459Y-140096D01*
Y-149279D01*
X1300163Y-151575D01*
X1295572D01*
X1293276Y-149279D01*
Y-140096D01*
X1307051Y-151575D02*
X1311643D01*
X1309347D01*
Y-137800D01*
X1307051Y-140096D01*
X1327714Y-137800D02*
X1318530D01*
Y-144687D01*
X1323122Y-142391D01*
X1325418D01*
X1327714Y-144687D01*
Y-149279D01*
X1325418Y-151575D01*
X1320826D01*
X1318530Y-149279D01*
X1190945Y-57092D02*
X1201440D01*
X1196192D01*
Y-72835D01*
X1206688D02*
Y-62339D01*
X1211936Y-57092D01*
X1217183Y-62339D01*
Y-72835D01*
Y-64963D01*
X1206688D01*
X1232926Y-59715D02*
X1230302Y-57092D01*
X1225055D01*
X1222431Y-59715D01*
Y-62339D01*
X1225055Y-64963D01*
X1230302D01*
X1232926Y-67587D01*
Y-70211D01*
X1230302Y-72835D01*
X1225055D01*
X1222431Y-70211D01*
X1248669Y-57092D02*
X1238174D01*
Y-64963D01*
X1243421Y-62339D01*
X1246045D01*
X1248669Y-64963D01*
Y-70211D01*
X1246045Y-72835D01*
X1240798D01*
X1238174Y-70211D01*
X1253917Y-57092D02*
X1264412D01*
Y-59715D01*
X1253917Y-70211D01*
Y-72835D01*
X1280155Y-57092D02*
X1269660D01*
Y-64963D01*
X1274907Y-62339D01*
X1277531D01*
X1280155Y-64963D01*
Y-70211D01*
X1277531Y-72835D01*
X1272283D01*
X1269660Y-70211D01*
X1295898Y-57092D02*
X1290650Y-59715D01*
X1285402Y-64963D01*
Y-70211D01*
X1288026Y-72835D01*
X1293274D01*
X1295898Y-70211D01*
Y-67587D01*
X1293274Y-64963D01*
X1285402D01*
X1316888Y-57092D02*
Y-72835D01*
Y-64963D01*
X1327384D01*
Y-57092D01*
Y-72835D01*
X1332631D02*
Y-62339D01*
X1337879Y-57092D01*
X1343127Y-62339D01*
Y-72835D01*
Y-64963D01*
X1332631D01*
X1348374Y-57092D02*
X1358870D01*
X1353622D01*
Y-72835D01*
X1202756Y-96461D02*
Y-110236D01*
X1209643D01*
X1211939Y-107940D01*
Y-98757D01*
X1209643Y-96461D01*
X1202756D01*
X1216531Y-101053D02*
Y-110236D01*
Y-105645D01*
X1218827Y-103349D01*
X1221123Y-101053D01*
X1223419D01*
X1230306Y-110236D02*
X1234898D01*
X1232602D01*
Y-101053D01*
X1230306D01*
X1241785Y-110236D02*
X1246377D01*
X1244081D01*
Y-96461D01*
X1241785D01*
X1253265Y-110236D02*
X1257856D01*
X1255560D01*
Y-96461D01*
X1253265D01*
X1278519D02*
Y-110236D01*
X1285406D01*
X1287702Y-107940D01*
Y-98757D01*
X1285406Y-96461D01*
X1278519D01*
X1292294Y-101053D02*
Y-110236D01*
Y-105645D01*
X1294590Y-103349D01*
X1296886Y-101053D01*
X1299181D01*
X1308365D02*
X1312957D01*
X1315252Y-103349D01*
Y-110236D01*
X1308365D01*
X1306069Y-107940D01*
X1308365Y-105645D01*
X1315252D01*
X1319844Y-101053D02*
Y-107940D01*
X1322140Y-110236D01*
X1324436Y-107940D01*
X1326732Y-110236D01*
X1329027Y-107940D01*
Y-101053D01*
X1333619Y-110236D02*
X1338211D01*
X1335915D01*
Y-101053D01*
X1333619D01*
X1345098Y-110236D02*
Y-101053D01*
X1351986D01*
X1354282Y-103349D01*
Y-110236D01*
X1363465Y-114828D02*
X1365761D01*
X1368057Y-112532D01*
Y-101053D01*
X1361169D01*
X1358873Y-103349D01*
Y-107940D01*
X1361169Y-110236D01*
X1368057D01*
D39*
X-14780Y13780D02*
X575D01*
X-14780Y0D02*
X0D01*
X-13780Y-10000D02*
Y0D01*
Y13780D02*
Y23779D01*
X-15779Y-6000D02*
X-13780Y0D01*
X-11779Y-6000D01*
X-13780Y13780D02*
X-11779Y19780D01*
X-15779D02*
X-13780Y13780D01*
X13780Y-12811D02*
Y575D01*
X0Y-12811D02*
Y0D01*
X-10000Y-11811D02*
X0D01*
X13780D02*
X23779D01*
X-6000Y-9811D02*
X0Y-11811D01*
X-6000Y-13811D02*
X0Y-11811D01*
X13780D02*
X19780Y-13811D01*
X13780Y-11811D02*
X19780Y-9811D01*
X370173Y73819D02*
G03*
X370173Y73819I-3000J0D01*
G01*
D81*
X-27975Y-5707D02*
X-28975Y-4707D01*
Y-2708D01*
X-27975Y-1708D01*
X-26976D01*
X-25976Y-2708D01*
Y-3707D01*
Y-2708D01*
X-24976Y-1708D01*
X-23977D01*
X-22977Y-2708D01*
Y-4707D01*
X-23977Y-5707D01*
X-21977Y1291D02*
X-22977Y2291D01*
X-23977D01*
Y1291D01*
X-22977D01*
Y2291D01*
X-21977Y1291D01*
X-20978Y291D01*
X-28975Y10288D02*
Y6289D01*
X-25976D01*
X-26976Y8289D01*
Y9289D01*
X-25976Y10288D01*
X-23977D01*
X-22977Y9289D01*
Y7289D01*
X-23977Y6289D01*
X-27975Y12287D02*
X-28975Y13287D01*
Y15286D01*
X-27975Y16286D01*
X-23977D01*
X-22977Y15286D01*
Y13287D01*
X-23977Y12287D01*
X-27975D01*
X-5707Y-25207D02*
X-4707Y-24208D01*
X-2708D01*
X-1708Y-25207D01*
Y-26207D01*
X-2708Y-27207D01*
X-3707D01*
X-2708D01*
X-1708Y-28207D01*
Y-29206D01*
X-2708Y-30206D01*
X-4707D01*
X-5707Y-29206D01*
X1291Y-31205D02*
X2291Y-30206D01*
Y-29206D01*
X1291D01*
Y-30206D01*
X2291D01*
X1291Y-31205D01*
X291Y-32205D01*
X10288Y-24208D02*
X6289D01*
Y-27207D01*
X8289Y-26207D01*
X9289D01*
X10288Y-27207D01*
Y-29206D01*
X9289Y-30206D01*
X7289D01*
X6289Y-29206D01*
X12287Y-25207D02*
X13287Y-24208D01*
X15286D01*
X16286Y-25207D01*
Y-29206D01*
X15286Y-30206D01*
X13287D01*
X12287Y-29206D01*
Y-25207D01*
D82*
X44476Y150775D02*
Y152375D01*
X46076D01*
Y150775D01*
X44476D01*
X179606Y176523D02*
X178806Y178123D01*
X180406D01*
X179606Y176523D01*
X169606Y166523D02*
X168806Y168123D01*
X170406D01*
X169606Y166523D01*
X179606Y186523D02*
X178806Y188123D01*
X180406D01*
X179606Y186523D01*
X149606Y166523D02*
X148806Y168123D01*
X150406D01*
X149606Y166523D01*
X159606D02*
X158806Y168123D01*
X160406D01*
X159606Y166523D01*
X194724Y12979D02*
X195124Y13379D01*
X195524D01*
X195124Y13780D01*
X195524Y14179D01*
X195124D01*
X194724Y14580D01*
X194324Y14179D01*
X193924D01*
X194324Y13780D01*
X193924Y13379D01*
X194324D01*
X194724Y12979D01*
X214724D02*
X215124Y13379D01*
X215524D01*
X215124Y13780D01*
X215524Y14179D01*
X215124D01*
X214724Y14580D01*
X214324Y14179D01*
X213924D01*
X214324Y13780D01*
X213924Y13379D01*
X214324D01*
X214724Y12979D01*
X135669D02*
X136069Y13379D01*
X136469D01*
X136069Y13780D01*
X136469Y14179D01*
X136069D01*
X135669Y14580D01*
X135269Y14179D01*
X134869D01*
X135269Y13780D01*
X134869Y13379D01*
X135269D01*
X135669Y12979D01*
X155669D02*
X156069Y13379D01*
X156469D01*
X156069Y13780D01*
X156469Y14179D01*
X156069D01*
X155669Y14580D01*
X155269Y14179D01*
X154869D01*
X155269Y13780D01*
X154869Y13379D01*
X155269D01*
X155669Y12979D01*
X49055D02*
X49455Y13379D01*
X49855D01*
X49455Y13780D01*
X49855Y14179D01*
X49455D01*
X49055Y14580D01*
X48655Y14179D01*
X48255D01*
X48655Y13780D01*
X48255Y13379D01*
X48655D01*
X49055Y12979D01*
X69055D02*
X69455Y13379D01*
X69855D01*
X69455Y13780D01*
X69855Y14179D01*
X69455D01*
X69055Y14580D01*
X68655Y14179D01*
X68255D01*
X68655Y13780D01*
X68255Y13379D01*
X68655D01*
X69055Y12979D01*
X241326D02*
Y14580D01*
X242926D01*
Y12979D01*
X241326D01*
Y205893D02*
Y207493D01*
X242926D01*
Y205893D01*
X241326D01*
X12979D02*
Y207493D01*
X14580D01*
Y205893D01*
X12979D01*
Y12979D02*
Y14580D01*
X14580D01*
Y12979D01*
X12979D01*
X30696Y142901D02*
X31096Y143701D01*
X30696Y144501D01*
X31496Y144101D01*
X32296Y144501D01*
X31896Y143701D01*
X32296Y142901D01*
X31496Y143301D01*
X30696Y142901D01*
X114948Y15145D02*
X115348Y15945D01*
X114948Y16745D01*
X115748Y16345D01*
X116548Y16745D01*
X116148Y15945D01*
X116548Y15145D01*
X115748Y15545D01*
X114948Y15145D01*
X106287D02*
X106687Y15945D01*
X106287Y16745D01*
X107087Y16345D01*
X107887Y16745D01*
X107487Y15945D01*
X107887Y15145D01*
X107087Y15545D01*
X106287Y15145D01*
X110617D02*
X111017Y15945D01*
X110617Y16745D01*
X111417Y16345D01*
X112217Y16745D01*
X111817Y15945D01*
X112217Y15145D01*
X111417Y15545D01*
X110617Y15145D01*
X92507D02*
X92907Y15945D01*
X92507Y16745D01*
X93307Y16345D01*
X94107Y16745D01*
X93707Y15945D01*
X94107Y15145D01*
X93307Y15545D01*
X92507Y15145D01*
X88176D02*
X88576Y15945D01*
X88176Y16745D01*
X88976Y16345D01*
X89776Y16745D01*
X89376Y15945D01*
X89776Y15145D01*
X88976Y15545D01*
X88176Y15145D01*
X98019Y4318D02*
X98419Y5118D01*
X98019Y5918D01*
X98819Y5518D01*
X99619Y5918D01*
X99219Y5118D01*
X99619Y4318D01*
X98819Y4718D01*
X98019Y4318D01*
X114948Y20263D02*
X115348Y21063D01*
X114948Y21863D01*
X115748Y21463D01*
X116548Y21863D01*
X116148Y21063D01*
X116548Y20263D01*
X115748Y20663D01*
X114948Y20263D01*
X106287D02*
X106687Y21063D01*
X106287Y21863D01*
X107087Y21463D01*
X107887Y21863D01*
X107487Y21063D01*
X107887Y20263D01*
X107087Y20663D01*
X106287Y20263D01*
X110617D02*
X111017Y21063D01*
X110617Y21863D01*
X111417Y21463D01*
X112217Y21863D01*
X111817Y21063D01*
X112217Y20263D01*
X111417Y20663D01*
X110617Y20263D01*
X92507D02*
X92907Y21063D01*
X92507Y21863D01*
X93307Y21463D01*
X94107Y21863D01*
X93707Y21063D01*
X94107Y20263D01*
X93307Y20663D01*
X92507Y20263D01*
X96838D02*
X97238Y21063D01*
X96838Y21863D01*
X97638Y21463D01*
X98438Y21863D01*
X98038Y21063D01*
X98438Y20263D01*
X97638Y20663D01*
X96838Y20263D01*
X88176D02*
X88576Y21063D01*
X88176Y21863D01*
X88976Y21463D01*
X89776Y21863D01*
X89376Y21063D01*
X89776Y20263D01*
X88976Y20663D01*
X88176Y20263D01*
X114948Y25381D02*
X115348Y26181D01*
X114948Y26981D01*
X115748Y26581D01*
X116548Y26981D01*
X116148Y26181D01*
X116548Y25381D01*
X115748Y25781D01*
X114948Y25381D01*
X106287D02*
X106687Y26181D01*
X106287Y26981D01*
X107087Y26581D01*
X107887Y26981D01*
X107487Y26181D01*
X107887Y25381D01*
X107087Y25781D01*
X106287Y25381D01*
X110617D02*
X111017Y26181D01*
X110617Y26981D01*
X111417Y26581D01*
X112217Y26981D01*
X111817Y26181D01*
X112217Y25381D01*
X111417Y25781D01*
X110617Y25381D01*
X92507D02*
X92907Y26181D01*
X92507Y26981D01*
X93307Y26581D01*
X94107Y26981D01*
X93707Y26181D01*
X94107Y25381D01*
X93307Y25781D01*
X92507Y25381D01*
X96838D02*
X97238Y26181D01*
X96838Y26981D01*
X97638Y26581D01*
X98438Y26981D01*
X98038Y26181D01*
X98438Y25381D01*
X97638Y25781D01*
X96838Y25381D01*
X88176D02*
X88576Y26181D01*
X88176Y26981D01*
X88976Y26581D01*
X89776Y26981D01*
X89376Y26181D01*
X89776Y25381D01*
X88976Y25781D01*
X88176Y25381D01*
X113373Y167507D02*
X113773Y168307D01*
X113373Y169107D01*
X114173Y168707D01*
X114973Y169107D01*
X114573Y168307D01*
X114973Y167507D01*
X114173Y167907D01*
X113373Y167507D01*
X112586Y162389D02*
X112986Y163189D01*
X112586Y163989D01*
X113386Y163589D01*
X114186Y163989D01*
X113786Y163189D01*
X114186Y162389D01*
X113386Y162789D01*
X112586Y162389D01*
X119279Y167507D02*
X119679Y168307D01*
X119279Y169107D01*
X120079Y168707D01*
X120879Y169107D01*
X120479Y168307D01*
X120879Y167507D01*
X120079Y167907D01*
X119279Y167507D01*
X118098Y162389D02*
X118498Y163189D01*
X118098Y163989D01*
X118898Y163589D01*
X119698Y163989D01*
X119298Y163189D01*
X119698Y162389D01*
X118898Y162789D01*
X118098Y162389D01*
X85027D02*
X85427Y163189D01*
X85027Y163989D01*
X85827Y163589D01*
X86627Y163989D01*
X86227Y163189D01*
X86627Y162389D01*
X85827Y162789D01*
X85027Y162389D01*
X83846Y167507D02*
X84246Y168307D01*
X83846Y169107D01*
X84646Y168707D01*
X85446Y169107D01*
X85046Y168307D01*
X85446Y167507D01*
X84646Y167907D01*
X83846Y167507D01*
X90539Y162389D02*
X90939Y163189D01*
X90539Y163989D01*
X91339Y163589D01*
X92139Y163989D01*
X91739Y163189D01*
X92139Y162389D01*
X91339Y162789D01*
X90539Y162389D01*
X89751Y167507D02*
X90151Y168307D01*
X89751Y169107D01*
X90551Y168707D01*
X91351Y169107D01*
X90951Y168307D01*
X91351Y167507D01*
X90551Y167907D01*
X89751Y167507D01*
X101562D02*
X101962Y168307D01*
X101562Y169107D01*
X102362Y168707D01*
X103162Y169107D01*
X102762Y168307D01*
X103162Y167507D01*
X102362Y167907D01*
X101562Y167507D01*
X107468D02*
X107868Y168307D01*
X107468Y169107D01*
X108268Y168707D01*
X109068Y169107D01*
X108668Y168307D01*
X109068Y167507D01*
X108268Y167907D01*
X107468Y167507D01*
X95657D02*
X96057Y168307D01*
X95657Y169107D01*
X96457Y168707D01*
X97257Y169107D01*
X96857Y168307D01*
X97257Y167507D01*
X96457Y167907D01*
X95657Y167507D01*
X101562Y162389D02*
X101962Y163189D01*
X101562Y163989D01*
X102362Y163589D01*
X103162Y163989D01*
X102762Y163189D01*
X103162Y162389D01*
X102362Y162789D01*
X101562Y162389D01*
X107074D02*
X107474Y163189D01*
X107074Y163989D01*
X107874Y163589D01*
X108674Y163989D01*
X108274Y163189D01*
X108674Y162389D01*
X107874Y162789D01*
X107074Y162389D01*
X96050D02*
X96450Y163189D01*
X96050Y163989D01*
X96850Y163589D01*
X97650Y163989D01*
X97250Y163189D01*
X97650Y162389D01*
X96850Y162789D01*
X96050Y162389D01*
X96838Y102547D02*
X97238Y103347D01*
X96838Y104147D01*
X97638Y103746D01*
X98438Y104147D01*
X98038Y103347D01*
X98438Y102547D01*
X97638Y102946D01*
X96838Y102547D01*
Y97822D02*
X97238Y98622D01*
X96838Y99422D01*
X97638Y99022D01*
X98438Y99422D01*
X98038Y98622D01*
X98438Y97822D01*
X97638Y98222D01*
X96838Y97822D01*
Y130893D02*
X97238Y131693D01*
X96838Y132493D01*
X97638Y132093D01*
X98438Y132493D01*
X98038Y131693D01*
X98438Y130893D01*
X97638Y131293D01*
X96838Y130893D01*
X101562D02*
X101962Y131693D01*
X101562Y132493D01*
X102362Y132093D01*
X103162Y132493D01*
X102762Y131693D01*
X103162Y130893D01*
X102362Y131293D01*
X101562Y130893D01*
X106287D02*
X106687Y131693D01*
X106287Y132493D01*
X107087Y132093D01*
X107887Y132493D01*
X107487Y131693D01*
X107887Y130893D01*
X107087Y131293D01*
X106287Y130893D01*
X96838Y126169D02*
X97238Y126969D01*
X96838Y127769D01*
X97638Y127368D01*
X98438Y127769D01*
X98038Y126969D01*
X98438Y126169D01*
X97638Y126568D01*
X96838Y126169D01*
X101562D02*
X101962Y126969D01*
X101562Y127769D01*
X102362Y127368D01*
X103162Y127769D01*
X102762Y126969D01*
X103162Y126169D01*
X102362Y126568D01*
X101562Y126169D01*
X106287D02*
X106687Y126969D01*
X106287Y127769D01*
X107087Y127368D01*
X107887Y127769D01*
X107487Y126969D01*
X107887Y126169D01*
X107087Y126568D01*
X106287Y126169D01*
X96838Y121444D02*
X97238Y122244D01*
X96838Y123044D01*
X97638Y122644D01*
X98438Y123044D01*
X98038Y122244D01*
X98438Y121444D01*
X97638Y121844D01*
X96838Y121444D01*
X101562D02*
X101962Y122244D01*
X101562Y123044D01*
X102362Y122644D01*
X103162Y123044D01*
X102762Y122244D01*
X103162Y121444D01*
X102362Y121844D01*
X101562Y121444D01*
X106287D02*
X106687Y122244D01*
X106287Y123044D01*
X107087Y122644D01*
X107887Y123044D01*
X107487Y122244D01*
X107887Y121444D01*
X107087Y121844D01*
X106287Y121444D01*
X96838Y116720D02*
X97238Y117520D01*
X96838Y118320D01*
X97638Y117920D01*
X98438Y118320D01*
X98038Y117520D01*
X98438Y116720D01*
X97638Y117120D01*
X96838Y116720D01*
X101562D02*
X101962Y117520D01*
X101562Y118320D01*
X102362Y117920D01*
X103162Y118320D01*
X102762Y117520D01*
X103162Y116720D01*
X102362Y117120D01*
X101562Y116720D01*
X106287D02*
X106687Y117520D01*
X106287Y118320D01*
X107087Y117920D01*
X107887Y118320D01*
X107487Y117520D01*
X107887Y116720D01*
X107087Y117120D01*
X106287Y116720D01*
X101562Y102547D02*
X101962Y103347D01*
X101562Y104147D01*
X102362Y103746D01*
X103162Y104147D01*
X102762Y103347D01*
X103162Y102547D01*
X102362Y102946D01*
X101562Y102547D01*
X106287D02*
X106687Y103347D01*
X106287Y104147D01*
X107087Y103746D01*
X107887Y104147D01*
X107487Y103347D01*
X107887Y102547D01*
X107087Y102946D01*
X106287Y102547D01*
X101562Y97822D02*
X101962Y98622D01*
X101562Y99422D01*
X102362Y99022D01*
X103162Y99422D01*
X102762Y98622D01*
X103162Y97822D01*
X102362Y98222D01*
X101562Y97822D01*
X106287D02*
X106687Y98622D01*
X106287Y99422D01*
X107087Y99022D01*
X107887Y99422D01*
X107487Y98622D01*
X107887Y97822D01*
X107087Y98222D01*
X106287Y97822D01*
X205893Y150775D02*
X206293Y151575D01*
X205893Y152375D01*
X206693Y151975D01*
X207493Y152375D01*
X207093Y151575D01*
X207493Y150775D01*
X206693Y151175D01*
X205893Y150775D01*
X201956Y146838D02*
X202356Y147638D01*
X201956Y148438D01*
X202756Y148038D01*
X203556Y148438D01*
X203156Y147638D01*
X203556Y146838D01*
X202756Y147238D01*
X201956Y146838D01*
X194082D02*
X194482Y147638D01*
X194082Y148438D01*
X194882Y148038D01*
X195682Y148438D01*
X195282Y147638D01*
X195682Y146838D01*
X194882Y147238D01*
X194082Y146838D01*
X198019Y150775D02*
X198419Y151575D01*
X198019Y152375D01*
X198819Y151975D01*
X199619Y152375D01*
X199219Y151575D01*
X199619Y150775D01*
X198819Y151175D01*
X198019Y150775D01*
X186208Y146838D02*
X186608Y147638D01*
X186208Y148438D01*
X187008Y148038D01*
X187808Y148438D01*
X187408Y147638D01*
X187808Y146838D01*
X187008Y147238D01*
X186208Y146838D01*
X190145Y150775D02*
X190545Y151575D01*
X190145Y152375D01*
X190945Y151975D01*
X191745Y152375D01*
X191345Y151575D01*
X191745Y150775D01*
X190945Y151175D01*
X190145Y150775D01*
X186208Y131090D02*
X186608Y131890D01*
X186208Y132690D01*
X187008Y132290D01*
X187808Y132690D01*
X187408Y131890D01*
X187808Y131090D01*
X187008Y131490D01*
X186208Y131090D01*
Y123216D02*
X186608Y124016D01*
X186208Y124816D01*
X187008Y124416D01*
X187808Y124816D01*
X187408Y124016D01*
X187808Y123216D01*
X187008Y123616D01*
X186208Y123216D01*
Y115342D02*
X186608Y116142D01*
X186208Y116942D01*
X187008Y116542D01*
X187808Y116942D01*
X187408Y116142D01*
X187808Y115342D01*
X187008Y115742D01*
X186208Y115342D01*
X190145Y135027D02*
X190545Y135827D01*
X190145Y136627D01*
X190945Y136227D01*
X191745Y136627D01*
X191345Y135827D01*
X191745Y135027D01*
X190945Y135427D01*
X190145Y135027D01*
Y127153D02*
X190545Y127953D01*
X190145Y128753D01*
X190945Y128353D01*
X191745Y128753D01*
X191345Y127953D01*
X191745Y127153D01*
X190945Y127553D01*
X190145Y127153D01*
Y119279D02*
X190545Y120079D01*
X190145Y120879D01*
X190945Y120479D01*
X191745Y120879D01*
X191345Y120079D01*
X191745Y119279D01*
X190945Y119679D01*
X190145Y119279D01*
Y142901D02*
X190545Y143701D01*
X190145Y144501D01*
X190945Y144101D01*
X191745Y144501D01*
X191345Y143701D01*
X191745Y142901D01*
X190945Y143301D01*
X190145Y142901D01*
X186208Y138964D02*
X186608Y139764D01*
X186208Y140564D01*
X187008Y140164D01*
X187808Y140564D01*
X187408Y139764D01*
X187808Y138964D01*
X187008Y139364D01*
X186208Y138964D01*
X194082Y131090D02*
X194482Y131890D01*
X194082Y132690D01*
X194882Y132290D01*
X195682Y132690D01*
X195282Y131890D01*
X195682Y131090D01*
X194882Y131490D01*
X194082Y131090D01*
Y123216D02*
X194482Y124016D01*
X194082Y124816D01*
X194882Y124416D01*
X195682Y124816D01*
X195282Y124016D01*
X195682Y123216D01*
X194882Y123616D01*
X194082Y123216D01*
Y115342D02*
X194482Y116142D01*
X194082Y116942D01*
X194882Y116542D01*
X195682Y116942D01*
X195282Y116142D01*
X195682Y115342D01*
X194882Y115742D01*
X194082Y115342D01*
X198019Y135027D02*
X198419Y135827D01*
X198019Y136627D01*
X198819Y136227D01*
X199619Y136627D01*
X199219Y135827D01*
X199619Y135027D01*
X198819Y135427D01*
X198019Y135027D01*
Y127153D02*
X198419Y127953D01*
X198019Y128753D01*
X198819Y128353D01*
X199619Y128753D01*
X199219Y127953D01*
X199619Y127153D01*
X198819Y127553D01*
X198019Y127153D01*
Y119279D02*
X198419Y120079D01*
X198019Y120879D01*
X198819Y120479D01*
X199619Y120879D01*
X199219Y120079D01*
X199619Y119279D01*
X198819Y119679D01*
X198019Y119279D01*
Y142901D02*
X198419Y143701D01*
X198019Y144501D01*
X198819Y144101D01*
X199619Y144501D01*
X199219Y143701D01*
X199619Y142901D01*
X198819Y143301D01*
X198019Y142901D01*
X194082Y138964D02*
X194482Y139764D01*
X194082Y140564D01*
X194882Y140164D01*
X195682Y140564D01*
X195282Y139764D01*
X195682Y138964D01*
X194882Y139364D01*
X194082Y138964D01*
X201956D02*
X202356Y139764D01*
X201956Y140564D01*
X202756Y140164D01*
X203556Y140564D01*
X203156Y139764D01*
X203556Y138964D01*
X202756Y139364D01*
X201956Y138964D01*
X205893Y142901D02*
X206293Y143701D01*
X205893Y144501D01*
X206693Y144101D01*
X207493Y144501D01*
X207093Y143701D01*
X207493Y142901D01*
X206693Y143301D01*
X205893Y142901D01*
X221641Y142901D02*
X222041Y143701D01*
X221641Y144501D01*
X222441Y144101D01*
X223241Y144501D01*
X222841Y143701D01*
X223241Y142901D01*
X222441Y143301D01*
X221641Y142901D01*
X213767D02*
X214167Y143701D01*
X213767Y144501D01*
X214567Y144101D01*
X215367Y144501D01*
X214967Y143701D01*
X215367Y142901D01*
X214567Y143301D01*
X213767Y142901D01*
X221641Y135027D02*
X222041Y135827D01*
X221641Y136627D01*
X222441Y136227D01*
X223241Y136627D01*
X222841Y135827D01*
X223241Y135027D01*
X222441Y135427D01*
X221641Y135027D01*
X229515D02*
X229915Y135827D01*
X229515Y136627D01*
X230315Y136227D01*
X231115Y136627D01*
X230715Y135827D01*
X231115Y135027D01*
X230315Y135427D01*
X229515Y135027D01*
X225578Y138964D02*
X225978Y139764D01*
X225578Y140564D01*
X226378Y140164D01*
X227178Y140564D01*
X226778Y139764D01*
X227178Y138964D01*
X226378Y139364D01*
X225578Y138964D01*
X209830Y138964D02*
X210230Y139764D01*
X209830Y140564D01*
X210630Y140164D01*
X211430Y140564D01*
X211030Y139764D01*
X211430Y138964D01*
X210630Y139364D01*
X209830Y138964D01*
X213767Y135027D02*
X214167Y135827D01*
X213767Y136627D01*
X214567Y136227D01*
X215367Y136627D01*
X214967Y135827D01*
X215367Y135027D01*
X214567Y135427D01*
X213767Y135027D01*
X217704Y138964D02*
X218104Y139764D01*
X217704Y140564D01*
X218504Y140164D01*
X219304Y140564D01*
X218904Y139764D01*
X219304Y138964D01*
X218504Y139364D01*
X217704Y138964D01*
X209830Y131090D02*
X210230Y131890D01*
X209830Y132690D01*
X210630Y132290D01*
X211430Y132690D01*
X211030Y131890D01*
X211430Y131090D01*
X210630Y131490D01*
X209830Y131090D01*
Y123216D02*
X210230Y124016D01*
X209830Y124816D01*
X210630Y124416D01*
X211430Y124816D01*
X211030Y124016D01*
X211430Y123216D01*
X210630Y123616D01*
X209830Y123216D01*
Y115342D02*
X210230Y116142D01*
X209830Y116942D01*
X210630Y116542D01*
X211430Y116942D01*
X211030Y116142D01*
X211430Y115342D01*
X210630Y115742D01*
X209830Y115342D01*
Y107468D02*
X210230Y108268D01*
X209830Y109068D01*
X210630Y108668D01*
X211430Y109068D01*
X211030Y108268D01*
X211430Y107468D01*
X210630Y107868D01*
X209830Y107468D01*
Y99594D02*
X210230Y100394D01*
X209830Y101194D01*
X210630Y100794D01*
X211430Y101194D01*
X211030Y100394D01*
X211430Y99594D01*
X210630Y99994D01*
X209830Y99594D01*
X205893Y103531D02*
X206293Y104331D01*
X205893Y105131D01*
X206693Y104731D01*
X207493Y105131D01*
X207093Y104331D01*
X207493Y103531D01*
X206693Y103931D01*
X205893Y103531D01*
Y111405D02*
X206293Y112205D01*
X205893Y113005D01*
X206693Y112605D01*
X207493Y113005D01*
X207093Y112205D01*
X207493Y111405D01*
X206693Y111805D01*
X205893Y111405D01*
Y119279D02*
X206293Y120079D01*
X205893Y120879D01*
X206693Y120479D01*
X207493Y120879D01*
X207093Y120079D01*
X207493Y119279D01*
X206693Y119679D01*
X205893Y119279D01*
Y127153D02*
X206293Y127953D01*
X205893Y128753D01*
X206693Y128353D01*
X207493Y128753D01*
X207093Y127953D01*
X207493Y127153D01*
X206693Y127553D01*
X205893Y127153D01*
Y135027D02*
X206293Y135827D01*
X205893Y136627D01*
X206693Y136227D01*
X207493Y136627D01*
X207093Y135827D01*
X207493Y135027D01*
X206693Y135427D01*
X205893Y135027D01*
X201956Y99594D02*
X202356Y100394D01*
X201956Y101194D01*
X202756Y100794D01*
X203556Y101194D01*
X203156Y100394D01*
X203556Y99594D01*
X202756Y99994D01*
X201956Y99594D01*
Y107468D02*
X202356Y108268D01*
X201956Y109068D01*
X202756Y108668D01*
X203556Y109068D01*
X203156Y108268D01*
X203556Y107468D01*
X202756Y107868D01*
X201956Y107468D01*
Y115342D02*
X202356Y116142D01*
X201956Y116942D01*
X202756Y116542D01*
X203556Y116942D01*
X203156Y116142D01*
X203556Y115342D01*
X202756Y115742D01*
X201956Y115342D01*
Y123216D02*
X202356Y124016D01*
X201956Y124816D01*
X202756Y124416D01*
X203556Y124816D01*
X203156Y124016D01*
X203556Y123216D01*
X202756Y123616D01*
X201956Y123216D01*
Y131090D02*
X202356Y131890D01*
X201956Y132690D01*
X202756Y132290D01*
X203556Y132690D01*
X203156Y131890D01*
X203556Y131090D01*
X202756Y131490D01*
X201956Y131090D01*
X243295D02*
X243694Y131890D01*
X243295Y132690D01*
X244094Y132290D01*
X244895Y132690D01*
X244495Y131890D01*
X244895Y131090D01*
X244094Y131490D01*
X243295Y131090D01*
Y123216D02*
X243694Y124016D01*
X243295Y124816D01*
X244094Y124416D01*
X244895Y124816D01*
X244495Y124016D01*
X244895Y123216D01*
X244094Y123616D01*
X243295Y123216D01*
Y115342D02*
X243694Y116142D01*
X243295Y116942D01*
X244094Y116542D01*
X244895Y116942D01*
X244495Y116142D01*
X244895Y115342D01*
X244094Y115742D01*
X243295Y115342D01*
Y107468D02*
X243694Y108268D01*
X243295Y109068D01*
X244094Y108668D01*
X244895Y109068D01*
X244495Y108268D01*
X244895Y107468D01*
X244094Y107868D01*
X243295Y107468D01*
Y99594D02*
X243694Y100394D01*
X243295Y101194D01*
X244094Y100794D01*
X244895Y101194D01*
X244495Y100394D01*
X244895Y99594D01*
X244094Y99994D01*
X243295Y99594D01*
X239357Y135027D02*
X239757Y135827D01*
X239357Y136627D01*
X240158Y136227D01*
X240957Y136627D01*
X240558Y135827D01*
X240957Y135027D01*
X240158Y135427D01*
X239357Y135027D01*
Y127153D02*
X239757Y127953D01*
X239357Y128753D01*
X240158Y128353D01*
X240957Y128753D01*
X240558Y127953D01*
X240957Y127153D01*
X240158Y127553D01*
X239357Y127153D01*
Y119279D02*
X239757Y120079D01*
X239357Y120879D01*
X240158Y120479D01*
X240957Y120879D01*
X240558Y120079D01*
X240957Y119279D01*
X240158Y119679D01*
X239357Y119279D01*
Y111405D02*
X239757Y112205D01*
X239357Y113005D01*
X240158Y112605D01*
X240957Y113005D01*
X240558Y112205D01*
X240957Y111405D01*
X240158Y111805D01*
X239357Y111405D01*
Y103531D02*
X239757Y104331D01*
X239357Y105131D01*
X240158Y104731D01*
X240957Y105131D01*
X240558Y104331D01*
X240957Y103531D01*
X240158Y103931D01*
X239357Y103531D01*
X235420Y99594D02*
X235821Y100394D01*
X235420Y101194D01*
X236221Y100794D01*
X237020Y101194D01*
X236620Y100394D01*
X237020Y99594D01*
X236221Y99994D01*
X235420Y99594D01*
Y107468D02*
X235821Y108268D01*
X235420Y109068D01*
X236221Y108668D01*
X237020Y109068D01*
X236620Y108268D01*
X237020Y107468D01*
X236221Y107868D01*
X235420Y107468D01*
Y115342D02*
X235821Y116142D01*
X235420Y116942D01*
X236221Y116542D01*
X237020Y116942D01*
X236620Y116142D01*
X237020Y115342D01*
X236221Y115742D01*
X235420Y115342D01*
Y123216D02*
X235821Y124016D01*
X235420Y124816D01*
X236221Y124416D01*
X237020Y124816D01*
X236620Y124016D01*
X237020Y123216D01*
X236221Y123616D01*
X235420Y123216D01*
Y131090D02*
X235821Y131890D01*
X235420Y132690D01*
X236221Y132290D01*
X237020Y132690D01*
X236620Y131890D01*
X237020Y131090D01*
X236221Y131490D01*
X235420Y131090D01*
X201562Y64358D02*
X201962Y65158D01*
X201562Y65957D01*
X202362Y65557D01*
X203162Y65957D01*
X202762Y65158D01*
X203162Y64358D01*
X202362Y64758D01*
X201562Y64358D01*
X197625D02*
X198025Y65158D01*
X197625Y65957D01*
X198425Y65557D01*
X199225Y65957D01*
X198825Y65158D01*
X199225Y64358D01*
X198425Y64758D01*
X197625Y64358D01*
X212822Y79495D02*
X213222Y80295D01*
X212822Y81095D01*
X213622Y80695D01*
X214422Y81095D01*
X214022Y80295D01*
X214422Y79495D01*
X213622Y79895D01*
X212822Y79495D01*
X223019Y79121D02*
X223419Y79921D01*
X223019Y80721D01*
X223819Y80321D01*
X224619Y80721D01*
X224219Y79921D01*
X224619Y79121D01*
X223819Y79521D01*
X223019Y79121D01*
X223216Y61995D02*
X223616Y62795D01*
X223216Y63595D01*
X224016Y63195D01*
X224816Y63595D01*
X224416Y62795D01*
X224816Y61995D01*
X224016Y62395D01*
X223216Y61995D01*
X222232Y71641D02*
X222632Y72441D01*
X222232Y73241D01*
X223031Y72841D01*
X223832Y73241D01*
X223431Y72441D01*
X223832Y71641D01*
X223031Y72041D01*
X222232Y71641D01*
X239751Y64751D02*
X240151Y65551D01*
X239751Y66351D01*
X240551Y65951D01*
X241351Y66351D01*
X240951Y65551D01*
X241351Y64751D01*
X240551Y65151D01*
X239751Y64751D01*
X247232Y80499D02*
X247632Y81299D01*
X247232Y82099D01*
X248031Y81699D01*
X248832Y82099D01*
X248431Y81299D01*
X248832Y80499D01*
X248031Y80899D01*
X247232Y80499D01*
X251168D02*
X251569Y81299D01*
X251168Y82099D01*
X251969Y81699D01*
X252768Y82099D01*
X252368Y81299D01*
X252768Y80499D01*
X251969Y80899D01*
X251168Y80499D01*
X236602Y157861D02*
X237002Y158661D01*
X236602Y159461D01*
X237402Y159061D01*
X238202Y159461D01*
X237802Y158661D01*
X238202Y157861D01*
X237402Y158261D01*
X236602Y157861D01*
Y147625D02*
X237002Y148425D01*
X236602Y149225D01*
X237402Y148825D01*
X238202Y149225D01*
X237802Y148425D01*
X238202Y147625D01*
X237402Y148025D01*
X236602Y147625D01*
X241326D02*
X241726Y148425D01*
X241326Y149225D01*
X242126Y148825D01*
X242926Y149225D01*
X242526Y148425D01*
X242926Y147625D01*
X242126Y148025D01*
X241326Y147625D01*
Y157861D02*
X241726Y158661D01*
X241326Y159461D01*
X242126Y159061D01*
X242926Y159461D01*
X242526Y158661D01*
X242926Y157861D01*
X242126Y158261D01*
X241326Y157861D01*
X246050Y147625D02*
X246450Y148425D01*
X246050Y149225D01*
X246850Y148825D01*
X247650Y149225D01*
X247250Y148425D01*
X247650Y147625D01*
X246850Y148025D01*
X246050Y147625D01*
Y157861D02*
X246450Y158661D01*
X246050Y159461D01*
X246850Y159061D01*
X247650Y159461D01*
X247250Y158661D01*
X247650Y157861D01*
X246850Y158261D01*
X246050Y157861D01*
X203924Y161405D02*
X204324Y162205D01*
X203924Y163005D01*
X204724Y162605D01*
X205524Y163005D01*
X205124Y162205D01*
X205524Y161405D01*
X204724Y161805D01*
X203924Y161405D01*
X193688D02*
X194088Y162205D01*
X193688Y163005D01*
X194488Y162605D01*
X195288Y163005D01*
X194888Y162205D01*
X195288Y161405D01*
X194488Y161805D01*
X193688Y161405D01*
X203924Y166129D02*
X204324Y166929D01*
X203924Y167729D01*
X204724Y167329D01*
X205524Y167729D01*
X205124Y166929D01*
X205524Y166129D01*
X204724Y166529D01*
X203924Y166129D01*
X193688D02*
X194088Y166929D01*
X193688Y167729D01*
X194488Y167329D01*
X195288Y167729D01*
X194888Y166929D01*
X195288Y166129D01*
X194488Y166529D01*
X193688Y166129D01*
Y170853D02*
X194088Y171653D01*
X193688Y172453D01*
X194488Y172054D01*
X195288Y172453D01*
X194888Y171653D01*
X195288Y170853D01*
X194488Y171254D01*
X193688Y170853D01*
X203924D02*
X204324Y171653D01*
X203924Y172453D01*
X204724Y172054D01*
X205524Y172453D01*
X205124Y171653D01*
X205524Y170853D01*
X204724Y171254D01*
X203924Y170853D01*
X13373Y71641D02*
X13773Y72441D01*
X13373Y73241D01*
X14173Y72841D01*
X14973Y73241D01*
X14573Y72441D01*
X14973Y71641D01*
X14173Y72041D01*
X13373Y71641D01*
X26759Y35421D02*
X27159Y36220D01*
X26759Y37020D01*
X27559Y36621D01*
X28359Y37020D01*
X27959Y36220D01*
X28359Y35421D01*
X27559Y35820D01*
X26759Y35421D01*
X27153Y50381D02*
X27553Y51181D01*
X27153Y51981D01*
X27953Y51581D01*
X28753Y51981D01*
X28353Y51181D01*
X28753Y50381D01*
X27953Y50781D01*
X27153Y50381D01*
X20854Y34633D02*
X21253Y35433D01*
X20854Y36233D01*
X21654Y35833D01*
X22454Y36233D01*
X22053Y35433D01*
X22454Y34633D01*
X21654Y35033D01*
X20854Y34633D01*
X25381Y57074D02*
X25781Y57874D01*
X25381Y58674D01*
X26181Y58274D01*
X26981Y58674D01*
X26581Y57874D01*
X26981Y57074D01*
X26181Y57474D01*
X25381Y57074D01*
X25578Y61995D02*
X25978Y62795D01*
X25578Y63595D01*
X26378Y63195D01*
X27178Y63595D01*
X26778Y62795D01*
X27178Y61995D01*
X26378Y62395D01*
X25578Y61995D01*
X108649Y73610D02*
X109049Y74410D01*
X108649Y75209D01*
X109449Y74809D01*
X110249Y75209D01*
X109849Y74410D01*
X110249Y73610D01*
X109449Y74010D01*
X108649Y73610D01*
X88176Y30499D02*
X88576Y31299D01*
X88176Y32099D01*
X88976Y31699D01*
X89776Y32099D01*
X89376Y31299D01*
X89776Y30499D01*
X88976Y30899D01*
X88176Y30499D01*
X96838D02*
X97238Y31299D01*
X96838Y32099D01*
X97638Y31699D01*
X98438Y32099D01*
X98038Y31299D01*
X98438Y30499D01*
X97638Y30899D01*
X96838Y30499D01*
X88176Y35618D02*
X88576Y36417D01*
X88176Y37218D01*
X88976Y36817D01*
X89776Y37218D01*
X89376Y36417D01*
X89776Y35618D01*
X88976Y36018D01*
X88176Y35618D01*
X96838D02*
X97238Y36417D01*
X96838Y37218D01*
X97638Y36817D01*
X98438Y37218D01*
X98038Y36417D01*
X98438Y35618D01*
X97638Y36018D01*
X96838Y35618D01*
X88176Y40736D02*
X88576Y41536D01*
X88176Y42336D01*
X88976Y41936D01*
X89776Y42336D01*
X89376Y41536D01*
X89776Y40736D01*
X88976Y41136D01*
X88176Y40736D01*
X96838D02*
X97238Y41536D01*
X96838Y42336D01*
X97638Y41936D01*
X98438Y42336D01*
X98038Y41536D01*
X98438Y40736D01*
X97638Y41136D01*
X96838Y40736D01*
X88176Y45854D02*
X88576Y46654D01*
X88176Y47454D01*
X88976Y47054D01*
X89776Y47454D01*
X89376Y46654D01*
X89776Y45854D01*
X88976Y46254D01*
X88176Y45854D01*
X96838D02*
X97238Y46654D01*
X96838Y47454D01*
X97638Y47054D01*
X98438Y47454D01*
X98038Y46654D01*
X98438Y45854D01*
X97638Y46254D01*
X96838Y45854D01*
Y50972D02*
X97238Y51772D01*
X96838Y52572D01*
X97638Y52172D01*
X98438Y52572D01*
X98038Y51772D01*
X98438Y50972D01*
X97638Y51372D01*
X96838Y50972D01*
X88176D02*
X88576Y51772D01*
X88176Y52572D01*
X88976Y52172D01*
X89776Y52572D01*
X89376Y51772D01*
X89776Y50972D01*
X88976Y51372D01*
X88176Y50972D01*
X92507D02*
X92907Y51772D01*
X92507Y52572D01*
X93307Y52172D01*
X94107Y52572D01*
X93707Y51772D01*
X94107Y50972D01*
X93307Y51372D01*
X92507Y50972D01*
Y45854D02*
X92907Y46654D01*
X92507Y47454D01*
X93307Y47054D01*
X94107Y47454D01*
X93707Y46654D01*
X94107Y45854D01*
X93307Y46254D01*
X92507Y45854D01*
Y40736D02*
X92907Y41536D01*
X92507Y42336D01*
X93307Y41936D01*
X94107Y42336D01*
X93707Y41536D01*
X94107Y40736D01*
X93307Y41136D01*
X92507Y40736D01*
Y35618D02*
X92907Y36417D01*
X92507Y37218D01*
X93307Y36817D01*
X94107Y37218D01*
X93707Y36417D01*
X94107Y35618D01*
X93307Y36018D01*
X92507Y35618D01*
Y30499D02*
X92907Y31299D01*
X92507Y32099D01*
X93307Y31699D01*
X94107Y32099D01*
X93707Y31299D01*
X94107Y30499D01*
X93307Y30899D01*
X92507Y30499D01*
X110617D02*
X111017Y31299D01*
X110617Y32099D01*
X111417Y31699D01*
X112217Y32099D01*
X111817Y31299D01*
X112217Y30499D01*
X111417Y30899D01*
X110617Y30499D01*
Y35618D02*
X111017Y36417D01*
X110617Y37218D01*
X111417Y36817D01*
X112217Y37218D01*
X111817Y36417D01*
X112217Y35618D01*
X111417Y36018D01*
X110617Y35618D01*
Y40736D02*
X111017Y41536D01*
X110617Y42336D01*
X111417Y41936D01*
X112217Y42336D01*
X111817Y41536D01*
X112217Y40736D01*
X111417Y41136D01*
X110617Y40736D01*
Y45854D02*
X111017Y46654D01*
X110617Y47454D01*
X111417Y47054D01*
X112217Y47454D01*
X111817Y46654D01*
X112217Y45854D01*
X111417Y46254D01*
X110617Y45854D01*
Y50972D02*
X111017Y51772D01*
X110617Y52572D01*
X111417Y52172D01*
X112217Y52572D01*
X111817Y51772D01*
X112217Y50972D01*
X111417Y51372D01*
X110617Y50972D01*
X56680Y118491D02*
X57080Y119291D01*
X56680Y120091D01*
X57480Y119691D01*
X58280Y120091D01*
X57880Y119291D01*
X58280Y118491D01*
X57480Y118891D01*
X56680Y118491D01*
X166523Y117310D02*
X166923Y118110D01*
X166523Y118910D01*
X167323Y118510D01*
X168123Y118910D01*
X167723Y118110D01*
X168123Y117310D01*
X167323Y117710D01*
X166523Y117310D01*
X170460D02*
X170860Y118110D01*
X170460Y118910D01*
X171260Y118510D01*
X172060Y118910D01*
X171660Y118110D01*
X172060Y117310D01*
X171260Y117710D01*
X170460Y117310D01*
X156680D02*
X157080Y118110D01*
X156680Y118910D01*
X157480Y118510D01*
X158280Y118910D01*
X157880Y118110D01*
X158280Y117310D01*
X157480Y117710D01*
X156680Y117310D01*
X160617D02*
X161017Y118110D01*
X160617Y118910D01*
X161417Y118510D01*
X162217Y118910D01*
X161817Y118110D01*
X162217Y117310D01*
X161417Y117710D01*
X160617Y117310D01*
X49397Y127153D02*
X49797Y127953D01*
X49397Y128753D01*
X50197Y128353D01*
X50997Y128753D01*
X50597Y127953D01*
X50997Y127153D01*
X50197Y127553D01*
X49397Y127153D01*
X53334D02*
X53734Y127953D01*
X53334Y128753D01*
X54134Y128353D01*
X54934Y128753D01*
X54534Y127953D01*
X54934Y127153D01*
X54134Y127553D01*
X53334Y127153D01*
X39554D02*
X39954Y127953D01*
X39554Y128753D01*
X40354Y128353D01*
X41154Y128753D01*
X40754Y127953D01*
X41154Y127153D01*
X40354Y127553D01*
X39554Y127153D01*
X43491D02*
X43891Y127953D01*
X43491Y128753D01*
X44291Y128353D01*
X45091Y128753D01*
X44691Y127953D01*
X45091Y127153D01*
X44291Y127553D01*
X43491Y127153D01*
X57074Y196838D02*
X57474Y197638D01*
X57074Y198438D01*
X57874Y198038D01*
X58674Y198438D01*
X58274Y197638D01*
X58674Y196838D01*
X57874Y197238D01*
X57074Y196838D01*
X66917D02*
X67317Y197638D01*
X66917Y198438D01*
X67716Y198038D01*
X68516Y198438D01*
X68116Y197638D01*
X68516Y196838D01*
X67716Y197238D01*
X66917Y196838D01*
X157665Y82074D02*
X158065Y82874D01*
X157665Y83674D01*
X158465Y83274D01*
X159265Y83674D01*
X158865Y82874D01*
X159265Y82074D01*
X158465Y82474D01*
X157665Y82074D01*
X153728D02*
X154128Y82874D01*
X153728Y83674D01*
X154528Y83274D01*
X155328Y83674D01*
X154928Y82874D01*
X155328Y82074D01*
X154528Y82474D01*
X153728Y82074D01*
X167507D02*
X167907Y82874D01*
X167507Y83674D01*
X168307Y83274D01*
X169107Y83674D01*
X168707Y82874D01*
X169107Y82074D01*
X168307Y82474D01*
X167507Y82074D01*
X163570D02*
X163970Y82874D01*
X163570Y83674D01*
X164370Y83274D01*
X165170Y83674D01*
X164770Y82874D01*
X165170Y82074D01*
X164370Y82474D01*
X163570Y82074D01*
X159830Y106680D02*
X160230Y107480D01*
X159830Y108280D01*
X160630Y107880D01*
X161430Y108280D01*
X161030Y107480D01*
X161430Y106680D01*
X160630Y107080D01*
X159830Y106680D01*
X155893D02*
X156293Y107480D01*
X155893Y108280D01*
X156693Y107880D01*
X157493Y108280D01*
X157093Y107480D01*
X157493Y106680D01*
X156693Y107080D01*
X155893Y106680D01*
X167704D02*
X168104Y107480D01*
X167704Y108280D01*
X168504Y107880D01*
X169304Y108280D01*
X168904Y107480D01*
X169304Y106680D01*
X168504Y107080D01*
X167704Y106680D01*
X163767D02*
X164167Y107480D01*
X163767Y108280D01*
X164567Y107880D01*
X165367Y108280D01*
X164967Y107480D01*
X165367Y106680D01*
X164567Y107080D01*
X163767Y106680D01*
X47428Y108058D02*
X47828Y108858D01*
X47428Y109658D01*
X48228Y109258D01*
X49028Y109658D01*
X48628Y108858D01*
X49028Y108058D01*
X48228Y108458D01*
X47428Y108058D01*
X51365D02*
X51765Y108858D01*
X51365Y109658D01*
X52165Y109258D01*
X52965Y109658D01*
X52565Y108858D01*
X52965Y108058D01*
X52165Y108458D01*
X51365Y108058D01*
X39554D02*
X39954Y108858D01*
X39554Y109658D01*
X40354Y109258D01*
X41154Y109658D01*
X40754Y108858D01*
X41154Y108058D01*
X40354Y108458D01*
X39554Y108058D01*
X43491D02*
X43891Y108858D01*
X43491Y109658D01*
X44291Y109258D01*
X45091Y109658D01*
X44691Y108858D01*
X45091Y108058D01*
X44291Y108458D01*
X43491Y108058D01*
X239357Y186208D02*
X239757Y187008D01*
X239357Y187808D01*
X240158Y187408D01*
X240957Y187808D01*
X240558Y187008D01*
X240957Y186208D01*
X240158Y186608D01*
X239357Y186208D01*
X249200Y169476D02*
X249600Y170276D01*
X249200Y171076D01*
X250000Y170676D01*
X250800Y171076D01*
X250400Y170276D01*
X250800Y169476D01*
X250000Y169876D01*
X249200Y169476D01*
X211405Y53531D02*
X211805Y54331D01*
X211405Y55131D01*
X212205Y54731D01*
X213005Y55131D01*
X212605Y54331D01*
X213005Y53531D01*
X212205Y53931D01*
X211405Y53531D01*
X207861D02*
X208261Y54331D01*
X207861Y55131D01*
X208661Y54731D01*
X209461Y55131D01*
X209061Y54331D01*
X209461Y53531D01*
X208661Y53931D01*
X207861Y53531D01*
X204318D02*
X204718Y54331D01*
X204318Y55131D01*
X205118Y54731D01*
X205918Y55131D01*
X205518Y54331D01*
X205918Y53531D01*
X205118Y53931D01*
X204318Y53531D01*
X200775D02*
X201175Y54331D01*
X200775Y55131D01*
X201575Y54731D01*
X202375Y55131D01*
X201975Y54331D01*
X202375Y53531D01*
X201575Y53931D01*
X200775Y53531D01*
X146838Y91720D02*
X147238Y92520D01*
X146838Y93320D01*
X147638Y92920D01*
X148438Y93320D01*
X148038Y92520D01*
X148438Y91720D01*
X147638Y92120D01*
X146838Y91720D01*
X64161Y98019D02*
X64561Y98819D01*
X64161Y99619D01*
X64961Y99219D01*
X65761Y99619D01*
X65361Y98819D01*
X65761Y98019D01*
X64961Y98419D01*
X64161Y98019D01*
X60224D02*
X60624Y98819D01*
X60224Y99619D01*
X61024Y99219D01*
X61824Y99619D01*
X61424Y98819D01*
X61824Y98019D01*
X61024Y98419D01*
X60224Y98019D01*
X146838Y127940D02*
X147238Y128740D01*
X146838Y129540D01*
X147638Y129140D01*
X148438Y129540D01*
X148038Y128740D01*
X148438Y127940D01*
X147638Y128340D01*
X146838Y127940D01*
X49397Y87783D02*
X49797Y88583D01*
X49397Y89383D01*
X50197Y88983D01*
X50997Y89383D01*
X50597Y88583D01*
X50997Y87783D01*
X50197Y88183D01*
X49397Y87783D01*
X53334D02*
X53734Y88583D01*
X53334Y89383D01*
X54134Y88983D01*
X54934Y89383D01*
X54534Y88583D01*
X54934Y87783D01*
X54134Y88183D01*
X53334Y87783D01*
X39554D02*
X39954Y88583D01*
X39554Y89383D01*
X40354Y88983D01*
X41154Y89383D01*
X40754Y88583D01*
X41154Y87783D01*
X40354Y88183D01*
X39554Y87783D01*
X43491D02*
X43891Y88583D01*
X43491Y89383D01*
X44291Y88983D01*
X45091Y89383D01*
X44691Y88583D01*
X45091Y87783D01*
X44291Y88183D01*
X43491Y87783D01*
X33649Y36602D02*
X34049Y37402D01*
X33649Y38202D01*
X34449Y37802D01*
X35249Y38202D01*
X34849Y37402D01*
X35249Y36602D01*
X34449Y37002D01*
X33649Y36602D01*
Y32665D02*
X34049Y33465D01*
X33649Y34265D01*
X34449Y33865D01*
X35249Y34265D01*
X34849Y33465D01*
X35249Y32665D01*
X34449Y33065D01*
X33649Y32665D01*
X169082Y37389D02*
X169482Y38189D01*
X169082Y38989D01*
X169882Y38589D01*
X170682Y38989D01*
X170282Y38189D01*
X170682Y37389D01*
X169882Y37789D01*
X169082Y37389D01*
Y31877D02*
X169482Y32677D01*
X169082Y33477D01*
X169882Y33077D01*
X170682Y33477D01*
X170282Y32677D01*
X170682Y31877D01*
X169882Y32277D01*
X169082Y31877D01*
X120263Y36602D02*
X120663Y37402D01*
X120263Y38202D01*
X121063Y37802D01*
X121863Y38202D01*
X121463Y37402D01*
X121863Y36602D01*
X121063Y37002D01*
X120263Y36602D01*
Y32665D02*
X120663Y33465D01*
X120263Y34265D01*
X121063Y33865D01*
X121863Y34265D01*
X121463Y33465D01*
X121863Y32665D01*
X121063Y33065D01*
X120263Y32665D01*
X82861D02*
X83261Y33465D01*
X82861Y34265D01*
X83661Y33865D01*
X84461Y34265D01*
X84061Y33465D01*
X84461Y32665D01*
X83661Y33065D01*
X82861Y32665D01*
Y36602D02*
X83261Y37402D01*
X82861Y38202D01*
X83661Y37802D01*
X84461Y38202D01*
X84061Y37402D01*
X84461Y36602D01*
X83661Y37002D01*
X82861Y36602D01*
X150086Y188472D02*
X150486Y189272D01*
X150086Y190072D01*
X150886Y189672D01*
X151686Y190072D01*
X151286Y189272D01*
X151686Y188472D01*
X150886Y188872D01*
X150086Y188472D01*
X126169Y138964D02*
X126568Y139764D01*
X126169Y140564D01*
X126969Y140164D01*
X127769Y140564D01*
X127368Y139764D01*
X127769Y138964D01*
X126969Y139364D01*
X126169Y138964D01*
X67901Y133058D02*
X68301Y133858D01*
X67901Y134658D01*
X68701Y134258D01*
X69501Y134658D01*
X69101Y133858D01*
X69501Y133058D01*
X68701Y133458D01*
X67901Y133058D01*
Y128137D02*
X68301Y128937D01*
X67901Y129737D01*
X68701Y129337D01*
X69501Y129737D01*
X69101Y128937D01*
X69501Y128137D01*
X68701Y128537D01*
X67901Y128137D01*
X68295Y118098D02*
X68695Y118898D01*
X68295Y119698D01*
X69095Y119298D01*
X69894Y119698D01*
X69494Y118898D01*
X69894Y118098D01*
X69095Y118498D01*
X68295Y118098D01*
X101562Y136798D02*
X101962Y137598D01*
X101562Y138398D01*
X102362Y137998D01*
X103162Y138398D01*
X102762Y137598D01*
X103162Y136798D01*
X102362Y137198D01*
X101562Y136798D01*
X105105D02*
X105506Y137598D01*
X105105Y138398D01*
X105905Y137998D01*
X106705Y138398D01*
X106306Y137598D01*
X106705Y136798D01*
X105905Y137198D01*
X105105Y136798D01*
X98019D02*
X98419Y137598D01*
X98019Y138398D01*
X98819Y137998D01*
X99619Y138398D01*
X99219Y137598D01*
X99619Y136798D01*
X98819Y137198D01*
X98019Y136798D01*
X94476D02*
X94876Y137598D01*
X94476Y138398D01*
X95276Y137998D01*
X96076Y138398D01*
X95676Y137598D01*
X96076Y136798D01*
X95276Y137198D01*
X94476Y136798D01*
X108649D02*
X109049Y137598D01*
X108649Y138398D01*
X109449Y137998D01*
X110249Y138398D01*
X109849Y137598D01*
X110249Y136798D01*
X109449Y137198D01*
X108649Y136798D01*
X109436Y141917D02*
X109836Y142717D01*
X109436Y143517D01*
X110236Y143116D01*
X111036Y143517D01*
X110636Y142717D01*
X111036Y141917D01*
X110236Y142316D01*
X109436Y141917D01*
X93688D02*
X94088Y142717D01*
X93688Y143517D01*
X94488Y143116D01*
X95288Y143517D01*
X94888Y142717D01*
X95288Y141917D01*
X94488Y142316D01*
X93688Y141917D01*
X97625D02*
X98025Y142717D01*
X97625Y143517D01*
X98425Y143116D01*
X99225Y143517D01*
X98825Y142717D01*
X99225Y141917D01*
X98425Y142316D01*
X97625Y141917D01*
X105499D02*
X105899Y142717D01*
X105499Y143517D01*
X106299Y143116D01*
X107099Y143517D01*
X106699Y142717D01*
X107099Y141917D01*
X106299Y142316D01*
X105499Y141917D01*
X101562D02*
X101962Y142717D01*
X101562Y143517D01*
X102362Y143116D01*
X103162Y143517D01*
X102762Y142717D01*
X103162Y141917D01*
X102362Y142316D01*
X101562Y141917D01*
Y147035D02*
X101962Y147835D01*
X101562Y148635D01*
X102362Y148235D01*
X103162Y148635D01*
X102762Y147835D01*
X103162Y147035D01*
X102362Y147435D01*
X101562Y147035D01*
X105893D02*
X106293Y147835D01*
X105893Y148635D01*
X106693Y148235D01*
X107493Y148635D01*
X107093Y147835D01*
X107493Y147035D01*
X106693Y147435D01*
X105893Y147035D01*
X97232D02*
X97632Y147835D01*
X97232Y148635D01*
X98032Y148235D01*
X98831Y148635D01*
X98431Y147835D01*
X98831Y147035D01*
X98032Y147435D01*
X97232Y147035D01*
X92901D02*
X93301Y147835D01*
X92901Y148635D01*
X93701Y148235D01*
X94501Y148635D01*
X94101Y147835D01*
X94501Y147035D01*
X93701Y147435D01*
X92901Y147035D01*
X110224D02*
X110624Y147835D01*
X110224Y148635D01*
X111024Y148235D01*
X111824Y148635D01*
X111424Y147835D01*
X111824Y147035D01*
X111024Y147435D01*
X110224Y147035D01*
X111011Y152153D02*
X111411Y152953D01*
X111011Y153753D01*
X111811Y153353D01*
X112611Y153753D01*
X112211Y152953D01*
X112611Y152153D01*
X111811Y152553D01*
X111011Y152153D01*
X92113D02*
X92513Y152953D01*
X92113Y153753D01*
X92913Y153353D01*
X93713Y153753D01*
X93313Y152953D01*
X93713Y152153D01*
X92913Y152553D01*
X92113Y152153D01*
X96838D02*
X97238Y152953D01*
X96838Y153753D01*
X97638Y153353D01*
X98438Y153753D01*
X98038Y152953D01*
X98438Y152153D01*
X97638Y152553D01*
X96838Y152153D01*
X106287D02*
X106687Y152953D01*
X106287Y153753D01*
X107087Y153353D01*
X107887Y153753D01*
X107487Y152953D01*
X107887Y152153D01*
X107087Y152553D01*
X106287Y152153D01*
X101562D02*
X101962Y152953D01*
X101562Y153753D01*
X102362Y153353D01*
X103162Y153753D01*
X102762Y152953D01*
X103162Y152153D01*
X102362Y152553D01*
X101562Y152153D01*
X114161Y172625D02*
X114561Y173425D01*
X114161Y174225D01*
X114961Y173825D01*
X115761Y174225D01*
X115361Y173425D01*
X115761Y172625D01*
X114961Y173025D01*
X114161Y172625D01*
X88964D02*
X89364Y173425D01*
X88964Y174225D01*
X89764Y173825D01*
X90564Y174225D01*
X90164Y173425D01*
X90564Y172625D01*
X89764Y173025D01*
X88964Y172625D01*
X95263D02*
X95663Y173425D01*
X95263Y174225D01*
X96063Y173825D01*
X96863Y174225D01*
X96463Y173425D01*
X96863Y172625D01*
X96063Y173025D01*
X95263Y172625D01*
X107861D02*
X108261Y173425D01*
X107861Y174225D01*
X108661Y173825D01*
X109461Y174225D01*
X109061Y173425D01*
X109461Y172625D01*
X108661Y173025D01*
X107861Y172625D01*
X101562D02*
X101962Y173425D01*
X101562Y174225D01*
X102362Y173825D01*
X103162Y174225D01*
X102762Y173425D01*
X103162Y172625D01*
X102362Y173025D01*
X101562Y172625D01*
Y177743D02*
X101962Y178543D01*
X101562Y179343D01*
X102362Y178943D01*
X103162Y179343D01*
X102762Y178543D01*
X103162Y177743D01*
X102362Y178143D01*
X101562Y177743D01*
X108255D02*
X108655Y178543D01*
X108255Y179343D01*
X109055Y178943D01*
X109855Y179343D01*
X109455Y178543D01*
X109855Y177743D01*
X109055Y178143D01*
X108255Y177743D01*
X94869D02*
X95269Y178543D01*
X94869Y179343D01*
X95669Y178943D01*
X96469Y179343D01*
X96069Y178543D01*
X96469Y177743D01*
X95669Y178143D01*
X94869Y177743D01*
X88176D02*
X88576Y178543D01*
X88176Y179343D01*
X88976Y178943D01*
X89776Y179343D01*
X89376Y178543D01*
X89776Y177743D01*
X88976Y178143D01*
X88176Y177743D01*
X114948D02*
X115348Y178543D01*
X114948Y179343D01*
X115748Y178943D01*
X116548Y179343D01*
X116148Y178543D01*
X116548Y177743D01*
X115748Y178143D01*
X114948Y177743D01*
Y50972D02*
X115348Y51772D01*
X114948Y52572D01*
X115748Y52172D01*
X116548Y52572D01*
X116148Y51772D01*
X116548Y50972D01*
X115748Y51372D01*
X114948Y50972D01*
X106287D02*
X106687Y51772D01*
X106287Y52572D01*
X107087Y52172D01*
X107887Y52572D01*
X107487Y51772D01*
X107887Y50972D01*
X107087Y51372D01*
X106287Y50972D01*
X108255Y56090D02*
X108655Y56890D01*
X108255Y57690D01*
X109055Y57290D01*
X109855Y57690D01*
X109455Y56890D01*
X109855Y56090D01*
X109055Y56490D01*
X108255Y56090D01*
X95263D02*
X95663Y56890D01*
X95263Y57690D01*
X96063Y57290D01*
X96863Y57690D01*
X96463Y56890D01*
X96863Y56090D01*
X96063Y56490D01*
X95263Y56090D01*
X88964D02*
X89364Y56890D01*
X88964Y57690D01*
X89764Y57290D01*
X90564Y57690D01*
X90164Y56890D01*
X90564Y56090D01*
X89764Y56490D01*
X88964Y56090D01*
X114161D02*
X114561Y56890D01*
X114161Y57690D01*
X114961Y57290D01*
X115761Y57690D01*
X115361Y56890D01*
X115761Y56090D01*
X114961Y56490D01*
X114161Y56090D01*
X113373Y61208D02*
X113773Y62008D01*
X113373Y62808D01*
X114173Y62408D01*
X114973Y62808D01*
X114573Y62008D01*
X114973Y61208D01*
X114173Y61608D01*
X113373Y61208D01*
X89751D02*
X90151Y62008D01*
X89751Y62808D01*
X90551Y62408D01*
X91351Y62808D01*
X90951Y62008D01*
X91351Y61208D01*
X90551Y61608D01*
X89751Y61208D01*
X95657D02*
X96057Y62008D01*
X95657Y62808D01*
X96457Y62408D01*
X97257Y62808D01*
X96857Y62008D01*
X97257Y61208D01*
X96457Y61608D01*
X95657Y61208D01*
X108255D02*
X108655Y62008D01*
X108255Y62808D01*
X109055Y62408D01*
X109855Y62808D01*
X109455Y62008D01*
X109855Y61208D01*
X109055Y61608D01*
X108255Y61208D01*
X101562Y64751D02*
X101962Y65551D01*
X101562Y66351D01*
X102362Y65951D01*
X103162Y66351D01*
X102762Y65551D01*
X103162Y64751D01*
X102362Y65151D01*
X101562Y64751D01*
X95657Y66326D02*
X96057Y67126D01*
X95657Y67926D01*
X96457Y67526D01*
X97257Y67926D01*
X96857Y67126D01*
X97257Y66326D01*
X96457Y66726D01*
X95657Y66326D01*
X90539D02*
X90939Y67126D01*
X90539Y67926D01*
X91339Y67526D01*
X92139Y67926D01*
X91739Y67126D01*
X92139Y66326D01*
X91339Y66726D01*
X90539Y66326D01*
X114161D02*
X114561Y67126D01*
X114161Y67926D01*
X114961Y67526D01*
X115761Y67926D01*
X115361Y67126D01*
X115761Y66326D01*
X114961Y66726D01*
X114161Y66326D01*
X91326Y71444D02*
X91726Y72244D01*
X91326Y73044D01*
X92126Y72644D01*
X92926Y73044D01*
X92526Y72244D01*
X92926Y71444D01*
X92126Y71844D01*
X91326Y71444D01*
X96444D02*
X96844Y72244D01*
X96444Y73044D01*
X97244Y72644D01*
X98044Y73044D01*
X97644Y72244D01*
X98044Y71444D01*
X97244Y71844D01*
X96444Y71444D01*
X106287Y76562D02*
X106687Y77362D01*
X106287Y78162D01*
X107087Y77762D01*
X107887Y78162D01*
X107487Y77362D01*
X107887Y76562D01*
X107087Y76962D01*
X106287Y76562D01*
X96838D02*
X97238Y77362D01*
X96838Y78162D01*
X97638Y77762D01*
X98438Y78162D01*
X98038Y77362D01*
X98438Y76562D01*
X97638Y76962D01*
X96838Y76562D01*
X92113D02*
X92513Y77362D01*
X92113Y78162D01*
X92913Y77762D01*
X93713Y78162D01*
X93313Y77362D01*
X93713Y76562D01*
X92913Y76962D01*
X92113Y76562D01*
X111011D02*
X111411Y77362D01*
X111011Y78162D01*
X111811Y77762D01*
X112611Y78162D01*
X112211Y77362D01*
X112611Y76562D01*
X111811Y76962D01*
X111011Y76562D01*
X110224Y81680D02*
X110624Y82480D01*
X110224Y83280D01*
X111024Y82880D01*
X111824Y83280D01*
X111424Y82480D01*
X111824Y81680D01*
X111024Y82080D01*
X110224Y81680D01*
X92901D02*
X93301Y82480D01*
X92901Y83280D01*
X93701Y82880D01*
X94501Y83280D01*
X94101Y82480D01*
X94501Y81680D01*
X93701Y82080D01*
X92901Y81680D01*
X97232D02*
X97632Y82480D01*
X97232Y83280D01*
X98032Y82880D01*
X98831Y83280D01*
X98431Y82480D01*
X98831Y81680D01*
X98032Y82080D01*
X97232Y81680D01*
X105893D02*
X106293Y82480D01*
X105893Y83280D01*
X106693Y82880D01*
X107493Y83280D01*
X107093Y82480D01*
X107493Y81680D01*
X106693Y82080D01*
X105893Y81680D01*
X101562D02*
X101962Y82480D01*
X101562Y83280D01*
X102362Y82880D01*
X103162Y83280D01*
X102762Y82480D01*
X103162Y81680D01*
X102362Y82080D01*
X101562Y81680D01*
Y86799D02*
X101962Y87599D01*
X101562Y88398D01*
X102362Y87998D01*
X103162Y88398D01*
X102762Y87599D01*
X103162Y86799D01*
X102362Y87199D01*
X101562Y86799D01*
X105499D02*
X105899Y87599D01*
X105499Y88398D01*
X106299Y87998D01*
X107099Y88398D01*
X106699Y87599D01*
X107099Y86799D01*
X106299Y87199D01*
X105499Y86799D01*
X97625D02*
X98025Y87599D01*
X97625Y88398D01*
X98425Y87998D01*
X99225Y88398D01*
X98825Y87599D01*
X99225Y86799D01*
X98425Y87199D01*
X97625Y86799D01*
X93688D02*
X94088Y87599D01*
X93688Y88398D01*
X94488Y87998D01*
X95288Y88398D01*
X94888Y87599D01*
X95288Y86799D01*
X94488Y87199D01*
X93688Y86799D01*
X109436D02*
X109836Y87599D01*
X109436Y88398D01*
X110236Y87998D01*
X111036Y88398D01*
X110636Y87599D01*
X111036Y86799D01*
X110236Y87199D01*
X109436Y86799D01*
X108649Y91917D02*
X109049Y92717D01*
X108649Y93517D01*
X109449Y93117D01*
X110249Y93517D01*
X109849Y92717D01*
X110249Y91917D01*
X109449Y92317D01*
X108649Y91917D01*
X94476D02*
X94876Y92717D01*
X94476Y93517D01*
X95276Y93117D01*
X96076Y93517D01*
X95676Y92717D01*
X96076Y91917D01*
X95276Y92317D01*
X94476Y91917D01*
X98019D02*
X98419Y92717D01*
X98019Y93517D01*
X98819Y93117D01*
X99619Y93517D01*
X99219Y92717D01*
X99619Y91917D01*
X98819Y92317D01*
X98019Y91917D01*
X105105D02*
X105506Y92717D01*
X105105Y93517D01*
X105905Y93117D01*
X106705Y93517D01*
X106306Y92717D01*
X106705Y91917D01*
X105905Y92317D01*
X105105Y91917D01*
X101562D02*
X101962Y92717D01*
X101562Y93517D01*
X102362Y93117D01*
X103162Y93517D01*
X102762Y92717D01*
X103162Y91917D01*
X102362Y92317D01*
X101562Y91917D01*
X164554Y181287D02*
X164954Y182087D01*
X164554Y182887D01*
X165354Y182487D01*
X166154Y182887D01*
X165754Y182087D01*
X166154Y181287D01*
X165354Y181687D01*
X164554Y181287D01*
X171444D02*
X171844Y182087D01*
X171444Y182887D01*
X172244Y182487D01*
X173044Y182887D01*
X172644Y182087D01*
X173044Y181287D01*
X172244Y181687D01*
X171444Y181287D01*
X134043Y132665D02*
X134442Y133465D01*
X134043Y134265D01*
X134843Y133865D01*
X135643Y134265D01*
X135242Y133465D01*
X135643Y132665D01*
X134843Y133065D01*
X134043Y132665D01*
X112154Y186602D02*
X112554Y187402D01*
X112154Y188202D01*
X112954Y187802D01*
X113754Y188202D01*
X113354Y187402D01*
X113754Y186602D01*
X112954Y187002D01*
X112154Y186602D01*
X140145Y141326D02*
X140545Y142126D01*
X140145Y142926D01*
X140945Y142526D01*
X141745Y142926D01*
X141345Y142126D01*
X141745Y141326D01*
X140945Y141726D01*
X140145Y141326D01*
X150775Y127940D02*
X151175Y128740D01*
X150775Y129540D01*
X151575Y129140D01*
X152375Y129540D01*
X151975Y128740D01*
X152375Y127940D01*
X151575Y128340D01*
X150775Y127940D01*
X134239Y116917D02*
X134639Y117717D01*
X134239Y118517D01*
X135039Y118116D01*
X135839Y118517D01*
X135439Y117717D01*
X135839Y116917D01*
X135039Y117316D01*
X134239Y116917D01*
X140145Y94869D02*
X140545Y95669D01*
X140145Y96469D01*
X140945Y96069D01*
X141745Y96469D01*
X141345Y95669D01*
X141745Y94869D01*
X140945Y95269D01*
X140145Y94869D01*
X101562Y76562D02*
X101962Y77362D01*
X101562Y78162D01*
X102362Y77762D01*
X103162Y78162D01*
X102762Y77362D01*
X103162Y76562D01*
X102362Y76962D01*
X101562Y76562D01*
X89751Y86799D02*
X90151Y87599D01*
X89751Y88398D01*
X90551Y87998D01*
X91351Y88398D01*
X90951Y87599D01*
X91351Y86799D01*
X90551Y87199D01*
X89751Y86799D01*
X113373D02*
X113773Y87599D01*
X113373Y88398D01*
X114173Y87998D01*
X114973Y88398D01*
X114573Y87599D01*
X114973Y86799D01*
X114173Y87199D01*
X113373Y86799D01*
Y141917D02*
X113773Y142717D01*
X113373Y143517D01*
X114173Y143116D01*
X114973Y143517D01*
X114573Y142717D01*
X114973Y141917D01*
X114173Y142316D01*
X113373Y141917D01*
X117310D02*
X117710Y142717D01*
X117310Y143517D01*
X118110Y143116D01*
X118910Y143517D01*
X118510Y142717D01*
X118910Y141917D01*
X118110Y142316D01*
X117310Y141917D01*
X89751D02*
X90151Y142717D01*
X89751Y143517D01*
X90551Y143116D01*
X91351Y143517D01*
X90951Y142717D01*
X91351Y141917D01*
X90551Y142316D01*
X89751Y141917D01*
X85814D02*
X86214Y142717D01*
X85814Y143517D01*
X86614Y143116D01*
X87414Y143517D01*
X87014Y142717D01*
X87414Y141917D01*
X86614Y142316D01*
X85814Y141917D01*
X88570Y147035D02*
X88970Y147835D01*
X88570Y148635D01*
X89370Y148235D01*
X90170Y148635D01*
X89770Y147835D01*
X90170Y147035D01*
X89370Y147435D01*
X88570Y147035D01*
X87389Y152153D02*
X87789Y152953D01*
X87389Y153753D01*
X88189Y153353D01*
X88989Y153753D01*
X88589Y152953D01*
X88989Y152153D01*
X88189Y152553D01*
X87389Y152153D01*
X115735D02*
X116135Y152953D01*
X115735Y153753D01*
X116535Y153353D01*
X117335Y153753D01*
X116935Y152953D01*
X117335Y152153D01*
X116535Y152553D01*
X115735Y152153D01*
X114554Y147035D02*
X114954Y147835D01*
X114554Y148635D01*
X115354Y148235D01*
X116154Y148635D01*
X115754Y147835D01*
X116154Y147035D01*
X115354Y147435D01*
X114554Y147035D01*
X120066Y152153D02*
X120466Y152953D01*
X120066Y153753D01*
X120866Y153353D01*
X121666Y153753D01*
X121266Y152953D01*
X121666Y152153D01*
X120866Y152553D01*
X120066Y152153D01*
X118885Y147035D02*
X119285Y147835D01*
X118885Y148635D01*
X119685Y148235D01*
X120485Y148635D01*
X120085Y147835D01*
X120485Y147035D01*
X119685Y147435D01*
X118885Y147035D01*
X121641Y177743D02*
X122041Y178543D01*
X121641Y179343D01*
X122441Y178943D01*
X123241Y179343D01*
X122841Y178543D01*
X123241Y177743D01*
X122441Y178143D01*
X121641Y177743D01*
X120460Y172625D02*
X120860Y173425D01*
X120460Y174225D01*
X121260Y173825D01*
X122060Y174225D01*
X121660Y173425D01*
X122060Y172625D01*
X121260Y173025D01*
X120460Y172625D01*
X96444Y157271D02*
X96844Y158071D01*
X96444Y158871D01*
X97244Y158471D01*
X98044Y158871D01*
X97644Y158071D01*
X98044Y157271D01*
X97244Y157671D01*
X96444Y157271D01*
X106680D02*
X107080Y158071D01*
X106680Y158871D01*
X107480Y158471D01*
X108280Y158871D01*
X107880Y158071D01*
X108280Y157271D01*
X107480Y157671D01*
X106680Y157271D01*
X111798D02*
X112198Y158071D01*
X111798Y158871D01*
X112598Y158471D01*
X113398Y158871D01*
X112998Y158071D01*
X113398Y157271D01*
X112598Y157671D01*
X111798Y157271D01*
X91326D02*
X91726Y158071D01*
X91326Y158871D01*
X92126Y158471D01*
X92926Y158871D01*
X92526Y158071D01*
X92926Y157271D01*
X92126Y157671D01*
X91326Y157271D01*
X101562D02*
X101962Y158071D01*
X101562Y158871D01*
X102362Y158471D01*
X103162Y158871D01*
X102762Y158071D01*
X103162Y157271D01*
X102362Y157671D01*
X101562Y157271D01*
X122035D02*
X122435Y158071D01*
X122035Y158871D01*
X122835Y158471D01*
X123635Y158871D01*
X123235Y158071D01*
X123635Y157271D01*
X122835Y157671D01*
X122035Y157271D01*
X116917D02*
X117316Y158071D01*
X116917Y158871D01*
X117717Y158471D01*
X118517Y158871D01*
X118116Y158071D01*
X118517Y157271D01*
X117717Y157671D01*
X116917Y157271D01*
X86208D02*
X86608Y158071D01*
X86208Y158871D01*
X87008Y158471D01*
X87808Y158871D01*
X87408Y158071D01*
X87808Y157271D01*
X87008Y157671D01*
X86208Y157271D01*
X106287Y45854D02*
X106687Y46654D01*
X106287Y47454D01*
X107087Y47054D01*
X107887Y47454D01*
X107487Y46654D01*
X107887Y45854D01*
X107087Y46254D01*
X106287Y45854D01*
X114948D02*
X115348Y46654D01*
X114948Y47454D01*
X115748Y47054D01*
X116548Y47454D01*
X116148Y46654D01*
X116548Y45854D01*
X115748Y46254D01*
X114948Y45854D01*
X106287Y40736D02*
X106687Y41536D01*
X106287Y42336D01*
X107087Y41936D01*
X107887Y42336D01*
X107487Y41536D01*
X107887Y40736D01*
X107087Y41136D01*
X106287Y40736D01*
X114948D02*
X115348Y41536D01*
X114948Y42336D01*
X115748Y41936D01*
X116548Y42336D01*
X116148Y41536D01*
X116548Y40736D01*
X115748Y41136D01*
X114948Y40736D01*
X106287Y35618D02*
X106687Y36417D01*
X106287Y37218D01*
X107087Y36817D01*
X107887Y37218D01*
X107487Y36417D01*
X107887Y35618D01*
X107087Y36018D01*
X106287Y35618D01*
X114948D02*
X115348Y36417D01*
X114948Y37218D01*
X115748Y36817D01*
X116548Y37218D01*
X116148Y36417D01*
X116548Y35618D01*
X115748Y36018D01*
X114948Y35618D01*
X106287Y30499D02*
X106687Y31299D01*
X106287Y32099D01*
X107087Y31699D01*
X107887Y32099D01*
X107487Y31299D01*
X107887Y30499D01*
X107087Y30899D01*
X106287Y30499D01*
X114948D02*
X115348Y31299D01*
X114948Y32099D01*
X115748Y31699D01*
X116548Y32099D01*
X116148Y31299D01*
X116548Y30499D01*
X115748Y30899D01*
X114948Y30499D01*
X114161Y71444D02*
X114561Y72244D01*
X114161Y73044D01*
X114961Y72644D01*
X115761Y73044D01*
X115361Y72244D01*
X115761Y71444D01*
X114961Y71844D01*
X114161Y71444D01*
X81877Y177743D02*
X82277Y178543D01*
X81877Y179343D01*
X82677Y178943D01*
X83477Y179343D01*
X83077Y178543D01*
X83477Y177743D01*
X82677Y178143D01*
X81877Y177743D01*
X82665Y172625D02*
X83065Y173425D01*
X82665Y174225D01*
X83465Y173825D01*
X84265Y174225D01*
X83865Y173425D01*
X84265Y172625D01*
X83465Y173025D01*
X82665Y172625D01*
X76365Y181877D02*
X76765Y182677D01*
X76365Y183477D01*
X77165Y183077D01*
X77965Y183477D01*
X77565Y182677D01*
X77965Y181877D01*
X77165Y182277D01*
X76365Y181877D01*
X81090Y146444D02*
X81490Y147244D01*
X81090Y148044D01*
X81890Y147644D01*
X82690Y148044D01*
X82290Y147244D01*
X82690Y146444D01*
X81890Y146844D01*
X81090Y146444D01*
X152350Y134239D02*
X152750Y135039D01*
X152350Y135839D01*
X153150Y135439D01*
X153950Y135839D01*
X153550Y135039D01*
X153950Y134239D01*
X153150Y134639D01*
X152350Y134239D01*
X197231Y205499D02*
X197632Y206299D01*
X197231Y207099D01*
X198031Y206699D01*
X198831Y207099D01*
X198432Y206299D01*
X198831Y205499D01*
X198031Y205899D01*
X197231Y205499D01*
X87389Y194082D02*
X87789Y194882D01*
X87389Y195682D01*
X88189Y195282D01*
X88989Y195682D01*
X88589Y194882D01*
X88989Y194082D01*
X88189Y194482D01*
X87389Y194082D01*
X127153Y206680D02*
X127553Y207480D01*
X127153Y208280D01*
X127953Y207880D01*
X128753Y208280D01*
X128353Y207480D01*
X128753Y206680D01*
X127953Y207080D01*
X127153Y206680D01*
X136144Y149530D02*
X136544Y150330D01*
X136144Y151130D01*
X136944Y150730D01*
X137744Y151130D01*
X137344Y150330D01*
X137744Y149530D01*
X136944Y149930D01*
X136144Y149530D01*
X126169Y135027D02*
X126568Y135827D01*
X126169Y136627D01*
X126969Y136227D01*
X127769Y136627D01*
X127368Y135827D01*
X127769Y135027D01*
X126969Y135427D01*
X126169Y135027D01*
X364173Y102315D02*
X365673Y105315D01*
X364173Y108315D01*
X367173Y106815D01*
X370173Y108315D01*
X368673Y105315D01*
X370173Y102315D01*
X367173Y103815D01*
X364173Y102315D01*
X367173Y86567D02*
X364173Y92567D01*
X370173D01*
X367173Y86567D01*
Y55071D02*
X368673Y56571D01*
X370173D01*
X368673Y58071D01*
X370173Y59571D01*
X368673D01*
X367173Y61071D01*
X365673Y59571D01*
X364173D01*
X365673Y58071D01*
X364173Y56571D01*
X365673D01*
X367173Y55071D01*
X364173Y39323D02*
Y45323D01*
X370173D01*
Y39323D01*
X364173D01*
D83*
X7493Y49213D02*
G03*
X7493Y49213I-800J0D01*
G01*
Y39213D02*
G03*
X7493Y39213I-800J0D01*
G01*
X70800Y190000D02*
G03*
X70800Y190000I-800J0D01*
G01*
X60800D02*
G03*
X60800Y190000I-800J0D01*
G01*
X50800D02*
G03*
X50800Y190000I-800J0D01*
G01*
X40800D02*
G03*
X40800Y190000I-800J0D01*
G01*
X193754Y201693D02*
G03*
X193754Y201693I-800J0D01*
G01*
X193754Y211693D02*
G03*
X193754Y211693I-800J0D01*
G01*
X173754D02*
G03*
X173754Y211693I-800J0D01*
G01*
Y201693D02*
G03*
X173754Y201693I-800J0D01*
G01*
X183754Y211693D02*
G03*
X183754Y211693I-800J0D01*
G01*
X183754Y201693D02*
G03*
X183754Y201693I-800J0D01*
G01*
X153754Y211693D02*
G03*
X153754Y211693I-800J0D01*
G01*
Y201693D02*
G03*
X153754Y201693I-800J0D01*
G01*
X163754Y211693D02*
G03*
X163754Y211693I-800J0D01*
G01*
X163754Y201693D02*
G03*
X163754Y201693I-800J0D01*
G01*
X203754Y211693D02*
G03*
X203754Y211693I-800J0D01*
G01*
X203754Y201693D02*
G03*
X203754Y201693I-800J0D01*
G01*
X223754Y201693D02*
G03*
X223754Y201693I-800J0D01*
G01*
X223754Y211693D02*
G03*
X223754Y211693I-800J0D01*
G01*
X213754Y201693D02*
G03*
X213754Y201693I-800J0D01*
G01*
Y211693D02*
G03*
X213754Y211693I-800J0D01*
G01*
X143754D02*
G03*
X143754Y211693I-800J0D01*
G01*
Y201693D02*
G03*
X143754Y201693I-800J0D01*
G01*
X123754Y211693D02*
G03*
X123754Y211693I-800J0D01*
G01*
Y201693D02*
G03*
X123754Y201693I-800J0D01*
G01*
X133754Y211693D02*
G03*
X133754Y211693I-800J0D01*
G01*
X133754Y201693D02*
G03*
X133754Y201693I-800J0D01*
G01*
X113754D02*
G03*
X113754Y201693I-800J0D01*
G01*
Y211693D02*
G03*
X113754Y211693I-800J0D01*
G01*
X33753D02*
G03*
X33753Y211693I-800J0D01*
G01*
Y201693D02*
G03*
X33753Y201693I-800J0D01*
G01*
X43753Y211693D02*
G03*
X43753Y211693I-800J0D01*
G01*
Y201693D02*
G03*
X43753Y201693I-800J0D01*
G01*
X53754Y211693D02*
G03*
X53754Y211693I-800J0D01*
G01*
X53754Y201693D02*
G03*
X53754Y201693I-800J0D01*
G01*
X73753D02*
G03*
X73753Y201693I-800J0D01*
G01*
X73754Y211693D02*
G03*
X73754Y211693I-800J0D01*
G01*
X63753Y201693D02*
G03*
X63753Y201693I-800J0D01*
G01*
Y211693D02*
G03*
X63753Y211693I-800J0D01*
G01*
X93754Y201693D02*
G03*
X93754Y201693I-800J0D01*
G01*
X93754Y211693D02*
G03*
X93754Y211693I-800J0D01*
G01*
X83754Y201693D02*
G03*
X83754Y201693I-800J0D01*
G01*
Y211693D02*
G03*
X83754Y211693I-800J0D01*
G01*
X103754D02*
G03*
X103754Y211693I-800J0D01*
G01*
X103754Y201693D02*
G03*
X103754Y201693I-800J0D01*
G01*
X10800Y180000D02*
G03*
X10800Y180000I-800J0D01*
G01*
Y170000D02*
G03*
X10800Y170000I-800J0D01*
G01*
Y160000D02*
G03*
X10800Y160000I-800J0D01*
G01*
Y150000D02*
G03*
X10800Y150000I-800J0D01*
G01*
D84*
X370470Y128147D02*
X368896Y129721D01*
X365747D01*
X364173Y128147D01*
Y126573D01*
X365747Y124998D01*
X368896D01*
X370470Y123424D01*
Y121850D01*
X368896Y120276D01*
X365747D01*
X364173Y121850D01*
X373619Y126573D02*
Y121850D01*
X375193Y120276D01*
X379916D01*
Y118701D01*
X378342Y117127D01*
X376768D01*
X379916Y120276D02*
Y126573D01*
X383065Y120276D02*
Y126573D01*
X384639D01*
X386213Y124998D01*
Y120276D01*
Y124998D01*
X387788Y126573D01*
X389362Y124998D01*
Y120276D01*
X392511Y129721D02*
Y120276D01*
X397233D01*
X398808Y121850D01*
Y123424D01*
Y124998D01*
X397233Y126573D01*
X392511D01*
X403531Y120276D02*
X406679D01*
X408253Y121850D01*
Y124998D01*
X406679Y126573D01*
X403531D01*
X401956Y124998D01*
Y121850D01*
X403531Y120276D01*
X411402D02*
X414551D01*
X412976D01*
Y129721D01*
X411402D01*
X427779D02*
Y120276D01*
Y124998D01*
X434076D01*
Y129721D01*
Y120276D01*
X437225D02*
X440373D01*
X438799D01*
Y126573D01*
X437225D01*
X446670Y128147D02*
Y126573D01*
X445096D01*
X448245D01*
X446670D01*
Y121850D01*
X448245Y120276D01*
X468711Y128147D02*
X467136Y129721D01*
X463988D01*
X462414Y128147D01*
Y121850D01*
X463988Y120276D01*
X467136D01*
X468711Y121850D01*
X473434Y120276D02*
X476582D01*
X478156Y121850D01*
Y124998D01*
X476582Y126573D01*
X473434D01*
X471859Y124998D01*
Y121850D01*
X473434Y120276D01*
X481305Y126573D02*
Y121850D01*
X482879Y120276D01*
X487602D01*
Y126573D01*
X490751Y120276D02*
Y126573D01*
X495474D01*
X497048Y124998D01*
Y120276D01*
X501771Y128147D02*
Y126573D01*
X500197D01*
X503345D01*
X501771D01*
Y121850D01*
X503345Y120276D01*
X522871Y129721D02*
X516573D01*
Y124998D01*
X519722D01*
X516573D01*
Y120276D01*
X526019D02*
X529168D01*
X527594D01*
Y126573D01*
X526019D01*
X533891Y120276D02*
Y126573D01*
X538614D01*
X540188Y124998D01*
Y120276D01*
X543336D02*
X546485D01*
X544911D01*
Y126573D01*
X543336D01*
X551208Y120276D02*
X555931D01*
X557505Y121850D01*
X555931Y123424D01*
X552782D01*
X551208Y124998D01*
X552782Y126573D01*
X557505D01*
X560654Y129721D02*
Y120276D01*
Y124998D01*
X562228Y126573D01*
X565377D01*
X566951Y124998D01*
Y120276D01*
X574822D02*
X571674D01*
X570099Y121850D01*
Y124998D01*
X571674Y126573D01*
X574822D01*
X576397Y124998D01*
Y123424D01*
X570099D01*
X585843Y129721D02*
Y120276D01*
X581120D01*
X579545Y121850D01*
Y124998D01*
X581120Y126573D01*
X585843D01*
X598437Y129721D02*
Y120276D01*
Y124998D01*
X604734D01*
Y129721D01*
Y120276D01*
X609457D02*
X612605D01*
X614180Y121850D01*
Y124998D01*
X612605Y126573D01*
X609457D01*
X607883Y124998D01*
Y121850D01*
X609457Y120276D01*
X617328D02*
X620477D01*
X618903D01*
Y129721D01*
X617328D01*
X629923Y120276D02*
X626774D01*
X625200Y121850D01*
Y124998D01*
X626774Y126573D01*
X629923D01*
X631497Y124998D01*
Y123424D01*
X625200D01*
X650389Y128147D02*
X648814Y129721D01*
X645666D01*
X644091Y128147D01*
Y126573D01*
X645666Y124998D01*
X648814D01*
X650389Y123424D01*
Y121850D01*
X648814Y120276D01*
X645666D01*
X644091Y121850D01*
X653537Y120276D02*
X656686D01*
X655111D01*
Y126573D01*
X653537D01*
X661409D02*
X667706D01*
X661409Y120276D01*
X667706D01*
X675577D02*
X672429D01*
X670854Y121850D01*
Y124998D01*
X672429Y126573D01*
X675577D01*
X677152Y124998D01*
Y123424D01*
X670854D01*
X690380Y120276D02*
Y129721D01*
X695103D01*
X696677Y128147D01*
Y124998D01*
X695103Y123424D01*
X690380D01*
X699826Y120276D02*
X702974D01*
X701400D01*
Y129721D01*
X699826D01*
X709271Y126573D02*
X712420D01*
X713994Y124998D01*
Y120276D01*
X709271D01*
X707697Y121850D01*
X709271Y123424D01*
X713994D01*
X718717Y128147D02*
Y126573D01*
X717143D01*
X720292D01*
X718717D01*
Y121850D01*
X720292Y120276D01*
X729737D02*
X726589D01*
X725014Y121850D01*
Y124998D01*
X726589Y126573D01*
X729737D01*
X731312Y124998D01*
Y123424D01*
X725014D01*
X740757Y129721D02*
Y120276D01*
X736034D01*
X734460Y121850D01*
Y124998D01*
X736034Y126573D01*
X740757D01*
X753986Y129721D02*
Y120276D01*
Y124998D01*
X760283D01*
Y129721D01*
Y120276D01*
X765006D02*
X768154D01*
X769729Y121850D01*
Y124998D01*
X768154Y126573D01*
X765006D01*
X763432Y124998D01*
Y121850D01*
X765006Y120276D01*
X772877D02*
X776026D01*
X774451D01*
Y129721D01*
X772877D01*
X785472Y120276D02*
X782323D01*
X780749Y121850D01*
Y124998D01*
X782323Y126573D01*
X785472D01*
X787046Y124998D01*
Y123424D01*
X780749D01*
X799640Y129721D02*
X805937D01*
X802789D01*
Y120276D01*
X809086Y126573D02*
Y121850D01*
X810660Y120276D01*
X815383D01*
Y118701D01*
X813809Y117127D01*
X812235D01*
X815383Y120276D02*
Y126573D01*
X818532Y117127D02*
Y126573D01*
X823255D01*
X824829Y124998D01*
Y121850D01*
X823255Y120276D01*
X818532D01*
X832700D02*
X829552D01*
X827977Y121850D01*
Y124998D01*
X829552Y126573D01*
X832700D01*
X834275Y124998D01*
Y123424D01*
X827977D01*
X353465Y134449D02*
X847503D01*
X353465Y113189D02*
X847503D01*
X353465Y134449D02*
Y18701D01*
X847503Y134449D02*
Y18701D01*
X422425Y134449D02*
Y18701D01*
X511219Y134449D02*
Y18701D01*
X685026Y134449D02*
Y18701D01*
X748631Y134449D02*
Y18701D01*
X353465Y34449D02*
X847503D01*
X353465Y18701D02*
X847503D01*
M02*
