G04 Layer_Color=32896*
%FSLAX25Y25*%
%MOIN*%
G70*
G01*
G75*
%ADD32C,0.00984*%
%ADD33C,0.00787*%
%ADD35C,0.01575*%
%ADD79R,0.31811X0.08661*%
%ADD80R,0.07717X0.27559*%
G36*
X161575Y18110D02*
X129764D01*
Y27559D01*
X161575D01*
Y18110D01*
D02*
G37*
G36*
X74961D02*
X43150D01*
Y27559D01*
X74961D01*
Y18110D01*
D02*
G37*
G36*
X220630Y0D02*
X188819D01*
Y9449D01*
X220630D01*
Y0D01*
D02*
G37*
G36*
X161575D02*
X129764D01*
Y9449D01*
X161575D01*
Y0D01*
D02*
G37*
G36*
X220630Y18110D02*
X188819D01*
Y27559D01*
X220630D01*
Y18110D01*
D02*
G37*
G36*
X74961Y0D02*
X43150D01*
Y9449D01*
X74961D01*
Y0D01*
D02*
G37*
G36*
X255906Y27559D02*
X188819D01*
Y41339D01*
X255906D01*
Y27559D01*
D02*
G37*
%LPC*%
G36*
X213173Y7807D02*
X210681D01*
X210605Y7796D01*
X210517Y7785D01*
X210408Y7774D01*
X210299Y7763D01*
X210168Y7730D01*
X209905Y7665D01*
X209621Y7566D01*
X209479Y7501D01*
X209348Y7424D01*
X209217Y7326D01*
X209096Y7227D01*
X209085Y7216D01*
X209074Y7205D01*
X209042Y7173D01*
X208998Y7129D01*
X208954Y7063D01*
X208900Y6998D01*
X208779Y6834D01*
X208670Y6626D01*
X208572Y6386D01*
X208528Y6255D01*
X208495Y6112D01*
X208484Y5970D01*
X208473Y5817D01*
Y5796D01*
Y5741D01*
X208484Y5654D01*
X208495Y5533D01*
X208528Y5402D01*
X208561Y5260D01*
X208615Y5107D01*
X208692Y4954D01*
X208703Y4943D01*
X208725Y4899D01*
X208758Y4845D01*
X208812Y4768D01*
X208889Y4670D01*
X208976Y4571D01*
X209085Y4451D01*
X209217Y4342D01*
X209228Y4331D01*
X209282Y4298D01*
X209348Y4244D01*
X209446Y4178D01*
X209556Y4101D01*
X209687Y4025D01*
X209829Y3959D01*
X209971Y3894D01*
X209993Y3883D01*
X210036Y3872D01*
X210124Y3850D01*
X210244Y3828D01*
X210386Y3795D01*
X210561Y3774D01*
X210758Y3763D01*
X210987Y3752D01*
X211971D01*
Y2681D01*
X210856D01*
X210791Y2670D01*
X210714Y2659D01*
X210528Y2615D01*
X210441Y2582D01*
X210375Y2527D01*
X210364Y2517D01*
X210353Y2506D01*
X210321Y2473D01*
X210288Y2429D01*
X210233Y2309D01*
X210222Y2243D01*
X210211Y2156D01*
Y2145D01*
Y2123D01*
X210222Y2079D01*
X210233Y2025D01*
X210255Y1970D01*
X210277Y1905D01*
X210321Y1839D01*
X210375Y1784D01*
X210386Y1773D01*
X210408Y1762D01*
X210452Y1740D01*
X210506Y1719D01*
X210583Y1686D01*
X210670Y1664D01*
X210791Y1653D01*
X210922Y1642D01*
X213239D01*
X213304Y1653D01*
X213392Y1664D01*
X213578Y1708D01*
X213654Y1740D01*
X213731Y1784D01*
X213742Y1795D01*
X213753Y1806D01*
X213774Y1839D01*
X213807Y1883D01*
X213862Y2003D01*
X213873Y2079D01*
X213884Y2156D01*
Y2167D01*
Y2200D01*
X213873Y2232D01*
X213862Y2287D01*
X213818Y2407D01*
X213785Y2473D01*
X213731Y2527D01*
X213720Y2538D01*
X213698Y2549D01*
X213654Y2571D01*
X213600Y2604D01*
X213523Y2637D01*
X213425Y2659D01*
X213304Y2670D01*
X213173Y2681D01*
X213009D01*
Y6768D01*
X213239D01*
X213304Y6779D01*
X213392Y6790D01*
X213578Y6834D01*
X213654Y6867D01*
X213731Y6910D01*
X213742Y6921D01*
X213753Y6932D01*
X213774Y6965D01*
X213807Y7009D01*
X213862Y7129D01*
X213873Y7205D01*
X213884Y7282D01*
Y7293D01*
Y7326D01*
X213873Y7359D01*
X213862Y7413D01*
X213818Y7533D01*
X213785Y7599D01*
X213731Y7654D01*
X213720Y7665D01*
X213698Y7676D01*
X213654Y7697D01*
X213600Y7730D01*
X213523Y7763D01*
X213425Y7785D01*
X213304Y7796D01*
X213173Y7807D01*
D02*
G37*
G36*
X206186Y37318D02*
X203989Y37307D01*
X203901D01*
X203803Y37296D01*
X203672Y37285D01*
X203519Y37263D01*
X203355Y37231D01*
X203180Y37187D01*
X202994Y37121D01*
X202983D01*
X202972Y37110D01*
X202907Y37088D01*
X202819Y37045D01*
X202710Y36990D01*
X202579Y36924D01*
X202448Y36837D01*
X202317Y36750D01*
X202196Y36640D01*
X202185Y36629D01*
X202153Y36597D01*
X202109Y36553D01*
X202054Y36487D01*
X201989Y36400D01*
X201912Y36290D01*
X201825Y36170D01*
X201737Y36039D01*
X201726Y36017D01*
X201694Y35974D01*
X201650Y35897D01*
X201595Y35799D01*
X201541Y35689D01*
X201475Y35558D01*
X201420Y35427D01*
X201366Y35285D01*
X201355Y35263D01*
X201344Y35219D01*
X201322Y35143D01*
X201300Y35034D01*
X201278Y34902D01*
X201256Y34738D01*
X201235Y34564D01*
Y34367D01*
Y33864D01*
Y33853D01*
Y33831D01*
Y33799D01*
Y33755D01*
X201245Y33634D01*
X201267Y33471D01*
X201289Y33296D01*
X201333Y33099D01*
X201388Y32891D01*
X201464Y32695D01*
Y32684D01*
X201475Y32673D01*
X201508Y32607D01*
X201552Y32520D01*
X201628Y32399D01*
X201715Y32268D01*
X201814Y32126D01*
X201934Y31984D01*
X202065Y31853D01*
X202076Y31842D01*
X202131Y31798D01*
X202196Y31744D01*
X202284Y31678D01*
X202393Y31602D01*
X202502Y31525D01*
X202634Y31449D01*
X202754Y31383D01*
X202765D01*
X202776Y31372D01*
X202808Y31361D01*
X202841Y31350D01*
X202951Y31306D01*
X203103Y31274D01*
X203300Y31230D01*
X203519Y31186D01*
X203781Y31164D01*
X204076Y31153D01*
X206251D01*
X206317Y31164D01*
X206404Y31175D01*
X206590Y31219D01*
X206667Y31252D01*
X206743Y31295D01*
X206754Y31306D01*
X206765Y31317D01*
X206787Y31350D01*
X206820Y31394D01*
X206874Y31514D01*
X206885Y31591D01*
X206896Y31667D01*
Y31678D01*
Y31711D01*
X206885Y31744D01*
X206874Y31798D01*
X206831Y31918D01*
X206798Y31984D01*
X206743Y32039D01*
X206732Y32050D01*
X206710Y32061D01*
X206667Y32083D01*
X206612Y32115D01*
X206536Y32148D01*
X206437Y32170D01*
X206317Y32181D01*
X206186Y32192D01*
Y36280D01*
X206251D01*
X206317Y36290D01*
X206404Y36301D01*
X206590Y36345D01*
X206667Y36378D01*
X206743Y36422D01*
X206754Y36433D01*
X206765Y36443D01*
X206787Y36476D01*
X206820Y36520D01*
X206874Y36640D01*
X206885Y36717D01*
X206896Y36793D01*
Y36804D01*
Y36837D01*
X206885Y36870D01*
X206874Y36924D01*
X206831Y37045D01*
X206798Y37110D01*
X206743Y37165D01*
X206732Y37176D01*
X206710Y37187D01*
X206667Y37209D01*
X206612Y37241D01*
X206536Y37274D01*
X206437Y37296D01*
X206317Y37307D01*
X206186Y37318D01*
D02*
G37*
G36*
X207883Y7807D02*
X206211D01*
X206145Y7796D01*
X206069Y7785D01*
X205883Y7741D01*
X205796Y7708D01*
X205730Y7654D01*
X205719Y7643D01*
X205708Y7632D01*
X205675Y7599D01*
X205643Y7555D01*
X205588Y7435D01*
X205577Y7369D01*
X205566Y7282D01*
Y7271D01*
Y7249D01*
X205577Y7205D01*
X205588Y7151D01*
X205610Y7096D01*
X205632Y7031D01*
X205675Y6965D01*
X205730Y6910D01*
X205741Y6899D01*
X205763Y6888D01*
X205806Y6867D01*
X205861Y6845D01*
X205938Y6812D01*
X206025Y6790D01*
X206145Y6779D01*
X206276Y6768D01*
X206823D01*
X206473Y3839D01*
X205654Y6266D01*
X204582D01*
X203752Y3839D01*
X203402Y6768D01*
X204014D01*
X204080Y6779D01*
X204167Y6790D01*
X204353Y6834D01*
X204429Y6867D01*
X204506Y6910D01*
X204517Y6921D01*
X204528Y6932D01*
X204550Y6965D01*
X204582Y7009D01*
X204637Y7129D01*
X204648Y7205D01*
X204659Y7282D01*
Y7293D01*
Y7326D01*
X204648Y7359D01*
X204637Y7413D01*
X204593Y7533D01*
X204560Y7599D01*
X204506Y7654D01*
X204495Y7665D01*
X204473Y7676D01*
X204429Y7697D01*
X204375Y7730D01*
X204298Y7763D01*
X204200Y7785D01*
X204080Y7796D01*
X203948Y7807D01*
X202287D01*
X202221Y7796D01*
X202145Y7785D01*
X201959Y7741D01*
X201872Y7708D01*
X201806Y7654D01*
X201795Y7643D01*
X201784Y7632D01*
X201751Y7599D01*
X201697Y7654D01*
X201686Y7665D01*
X201664Y7676D01*
X201620Y7697D01*
X201566Y7730D01*
X201489Y7763D01*
X201391Y7785D01*
X201271Y7796D01*
X201139Y7807D01*
X198680D01*
X198604Y7796D01*
X198516D01*
X198407Y7774D01*
X198287Y7763D01*
X198155Y7741D01*
X197882Y7676D01*
X197598Y7577D01*
X197456Y7512D01*
X197325Y7446D01*
X197194Y7359D01*
X197073Y7260D01*
X197063Y7249D01*
X197052Y7238D01*
X197019Y7205D01*
X196975Y7162D01*
X196931Y7107D01*
X196877Y7042D01*
X196767Y6888D01*
X196658Y6692D01*
X196560Y6462D01*
X196483Y6211D01*
X196472Y6069D01*
X196461Y5927D01*
Y5905D01*
Y5839D01*
X196472Y5752D01*
X196494Y5632D01*
X196538Y5489D01*
X196582Y5336D01*
X196658Y5184D01*
X196756Y5030D01*
X196767Y5009D01*
X196811Y4965D01*
X196877Y4888D01*
X196975Y4801D01*
X197095Y4692D01*
X197237Y4571D01*
X197412Y4451D01*
X197620Y4331D01*
X197609Y4320D01*
X197565Y4276D01*
X197500Y4211D01*
X197412Y4123D01*
X197303Y4025D01*
X197183Y3894D01*
X197052Y3752D01*
X196909Y3588D01*
X196898Y3577D01*
X196866Y3533D01*
X196811Y3467D01*
X196746Y3369D01*
X196658Y3238D01*
X196549Y3085D01*
X196418Y2899D01*
X196275Y2681D01*
X196144D01*
X196068Y2670D01*
X195904Y2637D01*
X195827Y2615D01*
X195773Y2582D01*
X195762Y2571D01*
X195740Y2549D01*
X195707Y2506D01*
X195663Y2451D01*
X195598Y2320D01*
X195576Y2243D01*
X195565Y2156D01*
Y2145D01*
Y2123D01*
X195576Y2079D01*
X195587Y2025D01*
X195609Y1970D01*
X195631Y1905D01*
X195674Y1839D01*
X195729Y1784D01*
X195740Y1773D01*
X195762Y1762D01*
X195806Y1740D01*
X195860Y1719D01*
X195937Y1686D01*
X196024Y1664D01*
X196144Y1653D01*
X196275Y1642D01*
X196811D01*
Y1653D01*
X196822Y1664D01*
X196866Y1730D01*
X196931Y1828D01*
X197019Y1959D01*
X197128Y2112D01*
X197259Y2287D01*
X197401Y2473D01*
X197543Y2670D01*
X197882Y3074D01*
X198057Y3282D01*
X198232Y3467D01*
X198407Y3631D01*
X198582Y3784D01*
X198746Y3916D01*
X198910Y4003D01*
X199937D01*
Y2681D01*
X199500D01*
X199434Y2670D01*
X199358Y2659D01*
X199172Y2615D01*
X199084Y2582D01*
X199019Y2527D01*
X199008Y2517D01*
X198997Y2506D01*
X198964Y2473D01*
X198932Y2429D01*
X198877Y2309D01*
X198866Y2243D01*
X198855Y2156D01*
Y2145D01*
Y2123D01*
X198866Y2079D01*
X198877Y2025D01*
X198899Y1970D01*
X198921Y1905D01*
X198964Y1839D01*
X199019Y1784D01*
X199030Y1773D01*
X199052Y1762D01*
X199095Y1740D01*
X199150Y1719D01*
X199227Y1686D01*
X199314Y1664D01*
X199434Y1653D01*
X199565Y1642D01*
X201205D01*
X201271Y1653D01*
X201358Y1664D01*
X201544Y1708D01*
X201620Y1740D01*
X201697Y1784D01*
X201708Y1795D01*
X201719Y1806D01*
X201741Y1839D01*
X201773Y1883D01*
X201828Y2003D01*
X201839Y2079D01*
X201850Y2156D01*
Y2167D01*
Y2200D01*
X201839Y2232D01*
X201828Y2287D01*
X201784Y2407D01*
X201751Y2473D01*
X201697Y2527D01*
X201686Y2538D01*
X201664Y2549D01*
X201620Y2571D01*
X201566Y2604D01*
X201489Y2637D01*
X201391Y2659D01*
X201271Y2670D01*
X201139Y2681D01*
X200975D01*
Y6768D01*
X201205D01*
X201271Y6779D01*
X201358Y6790D01*
X201544Y6834D01*
X201620Y6867D01*
X201697Y6910D01*
X201708Y6921D01*
X201719Y6932D01*
X201741Y6965D01*
X201746Y6973D01*
X201751Y6965D01*
X201806Y6910D01*
X201817Y6899D01*
X201839Y6888D01*
X201883Y6867D01*
X201937Y6845D01*
X202014Y6812D01*
X202101Y6790D01*
X202221Y6779D01*
X202353Y6768D01*
X202965Y1642D01*
X204101D01*
X205118Y4593D01*
X206091Y1642D01*
X207260D01*
X207883Y6768D01*
X207949D01*
X208014Y6779D01*
X208091Y6790D01*
X208266Y6823D01*
X208353Y6856D01*
X208419Y6899D01*
X208430Y6910D01*
X208441Y6921D01*
X208473Y6954D01*
X208495Y6998D01*
X208528Y7052D01*
X208561Y7107D01*
X208572Y7184D01*
X208583Y7271D01*
Y7282D01*
Y7315D01*
X208572Y7348D01*
X208561Y7402D01*
X208539Y7468D01*
X208517Y7533D01*
X208473Y7599D01*
X208419Y7654D01*
X208408Y7665D01*
X208386Y7676D01*
X208342Y7697D01*
X208288Y7730D01*
X208211Y7763D01*
X208124Y7785D01*
X208014Y7796D01*
X207883Y7807D01*
D02*
G37*
G36*
X195642Y25791D02*
X195598D01*
X195521Y25780D01*
X195445Y25769D01*
X195325Y25715D01*
X195281Y25682D01*
X195248Y25649D01*
X195237Y25638D01*
X195226Y25627D01*
X195183Y25562D01*
X195150Y25474D01*
X195106Y25299D01*
X195095Y25223D01*
X195084Y25157D01*
Y25114D01*
Y25092D01*
Y23354D01*
X193587D01*
X193456Y23343D01*
X193346Y23332D01*
X193259Y23310D01*
X193182Y23288D01*
X193128Y23256D01*
X193084Y23234D01*
X193062Y23223D01*
X193051Y23212D01*
X192997Y23157D01*
X192964Y23091D01*
X192920Y22971D01*
X192909Y22917D01*
X192898Y22873D01*
Y22840D01*
Y22829D01*
X192909Y22753D01*
X192920Y22676D01*
X192975Y22556D01*
X193007Y22512D01*
X193029Y22479D01*
X193040Y22468D01*
X193051Y22458D01*
X193117Y22414D01*
X193204Y22381D01*
X193379Y22337D01*
X193456Y22326D01*
X193521Y22316D01*
X195084D01*
Y20567D01*
X195095Y20436D01*
X195106Y20326D01*
X195128Y20239D01*
X195161Y20162D01*
X195183Y20108D01*
X195204Y20064D01*
X195215Y20042D01*
X195226Y20031D01*
X195281Y19976D01*
X195346Y19944D01*
X195467Y19900D01*
X195521Y19889D01*
X195565Y19878D01*
X195598D01*
X195685Y19889D01*
X195751Y19900D01*
X195871Y19955D01*
X195915Y19987D01*
X195948Y20009D01*
X195958Y20020D01*
X195969Y20031D01*
X196013Y20097D01*
X196057Y20184D01*
X196090Y20359D01*
X196101Y20436D01*
X196112Y20501D01*
Y20556D01*
Y20567D01*
Y22316D01*
X197598D01*
X197729Y22326D01*
X197838Y22337D01*
X197926Y22359D01*
X198003Y22392D01*
X198057Y22414D01*
X198101Y22436D01*
X198123Y22447D01*
X198134Y22458D01*
X198188Y22512D01*
X198232Y22578D01*
X198254Y22643D01*
X198276Y22698D01*
X198287Y22753D01*
X198298Y22796D01*
Y22818D01*
Y22829D01*
X198287Y22917D01*
X198276Y22993D01*
X198243Y23059D01*
X198221Y23113D01*
X198188Y23157D01*
X198155Y23190D01*
X198145Y23201D01*
X198134Y23212D01*
X198068Y23256D01*
X197981Y23299D01*
X197806Y23332D01*
X197729Y23343D01*
X197664Y23354D01*
X196112D01*
X196123Y25092D01*
X196112Y25223D01*
X196101Y25332D01*
X196079Y25420D01*
X196046Y25496D01*
X196013Y25551D01*
X195991Y25594D01*
X195980Y25616D01*
X195969Y25627D01*
X195915Y25682D01*
X195849Y25726D01*
X195795Y25747D01*
X195729Y25769D01*
X195674Y25780D01*
X195642Y25791D01*
D02*
G37*
G36*
X222614Y37908D02*
X222526D01*
X222450Y37897D01*
X222373Y37886D01*
X222275Y37875D01*
X222176Y37864D01*
X222056Y37832D01*
X221816Y37766D01*
X221553Y37668D01*
X221422Y37602D01*
X221291Y37526D01*
X221171Y37427D01*
X221051Y37329D01*
X221040Y37318D01*
X221029Y37307D01*
X220996Y37274D01*
X220952Y37231D01*
X220908Y37176D01*
X220854Y37099D01*
X220745Y36935D01*
X220635Y36739D01*
X220537Y36509D01*
X220460Y36236D01*
X220449Y36094D01*
X220439Y35952D01*
Y35930D01*
Y35886D01*
X220449Y35810D01*
X220460Y35700D01*
X220482Y35580D01*
X220515Y35449D01*
X220559Y35318D01*
X220613Y35176D01*
X220624Y35165D01*
X220646Y35110D01*
X220690Y35045D01*
X220745Y34957D01*
X220821Y34848D01*
X220908Y34738D01*
X221018Y34618D01*
X221149Y34498D01*
X221127Y34487D01*
X221083Y34443D01*
X221007Y34378D01*
X220919Y34290D01*
X220821Y34181D01*
X220723Y34061D01*
X220624Y33930D01*
X220548Y33788D01*
X220537Y33766D01*
X220515Y33722D01*
X220482Y33634D01*
X220439Y33536D01*
X220406Y33405D01*
X220373Y33252D01*
X220351Y33088D01*
X220340Y32913D01*
Y32902D01*
Y32891D01*
Y32826D01*
X220351Y32727D01*
X220373Y32596D01*
X220406Y32443D01*
X220449Y32279D01*
X220515Y32115D01*
X220602Y31940D01*
X220613Y31918D01*
X220646Y31864D01*
X220712Y31787D01*
X220799Y31689D01*
X220908Y31580D01*
X221051Y31470D01*
X221215Y31350D01*
X221411Y31252D01*
X221422D01*
X221433Y31241D01*
X221466Y31230D01*
X221510Y31208D01*
X221619Y31175D01*
X221772Y31132D01*
X221947Y31077D01*
X222154Y31044D01*
X222384Y31011D01*
X222624Y31000D01*
X222734D01*
X222799Y31011D01*
X222865D01*
X223029Y31033D01*
X223215Y31066D01*
X223422Y31110D01*
X223630Y31164D01*
X223838Y31252D01*
X223849D01*
X223860Y31263D01*
X223925Y31295D01*
X224024Y31350D01*
X224133Y31438D01*
X224264Y31536D01*
X224395Y31656D01*
X224515Y31798D01*
X224625Y31951D01*
X224636Y31973D01*
X224668Y32028D01*
X224701Y32115D01*
X224745Y32236D01*
X224800Y32388D01*
X224832Y32541D01*
X224865Y32727D01*
X224876Y32913D01*
Y32924D01*
Y32935D01*
Y32990D01*
X224865Y33088D01*
X224854Y33208D01*
X224832Y33339D01*
X224789Y33481D01*
X224745Y33634D01*
X224679Y33788D01*
X224668Y33809D01*
X224647Y33853D01*
X224592Y33930D01*
X224526Y34028D01*
X224450Y34137D01*
X224341Y34258D01*
X224220Y34378D01*
X224078Y34498D01*
X224089Y34509D01*
X224133Y34553D01*
X224199Y34618D01*
X224275Y34706D01*
X224362Y34804D01*
X224450Y34913D01*
X224526Y35045D01*
X224603Y35176D01*
X224614Y35197D01*
X224625Y35241D01*
X224658Y35318D01*
X224690Y35416D01*
X224723Y35525D01*
X224745Y35657D01*
X224767Y35799D01*
X224778Y35952D01*
Y35963D01*
Y35985D01*
Y36028D01*
X224767Y36083D01*
X224756Y36159D01*
X224745Y36236D01*
X224701Y36422D01*
X224636Y36640D01*
X224526Y36870D01*
X224450Y36990D01*
X224373Y37099D01*
X224286Y37220D01*
X224177Y37329D01*
X224166Y37340D01*
X224144Y37351D01*
X224111Y37383D01*
X224067Y37416D01*
X224002Y37460D01*
X223936Y37515D01*
X223849Y37569D01*
X223750Y37624D01*
X223641Y37668D01*
X223521Y37722D01*
X223258Y37821D01*
X222952Y37886D01*
X222789Y37897D01*
X222614Y37908D01*
D02*
G37*
G36*
X237293Y34585D02*
X232931D01*
Y33634D01*
X237293D01*
Y34585D01*
D02*
G37*
G36*
X241457Y37908D02*
X241359D01*
X241293Y37897D01*
X241206Y37886D01*
X241107Y37875D01*
X241009Y37854D01*
X240889Y37832D01*
X240626Y37766D01*
X240364Y37657D01*
X240222Y37591D01*
X240091Y37504D01*
X239960Y37416D01*
X239839Y37307D01*
X239828Y37296D01*
X239807Y37285D01*
X239785Y37241D01*
X239741Y37198D01*
X239697Y37143D01*
X239643Y37078D01*
X239522Y36903D01*
X239402Y36695D01*
X239304Y36443D01*
X239260Y36312D01*
X239227Y36170D01*
X239216Y36017D01*
X239205Y35864D01*
Y35842D01*
Y35788D01*
X239216Y35711D01*
X239227Y35602D01*
X239249Y35471D01*
X239282Y35340D01*
X239326Y35197D01*
X239391Y35055D01*
X239402Y35034D01*
X239424Y34990D01*
X239479Y34902D01*
X239566Y34793D01*
X239675Y34651D01*
X239828Y34476D01*
X239916Y34378D01*
X240014Y34269D01*
X240134Y34159D01*
X240255Y34039D01*
X240265Y34028D01*
X240277Y34017D01*
X240309Y33984D01*
X240364Y33941D01*
X240429Y33875D01*
X240506Y33799D01*
X240604Y33711D01*
X240714Y33613D01*
X240845Y33492D01*
X240998Y33361D01*
X241173Y33208D01*
X241359Y33033D01*
X241577Y32858D01*
X241807Y32651D01*
X242058Y32432D01*
X242342Y32192D01*
X240069D01*
X240058Y32203D01*
X240036Y32214D01*
X240003Y32236D01*
X239960Y32268D01*
X239839Y32323D01*
X239785Y32334D01*
X239719Y32345D01*
X239675D01*
X239632Y32334D01*
X239577Y32323D01*
X239522Y32301D01*
X239457Y32279D01*
X239391Y32236D01*
X239336Y32181D01*
X239326Y32170D01*
X239315Y32148D01*
X239293Y32115D01*
X239260Y32061D01*
X239238Y31984D01*
X239216Y31886D01*
X239205Y31776D01*
X239194Y31645D01*
Y31153D01*
X243938D01*
Y32257D01*
X243927Y32268D01*
X243905Y32279D01*
X243872Y32312D01*
X243818Y32356D01*
X243752Y32410D01*
X243676Y32476D01*
X243588Y32552D01*
X243490Y32629D01*
X243271Y32815D01*
X243020Y33033D01*
X242747Y33263D01*
X242462Y33503D01*
X241872Y34017D01*
X241588Y34258D01*
X241315Y34498D01*
X241074Y34727D01*
X240856Y34935D01*
X240757Y35023D01*
X240670Y35110D01*
X240604Y35187D01*
X240539Y35252D01*
X240528Y35263D01*
X240495Y35307D01*
X240440Y35372D01*
X240386Y35460D01*
X240342Y35558D01*
X240287Y35667D01*
X240255Y35777D01*
X240244Y35897D01*
Y35919D01*
Y35963D01*
X240265Y36039D01*
X240287Y36127D01*
X240331Y36236D01*
X240386Y36345D01*
X240473Y36465D01*
X240582Y36575D01*
X240593Y36586D01*
X240637Y36618D01*
X240714Y36673D01*
X240812Y36728D01*
X240943Y36771D01*
X241096Y36826D01*
X241271Y36859D01*
X241468Y36870D01*
X241555D01*
X241665Y36848D01*
X241796Y36826D01*
X241938Y36793D01*
X242091Y36728D01*
X242255Y36651D01*
X242397Y36542D01*
X242408Y36531D01*
X242430Y36509D01*
X242462Y36465D01*
X242506Y36411D01*
X242561Y36345D01*
X242605Y36247D01*
X242659Y36148D01*
X242703Y36028D01*
Y36017D01*
X242714Y35995D01*
X242736Y35952D01*
X242758Y35908D01*
X242823Y35810D01*
X242867Y35766D01*
X242911Y35722D01*
X242933Y35711D01*
X242998Y35678D01*
X243086Y35646D01*
X243217Y35635D01*
X243249D01*
X243293Y35646D01*
X243337Y35657D01*
X243457Y35700D01*
X243523Y35733D01*
X243577Y35777D01*
X243588Y35788D01*
X243599Y35810D01*
X243621Y35831D01*
X243654Y35875D01*
X243708Y35995D01*
X243719Y36061D01*
X243730Y36138D01*
Y36148D01*
Y36192D01*
X243719Y36258D01*
X243698Y36345D01*
X243665Y36454D01*
X243610Y36586D01*
X243545Y36728D01*
X243457Y36892D01*
X243446Y36913D01*
X243403Y36968D01*
X243337Y37056D01*
X243249Y37154D01*
X243129Y37274D01*
X242987Y37394D01*
X242823Y37515D01*
X242637Y37624D01*
X242626D01*
X242616Y37635D01*
X242583Y37646D01*
X242539Y37668D01*
X242430Y37711D01*
X242288Y37766D01*
X242113Y37821D01*
X241905Y37864D01*
X241687Y37897D01*
X241457Y37908D01*
D02*
G37*
G36*
X228953D02*
X228855D01*
X228789Y37897D01*
X228702Y37886D01*
X228603Y37875D01*
X228505Y37854D01*
X228385Y37832D01*
X228122Y37766D01*
X227860Y37657D01*
X227718Y37591D01*
X227587Y37504D01*
X227456Y37416D01*
X227335Y37307D01*
X227324Y37296D01*
X227303Y37285D01*
X227281Y37241D01*
X227237Y37198D01*
X227193Y37143D01*
X227139Y37078D01*
X227018Y36903D01*
X226898Y36695D01*
X226800Y36443D01*
X226756Y36312D01*
X226723Y36170D01*
X226712Y36017D01*
X226701Y35864D01*
Y35842D01*
Y35788D01*
X226712Y35711D01*
X226723Y35602D01*
X226745Y35471D01*
X226778Y35340D01*
X226822Y35197D01*
X226887Y35055D01*
X226898Y35034D01*
X226920Y34990D01*
X226975Y34902D01*
X227062Y34793D01*
X227171Y34651D01*
X227324Y34476D01*
X227412Y34378D01*
X227510Y34269D01*
X227630Y34159D01*
X227751Y34039D01*
X227762Y34028D01*
X227773Y34017D01*
X227805Y33984D01*
X227860Y33941D01*
X227926Y33875D01*
X228002Y33799D01*
X228100Y33711D01*
X228210Y33613D01*
X228341Y33492D01*
X228494Y33361D01*
X228669Y33208D01*
X228855Y33033D01*
X229073Y32858D01*
X229303Y32651D01*
X229554Y32432D01*
X229838Y32192D01*
X227565D01*
X227554Y32203D01*
X227532Y32214D01*
X227499Y32236D01*
X227456Y32268D01*
X227335Y32323D01*
X227281Y32334D01*
X227215Y32345D01*
X227171D01*
X227128Y32334D01*
X227073Y32323D01*
X227018Y32301D01*
X226953Y32279D01*
X226887Y32236D01*
X226833Y32181D01*
X226822Y32170D01*
X226811Y32148D01*
X226789Y32115D01*
X226756Y32061D01*
X226734Y31984D01*
X226712Y31886D01*
X226701Y31776D01*
X226691Y31645D01*
Y31153D01*
X231434D01*
Y32257D01*
X231423Y32268D01*
X231401Y32279D01*
X231368Y32312D01*
X231314Y32356D01*
X231248Y32410D01*
X231172Y32476D01*
X231084Y32552D01*
X230986Y32629D01*
X230767Y32815D01*
X230516Y33033D01*
X230243Y33263D01*
X229959Y33503D01*
X229368Y34017D01*
X229084Y34258D01*
X228811Y34498D01*
X228570Y34727D01*
X228352Y34935D01*
X228254Y35023D01*
X228166Y35110D01*
X228100Y35187D01*
X228035Y35252D01*
X228024Y35263D01*
X227991Y35307D01*
X227937Y35372D01*
X227882Y35460D01*
X227838Y35558D01*
X227783Y35667D01*
X227751Y35777D01*
X227740Y35897D01*
Y35919D01*
Y35963D01*
X227762Y36039D01*
X227783Y36127D01*
X227827Y36236D01*
X227882Y36345D01*
X227969Y36465D01*
X228079Y36575D01*
X228089Y36586D01*
X228133Y36618D01*
X228210Y36673D01*
X228308Y36728D01*
X228439Y36771D01*
X228592Y36826D01*
X228767Y36859D01*
X228964Y36870D01*
X229051D01*
X229161Y36848D01*
X229292Y36826D01*
X229434Y36793D01*
X229587Y36728D01*
X229751Y36651D01*
X229893Y36542D01*
X229904Y36531D01*
X229926Y36509D01*
X229959Y36465D01*
X230002Y36411D01*
X230057Y36345D01*
X230101Y36247D01*
X230155Y36148D01*
X230199Y36028D01*
Y36017D01*
X230210Y35995D01*
X230232Y35952D01*
X230254Y35908D01*
X230319Y35810D01*
X230363Y35766D01*
X230407Y35722D01*
X230429Y35711D01*
X230494Y35678D01*
X230582Y35646D01*
X230713Y35635D01*
X230746D01*
X230789Y35646D01*
X230833Y35657D01*
X230953Y35700D01*
X231019Y35733D01*
X231073Y35777D01*
X231084Y35788D01*
X231095Y35810D01*
X231117Y35831D01*
X231150Y35875D01*
X231205Y35995D01*
X231216Y36061D01*
X231226Y36138D01*
Y36148D01*
Y36192D01*
X231216Y36258D01*
X231194Y36345D01*
X231161Y36454D01*
X231106Y36586D01*
X231041Y36728D01*
X230953Y36892D01*
X230942Y36913D01*
X230898Y36968D01*
X230833Y37056D01*
X230746Y37154D01*
X230625Y37274D01*
X230483Y37394D01*
X230319Y37515D01*
X230133Y37624D01*
X230122D01*
X230112Y37635D01*
X230079Y37646D01*
X230035Y37668D01*
X229926Y37711D01*
X229784Y37766D01*
X229609Y37821D01*
X229401Y37864D01*
X229183Y37897D01*
X228953Y37908D01*
D02*
G37*
G36*
X219018Y37318D02*
X217575D01*
X217509Y37307D01*
X217433Y37296D01*
X217247Y37252D01*
X217160Y37220D01*
X217094Y37165D01*
X217083Y37154D01*
X217072Y37143D01*
X217039Y37110D01*
X217006Y37067D01*
X216952Y36946D01*
X216941Y36881D01*
X216930Y36793D01*
Y36782D01*
Y36761D01*
X216941Y36717D01*
X216952Y36662D01*
X216974Y36608D01*
X216996Y36542D01*
X217039Y36476D01*
X217094Y36422D01*
X217105Y36411D01*
X217127Y36400D01*
X217171Y36378D01*
X217225Y36356D01*
X217302Y36323D01*
X217389Y36301D01*
X217509Y36290D01*
X217640Y36280D01*
X217881D01*
X216373Y32673D01*
X214864Y36280D01*
X215170D01*
X215236Y36290D01*
X215323Y36301D01*
X215509Y36345D01*
X215586Y36378D01*
X215662Y36422D01*
X215673Y36433D01*
X215684Y36443D01*
X215706Y36476D01*
X215739Y36520D01*
X215793Y36640D01*
X215804Y36717D01*
X215815Y36793D01*
Y36804D01*
Y36837D01*
X215804Y36870D01*
X215793Y36924D01*
X215750Y37045D01*
X215717Y37110D01*
X215662Y37165D01*
X215651Y37176D01*
X215629Y37187D01*
X215586Y37209D01*
X215531Y37241D01*
X215454Y37274D01*
X215356Y37296D01*
X215236Y37307D01*
X215105Y37318D01*
X213662D01*
X213596Y37307D01*
X213520Y37296D01*
X213334Y37252D01*
X213247Y37220D01*
X213181Y37165D01*
X213170Y37154D01*
X213159Y37143D01*
X213126Y37110D01*
X213094Y37067D01*
X213039Y36946D01*
X213028Y36881D01*
X213017Y36793D01*
Y36782D01*
Y36750D01*
X213028Y36706D01*
X213039Y36651D01*
X213072Y36586D01*
X213105Y36520D01*
X213159Y36443D01*
X213236Y36367D01*
X213258Y36356D01*
X213290Y36345D01*
X213334Y36323D01*
X213400Y36312D01*
X213487Y36290D01*
X213596Y36280D01*
X213727D01*
X215870Y31153D01*
X216864D01*
X219018Y36280D01*
X219149D01*
X219225Y36290D01*
X219302Y36301D01*
X219378Y36312D01*
X219444Y36334D01*
X219498Y36367D01*
X219510Y36378D01*
X219531Y36400D01*
X219564Y36443D01*
X219608Y36498D01*
X219684Y36629D01*
X219706Y36706D01*
X219717Y36793D01*
Y36804D01*
Y36837D01*
X219706Y36870D01*
X219695Y36924D01*
X219673Y36990D01*
X219652Y37045D01*
X219608Y37110D01*
X219553Y37165D01*
X219542Y37176D01*
X219520Y37187D01*
X219488Y37209D01*
X219433Y37241D01*
X219356Y37274D01*
X219258Y37296D01*
X219149Y37307D01*
X219018Y37318D01*
D02*
G37*
G36*
X197551Y37471D02*
X197387D01*
X197278Y37460D01*
X197147Y37449D01*
X197005Y37427D01*
X196710Y37362D01*
X196688D01*
X196644Y37340D01*
X196567Y37318D01*
X196469Y37285D01*
X196360Y37241D01*
X196229Y37187D01*
X195966Y37045D01*
Y37056D01*
X195955Y37067D01*
X195912Y37121D01*
X195846Y37187D01*
X195770Y37241D01*
X195759D01*
X195748Y37252D01*
X195693Y37285D01*
X195616Y37307D01*
X195518Y37318D01*
X195474D01*
X195442Y37307D01*
X195387Y37296D01*
X195321Y37274D01*
X195267Y37252D01*
X195201Y37209D01*
X195147Y37154D01*
X195136Y37143D01*
X195125Y37121D01*
X195103Y37088D01*
X195070Y37034D01*
X195037Y36957D01*
X195015Y36859D01*
X195004Y36750D01*
X194993Y36618D01*
Y35733D01*
Y35722D01*
Y35667D01*
X195004Y35602D01*
X195015Y35525D01*
X195059Y35350D01*
X195092Y35263D01*
X195147Y35197D01*
X195157Y35187D01*
X195168Y35176D01*
X195201Y35154D01*
X195245Y35121D01*
X195365Y35066D01*
X195431Y35055D01*
X195518Y35045D01*
X195551D01*
X195595Y35055D01*
X195638D01*
X195748Y35088D01*
X195846Y35154D01*
Y35165D01*
X195868Y35176D01*
X195890Y35208D01*
X195923Y35252D01*
X195944Y35318D01*
X195977Y35394D01*
X196010Y35482D01*
X196032Y35591D01*
Y35602D01*
X196043Y35624D01*
X196054Y35667D01*
X196065Y35711D01*
X196119Y35820D01*
X196185Y35919D01*
X196196Y35930D01*
X196218Y35963D01*
X196272Y35995D01*
X196338Y36050D01*
X196414Y36116D01*
X196513Y36170D01*
X196633Y36236D01*
X196764Y36290D01*
X196775Y36301D01*
X196830Y36312D01*
X196906Y36334D01*
X196994Y36367D01*
X197114Y36389D01*
X197234Y36411D01*
X197376Y36422D01*
X197518Y36433D01*
X197595D01*
X197682Y36422D01*
X197802Y36411D01*
X197934Y36378D01*
X198076Y36345D01*
X198229Y36290D01*
X198382Y36225D01*
X198404Y36214D01*
X198447Y36181D01*
X198524Y36138D01*
X198611Y36061D01*
X198721Y35974D01*
X198830Y35853D01*
X198950Y35722D01*
X199070Y35558D01*
X199081Y35536D01*
X199114Y35482D01*
X199169Y35383D01*
X199213Y35252D01*
X199267Y35088D01*
X199322Y34902D01*
X199355Y34695D01*
X199365Y34465D01*
Y33788D01*
Y33777D01*
Y33755D01*
Y33711D01*
X199355Y33667D01*
X199344Y33602D01*
X199333Y33525D01*
X199300Y33350D01*
X199234Y33154D01*
X199136Y32935D01*
X199070Y32837D01*
X198994Y32727D01*
X198917Y32629D01*
X198819Y32531D01*
X198808D01*
X198797Y32509D01*
X198764Y32487D01*
X198721Y32454D01*
X198666Y32410D01*
X198590Y32367D01*
X198513Y32323D01*
X198425Y32279D01*
X198316Y32236D01*
X198207Y32192D01*
X198087Y32148D01*
X197945Y32104D01*
X197639Y32050D01*
X197475Y32039D01*
X197300Y32028D01*
X197201D01*
X197092Y32039D01*
X196961Y32050D01*
X196808Y32061D01*
X196644Y32093D01*
X196469Y32126D01*
X196316Y32181D01*
X196305D01*
X196272Y32203D01*
X196229Y32225D01*
X196163Y32268D01*
X196097Y32312D01*
X196010Y32378D01*
X195923Y32454D01*
X195824Y32552D01*
X195813Y32563D01*
X195791Y32574D01*
X195726Y32640D01*
X195649Y32706D01*
X195606Y32738D01*
X195573Y32760D01*
X195551Y32771D01*
X195507Y32793D01*
X195442Y32804D01*
X195354Y32815D01*
X195321D01*
X195278Y32804D01*
X195234Y32793D01*
X195179Y32771D01*
X195114Y32749D01*
X195048Y32706D01*
X194993Y32651D01*
X194983Y32640D01*
X194972Y32629D01*
X194939Y32596D01*
X194906Y32552D01*
X194851Y32432D01*
X194841Y32356D01*
X194829Y32279D01*
Y32268D01*
Y32246D01*
X194841Y32203D01*
X194851Y32137D01*
X194884Y32072D01*
X194917Y31995D01*
X194972Y31908D01*
X195048Y31820D01*
X195059Y31809D01*
X195103Y31765D01*
X195168Y31700D01*
X195267Y31613D01*
X195376Y31525D01*
X195518Y31438D01*
X195671Y31339D01*
X195846Y31263D01*
X195857D01*
X195879Y31252D01*
X195912Y31241D01*
X195955Y31219D01*
X196021Y31197D01*
X196097Y31175D01*
X196272Y31132D01*
X196491Y31077D01*
X196731Y31033D01*
X197005Y31000D01*
X197300Y30990D01*
X197387D01*
X197453Y31000D01*
X197540D01*
X197628Y31011D01*
X197737Y31022D01*
X197846Y31033D01*
X198108Y31077D01*
X198393Y31143D01*
X198677Y31241D01*
X198961Y31361D01*
X198972D01*
X198983Y31372D01*
X199016Y31394D01*
X199059Y31416D01*
X199169Y31492D01*
X199311Y31602D01*
X199475Y31733D01*
X199650Y31897D01*
X199825Y32093D01*
X199988Y32323D01*
Y32334D01*
X200010Y32356D01*
X200021Y32388D01*
X200054Y32443D01*
X200087Y32498D01*
X200120Y32574D01*
X200196Y32749D01*
X200273Y32968D01*
X200338Y33208D01*
X200382Y33481D01*
X200404Y33766D01*
Y34476D01*
Y34487D01*
Y34509D01*
Y34553D01*
X200393Y34618D01*
Y34684D01*
X200382Y34771D01*
X200371Y34870D01*
X200360Y34979D01*
X200316Y35208D01*
X200251Y35460D01*
X200152Y35733D01*
X200032Y35995D01*
Y36006D01*
X200010Y36028D01*
X199988Y36061D01*
X199967Y36116D01*
X199879Y36236D01*
X199759Y36400D01*
X199606Y36575D01*
X199431Y36761D01*
X199223Y36935D01*
X198983Y37088D01*
X198972D01*
X198950Y37110D01*
X198917Y37121D01*
X198863Y37154D01*
X198797Y37176D01*
X198732Y37209D01*
X198546Y37285D01*
X198338Y37351D01*
X198098Y37416D01*
X197824Y37460D01*
X197551Y37471D01*
D02*
G37*
G36*
X247097Y37908D02*
Y32192D01*
X245982D01*
X245916Y32181D01*
X245840Y32170D01*
X245654Y32126D01*
X245567Y32093D01*
X245501Y32039D01*
X245490Y32028D01*
X245479Y32017D01*
X245446Y31984D01*
X245414Y31940D01*
X245359Y31820D01*
X245348Y31755D01*
X245337Y31667D01*
Y31656D01*
Y31634D01*
X245348Y31591D01*
X245359Y31536D01*
X245381Y31481D01*
X245403Y31416D01*
X245446Y31350D01*
X245501Y31295D01*
X245512Y31285D01*
X245534Y31274D01*
X245578Y31252D01*
X245632Y31230D01*
X245709Y31197D01*
X245796Y31175D01*
X245916Y31164D01*
X246047Y31153D01*
X249250D01*
X249316Y31164D01*
X249403Y31175D01*
X249589Y31219D01*
X249665Y31252D01*
X249742Y31295D01*
X249753Y31306D01*
X249764Y31317D01*
X249786Y31350D01*
X249818Y31394D01*
X249873Y31514D01*
X249884Y31591D01*
X249895Y31667D01*
Y31678D01*
Y31711D01*
X249884Y31744D01*
X249873Y31798D01*
X249829Y31918D01*
X249797Y31984D01*
X249742Y32039D01*
X249731Y32050D01*
X249709Y32061D01*
X249665Y32083D01*
X249611Y32115D01*
X249534Y32148D01*
X249436Y32170D01*
X249316Y32181D01*
X249184Y32192D01*
X248135D01*
Y36542D01*
X249075Y36301D01*
X249086D01*
X249108Y36290D01*
X249152Y36280D01*
X249195D01*
X249305Y36258D01*
X249414Y36247D01*
X249447D01*
X249480Y36258D01*
X249534Y36269D01*
X249643Y36312D01*
X249698Y36345D01*
X249753Y36400D01*
X249764Y36411D01*
X249775Y36433D01*
X249797Y36465D01*
X249818Y36509D01*
X249873Y36629D01*
X249884Y36695D01*
X249895Y36782D01*
Y36793D01*
Y36815D01*
X249884Y36859D01*
Y36903D01*
X249851Y37012D01*
X249797Y37110D01*
X249786Y37121D01*
X249775Y37132D01*
X249742Y37154D01*
X249698Y37187D01*
X249643Y37220D01*
X249556Y37252D01*
X249469Y37296D01*
X249348Y37329D01*
X247097Y37908D01*
D02*
G37*
G36*
X49972Y25791D02*
X49929D01*
X49852Y25780D01*
X49775Y25769D01*
X49655Y25715D01*
X49612Y25682D01*
X49579Y25649D01*
X49568Y25638D01*
X49557Y25627D01*
X49513Y25562D01*
X49480Y25474D01*
X49437Y25299D01*
X49426Y25223D01*
X49415Y25157D01*
Y25114D01*
Y25092D01*
Y23354D01*
X47918D01*
X47786Y23343D01*
X47677Y23332D01*
X47590Y23310D01*
X47513Y23288D01*
X47458Y23256D01*
X47415Y23234D01*
X47393Y23223D01*
X47382Y23212D01*
X47327Y23157D01*
X47294Y23091D01*
X47251Y22971D01*
X47240Y22917D01*
X47229Y22873D01*
Y22840D01*
Y22829D01*
X47240Y22753D01*
X47251Y22676D01*
X47305Y22556D01*
X47338Y22512D01*
X47360Y22479D01*
X47371Y22468D01*
X47382Y22458D01*
X47447Y22414D01*
X47535Y22381D01*
X47710Y22337D01*
X47786Y22326D01*
X47852Y22316D01*
X49415D01*
Y20567D01*
X49426Y20436D01*
X49437Y20326D01*
X49459Y20239D01*
X49491Y20162D01*
X49513Y20108D01*
X49535Y20064D01*
X49546Y20042D01*
X49557Y20031D01*
X49612Y19976D01*
X49677Y19944D01*
X49797Y19900D01*
X49852Y19889D01*
X49896Y19878D01*
X49929D01*
X50016Y19889D01*
X50082Y19900D01*
X50202Y19955D01*
X50245Y19987D01*
X50278Y20009D01*
X50289Y20020D01*
X50300Y20031D01*
X50344Y20097D01*
X50388Y20184D01*
X50420Y20359D01*
X50431Y20436D01*
X50442Y20501D01*
Y20556D01*
Y20567D01*
Y22316D01*
X51929D01*
X52060Y22326D01*
X52169Y22337D01*
X52257Y22359D01*
X52333Y22392D01*
X52388Y22414D01*
X52431Y22436D01*
X52453Y22447D01*
X52464Y22458D01*
X52519Y22512D01*
X52563Y22578D01*
X52585Y22643D01*
X52606Y22698D01*
X52617Y22753D01*
X52628Y22796D01*
Y22818D01*
Y22829D01*
X52617Y22917D01*
X52606Y22993D01*
X52574Y23059D01*
X52552Y23113D01*
X52519Y23157D01*
X52486Y23190D01*
X52475Y23201D01*
X52464Y23212D01*
X52399Y23256D01*
X52311Y23299D01*
X52136Y23332D01*
X52060Y23343D01*
X51994Y23354D01*
X50442D01*
X50453Y25092D01*
X50442Y25223D01*
X50431Y25332D01*
X50410Y25420D01*
X50377Y25496D01*
X50344Y25551D01*
X50322Y25594D01*
X50311Y25616D01*
X50300Y25627D01*
X50245Y25682D01*
X50180Y25726D01*
X50125Y25747D01*
X50060Y25769D01*
X50005Y25780D01*
X49972Y25791D01*
D02*
G37*
G36*
X138204Y23310D02*
X133843D01*
Y22359D01*
X138204D01*
Y23310D01*
D02*
G37*
G36*
X154796Y25791D02*
X154752D01*
X154719Y25780D01*
X154665Y25769D01*
X154599Y25747D01*
X154544Y25726D01*
X154479Y25682D01*
X154424Y25627D01*
X154413Y25616D01*
X154402Y25594D01*
X154381Y25551D01*
X154348Y25496D01*
X154315Y25420D01*
X154293Y25332D01*
X154282Y25223D01*
X154271Y25092D01*
X154282Y23354D01*
X152730D01*
X152664Y23343D01*
X152588Y23332D01*
X152413Y23299D01*
X152326Y23256D01*
X152260Y23212D01*
X152249Y23201D01*
X152238Y23190D01*
X152205Y23157D01*
X152173Y23113D01*
X152151Y23059D01*
X152118Y22993D01*
X152107Y22917D01*
X152096Y22829D01*
Y22818D01*
Y22796D01*
X152107Y22753D01*
X152118Y22698D01*
X152140Y22643D01*
X152162Y22578D01*
X152205Y22512D01*
X152260Y22458D01*
X152271Y22447D01*
X152293Y22436D01*
X152337Y22414D01*
X152391Y22392D01*
X152468Y22359D01*
X152555Y22337D01*
X152664Y22326D01*
X152796Y22316D01*
X154282D01*
Y20567D01*
Y20556D01*
Y20501D01*
X154293Y20436D01*
X154304Y20359D01*
X154337Y20184D01*
X154381Y20097D01*
X154424Y20031D01*
X154435Y20020D01*
X154446Y20009D01*
X154479Y19987D01*
X154523Y19955D01*
X154643Y19900D01*
X154708Y19889D01*
X154796Y19878D01*
X154829D01*
X154872Y19889D01*
X154927Y19900D01*
X155047Y19944D01*
X155113Y19976D01*
X155167Y20031D01*
X155178Y20042D01*
X155189Y20064D01*
X155211Y20108D01*
X155233Y20162D01*
X155266Y20239D01*
X155288Y20326D01*
X155299Y20436D01*
X155309Y20567D01*
Y22316D01*
X156872D01*
X156938Y22326D01*
X157015Y22337D01*
X157190Y22381D01*
X157277Y22414D01*
X157343Y22458D01*
X157353Y22468D01*
X157364Y22479D01*
X157386Y22512D01*
X157419Y22556D01*
X157474Y22676D01*
X157485Y22753D01*
X157496Y22829D01*
Y22840D01*
Y22873D01*
X157485Y22917D01*
X157474Y22971D01*
X157430Y23091D01*
X157397Y23157D01*
X157343Y23212D01*
X157332Y23223D01*
X157310Y23234D01*
X157266Y23256D01*
X157211Y23288D01*
X157135Y23310D01*
X157047Y23332D01*
X156938Y23343D01*
X156807Y23354D01*
X155309D01*
Y25092D01*
Y25114D01*
Y25157D01*
X155299Y25223D01*
X155288Y25299D01*
X155244Y25474D01*
X155211Y25562D01*
X155167Y25627D01*
X155157Y25638D01*
X155146Y25649D01*
X155113Y25682D01*
X155069Y25715D01*
X154949Y25769D01*
X154872Y25780D01*
X154796Y25791D01*
D02*
G37*
G36*
X70881Y23310D02*
X66520D01*
Y22359D01*
X70881D01*
Y23310D01*
D02*
G37*
G36*
X68406Y7823D02*
X68242D01*
X68133Y7812D01*
X68001Y7801D01*
X67859Y7779D01*
X67564Y7714D01*
X67542D01*
X67498Y7692D01*
X67422Y7670D01*
X67324Y7637D01*
X67214Y7593D01*
X67083Y7539D01*
X66821Y7397D01*
Y7408D01*
X66810Y7419D01*
X66766Y7473D01*
X66701Y7539D01*
X66624Y7593D01*
X66613D01*
X66602Y7604D01*
X66548Y7637D01*
X66471Y7659D01*
X66373Y7670D01*
X66329D01*
X66296Y7659D01*
X66242Y7648D01*
X66176Y7626D01*
X66121Y7604D01*
X66056Y7561D01*
X66001Y7506D01*
X65990Y7495D01*
X65979Y7473D01*
X65957Y7440D01*
X65925Y7386D01*
X65892Y7309D01*
X65870Y7211D01*
X65859Y7102D01*
X65848Y6971D01*
Y6085D01*
Y6074D01*
Y6020D01*
X65859Y5954D01*
X65870Y5878D01*
X65914Y5703D01*
X65947Y5615D01*
X66001Y5550D01*
X66012Y5539D01*
X66023Y5528D01*
X66056Y5506D01*
X66100Y5473D01*
X66220Y5418D01*
X66285Y5407D01*
X66373Y5397D01*
X66405D01*
X66449Y5407D01*
X66493D01*
X66602Y5440D01*
X66701Y5506D01*
Y5517D01*
X66723Y5528D01*
X66744Y5561D01*
X66777Y5604D01*
X66799Y5670D01*
X66832Y5746D01*
X66865Y5834D01*
X66887Y5943D01*
Y5954D01*
X66897Y5976D01*
X66908Y6020D01*
X66919Y6063D01*
X66974Y6173D01*
X67040Y6271D01*
X67050Y6282D01*
X67072Y6315D01*
X67127Y6347D01*
X67193Y6402D01*
X67269Y6468D01*
X67367Y6522D01*
X67488Y6588D01*
X67619Y6643D01*
X67630Y6654D01*
X67684Y6664D01*
X67761Y6686D01*
X67848Y6719D01*
X67968Y6741D01*
X68089Y6763D01*
X68231Y6774D01*
X68373Y6785D01*
X68449D01*
X68537Y6774D01*
X68657Y6763D01*
X68788Y6730D01*
X68930Y6697D01*
X69083Y6643D01*
X69236Y6577D01*
X69258Y6566D01*
X69302Y6533D01*
X69379Y6490D01*
X69466Y6413D01*
X69575Y6326D01*
X69684Y6205D01*
X69805Y6074D01*
X69925Y5910D01*
X69936Y5889D01*
X69969Y5834D01*
X70023Y5735D01*
X70067Y5604D01*
X70122Y5440D01*
X70176Y5254D01*
X70209Y5047D01*
X70220Y4817D01*
Y4140D01*
Y4129D01*
Y4107D01*
Y4063D01*
X70209Y4019D01*
X70198Y3954D01*
X70187Y3877D01*
X70155Y3703D01*
X70089Y3506D01*
X69991Y3287D01*
X69925Y3189D01*
X69849Y3079D01*
X69772Y2981D01*
X69674Y2883D01*
X69663D01*
X69652Y2861D01*
X69619Y2839D01*
X69575Y2806D01*
X69521Y2763D01*
X69444Y2719D01*
X69368Y2675D01*
X69280Y2631D01*
X69171Y2588D01*
X69061Y2544D01*
X68941Y2500D01*
X68799Y2456D01*
X68493Y2402D01*
X68329Y2391D01*
X68154Y2380D01*
X68056D01*
X67947Y2391D01*
X67816Y2402D01*
X67663Y2413D01*
X67498Y2445D01*
X67324Y2478D01*
X67171Y2533D01*
X67160D01*
X67127Y2555D01*
X67083Y2577D01*
X67018Y2620D01*
X66952Y2664D01*
X66865Y2730D01*
X66777Y2806D01*
X66679Y2905D01*
X66668Y2915D01*
X66646Y2926D01*
X66580Y2992D01*
X66504Y3058D01*
X66460Y3090D01*
X66427Y3112D01*
X66405Y3123D01*
X66362Y3145D01*
X66296Y3156D01*
X66209Y3167D01*
X66176D01*
X66132Y3156D01*
X66089Y3145D01*
X66034Y3123D01*
X65968Y3101D01*
X65903Y3058D01*
X65848Y3003D01*
X65837Y2992D01*
X65826Y2981D01*
X65794Y2948D01*
X65761Y2905D01*
X65706Y2784D01*
X65695Y2708D01*
X65684Y2631D01*
Y2620D01*
Y2599D01*
X65695Y2555D01*
X65706Y2489D01*
X65739Y2424D01*
X65772Y2347D01*
X65826Y2260D01*
X65903Y2172D01*
X65914Y2161D01*
X65957Y2118D01*
X66023Y2052D01*
X66121Y1965D01*
X66231Y1877D01*
X66373Y1790D01*
X66526Y1691D01*
X66701Y1615D01*
X66712D01*
X66733Y1604D01*
X66766Y1593D01*
X66810Y1571D01*
X66875Y1549D01*
X66952Y1527D01*
X67127Y1484D01*
X67345Y1429D01*
X67586Y1385D01*
X67859Y1352D01*
X68154Y1342D01*
X68242D01*
X68307Y1352D01*
X68395D01*
X68482Y1363D01*
X68591Y1374D01*
X68701Y1385D01*
X68963Y1429D01*
X69247Y1495D01*
X69532Y1593D01*
X69816Y1713D01*
X69827D01*
X69838Y1724D01*
X69870Y1746D01*
X69914Y1768D01*
X70023Y1844D01*
X70165Y1954D01*
X70329Y2085D01*
X70504Y2249D01*
X70679Y2445D01*
X70843Y2675D01*
Y2686D01*
X70865Y2708D01*
X70876Y2741D01*
X70909Y2795D01*
X70942Y2850D01*
X70974Y2926D01*
X71051Y3101D01*
X71127Y3320D01*
X71193Y3560D01*
X71237Y3834D01*
X71258Y4118D01*
Y4828D01*
Y4839D01*
Y4861D01*
Y4905D01*
X71248Y4970D01*
Y5036D01*
X71237Y5123D01*
X71226Y5222D01*
X71215Y5331D01*
X71171Y5561D01*
X71105Y5812D01*
X71007Y6085D01*
X70887Y6347D01*
Y6358D01*
X70865Y6380D01*
X70843Y6413D01*
X70821Y6468D01*
X70734Y6588D01*
X70614Y6752D01*
X70461Y6927D01*
X70286Y7113D01*
X70078Y7288D01*
X69838Y7440D01*
X69827D01*
X69805Y7462D01*
X69772Y7473D01*
X69717Y7506D01*
X69652Y7528D01*
X69586Y7561D01*
X69400Y7637D01*
X69193Y7703D01*
X68952Y7768D01*
X68679Y7812D01*
X68406Y7823D01*
D02*
G37*
G36*
X64504Y8107D02*
X63291D01*
Y5878D01*
X63280Y5889D01*
X63236Y5910D01*
X63170Y5943D01*
X63094Y5987D01*
X62995Y6031D01*
X62886Y6074D01*
X62646Y6162D01*
X62635D01*
X62591Y6173D01*
X62515Y6194D01*
X62427Y6216D01*
X62329Y6227D01*
X62208Y6249D01*
X61957Y6260D01*
X61870D01*
X61760Y6249D01*
X61640Y6238D01*
X61487Y6216D01*
X61323Y6184D01*
X61159Y6140D01*
X60995Y6074D01*
X60973Y6063D01*
X60919Y6041D01*
X60842Y5998D01*
X60744Y5932D01*
X60634Y5856D01*
X60525Y5757D01*
X60405Y5637D01*
X60296Y5495D01*
X60285Y5473D01*
X60252Y5429D01*
X60208Y5342D01*
X60154Y5222D01*
X60099Y5080D01*
X60055Y4905D01*
X60022Y4719D01*
X60012Y4500D01*
Y2544D01*
X59880D01*
X59804Y2533D01*
X59640Y2500D01*
X59574Y2478D01*
X59520Y2445D01*
X59509Y2435D01*
X59487Y2413D01*
X59454Y2369D01*
X59410Y2314D01*
X59334Y2183D01*
X59312Y2107D01*
X59301Y2019D01*
Y2008D01*
Y1986D01*
X59312Y1943D01*
X59323Y1888D01*
X59345Y1833D01*
X59367Y1768D01*
X59410Y1702D01*
X59465Y1648D01*
X59476Y1637D01*
X59498Y1626D01*
X59541Y1604D01*
X59596Y1582D01*
X59673Y1549D01*
X59760Y1527D01*
X59880Y1517D01*
X60012Y1505D01*
X61115D01*
X61181Y1517D01*
X61268Y1527D01*
X61454Y1571D01*
X61531Y1604D01*
X61607Y1648D01*
X61618Y1658D01*
X61629Y1670D01*
X61651Y1702D01*
X61684Y1746D01*
X61738Y1866D01*
X61749Y1943D01*
X61760Y2019D01*
Y2030D01*
Y2063D01*
X61749Y2107D01*
X61738Y2161D01*
X61706Y2227D01*
X61673Y2293D01*
X61618Y2369D01*
X61553Y2445D01*
X61542D01*
X61531Y2456D01*
X61498Y2478D01*
X61443Y2500D01*
X61378Y2511D01*
X61290Y2533D01*
X61181Y2544D01*
X61050D01*
Y4435D01*
Y4457D01*
Y4500D01*
X61061Y4566D01*
X61072Y4653D01*
X61094Y4752D01*
X61126Y4839D01*
X61170Y4927D01*
X61236Y4992D01*
X61247Y5003D01*
X61279Y5025D01*
X61334Y5069D01*
X61410Y5112D01*
X61520Y5145D01*
X61640Y5189D01*
X61782Y5211D01*
X61957Y5222D01*
X62012D01*
X62077Y5211D01*
X62165Y5200D01*
X62252Y5189D01*
X62361Y5167D01*
X62460Y5123D01*
X62569Y5080D01*
X62580Y5069D01*
X62624Y5058D01*
X62678Y5014D01*
X62766Y4959D01*
X62864Y4883D01*
X62985Y4784D01*
X63126Y4653D01*
X63291Y4500D01*
Y2544D01*
X63159D01*
X63083Y2533D01*
X62919Y2500D01*
X62853Y2478D01*
X62799Y2445D01*
X62788Y2435D01*
X62766Y2413D01*
X62733Y2369D01*
X62689Y2314D01*
X62613Y2183D01*
X62591Y2107D01*
X62580Y2019D01*
Y2008D01*
Y1986D01*
X62591Y1943D01*
X62602Y1888D01*
X62624Y1833D01*
X62646Y1768D01*
X62689Y1702D01*
X62744Y1648D01*
X62755Y1637D01*
X62777Y1626D01*
X62821Y1604D01*
X62875Y1582D01*
X62952Y1549D01*
X63039Y1527D01*
X63159Y1517D01*
X63291Y1505D01*
X64394D01*
X64460Y1517D01*
X64547Y1527D01*
X64733Y1571D01*
X64810Y1604D01*
X64886Y1648D01*
X64897Y1658D01*
X64908Y1670D01*
X64930Y1702D01*
X64963Y1746D01*
X65017Y1866D01*
X65028Y1943D01*
X65039Y2019D01*
Y2030D01*
Y2063D01*
X65028Y2107D01*
X65017Y2161D01*
X64985Y2227D01*
X64952Y2293D01*
X64897Y2369D01*
X64832Y2445D01*
X64821D01*
X64810Y2456D01*
X64777Y2478D01*
X64722Y2500D01*
X64657Y2511D01*
X64569Y2533D01*
X64460Y2544D01*
X64329D01*
Y7069D01*
X64569D01*
X64635Y7080D01*
X64722Y7091D01*
X64908Y7135D01*
X64985Y7167D01*
X65061Y7211D01*
X65072Y7222D01*
X65083Y7233D01*
X65105Y7266D01*
X65138Y7309D01*
X65192Y7430D01*
X65203Y7506D01*
X65214Y7583D01*
Y7593D01*
Y7626D01*
X65203Y7659D01*
X65192Y7714D01*
X65149Y7834D01*
X65116Y7900D01*
X65061Y7954D01*
X65050Y7965D01*
X65028Y7976D01*
X64985Y7998D01*
X64930Y8031D01*
X64854Y8063D01*
X64755Y8085D01*
X64635Y8096D01*
X64504Y8107D01*
D02*
G37*
G36*
X52000Y7670D02*
X49300D01*
X49235Y7659D01*
X49147D01*
X49060Y7648D01*
X48841Y7604D01*
X48601Y7539D01*
X48349Y7451D01*
X48109Y7320D01*
X47989Y7233D01*
X47879Y7145D01*
X47868Y7135D01*
X47857Y7124D01*
X47824Y7091D01*
X47792Y7058D01*
X47693Y6938D01*
X47584Y6796D01*
X47486Y6610D01*
X47387Y6402D01*
X47322Y6162D01*
X47311Y6031D01*
X47300Y5899D01*
Y5889D01*
Y5845D01*
X47311Y5779D01*
X47322Y5692D01*
X47333Y5593D01*
X47355Y5484D01*
X47398Y5375D01*
X47442Y5254D01*
X47453Y5244D01*
X47464Y5200D01*
X47497Y5145D01*
X47540Y5080D01*
X47595Y4992D01*
X47661Y4905D01*
X47748Y4806D01*
X47835Y4708D01*
X47824D01*
X47814Y4697D01*
X47759Y4653D01*
X47671Y4599D01*
X47562Y4511D01*
X47442Y4413D01*
X47322Y4293D01*
X47201Y4162D01*
X47103Y4019D01*
X47092Y3998D01*
X47059Y3954D01*
X47027Y3866D01*
X46972Y3757D01*
X46928Y3626D01*
X46896Y3473D01*
X46863Y3309D01*
X46852Y3123D01*
Y3101D01*
Y3058D01*
X46863Y2981D01*
X46874Y2883D01*
X46896Y2773D01*
X46928Y2653D01*
X46972Y2522D01*
X47038Y2391D01*
X47049Y2380D01*
X47059Y2347D01*
X47092Y2303D01*
X47125Y2249D01*
X47234Y2118D01*
X47365Y1986D01*
X47376Y1976D01*
X47409Y1954D01*
X47464Y1910D01*
X47540Y1866D01*
X47628Y1801D01*
X47737Y1746D01*
X47857Y1691D01*
X47999Y1637D01*
X48021D01*
X48065Y1615D01*
X48142Y1593D01*
X48251Y1571D01*
X48393Y1549D01*
X48557Y1527D01*
X48732Y1517D01*
X48939Y1505D01*
X52065D01*
X52131Y1517D01*
X52218Y1527D01*
X52404Y1571D01*
X52481Y1604D01*
X52557Y1648D01*
X52568Y1658D01*
X52579Y1670D01*
X52601Y1702D01*
X52634Y1746D01*
X52688Y1866D01*
X52699Y1943D01*
X52710Y2019D01*
Y2030D01*
Y2063D01*
X52699Y2096D01*
X52688Y2150D01*
X52645Y2271D01*
X52612Y2336D01*
X52557Y2391D01*
X52546Y2402D01*
X52524Y2413D01*
X52481Y2435D01*
X52426Y2467D01*
X52350Y2500D01*
X52251Y2522D01*
X52131Y2533D01*
X52000Y2544D01*
X51836D01*
Y6632D01*
X52065D01*
X52131Y6643D01*
X52218Y6654D01*
X52404Y6697D01*
X52481Y6730D01*
X52557Y6774D01*
X52568Y6785D01*
X52579Y6796D01*
X52601Y6828D01*
X52634Y6872D01*
X52688Y6992D01*
X52699Y7069D01*
X52710Y7145D01*
Y7156D01*
Y7189D01*
X52699Y7222D01*
X52688Y7277D01*
X52645Y7397D01*
X52612Y7462D01*
X52557Y7517D01*
X52546Y7528D01*
X52524Y7539D01*
X52481Y7561D01*
X52426Y7593D01*
X52350Y7626D01*
X52251Y7648D01*
X52131Y7659D01*
X52000Y7670D01*
D02*
G37*
G36*
X216551Y23310D02*
X212190D01*
Y22359D01*
X216551D01*
Y23310D01*
D02*
G37*
G36*
X138242Y7670D02*
X136013D01*
X133925Y2544D01*
X133794D01*
X133717Y2533D01*
X133553Y2500D01*
X133488Y2478D01*
X133433Y2445D01*
X133422Y2435D01*
X133400Y2413D01*
X133368Y2369D01*
X133324Y2314D01*
X133247Y2183D01*
X133226Y2107D01*
X133215Y2019D01*
Y2008D01*
Y1986D01*
X133226Y1943D01*
X133236Y1888D01*
X133258Y1833D01*
X133280Y1768D01*
X133324Y1702D01*
X133379Y1648D01*
X133389Y1637D01*
X133411Y1626D01*
X133455Y1604D01*
X133510Y1582D01*
X133586Y1549D01*
X133674Y1527D01*
X133794Y1517D01*
X133925Y1505D01*
X135368D01*
X135433Y1517D01*
X135510Y1527D01*
X135696Y1571D01*
X135783Y1604D01*
X135849Y1648D01*
X135860Y1658D01*
X135871Y1670D01*
X135892Y1702D01*
X135925Y1746D01*
X135980Y1866D01*
X135991Y1943D01*
X136002Y2019D01*
Y2030D01*
Y2063D01*
X135991Y2096D01*
X135980Y2150D01*
X135936Y2271D01*
X135903Y2336D01*
X135849Y2391D01*
X135838Y2402D01*
X135816Y2413D01*
X135772Y2435D01*
X135717Y2467D01*
X135641Y2500D01*
X135554Y2522D01*
X135433Y2533D01*
X135302Y2544D01*
X135051D01*
X135313Y3189D01*
X137827D01*
X138089Y2544D01*
X137772D01*
X137707Y2533D01*
X137630Y2522D01*
X137444Y2478D01*
X137357Y2445D01*
X137291Y2391D01*
X137280Y2380D01*
X137270Y2369D01*
X137237Y2336D01*
X137204Y2293D01*
X137149Y2172D01*
X137138Y2107D01*
X137127Y2019D01*
Y2008D01*
Y1986D01*
X137138Y1943D01*
X137149Y1888D01*
X137171Y1833D01*
X137193Y1768D01*
X137237Y1702D01*
X137291Y1648D01*
X137302Y1637D01*
X137324Y1626D01*
X137368Y1604D01*
X137423Y1582D01*
X137499Y1549D01*
X137587Y1527D01*
X137707Y1517D01*
X137838Y1505D01*
X139281D01*
X139346Y1517D01*
X139423Y1527D01*
X139598Y1571D01*
X139685Y1604D01*
X139751Y1648D01*
X139762Y1658D01*
X139773Y1670D01*
X139805Y1702D01*
X139827Y1746D01*
X139893Y1866D01*
X139904Y1943D01*
X139915Y2019D01*
Y2030D01*
Y2063D01*
X139904Y2096D01*
X139893Y2150D01*
X139871Y2216D01*
X139849Y2271D01*
X139805Y2336D01*
X139751Y2391D01*
X139740Y2402D01*
X139718Y2413D01*
X139685Y2435D01*
X139630Y2467D01*
X139554Y2500D01*
X139456Y2522D01*
X139346Y2533D01*
X139215Y2544D01*
X137565Y6632D01*
X138308D01*
X138373Y6643D01*
X138450Y6654D01*
X138636Y6697D01*
X138723Y6730D01*
X138789Y6774D01*
X138800Y6785D01*
X138811Y6796D01*
X138833Y6828D01*
X138865Y6872D01*
X138920Y6992D01*
X138931Y7069D01*
X138942Y7145D01*
Y7156D01*
Y7189D01*
X138931Y7222D01*
X138920Y7277D01*
X138876Y7397D01*
X138844Y7462D01*
X138789Y7517D01*
X138778Y7528D01*
X138756Y7539D01*
X138712Y7561D01*
X138658Y7593D01*
X138581Y7626D01*
X138494Y7648D01*
X138373Y7659D01*
X138242Y7670D01*
D02*
G37*
G36*
X155271Y7823D02*
X155107D01*
X154998Y7812D01*
X154867Y7801D01*
X154725Y7779D01*
X154430Y7714D01*
X154408D01*
X154364Y7692D01*
X154288Y7670D01*
X154189Y7637D01*
X154080Y7593D01*
X153949Y7539D01*
X153686Y7397D01*
Y7408D01*
X153675Y7419D01*
X153632Y7473D01*
X153566Y7539D01*
X153490Y7593D01*
X153479D01*
X153468Y7604D01*
X153413Y7637D01*
X153337Y7659D01*
X153238Y7670D01*
X153195D01*
X153162Y7659D01*
X153107Y7648D01*
X153042Y7626D01*
X152987Y7604D01*
X152921Y7561D01*
X152867Y7506D01*
X152856Y7495D01*
X152845Y7473D01*
X152823Y7440D01*
X152790Y7386D01*
X152757Y7309D01*
X152735Y7211D01*
X152725Y7102D01*
X152714Y6971D01*
Y6085D01*
Y6074D01*
Y6020D01*
X152725Y5954D01*
X152735Y5878D01*
X152779Y5703D01*
X152812Y5615D01*
X152867Y5550D01*
X152878Y5539D01*
X152889Y5528D01*
X152921Y5506D01*
X152965Y5473D01*
X153085Y5418D01*
X153151Y5407D01*
X153238Y5397D01*
X153271D01*
X153315Y5407D01*
X153358D01*
X153468Y5440D01*
X153566Y5506D01*
Y5517D01*
X153588Y5528D01*
X153610Y5561D01*
X153643Y5604D01*
X153665Y5670D01*
X153697Y5746D01*
X153730Y5834D01*
X153752Y5943D01*
Y5954D01*
X153763Y5976D01*
X153774Y6020D01*
X153785Y6063D01*
X153840Y6173D01*
X153905Y6271D01*
X153916Y6282D01*
X153938Y6315D01*
X153992Y6347D01*
X154058Y6402D01*
X154135Y6468D01*
X154233Y6522D01*
X154353Y6588D01*
X154484Y6643D01*
X154495Y6654D01*
X154550Y6664D01*
X154626Y6686D01*
X154714Y6719D01*
X154834Y6741D01*
X154954Y6763D01*
X155096Y6774D01*
X155238Y6785D01*
X155315D01*
X155402Y6774D01*
X155523Y6763D01*
X155654Y6730D01*
X155796Y6697D01*
X155949Y6643D01*
X156102Y6577D01*
X156124Y6566D01*
X156168Y6533D01*
X156244Y6490D01*
X156332Y6413D01*
X156441Y6326D01*
X156550Y6205D01*
X156670Y6074D01*
X156791Y5910D01*
X156801Y5889D01*
X156834Y5834D01*
X156889Y5735D01*
X156933Y5604D01*
X156987Y5440D01*
X157042Y5254D01*
X157075Y5047D01*
X157086Y4817D01*
Y4140D01*
Y4129D01*
Y4107D01*
Y4063D01*
X157075Y4019D01*
X157064Y3954D01*
X157053Y3877D01*
X157020Y3703D01*
X156955Y3506D01*
X156856Y3287D01*
X156791Y3189D01*
X156714Y3079D01*
X156638Y2981D01*
X156539Y2883D01*
X156528D01*
X156517Y2861D01*
X156484Y2839D01*
X156441Y2806D01*
X156386Y2763D01*
X156310Y2719D01*
X156233Y2675D01*
X156146Y2631D01*
X156036Y2588D01*
X155927Y2544D01*
X155807Y2500D01*
X155665Y2456D01*
X155359Y2402D01*
X155195Y2391D01*
X155020Y2380D01*
X154921D01*
X154812Y2391D01*
X154681Y2402D01*
X154528Y2413D01*
X154364Y2445D01*
X154189Y2478D01*
X154036Y2533D01*
X154025D01*
X153992Y2555D01*
X153949Y2577D01*
X153883Y2620D01*
X153818Y2664D01*
X153730Y2730D01*
X153643Y2806D01*
X153544Y2905D01*
X153533Y2915D01*
X153512Y2926D01*
X153446Y2992D01*
X153369Y3058D01*
X153326Y3090D01*
X153293Y3112D01*
X153271Y3123D01*
X153227Y3145D01*
X153162Y3156D01*
X153074Y3167D01*
X153042D01*
X152998Y3156D01*
X152954Y3145D01*
X152900Y3123D01*
X152834Y3101D01*
X152768Y3058D01*
X152714Y3003D01*
X152703Y2992D01*
X152692Y2981D01*
X152659Y2948D01*
X152626Y2905D01*
X152572Y2784D01*
X152561Y2708D01*
X152550Y2631D01*
Y2620D01*
Y2599D01*
X152561Y2555D01*
X152572Y2489D01*
X152604Y2424D01*
X152637Y2347D01*
X152692Y2260D01*
X152768Y2172D01*
X152779Y2161D01*
X152823Y2118D01*
X152889Y2052D01*
X152987Y1965D01*
X153096Y1877D01*
X153238Y1790D01*
X153391Y1691D01*
X153566Y1615D01*
X153577D01*
X153599Y1604D01*
X153632Y1593D01*
X153675Y1571D01*
X153741Y1549D01*
X153818Y1527D01*
X153992Y1484D01*
X154211Y1429D01*
X154452Y1385D01*
X154725Y1352D01*
X155020Y1342D01*
X155107D01*
X155173Y1352D01*
X155260D01*
X155348Y1363D01*
X155457Y1374D01*
X155566Y1385D01*
X155829Y1429D01*
X156113Y1495D01*
X156397Y1593D01*
X156681Y1713D01*
X156692D01*
X156703Y1724D01*
X156736Y1746D01*
X156780Y1768D01*
X156889Y1844D01*
X157031Y1954D01*
X157195Y2085D01*
X157370Y2249D01*
X157545Y2445D01*
X157709Y2675D01*
Y2686D01*
X157730Y2708D01*
X157741Y2741D01*
X157774Y2795D01*
X157807Y2850D01*
X157840Y2926D01*
X157916Y3101D01*
X157993Y3320D01*
X158058Y3560D01*
X158102Y3834D01*
X158124Y4118D01*
Y4828D01*
Y4839D01*
Y4861D01*
Y4905D01*
X158113Y4970D01*
Y5036D01*
X158102Y5123D01*
X158091Y5222D01*
X158080Y5331D01*
X158037Y5561D01*
X157971Y5812D01*
X157873Y6085D01*
X157752Y6347D01*
Y6358D01*
X157730Y6380D01*
X157709Y6413D01*
X157687Y6468D01*
X157599Y6588D01*
X157479Y6752D01*
X157326Y6927D01*
X157151Y7113D01*
X156944Y7288D01*
X156703Y7440D01*
X156692D01*
X156670Y7462D01*
X156638Y7473D01*
X156583Y7506D01*
X156517Y7528D01*
X156452Y7561D01*
X156266Y7637D01*
X156058Y7703D01*
X155818Y7768D01*
X155544Y7812D01*
X155271Y7823D01*
D02*
G37*
G36*
X151369Y8107D02*
X150156D01*
Y5878D01*
X150145Y5889D01*
X150101Y5910D01*
X150036Y5943D01*
X149959Y5987D01*
X149861Y6031D01*
X149752Y6074D01*
X149511Y6162D01*
X149500D01*
X149457Y6173D01*
X149380Y6194D01*
X149293Y6216D01*
X149194Y6227D01*
X149074Y6249D01*
X148823Y6260D01*
X148735D01*
X148626Y6249D01*
X148506Y6238D01*
X148353Y6216D01*
X148189Y6184D01*
X148025Y6140D01*
X147861Y6074D01*
X147839Y6063D01*
X147784Y6041D01*
X147708Y5998D01*
X147609Y5932D01*
X147500Y5856D01*
X147391Y5757D01*
X147271Y5637D01*
X147161Y5495D01*
X147150Y5473D01*
X147117Y5429D01*
X147074Y5342D01*
X147019Y5222D01*
X146965Y5080D01*
X146921Y4905D01*
X146888Y4719D01*
X146877Y4500D01*
Y2544D01*
X146746D01*
X146669Y2533D01*
X146505Y2500D01*
X146440Y2478D01*
X146385Y2445D01*
X146374Y2435D01*
X146352Y2413D01*
X146320Y2369D01*
X146276Y2314D01*
X146199Y2183D01*
X146177Y2107D01*
X146167Y2019D01*
Y2008D01*
Y1986D01*
X146177Y1943D01*
X146188Y1888D01*
X146210Y1833D01*
X146232Y1768D01*
X146276Y1702D01*
X146330Y1648D01*
X146342Y1637D01*
X146363Y1626D01*
X146407Y1604D01*
X146462Y1582D01*
X146538Y1549D01*
X146626Y1527D01*
X146746Y1517D01*
X146877Y1505D01*
X147981D01*
X148047Y1517D01*
X148134Y1527D01*
X148320Y1571D01*
X148396Y1604D01*
X148473Y1648D01*
X148484Y1658D01*
X148495Y1670D01*
X148517Y1702D01*
X148549Y1746D01*
X148604Y1866D01*
X148615Y1943D01*
X148626Y2019D01*
Y2030D01*
Y2063D01*
X148615Y2107D01*
X148604Y2161D01*
X148571Y2227D01*
X148538Y2293D01*
X148484Y2369D01*
X148418Y2445D01*
X148407D01*
X148396Y2456D01*
X148363Y2478D01*
X148309Y2500D01*
X148243Y2511D01*
X148156Y2533D01*
X148047Y2544D01*
X147915D01*
Y4435D01*
Y4457D01*
Y4500D01*
X147926Y4566D01*
X147937Y4653D01*
X147959Y4752D01*
X147992Y4839D01*
X148036Y4927D01*
X148101Y4992D01*
X148112Y5003D01*
X148145Y5025D01*
X148200Y5069D01*
X148276Y5112D01*
X148385Y5145D01*
X148506Y5189D01*
X148648Y5211D01*
X148823Y5222D01*
X148877D01*
X148943Y5211D01*
X149030Y5200D01*
X149118Y5189D01*
X149227Y5167D01*
X149325Y5123D01*
X149435Y5080D01*
X149446Y5069D01*
X149489Y5058D01*
X149544Y5014D01*
X149631Y4959D01*
X149730Y4883D01*
X149850Y4784D01*
X149992Y4653D01*
X150156Y4500D01*
Y2544D01*
X150025D01*
X149948Y2533D01*
X149784Y2500D01*
X149719Y2478D01*
X149664Y2445D01*
X149653Y2435D01*
X149631Y2413D01*
X149599Y2369D01*
X149555Y2314D01*
X149478Y2183D01*
X149457Y2107D01*
X149446Y2019D01*
Y2008D01*
Y1986D01*
X149457Y1943D01*
X149468Y1888D01*
X149489Y1833D01*
X149511Y1768D01*
X149555Y1702D01*
X149609Y1648D01*
X149620Y1637D01*
X149642Y1626D01*
X149686Y1604D01*
X149741Y1582D01*
X149817Y1549D01*
X149905Y1527D01*
X150025Y1517D01*
X150156Y1505D01*
X151260D01*
X151326Y1517D01*
X151413Y1527D01*
X151599Y1571D01*
X151675Y1604D01*
X151752Y1648D01*
X151763Y1658D01*
X151774Y1670D01*
X151796Y1702D01*
X151828Y1746D01*
X151883Y1866D01*
X151894Y1943D01*
X151905Y2019D01*
Y2030D01*
Y2063D01*
X151894Y2107D01*
X151883Y2161D01*
X151850Y2227D01*
X151817Y2293D01*
X151763Y2369D01*
X151697Y2445D01*
X151686D01*
X151675Y2456D01*
X151643Y2478D01*
X151588Y2500D01*
X151522Y2511D01*
X151435Y2533D01*
X151326Y2544D01*
X151194D01*
Y7069D01*
X151435D01*
X151500Y7080D01*
X151588Y7091D01*
X151774Y7135D01*
X151850Y7167D01*
X151927Y7211D01*
X151938Y7222D01*
X151949Y7233D01*
X151970Y7266D01*
X152003Y7309D01*
X152058Y7430D01*
X152069Y7506D01*
X152080Y7583D01*
Y7593D01*
Y7626D01*
X152069Y7659D01*
X152058Y7714D01*
X152014Y7834D01*
X151981Y7900D01*
X151927Y7954D01*
X151916Y7965D01*
X151894Y7976D01*
X151850Y7998D01*
X151796Y8031D01*
X151719Y8063D01*
X151621Y8085D01*
X151500Y8096D01*
X151369Y8107D01*
D02*
G37*
%LPD*%
G36*
X205148Y32192D02*
X203945D01*
X203825Y32203D01*
X203694Y32214D01*
X203541Y32236D01*
X203388Y32268D01*
X203235Y32312D01*
X203103Y32367D01*
X203082Y32378D01*
X203038Y32410D01*
X202961Y32454D01*
X202874Y32531D01*
X202776Y32607D01*
X202677Y32716D01*
X202579Y32826D01*
X202491Y32957D01*
X202481Y32979D01*
X202459Y33022D01*
X202426Y33110D01*
X202382Y33219D01*
X202338Y33350D01*
X202306Y33514D01*
X202284Y33689D01*
X202273Y33897D01*
Y34389D01*
Y34400D01*
Y34411D01*
Y34476D01*
X202284Y34564D01*
X202295Y34684D01*
X202317Y34826D01*
X202360Y34968D01*
X202404Y35121D01*
X202470Y35263D01*
Y35274D01*
X202481Y35285D01*
X202524Y35361D01*
X202579Y35460D01*
X202666Y35580D01*
X202765Y35711D01*
X202874Y35842D01*
X203005Y35963D01*
X203136Y36061D01*
X203147Y36072D01*
X203202Y36094D01*
X203278Y36127D01*
X203388Y36170D01*
X203519Y36214D01*
X203672Y36247D01*
X203858Y36269D01*
X204054Y36280D01*
X205148D01*
Y32192D01*
D02*
G37*
G36*
X222799Y33941D02*
X222920Y33919D01*
X223062Y33875D01*
X223204Y33820D01*
X223346Y33733D01*
X223488Y33624D01*
X223499Y33613D01*
X223543Y33569D01*
X223597Y33492D01*
X223663Y33405D01*
X223728Y33285D01*
X223783Y33154D01*
X223827Y33011D01*
X223838Y32858D01*
Y32848D01*
Y32804D01*
X223827Y32738D01*
X223805Y32662D01*
X223761Y32563D01*
X223717Y32476D01*
X223641Y32378D01*
X223543Y32279D01*
X223532Y32268D01*
X223488Y32246D01*
X223411Y32203D01*
X223313Y32159D01*
X223182Y32115D01*
X223018Y32072D01*
X222832Y32050D01*
X222614Y32039D01*
X222515D01*
X222395Y32050D01*
X222264Y32072D01*
X222111Y32093D01*
X221958Y32137D01*
X221816Y32203D01*
X221685Y32279D01*
X221674Y32290D01*
X221641Y32323D01*
X221586Y32378D01*
X221532Y32443D01*
X221477Y32531D01*
X221422Y32629D01*
X221389Y32738D01*
X221378Y32858D01*
Y32880D01*
Y32935D01*
X221400Y33011D01*
X221422Y33110D01*
X221466Y33230D01*
X221532Y33361D01*
X221619Y33492D01*
X221739Y33624D01*
X221750Y33634D01*
X221805Y33678D01*
X221881Y33733D01*
X221980Y33799D01*
X222111Y33853D01*
X222253Y33908D01*
X222428Y33952D01*
X222614Y33962D01*
X222701D01*
X222799Y33941D01*
D02*
G37*
G36*
X50797Y5102D02*
X49541D01*
X49431Y5123D01*
X49289Y5145D01*
X49125Y5178D01*
X48950Y5233D01*
X48786Y5309D01*
X48622Y5407D01*
X48612Y5418D01*
X48579Y5440D01*
X48535Y5495D01*
X48480Y5550D01*
X48426Y5626D01*
X48382Y5714D01*
X48349Y5823D01*
X48338Y5932D01*
Y5943D01*
Y5976D01*
X48349Y6031D01*
X48371Y6096D01*
X48404Y6173D01*
X48448Y6249D01*
X48513Y6337D01*
X48601Y6413D01*
X48612Y6424D01*
X48655Y6446D01*
X48710Y6479D01*
X48797Y6522D01*
X48917Y6566D01*
X49060Y6599D01*
X49235Y6621D01*
X49431Y6632D01*
X50797D01*
Y5102D01*
D02*
G37*
G36*
X211971Y4790D02*
X210900D01*
X210769Y4812D01*
X210616Y4834D01*
X210441Y4866D01*
X210255Y4921D01*
X210080Y4998D01*
X209916Y5096D01*
X209894Y5107D01*
X209851Y5151D01*
X209785Y5216D01*
X209708Y5304D01*
X209643Y5413D01*
X209577Y5544D01*
X209534Y5686D01*
X209512Y5839D01*
Y5861D01*
Y5905D01*
X209534Y5970D01*
X209556Y6058D01*
X209588Y6156D01*
X209654Y6266D01*
X209730Y6375D01*
X209840Y6484D01*
X209851Y6495D01*
X209905Y6528D01*
X209971Y6572D01*
X210080Y6626D01*
X210211Y6681D01*
X210364Y6725D01*
X210561Y6757D01*
X210769Y6768D01*
X211971D01*
Y4790D01*
D02*
G37*
G36*
X137412Y4227D02*
X135728D01*
X136570Y6293D01*
X137412Y4227D01*
D02*
G37*
G36*
X222799Y36859D02*
X222920Y36837D01*
X223051Y36804D01*
X223182Y36750D01*
X223324Y36684D01*
X223444Y36597D01*
X223455Y36586D01*
X223488Y36553D01*
X223543Y36487D01*
X223586Y36411D01*
X223641Y36312D01*
X223696Y36203D01*
X223728Y36072D01*
X223739Y35930D01*
Y35908D01*
Y35864D01*
X223728Y35788D01*
X223707Y35700D01*
X223663Y35591D01*
X223619Y35482D01*
X223543Y35372D01*
X223444Y35263D01*
X223433Y35252D01*
X223390Y35219D01*
X223324Y35176D01*
X223226Y35132D01*
X223106Y35088D01*
X222974Y35045D01*
X222810Y35012D01*
X222624Y35001D01*
X222537D01*
X222450Y35012D01*
X222329Y35034D01*
X222209Y35066D01*
X222067Y35110D01*
X221936Y35176D01*
X221816Y35263D01*
X221805Y35274D01*
X221772Y35318D01*
X221717Y35372D01*
X221663Y35449D01*
X221608Y35547D01*
X221553Y35657D01*
X221521Y35788D01*
X221510Y35930D01*
Y35952D01*
Y35995D01*
X221521Y36072D01*
X221543Y36159D01*
X221586Y36269D01*
X221641Y36378D01*
X221717Y36487D01*
X221816Y36597D01*
X221827Y36608D01*
X221870Y36640D01*
X221936Y36684D01*
X222034Y36739D01*
X222144Y36782D01*
X222286Y36826D01*
X222450Y36859D01*
X222624Y36870D01*
X222712D01*
X222799Y36859D01*
D02*
G37*
G36*
X50797Y2544D02*
X48896D01*
X48776Y2555D01*
X48644Y2566D01*
X48491Y2588D01*
X48349Y2620D01*
X48207Y2664D01*
X48098Y2730D01*
X48087Y2741D01*
X48065Y2751D01*
X48032Y2784D01*
X47989Y2839D01*
X47956Y2894D01*
X47923Y2959D01*
X47901Y3047D01*
X47890Y3134D01*
Y3145D01*
X47901Y3189D01*
X47912Y3254D01*
X47934Y3331D01*
X47989Y3429D01*
X48054Y3528D01*
X48152Y3648D01*
X48284Y3757D01*
X48305Y3768D01*
X48360Y3801D01*
X48448Y3855D01*
X48568Y3910D01*
X48732Y3965D01*
X48928Y4019D01*
X49158Y4052D01*
X49420Y4063D01*
X50797D01*
Y2544D01*
D02*
G37*
G36*
X199937Y5041D02*
X199052D01*
X198964Y5052D01*
X198855Y5063D01*
X198724Y5074D01*
X198593Y5096D01*
X198451Y5129D01*
X198319Y5173D01*
X198309D01*
X198298Y5184D01*
X198243Y5205D01*
X198155Y5238D01*
X198057Y5293D01*
X197948Y5347D01*
X197849Y5413D01*
X197751Y5479D01*
X197675Y5555D01*
X197664Y5566D01*
X197642Y5588D01*
X197620Y5632D01*
X197587Y5686D01*
X197521Y5817D01*
X197511Y5883D01*
X197500Y5959D01*
Y5970D01*
Y6014D01*
X197511Y6069D01*
X197543Y6134D01*
X197576Y6222D01*
X197631Y6320D01*
X197707Y6408D01*
X197817Y6506D01*
X197828Y6517D01*
X197871Y6550D01*
X197948Y6593D01*
X198046Y6637D01*
X198177Y6681D01*
X198341Y6725D01*
X198527Y6757D01*
X198746Y6768D01*
X199937D01*
Y5041D01*
D02*
G37*
G36*
X1121080Y-83717D02*
Y-84003D01*
Y-84290D01*
Y-84576D01*
Y-84862D01*
Y-85149D01*
Y-85435D01*
Y-85721D01*
Y-86007D01*
Y-86294D01*
Y-86580D01*
Y-86866D01*
Y-87153D01*
Y-87439D01*
Y-87725D01*
Y-88012D01*
Y-88298D01*
Y-88584D01*
Y-88871D01*
Y-89157D01*
Y-89443D01*
X1120793D01*
Y-89730D01*
Y-90016D01*
Y-90302D01*
Y-90588D01*
Y-90875D01*
X1120507D01*
Y-91161D01*
Y-91448D01*
Y-91734D01*
Y-92020D01*
X1120221D01*
Y-92306D01*
Y-92593D01*
Y-92879D01*
Y-93165D01*
X1119934D01*
Y-93452D01*
Y-93738D01*
Y-94024D01*
X1119648D01*
Y-94311D01*
Y-94597D01*
Y-94883D01*
X1119362D01*
Y-95170D01*
Y-95456D01*
Y-95742D01*
X1119075D01*
Y-96029D01*
Y-96315D01*
Y-96601D01*
X1118789D01*
Y-96887D01*
Y-97174D01*
X1118503D01*
Y-97460D01*
Y-97746D01*
X1118217D01*
Y-98033D01*
Y-98319D01*
Y-98605D01*
X1117930D01*
Y-98892D01*
Y-99178D01*
X1117644D01*
Y-99464D01*
Y-99751D01*
Y-100037D01*
X1117358D01*
Y-100323D01*
Y-100610D01*
X1117071D01*
Y-100896D01*
Y-101182D01*
Y-101468D01*
X1116785D01*
Y-101755D01*
Y-102041D01*
X1116499D01*
Y-102327D01*
Y-102614D01*
Y-102900D01*
X1116212D01*
Y-103186D01*
Y-103473D01*
X1115926D01*
Y-103759D01*
Y-104045D01*
Y-104332D01*
X1115640D01*
Y-104618D01*
Y-104904D01*
X1115353D01*
Y-105191D01*
Y-105477D01*
Y-105763D01*
X1115067D01*
Y-106049D01*
Y-106336D01*
X1114781D01*
Y-106622D01*
Y-106908D01*
Y-107195D01*
X1114494D01*
Y-107481D01*
Y-107767D01*
X1114208D01*
Y-108054D01*
Y-108340D01*
Y-108626D01*
X1113922D01*
Y-108913D01*
Y-109199D01*
X1113636D01*
Y-109485D01*
Y-109772D01*
Y-110058D01*
X1113349D01*
Y-110344D01*
Y-110630D01*
X1113063D01*
Y-110917D01*
Y-111203D01*
Y-111489D01*
X1112776D01*
Y-111776D01*
Y-112062D01*
X1112490D01*
Y-112348D01*
Y-112635D01*
Y-112921D01*
X1112204D01*
Y-113207D01*
Y-113494D01*
X1111918D01*
Y-113780D01*
Y-114066D01*
Y-114353D01*
X1111631D01*
Y-114639D01*
Y-114925D01*
X1111345D01*
Y-115211D01*
Y-115498D01*
Y-115784D01*
X1111059D01*
Y-116070D01*
Y-116357D01*
X1110772D01*
Y-116643D01*
Y-116929D01*
Y-117216D01*
X1110486D01*
Y-117502D01*
Y-117788D01*
X1110200D01*
Y-118075D01*
Y-118361D01*
Y-118647D01*
X1109913D01*
Y-118933D01*
Y-119220D01*
X1109627D01*
Y-119506D01*
Y-119792D01*
Y-120079D01*
X1109341D01*
Y-120365D01*
Y-120651D01*
X1109054D01*
Y-120938D01*
Y-121224D01*
X1108768D01*
Y-121510D01*
Y-121797D01*
X1108482D01*
Y-122083D01*
Y-122369D01*
Y-122656D01*
X1108195D01*
Y-122942D01*
X1107909D01*
Y-123228D01*
Y-123514D01*
Y-123801D01*
X1107623D01*
Y-124087D01*
X1107337D01*
Y-124373D01*
Y-124660D01*
X1107050D01*
Y-124946D01*
Y-125232D01*
X1106764D01*
Y-125519D01*
Y-125805D01*
X1106478D01*
Y-126091D01*
Y-126378D01*
X1106191D01*
Y-126664D01*
X1105905D01*
Y-126950D01*
Y-127237D01*
X1105619D01*
Y-127523D01*
Y-127809D01*
X1105332D01*
Y-128095D01*
X1105046D01*
Y-128382D01*
X1104760D01*
Y-128668D01*
Y-128954D01*
X1104473D01*
Y-129241D01*
X1104187D01*
Y-129527D01*
Y-129813D01*
X1103901D01*
Y-130100D01*
X1103615D01*
Y-130386D01*
X1103328D01*
Y-130672D01*
Y-130959D01*
X1103042D01*
Y-131245D01*
X1102756D01*
Y-131531D01*
X1102469D01*
Y-131818D01*
X1102183D01*
Y-132104D01*
X1101897D01*
Y-132390D01*
Y-132676D01*
X1101610D01*
Y-132963D01*
X1101324D01*
Y-133249D01*
X1101038D01*
Y-133535D01*
X1100751D01*
Y-133822D01*
X1100465D01*
Y-134108D01*
X1100179D01*
Y-134394D01*
X1099892D01*
Y-134681D01*
X1099320D01*
Y-134967D01*
X1099034D01*
Y-135253D01*
X1098747D01*
Y-135540D01*
X1098461D01*
Y-135826D01*
X1098175D01*
Y-136112D01*
X1097602D01*
Y-136399D01*
X1097316D01*
Y-136685D01*
X1096743D01*
Y-136971D01*
X1096457D01*
Y-137258D01*
X1095884D01*
Y-137544D01*
X1095598D01*
Y-137830D01*
X1095025D01*
Y-138117D01*
X1094452D01*
Y-138403D01*
X1093880D01*
Y-138689D01*
X1093307D01*
Y-138975D01*
X1092735D01*
Y-139262D01*
X1091876D01*
Y-139548D01*
X1091303D01*
Y-139834D01*
X1090444D01*
Y-140121D01*
X1089299D01*
Y-140407D01*
X1088154D01*
Y-140693D01*
X1086436D01*
Y-140980D01*
X1084432D01*
Y-141266D01*
X1084145D01*
Y-140980D01*
Y-140693D01*
Y-140407D01*
Y-140121D01*
Y-139834D01*
Y-139548D01*
Y-139262D01*
Y-138975D01*
Y-138689D01*
Y-138403D01*
Y-138117D01*
Y-137830D01*
Y-137544D01*
Y-137258D01*
Y-136971D01*
Y-136685D01*
Y-136399D01*
Y-136112D01*
Y-135826D01*
Y-135540D01*
Y-135253D01*
Y-134967D01*
Y-134681D01*
Y-134394D01*
Y-134108D01*
Y-133822D01*
Y-133535D01*
Y-133249D01*
Y-132963D01*
Y-132676D01*
Y-132390D01*
Y-132104D01*
Y-131818D01*
X1084718D01*
Y-131531D01*
X1085291D01*
Y-131245D01*
X1085863D01*
Y-130959D01*
X1086436D01*
Y-130672D01*
X1087008D01*
Y-130386D01*
X1087581D01*
Y-130100D01*
X1087867D01*
Y-129813D01*
X1088440D01*
Y-129527D01*
X1088726D01*
Y-129241D01*
X1089299D01*
Y-128954D01*
X1089585D01*
Y-128668D01*
X1089872D01*
Y-128382D01*
X1090444D01*
Y-128095D01*
X1090730D01*
Y-127809D01*
X1091017D01*
Y-127523D01*
X1091303D01*
Y-127237D01*
X1091589D01*
Y-126950D01*
X1091876D01*
Y-126664D01*
X1092162D01*
Y-126378D01*
X1092448D01*
Y-126091D01*
X1092735D01*
Y-125805D01*
X1093021D01*
Y-125519D01*
X1093307D01*
Y-125232D01*
X1093594D01*
Y-124946D01*
Y-124660D01*
X1093880D01*
Y-124373D01*
X1094166D01*
Y-124087D01*
X1094452D01*
Y-123801D01*
Y-123514D01*
X1094739D01*
Y-123228D01*
X1095025D01*
Y-122942D01*
Y-122656D01*
X1095311D01*
Y-122369D01*
Y-122083D01*
X1095598D01*
Y-121797D01*
X1095884D01*
Y-121510D01*
Y-121224D01*
X1096170D01*
Y-120938D01*
Y-120651D01*
X1096457D01*
Y-120365D01*
Y-120079D01*
X1094739D01*
Y-119792D01*
X1092735D01*
Y-119506D01*
X1091589D01*
Y-119220D01*
X1091017D01*
Y-118933D01*
X1090158D01*
Y-118647D01*
X1089585D01*
Y-118361D01*
X1089299D01*
Y-118075D01*
X1088726D01*
Y-117788D01*
X1088440D01*
Y-117502D01*
X1088154D01*
Y-117216D01*
X1087867D01*
Y-116929D01*
X1087581D01*
Y-116643D01*
X1087295D01*
Y-116357D01*
Y-116070D01*
X1087008D01*
Y-115784D01*
X1086722D01*
Y-115498D01*
Y-115211D01*
X1086436D01*
Y-114925D01*
Y-114639D01*
X1086149D01*
Y-114353D01*
Y-114066D01*
X1085863D01*
Y-113780D01*
Y-113494D01*
Y-113207D01*
X1085577D01*
Y-112921D01*
Y-112635D01*
Y-112348D01*
Y-112062D01*
X1085291D01*
Y-111776D01*
Y-111489D01*
Y-111203D01*
Y-110917D01*
Y-110630D01*
Y-110344D01*
Y-110058D01*
X1085004D01*
Y-109772D01*
Y-109485D01*
Y-109199D01*
Y-108913D01*
Y-108626D01*
Y-108340D01*
Y-108054D01*
Y-107767D01*
Y-107481D01*
Y-107195D01*
Y-106908D01*
Y-106622D01*
Y-106336D01*
Y-106049D01*
Y-105763D01*
X1084718D01*
Y-105477D01*
Y-105191D01*
Y-104904D01*
Y-104618D01*
Y-104332D01*
Y-104045D01*
Y-103759D01*
Y-103473D01*
Y-103186D01*
Y-102900D01*
Y-102614D01*
Y-102327D01*
Y-102041D01*
Y-101755D01*
Y-101468D01*
X1084432D01*
Y-101182D01*
Y-100896D01*
Y-100610D01*
Y-100323D01*
Y-100037D01*
Y-99751D01*
Y-99464D01*
Y-99178D01*
Y-98892D01*
Y-98605D01*
Y-98319D01*
Y-98033D01*
Y-97746D01*
Y-97460D01*
Y-97174D01*
Y-96887D01*
X1084145D01*
Y-96601D01*
Y-96315D01*
Y-96029D01*
Y-95742D01*
Y-95456D01*
Y-95170D01*
Y-94883D01*
Y-94597D01*
Y-94311D01*
Y-94024D01*
Y-93738D01*
Y-93452D01*
Y-93165D01*
Y-92879D01*
Y-92593D01*
Y-92306D01*
X1083859D01*
Y-92020D01*
Y-91734D01*
Y-91448D01*
Y-91161D01*
Y-90875D01*
Y-90588D01*
Y-90302D01*
Y-90016D01*
Y-89730D01*
Y-89443D01*
Y-89157D01*
Y-88871D01*
Y-88584D01*
Y-88298D01*
X1083573D01*
Y-88012D01*
Y-87725D01*
Y-87439D01*
Y-87153D01*
Y-86866D01*
Y-86580D01*
Y-86294D01*
Y-86007D01*
Y-85721D01*
Y-85435D01*
Y-85149D01*
Y-84862D01*
Y-84576D01*
Y-84290D01*
Y-84003D01*
Y-83717D01*
X1083286D01*
Y-83431D01*
X1097029D01*
Y-83717D01*
Y-84003D01*
Y-84290D01*
Y-84576D01*
Y-84862D01*
Y-85149D01*
Y-85435D01*
Y-85721D01*
Y-86007D01*
Y-86294D01*
Y-86580D01*
Y-86866D01*
Y-87153D01*
Y-87439D01*
X1097316D01*
Y-87725D01*
Y-88012D01*
Y-88298D01*
Y-88584D01*
Y-88871D01*
Y-89157D01*
Y-89443D01*
Y-89730D01*
Y-90016D01*
Y-90302D01*
Y-90588D01*
Y-90875D01*
Y-91161D01*
Y-91448D01*
Y-91734D01*
Y-92020D01*
Y-92306D01*
Y-92593D01*
Y-92879D01*
Y-93165D01*
Y-93452D01*
Y-93738D01*
Y-94024D01*
Y-94311D01*
Y-94597D01*
Y-94883D01*
Y-95170D01*
Y-95456D01*
Y-95742D01*
Y-96029D01*
Y-96315D01*
Y-96601D01*
Y-96887D01*
Y-97174D01*
Y-97460D01*
Y-97746D01*
Y-98033D01*
Y-98319D01*
Y-98605D01*
Y-98892D01*
Y-99178D01*
X1097602D01*
Y-99464D01*
X1097316D01*
Y-99751D01*
Y-100037D01*
X1097602D01*
Y-100323D01*
Y-100610D01*
Y-100896D01*
Y-101182D01*
Y-101468D01*
Y-101755D01*
Y-102041D01*
Y-102327D01*
Y-102614D01*
Y-102900D01*
Y-103186D01*
Y-103473D01*
Y-103759D01*
Y-104045D01*
Y-104332D01*
Y-104618D01*
Y-104904D01*
Y-105191D01*
Y-105477D01*
Y-105763D01*
Y-106049D01*
Y-106336D01*
Y-106622D01*
Y-106908D01*
Y-107195D01*
Y-107481D01*
X1097888D01*
Y-107767D01*
Y-108054D01*
Y-108340D01*
X1098175D01*
Y-108626D01*
X1098461D01*
Y-108913D01*
X1098747D01*
Y-109199D01*
X1099606D01*
Y-109485D01*
X1100465D01*
Y-109199D01*
X1100751D01*
Y-108913D01*
Y-108626D01*
Y-108340D01*
X1101038D01*
Y-108054D01*
Y-107767D01*
X1101324D01*
Y-107481D01*
Y-107195D01*
Y-106908D01*
X1101610D01*
Y-106622D01*
Y-106336D01*
Y-106049D01*
X1101897D01*
Y-105763D01*
Y-105477D01*
Y-105191D01*
X1102183D01*
Y-104904D01*
Y-104618D01*
Y-104332D01*
X1102469D01*
Y-104045D01*
Y-103759D01*
X1102756D01*
Y-103473D01*
Y-103186D01*
Y-102900D01*
X1103042D01*
Y-102614D01*
Y-102327D01*
Y-102041D01*
X1103328D01*
Y-101755D01*
Y-101468D01*
Y-101182D01*
X1103615D01*
Y-100896D01*
Y-100610D01*
X1103901D01*
Y-100323D01*
Y-100037D01*
Y-99751D01*
X1104187D01*
Y-99464D01*
Y-99178D01*
Y-98892D01*
X1104473D01*
Y-98605D01*
Y-98319D01*
Y-98033D01*
X1104760D01*
Y-97746D01*
Y-97460D01*
X1105046D01*
Y-97174D01*
Y-96887D01*
Y-96601D01*
X1105332D01*
Y-96315D01*
Y-96029D01*
Y-95742D01*
X1105619D01*
Y-95456D01*
Y-95170D01*
Y-94883D01*
X1105905D01*
Y-94597D01*
Y-94311D01*
X1106191D01*
Y-94024D01*
Y-93738D01*
Y-93452D01*
X1106478D01*
Y-93165D01*
Y-92879D01*
Y-92593D01*
X1106764D01*
Y-92306D01*
Y-92020D01*
Y-91734D01*
X1107050D01*
Y-91448D01*
Y-91161D01*
Y-90875D01*
Y-90588D01*
X1107337D01*
Y-90302D01*
Y-90016D01*
Y-89730D01*
Y-89443D01*
X1107623D01*
Y-89157D01*
Y-88871D01*
Y-88584D01*
Y-88298D01*
Y-88012D01*
X1107909D01*
Y-87725D01*
Y-87439D01*
Y-87153D01*
Y-86866D01*
Y-86580D01*
Y-86294D01*
X1108195D01*
Y-86007D01*
Y-85721D01*
Y-85435D01*
Y-85149D01*
Y-84862D01*
Y-84576D01*
Y-84290D01*
Y-84003D01*
Y-83717D01*
Y-83431D01*
X1121080D01*
Y-83717D01*
D02*
G37*
G36*
X1063244Y-66252D02*
Y-66538D01*
X1062958D01*
Y-66825D01*
Y-67111D01*
Y-67397D01*
Y-67684D01*
Y-67970D01*
Y-68256D01*
X1062672D01*
Y-68542D01*
Y-68829D01*
Y-69115D01*
Y-69401D01*
Y-69688D01*
Y-69974D01*
X1062385D01*
Y-70260D01*
Y-70547D01*
Y-70833D01*
Y-71119D01*
Y-71406D01*
Y-71692D01*
Y-71978D01*
X1062099D01*
Y-72264D01*
Y-72551D01*
Y-72837D01*
Y-73123D01*
Y-73410D01*
Y-73696D01*
X1061813D01*
Y-73982D01*
Y-74269D01*
Y-74555D01*
Y-74841D01*
Y-75128D01*
Y-75414D01*
X1061526D01*
Y-75700D01*
Y-75987D01*
Y-76273D01*
Y-76559D01*
Y-76846D01*
Y-77132D01*
Y-77418D01*
X1061240D01*
Y-77704D01*
Y-77991D01*
Y-78277D01*
Y-78563D01*
Y-78850D01*
Y-79136D01*
X1060954D01*
Y-79422D01*
Y-79709D01*
Y-79995D01*
Y-80281D01*
Y-80568D01*
Y-80854D01*
X1060668D01*
Y-81140D01*
Y-81427D01*
Y-81713D01*
Y-81999D01*
Y-82285D01*
Y-82572D01*
X1060381D01*
Y-82858D01*
Y-83144D01*
Y-83431D01*
Y-83717D01*
Y-84003D01*
Y-84290D01*
Y-84576D01*
X1060095D01*
Y-84862D01*
Y-85149D01*
Y-85435D01*
Y-85721D01*
Y-86007D01*
Y-86294D01*
X1059809D01*
Y-86580D01*
Y-86866D01*
X1060381D01*
Y-86580D01*
X1060668D01*
Y-86294D01*
X1060954D01*
Y-86007D01*
X1061526D01*
Y-85721D01*
X1061813D01*
Y-85435D01*
X1062099D01*
Y-85149D01*
X1062672D01*
Y-84862D01*
X1063244D01*
Y-84576D01*
X1063531D01*
Y-84290D01*
X1064103D01*
Y-84003D01*
X1064962D01*
Y-83717D01*
X1065535D01*
Y-83431D01*
X1066394D01*
Y-83144D01*
X1067825D01*
Y-82858D01*
X1074124D01*
Y-83144D01*
X1075270D01*
Y-83431D01*
X1076128D01*
Y-83717D01*
X1076701D01*
Y-84003D01*
X1076987D01*
Y-84290D01*
X1077560D01*
Y-84576D01*
X1077846D01*
Y-84862D01*
X1078133D01*
Y-85149D01*
X1078419D01*
Y-85435D01*
X1078705D01*
Y-85721D01*
Y-86007D01*
X1078992D01*
Y-86294D01*
Y-86580D01*
X1079278D01*
Y-86866D01*
Y-87153D01*
Y-87439D01*
X1079564D01*
Y-87725D01*
Y-88012D01*
Y-88298D01*
Y-88584D01*
X1079850D01*
Y-88871D01*
Y-89157D01*
Y-89443D01*
Y-89730D01*
Y-90016D01*
Y-90302D01*
Y-90588D01*
Y-90875D01*
Y-91161D01*
Y-91448D01*
Y-91734D01*
Y-92020D01*
Y-92306D01*
Y-92593D01*
Y-92879D01*
Y-93165D01*
Y-93452D01*
Y-93738D01*
X1079564D01*
Y-94024D01*
Y-94311D01*
Y-94597D01*
Y-94883D01*
Y-95170D01*
Y-95456D01*
Y-95742D01*
X1079278D01*
Y-96029D01*
Y-96315D01*
Y-96601D01*
Y-96887D01*
Y-97174D01*
Y-97460D01*
Y-97746D01*
X1078992D01*
Y-98033D01*
Y-98319D01*
Y-98605D01*
Y-98892D01*
Y-99178D01*
Y-99464D01*
X1078705D01*
Y-99751D01*
Y-100037D01*
Y-100323D01*
Y-100610D01*
Y-100896D01*
Y-101182D01*
X1078419D01*
Y-101468D01*
Y-101755D01*
Y-102041D01*
Y-102327D01*
Y-102614D01*
Y-102900D01*
X1078133D01*
Y-103186D01*
Y-103473D01*
Y-103759D01*
Y-104045D01*
Y-104332D01*
Y-104618D01*
Y-104904D01*
X1077846D01*
Y-105191D01*
Y-105477D01*
Y-105763D01*
Y-106049D01*
Y-106336D01*
Y-106622D01*
X1077560D01*
Y-106908D01*
Y-107195D01*
Y-107481D01*
Y-107767D01*
Y-108054D01*
Y-108340D01*
X1077274D01*
Y-108626D01*
Y-108913D01*
Y-109199D01*
Y-109485D01*
Y-109772D01*
Y-110058D01*
Y-110344D01*
X1076987D01*
Y-110630D01*
Y-110917D01*
Y-111203D01*
Y-111489D01*
Y-111776D01*
Y-112062D01*
X1076701D01*
Y-112348D01*
Y-112635D01*
Y-112921D01*
Y-113207D01*
Y-113494D01*
Y-113780D01*
X1076415D01*
Y-114066D01*
Y-114353D01*
Y-114639D01*
Y-114925D01*
Y-115211D01*
Y-115498D01*
X1076128D01*
Y-115784D01*
Y-116070D01*
Y-116357D01*
Y-116643D01*
Y-116929D01*
Y-117216D01*
Y-117502D01*
X1075842D01*
Y-117788D01*
Y-118075D01*
Y-118361D01*
Y-118647D01*
Y-118933D01*
Y-119220D01*
X1075556D01*
Y-119506D01*
Y-119792D01*
X1062385D01*
Y-119506D01*
Y-119220D01*
X1062672D01*
Y-118933D01*
Y-118647D01*
Y-118361D01*
Y-118075D01*
Y-117788D01*
Y-117502D01*
X1062958D01*
Y-117216D01*
Y-116929D01*
Y-116643D01*
Y-116357D01*
Y-116070D01*
Y-115784D01*
Y-115498D01*
X1063244D01*
Y-115211D01*
Y-114925D01*
Y-114639D01*
Y-114353D01*
Y-114066D01*
Y-113780D01*
X1063531D01*
Y-113494D01*
Y-113207D01*
Y-112921D01*
Y-112635D01*
Y-112348D01*
Y-112062D01*
X1063817D01*
Y-111776D01*
Y-111489D01*
Y-111203D01*
Y-110917D01*
Y-110630D01*
Y-110344D01*
Y-110058D01*
X1064103D01*
Y-109772D01*
Y-109485D01*
Y-109199D01*
Y-108913D01*
Y-108626D01*
Y-108340D01*
X1064390D01*
Y-108054D01*
Y-107767D01*
Y-107481D01*
Y-107195D01*
Y-106908D01*
Y-106622D01*
Y-106336D01*
X1064676D01*
Y-106049D01*
Y-105763D01*
Y-105477D01*
Y-105191D01*
Y-104904D01*
Y-104618D01*
X1064962D01*
Y-104332D01*
Y-104045D01*
Y-103759D01*
Y-103473D01*
Y-103186D01*
Y-102900D01*
X1065249D01*
Y-102614D01*
Y-102327D01*
Y-102041D01*
Y-101755D01*
Y-101468D01*
Y-101182D01*
X1065535D01*
Y-100896D01*
Y-100610D01*
Y-100323D01*
Y-100037D01*
Y-99751D01*
Y-99464D01*
Y-99178D01*
X1065821D01*
Y-98892D01*
Y-98605D01*
Y-98319D01*
Y-98033D01*
Y-97746D01*
Y-97460D01*
X1066107D01*
Y-97174D01*
Y-96887D01*
Y-96601D01*
Y-96315D01*
Y-96029D01*
Y-95742D01*
Y-95456D01*
X1066394D01*
Y-95170D01*
Y-94883D01*
Y-94597D01*
Y-94311D01*
Y-94024D01*
Y-93738D01*
X1066107D01*
Y-93452D01*
Y-93165D01*
X1065821D01*
Y-92879D01*
X1065535D01*
Y-92593D01*
X1064962D01*
Y-92306D01*
X1063244D01*
Y-92593D01*
X1061813D01*
Y-92879D01*
X1060954D01*
Y-93165D01*
X1060381D01*
Y-93452D01*
X1060095D01*
Y-93738D01*
X1059522D01*
Y-94024D01*
X1059236D01*
Y-94311D01*
X1058950D01*
Y-94597D01*
Y-94883D01*
X1058663D01*
Y-95170D01*
Y-95456D01*
Y-95742D01*
X1058377D01*
Y-96029D01*
Y-96315D01*
Y-96601D01*
Y-96887D01*
Y-97174D01*
Y-97460D01*
X1058091D01*
Y-97746D01*
Y-98033D01*
Y-98319D01*
Y-98605D01*
Y-98892D01*
Y-99178D01*
Y-99464D01*
X1057804D01*
Y-99751D01*
Y-100037D01*
Y-100323D01*
Y-100610D01*
Y-100896D01*
Y-101182D01*
X1057518D01*
Y-101468D01*
Y-101755D01*
Y-102041D01*
Y-102327D01*
Y-102614D01*
Y-102900D01*
X1057232D01*
Y-103186D01*
Y-103473D01*
Y-103759D01*
Y-104045D01*
Y-104332D01*
Y-104618D01*
X1056946D01*
Y-104904D01*
Y-105191D01*
Y-105477D01*
Y-105763D01*
Y-106049D01*
Y-106336D01*
Y-106622D01*
X1056659D01*
Y-106908D01*
Y-107195D01*
Y-107481D01*
Y-107767D01*
Y-108054D01*
Y-108340D01*
X1056373D01*
Y-108626D01*
Y-108913D01*
Y-109199D01*
Y-109485D01*
Y-109772D01*
Y-110058D01*
X1056087D01*
Y-110344D01*
Y-110630D01*
Y-110917D01*
Y-111203D01*
Y-111489D01*
Y-111776D01*
Y-112062D01*
X1055800D01*
Y-112348D01*
Y-112635D01*
Y-112921D01*
Y-113207D01*
Y-113494D01*
Y-113780D01*
X1055514D01*
Y-114066D01*
Y-114353D01*
Y-114639D01*
Y-114925D01*
Y-115211D01*
Y-115498D01*
X1055228D01*
Y-115784D01*
Y-116070D01*
Y-116357D01*
Y-116643D01*
Y-116929D01*
Y-117216D01*
X1054941D01*
Y-117502D01*
Y-117788D01*
Y-118075D01*
Y-118361D01*
Y-118647D01*
Y-118933D01*
Y-119220D01*
X1054655D01*
Y-119506D01*
Y-119792D01*
X1041485D01*
Y-119506D01*
Y-119220D01*
X1041771D01*
Y-118933D01*
Y-118647D01*
Y-118361D01*
Y-118075D01*
Y-117788D01*
Y-117502D01*
Y-117216D01*
X1042057D01*
Y-116929D01*
Y-116643D01*
Y-116357D01*
Y-116070D01*
Y-115784D01*
Y-115498D01*
X1042344D01*
Y-115211D01*
Y-114925D01*
Y-114639D01*
Y-114353D01*
Y-114066D01*
Y-113780D01*
X1042630D01*
Y-113494D01*
Y-113207D01*
Y-112921D01*
Y-112635D01*
Y-112348D01*
Y-112062D01*
Y-111776D01*
X1042916D01*
Y-111489D01*
Y-111203D01*
Y-110917D01*
Y-110630D01*
Y-110344D01*
Y-110058D01*
X1043202D01*
Y-109772D01*
Y-109485D01*
Y-109199D01*
Y-108913D01*
Y-108626D01*
Y-108340D01*
X1043489D01*
Y-108054D01*
Y-107767D01*
Y-107481D01*
Y-107195D01*
Y-106908D01*
Y-106622D01*
X1043775D01*
Y-106336D01*
Y-106049D01*
Y-105763D01*
Y-105477D01*
Y-105191D01*
Y-104904D01*
Y-104618D01*
X1044061D01*
Y-104332D01*
Y-104045D01*
Y-103759D01*
Y-103473D01*
Y-103186D01*
Y-102900D01*
X1044348D01*
Y-102614D01*
Y-102327D01*
Y-102041D01*
Y-101755D01*
Y-101468D01*
Y-101182D01*
X1044634D01*
Y-100896D01*
Y-100610D01*
Y-100323D01*
Y-100037D01*
Y-99751D01*
Y-99464D01*
Y-99178D01*
X1044920D01*
Y-98892D01*
Y-98605D01*
Y-98319D01*
Y-98033D01*
Y-97746D01*
Y-97460D01*
X1045207D01*
Y-97174D01*
Y-96887D01*
Y-96601D01*
Y-96315D01*
Y-96029D01*
Y-95742D01*
X1045493D01*
Y-95456D01*
Y-95170D01*
Y-94883D01*
Y-94597D01*
Y-94311D01*
Y-94024D01*
X1045779D01*
Y-93738D01*
Y-93452D01*
Y-93165D01*
Y-92879D01*
Y-92593D01*
Y-92306D01*
Y-92020D01*
X1046066D01*
Y-91734D01*
Y-91448D01*
Y-91161D01*
Y-90875D01*
Y-90588D01*
Y-90302D01*
X1046352D01*
Y-90016D01*
Y-89730D01*
Y-89443D01*
Y-89157D01*
Y-88871D01*
Y-88584D01*
X1046638D01*
Y-88298D01*
Y-88012D01*
Y-87725D01*
Y-87439D01*
Y-87153D01*
Y-86866D01*
X1046925D01*
Y-86580D01*
Y-86294D01*
Y-86007D01*
Y-85721D01*
Y-85435D01*
Y-85149D01*
Y-84862D01*
X1047211D01*
Y-84576D01*
Y-84290D01*
Y-84003D01*
Y-83717D01*
Y-83431D01*
Y-83144D01*
X1047497D01*
Y-82858D01*
Y-82572D01*
Y-82285D01*
Y-81999D01*
Y-81713D01*
Y-81427D01*
X1047783D01*
Y-81140D01*
Y-80854D01*
Y-80568D01*
Y-80281D01*
Y-79995D01*
Y-79709D01*
Y-79422D01*
X1048070D01*
Y-79136D01*
Y-78850D01*
Y-78563D01*
Y-78277D01*
Y-77991D01*
Y-77704D01*
X1048356D01*
Y-77418D01*
Y-77132D01*
Y-76846D01*
Y-76559D01*
Y-76273D01*
Y-75987D01*
X1048642D01*
Y-75700D01*
Y-75414D01*
Y-75128D01*
Y-74841D01*
Y-74555D01*
Y-74269D01*
X1048929D01*
Y-73982D01*
Y-73696D01*
Y-73410D01*
Y-73123D01*
Y-72837D01*
Y-72551D01*
Y-72264D01*
X1049215D01*
Y-71978D01*
Y-71692D01*
Y-71406D01*
Y-71119D01*
Y-70833D01*
Y-70547D01*
X1049501D01*
Y-70260D01*
Y-69974D01*
Y-69688D01*
Y-69401D01*
Y-69115D01*
Y-68829D01*
X1049788D01*
Y-68542D01*
Y-68256D01*
Y-67970D01*
Y-67684D01*
Y-67397D01*
Y-67111D01*
Y-66825D01*
X1050074D01*
Y-66538D01*
Y-66252D01*
Y-65966D01*
X1063244D01*
Y-66252D01*
D02*
G37*
G36*
X1032036Y-69688D02*
X1033754D01*
Y-69974D01*
X1034613D01*
Y-70260D01*
X1035472D01*
Y-70547D01*
X1036331D01*
Y-70833D01*
X1036904D01*
Y-71119D01*
X1037190D01*
Y-71406D01*
X1037763D01*
Y-71692D01*
X1038049D01*
Y-71978D01*
X1038622D01*
Y-72264D01*
X1038908D01*
Y-72551D01*
X1039194D01*
Y-72837D01*
X1039480D01*
Y-73123D01*
X1039767D01*
Y-73410D01*
X1040053D01*
Y-73696D01*
X1040339D01*
Y-73982D01*
Y-74269D01*
X1040626D01*
Y-74555D01*
X1040912D01*
Y-74841D01*
Y-75128D01*
X1041198D01*
Y-75414D01*
X1041485D01*
Y-75700D01*
Y-75987D01*
X1041771D01*
Y-76273D01*
Y-76559D01*
Y-76846D01*
X1042057D01*
Y-77132D01*
Y-77418D01*
Y-77704D01*
X1042344D01*
Y-77991D01*
Y-78277D01*
Y-78563D01*
Y-78850D01*
X1042630D01*
Y-79136D01*
Y-79422D01*
Y-79709D01*
Y-79995D01*
Y-80281D01*
X1042916D01*
Y-80568D01*
Y-80854D01*
Y-81140D01*
Y-81427D01*
Y-81713D01*
Y-81999D01*
Y-82285D01*
Y-82572D01*
Y-82858D01*
Y-83144D01*
Y-83431D01*
Y-83717D01*
Y-84003D01*
Y-84290D01*
Y-84576D01*
Y-84862D01*
Y-85149D01*
Y-85435D01*
Y-85721D01*
Y-86007D01*
X1042630D01*
Y-86294D01*
Y-86580D01*
Y-86866D01*
Y-87153D01*
Y-87439D01*
Y-87725D01*
Y-88012D01*
X1042344D01*
Y-88298D01*
Y-88584D01*
Y-88871D01*
Y-89157D01*
Y-89443D01*
X1042057D01*
Y-89730D01*
Y-90016D01*
Y-90302D01*
Y-90588D01*
Y-90875D01*
X1041771D01*
Y-91161D01*
Y-91448D01*
Y-91734D01*
X1041485D01*
Y-92020D01*
Y-92306D01*
Y-92593D01*
Y-92879D01*
X1041198D01*
Y-93165D01*
Y-93452D01*
Y-93738D01*
X1040912D01*
Y-94024D01*
Y-94311D01*
X1040626D01*
Y-94597D01*
Y-94883D01*
Y-95170D01*
X1040339D01*
Y-95456D01*
Y-95742D01*
X1040053D01*
Y-96029D01*
Y-96315D01*
X1039767D01*
Y-96601D01*
Y-96887D01*
X1039480D01*
Y-97174D01*
X1039194D01*
Y-97460D01*
Y-97746D01*
X1038908D01*
Y-98033D01*
X1038622D01*
Y-98319D01*
X1038335D01*
Y-98605D01*
Y-98892D01*
X1038049D01*
Y-99178D01*
X1037763D01*
Y-99464D01*
X1037476D01*
Y-99751D01*
X1037190D01*
Y-100037D01*
X1036904D01*
Y-100323D01*
X1036331D01*
Y-100610D01*
X1036045D01*
Y-100896D01*
X1035472D01*
Y-101182D01*
X1035186D01*
Y-101468D01*
X1034613D01*
Y-101755D01*
X1033754D01*
Y-102041D01*
X1032895D01*
Y-102327D01*
X1032036D01*
Y-102614D01*
X1030318D01*
Y-102900D01*
X1025165D01*
Y-102614D01*
X1022588D01*
Y-102327D01*
X1020584D01*
Y-102041D01*
X1019152D01*
Y-101755D01*
X1017721D01*
Y-101468D01*
X1016289D01*
Y-101755D01*
Y-102041D01*
Y-102327D01*
Y-102614D01*
Y-102900D01*
Y-103186D01*
Y-103473D01*
X1016003D01*
Y-103759D01*
Y-104045D01*
Y-104332D01*
Y-104618D01*
Y-104904D01*
Y-105191D01*
X1015716D01*
Y-105477D01*
Y-105763D01*
Y-106049D01*
Y-106336D01*
Y-106622D01*
Y-106908D01*
X1015430D01*
Y-107195D01*
Y-107481D01*
Y-107767D01*
Y-108054D01*
Y-108340D01*
Y-108626D01*
Y-108913D01*
X1015144D01*
Y-109199D01*
Y-109485D01*
Y-109772D01*
Y-110058D01*
Y-110344D01*
Y-110630D01*
X1014857D01*
Y-110917D01*
Y-111203D01*
Y-111489D01*
Y-111776D01*
Y-112062D01*
Y-112348D01*
X1014571D01*
Y-112635D01*
Y-112921D01*
Y-113207D01*
Y-113494D01*
Y-113780D01*
Y-114066D01*
Y-114353D01*
X1014285D01*
Y-114639D01*
Y-114925D01*
Y-115211D01*
Y-115498D01*
Y-115784D01*
Y-116070D01*
X1013999D01*
Y-116357D01*
Y-116643D01*
Y-116929D01*
Y-117216D01*
Y-117502D01*
Y-117788D01*
X1013712D01*
Y-118075D01*
Y-118361D01*
Y-118647D01*
Y-118933D01*
Y-119220D01*
Y-119506D01*
Y-119792D01*
X1000256D01*
Y-119506D01*
X1000542D01*
Y-119220D01*
Y-118933D01*
Y-118647D01*
Y-118361D01*
Y-118075D01*
X1000828D01*
Y-117788D01*
Y-117502D01*
Y-117216D01*
Y-116929D01*
Y-116643D01*
Y-116357D01*
Y-116070D01*
X1001114D01*
Y-115784D01*
Y-115498D01*
Y-115211D01*
Y-114925D01*
Y-114639D01*
Y-114353D01*
X1001401D01*
Y-114066D01*
Y-113780D01*
Y-113494D01*
Y-113207D01*
Y-112921D01*
Y-112635D01*
X1001687D01*
Y-112348D01*
Y-112062D01*
Y-111776D01*
Y-111489D01*
Y-111203D01*
Y-110917D01*
Y-110630D01*
X1001974D01*
Y-110344D01*
Y-110058D01*
Y-109772D01*
Y-109485D01*
Y-109199D01*
Y-108913D01*
X1002260D01*
Y-108626D01*
Y-108340D01*
Y-108054D01*
Y-107767D01*
Y-107481D01*
Y-107195D01*
X1002546D01*
Y-106908D01*
Y-106622D01*
Y-106336D01*
Y-106049D01*
Y-105763D01*
Y-105477D01*
X1002832D01*
Y-105191D01*
Y-104904D01*
Y-104618D01*
Y-104332D01*
Y-104045D01*
Y-103759D01*
Y-103473D01*
X1003119D01*
Y-103186D01*
Y-102900D01*
Y-102614D01*
Y-102327D01*
Y-102041D01*
Y-101755D01*
X1003405D01*
Y-101468D01*
Y-101182D01*
Y-100896D01*
Y-100610D01*
Y-100323D01*
Y-100037D01*
X1003691D01*
Y-99751D01*
Y-99464D01*
Y-99178D01*
Y-98892D01*
Y-98605D01*
Y-98319D01*
X1003978D01*
Y-98033D01*
Y-97746D01*
Y-97460D01*
Y-97174D01*
Y-96887D01*
Y-96601D01*
Y-96315D01*
X1004264D01*
Y-96029D01*
Y-95742D01*
Y-95456D01*
Y-95170D01*
Y-94883D01*
Y-94597D01*
X1004550D01*
Y-94311D01*
Y-94024D01*
Y-93738D01*
Y-93452D01*
Y-93165D01*
Y-92879D01*
X1004837D01*
Y-92593D01*
Y-92306D01*
Y-92020D01*
Y-91734D01*
Y-91448D01*
Y-91161D01*
Y-90875D01*
X1005123D01*
Y-90588D01*
Y-90302D01*
Y-90016D01*
Y-89730D01*
Y-89443D01*
Y-89157D01*
X1005409D01*
Y-88871D01*
Y-88584D01*
Y-88298D01*
Y-88012D01*
Y-87725D01*
Y-87439D01*
X1005696D01*
Y-87153D01*
Y-86866D01*
Y-86580D01*
Y-86294D01*
Y-86007D01*
Y-85721D01*
X1005982D01*
Y-85435D01*
Y-85149D01*
Y-84862D01*
Y-84576D01*
Y-84290D01*
Y-84003D01*
Y-83717D01*
X1006268D01*
Y-83431D01*
Y-83144D01*
Y-82858D01*
Y-82572D01*
Y-82285D01*
Y-81999D01*
X1006555D01*
Y-81713D01*
Y-81427D01*
Y-81140D01*
Y-80854D01*
Y-80568D01*
Y-80281D01*
X1006841D01*
Y-79995D01*
Y-79709D01*
Y-79422D01*
Y-79136D01*
Y-78850D01*
Y-78563D01*
Y-78277D01*
X1007127D01*
Y-77991D01*
Y-77704D01*
Y-77418D01*
Y-77132D01*
Y-76846D01*
Y-76559D01*
X1007413D01*
Y-76273D01*
Y-75987D01*
Y-75700D01*
Y-75414D01*
Y-75128D01*
Y-74841D01*
X1007700D01*
Y-74555D01*
Y-74269D01*
Y-73982D01*
Y-73696D01*
Y-73410D01*
Y-73123D01*
Y-72837D01*
X1007986D01*
Y-72551D01*
Y-72264D01*
Y-71978D01*
Y-71692D01*
Y-71406D01*
Y-71119D01*
X1008272D01*
Y-70833D01*
Y-70547D01*
Y-70260D01*
Y-69974D01*
Y-69688D01*
Y-69401D01*
X1032036D01*
Y-69688D01*
D02*
G37*
G36*
X1165172Y-83717D02*
X1164886D01*
Y-84003D01*
X1164599D01*
Y-84290D01*
Y-84576D01*
X1164313D01*
Y-84862D01*
X1164027D01*
Y-85149D01*
X1163740D01*
Y-85435D01*
Y-85721D01*
X1163454D01*
Y-86007D01*
X1163168D01*
Y-86294D01*
X1162881D01*
Y-86580D01*
X1162595D01*
Y-86866D01*
Y-87153D01*
X1162309D01*
Y-87439D01*
X1162022D01*
Y-87725D01*
X1161736D01*
Y-88012D01*
Y-88298D01*
X1161450D01*
Y-88584D01*
X1161163D01*
Y-88871D01*
X1160877D01*
Y-89157D01*
X1160591D01*
Y-89443D01*
Y-89730D01*
X1160305D01*
Y-90016D01*
X1160018D01*
Y-90302D01*
X1159732D01*
Y-90588D01*
Y-90875D01*
X1159445D01*
Y-91161D01*
X1159159D01*
Y-91448D01*
X1158873D01*
Y-91734D01*
Y-92020D01*
X1158587D01*
Y-92306D01*
X1158300D01*
Y-92593D01*
X1158014D01*
Y-92879D01*
X1157728D01*
Y-93165D01*
Y-93452D01*
X1157441D01*
Y-93738D01*
X1157155D01*
Y-94024D01*
X1156869D01*
Y-94311D01*
Y-94597D01*
X1156582D01*
Y-94883D01*
X1156296D01*
Y-95170D01*
X1156010D01*
Y-95456D01*
Y-95742D01*
X1155723D01*
Y-96029D01*
X1155437D01*
Y-96315D01*
X1155151D01*
Y-96601D01*
X1154865D01*
Y-96887D01*
Y-97174D01*
X1154578D01*
Y-97460D01*
X1154292D01*
Y-97746D01*
X1154006D01*
Y-98033D01*
Y-98319D01*
X1153719D01*
Y-98605D01*
X1153433D01*
Y-98892D01*
X1153147D01*
Y-99178D01*
Y-99464D01*
X1152860D01*
Y-99751D01*
X1152574D01*
Y-100037D01*
X1152288D01*
Y-100323D01*
X1152001D01*
Y-100610D01*
Y-100896D01*
X1151715D01*
Y-101182D01*
X1151429D01*
Y-101468D01*
X1151142D01*
Y-101755D01*
Y-102041D01*
X1150856D01*
Y-102327D01*
X1150570D01*
Y-102614D01*
X1150284D01*
Y-102900D01*
X1149997D01*
Y-103186D01*
Y-103473D01*
X1150284D01*
Y-103759D01*
Y-104045D01*
X1150570D01*
Y-104332D01*
Y-104618D01*
X1150856D01*
Y-104904D01*
X1151142D01*
Y-105191D01*
Y-105477D01*
X1151429D01*
Y-105763D01*
Y-106049D01*
X1151715D01*
Y-106336D01*
Y-106622D01*
X1152001D01*
Y-106908D01*
Y-107195D01*
X1152288D01*
Y-107481D01*
Y-107767D01*
X1152574D01*
Y-108054D01*
Y-108340D01*
X1152860D01*
Y-108626D01*
Y-108913D01*
X1153147D01*
Y-109199D01*
Y-109485D01*
X1153433D01*
Y-109772D01*
X1153719D01*
Y-110058D01*
Y-110344D01*
X1154006D01*
Y-110630D01*
Y-110917D01*
X1154292D01*
Y-111203D01*
Y-111489D01*
X1154578D01*
Y-111776D01*
Y-112062D01*
X1154865D01*
Y-112348D01*
Y-112635D01*
X1155151D01*
Y-112921D01*
Y-113207D01*
X1155437D01*
Y-113494D01*
Y-113780D01*
X1155723D01*
Y-114066D01*
X1156010D01*
Y-114353D01*
Y-114639D01*
X1156296D01*
Y-114925D01*
Y-115211D01*
X1156582D01*
Y-115498D01*
Y-115784D01*
X1156869D01*
Y-116070D01*
Y-116357D01*
X1157155D01*
Y-116643D01*
Y-116929D01*
X1157441D01*
Y-117216D01*
Y-117502D01*
X1157728D01*
Y-117788D01*
Y-118075D01*
X1158014D01*
Y-118361D01*
X1158300D01*
Y-118647D01*
Y-118933D01*
X1158587D01*
Y-119220D01*
Y-119506D01*
X1158873D01*
Y-119792D01*
X1143698D01*
Y-119506D01*
X1143412D01*
Y-119220D01*
Y-118933D01*
Y-118647D01*
X1143126D01*
Y-118361D01*
Y-118075D01*
Y-117788D01*
X1142839D01*
Y-117502D01*
Y-117216D01*
X1142553D01*
Y-116929D01*
Y-116643D01*
Y-116357D01*
X1142267D01*
Y-116070D01*
Y-115784D01*
Y-115498D01*
X1141980D01*
Y-115211D01*
Y-114925D01*
X1141694D01*
Y-114639D01*
Y-114353D01*
Y-114066D01*
X1141408D01*
Y-113780D01*
Y-113494D01*
Y-113207D01*
X1141121D01*
Y-112921D01*
Y-112635D01*
Y-112348D01*
X1140835D01*
Y-112062D01*
X1140263D01*
Y-112348D01*
Y-112635D01*
X1139976D01*
Y-112921D01*
X1139690D01*
Y-113207D01*
Y-113494D01*
X1139404D01*
Y-113780D01*
X1139117D01*
Y-114066D01*
Y-114353D01*
X1138831D01*
Y-114639D01*
X1138545D01*
Y-114925D01*
Y-115211D01*
X1138258D01*
Y-115498D01*
X1137972D01*
Y-115784D01*
X1137686D01*
Y-116070D01*
Y-116357D01*
X1137399D01*
Y-116643D01*
X1137113D01*
Y-116929D01*
Y-117216D01*
X1136827D01*
Y-117502D01*
X1136541D01*
Y-117788D01*
Y-118075D01*
X1136254D01*
Y-118361D01*
X1135968D01*
Y-118647D01*
Y-118933D01*
X1135682D01*
Y-119220D01*
X1135395D01*
Y-119506D01*
Y-119792D01*
X1119362D01*
Y-119506D01*
X1119648D01*
Y-119220D01*
X1119934D01*
Y-118933D01*
X1120221D01*
Y-118647D01*
X1120507D01*
Y-118361D01*
Y-118075D01*
X1120793D01*
Y-117788D01*
X1121080D01*
Y-117502D01*
X1121366D01*
Y-117216D01*
X1121652D01*
Y-116929D01*
Y-116643D01*
X1121939D01*
Y-116357D01*
X1122225D01*
Y-116070D01*
X1122511D01*
Y-115784D01*
Y-115498D01*
X1122797D01*
Y-115211D01*
X1123084D01*
Y-114925D01*
X1123370D01*
Y-114639D01*
X1123656D01*
Y-114353D01*
Y-114066D01*
X1123943D01*
Y-113780D01*
X1124229D01*
Y-113494D01*
X1124515D01*
Y-113207D01*
X1124802D01*
Y-112921D01*
Y-112635D01*
X1125088D01*
Y-112348D01*
X1125374D01*
Y-112062D01*
X1125661D01*
Y-111776D01*
Y-111489D01*
X1125947D01*
Y-111203D01*
X1126233D01*
Y-110917D01*
X1126519D01*
Y-110630D01*
X1126806D01*
Y-110344D01*
Y-110058D01*
X1127092D01*
Y-109772D01*
X1127378D01*
Y-109485D01*
X1127665D01*
Y-109199D01*
Y-108913D01*
X1127951D01*
Y-108626D01*
X1128237D01*
Y-108340D01*
X1128524D01*
Y-108054D01*
X1128810D01*
Y-107767D01*
Y-107481D01*
X1129096D01*
Y-107195D01*
X1129383D01*
Y-106908D01*
X1129669D01*
Y-106622D01*
Y-106336D01*
X1129955D01*
Y-106049D01*
X1130242D01*
Y-105763D01*
X1130528D01*
Y-105477D01*
X1130814D01*
Y-105191D01*
Y-104904D01*
X1131100D01*
Y-104618D01*
X1131387D01*
Y-104332D01*
X1131673D01*
Y-104045D01*
X1131960D01*
Y-103759D01*
Y-103473D01*
X1132246D01*
Y-103186D01*
X1132532D01*
Y-102900D01*
X1132818D01*
Y-102614D01*
Y-102327D01*
X1133105D01*
Y-102041D01*
X1133391D01*
Y-101755D01*
X1133677D01*
Y-101468D01*
X1133964D01*
Y-101182D01*
Y-100896D01*
X1134250D01*
Y-100610D01*
Y-100323D01*
Y-100037D01*
X1133964D01*
Y-99751D01*
X1133677D01*
Y-99464D01*
Y-99178D01*
X1133391D01*
Y-98892D01*
Y-98605D01*
X1133105D01*
Y-98319D01*
Y-98033D01*
X1132818D01*
Y-97746D01*
Y-97460D01*
X1132532D01*
Y-97174D01*
Y-96887D01*
X1132246D01*
Y-96601D01*
Y-96315D01*
X1131960D01*
Y-96029D01*
X1131673D01*
Y-95742D01*
Y-95456D01*
X1131387D01*
Y-95170D01*
Y-94883D01*
X1131100D01*
Y-94597D01*
Y-94311D01*
X1130814D01*
Y-94024D01*
Y-93738D01*
X1130528D01*
Y-93452D01*
Y-93165D01*
X1130242D01*
Y-92879D01*
Y-92593D01*
X1129955D01*
Y-92306D01*
X1129669D01*
Y-92020D01*
Y-91734D01*
X1129383D01*
Y-91448D01*
Y-91161D01*
X1129096D01*
Y-90875D01*
Y-90588D01*
X1128810D01*
Y-90302D01*
Y-90016D01*
X1128524D01*
Y-89730D01*
Y-89443D01*
X1128237D01*
Y-89157D01*
Y-88871D01*
X1127951D01*
Y-88584D01*
Y-88298D01*
X1127665D01*
Y-88012D01*
X1127378D01*
Y-87725D01*
Y-87439D01*
X1127092D01*
Y-87153D01*
Y-86866D01*
X1126806D01*
Y-86580D01*
Y-86294D01*
X1126519D01*
Y-86007D01*
Y-85721D01*
X1126233D01*
Y-85435D01*
Y-85149D01*
X1125947D01*
Y-84862D01*
Y-84576D01*
X1125661D01*
Y-84290D01*
X1125374D01*
Y-84003D01*
Y-83717D01*
X1125088D01*
Y-83431D01*
X1140835D01*
Y-83717D01*
X1141121D01*
Y-84003D01*
Y-84290D01*
Y-84576D01*
X1141408D01*
Y-84862D01*
Y-85149D01*
Y-85435D01*
X1141694D01*
Y-85721D01*
Y-86007D01*
Y-86294D01*
X1141980D01*
Y-86580D01*
Y-86866D01*
Y-87153D01*
X1142267D01*
Y-87439D01*
Y-87725D01*
Y-88012D01*
X1142553D01*
Y-88298D01*
Y-88584D01*
Y-88871D01*
X1142839D01*
Y-89157D01*
Y-89443D01*
Y-89730D01*
X1143126D01*
Y-90016D01*
Y-90302D01*
Y-90588D01*
X1143412D01*
Y-90875D01*
Y-91161D01*
Y-91448D01*
Y-91734D01*
X1143985D01*
Y-91448D01*
X1144271D01*
Y-91161D01*
X1144557D01*
Y-90875D01*
Y-90588D01*
X1144844D01*
Y-90302D01*
X1145130D01*
Y-90016D01*
Y-89730D01*
X1145416D01*
Y-89443D01*
X1145702D01*
Y-89157D01*
Y-88871D01*
X1145989D01*
Y-88584D01*
X1146275D01*
Y-88298D01*
Y-88012D01*
X1146561D01*
Y-87725D01*
X1146848D01*
Y-87439D01*
Y-87153D01*
X1147134D01*
Y-86866D01*
X1147420D01*
Y-86580D01*
Y-86294D01*
X1147707D01*
Y-86007D01*
X1147993D01*
Y-85721D01*
Y-85435D01*
X1148279D01*
Y-85149D01*
X1148566D01*
Y-84862D01*
Y-84576D01*
X1148852D01*
Y-84290D01*
X1149138D01*
Y-84003D01*
Y-83717D01*
X1149425D01*
Y-83431D01*
X1165172D01*
Y-83717D01*
D02*
G37*
%LPC*%
G36*
X1027742Y-80568D02*
X1019725D01*
Y-80854D01*
Y-81140D01*
Y-81427D01*
Y-81713D01*
Y-81999D01*
X1019438D01*
Y-82285D01*
Y-82572D01*
Y-82858D01*
Y-83144D01*
Y-83431D01*
Y-83717D01*
X1019152D01*
Y-84003D01*
Y-84290D01*
Y-84576D01*
Y-84862D01*
Y-85149D01*
Y-85435D01*
X1018866D01*
Y-85721D01*
Y-86007D01*
Y-86294D01*
Y-86580D01*
Y-86866D01*
Y-87153D01*
X1018580D01*
Y-87439D01*
Y-87725D01*
Y-88012D01*
Y-88298D01*
Y-88584D01*
Y-88871D01*
Y-89157D01*
X1018293D01*
Y-89443D01*
Y-89730D01*
Y-90016D01*
Y-90302D01*
Y-90588D01*
Y-90875D01*
X1018007D01*
Y-91161D01*
Y-91448D01*
Y-91734D01*
X1025165D01*
Y-91448D01*
X1026310D01*
Y-91161D01*
X1026883D01*
Y-90875D01*
X1027169D01*
Y-90588D01*
X1027455D01*
Y-90302D01*
X1027742D01*
Y-90016D01*
X1028028D01*
Y-89730D01*
Y-89443D01*
X1028314D01*
Y-89157D01*
Y-88871D01*
X1028601D01*
Y-88584D01*
Y-88298D01*
X1028887D01*
Y-88012D01*
Y-87725D01*
Y-87439D01*
Y-87153D01*
X1029173D01*
Y-86866D01*
Y-86580D01*
Y-86294D01*
Y-86007D01*
Y-85721D01*
X1029459D01*
Y-85435D01*
Y-85149D01*
Y-84862D01*
Y-84576D01*
Y-84290D01*
Y-84003D01*
Y-83717D01*
Y-83431D01*
Y-83144D01*
Y-82858D01*
Y-82572D01*
X1029173D01*
Y-82285D01*
Y-81999D01*
X1028887D01*
Y-81713D01*
Y-81427D01*
X1028601D01*
Y-81140D01*
X1028314D01*
Y-80854D01*
X1027742D01*
Y-80568D01*
D02*
G37*
%LPD*%
D32*
X120867Y13975D02*
X121851Y14959D01*
X123819D01*
X124803Y13975D01*
Y12991D01*
X123819Y12007D01*
X121851D01*
X120867Y11023D01*
Y10039D01*
X121851Y9055D01*
X123819D01*
X124803Y10039D01*
X118900Y7087D02*
Y12991D01*
X115948D01*
X114964Y12007D01*
Y10039D01*
X115948Y9055D01*
X118900D01*
X110044D02*
X112012D01*
X112996Y10039D01*
Y12007D01*
X112012Y12991D01*
X110044D01*
X109060Y12007D01*
Y11023D01*
X112996D01*
X106108Y12991D02*
X104141D01*
X103157Y12007D01*
Y9055D01*
X106108D01*
X107092Y10039D01*
X106108Y11023D01*
X103157D01*
X101189Y9055D02*
Y14959D01*
Y11023D02*
X98237Y12991D01*
X101189Y11023D02*
X98237Y9055D01*
X92333D02*
X94301D01*
X95285Y10039D01*
Y12007D01*
X94301Y12991D01*
X92333D01*
X91349Y12007D01*
Y11023D01*
X95285D01*
X89382Y12991D02*
Y9055D01*
Y11023D01*
X88398Y12007D01*
X87414Y12991D01*
X86430D01*
X83478Y9055D02*
X80526D01*
X79542Y10039D01*
X80526Y11023D01*
X82494D01*
X83478Y12007D01*
X82494Y12991D01*
X79542D01*
X122245Y1181D02*
Y7085D01*
X125197Y4133D01*
X121261D01*
X110438Y7085D02*
X112406D01*
X113390Y6101D01*
Y2165D01*
X112406Y1181D01*
X110438D01*
X109454Y2165D01*
Y6101D01*
X110438Y7085D01*
X107486D02*
Y1181D01*
Y4133D01*
X106502Y5117D01*
X104534D01*
X103550Y4133D01*
Y1181D01*
X101582D02*
Y5117D01*
X100599D01*
X99615Y4133D01*
Y1181D01*
Y4133D01*
X98631Y5117D01*
X97647Y4133D01*
Y1181D01*
X1342520Y-129921D02*
Y-122050D01*
X1346455D01*
X1347767Y-123362D01*
Y-125986D01*
X1346455Y-127297D01*
X1342520D01*
X1345144D02*
X1347767Y-129921D01*
X1354327D02*
X1351703D01*
X1350391Y-128609D01*
Y-125986D01*
X1351703Y-124674D01*
X1354327D01*
X1355639Y-125986D01*
Y-127297D01*
X1350391D01*
X1358263Y-124674D02*
X1360886Y-129921D01*
X1363510Y-124674D01*
X988189Y-161420D02*
Y-169291D01*
X992125D01*
X993437Y-167979D01*
Y-162732D01*
X992125Y-161420D01*
X988189D01*
X999996Y-169291D02*
X997372D01*
X996060Y-167979D01*
Y-165356D01*
X997372Y-164044D01*
X999996D01*
X1001308Y-165356D01*
Y-166667D01*
X996060D01*
X1003932Y-169291D02*
X1007868D01*
X1009180Y-167979D01*
X1007868Y-166667D01*
X1005244D01*
X1003932Y-165356D01*
X1005244Y-164044D01*
X1009180D01*
X1014427Y-171915D02*
X1015739D01*
X1017051Y-170603D01*
Y-164044D01*
X1013115D01*
X1011803Y-165356D01*
Y-167979D01*
X1013115Y-169291D01*
X1017051D01*
X1019675D02*
X1022299D01*
X1020987D01*
Y-164044D01*
X1019675D01*
X1026235Y-169291D02*
Y-164044D01*
X1030170D01*
X1031482Y-165356D01*
Y-169291D01*
X1038042D02*
X1035418D01*
X1034106Y-167979D01*
Y-165356D01*
X1035418Y-164044D01*
X1038042D01*
X1039354Y-165356D01*
Y-166667D01*
X1034106D01*
X1041977Y-164044D02*
Y-169291D01*
Y-166667D01*
X1043289Y-165356D01*
X1044601Y-164044D01*
X1045913D01*
X1185039Y-43310D02*
Y-51181D01*
X1188975D01*
X1190287Y-49869D01*
Y-44622D01*
X1188975Y-43310D01*
X1185039D01*
X1194223Y-51181D02*
X1196847D01*
X1198158Y-49869D01*
Y-47245D01*
X1196847Y-45933D01*
X1194223D01*
X1192911Y-47245D01*
Y-49869D01*
X1194223Y-51181D01*
X1206030Y-45933D02*
X1202094D01*
X1200782Y-47245D01*
Y-49869D01*
X1202094Y-51181D01*
X1206030D01*
X1208654Y-45933D02*
Y-49869D01*
X1209966Y-51181D01*
X1213902D01*
Y-45933D01*
X1216525Y-51181D02*
Y-45933D01*
X1217837D01*
X1219149Y-47245D01*
Y-51181D01*
Y-47245D01*
X1220461Y-45933D01*
X1221773Y-47245D01*
Y-51181D01*
X1228333D02*
X1225709D01*
X1224397Y-49869D01*
Y-47245D01*
X1225709Y-45933D01*
X1228333D01*
X1229644Y-47245D01*
Y-48557D01*
X1224397D01*
X1232268Y-51181D02*
Y-45933D01*
X1236204D01*
X1237516Y-47245D01*
Y-51181D01*
X1241452Y-44622D02*
Y-45933D01*
X1240140D01*
X1242764D01*
X1241452D01*
Y-49869D01*
X1242764Y-51181D01*
X1185039Y-82680D02*
Y-90551D01*
X1190287D01*
X1194223Y-85303D02*
X1196847D01*
X1198158Y-86615D01*
Y-90551D01*
X1194223D01*
X1192911Y-89239D01*
X1194223Y-87927D01*
X1198158D01*
X1200782Y-85303D02*
Y-89239D01*
X1202094Y-90551D01*
X1206030D01*
Y-91863D01*
X1204718Y-93175D01*
X1203406D01*
X1206030Y-90551D02*
Y-85303D01*
X1212590Y-90551D02*
X1209966D01*
X1208654Y-89239D01*
Y-86615D01*
X1209966Y-85303D01*
X1212590D01*
X1213902Y-86615D01*
Y-87927D01*
X1208654D01*
X1216525Y-85303D02*
Y-90551D01*
Y-87927D01*
X1217837Y-86615D01*
X1219149Y-85303D01*
X1220461D01*
X1232268Y-90551D02*
Y-82680D01*
X1237516Y-90551D01*
Y-82680D01*
X1241452Y-85303D02*
X1244075D01*
X1245387Y-86615D01*
Y-90551D01*
X1241452D01*
X1240140Y-89239D01*
X1241452Y-87927D01*
X1245387D01*
X1248011Y-90551D02*
Y-85303D01*
X1249323D01*
X1250635Y-86615D01*
Y-90551D01*
Y-86615D01*
X1251947Y-85303D01*
X1253259Y-86615D01*
Y-90551D01*
X1259818D02*
X1257195D01*
X1255883Y-89239D01*
Y-86615D01*
X1257195Y-85303D01*
X1259818D01*
X1261130Y-86615D01*
Y-87927D01*
X1255883D01*
X1185039Y-122050D02*
Y-129921D01*
X1188975D01*
X1190287Y-128609D01*
Y-123362D01*
X1188975Y-122050D01*
X1185039D01*
X1194223Y-124674D02*
X1196847D01*
X1198158Y-125986D01*
Y-129921D01*
X1194223D01*
X1192911Y-128609D01*
X1194223Y-127297D01*
X1198158D01*
X1202094Y-123362D02*
Y-124674D01*
X1200782D01*
X1203406D01*
X1202094D01*
Y-128609D01*
X1203406Y-129921D01*
X1211278D02*
X1208654D01*
X1207342Y-128609D01*
Y-125986D01*
X1208654Y-124674D01*
X1211278D01*
X1212589Y-125986D01*
Y-127297D01*
X1207342D01*
X1185039Y-161420D02*
Y-169291D01*
X1188975D01*
X1190287Y-167979D01*
Y-162732D01*
X1188975Y-161420D01*
X1185039D01*
X1194223Y-169291D02*
X1196847D01*
X1198158Y-167979D01*
Y-165356D01*
X1196847Y-164044D01*
X1194223D01*
X1192911Y-165356D01*
Y-167979D01*
X1194223Y-169291D01*
X1206030Y-164044D02*
X1202094D01*
X1200782Y-165356D01*
Y-167979D01*
X1202094Y-169291D01*
X1206030D01*
X1208654Y-164044D02*
Y-167979D01*
X1209966Y-169291D01*
X1213902D01*
Y-164044D01*
X1216525Y-169291D02*
Y-164044D01*
X1217837D01*
X1219149Y-165356D01*
Y-169291D01*
Y-165356D01*
X1220461Y-164044D01*
X1221773Y-165356D01*
Y-169291D01*
X1228333D02*
X1225709D01*
X1224397Y-167979D01*
Y-165356D01*
X1225709Y-164044D01*
X1228333D01*
X1229644Y-165356D01*
Y-166667D01*
X1224397D01*
X1232268Y-169291D02*
Y-164044D01*
X1236204D01*
X1237516Y-165356D01*
Y-169291D01*
X1241452Y-162732D02*
Y-164044D01*
X1240140D01*
X1242764D01*
X1241452D01*
Y-167979D01*
X1242764Y-169291D01*
D33*
X227954Y196693D02*
Y216693D01*
X27953Y196693D02*
Y216693D01*
Y196693D02*
X227954Y196693D01*
X27953Y216693D02*
X227954Y216693D01*
X226378Y190945D02*
Y194487D01*
X224607D01*
X224016Y193897D01*
Y192716D01*
X224607Y192126D01*
X226378D01*
X222836Y190945D02*
X221655D01*
X222245D01*
Y193306D01*
X222836D01*
X255906Y208661D02*
G03*
X244094Y220472I-11811J0D01*
G01*
Y0D02*
G03*
X255906Y11811I0J11811D01*
G01*
X0D02*
G03*
X11811Y0I11811J0D01*
G01*
Y220472D02*
G03*
X0Y208661I0J-11811D01*
G01*
Y11811D02*
Y208661D01*
X11811Y0D02*
X244094D01*
X11811Y220472D02*
X244094D01*
X255906Y11811D02*
Y208661D01*
X1338583Y-157480D02*
Y-118110D01*
X1181102Y-78740D02*
X1456693D01*
X1181102Y-118110D02*
X1456693D01*
X984252Y-157480D02*
X1456693D01*
X984252Y-39370D02*
X1456693D01*
X984252Y-196850D02*
Y-39370D01*
X1181102Y-196850D02*
Y-39370D01*
X-196850Y972441D02*
X1456693D01*
Y-196850D02*
Y972441D01*
X-196850Y-196850D02*
Y972441D01*
Y-196850D02*
X1456693D01*
X1190945Y-188976D02*
Y-183073D01*
X1193897D01*
X1194881Y-184057D01*
Y-186025D01*
X1193897Y-187009D01*
X1190945D01*
X1192913D02*
X1194881Y-188976D01*
X1196848D02*
Y-183073D01*
X1199800D01*
X1200784Y-184057D01*
Y-186025D01*
X1199800Y-187009D01*
X1196848D01*
X1202752Y-183073D02*
X1204720D01*
X1203736D01*
Y-188976D01*
X1202752D01*
X1204720D01*
X1207672Y-189960D02*
X1211607D01*
X1213575Y-183073D02*
Y-188976D01*
Y-186025D01*
X1217511D01*
Y-183073D01*
Y-188976D01*
X1219479D02*
Y-185041D01*
X1221447Y-183073D01*
X1223415Y-185041D01*
Y-188976D01*
Y-186025D01*
X1219479D01*
X1225383Y-183073D02*
X1229318D01*
X1227350D01*
Y-188976D01*
X1231286Y-189960D02*
X1235222D01*
X1237190Y-188976D02*
Y-185041D01*
X1239158Y-183073D01*
X1241125Y-185041D01*
Y-188976D01*
Y-186025D01*
X1237190D01*
X1243093Y-188976D02*
Y-183073D01*
X1245061Y-185041D01*
X1247029Y-183073D01*
Y-188976D01*
X1248997D02*
Y-183073D01*
X1251949D01*
X1252933Y-184057D01*
Y-186025D01*
X1251949Y-187009D01*
X1248997D01*
X1254900Y-189960D02*
X1258836D01*
X1260804Y-183073D02*
X1264740D01*
X1262772D01*
Y-188976D01*
X1266708D02*
Y-185041D01*
X1268676Y-183073D01*
X1270644Y-185041D01*
Y-188976D01*
Y-186025D01*
X1266708D01*
X1276547Y-184057D02*
X1275563Y-183073D01*
X1273595D01*
X1272611Y-184057D01*
Y-185041D01*
X1273595Y-186025D01*
X1275563D01*
X1276547Y-187009D01*
Y-187993D01*
X1275563Y-188976D01*
X1273595D01*
X1272611Y-187993D01*
X1282451Y-183073D02*
X1278515D01*
Y-186025D01*
X1280483Y-185041D01*
X1281467D01*
X1282451Y-186025D01*
Y-187993D01*
X1281467Y-188976D01*
X1279499D01*
X1278515Y-187993D01*
X1284418Y-183073D02*
X1288354D01*
Y-184057D01*
X1284418Y-187993D01*
Y-188976D01*
X1294258Y-183073D02*
X1290322D01*
Y-186025D01*
X1292290Y-185041D01*
X1293274D01*
X1294258Y-186025D01*
Y-187993D01*
X1293274Y-188976D01*
X1291306D01*
X1290322Y-187993D01*
X1300161Y-183073D02*
X1298194Y-184057D01*
X1296226Y-186025D01*
Y-187993D01*
X1297210Y-188976D01*
X1299177D01*
X1300161Y-187993D01*
Y-187009D01*
X1299177Y-186025D01*
X1296226D01*
X1302129Y-189960D02*
X1306065D01*
X1308033Y-184057D02*
X1309017Y-183073D01*
X1310985D01*
X1311969Y-184057D01*
Y-187993D01*
X1310985Y-188976D01*
X1309017D01*
X1308033Y-187993D01*
Y-184057D01*
X1313937Y-188976D02*
X1315904D01*
X1314921D01*
Y-183073D01*
X1313937Y-184057D01*
X1318856Y-188976D02*
Y-187993D01*
X1319840D01*
Y-188976D01*
X1318856D01*
X1323776D02*
Y-183073D01*
X1326728D01*
X1327712Y-184057D01*
Y-186025D01*
X1326728Y-187009D01*
X1323776D01*
X1333615Y-185041D02*
X1330663D01*
X1329679Y-186025D01*
Y-187993D01*
X1330663Y-188976D01*
X1333615D01*
X1335583Y-183073D02*
Y-188976D01*
X1338535D01*
X1339519Y-187993D01*
Y-187009D01*
Y-186025D01*
X1338535Y-185041D01*
X1335583D01*
X1341487Y-183073D02*
Y-188976D01*
X1344438D01*
X1345422Y-187993D01*
Y-184057D01*
X1344438Y-183073D01*
X1341487D01*
X1348374Y-188976D02*
X1350342D01*
X1351326Y-187993D01*
Y-186025D01*
X1350342Y-185041D01*
X1348374D01*
X1347390Y-186025D01*
Y-187993D01*
X1348374Y-188976D01*
X1357230Y-185041D02*
X1354278D01*
X1353294Y-186025D01*
Y-187993D01*
X1354278Y-188976D01*
X1357230D01*
D35*
X1202756Y-96461D02*
Y-110236D01*
X1209643D01*
X1211939Y-107940D01*
Y-105645D01*
X1209643Y-103349D01*
X1202756D01*
X1209643D01*
X1211939Y-101053D01*
Y-98757D01*
X1209643Y-96461D01*
X1202756D01*
X1218827Y-110236D02*
X1223419D01*
X1225714Y-107940D01*
Y-103349D01*
X1223419Y-101053D01*
X1218827D01*
X1216531Y-103349D01*
Y-107940D01*
X1218827Y-110236D01*
X1232602Y-98757D02*
Y-101053D01*
X1230306D01*
X1234898D01*
X1232602D01*
Y-107940D01*
X1234898Y-110236D01*
X1244081Y-98757D02*
Y-101053D01*
X1241785D01*
X1246377D01*
X1244081D01*
Y-107940D01*
X1246377Y-110236D01*
X1255560D02*
X1260152D01*
X1262448Y-107940D01*
Y-103349D01*
X1260152Y-101053D01*
X1255560D01*
X1253265Y-103349D01*
Y-107940D01*
X1255560Y-110236D01*
X1267040D02*
Y-101053D01*
X1269335D01*
X1271631Y-103349D01*
Y-110236D01*
Y-103349D01*
X1273927Y-101053D01*
X1276223Y-103349D01*
Y-110236D01*
X1301477Y-96461D02*
X1296886D01*
X1294590Y-98757D01*
Y-107940D01*
X1296886Y-110236D01*
X1301477D01*
X1303773Y-107940D01*
Y-98757D01*
X1301477Y-96461D01*
X1308365Y-101053D02*
X1312957Y-110236D01*
X1317548Y-101053D01*
X1329027Y-110236D02*
X1324436D01*
X1322140Y-107940D01*
Y-103349D01*
X1324436Y-101053D01*
X1329027D01*
X1331323Y-103349D01*
Y-105645D01*
X1322140D01*
X1335915Y-101053D02*
Y-110236D01*
Y-105645D01*
X1338211Y-103349D01*
X1340507Y-101053D01*
X1342803D01*
X1349690Y-110236D02*
X1354282D01*
X1351986D01*
Y-96461D01*
X1349690D01*
X1363465Y-101053D02*
X1368057D01*
X1370353Y-103349D01*
Y-110236D01*
X1363465D01*
X1361169Y-107940D01*
X1363465Y-105645D01*
X1370353D01*
X1374944Y-101053D02*
Y-107940D01*
X1377240Y-110236D01*
X1384128D01*
Y-112532D01*
X1381832Y-114828D01*
X1379536D01*
X1384128Y-110236D02*
Y-101053D01*
X1005906Y-175202D02*
Y-190945D01*
X1011153Y-185697D01*
X1016401Y-190945D01*
Y-175202D01*
X1021649Y-190945D02*
X1026896D01*
X1024272D01*
Y-180450D01*
X1021649D01*
X1034768Y-190945D02*
Y-180450D01*
X1037391D01*
X1040015Y-183073D01*
Y-190945D01*
Y-183073D01*
X1042639Y-180450D01*
X1045263Y-183073D01*
Y-190945D01*
X1050511Y-175202D02*
Y-185697D01*
X1055758Y-190945D01*
X1061006Y-185697D01*
Y-175202D01*
X1076749Y-177826D02*
X1074125Y-175202D01*
X1068877D01*
X1066253Y-177826D01*
Y-188321D01*
X1068877Y-190945D01*
X1074125D01*
X1076749Y-188321D01*
Y-183073D01*
X1071501D01*
X1360236Y-138456D02*
X1362860Y-135832D01*
X1368108D01*
X1370732Y-138456D01*
Y-148951D01*
X1368108Y-151575D01*
X1362860D01*
X1360236Y-148951D01*
Y-138456D01*
X1375979Y-151575D02*
X1381227D01*
X1378603D01*
Y-135832D01*
X1375979Y-138456D01*
X1206034Y-151575D02*
X1196850D01*
X1206034Y-142391D01*
Y-140096D01*
X1203738Y-137800D01*
X1199146D01*
X1196850Y-140096D01*
X1210625Y-149279D02*
X1212921Y-151575D01*
X1217513D01*
X1219809Y-149279D01*
Y-140096D01*
X1217513Y-137800D01*
X1212921D01*
X1210625Y-140096D01*
Y-142391D01*
X1212921Y-144687D01*
X1219809D01*
X1224401Y-151575D02*
X1233584Y-142391D01*
X1238176Y-140096D02*
X1240471Y-137800D01*
X1245063D01*
X1247359Y-140096D01*
Y-149279D01*
X1245063Y-151575D01*
X1240471D01*
X1238176Y-149279D01*
Y-140096D01*
X1251951D02*
X1254247Y-137800D01*
X1258838D01*
X1261134Y-140096D01*
Y-142391D01*
X1258838Y-144687D01*
X1261134Y-146983D01*
Y-149279D01*
X1258838Y-151575D01*
X1254247D01*
X1251951Y-149279D01*
Y-146983D01*
X1254247Y-144687D01*
X1251951Y-142391D01*
Y-140096D01*
X1254247Y-144687D02*
X1258838D01*
X1265726Y-151575D02*
X1274909Y-142391D01*
X1288684Y-151575D02*
X1279501D01*
X1288684Y-142391D01*
Y-140096D01*
X1286388Y-137800D01*
X1281797D01*
X1279501Y-140096D01*
X1293276D02*
X1295572Y-137800D01*
X1300163D01*
X1302459Y-140096D01*
Y-149279D01*
X1300163Y-151575D01*
X1295572D01*
X1293276Y-149279D01*
Y-140096D01*
X1307051Y-151575D02*
X1311643D01*
X1309347D01*
Y-137800D01*
X1307051Y-140096D01*
X1327714Y-137800D02*
X1318530D01*
Y-144687D01*
X1323122Y-142391D01*
X1325418D01*
X1327714Y-144687D01*
Y-149279D01*
X1325418Y-151575D01*
X1320826D01*
X1318530Y-149279D01*
X1190945Y-57092D02*
X1201440D01*
X1196192D01*
Y-72835D01*
X1206688D02*
Y-62339D01*
X1211936Y-57092D01*
X1217183Y-62339D01*
Y-72835D01*
Y-64963D01*
X1206688D01*
X1232926Y-59715D02*
X1230302Y-57092D01*
X1225055D01*
X1222431Y-59715D01*
Y-62339D01*
X1225055Y-64963D01*
X1230302D01*
X1232926Y-67587D01*
Y-70211D01*
X1230302Y-72835D01*
X1225055D01*
X1222431Y-70211D01*
X1248669Y-57092D02*
X1238174D01*
Y-64963D01*
X1243421Y-62339D01*
X1246045D01*
X1248669Y-64963D01*
Y-70211D01*
X1246045Y-72835D01*
X1240798D01*
X1238174Y-70211D01*
X1253917Y-57092D02*
X1264412D01*
Y-59715D01*
X1253917Y-70211D01*
Y-72835D01*
X1280155Y-57092D02*
X1269660D01*
Y-64963D01*
X1274907Y-62339D01*
X1277531D01*
X1280155Y-64963D01*
Y-70211D01*
X1277531Y-72835D01*
X1272283D01*
X1269660Y-70211D01*
X1295898Y-57092D02*
X1290650Y-59715D01*
X1285402Y-64963D01*
Y-70211D01*
X1288026Y-72835D01*
X1293274D01*
X1295898Y-70211D01*
Y-67587D01*
X1293274Y-64963D01*
X1285402D01*
X1316888Y-57092D02*
Y-72835D01*
Y-64963D01*
X1327384D01*
Y-57092D01*
Y-72835D01*
X1332631D02*
Y-62339D01*
X1337879Y-57092D01*
X1343127Y-62339D01*
Y-72835D01*
Y-64963D01*
X1332631D01*
X1348374Y-57092D02*
X1358870D01*
X1353622D01*
Y-72835D01*
D79*
X59055Y13780D02*
D03*
X145669D02*
D03*
X204724D02*
D03*
D80*
X224488D02*
D03*
M02*
