G04 Layer_Color=128*
%FSLAX25Y25*%
%MOIN*%
G70*
G01*
G75*
%ADD32C,0.00984*%
%ADD33C,0.00787*%
%ADD35C,0.01575*%
%ADD82C,0.00200*%
G36*
X1121080Y-83717D02*
Y-84003D01*
Y-84290D01*
Y-84576D01*
Y-84862D01*
Y-85149D01*
Y-85435D01*
Y-85721D01*
Y-86007D01*
Y-86294D01*
Y-86580D01*
Y-86866D01*
Y-87153D01*
Y-87439D01*
Y-87725D01*
Y-88012D01*
Y-88298D01*
Y-88584D01*
Y-88871D01*
Y-89157D01*
Y-89443D01*
X1120793D01*
Y-89730D01*
Y-90016D01*
Y-90302D01*
Y-90588D01*
Y-90875D01*
X1120507D01*
Y-91161D01*
Y-91448D01*
Y-91734D01*
Y-92020D01*
X1120221D01*
Y-92306D01*
Y-92593D01*
Y-92879D01*
Y-93165D01*
X1119934D01*
Y-93452D01*
Y-93738D01*
Y-94024D01*
X1119648D01*
Y-94311D01*
Y-94597D01*
Y-94883D01*
X1119362D01*
Y-95170D01*
Y-95456D01*
Y-95742D01*
X1119075D01*
Y-96029D01*
Y-96315D01*
Y-96601D01*
X1118789D01*
Y-96887D01*
Y-97174D01*
X1118503D01*
Y-97460D01*
Y-97746D01*
X1118217D01*
Y-98033D01*
Y-98319D01*
Y-98605D01*
X1117930D01*
Y-98892D01*
Y-99178D01*
X1117644D01*
Y-99464D01*
Y-99751D01*
Y-100037D01*
X1117358D01*
Y-100323D01*
Y-100610D01*
X1117071D01*
Y-100896D01*
Y-101182D01*
Y-101468D01*
X1116785D01*
Y-101755D01*
Y-102041D01*
X1116499D01*
Y-102327D01*
Y-102614D01*
Y-102900D01*
X1116212D01*
Y-103186D01*
Y-103473D01*
X1115926D01*
Y-103759D01*
Y-104045D01*
Y-104332D01*
X1115640D01*
Y-104618D01*
Y-104904D01*
X1115353D01*
Y-105191D01*
Y-105477D01*
Y-105763D01*
X1115067D01*
Y-106049D01*
Y-106336D01*
X1114781D01*
Y-106622D01*
Y-106908D01*
Y-107195D01*
X1114494D01*
Y-107481D01*
Y-107767D01*
X1114208D01*
Y-108054D01*
Y-108340D01*
Y-108626D01*
X1113922D01*
Y-108913D01*
Y-109199D01*
X1113636D01*
Y-109485D01*
Y-109772D01*
Y-110058D01*
X1113349D01*
Y-110344D01*
Y-110630D01*
X1113063D01*
Y-110917D01*
Y-111203D01*
Y-111489D01*
X1112776D01*
Y-111776D01*
Y-112062D01*
X1112490D01*
Y-112348D01*
Y-112635D01*
Y-112921D01*
X1112204D01*
Y-113207D01*
Y-113494D01*
X1111918D01*
Y-113780D01*
Y-114066D01*
Y-114353D01*
X1111631D01*
Y-114639D01*
Y-114925D01*
X1111345D01*
Y-115211D01*
Y-115498D01*
Y-115784D01*
X1111059D01*
Y-116070D01*
Y-116357D01*
X1110772D01*
Y-116643D01*
Y-116929D01*
Y-117216D01*
X1110486D01*
Y-117502D01*
Y-117788D01*
X1110200D01*
Y-118075D01*
Y-118361D01*
Y-118647D01*
X1109913D01*
Y-118933D01*
Y-119220D01*
X1109627D01*
Y-119506D01*
Y-119792D01*
Y-120079D01*
X1109341D01*
Y-120365D01*
Y-120651D01*
X1109054D01*
Y-120938D01*
Y-121224D01*
X1108768D01*
Y-121510D01*
Y-121797D01*
X1108482D01*
Y-122083D01*
Y-122369D01*
Y-122656D01*
X1108195D01*
Y-122942D01*
X1107909D01*
Y-123228D01*
Y-123514D01*
Y-123801D01*
X1107623D01*
Y-124087D01*
X1107337D01*
Y-124373D01*
Y-124660D01*
X1107050D01*
Y-124946D01*
Y-125232D01*
X1106764D01*
Y-125519D01*
Y-125805D01*
X1106478D01*
Y-126091D01*
Y-126378D01*
X1106191D01*
Y-126664D01*
X1105905D01*
Y-126950D01*
Y-127237D01*
X1105619D01*
Y-127523D01*
Y-127809D01*
X1105332D01*
Y-128095D01*
X1105046D01*
Y-128382D01*
X1104760D01*
Y-128668D01*
Y-128954D01*
X1104473D01*
Y-129241D01*
X1104187D01*
Y-129527D01*
Y-129813D01*
X1103901D01*
Y-130100D01*
X1103615D01*
Y-130386D01*
X1103328D01*
Y-130672D01*
Y-130959D01*
X1103042D01*
Y-131245D01*
X1102756D01*
Y-131531D01*
X1102469D01*
Y-131818D01*
X1102183D01*
Y-132104D01*
X1101897D01*
Y-132390D01*
Y-132676D01*
X1101610D01*
Y-132963D01*
X1101324D01*
Y-133249D01*
X1101038D01*
Y-133535D01*
X1100751D01*
Y-133822D01*
X1100465D01*
Y-134108D01*
X1100179D01*
Y-134394D01*
X1099892D01*
Y-134681D01*
X1099320D01*
Y-134967D01*
X1099034D01*
Y-135253D01*
X1098747D01*
Y-135540D01*
X1098461D01*
Y-135826D01*
X1098175D01*
Y-136112D01*
X1097602D01*
Y-136399D01*
X1097316D01*
Y-136685D01*
X1096743D01*
Y-136971D01*
X1096457D01*
Y-137258D01*
X1095884D01*
Y-137544D01*
X1095598D01*
Y-137830D01*
X1095025D01*
Y-138117D01*
X1094452D01*
Y-138403D01*
X1093880D01*
Y-138689D01*
X1093307D01*
Y-138975D01*
X1092735D01*
Y-139262D01*
X1091876D01*
Y-139548D01*
X1091303D01*
Y-139834D01*
X1090444D01*
Y-140121D01*
X1089299D01*
Y-140407D01*
X1088154D01*
Y-140693D01*
X1086436D01*
Y-140980D01*
X1084432D01*
Y-141266D01*
X1084145D01*
Y-140980D01*
Y-140693D01*
Y-140407D01*
Y-140121D01*
Y-139834D01*
Y-139548D01*
Y-139262D01*
Y-138975D01*
Y-138689D01*
Y-138403D01*
Y-138117D01*
Y-137830D01*
Y-137544D01*
Y-137258D01*
Y-136971D01*
Y-136685D01*
Y-136399D01*
Y-136112D01*
Y-135826D01*
Y-135540D01*
Y-135253D01*
Y-134967D01*
Y-134681D01*
Y-134394D01*
Y-134108D01*
Y-133822D01*
Y-133535D01*
Y-133249D01*
Y-132963D01*
Y-132676D01*
Y-132390D01*
Y-132104D01*
Y-131818D01*
X1084718D01*
Y-131531D01*
X1085291D01*
Y-131245D01*
X1085863D01*
Y-130959D01*
X1086436D01*
Y-130672D01*
X1087008D01*
Y-130386D01*
X1087581D01*
Y-130100D01*
X1087867D01*
Y-129813D01*
X1088440D01*
Y-129527D01*
X1088726D01*
Y-129241D01*
X1089299D01*
Y-128954D01*
X1089585D01*
Y-128668D01*
X1089872D01*
Y-128382D01*
X1090444D01*
Y-128095D01*
X1090730D01*
Y-127809D01*
X1091017D01*
Y-127523D01*
X1091303D01*
Y-127237D01*
X1091589D01*
Y-126950D01*
X1091876D01*
Y-126664D01*
X1092162D01*
Y-126378D01*
X1092448D01*
Y-126091D01*
X1092735D01*
Y-125805D01*
X1093021D01*
Y-125519D01*
X1093307D01*
Y-125232D01*
X1093594D01*
Y-124946D01*
Y-124660D01*
X1093880D01*
Y-124373D01*
X1094166D01*
Y-124087D01*
X1094452D01*
Y-123801D01*
Y-123514D01*
X1094739D01*
Y-123228D01*
X1095025D01*
Y-122942D01*
Y-122656D01*
X1095311D01*
Y-122369D01*
Y-122083D01*
X1095598D01*
Y-121797D01*
X1095884D01*
Y-121510D01*
Y-121224D01*
X1096170D01*
Y-120938D01*
Y-120651D01*
X1096457D01*
Y-120365D01*
Y-120079D01*
X1094739D01*
Y-119792D01*
X1092735D01*
Y-119506D01*
X1091589D01*
Y-119220D01*
X1091017D01*
Y-118933D01*
X1090158D01*
Y-118647D01*
X1089585D01*
Y-118361D01*
X1089299D01*
Y-118075D01*
X1088726D01*
Y-117788D01*
X1088440D01*
Y-117502D01*
X1088154D01*
Y-117216D01*
X1087867D01*
Y-116929D01*
X1087581D01*
Y-116643D01*
X1087295D01*
Y-116357D01*
Y-116070D01*
X1087008D01*
Y-115784D01*
X1086722D01*
Y-115498D01*
Y-115211D01*
X1086436D01*
Y-114925D01*
Y-114639D01*
X1086149D01*
Y-114353D01*
Y-114066D01*
X1085863D01*
Y-113780D01*
Y-113494D01*
Y-113207D01*
X1085577D01*
Y-112921D01*
Y-112635D01*
Y-112348D01*
Y-112062D01*
X1085291D01*
Y-111776D01*
Y-111489D01*
Y-111203D01*
Y-110917D01*
Y-110630D01*
Y-110344D01*
Y-110058D01*
X1085004D01*
Y-109772D01*
Y-109485D01*
Y-109199D01*
Y-108913D01*
Y-108626D01*
Y-108340D01*
Y-108054D01*
Y-107767D01*
Y-107481D01*
Y-107195D01*
Y-106908D01*
Y-106622D01*
Y-106336D01*
Y-106049D01*
Y-105763D01*
X1084718D01*
Y-105477D01*
Y-105191D01*
Y-104904D01*
Y-104618D01*
Y-104332D01*
Y-104045D01*
Y-103759D01*
Y-103473D01*
Y-103186D01*
Y-102900D01*
Y-102614D01*
Y-102327D01*
Y-102041D01*
Y-101755D01*
Y-101468D01*
X1084432D01*
Y-101182D01*
Y-100896D01*
Y-100610D01*
Y-100323D01*
Y-100037D01*
Y-99751D01*
Y-99464D01*
Y-99178D01*
Y-98892D01*
Y-98605D01*
Y-98319D01*
Y-98033D01*
Y-97746D01*
Y-97460D01*
Y-97174D01*
Y-96887D01*
X1084145D01*
Y-96601D01*
Y-96315D01*
Y-96029D01*
Y-95742D01*
Y-95456D01*
Y-95170D01*
Y-94883D01*
Y-94597D01*
Y-94311D01*
Y-94024D01*
Y-93738D01*
Y-93452D01*
Y-93165D01*
Y-92879D01*
Y-92593D01*
Y-92306D01*
X1083859D01*
Y-92020D01*
Y-91734D01*
Y-91448D01*
Y-91161D01*
Y-90875D01*
Y-90588D01*
Y-90302D01*
Y-90016D01*
Y-89730D01*
Y-89443D01*
Y-89157D01*
Y-88871D01*
Y-88584D01*
Y-88298D01*
X1083573D01*
Y-88012D01*
Y-87725D01*
Y-87439D01*
Y-87153D01*
Y-86866D01*
Y-86580D01*
Y-86294D01*
Y-86007D01*
Y-85721D01*
Y-85435D01*
Y-85149D01*
Y-84862D01*
Y-84576D01*
Y-84290D01*
Y-84003D01*
Y-83717D01*
X1083286D01*
Y-83431D01*
X1097029D01*
Y-83717D01*
Y-84003D01*
Y-84290D01*
Y-84576D01*
Y-84862D01*
Y-85149D01*
Y-85435D01*
Y-85721D01*
Y-86007D01*
Y-86294D01*
Y-86580D01*
Y-86866D01*
Y-87153D01*
Y-87439D01*
X1097316D01*
Y-87725D01*
Y-88012D01*
Y-88298D01*
Y-88584D01*
Y-88871D01*
Y-89157D01*
Y-89443D01*
Y-89730D01*
Y-90016D01*
Y-90302D01*
Y-90588D01*
Y-90875D01*
Y-91161D01*
Y-91448D01*
Y-91734D01*
Y-92020D01*
Y-92306D01*
Y-92593D01*
Y-92879D01*
Y-93165D01*
Y-93452D01*
Y-93738D01*
Y-94024D01*
Y-94311D01*
Y-94597D01*
Y-94883D01*
Y-95170D01*
Y-95456D01*
Y-95742D01*
Y-96029D01*
Y-96315D01*
Y-96601D01*
Y-96887D01*
Y-97174D01*
Y-97460D01*
Y-97746D01*
Y-98033D01*
Y-98319D01*
Y-98605D01*
Y-98892D01*
Y-99178D01*
X1097602D01*
Y-99464D01*
X1097316D01*
Y-99751D01*
Y-100037D01*
X1097602D01*
Y-100323D01*
Y-100610D01*
Y-100896D01*
Y-101182D01*
Y-101468D01*
Y-101755D01*
Y-102041D01*
Y-102327D01*
Y-102614D01*
Y-102900D01*
Y-103186D01*
Y-103473D01*
Y-103759D01*
Y-104045D01*
Y-104332D01*
Y-104618D01*
Y-104904D01*
Y-105191D01*
Y-105477D01*
Y-105763D01*
Y-106049D01*
Y-106336D01*
Y-106622D01*
Y-106908D01*
Y-107195D01*
Y-107481D01*
X1097888D01*
Y-107767D01*
Y-108054D01*
Y-108340D01*
X1098175D01*
Y-108626D01*
X1098461D01*
Y-108913D01*
X1098747D01*
Y-109199D01*
X1099606D01*
Y-109485D01*
X1100465D01*
Y-109199D01*
X1100751D01*
Y-108913D01*
Y-108626D01*
Y-108340D01*
X1101038D01*
Y-108054D01*
Y-107767D01*
X1101324D01*
Y-107481D01*
Y-107195D01*
Y-106908D01*
X1101610D01*
Y-106622D01*
Y-106336D01*
Y-106049D01*
X1101897D01*
Y-105763D01*
Y-105477D01*
Y-105191D01*
X1102183D01*
Y-104904D01*
Y-104618D01*
Y-104332D01*
X1102469D01*
Y-104045D01*
Y-103759D01*
X1102756D01*
Y-103473D01*
Y-103186D01*
Y-102900D01*
X1103042D01*
Y-102614D01*
Y-102327D01*
Y-102041D01*
X1103328D01*
Y-101755D01*
Y-101468D01*
Y-101182D01*
X1103615D01*
Y-100896D01*
Y-100610D01*
X1103901D01*
Y-100323D01*
Y-100037D01*
Y-99751D01*
X1104187D01*
Y-99464D01*
Y-99178D01*
Y-98892D01*
X1104473D01*
Y-98605D01*
Y-98319D01*
Y-98033D01*
X1104760D01*
Y-97746D01*
Y-97460D01*
X1105046D01*
Y-97174D01*
Y-96887D01*
Y-96601D01*
X1105332D01*
Y-96315D01*
Y-96029D01*
Y-95742D01*
X1105619D01*
Y-95456D01*
Y-95170D01*
Y-94883D01*
X1105905D01*
Y-94597D01*
Y-94311D01*
X1106191D01*
Y-94024D01*
Y-93738D01*
Y-93452D01*
X1106478D01*
Y-93165D01*
Y-92879D01*
Y-92593D01*
X1106764D01*
Y-92306D01*
Y-92020D01*
Y-91734D01*
X1107050D01*
Y-91448D01*
Y-91161D01*
Y-90875D01*
Y-90588D01*
X1107337D01*
Y-90302D01*
Y-90016D01*
Y-89730D01*
Y-89443D01*
X1107623D01*
Y-89157D01*
Y-88871D01*
Y-88584D01*
Y-88298D01*
Y-88012D01*
X1107909D01*
Y-87725D01*
Y-87439D01*
Y-87153D01*
Y-86866D01*
Y-86580D01*
Y-86294D01*
X1108195D01*
Y-86007D01*
Y-85721D01*
Y-85435D01*
Y-85149D01*
Y-84862D01*
Y-84576D01*
Y-84290D01*
Y-84003D01*
Y-83717D01*
Y-83431D01*
X1121080D01*
Y-83717D01*
D02*
G37*
G36*
X1063244Y-66252D02*
Y-66538D01*
X1062958D01*
Y-66825D01*
Y-67111D01*
Y-67397D01*
Y-67684D01*
Y-67970D01*
Y-68256D01*
X1062672D01*
Y-68542D01*
Y-68829D01*
Y-69115D01*
Y-69401D01*
Y-69688D01*
Y-69974D01*
X1062385D01*
Y-70260D01*
Y-70547D01*
Y-70833D01*
Y-71119D01*
Y-71406D01*
Y-71692D01*
Y-71978D01*
X1062099D01*
Y-72264D01*
Y-72551D01*
Y-72837D01*
Y-73123D01*
Y-73410D01*
Y-73696D01*
X1061813D01*
Y-73982D01*
Y-74269D01*
Y-74555D01*
Y-74841D01*
Y-75128D01*
Y-75414D01*
X1061526D01*
Y-75700D01*
Y-75987D01*
Y-76273D01*
Y-76559D01*
Y-76846D01*
Y-77132D01*
Y-77418D01*
X1061240D01*
Y-77704D01*
Y-77991D01*
Y-78277D01*
Y-78563D01*
Y-78850D01*
Y-79136D01*
X1060954D01*
Y-79422D01*
Y-79709D01*
Y-79995D01*
Y-80281D01*
Y-80568D01*
Y-80854D01*
X1060668D01*
Y-81140D01*
Y-81427D01*
Y-81713D01*
Y-81999D01*
Y-82285D01*
Y-82572D01*
X1060381D01*
Y-82858D01*
Y-83144D01*
Y-83431D01*
Y-83717D01*
Y-84003D01*
Y-84290D01*
Y-84576D01*
X1060095D01*
Y-84862D01*
Y-85149D01*
Y-85435D01*
Y-85721D01*
Y-86007D01*
Y-86294D01*
X1059809D01*
Y-86580D01*
Y-86866D01*
X1060381D01*
Y-86580D01*
X1060668D01*
Y-86294D01*
X1060954D01*
Y-86007D01*
X1061526D01*
Y-85721D01*
X1061813D01*
Y-85435D01*
X1062099D01*
Y-85149D01*
X1062672D01*
Y-84862D01*
X1063244D01*
Y-84576D01*
X1063531D01*
Y-84290D01*
X1064103D01*
Y-84003D01*
X1064962D01*
Y-83717D01*
X1065535D01*
Y-83431D01*
X1066394D01*
Y-83144D01*
X1067825D01*
Y-82858D01*
X1074124D01*
Y-83144D01*
X1075270D01*
Y-83431D01*
X1076128D01*
Y-83717D01*
X1076701D01*
Y-84003D01*
X1076987D01*
Y-84290D01*
X1077560D01*
Y-84576D01*
X1077846D01*
Y-84862D01*
X1078133D01*
Y-85149D01*
X1078419D01*
Y-85435D01*
X1078705D01*
Y-85721D01*
Y-86007D01*
X1078992D01*
Y-86294D01*
Y-86580D01*
X1079278D01*
Y-86866D01*
Y-87153D01*
Y-87439D01*
X1079564D01*
Y-87725D01*
Y-88012D01*
Y-88298D01*
Y-88584D01*
X1079850D01*
Y-88871D01*
Y-89157D01*
Y-89443D01*
Y-89730D01*
Y-90016D01*
Y-90302D01*
Y-90588D01*
Y-90875D01*
Y-91161D01*
Y-91448D01*
Y-91734D01*
Y-92020D01*
Y-92306D01*
Y-92593D01*
Y-92879D01*
Y-93165D01*
Y-93452D01*
Y-93738D01*
X1079564D01*
Y-94024D01*
Y-94311D01*
Y-94597D01*
Y-94883D01*
Y-95170D01*
Y-95456D01*
Y-95742D01*
X1079278D01*
Y-96029D01*
Y-96315D01*
Y-96601D01*
Y-96887D01*
Y-97174D01*
Y-97460D01*
Y-97746D01*
X1078992D01*
Y-98033D01*
Y-98319D01*
Y-98605D01*
Y-98892D01*
Y-99178D01*
Y-99464D01*
X1078705D01*
Y-99751D01*
Y-100037D01*
Y-100323D01*
Y-100610D01*
Y-100896D01*
Y-101182D01*
X1078419D01*
Y-101468D01*
Y-101755D01*
Y-102041D01*
Y-102327D01*
Y-102614D01*
Y-102900D01*
X1078133D01*
Y-103186D01*
Y-103473D01*
Y-103759D01*
Y-104045D01*
Y-104332D01*
Y-104618D01*
Y-104904D01*
X1077846D01*
Y-105191D01*
Y-105477D01*
Y-105763D01*
Y-106049D01*
Y-106336D01*
Y-106622D01*
X1077560D01*
Y-106908D01*
Y-107195D01*
Y-107481D01*
Y-107767D01*
Y-108054D01*
Y-108340D01*
X1077274D01*
Y-108626D01*
Y-108913D01*
Y-109199D01*
Y-109485D01*
Y-109772D01*
Y-110058D01*
Y-110344D01*
X1076987D01*
Y-110630D01*
Y-110917D01*
Y-111203D01*
Y-111489D01*
Y-111776D01*
Y-112062D01*
X1076701D01*
Y-112348D01*
Y-112635D01*
Y-112921D01*
Y-113207D01*
Y-113494D01*
Y-113780D01*
X1076415D01*
Y-114066D01*
Y-114353D01*
Y-114639D01*
Y-114925D01*
Y-115211D01*
Y-115498D01*
X1076128D01*
Y-115784D01*
Y-116070D01*
Y-116357D01*
Y-116643D01*
Y-116929D01*
Y-117216D01*
Y-117502D01*
X1075842D01*
Y-117788D01*
Y-118075D01*
Y-118361D01*
Y-118647D01*
Y-118933D01*
Y-119220D01*
X1075556D01*
Y-119506D01*
Y-119792D01*
X1062385D01*
Y-119506D01*
Y-119220D01*
X1062672D01*
Y-118933D01*
Y-118647D01*
Y-118361D01*
Y-118075D01*
Y-117788D01*
Y-117502D01*
X1062958D01*
Y-117216D01*
Y-116929D01*
Y-116643D01*
Y-116357D01*
Y-116070D01*
Y-115784D01*
Y-115498D01*
X1063244D01*
Y-115211D01*
Y-114925D01*
Y-114639D01*
Y-114353D01*
Y-114066D01*
Y-113780D01*
X1063531D01*
Y-113494D01*
Y-113207D01*
Y-112921D01*
Y-112635D01*
Y-112348D01*
Y-112062D01*
X1063817D01*
Y-111776D01*
Y-111489D01*
Y-111203D01*
Y-110917D01*
Y-110630D01*
Y-110344D01*
Y-110058D01*
X1064103D01*
Y-109772D01*
Y-109485D01*
Y-109199D01*
Y-108913D01*
Y-108626D01*
Y-108340D01*
X1064390D01*
Y-108054D01*
Y-107767D01*
Y-107481D01*
Y-107195D01*
Y-106908D01*
Y-106622D01*
Y-106336D01*
X1064676D01*
Y-106049D01*
Y-105763D01*
Y-105477D01*
Y-105191D01*
Y-104904D01*
Y-104618D01*
X1064962D01*
Y-104332D01*
Y-104045D01*
Y-103759D01*
Y-103473D01*
Y-103186D01*
Y-102900D01*
X1065249D01*
Y-102614D01*
Y-102327D01*
Y-102041D01*
Y-101755D01*
Y-101468D01*
Y-101182D01*
X1065535D01*
Y-100896D01*
Y-100610D01*
Y-100323D01*
Y-100037D01*
Y-99751D01*
Y-99464D01*
Y-99178D01*
X1065821D01*
Y-98892D01*
Y-98605D01*
Y-98319D01*
Y-98033D01*
Y-97746D01*
Y-97460D01*
X1066107D01*
Y-97174D01*
Y-96887D01*
Y-96601D01*
Y-96315D01*
Y-96029D01*
Y-95742D01*
Y-95456D01*
X1066394D01*
Y-95170D01*
Y-94883D01*
Y-94597D01*
Y-94311D01*
Y-94024D01*
Y-93738D01*
X1066107D01*
Y-93452D01*
Y-93165D01*
X1065821D01*
Y-92879D01*
X1065535D01*
Y-92593D01*
X1064962D01*
Y-92306D01*
X1063244D01*
Y-92593D01*
X1061813D01*
Y-92879D01*
X1060954D01*
Y-93165D01*
X1060381D01*
Y-93452D01*
X1060095D01*
Y-93738D01*
X1059522D01*
Y-94024D01*
X1059236D01*
Y-94311D01*
X1058950D01*
Y-94597D01*
Y-94883D01*
X1058663D01*
Y-95170D01*
Y-95456D01*
Y-95742D01*
X1058377D01*
Y-96029D01*
Y-96315D01*
Y-96601D01*
Y-96887D01*
Y-97174D01*
Y-97460D01*
X1058091D01*
Y-97746D01*
Y-98033D01*
Y-98319D01*
Y-98605D01*
Y-98892D01*
Y-99178D01*
Y-99464D01*
X1057804D01*
Y-99751D01*
Y-100037D01*
Y-100323D01*
Y-100610D01*
Y-100896D01*
Y-101182D01*
X1057518D01*
Y-101468D01*
Y-101755D01*
Y-102041D01*
Y-102327D01*
Y-102614D01*
Y-102900D01*
X1057232D01*
Y-103186D01*
Y-103473D01*
Y-103759D01*
Y-104045D01*
Y-104332D01*
Y-104618D01*
X1056946D01*
Y-104904D01*
Y-105191D01*
Y-105477D01*
Y-105763D01*
Y-106049D01*
Y-106336D01*
Y-106622D01*
X1056659D01*
Y-106908D01*
Y-107195D01*
Y-107481D01*
Y-107767D01*
Y-108054D01*
Y-108340D01*
X1056373D01*
Y-108626D01*
Y-108913D01*
Y-109199D01*
Y-109485D01*
Y-109772D01*
Y-110058D01*
X1056087D01*
Y-110344D01*
Y-110630D01*
Y-110917D01*
Y-111203D01*
Y-111489D01*
Y-111776D01*
Y-112062D01*
X1055800D01*
Y-112348D01*
Y-112635D01*
Y-112921D01*
Y-113207D01*
Y-113494D01*
Y-113780D01*
X1055514D01*
Y-114066D01*
Y-114353D01*
Y-114639D01*
Y-114925D01*
Y-115211D01*
Y-115498D01*
X1055228D01*
Y-115784D01*
Y-116070D01*
Y-116357D01*
Y-116643D01*
Y-116929D01*
Y-117216D01*
X1054941D01*
Y-117502D01*
Y-117788D01*
Y-118075D01*
Y-118361D01*
Y-118647D01*
Y-118933D01*
Y-119220D01*
X1054655D01*
Y-119506D01*
Y-119792D01*
X1041485D01*
Y-119506D01*
Y-119220D01*
X1041771D01*
Y-118933D01*
Y-118647D01*
Y-118361D01*
Y-118075D01*
Y-117788D01*
Y-117502D01*
Y-117216D01*
X1042057D01*
Y-116929D01*
Y-116643D01*
Y-116357D01*
Y-116070D01*
Y-115784D01*
Y-115498D01*
X1042344D01*
Y-115211D01*
Y-114925D01*
Y-114639D01*
Y-114353D01*
Y-114066D01*
Y-113780D01*
X1042630D01*
Y-113494D01*
Y-113207D01*
Y-112921D01*
Y-112635D01*
Y-112348D01*
Y-112062D01*
Y-111776D01*
X1042916D01*
Y-111489D01*
Y-111203D01*
Y-110917D01*
Y-110630D01*
Y-110344D01*
Y-110058D01*
X1043202D01*
Y-109772D01*
Y-109485D01*
Y-109199D01*
Y-108913D01*
Y-108626D01*
Y-108340D01*
X1043489D01*
Y-108054D01*
Y-107767D01*
Y-107481D01*
Y-107195D01*
Y-106908D01*
Y-106622D01*
X1043775D01*
Y-106336D01*
Y-106049D01*
Y-105763D01*
Y-105477D01*
Y-105191D01*
Y-104904D01*
Y-104618D01*
X1044061D01*
Y-104332D01*
Y-104045D01*
Y-103759D01*
Y-103473D01*
Y-103186D01*
Y-102900D01*
X1044348D01*
Y-102614D01*
Y-102327D01*
Y-102041D01*
Y-101755D01*
Y-101468D01*
Y-101182D01*
X1044634D01*
Y-100896D01*
Y-100610D01*
Y-100323D01*
Y-100037D01*
Y-99751D01*
Y-99464D01*
Y-99178D01*
X1044920D01*
Y-98892D01*
Y-98605D01*
Y-98319D01*
Y-98033D01*
Y-97746D01*
Y-97460D01*
X1045207D01*
Y-97174D01*
Y-96887D01*
Y-96601D01*
Y-96315D01*
Y-96029D01*
Y-95742D01*
X1045493D01*
Y-95456D01*
Y-95170D01*
Y-94883D01*
Y-94597D01*
Y-94311D01*
Y-94024D01*
X1045779D01*
Y-93738D01*
Y-93452D01*
Y-93165D01*
Y-92879D01*
Y-92593D01*
Y-92306D01*
Y-92020D01*
X1046066D01*
Y-91734D01*
Y-91448D01*
Y-91161D01*
Y-90875D01*
Y-90588D01*
Y-90302D01*
X1046352D01*
Y-90016D01*
Y-89730D01*
Y-89443D01*
Y-89157D01*
Y-88871D01*
Y-88584D01*
X1046638D01*
Y-88298D01*
Y-88012D01*
Y-87725D01*
Y-87439D01*
Y-87153D01*
Y-86866D01*
X1046925D01*
Y-86580D01*
Y-86294D01*
Y-86007D01*
Y-85721D01*
Y-85435D01*
Y-85149D01*
Y-84862D01*
X1047211D01*
Y-84576D01*
Y-84290D01*
Y-84003D01*
Y-83717D01*
Y-83431D01*
Y-83144D01*
X1047497D01*
Y-82858D01*
Y-82572D01*
Y-82285D01*
Y-81999D01*
Y-81713D01*
Y-81427D01*
X1047783D01*
Y-81140D01*
Y-80854D01*
Y-80568D01*
Y-80281D01*
Y-79995D01*
Y-79709D01*
Y-79422D01*
X1048070D01*
Y-79136D01*
Y-78850D01*
Y-78563D01*
Y-78277D01*
Y-77991D01*
Y-77704D01*
X1048356D01*
Y-77418D01*
Y-77132D01*
Y-76846D01*
Y-76559D01*
Y-76273D01*
Y-75987D01*
X1048642D01*
Y-75700D01*
Y-75414D01*
Y-75128D01*
Y-74841D01*
Y-74555D01*
Y-74269D01*
X1048929D01*
Y-73982D01*
Y-73696D01*
Y-73410D01*
Y-73123D01*
Y-72837D01*
Y-72551D01*
Y-72264D01*
X1049215D01*
Y-71978D01*
Y-71692D01*
Y-71406D01*
Y-71119D01*
Y-70833D01*
Y-70547D01*
X1049501D01*
Y-70260D01*
Y-69974D01*
Y-69688D01*
Y-69401D01*
Y-69115D01*
Y-68829D01*
X1049788D01*
Y-68542D01*
Y-68256D01*
Y-67970D01*
Y-67684D01*
Y-67397D01*
Y-67111D01*
Y-66825D01*
X1050074D01*
Y-66538D01*
Y-66252D01*
Y-65966D01*
X1063244D01*
Y-66252D01*
D02*
G37*
G36*
X1032036Y-69688D02*
X1033754D01*
Y-69974D01*
X1034613D01*
Y-70260D01*
X1035472D01*
Y-70547D01*
X1036331D01*
Y-70833D01*
X1036904D01*
Y-71119D01*
X1037190D01*
Y-71406D01*
X1037763D01*
Y-71692D01*
X1038049D01*
Y-71978D01*
X1038622D01*
Y-72264D01*
X1038908D01*
Y-72551D01*
X1039194D01*
Y-72837D01*
X1039480D01*
Y-73123D01*
X1039767D01*
Y-73410D01*
X1040053D01*
Y-73696D01*
X1040339D01*
Y-73982D01*
Y-74269D01*
X1040626D01*
Y-74555D01*
X1040912D01*
Y-74841D01*
Y-75128D01*
X1041198D01*
Y-75414D01*
X1041485D01*
Y-75700D01*
Y-75987D01*
X1041771D01*
Y-76273D01*
Y-76559D01*
Y-76846D01*
X1042057D01*
Y-77132D01*
Y-77418D01*
Y-77704D01*
X1042344D01*
Y-77991D01*
Y-78277D01*
Y-78563D01*
Y-78850D01*
X1042630D01*
Y-79136D01*
Y-79422D01*
Y-79709D01*
Y-79995D01*
Y-80281D01*
X1042916D01*
Y-80568D01*
Y-80854D01*
Y-81140D01*
Y-81427D01*
Y-81713D01*
Y-81999D01*
Y-82285D01*
Y-82572D01*
Y-82858D01*
Y-83144D01*
Y-83431D01*
Y-83717D01*
Y-84003D01*
Y-84290D01*
Y-84576D01*
Y-84862D01*
Y-85149D01*
Y-85435D01*
Y-85721D01*
Y-86007D01*
X1042630D01*
Y-86294D01*
Y-86580D01*
Y-86866D01*
Y-87153D01*
Y-87439D01*
Y-87725D01*
Y-88012D01*
X1042344D01*
Y-88298D01*
Y-88584D01*
Y-88871D01*
Y-89157D01*
Y-89443D01*
X1042057D01*
Y-89730D01*
Y-90016D01*
Y-90302D01*
Y-90588D01*
Y-90875D01*
X1041771D01*
Y-91161D01*
Y-91448D01*
Y-91734D01*
X1041485D01*
Y-92020D01*
Y-92306D01*
Y-92593D01*
Y-92879D01*
X1041198D01*
Y-93165D01*
Y-93452D01*
Y-93738D01*
X1040912D01*
Y-94024D01*
Y-94311D01*
X1040626D01*
Y-94597D01*
Y-94883D01*
Y-95170D01*
X1040339D01*
Y-95456D01*
Y-95742D01*
X1040053D01*
Y-96029D01*
Y-96315D01*
X1039767D01*
Y-96601D01*
Y-96887D01*
X1039480D01*
Y-97174D01*
X1039194D01*
Y-97460D01*
Y-97746D01*
X1038908D01*
Y-98033D01*
X1038622D01*
Y-98319D01*
X1038335D01*
Y-98605D01*
Y-98892D01*
X1038049D01*
Y-99178D01*
X1037763D01*
Y-99464D01*
X1037476D01*
Y-99751D01*
X1037190D01*
Y-100037D01*
X1036904D01*
Y-100323D01*
X1036331D01*
Y-100610D01*
X1036045D01*
Y-100896D01*
X1035472D01*
Y-101182D01*
X1035186D01*
Y-101468D01*
X1034613D01*
Y-101755D01*
X1033754D01*
Y-102041D01*
X1032895D01*
Y-102327D01*
X1032036D01*
Y-102614D01*
X1030318D01*
Y-102900D01*
X1025165D01*
Y-102614D01*
X1022588D01*
Y-102327D01*
X1020584D01*
Y-102041D01*
X1019152D01*
Y-101755D01*
X1017721D01*
Y-101468D01*
X1016289D01*
Y-101755D01*
Y-102041D01*
Y-102327D01*
Y-102614D01*
Y-102900D01*
Y-103186D01*
Y-103473D01*
X1016003D01*
Y-103759D01*
Y-104045D01*
Y-104332D01*
Y-104618D01*
Y-104904D01*
Y-105191D01*
X1015716D01*
Y-105477D01*
Y-105763D01*
Y-106049D01*
Y-106336D01*
Y-106622D01*
Y-106908D01*
X1015430D01*
Y-107195D01*
Y-107481D01*
Y-107767D01*
Y-108054D01*
Y-108340D01*
Y-108626D01*
Y-108913D01*
X1015144D01*
Y-109199D01*
Y-109485D01*
Y-109772D01*
Y-110058D01*
Y-110344D01*
Y-110630D01*
X1014857D01*
Y-110917D01*
Y-111203D01*
Y-111489D01*
Y-111776D01*
Y-112062D01*
Y-112348D01*
X1014571D01*
Y-112635D01*
Y-112921D01*
Y-113207D01*
Y-113494D01*
Y-113780D01*
Y-114066D01*
Y-114353D01*
X1014285D01*
Y-114639D01*
Y-114925D01*
Y-115211D01*
Y-115498D01*
Y-115784D01*
Y-116070D01*
X1013999D01*
Y-116357D01*
Y-116643D01*
Y-116929D01*
Y-117216D01*
Y-117502D01*
Y-117788D01*
X1013712D01*
Y-118075D01*
Y-118361D01*
Y-118647D01*
Y-118933D01*
Y-119220D01*
Y-119506D01*
Y-119792D01*
X1000256D01*
Y-119506D01*
X1000542D01*
Y-119220D01*
Y-118933D01*
Y-118647D01*
Y-118361D01*
Y-118075D01*
X1000828D01*
Y-117788D01*
Y-117502D01*
Y-117216D01*
Y-116929D01*
Y-116643D01*
Y-116357D01*
Y-116070D01*
X1001114D01*
Y-115784D01*
Y-115498D01*
Y-115211D01*
Y-114925D01*
Y-114639D01*
Y-114353D01*
X1001401D01*
Y-114066D01*
Y-113780D01*
Y-113494D01*
Y-113207D01*
Y-112921D01*
Y-112635D01*
X1001687D01*
Y-112348D01*
Y-112062D01*
Y-111776D01*
Y-111489D01*
Y-111203D01*
Y-110917D01*
Y-110630D01*
X1001974D01*
Y-110344D01*
Y-110058D01*
Y-109772D01*
Y-109485D01*
Y-109199D01*
Y-108913D01*
X1002260D01*
Y-108626D01*
Y-108340D01*
Y-108054D01*
Y-107767D01*
Y-107481D01*
Y-107195D01*
X1002546D01*
Y-106908D01*
Y-106622D01*
Y-106336D01*
Y-106049D01*
Y-105763D01*
Y-105477D01*
X1002832D01*
Y-105191D01*
Y-104904D01*
Y-104618D01*
Y-104332D01*
Y-104045D01*
Y-103759D01*
Y-103473D01*
X1003119D01*
Y-103186D01*
Y-102900D01*
Y-102614D01*
Y-102327D01*
Y-102041D01*
Y-101755D01*
X1003405D01*
Y-101468D01*
Y-101182D01*
Y-100896D01*
Y-100610D01*
Y-100323D01*
Y-100037D01*
X1003691D01*
Y-99751D01*
Y-99464D01*
Y-99178D01*
Y-98892D01*
Y-98605D01*
Y-98319D01*
X1003978D01*
Y-98033D01*
Y-97746D01*
Y-97460D01*
Y-97174D01*
Y-96887D01*
Y-96601D01*
Y-96315D01*
X1004264D01*
Y-96029D01*
Y-95742D01*
Y-95456D01*
Y-95170D01*
Y-94883D01*
Y-94597D01*
X1004550D01*
Y-94311D01*
Y-94024D01*
Y-93738D01*
Y-93452D01*
Y-93165D01*
Y-92879D01*
X1004837D01*
Y-92593D01*
Y-92306D01*
Y-92020D01*
Y-91734D01*
Y-91448D01*
Y-91161D01*
Y-90875D01*
X1005123D01*
Y-90588D01*
Y-90302D01*
Y-90016D01*
Y-89730D01*
Y-89443D01*
Y-89157D01*
X1005409D01*
Y-88871D01*
Y-88584D01*
Y-88298D01*
Y-88012D01*
Y-87725D01*
Y-87439D01*
X1005696D01*
Y-87153D01*
Y-86866D01*
Y-86580D01*
Y-86294D01*
Y-86007D01*
Y-85721D01*
X1005982D01*
Y-85435D01*
Y-85149D01*
Y-84862D01*
Y-84576D01*
Y-84290D01*
Y-84003D01*
Y-83717D01*
X1006268D01*
Y-83431D01*
Y-83144D01*
Y-82858D01*
Y-82572D01*
Y-82285D01*
Y-81999D01*
X1006555D01*
Y-81713D01*
Y-81427D01*
Y-81140D01*
Y-80854D01*
Y-80568D01*
Y-80281D01*
X1006841D01*
Y-79995D01*
Y-79709D01*
Y-79422D01*
Y-79136D01*
Y-78850D01*
Y-78563D01*
Y-78277D01*
X1007127D01*
Y-77991D01*
Y-77704D01*
Y-77418D01*
Y-77132D01*
Y-76846D01*
Y-76559D01*
X1007413D01*
Y-76273D01*
Y-75987D01*
Y-75700D01*
Y-75414D01*
Y-75128D01*
Y-74841D01*
X1007700D01*
Y-74555D01*
Y-74269D01*
Y-73982D01*
Y-73696D01*
Y-73410D01*
Y-73123D01*
Y-72837D01*
X1007986D01*
Y-72551D01*
Y-72264D01*
Y-71978D01*
Y-71692D01*
Y-71406D01*
Y-71119D01*
X1008272D01*
Y-70833D01*
Y-70547D01*
Y-70260D01*
Y-69974D01*
Y-69688D01*
Y-69401D01*
X1032036D01*
Y-69688D01*
D02*
G37*
G36*
X1165172Y-83717D02*
X1164886D01*
Y-84003D01*
X1164599D01*
Y-84290D01*
Y-84576D01*
X1164313D01*
Y-84862D01*
X1164027D01*
Y-85149D01*
X1163740D01*
Y-85435D01*
Y-85721D01*
X1163454D01*
Y-86007D01*
X1163168D01*
Y-86294D01*
X1162881D01*
Y-86580D01*
X1162595D01*
Y-86866D01*
Y-87153D01*
X1162309D01*
Y-87439D01*
X1162022D01*
Y-87725D01*
X1161736D01*
Y-88012D01*
Y-88298D01*
X1161450D01*
Y-88584D01*
X1161163D01*
Y-88871D01*
X1160877D01*
Y-89157D01*
X1160591D01*
Y-89443D01*
Y-89730D01*
X1160305D01*
Y-90016D01*
X1160018D01*
Y-90302D01*
X1159732D01*
Y-90588D01*
Y-90875D01*
X1159445D01*
Y-91161D01*
X1159159D01*
Y-91448D01*
X1158873D01*
Y-91734D01*
Y-92020D01*
X1158587D01*
Y-92306D01*
X1158300D01*
Y-92593D01*
X1158014D01*
Y-92879D01*
X1157728D01*
Y-93165D01*
Y-93452D01*
X1157441D01*
Y-93738D01*
X1157155D01*
Y-94024D01*
X1156869D01*
Y-94311D01*
Y-94597D01*
X1156582D01*
Y-94883D01*
X1156296D01*
Y-95170D01*
X1156010D01*
Y-95456D01*
Y-95742D01*
X1155723D01*
Y-96029D01*
X1155437D01*
Y-96315D01*
X1155151D01*
Y-96601D01*
X1154865D01*
Y-96887D01*
Y-97174D01*
X1154578D01*
Y-97460D01*
X1154292D01*
Y-97746D01*
X1154006D01*
Y-98033D01*
Y-98319D01*
X1153719D01*
Y-98605D01*
X1153433D01*
Y-98892D01*
X1153147D01*
Y-99178D01*
Y-99464D01*
X1152860D01*
Y-99751D01*
X1152574D01*
Y-100037D01*
X1152288D01*
Y-100323D01*
X1152001D01*
Y-100610D01*
Y-100896D01*
X1151715D01*
Y-101182D01*
X1151429D01*
Y-101468D01*
X1151142D01*
Y-101755D01*
Y-102041D01*
X1150856D01*
Y-102327D01*
X1150570D01*
Y-102614D01*
X1150284D01*
Y-102900D01*
X1149997D01*
Y-103186D01*
Y-103473D01*
X1150284D01*
Y-103759D01*
Y-104045D01*
X1150570D01*
Y-104332D01*
Y-104618D01*
X1150856D01*
Y-104904D01*
X1151142D01*
Y-105191D01*
Y-105477D01*
X1151429D01*
Y-105763D01*
Y-106049D01*
X1151715D01*
Y-106336D01*
Y-106622D01*
X1152001D01*
Y-106908D01*
Y-107195D01*
X1152288D01*
Y-107481D01*
Y-107767D01*
X1152574D01*
Y-108054D01*
Y-108340D01*
X1152860D01*
Y-108626D01*
Y-108913D01*
X1153147D01*
Y-109199D01*
Y-109485D01*
X1153433D01*
Y-109772D01*
X1153719D01*
Y-110058D01*
Y-110344D01*
X1154006D01*
Y-110630D01*
Y-110917D01*
X1154292D01*
Y-111203D01*
Y-111489D01*
X1154578D01*
Y-111776D01*
Y-112062D01*
X1154865D01*
Y-112348D01*
Y-112635D01*
X1155151D01*
Y-112921D01*
Y-113207D01*
X1155437D01*
Y-113494D01*
Y-113780D01*
X1155723D01*
Y-114066D01*
X1156010D01*
Y-114353D01*
Y-114639D01*
X1156296D01*
Y-114925D01*
Y-115211D01*
X1156582D01*
Y-115498D01*
Y-115784D01*
X1156869D01*
Y-116070D01*
Y-116357D01*
X1157155D01*
Y-116643D01*
Y-116929D01*
X1157441D01*
Y-117216D01*
Y-117502D01*
X1157728D01*
Y-117788D01*
Y-118075D01*
X1158014D01*
Y-118361D01*
X1158300D01*
Y-118647D01*
Y-118933D01*
X1158587D01*
Y-119220D01*
Y-119506D01*
X1158873D01*
Y-119792D01*
X1143698D01*
Y-119506D01*
X1143412D01*
Y-119220D01*
Y-118933D01*
Y-118647D01*
X1143126D01*
Y-118361D01*
Y-118075D01*
Y-117788D01*
X1142839D01*
Y-117502D01*
Y-117216D01*
X1142553D01*
Y-116929D01*
Y-116643D01*
Y-116357D01*
X1142267D01*
Y-116070D01*
Y-115784D01*
Y-115498D01*
X1141980D01*
Y-115211D01*
Y-114925D01*
X1141694D01*
Y-114639D01*
Y-114353D01*
Y-114066D01*
X1141408D01*
Y-113780D01*
Y-113494D01*
Y-113207D01*
X1141121D01*
Y-112921D01*
Y-112635D01*
Y-112348D01*
X1140835D01*
Y-112062D01*
X1140263D01*
Y-112348D01*
Y-112635D01*
X1139976D01*
Y-112921D01*
X1139690D01*
Y-113207D01*
Y-113494D01*
X1139404D01*
Y-113780D01*
X1139117D01*
Y-114066D01*
Y-114353D01*
X1138831D01*
Y-114639D01*
X1138545D01*
Y-114925D01*
Y-115211D01*
X1138258D01*
Y-115498D01*
X1137972D01*
Y-115784D01*
X1137686D01*
Y-116070D01*
Y-116357D01*
X1137399D01*
Y-116643D01*
X1137113D01*
Y-116929D01*
Y-117216D01*
X1136827D01*
Y-117502D01*
X1136541D01*
Y-117788D01*
Y-118075D01*
X1136254D01*
Y-118361D01*
X1135968D01*
Y-118647D01*
Y-118933D01*
X1135682D01*
Y-119220D01*
X1135395D01*
Y-119506D01*
Y-119792D01*
X1119362D01*
Y-119506D01*
X1119648D01*
Y-119220D01*
X1119934D01*
Y-118933D01*
X1120221D01*
Y-118647D01*
X1120507D01*
Y-118361D01*
Y-118075D01*
X1120793D01*
Y-117788D01*
X1121080D01*
Y-117502D01*
X1121366D01*
Y-117216D01*
X1121652D01*
Y-116929D01*
Y-116643D01*
X1121939D01*
Y-116357D01*
X1122225D01*
Y-116070D01*
X1122511D01*
Y-115784D01*
Y-115498D01*
X1122797D01*
Y-115211D01*
X1123084D01*
Y-114925D01*
X1123370D01*
Y-114639D01*
X1123656D01*
Y-114353D01*
Y-114066D01*
X1123943D01*
Y-113780D01*
X1124229D01*
Y-113494D01*
X1124515D01*
Y-113207D01*
X1124802D01*
Y-112921D01*
Y-112635D01*
X1125088D01*
Y-112348D01*
X1125374D01*
Y-112062D01*
X1125661D01*
Y-111776D01*
Y-111489D01*
X1125947D01*
Y-111203D01*
X1126233D01*
Y-110917D01*
X1126519D01*
Y-110630D01*
X1126806D01*
Y-110344D01*
Y-110058D01*
X1127092D01*
Y-109772D01*
X1127378D01*
Y-109485D01*
X1127665D01*
Y-109199D01*
Y-108913D01*
X1127951D01*
Y-108626D01*
X1128237D01*
Y-108340D01*
X1128524D01*
Y-108054D01*
X1128810D01*
Y-107767D01*
Y-107481D01*
X1129096D01*
Y-107195D01*
X1129383D01*
Y-106908D01*
X1129669D01*
Y-106622D01*
Y-106336D01*
X1129955D01*
Y-106049D01*
X1130242D01*
Y-105763D01*
X1130528D01*
Y-105477D01*
X1130814D01*
Y-105191D01*
Y-104904D01*
X1131100D01*
Y-104618D01*
X1131387D01*
Y-104332D01*
X1131673D01*
Y-104045D01*
X1131960D01*
Y-103759D01*
Y-103473D01*
X1132246D01*
Y-103186D01*
X1132532D01*
Y-102900D01*
X1132818D01*
Y-102614D01*
Y-102327D01*
X1133105D01*
Y-102041D01*
X1133391D01*
Y-101755D01*
X1133677D01*
Y-101468D01*
X1133964D01*
Y-101182D01*
Y-100896D01*
X1134250D01*
Y-100610D01*
Y-100323D01*
Y-100037D01*
X1133964D01*
Y-99751D01*
X1133677D01*
Y-99464D01*
Y-99178D01*
X1133391D01*
Y-98892D01*
Y-98605D01*
X1133105D01*
Y-98319D01*
Y-98033D01*
X1132818D01*
Y-97746D01*
Y-97460D01*
X1132532D01*
Y-97174D01*
Y-96887D01*
X1132246D01*
Y-96601D01*
Y-96315D01*
X1131960D01*
Y-96029D01*
X1131673D01*
Y-95742D01*
Y-95456D01*
X1131387D01*
Y-95170D01*
Y-94883D01*
X1131100D01*
Y-94597D01*
Y-94311D01*
X1130814D01*
Y-94024D01*
Y-93738D01*
X1130528D01*
Y-93452D01*
Y-93165D01*
X1130242D01*
Y-92879D01*
Y-92593D01*
X1129955D01*
Y-92306D01*
X1129669D01*
Y-92020D01*
Y-91734D01*
X1129383D01*
Y-91448D01*
Y-91161D01*
X1129096D01*
Y-90875D01*
Y-90588D01*
X1128810D01*
Y-90302D01*
Y-90016D01*
X1128524D01*
Y-89730D01*
Y-89443D01*
X1128237D01*
Y-89157D01*
Y-88871D01*
X1127951D01*
Y-88584D01*
Y-88298D01*
X1127665D01*
Y-88012D01*
X1127378D01*
Y-87725D01*
Y-87439D01*
X1127092D01*
Y-87153D01*
Y-86866D01*
X1126806D01*
Y-86580D01*
Y-86294D01*
X1126519D01*
Y-86007D01*
Y-85721D01*
X1126233D01*
Y-85435D01*
Y-85149D01*
X1125947D01*
Y-84862D01*
Y-84576D01*
X1125661D01*
Y-84290D01*
X1125374D01*
Y-84003D01*
Y-83717D01*
X1125088D01*
Y-83431D01*
X1140835D01*
Y-83717D01*
X1141121D01*
Y-84003D01*
Y-84290D01*
Y-84576D01*
X1141408D01*
Y-84862D01*
Y-85149D01*
Y-85435D01*
X1141694D01*
Y-85721D01*
Y-86007D01*
Y-86294D01*
X1141980D01*
Y-86580D01*
Y-86866D01*
Y-87153D01*
X1142267D01*
Y-87439D01*
Y-87725D01*
Y-88012D01*
X1142553D01*
Y-88298D01*
Y-88584D01*
Y-88871D01*
X1142839D01*
Y-89157D01*
Y-89443D01*
Y-89730D01*
X1143126D01*
Y-90016D01*
Y-90302D01*
Y-90588D01*
X1143412D01*
Y-90875D01*
Y-91161D01*
Y-91448D01*
Y-91734D01*
X1143985D01*
Y-91448D01*
X1144271D01*
Y-91161D01*
X1144557D01*
Y-90875D01*
Y-90588D01*
X1144844D01*
Y-90302D01*
X1145130D01*
Y-90016D01*
Y-89730D01*
X1145416D01*
Y-89443D01*
X1145702D01*
Y-89157D01*
Y-88871D01*
X1145989D01*
Y-88584D01*
X1146275D01*
Y-88298D01*
Y-88012D01*
X1146561D01*
Y-87725D01*
X1146848D01*
Y-87439D01*
Y-87153D01*
X1147134D01*
Y-86866D01*
X1147420D01*
Y-86580D01*
Y-86294D01*
X1147707D01*
Y-86007D01*
X1147993D01*
Y-85721D01*
Y-85435D01*
X1148279D01*
Y-85149D01*
X1148566D01*
Y-84862D01*
Y-84576D01*
X1148852D01*
Y-84290D01*
X1149138D01*
Y-84003D01*
Y-83717D01*
X1149425D01*
Y-83431D01*
X1165172D01*
Y-83717D01*
D02*
G37*
%LPC*%
G36*
X1027742Y-80568D02*
X1019725D01*
Y-80854D01*
Y-81140D01*
Y-81427D01*
Y-81713D01*
Y-81999D01*
X1019438D01*
Y-82285D01*
Y-82572D01*
Y-82858D01*
Y-83144D01*
Y-83431D01*
Y-83717D01*
X1019152D01*
Y-84003D01*
Y-84290D01*
Y-84576D01*
Y-84862D01*
Y-85149D01*
Y-85435D01*
X1018866D01*
Y-85721D01*
Y-86007D01*
Y-86294D01*
Y-86580D01*
Y-86866D01*
Y-87153D01*
X1018580D01*
Y-87439D01*
Y-87725D01*
Y-88012D01*
Y-88298D01*
Y-88584D01*
Y-88871D01*
Y-89157D01*
X1018293D01*
Y-89443D01*
Y-89730D01*
Y-90016D01*
Y-90302D01*
Y-90588D01*
Y-90875D01*
X1018007D01*
Y-91161D01*
Y-91448D01*
Y-91734D01*
X1025165D01*
Y-91448D01*
X1026310D01*
Y-91161D01*
X1026883D01*
Y-90875D01*
X1027169D01*
Y-90588D01*
X1027455D01*
Y-90302D01*
X1027742D01*
Y-90016D01*
X1028028D01*
Y-89730D01*
Y-89443D01*
X1028314D01*
Y-89157D01*
Y-88871D01*
X1028601D01*
Y-88584D01*
Y-88298D01*
X1028887D01*
Y-88012D01*
Y-87725D01*
Y-87439D01*
Y-87153D01*
X1029173D01*
Y-86866D01*
Y-86580D01*
Y-86294D01*
Y-86007D01*
Y-85721D01*
X1029459D01*
Y-85435D01*
Y-85149D01*
Y-84862D01*
Y-84576D01*
Y-84290D01*
Y-84003D01*
Y-83717D01*
Y-83431D01*
Y-83144D01*
Y-82858D01*
Y-82572D01*
X1029173D01*
Y-82285D01*
Y-81999D01*
X1028887D01*
Y-81713D01*
Y-81427D01*
X1028601D01*
Y-81140D01*
X1028314D01*
Y-80854D01*
X1027742D01*
Y-80568D01*
D02*
G37*
%LPD*%
D32*
X1342520Y-129921D02*
Y-122050D01*
X1346455D01*
X1347767Y-123362D01*
Y-125986D01*
X1346455Y-127297D01*
X1342520D01*
X1345144D02*
X1347767Y-129921D01*
X1354327D02*
X1351703D01*
X1350391Y-128609D01*
Y-125986D01*
X1351703Y-124674D01*
X1354327D01*
X1355639Y-125986D01*
Y-127297D01*
X1350391D01*
X1358263Y-124674D02*
X1360886Y-129921D01*
X1363510Y-124674D01*
X988189Y-161420D02*
Y-169291D01*
X992125D01*
X993437Y-167979D01*
Y-162732D01*
X992125Y-161420D01*
X988189D01*
X999996Y-169291D02*
X997372D01*
X996060Y-167979D01*
Y-165356D01*
X997372Y-164044D01*
X999996D01*
X1001308Y-165356D01*
Y-166667D01*
X996060D01*
X1003932Y-169291D02*
X1007868D01*
X1009180Y-167979D01*
X1007868Y-166667D01*
X1005244D01*
X1003932Y-165356D01*
X1005244Y-164044D01*
X1009180D01*
X1014427Y-171915D02*
X1015739D01*
X1017051Y-170603D01*
Y-164044D01*
X1013115D01*
X1011803Y-165356D01*
Y-167979D01*
X1013115Y-169291D01*
X1017051D01*
X1019675D02*
X1022299D01*
X1020987D01*
Y-164044D01*
X1019675D01*
X1026235Y-169291D02*
Y-164044D01*
X1030170D01*
X1031482Y-165356D01*
Y-169291D01*
X1038042D02*
X1035418D01*
X1034106Y-167979D01*
Y-165356D01*
X1035418Y-164044D01*
X1038042D01*
X1039354Y-165356D01*
Y-166667D01*
X1034106D01*
X1041977Y-164044D02*
Y-169291D01*
Y-166667D01*
X1043289Y-165356D01*
X1044601Y-164044D01*
X1045913D01*
X1185039Y-43310D02*
Y-51181D01*
X1188975D01*
X1190287Y-49869D01*
Y-44622D01*
X1188975Y-43310D01*
X1185039D01*
X1194223Y-51181D02*
X1196847D01*
X1198158Y-49869D01*
Y-47245D01*
X1196847Y-45933D01*
X1194223D01*
X1192911Y-47245D01*
Y-49869D01*
X1194223Y-51181D01*
X1206030Y-45933D02*
X1202094D01*
X1200782Y-47245D01*
Y-49869D01*
X1202094Y-51181D01*
X1206030D01*
X1208654Y-45933D02*
Y-49869D01*
X1209966Y-51181D01*
X1213902D01*
Y-45933D01*
X1216525Y-51181D02*
Y-45933D01*
X1217837D01*
X1219149Y-47245D01*
Y-51181D01*
Y-47245D01*
X1220461Y-45933D01*
X1221773Y-47245D01*
Y-51181D01*
X1228333D02*
X1225709D01*
X1224397Y-49869D01*
Y-47245D01*
X1225709Y-45933D01*
X1228333D01*
X1229644Y-47245D01*
Y-48557D01*
X1224397D01*
X1232268Y-51181D02*
Y-45933D01*
X1236204D01*
X1237516Y-47245D01*
Y-51181D01*
X1241452Y-44622D02*
Y-45933D01*
X1240140D01*
X1242764D01*
X1241452D01*
Y-49869D01*
X1242764Y-51181D01*
X1185039Y-82680D02*
Y-90551D01*
X1190287D01*
X1194223Y-85303D02*
X1196847D01*
X1198158Y-86615D01*
Y-90551D01*
X1194223D01*
X1192911Y-89239D01*
X1194223Y-87927D01*
X1198158D01*
X1200782Y-85303D02*
Y-89239D01*
X1202094Y-90551D01*
X1206030D01*
Y-91863D01*
X1204718Y-93175D01*
X1203406D01*
X1206030Y-90551D02*
Y-85303D01*
X1212590Y-90551D02*
X1209966D01*
X1208654Y-89239D01*
Y-86615D01*
X1209966Y-85303D01*
X1212590D01*
X1213902Y-86615D01*
Y-87927D01*
X1208654D01*
X1216525Y-85303D02*
Y-90551D01*
Y-87927D01*
X1217837Y-86615D01*
X1219149Y-85303D01*
X1220461D01*
X1232268Y-90551D02*
Y-82680D01*
X1237516Y-90551D01*
Y-82680D01*
X1241452Y-85303D02*
X1244075D01*
X1245387Y-86615D01*
Y-90551D01*
X1241452D01*
X1240140Y-89239D01*
X1241452Y-87927D01*
X1245387D01*
X1248011Y-90551D02*
Y-85303D01*
X1249323D01*
X1250635Y-86615D01*
Y-90551D01*
Y-86615D01*
X1251947Y-85303D01*
X1253259Y-86615D01*
Y-90551D01*
X1259818D02*
X1257195D01*
X1255883Y-89239D01*
Y-86615D01*
X1257195Y-85303D01*
X1259818D01*
X1261130Y-86615D01*
Y-87927D01*
X1255883D01*
X1185039Y-122050D02*
Y-129921D01*
X1188975D01*
X1190287Y-128609D01*
Y-123362D01*
X1188975Y-122050D01*
X1185039D01*
X1194223Y-124674D02*
X1196847D01*
X1198158Y-125986D01*
Y-129921D01*
X1194223D01*
X1192911Y-128609D01*
X1194223Y-127297D01*
X1198158D01*
X1202094Y-123362D02*
Y-124674D01*
X1200782D01*
X1203406D01*
X1202094D01*
Y-128609D01*
X1203406Y-129921D01*
X1211278D02*
X1208654D01*
X1207342Y-128609D01*
Y-125986D01*
X1208654Y-124674D01*
X1211278D01*
X1212589Y-125986D01*
Y-127297D01*
X1207342D01*
X1185039Y-161420D02*
Y-169291D01*
X1188975D01*
X1190287Y-167979D01*
Y-162732D01*
X1188975Y-161420D01*
X1185039D01*
X1194223Y-169291D02*
X1196847D01*
X1198158Y-167979D01*
Y-165356D01*
X1196847Y-164044D01*
X1194223D01*
X1192911Y-165356D01*
Y-167979D01*
X1194223Y-169291D01*
X1206030Y-164044D02*
X1202094D01*
X1200782Y-165356D01*
Y-167979D01*
X1202094Y-169291D01*
X1206030D01*
X1208654Y-164044D02*
Y-167979D01*
X1209966Y-169291D01*
X1213902D01*
Y-164044D01*
X1216525Y-169291D02*
Y-164044D01*
X1217837D01*
X1219149Y-165356D01*
Y-169291D01*
Y-165356D01*
X1220461Y-164044D01*
X1221773Y-165356D01*
Y-169291D01*
X1228333D02*
X1225709D01*
X1224397Y-167979D01*
Y-165356D01*
X1225709Y-164044D01*
X1228333D01*
X1229644Y-165356D01*
Y-166667D01*
X1224397D01*
X1232268Y-169291D02*
Y-164044D01*
X1236204D01*
X1237516Y-165356D01*
Y-169291D01*
X1241452Y-162732D02*
Y-164044D01*
X1240140D01*
X1242764D01*
X1241452D01*
Y-167979D01*
X1242764Y-169291D01*
D33*
X255906Y208661D02*
G03*
X244094Y220472I-11811J0D01*
G01*
Y0D02*
G03*
X255906Y11811I0J11811D01*
G01*
X0D02*
G03*
X11811Y0I11811J0D01*
G01*
Y220472D02*
G03*
X0Y208661I0J-11811D01*
G01*
Y11811D02*
Y208661D01*
X11811Y0D02*
X244094D01*
X11811Y220472D02*
X244094D01*
X255906Y11811D02*
Y208661D01*
X1338583Y-157480D02*
Y-118110D01*
X1181102Y-78740D02*
X1456693D01*
X1181102Y-118110D02*
X1456693D01*
X984252Y-157480D02*
X1456693D01*
X984252Y-39370D02*
X1456693D01*
X984252Y-196850D02*
Y-39370D01*
X1181102Y-196850D02*
Y-39370D01*
X-196850Y972441D02*
X1456693D01*
Y-196850D02*
Y972441D01*
X-196850Y-196850D02*
Y972441D01*
Y-196850D02*
X1456693D01*
X1190945Y-188976D02*
Y-183073D01*
X1193897D01*
X1194881Y-184057D01*
Y-186025D01*
X1193897Y-187009D01*
X1190945D01*
X1192913D02*
X1194881Y-188976D01*
X1196848D02*
Y-183073D01*
X1199800D01*
X1200784Y-184057D01*
Y-186025D01*
X1199800Y-187009D01*
X1196848D01*
X1202752Y-183073D02*
X1204720D01*
X1203736D01*
Y-188976D01*
X1202752D01*
X1204720D01*
X1207672Y-189960D02*
X1211607D01*
X1213575Y-183073D02*
Y-188976D01*
Y-186025D01*
X1217511D01*
Y-183073D01*
Y-188976D01*
X1219479D02*
Y-185041D01*
X1221447Y-183073D01*
X1223415Y-185041D01*
Y-188976D01*
Y-186025D01*
X1219479D01*
X1225383Y-183073D02*
X1229318D01*
X1227350D01*
Y-188976D01*
X1231286Y-189960D02*
X1235222D01*
X1237190Y-188976D02*
Y-185041D01*
X1239158Y-183073D01*
X1241125Y-185041D01*
Y-188976D01*
Y-186025D01*
X1237190D01*
X1243093Y-188976D02*
Y-183073D01*
X1245061Y-185041D01*
X1247029Y-183073D01*
Y-188976D01*
X1248997D02*
Y-183073D01*
X1251949D01*
X1252933Y-184057D01*
Y-186025D01*
X1251949Y-187009D01*
X1248997D01*
X1254900Y-189960D02*
X1258836D01*
X1260804Y-183073D02*
X1264740D01*
X1262772D01*
Y-188976D01*
X1266708D02*
Y-185041D01*
X1268676Y-183073D01*
X1270644Y-185041D01*
Y-188976D01*
Y-186025D01*
X1266708D01*
X1276547Y-184057D02*
X1275563Y-183073D01*
X1273595D01*
X1272611Y-184057D01*
Y-185041D01*
X1273595Y-186025D01*
X1275563D01*
X1276547Y-187009D01*
Y-187993D01*
X1275563Y-188976D01*
X1273595D01*
X1272611Y-187993D01*
X1282451Y-183073D02*
X1278515D01*
Y-186025D01*
X1280483Y-185041D01*
X1281467D01*
X1282451Y-186025D01*
Y-187993D01*
X1281467Y-188976D01*
X1279499D01*
X1278515Y-187993D01*
X1284418Y-183073D02*
X1288354D01*
Y-184057D01*
X1284418Y-187993D01*
Y-188976D01*
X1294258Y-183073D02*
X1290322D01*
Y-186025D01*
X1292290Y-185041D01*
X1293274D01*
X1294258Y-186025D01*
Y-187993D01*
X1293274Y-188976D01*
X1291306D01*
X1290322Y-187993D01*
X1300161Y-183073D02*
X1298194Y-184057D01*
X1296226Y-186025D01*
Y-187993D01*
X1297210Y-188976D01*
X1299177D01*
X1300161Y-187993D01*
Y-187009D01*
X1299177Y-186025D01*
X1296226D01*
X1302129Y-189960D02*
X1306065D01*
X1308033Y-184057D02*
X1309017Y-183073D01*
X1310985D01*
X1311969Y-184057D01*
Y-187993D01*
X1310985Y-188976D01*
X1309017D01*
X1308033Y-187993D01*
Y-184057D01*
X1313937Y-188976D02*
X1315904D01*
X1314921D01*
Y-183073D01*
X1313937Y-184057D01*
X1318856Y-188976D02*
Y-187993D01*
X1319840D01*
Y-188976D01*
X1318856D01*
X1323776D02*
Y-183073D01*
X1326728D01*
X1327712Y-184057D01*
Y-186025D01*
X1326728Y-187009D01*
X1323776D01*
X1333615Y-185041D02*
X1330663D01*
X1329679Y-186025D01*
Y-187993D01*
X1330663Y-188976D01*
X1333615D01*
X1335583Y-183073D02*
Y-188976D01*
X1338535D01*
X1339519Y-187993D01*
Y-187009D01*
Y-186025D01*
X1338535Y-185041D01*
X1335583D01*
X1341487Y-183073D02*
Y-188976D01*
X1344438D01*
X1345422Y-187993D01*
Y-184057D01*
X1344438Y-183073D01*
X1341487D01*
X1348374Y-188976D02*
X1350342D01*
X1351326Y-187993D01*
Y-186025D01*
X1350342Y-185041D01*
X1348374D01*
X1347390Y-186025D01*
Y-187993D01*
X1348374Y-188976D01*
X1357230Y-185041D02*
X1354278D01*
X1353294Y-186025D01*
Y-187993D01*
X1354278Y-188976D01*
X1357230D01*
D35*
X1005906Y-175202D02*
Y-190945D01*
X1011153Y-185697D01*
X1016401Y-190945D01*
Y-175202D01*
X1021649Y-190945D02*
X1026896D01*
X1024272D01*
Y-180450D01*
X1021649D01*
X1034768Y-190945D02*
Y-180450D01*
X1037391D01*
X1040015Y-183073D01*
Y-190945D01*
Y-183073D01*
X1042639Y-180450D01*
X1045263Y-183073D01*
Y-190945D01*
X1050511Y-175202D02*
Y-185697D01*
X1055758Y-190945D01*
X1061006Y-185697D01*
Y-175202D01*
X1076749Y-177826D02*
X1074125Y-175202D01*
X1068877D01*
X1066253Y-177826D01*
Y-188321D01*
X1068877Y-190945D01*
X1074125D01*
X1076749Y-188321D01*
Y-183073D01*
X1071501D01*
X1360236Y-138456D02*
X1362860Y-135832D01*
X1368108D01*
X1370732Y-138456D01*
Y-148951D01*
X1368108Y-151575D01*
X1362860D01*
X1360236Y-148951D01*
Y-138456D01*
X1375979Y-151575D02*
X1381227D01*
X1378603D01*
Y-135832D01*
X1375979Y-138456D01*
X1206034Y-151575D02*
X1196850D01*
X1206034Y-142391D01*
Y-140096D01*
X1203738Y-137800D01*
X1199146D01*
X1196850Y-140096D01*
X1210625Y-149279D02*
X1212921Y-151575D01*
X1217513D01*
X1219809Y-149279D01*
Y-140096D01*
X1217513Y-137800D01*
X1212921D01*
X1210625Y-140096D01*
Y-142391D01*
X1212921Y-144687D01*
X1219809D01*
X1224401Y-151575D02*
X1233584Y-142391D01*
X1238176Y-140096D02*
X1240471Y-137800D01*
X1245063D01*
X1247359Y-140096D01*
Y-149279D01*
X1245063Y-151575D01*
X1240471D01*
X1238176Y-149279D01*
Y-140096D01*
X1251951D02*
X1254247Y-137800D01*
X1258838D01*
X1261134Y-140096D01*
Y-142391D01*
X1258838Y-144687D01*
X1261134Y-146983D01*
Y-149279D01*
X1258838Y-151575D01*
X1254247D01*
X1251951Y-149279D01*
Y-146983D01*
X1254247Y-144687D01*
X1251951Y-142391D01*
Y-140096D01*
X1254247Y-144687D02*
X1258838D01*
X1265726Y-151575D02*
X1274909Y-142391D01*
X1288684Y-151575D02*
X1279501D01*
X1288684Y-142391D01*
Y-140096D01*
X1286388Y-137800D01*
X1281797D01*
X1279501Y-140096D01*
X1293276D02*
X1295572Y-137800D01*
X1300163D01*
X1302459Y-140096D01*
Y-149279D01*
X1300163Y-151575D01*
X1295572D01*
X1293276Y-149279D01*
Y-140096D01*
X1307051Y-151575D02*
X1311643D01*
X1309347D01*
Y-137800D01*
X1307051Y-140096D01*
X1327714Y-137800D02*
X1318530D01*
Y-144687D01*
X1323122Y-142391D01*
X1325418D01*
X1327714Y-144687D01*
Y-149279D01*
X1325418Y-151575D01*
X1320826D01*
X1318530Y-149279D01*
X1190945Y-57092D02*
X1201440D01*
X1196192D01*
Y-72835D01*
X1206688D02*
Y-62339D01*
X1211936Y-57092D01*
X1217183Y-62339D01*
Y-72835D01*
Y-64963D01*
X1206688D01*
X1232926Y-59715D02*
X1230302Y-57092D01*
X1225055D01*
X1222431Y-59715D01*
Y-62339D01*
X1225055Y-64963D01*
X1230302D01*
X1232926Y-67587D01*
Y-70211D01*
X1230302Y-72835D01*
X1225055D01*
X1222431Y-70211D01*
X1248669Y-57092D02*
X1238174D01*
Y-64963D01*
X1243421Y-62339D01*
X1246045D01*
X1248669Y-64963D01*
Y-70211D01*
X1246045Y-72835D01*
X1240798D01*
X1238174Y-70211D01*
X1253917Y-57092D02*
X1264412D01*
Y-59715D01*
X1253917Y-70211D01*
Y-72835D01*
X1280155Y-57092D02*
X1269660D01*
Y-64963D01*
X1274907Y-62339D01*
X1277531D01*
X1280155Y-64963D01*
Y-70211D01*
X1277531Y-72835D01*
X1272283D01*
X1269660Y-70211D01*
X1295898Y-57092D02*
X1290650Y-59715D01*
X1285402Y-64963D01*
Y-70211D01*
X1288026Y-72835D01*
X1293274D01*
X1295898Y-70211D01*
Y-67587D01*
X1293274Y-64963D01*
X1285402D01*
X1316888Y-57092D02*
Y-72835D01*
Y-64963D01*
X1327384D01*
Y-57092D01*
Y-72835D01*
X1332631D02*
Y-62339D01*
X1337879Y-57092D01*
X1343127Y-62339D01*
Y-72835D01*
Y-64963D01*
X1332631D01*
X1348374Y-57092D02*
X1358870D01*
X1353622D01*
Y-72835D01*
X1202756Y-96461D02*
Y-110236D01*
X1209643D01*
X1211939Y-107940D01*
Y-98757D01*
X1209643Y-96461D01*
X1202756D01*
X1216531Y-101053D02*
Y-110236D01*
Y-105645D01*
X1218827Y-103349D01*
X1221123Y-101053D01*
X1223419D01*
X1230306Y-110236D02*
X1234898D01*
X1232602D01*
Y-101053D01*
X1230306D01*
X1241785Y-110236D02*
X1246377D01*
X1244081D01*
Y-96461D01*
X1241785D01*
X1253265Y-110236D02*
X1257856D01*
X1255560D01*
Y-96461D01*
X1253265D01*
X1287702Y-98757D02*
X1285406Y-96461D01*
X1280815D01*
X1278519Y-98757D01*
Y-107940D01*
X1280815Y-110236D01*
X1285406D01*
X1287702Y-107940D01*
Y-103349D01*
X1283111D01*
X1292294Y-101053D02*
Y-107940D01*
X1294590Y-110236D01*
X1301477D01*
Y-101053D01*
X1306069Y-110236D02*
X1310661D01*
X1308365D01*
Y-101053D01*
X1306069D01*
X1326732Y-96461D02*
Y-110236D01*
X1319844D01*
X1317548Y-107940D01*
Y-103349D01*
X1319844Y-101053D01*
X1326732D01*
X1338211Y-110236D02*
X1333619D01*
X1331323Y-107940D01*
Y-103349D01*
X1333619Y-101053D01*
X1338211D01*
X1340507Y-103349D01*
Y-105645D01*
X1331323D01*
D82*
X39862Y151575D02*
X50689D01*
X45276Y146161D02*
Y156988D01*
X4921Y49213D02*
X8465D01*
X6693Y47441D02*
Y50984D01*
X4921Y39213D02*
X8465D01*
X6693Y37441D02*
Y40984D01*
X178425Y177323D02*
X180787D01*
X179606Y176142D02*
Y178504D01*
X168425Y167323D02*
X170787D01*
X169606Y166142D02*
Y168504D01*
X178425Y187323D02*
X180787D01*
X179606Y186142D02*
Y188504D01*
X148425Y167323D02*
X150787D01*
X149606Y166142D02*
Y168504D01*
X158425Y167323D02*
X160787D01*
X159606Y166142D02*
Y168504D01*
X68228Y190000D02*
X71772D01*
X70000Y188228D02*
Y191772D01*
X58228Y190000D02*
X61772D01*
X60000Y188228D02*
Y191772D01*
X48228Y190000D02*
X51772D01*
X50000Y188228D02*
Y191772D01*
X38228Y190000D02*
X41772D01*
X40000Y188228D02*
Y191772D01*
X191182Y201693D02*
X194725D01*
X192954Y199921D02*
Y203465D01*
X191182Y211693D02*
X194725D01*
X192954Y209921D02*
Y213465D01*
X171182Y211693D02*
X174725D01*
X172954Y209921D02*
Y213465D01*
X171182Y201693D02*
X174725D01*
X172954Y199921D02*
Y203465D01*
X181182Y211693D02*
X184725D01*
X182954Y209921D02*
Y213465D01*
X181182Y201693D02*
X184725D01*
X182954Y199921D02*
Y203465D01*
X151182Y211693D02*
X154725D01*
X152954Y209921D02*
Y213465D01*
X151182Y201693D02*
X154725D01*
X152954Y199921D02*
Y203465D01*
X161182Y211693D02*
X164725D01*
X162954Y209921D02*
Y213465D01*
X161182Y201693D02*
X164725D01*
X162954Y199921D02*
Y203465D01*
X201182Y211693D02*
X204725D01*
X202954Y209921D02*
Y213465D01*
X201182Y201693D02*
X204725D01*
X202954Y199921D02*
Y203465D01*
X221182Y201693D02*
X224725D01*
X222954Y199921D02*
Y203465D01*
X221182Y211693D02*
X224725D01*
X222954Y209921D02*
Y213465D01*
X211182Y201693D02*
X214725D01*
X212954Y199921D02*
Y203465D01*
X211182Y211693D02*
X214725D01*
X212954Y209921D02*
Y213465D01*
X141182Y211693D02*
X144725D01*
X142954Y209921D02*
Y213465D01*
X141182Y201693D02*
X144725D01*
X142954Y199921D02*
Y203465D01*
X121182Y211693D02*
X124725D01*
X122954Y209921D02*
Y213465D01*
X121182Y201693D02*
X124725D01*
X122954Y199921D02*
Y203465D01*
X131182Y211693D02*
X134725D01*
X132954Y209921D02*
Y213465D01*
X131182Y201693D02*
X134725D01*
X132954Y199921D02*
Y203465D01*
X111182Y201693D02*
X114725D01*
X112954Y199921D02*
Y203465D01*
X111182Y211693D02*
X114725D01*
X112954Y209921D02*
Y213465D01*
X31182Y211693D02*
X34725D01*
X32954Y209921D02*
Y213465D01*
X31182Y201693D02*
X34725D01*
X32954Y199921D02*
Y203465D01*
X41182Y211693D02*
X44725D01*
X42954Y209921D02*
Y213465D01*
X41182Y201693D02*
X44725D01*
X42954Y199921D02*
Y203465D01*
X51182Y211693D02*
X54725D01*
X52953Y209921D02*
Y213465D01*
X51182Y201693D02*
X54725D01*
X52953Y199921D02*
Y203465D01*
X71182Y201693D02*
X74725D01*
X72953Y199921D02*
Y203465D01*
X71182Y211693D02*
X74725D01*
X72954Y209921D02*
Y213465D01*
X61182Y201693D02*
X64725D01*
X62954Y199921D02*
Y203465D01*
X61182Y211693D02*
X64725D01*
X62954Y209921D02*
Y213465D01*
X91182Y201693D02*
X94725D01*
X92954Y199921D02*
Y203465D01*
X91182Y211693D02*
X94725D01*
X92954Y209921D02*
Y213465D01*
X81182Y201693D02*
X84725D01*
X82954Y199921D02*
Y203465D01*
X81182Y211693D02*
X84725D01*
X82954Y209921D02*
Y213465D01*
X101182Y211693D02*
X104725D01*
X102954Y209921D02*
Y213465D01*
X101182Y201693D02*
X104725D01*
X102954Y199921D02*
Y203465D01*
X192165Y13780D02*
X197283D01*
X194724Y11220D02*
Y16339D01*
X212165Y13780D02*
X217284D01*
X214724Y11220D02*
Y16339D01*
X133110Y13780D02*
X138228D01*
X135669Y11220D02*
Y16339D01*
X153110Y13780D02*
X158228D01*
X155669Y11220D02*
Y16339D01*
X46496Y13780D02*
X51614D01*
X49055Y11220D02*
Y16339D01*
X66496Y13780D02*
X71614D01*
X69055Y11220D02*
Y16339D01*
X236713Y13780D02*
X247539D01*
X242126Y8366D02*
Y19193D01*
X236713Y206693D02*
X247539D01*
X242126Y201279D02*
Y212106D01*
X8366Y206693D02*
X19193D01*
X13780Y201279D02*
Y212106D01*
X8366Y13780D02*
X19193D01*
X13780Y8366D02*
Y19193D01*
X8228Y180000D02*
X11772D01*
X10000Y178228D02*
Y181772D01*
X8228Y170000D02*
X11772D01*
X10000Y168228D02*
Y171772D01*
X8228Y160000D02*
X11772D01*
X10000Y158228D02*
Y161772D01*
X8228Y150000D02*
X11772D01*
X10000Y148228D02*
Y151772D01*
X30906Y143701D02*
X32087D01*
X31496Y143110D02*
Y144291D01*
X115157Y15945D02*
X116339D01*
X115748Y15355D02*
Y16536D01*
X106496Y15945D02*
X107677D01*
X107087Y15355D02*
Y16536D01*
X110827Y15945D02*
X112008D01*
X111417Y15355D02*
Y16536D01*
X92716Y15945D02*
X93898D01*
X93307Y15355D02*
Y16536D01*
X88386Y15945D02*
X89567D01*
X88976Y15355D02*
Y16536D01*
X98228Y5118D02*
X99410D01*
X98819Y4528D02*
Y5709D01*
X115157Y21063D02*
X116339D01*
X115748Y20473D02*
Y21654D01*
X106496Y21063D02*
X107677D01*
X107087Y20473D02*
Y21654D01*
X110827Y21063D02*
X112008D01*
X111417Y20473D02*
Y21654D01*
X92716Y21063D02*
X93898D01*
X93307Y20473D02*
Y21654D01*
X97047Y21063D02*
X98228D01*
X97638Y20473D02*
Y21654D01*
X88386Y21063D02*
X89567D01*
X88976Y20473D02*
Y21654D01*
X115157Y26181D02*
X116339D01*
X115748Y25591D02*
Y26772D01*
X106496Y26181D02*
X107677D01*
X107087Y25591D02*
Y26772D01*
X110827Y26181D02*
X112008D01*
X111417Y25591D02*
Y26772D01*
X92716Y26181D02*
X93898D01*
X93307Y25591D02*
Y26772D01*
X97047Y26181D02*
X98228D01*
X97638Y25591D02*
Y26772D01*
X88386Y26181D02*
X89567D01*
X88976Y25591D02*
Y26772D01*
X113583Y168307D02*
X114764D01*
X114173Y167717D02*
Y168898D01*
X112795Y163189D02*
X113976D01*
X113386Y162598D02*
Y163779D01*
X119488Y168307D02*
X120669D01*
X120079Y167717D02*
Y168898D01*
X118307Y163189D02*
X119488D01*
X118898Y162598D02*
Y163779D01*
X85236Y163189D02*
X86417D01*
X85827Y162598D02*
Y163779D01*
X84055Y168307D02*
X85236D01*
X84646Y167717D02*
Y168898D01*
X90748Y163189D02*
X91929D01*
X91339Y162598D02*
Y163779D01*
X89961Y168307D02*
X91142D01*
X90551Y167717D02*
Y168898D01*
X101772Y168307D02*
X102953D01*
X102362Y167717D02*
Y168898D01*
X107677Y168307D02*
X108858D01*
X108268Y167717D02*
Y168898D01*
X95866Y168307D02*
X97047D01*
X96457Y167717D02*
Y168898D01*
X101772Y163189D02*
X102953D01*
X102362Y162598D02*
Y163779D01*
X107283Y163189D02*
X108465D01*
X107874Y162598D02*
Y163779D01*
X96260Y163189D02*
X97441D01*
X96850Y162598D02*
Y163779D01*
X97047Y103347D02*
X98228D01*
X97638Y102756D02*
Y103937D01*
X97047Y98622D02*
X98228D01*
X97638Y98032D02*
Y99213D01*
X97047Y131693D02*
X98228D01*
X97638Y131102D02*
Y132283D01*
X101772Y131693D02*
X102953D01*
X102362Y131102D02*
Y132283D01*
X106496Y131693D02*
X107677D01*
X107087Y131102D02*
Y132283D01*
X97047Y126969D02*
X98228D01*
X97638Y126378D02*
Y127559D01*
X101772Y126969D02*
X102953D01*
X102362Y126378D02*
Y127559D01*
X106496Y126969D02*
X107677D01*
X107087Y126378D02*
Y127559D01*
X97047Y122244D02*
X98228D01*
X97638Y121653D02*
Y122835D01*
X101772Y122244D02*
X102953D01*
X102362Y121653D02*
Y122835D01*
X106496Y122244D02*
X107677D01*
X107087Y121653D02*
Y122835D01*
X97047Y117520D02*
X98228D01*
X97638Y116929D02*
Y118110D01*
X101772Y117520D02*
X102953D01*
X102362Y116929D02*
Y118110D01*
X106496Y117520D02*
X107677D01*
X107087Y116929D02*
Y118110D01*
X101772Y103347D02*
X102953D01*
X102362Y102756D02*
Y103937D01*
X106496Y103347D02*
X107677D01*
X107087Y102756D02*
Y103937D01*
X101772Y98622D02*
X102953D01*
X102362Y98032D02*
Y99213D01*
X106496Y98622D02*
X107677D01*
X107087Y98032D02*
Y99213D01*
X206102Y151575D02*
X207283D01*
X206693Y150984D02*
Y152165D01*
X202165Y147638D02*
X203346D01*
X202756Y147047D02*
Y148228D01*
X194291Y147638D02*
X195472D01*
X194882Y147047D02*
Y148228D01*
X198228Y151575D02*
X199409D01*
X198819Y150984D02*
Y152165D01*
X186417Y147638D02*
X187598D01*
X187008Y147047D02*
Y148228D01*
X190354Y151575D02*
X191535D01*
X190945Y150984D02*
Y152165D01*
X186417Y131890D02*
X187598D01*
X187008Y131299D02*
Y132480D01*
X186417Y124016D02*
X187598D01*
X187008Y123425D02*
Y124606D01*
X186417Y116142D02*
X187598D01*
X187008Y115551D02*
Y116732D01*
X190354Y135827D02*
X191535D01*
X190945Y135236D02*
Y136417D01*
X190354Y127953D02*
X191535D01*
X190945Y127362D02*
Y128543D01*
X190354Y120079D02*
X191535D01*
X190945Y119488D02*
Y120669D01*
X190354Y143701D02*
X191535D01*
X190945Y143110D02*
Y144291D01*
X186417Y139764D02*
X187598D01*
X187008Y139173D02*
Y140354D01*
X194291Y131890D02*
X195472D01*
X194882Y131299D02*
Y132480D01*
X194291Y124016D02*
X195472D01*
X194882Y123425D02*
Y124606D01*
X194291Y116142D02*
X195472D01*
X194882Y115551D02*
Y116732D01*
X198228Y135827D02*
X199409D01*
X198819Y135236D02*
Y136417D01*
X198228Y127953D02*
X199409D01*
X198819Y127362D02*
Y128543D01*
X198228Y120079D02*
X199409D01*
X198819Y119488D02*
Y120669D01*
X198228Y143701D02*
X199409D01*
X198819Y143110D02*
Y144291D01*
X194291Y139764D02*
X195472D01*
X194882Y139173D02*
Y140354D01*
X202165Y139764D02*
X203346D01*
X202756Y139173D02*
Y140354D01*
X206102Y143701D02*
X207283D01*
X206693Y143110D02*
Y144291D01*
X221850Y143701D02*
X223031D01*
X222441Y143110D02*
Y144291D01*
X213976Y143701D02*
X215158D01*
X214567Y143110D02*
Y144291D01*
X221850Y135827D02*
X223031D01*
X222441Y135236D02*
Y136417D01*
X229724Y135827D02*
X230906D01*
X230315Y135236D02*
Y136417D01*
X225787Y139764D02*
X226969D01*
X226378Y139173D02*
Y140354D01*
X210039Y139764D02*
X211221D01*
X210630Y139173D02*
Y140354D01*
X213976Y135827D02*
X215158D01*
X214567Y135236D02*
Y136417D01*
X217913Y139764D02*
X219094D01*
X218504Y139173D02*
Y140354D01*
X210039Y131890D02*
X211221D01*
X210630Y131299D02*
Y132480D01*
X210039Y124016D02*
X211221D01*
X210630Y123425D02*
Y124606D01*
X210039Y116142D02*
X211221D01*
X210630Y115551D02*
Y116732D01*
X210039Y108268D02*
X211221D01*
X210630Y107677D02*
Y108858D01*
X210039Y100394D02*
X211221D01*
X210630Y99803D02*
Y100984D01*
X206102Y104331D02*
X207283D01*
X206693Y103740D02*
Y104921D01*
X206102Y112205D02*
X207283D01*
X206693Y111614D02*
Y112795D01*
X206102Y120079D02*
X207283D01*
X206693Y119488D02*
Y120669D01*
X206102Y127953D02*
X207283D01*
X206693Y127362D02*
Y128543D01*
X206102Y135827D02*
X207283D01*
X206693Y135236D02*
Y136417D01*
X202165Y100394D02*
X203346D01*
X202756Y99803D02*
Y100984D01*
X202165Y108268D02*
X203346D01*
X202756Y107677D02*
Y108858D01*
X202165Y116142D02*
X203346D01*
X202756Y115551D02*
Y116732D01*
X202165Y124016D02*
X203346D01*
X202756Y123425D02*
Y124606D01*
X202165Y131890D02*
X203346D01*
X202756Y131299D02*
Y132480D01*
X243504Y131890D02*
X244685D01*
X244094Y131299D02*
Y132480D01*
X243504Y124016D02*
X244685D01*
X244094Y123425D02*
Y124606D01*
X243504Y116142D02*
X244685D01*
X244094Y115551D02*
Y116732D01*
X243504Y108268D02*
X244685D01*
X244094Y107677D02*
Y108858D01*
X243504Y100394D02*
X244685D01*
X244094Y99803D02*
Y100984D01*
X239567Y135827D02*
X240748D01*
X240158Y135236D02*
Y136417D01*
X239567Y127953D02*
X240748D01*
X240158Y127362D02*
Y128543D01*
X239567Y120079D02*
X240748D01*
X240158Y119488D02*
Y120669D01*
X239567Y112205D02*
X240748D01*
X240158Y111614D02*
Y112795D01*
X239567Y104331D02*
X240748D01*
X240158Y103740D02*
Y104921D01*
X235630Y100394D02*
X236811D01*
X236221Y99803D02*
Y100984D01*
X235630Y108268D02*
X236811D01*
X236221Y107677D02*
Y108858D01*
X235630Y116142D02*
X236811D01*
X236221Y115551D02*
Y116732D01*
X235630Y124016D02*
X236811D01*
X236221Y123425D02*
Y124606D01*
X235630Y131890D02*
X236811D01*
X236221Y131299D02*
Y132480D01*
X201772Y65158D02*
X202953D01*
X202362Y64567D02*
Y65748D01*
X197835Y65158D02*
X199016D01*
X198425Y64567D02*
Y65748D01*
X213032Y80295D02*
X214213D01*
X213622Y79705D02*
Y80886D01*
X223228Y79921D02*
X224410D01*
X223819Y79331D02*
Y80512D01*
X223425Y62795D02*
X224606D01*
X224016Y62205D02*
Y63386D01*
X222441Y72441D02*
X223622D01*
X223031Y71850D02*
Y73032D01*
X239961Y65551D02*
X241142D01*
X240551Y64961D02*
Y66142D01*
X247441Y81299D02*
X248622D01*
X248031Y80709D02*
Y81890D01*
X251378Y81299D02*
X252559D01*
X251969Y80709D02*
Y81890D01*
X236811Y158661D02*
X237992D01*
X237402Y158071D02*
Y159252D01*
X236811Y148425D02*
X237992D01*
X237402Y147835D02*
Y149016D01*
X241535Y148425D02*
X242717D01*
X242126Y147835D02*
Y149016D01*
X241535Y158661D02*
X242717D01*
X242126Y158071D02*
Y159252D01*
X246260Y148425D02*
X247441D01*
X246850Y147835D02*
Y149016D01*
X246260Y158661D02*
X247441D01*
X246850Y158071D02*
Y159252D01*
X204134Y162205D02*
X205315D01*
X204724Y161614D02*
Y162795D01*
X193898Y162205D02*
X195079D01*
X194488Y161614D02*
Y162795D01*
X204134Y166929D02*
X205315D01*
X204724Y166339D02*
Y167520D01*
X193898Y166929D02*
X195079D01*
X194488Y166339D02*
Y167520D01*
X193898Y171653D02*
X195079D01*
X194488Y171063D02*
Y172244D01*
X204134Y171653D02*
X205315D01*
X204724Y171063D02*
Y172244D01*
X13583Y72441D02*
X14764D01*
X14173Y71850D02*
Y73032D01*
X26969Y36220D02*
X28150D01*
X27559Y35630D02*
Y36811D01*
X27362Y51181D02*
X28543D01*
X27953Y50591D02*
Y51772D01*
X21063Y35433D02*
X22244D01*
X21654Y34843D02*
Y36024D01*
X25591Y57874D02*
X26772D01*
X26181Y57284D02*
Y58465D01*
X25787Y62795D02*
X26969D01*
X26378Y62205D02*
Y63386D01*
X108858Y74410D02*
X110039D01*
X109449Y73819D02*
Y75000D01*
X88386Y31299D02*
X89567D01*
X88976Y30709D02*
Y31890D01*
X97047Y31299D02*
X98228D01*
X97638Y30709D02*
Y31890D01*
X88386Y36417D02*
X89567D01*
X88976Y35827D02*
Y37008D01*
X97047Y36417D02*
X98228D01*
X97638Y35827D02*
Y37008D01*
X88386Y41536D02*
X89567D01*
X88976Y40945D02*
Y42126D01*
X97047Y41536D02*
X98228D01*
X97638Y40945D02*
Y42126D01*
X88386Y46654D02*
X89567D01*
X88976Y46063D02*
Y47244D01*
X97047Y46654D02*
X98228D01*
X97638Y46063D02*
Y47244D01*
X97047Y51772D02*
X98228D01*
X97638Y51181D02*
Y52362D01*
X88386Y51772D02*
X89567D01*
X88976Y51181D02*
Y52362D01*
X92716Y51772D02*
X93898D01*
X93307Y51181D02*
Y52362D01*
X92716Y46654D02*
X93898D01*
X93307Y46063D02*
Y47244D01*
X92716Y41536D02*
X93898D01*
X93307Y40945D02*
Y42126D01*
X92716Y36417D02*
X93898D01*
X93307Y35827D02*
Y37008D01*
X92716Y31299D02*
X93898D01*
X93307Y30709D02*
Y31890D01*
X110827Y31299D02*
X112008D01*
X111417Y30709D02*
Y31890D01*
X110827Y36417D02*
X112008D01*
X111417Y35827D02*
Y37008D01*
X110827Y41536D02*
X112008D01*
X111417Y40945D02*
Y42126D01*
X110827Y46654D02*
X112008D01*
X111417Y46063D02*
Y47244D01*
X110827Y51772D02*
X112008D01*
X111417Y51181D02*
Y52362D01*
X56890Y119291D02*
X58071D01*
X57480Y118701D02*
Y119882D01*
X166732Y118110D02*
X167913D01*
X167323Y117520D02*
Y118701D01*
X170669Y118110D02*
X171850D01*
X171260Y117520D02*
Y118701D01*
X156890Y118110D02*
X158071D01*
X157480Y117520D02*
Y118701D01*
X160827Y118110D02*
X162008D01*
X161417Y117520D02*
Y118701D01*
X49606Y127953D02*
X50787D01*
X50197Y127362D02*
Y128543D01*
X53543Y127953D02*
X54724D01*
X54134Y127362D02*
Y128543D01*
X39764Y127953D02*
X40945D01*
X40354Y127362D02*
Y128543D01*
X43701Y127953D02*
X44882D01*
X44291Y127362D02*
Y128543D01*
X57284Y197638D02*
X58465D01*
X57874Y197047D02*
Y198228D01*
X67126Y197638D02*
X68307D01*
X67716Y197047D02*
Y198228D01*
X157874Y82874D02*
X159055D01*
X158465Y82284D02*
Y83465D01*
X153937Y82874D02*
X155118D01*
X154528Y82284D02*
Y83465D01*
X167717Y82874D02*
X168898D01*
X168307Y82284D02*
Y83465D01*
X163779Y82874D02*
X164961D01*
X164370Y82284D02*
Y83465D01*
X160039Y107480D02*
X161221D01*
X160630Y106890D02*
Y108071D01*
X156102Y107480D02*
X157283D01*
X156693Y106890D02*
Y108071D01*
X167913Y107480D02*
X169095D01*
X168504Y106890D02*
Y108071D01*
X163976Y107480D02*
X165157D01*
X164567Y106890D02*
Y108071D01*
X47638Y108858D02*
X48819D01*
X48228Y108268D02*
Y109449D01*
X51575Y108858D02*
X52756D01*
X52165Y108268D02*
Y109449D01*
X39764Y108858D02*
X40945D01*
X40354Y108268D02*
Y109449D01*
X43701Y108858D02*
X44882D01*
X44291Y108268D02*
Y109449D01*
X239567Y187008D02*
X240748D01*
X240158Y186417D02*
Y187598D01*
X249410Y170276D02*
X250590D01*
X250000Y169685D02*
Y170866D01*
X211614Y54331D02*
X212795D01*
X212205Y53740D02*
Y54921D01*
X208071Y54331D02*
X209252D01*
X208661Y53740D02*
Y54921D01*
X204527Y54331D02*
X205709D01*
X205118Y53740D02*
Y54921D01*
X200984Y54331D02*
X202165D01*
X201575Y53740D02*
Y54921D01*
X147047Y92520D02*
X148228D01*
X147638Y91929D02*
Y93110D01*
X64370Y98819D02*
X65551D01*
X64961Y98228D02*
Y99410D01*
X60433Y98819D02*
X61614D01*
X61024Y98228D02*
Y99410D01*
X147047Y128740D02*
X148228D01*
X147638Y128150D02*
Y129331D01*
X49606Y88583D02*
X50787D01*
X50197Y87992D02*
Y89173D01*
X53543Y88583D02*
X54724D01*
X54134Y87992D02*
Y89173D01*
X39764Y88583D02*
X40945D01*
X40354Y87992D02*
Y89173D01*
X43701Y88583D02*
X44882D01*
X44291Y87992D02*
Y89173D01*
X33858Y37402D02*
X35039D01*
X34449Y36811D02*
Y37992D01*
X33858Y33465D02*
X35039D01*
X34449Y32874D02*
Y34055D01*
X169291Y38189D02*
X170472D01*
X169882Y37598D02*
Y38780D01*
X169291Y32677D02*
X170472D01*
X169882Y32087D02*
Y33268D01*
X120473Y37402D02*
X121653D01*
X121063Y36811D02*
Y37992D01*
X120473Y33465D02*
X121653D01*
X121063Y32874D02*
Y34055D01*
X83071Y33465D02*
X84252D01*
X83661Y32874D02*
Y34055D01*
X83071Y37402D02*
X84252D01*
X83661Y36811D02*
Y37992D01*
X150295Y189272D02*
X151476D01*
X150886Y188681D02*
Y189862D01*
X126378Y139764D02*
X127559D01*
X126969Y139173D02*
Y140354D01*
X68110Y133858D02*
X69291D01*
X68701Y133268D02*
Y134449D01*
X68110Y128937D02*
X69291D01*
X68701Y128347D02*
Y129528D01*
X68504Y118898D02*
X69685D01*
X69095Y118307D02*
Y119488D01*
X101772Y137598D02*
X102953D01*
X102362Y137008D02*
Y138189D01*
X105315Y137598D02*
X106496D01*
X105905Y137008D02*
Y138189D01*
X98228Y137598D02*
X99409D01*
X98819Y137008D02*
Y138189D01*
X94685Y137598D02*
X95866D01*
X95276Y137008D02*
Y138189D01*
X108858Y137598D02*
X110039D01*
X109449Y137008D02*
Y138189D01*
X109646Y142717D02*
X110827D01*
X110236Y142126D02*
Y143307D01*
X93898Y142717D02*
X95079D01*
X94488Y142126D02*
Y143307D01*
X97835Y142717D02*
X99016D01*
X98425Y142126D02*
Y143307D01*
X105709Y142717D02*
X106890D01*
X106299Y142126D02*
Y143307D01*
X101772Y142717D02*
X102953D01*
X102362Y142126D02*
Y143307D01*
X101772Y147835D02*
X102953D01*
X102362Y147244D02*
Y148425D01*
X106102Y147835D02*
X107283D01*
X106693Y147244D02*
Y148425D01*
X97441Y147835D02*
X98622D01*
X98032Y147244D02*
Y148425D01*
X93110Y147835D02*
X94291D01*
X93701Y147244D02*
Y148425D01*
X110433Y147835D02*
X111614D01*
X111024Y147244D02*
Y148425D01*
X111221Y152953D02*
X112402D01*
X111811Y152362D02*
Y153543D01*
X92323Y152953D02*
X93504D01*
X92913Y152362D02*
Y153543D01*
X97047Y152953D02*
X98228D01*
X97638Y152362D02*
Y153543D01*
X106496Y152953D02*
X107677D01*
X107087Y152362D02*
Y153543D01*
X101772Y152953D02*
X102953D01*
X102362Y152362D02*
Y153543D01*
X114370Y173425D02*
X115551D01*
X114961Y172835D02*
Y174016D01*
X89173Y173425D02*
X90354D01*
X89764Y172835D02*
Y174016D01*
X95472Y173425D02*
X96653D01*
X96063Y172835D02*
Y174016D01*
X108071Y173425D02*
X109252D01*
X108661Y172835D02*
Y174016D01*
X101772Y173425D02*
X102953D01*
X102362Y172835D02*
Y174016D01*
X101772Y178543D02*
X102953D01*
X102362Y177953D02*
Y179134D01*
X108465Y178543D02*
X109646D01*
X109055Y177953D02*
Y179134D01*
X95079Y178543D02*
X96260D01*
X95669Y177953D02*
Y179134D01*
X88386Y178543D02*
X89567D01*
X88976Y177953D02*
Y179134D01*
X115157Y178543D02*
X116339D01*
X115748Y177953D02*
Y179134D01*
X115157Y51772D02*
X116339D01*
X115748Y51181D02*
Y52362D01*
X106496Y51772D02*
X107677D01*
X107087Y51181D02*
Y52362D01*
X108465Y56890D02*
X109646D01*
X109055Y56299D02*
Y57480D01*
X95472Y56890D02*
X96653D01*
X96063Y56299D02*
Y57480D01*
X89173Y56890D02*
X90354D01*
X89764Y56299D02*
Y57480D01*
X114370Y56890D02*
X115551D01*
X114961Y56299D02*
Y57480D01*
X113583Y62008D02*
X114764D01*
X114173Y61417D02*
Y62599D01*
X89961Y62008D02*
X91142D01*
X90551Y61417D02*
Y62599D01*
X95866Y62008D02*
X97047D01*
X96457Y61417D02*
Y62599D01*
X108465Y62008D02*
X109646D01*
X109055Y61417D02*
Y62599D01*
X101772Y65551D02*
X102953D01*
X102362Y64961D02*
Y66142D01*
X95866Y67126D02*
X97047D01*
X96457Y66536D02*
Y67717D01*
X90748Y67126D02*
X91929D01*
X91339Y66536D02*
Y67717D01*
X114370Y67126D02*
X115551D01*
X114961Y66536D02*
Y67717D01*
X91535Y72244D02*
X92716D01*
X92126Y71654D02*
Y72835D01*
X96653Y72244D02*
X97835D01*
X97244Y71654D02*
Y72835D01*
X106496Y77362D02*
X107677D01*
X107087Y76772D02*
Y77953D01*
X97047Y77362D02*
X98228D01*
X97638Y76772D02*
Y77953D01*
X92323Y77362D02*
X93504D01*
X92913Y76772D02*
Y77953D01*
X111221Y77362D02*
X112402D01*
X111811Y76772D02*
Y77953D01*
X110433Y82480D02*
X111614D01*
X111024Y81890D02*
Y83071D01*
X93110Y82480D02*
X94291D01*
X93701Y81890D02*
Y83071D01*
X97441Y82480D02*
X98622D01*
X98032Y81890D02*
Y83071D01*
X106102Y82480D02*
X107283D01*
X106693Y81890D02*
Y83071D01*
X101772Y82480D02*
X102953D01*
X102362Y81890D02*
Y83071D01*
X101772Y87599D02*
X102953D01*
X102362Y87008D02*
Y88189D01*
X105709Y87599D02*
X106890D01*
X106299Y87008D02*
Y88189D01*
X97835Y87599D02*
X99016D01*
X98425Y87008D02*
Y88189D01*
X93898Y87599D02*
X95079D01*
X94488Y87008D02*
Y88189D01*
X109646Y87599D02*
X110827D01*
X110236Y87008D02*
Y88189D01*
X108858Y92717D02*
X110039D01*
X109449Y92126D02*
Y93307D01*
X94685Y92717D02*
X95866D01*
X95276Y92126D02*
Y93307D01*
X98228Y92717D02*
X99409D01*
X98819Y92126D02*
Y93307D01*
X105315Y92717D02*
X106496D01*
X105905Y92126D02*
Y93307D01*
X101772Y92717D02*
X102953D01*
X102362Y92126D02*
Y93307D01*
X164764Y182087D02*
X165945D01*
X165354Y181496D02*
Y182677D01*
X171653Y182087D02*
X172835D01*
X172244Y181496D02*
Y182677D01*
X134252Y133465D02*
X135433D01*
X134843Y132874D02*
Y134055D01*
X112363Y187402D02*
X113544D01*
X112954Y186811D02*
Y187992D01*
X140354Y142126D02*
X141535D01*
X140945Y141535D02*
Y142717D01*
X150984Y128740D02*
X152165D01*
X151575Y128150D02*
Y129331D01*
X134449Y117717D02*
X135630D01*
X135039Y117126D02*
Y118307D01*
X140354Y95669D02*
X141535D01*
X140945Y95079D02*
Y96260D01*
X101772Y77362D02*
X102953D01*
X102362Y76772D02*
Y77953D01*
X89961Y87599D02*
X91142D01*
X90551Y87008D02*
Y88189D01*
X113583Y87599D02*
X114764D01*
X114173Y87008D02*
Y88189D01*
X113583Y142717D02*
X114764D01*
X114173Y142126D02*
Y143307D01*
X117520Y142717D02*
X118701D01*
X118110Y142126D02*
Y143307D01*
X89961Y142717D02*
X91142D01*
X90551Y142126D02*
Y143307D01*
X86024Y142717D02*
X87205D01*
X86614Y142126D02*
Y143307D01*
X88779Y147835D02*
X89961D01*
X89370Y147244D02*
Y148425D01*
X87598Y152953D02*
X88779D01*
X88189Y152362D02*
Y153543D01*
X115945Y152953D02*
X117126D01*
X116535Y152362D02*
Y153543D01*
X114764Y147835D02*
X115945D01*
X115354Y147244D02*
Y148425D01*
X120276Y152953D02*
X121457D01*
X120866Y152362D02*
Y153543D01*
X119095Y147835D02*
X120276D01*
X119685Y147244D02*
Y148425D01*
X121850Y178543D02*
X123031D01*
X122441Y177953D02*
Y179134D01*
X120669Y173425D02*
X121850D01*
X121260Y172835D02*
Y174016D01*
X96653Y158071D02*
X97835D01*
X97244Y157480D02*
Y158661D01*
X106890Y158071D02*
X108071D01*
X107480Y157480D02*
Y158661D01*
X112008Y158071D02*
X113189D01*
X112598Y157480D02*
Y158661D01*
X91535Y158071D02*
X92716D01*
X92126Y157480D02*
Y158661D01*
X101772Y158071D02*
X102953D01*
X102362Y157480D02*
Y158661D01*
X122244Y158071D02*
X123425D01*
X122835Y157480D02*
Y158661D01*
X117126Y158071D02*
X118307D01*
X117717Y157480D02*
Y158661D01*
X86417Y158071D02*
X87598D01*
X87008Y157480D02*
Y158661D01*
X106496Y46654D02*
X107677D01*
X107087Y46063D02*
Y47244D01*
X115157Y46654D02*
X116339D01*
X115748Y46063D02*
Y47244D01*
X106496Y41536D02*
X107677D01*
X107087Y40945D02*
Y42126D01*
X115157Y41536D02*
X116339D01*
X115748Y40945D02*
Y42126D01*
X106496Y36417D02*
X107677D01*
X107087Y35827D02*
Y37008D01*
X115157Y36417D02*
X116339D01*
X115748Y35827D02*
Y37008D01*
X106496Y31299D02*
X107677D01*
X107087Y30709D02*
Y31890D01*
X115157Y31299D02*
X116339D01*
X115748Y30709D02*
Y31890D01*
X114370Y72244D02*
X115551D01*
X114961Y71654D02*
Y72835D01*
X82087Y178543D02*
X83268D01*
X82677Y177953D02*
Y179134D01*
X82874Y173425D02*
X84055D01*
X83465Y172835D02*
Y174016D01*
X76575Y182677D02*
X77756D01*
X77165Y182087D02*
Y183268D01*
X81299Y147244D02*
X82480D01*
X81890Y146653D02*
Y147835D01*
X152559Y135039D02*
X153740D01*
X153150Y134449D02*
Y135630D01*
X197441Y206299D02*
X198622D01*
X198031Y205709D02*
Y206890D01*
X87598Y194882D02*
X88779D01*
X88189Y194291D02*
Y195472D01*
X127362Y207480D02*
X128543D01*
X127953Y206890D02*
Y208071D01*
X136354Y150330D02*
X137535D01*
X136944Y149740D02*
Y150921D01*
X126378Y135827D02*
X127559D01*
X126969Y135236D02*
Y136417D01*
M02*
