G04 Layer_Color=8388736*
%FSLAX25Y25*%
%MOIN*%
G70*
G01*
G75*
%ADD21R,0.06890X0.01181*%
%ADD32C,0.00984*%
%ADD33C,0.00787*%
%ADD35C,0.01575*%
%ADD40C,0.05118*%
%ADD49R,0.09449X0.43307*%
%ADD50R,0.09843X0.43110*%
%ADD51R,0.19685X0.11811*%
%ADD52R,0.35433X0.41339*%
%ADD53R,0.04343X0.03162*%
%ADD54R,0.01981X0.02572*%
%ADD55R,0.04147X0.04737*%
%ADD56R,0.04147X0.04737*%
%ADD57R,0.06706X0.03556*%
%ADD58R,0.07887X0.04343*%
%ADD59R,0.03162X0.04343*%
%ADD60R,0.02375X0.02690*%
%ADD61R,0.16942X0.36627*%
%ADD62R,0.05328X0.03162*%
%ADD63C,0.01969*%
%ADD64R,0.13398X0.07099*%
%ADD65R,0.07099X0.13398*%
%ADD66R,0.04737X0.04147*%
%ADD67R,0.04737X0.04147*%
%ADD68R,0.04304X0.12847*%
%ADD69R,0.21863X0.34422*%
%ADD70R,0.03556X0.06706*%
%ADD71R,0.21784X0.06430*%
%ADD72C,0.24410*%
%ADD73R,0.06706X0.06706*%
%ADD74C,0.06706*%
%ADD75R,0.06706X0.06706*%
%ADD76R,0.08674X0.08674*%
G04:AMPARAMS|DCode=77|XSize=86.74mil|YSize=86.74mil|CornerRadius=23.69mil|HoleSize=0mil|Usage=FLASHONLY|Rotation=0.000|XOffset=0mil|YOffset=0mil|HoleType=Round|Shape=RoundedRectangle|*
%AMROUNDEDRECTD77*
21,1,0.08674,0.03937,0,0,0.0*
21,1,0.03937,0.08674,0,0,0.0*
1,1,0.04737,0.01969,-0.01969*
1,1,0.04737,-0.01969,-0.01969*
1,1,0.04737,-0.01969,0.01969*
1,1,0.04737,0.01969,0.01969*
%
%ADD77ROUNDEDRECTD77*%
G36*
X1121080Y-83717D02*
Y-84003D01*
Y-84290D01*
Y-84576D01*
Y-84862D01*
Y-85149D01*
Y-85435D01*
Y-85721D01*
Y-86007D01*
Y-86294D01*
Y-86580D01*
Y-86866D01*
Y-87153D01*
Y-87439D01*
Y-87725D01*
Y-88012D01*
Y-88298D01*
Y-88584D01*
Y-88871D01*
Y-89157D01*
Y-89443D01*
X1120793D01*
Y-89730D01*
Y-90016D01*
Y-90302D01*
Y-90588D01*
Y-90875D01*
X1120507D01*
Y-91161D01*
Y-91448D01*
Y-91734D01*
Y-92020D01*
X1120221D01*
Y-92306D01*
Y-92593D01*
Y-92879D01*
Y-93165D01*
X1119934D01*
Y-93452D01*
Y-93738D01*
Y-94024D01*
X1119648D01*
Y-94311D01*
Y-94597D01*
Y-94883D01*
X1119362D01*
Y-95170D01*
Y-95456D01*
Y-95742D01*
X1119075D01*
Y-96029D01*
Y-96315D01*
Y-96601D01*
X1118789D01*
Y-96887D01*
Y-97174D01*
X1118503D01*
Y-97460D01*
Y-97746D01*
X1118217D01*
Y-98033D01*
Y-98319D01*
Y-98605D01*
X1117930D01*
Y-98892D01*
Y-99178D01*
X1117644D01*
Y-99464D01*
Y-99751D01*
Y-100037D01*
X1117358D01*
Y-100323D01*
Y-100610D01*
X1117071D01*
Y-100896D01*
Y-101182D01*
Y-101468D01*
X1116785D01*
Y-101755D01*
Y-102041D01*
X1116499D01*
Y-102327D01*
Y-102614D01*
Y-102900D01*
X1116212D01*
Y-103186D01*
Y-103473D01*
X1115926D01*
Y-103759D01*
Y-104045D01*
Y-104332D01*
X1115640D01*
Y-104618D01*
Y-104904D01*
X1115353D01*
Y-105191D01*
Y-105477D01*
Y-105763D01*
X1115067D01*
Y-106049D01*
Y-106336D01*
X1114781D01*
Y-106622D01*
Y-106908D01*
Y-107195D01*
X1114494D01*
Y-107481D01*
Y-107767D01*
X1114208D01*
Y-108054D01*
Y-108340D01*
Y-108626D01*
X1113922D01*
Y-108913D01*
Y-109199D01*
X1113636D01*
Y-109485D01*
Y-109772D01*
Y-110058D01*
X1113349D01*
Y-110344D01*
Y-110630D01*
X1113063D01*
Y-110917D01*
Y-111203D01*
Y-111489D01*
X1112776D01*
Y-111776D01*
Y-112062D01*
X1112490D01*
Y-112348D01*
Y-112635D01*
Y-112921D01*
X1112204D01*
Y-113207D01*
Y-113494D01*
X1111918D01*
Y-113780D01*
Y-114066D01*
Y-114353D01*
X1111631D01*
Y-114639D01*
Y-114925D01*
X1111345D01*
Y-115211D01*
Y-115498D01*
Y-115784D01*
X1111059D01*
Y-116070D01*
Y-116357D01*
X1110772D01*
Y-116643D01*
Y-116929D01*
Y-117216D01*
X1110486D01*
Y-117502D01*
Y-117788D01*
X1110200D01*
Y-118075D01*
Y-118361D01*
Y-118647D01*
X1109913D01*
Y-118933D01*
Y-119220D01*
X1109627D01*
Y-119506D01*
Y-119792D01*
Y-120079D01*
X1109341D01*
Y-120365D01*
Y-120651D01*
X1109054D01*
Y-120938D01*
Y-121224D01*
X1108768D01*
Y-121510D01*
Y-121797D01*
X1108482D01*
Y-122083D01*
Y-122369D01*
Y-122656D01*
X1108195D01*
Y-122942D01*
X1107909D01*
Y-123228D01*
Y-123514D01*
Y-123801D01*
X1107623D01*
Y-124087D01*
X1107337D01*
Y-124373D01*
Y-124660D01*
X1107050D01*
Y-124946D01*
Y-125232D01*
X1106764D01*
Y-125519D01*
Y-125805D01*
X1106478D01*
Y-126091D01*
Y-126378D01*
X1106191D01*
Y-126664D01*
X1105905D01*
Y-126950D01*
Y-127237D01*
X1105619D01*
Y-127523D01*
Y-127809D01*
X1105332D01*
Y-128095D01*
X1105046D01*
Y-128382D01*
X1104760D01*
Y-128668D01*
Y-128954D01*
X1104473D01*
Y-129241D01*
X1104187D01*
Y-129527D01*
Y-129813D01*
X1103901D01*
Y-130100D01*
X1103615D01*
Y-130386D01*
X1103328D01*
Y-130672D01*
Y-130959D01*
X1103042D01*
Y-131245D01*
X1102756D01*
Y-131531D01*
X1102469D01*
Y-131818D01*
X1102183D01*
Y-132104D01*
X1101897D01*
Y-132390D01*
Y-132676D01*
X1101610D01*
Y-132963D01*
X1101324D01*
Y-133249D01*
X1101038D01*
Y-133535D01*
X1100751D01*
Y-133822D01*
X1100465D01*
Y-134108D01*
X1100179D01*
Y-134394D01*
X1099892D01*
Y-134681D01*
X1099320D01*
Y-134967D01*
X1099034D01*
Y-135253D01*
X1098747D01*
Y-135540D01*
X1098461D01*
Y-135826D01*
X1098175D01*
Y-136112D01*
X1097602D01*
Y-136399D01*
X1097316D01*
Y-136685D01*
X1096743D01*
Y-136971D01*
X1096457D01*
Y-137258D01*
X1095884D01*
Y-137544D01*
X1095598D01*
Y-137830D01*
X1095025D01*
Y-138117D01*
X1094452D01*
Y-138403D01*
X1093880D01*
Y-138689D01*
X1093307D01*
Y-138975D01*
X1092735D01*
Y-139262D01*
X1091876D01*
Y-139548D01*
X1091303D01*
Y-139834D01*
X1090444D01*
Y-140121D01*
X1089299D01*
Y-140407D01*
X1088154D01*
Y-140693D01*
X1086436D01*
Y-140980D01*
X1084432D01*
Y-141266D01*
X1084145D01*
Y-140980D01*
Y-140693D01*
Y-140407D01*
Y-140121D01*
Y-139834D01*
Y-139548D01*
Y-139262D01*
Y-138975D01*
Y-138689D01*
Y-138403D01*
Y-138117D01*
Y-137830D01*
Y-137544D01*
Y-137258D01*
Y-136971D01*
Y-136685D01*
Y-136399D01*
Y-136112D01*
Y-135826D01*
Y-135540D01*
Y-135253D01*
Y-134967D01*
Y-134681D01*
Y-134394D01*
Y-134108D01*
Y-133822D01*
Y-133535D01*
Y-133249D01*
Y-132963D01*
Y-132676D01*
Y-132390D01*
Y-132104D01*
Y-131818D01*
X1084718D01*
Y-131531D01*
X1085291D01*
Y-131245D01*
X1085863D01*
Y-130959D01*
X1086436D01*
Y-130672D01*
X1087008D01*
Y-130386D01*
X1087581D01*
Y-130100D01*
X1087867D01*
Y-129813D01*
X1088440D01*
Y-129527D01*
X1088726D01*
Y-129241D01*
X1089299D01*
Y-128954D01*
X1089585D01*
Y-128668D01*
X1089872D01*
Y-128382D01*
X1090444D01*
Y-128095D01*
X1090730D01*
Y-127809D01*
X1091017D01*
Y-127523D01*
X1091303D01*
Y-127237D01*
X1091589D01*
Y-126950D01*
X1091876D01*
Y-126664D01*
X1092162D01*
Y-126378D01*
X1092448D01*
Y-126091D01*
X1092735D01*
Y-125805D01*
X1093021D01*
Y-125519D01*
X1093307D01*
Y-125232D01*
X1093594D01*
Y-124946D01*
Y-124660D01*
X1093880D01*
Y-124373D01*
X1094166D01*
Y-124087D01*
X1094452D01*
Y-123801D01*
Y-123514D01*
X1094739D01*
Y-123228D01*
X1095025D01*
Y-122942D01*
Y-122656D01*
X1095311D01*
Y-122369D01*
Y-122083D01*
X1095598D01*
Y-121797D01*
X1095884D01*
Y-121510D01*
Y-121224D01*
X1096170D01*
Y-120938D01*
Y-120651D01*
X1096457D01*
Y-120365D01*
Y-120079D01*
X1094739D01*
Y-119792D01*
X1092735D01*
Y-119506D01*
X1091589D01*
Y-119220D01*
X1091017D01*
Y-118933D01*
X1090158D01*
Y-118647D01*
X1089585D01*
Y-118361D01*
X1089299D01*
Y-118075D01*
X1088726D01*
Y-117788D01*
X1088440D01*
Y-117502D01*
X1088154D01*
Y-117216D01*
X1087867D01*
Y-116929D01*
X1087581D01*
Y-116643D01*
X1087295D01*
Y-116357D01*
Y-116070D01*
X1087008D01*
Y-115784D01*
X1086722D01*
Y-115498D01*
Y-115211D01*
X1086436D01*
Y-114925D01*
Y-114639D01*
X1086149D01*
Y-114353D01*
Y-114066D01*
X1085863D01*
Y-113780D01*
Y-113494D01*
Y-113207D01*
X1085577D01*
Y-112921D01*
Y-112635D01*
Y-112348D01*
Y-112062D01*
X1085291D01*
Y-111776D01*
Y-111489D01*
Y-111203D01*
Y-110917D01*
Y-110630D01*
Y-110344D01*
Y-110058D01*
X1085004D01*
Y-109772D01*
Y-109485D01*
Y-109199D01*
Y-108913D01*
Y-108626D01*
Y-108340D01*
Y-108054D01*
Y-107767D01*
Y-107481D01*
Y-107195D01*
Y-106908D01*
Y-106622D01*
Y-106336D01*
Y-106049D01*
Y-105763D01*
X1084718D01*
Y-105477D01*
Y-105191D01*
Y-104904D01*
Y-104618D01*
Y-104332D01*
Y-104045D01*
Y-103759D01*
Y-103473D01*
Y-103186D01*
Y-102900D01*
Y-102614D01*
Y-102327D01*
Y-102041D01*
Y-101755D01*
Y-101468D01*
X1084432D01*
Y-101182D01*
Y-100896D01*
Y-100610D01*
Y-100323D01*
Y-100037D01*
Y-99751D01*
Y-99464D01*
Y-99178D01*
Y-98892D01*
Y-98605D01*
Y-98319D01*
Y-98033D01*
Y-97746D01*
Y-97460D01*
Y-97174D01*
Y-96887D01*
X1084145D01*
Y-96601D01*
Y-96315D01*
Y-96029D01*
Y-95742D01*
Y-95456D01*
Y-95170D01*
Y-94883D01*
Y-94597D01*
Y-94311D01*
Y-94024D01*
Y-93738D01*
Y-93452D01*
Y-93165D01*
Y-92879D01*
Y-92593D01*
Y-92306D01*
X1083859D01*
Y-92020D01*
Y-91734D01*
Y-91448D01*
Y-91161D01*
Y-90875D01*
Y-90588D01*
Y-90302D01*
Y-90016D01*
Y-89730D01*
Y-89443D01*
Y-89157D01*
Y-88871D01*
Y-88584D01*
Y-88298D01*
X1083573D01*
Y-88012D01*
Y-87725D01*
Y-87439D01*
Y-87153D01*
Y-86866D01*
Y-86580D01*
Y-86294D01*
Y-86007D01*
Y-85721D01*
Y-85435D01*
Y-85149D01*
Y-84862D01*
Y-84576D01*
Y-84290D01*
Y-84003D01*
Y-83717D01*
X1083286D01*
Y-83431D01*
X1097029D01*
Y-83717D01*
Y-84003D01*
Y-84290D01*
Y-84576D01*
Y-84862D01*
Y-85149D01*
Y-85435D01*
Y-85721D01*
Y-86007D01*
Y-86294D01*
Y-86580D01*
Y-86866D01*
Y-87153D01*
Y-87439D01*
X1097316D01*
Y-87725D01*
Y-88012D01*
Y-88298D01*
Y-88584D01*
Y-88871D01*
Y-89157D01*
Y-89443D01*
Y-89730D01*
Y-90016D01*
Y-90302D01*
Y-90588D01*
Y-90875D01*
Y-91161D01*
Y-91448D01*
Y-91734D01*
Y-92020D01*
Y-92306D01*
Y-92593D01*
Y-92879D01*
Y-93165D01*
Y-93452D01*
Y-93738D01*
Y-94024D01*
Y-94311D01*
Y-94597D01*
Y-94883D01*
Y-95170D01*
Y-95456D01*
Y-95742D01*
Y-96029D01*
Y-96315D01*
Y-96601D01*
Y-96887D01*
Y-97174D01*
Y-97460D01*
Y-97746D01*
Y-98033D01*
Y-98319D01*
Y-98605D01*
Y-98892D01*
Y-99178D01*
X1097602D01*
Y-99464D01*
X1097316D01*
Y-99751D01*
Y-100037D01*
X1097602D01*
Y-100323D01*
Y-100610D01*
Y-100896D01*
Y-101182D01*
Y-101468D01*
Y-101755D01*
Y-102041D01*
Y-102327D01*
Y-102614D01*
Y-102900D01*
Y-103186D01*
Y-103473D01*
Y-103759D01*
Y-104045D01*
Y-104332D01*
Y-104618D01*
Y-104904D01*
Y-105191D01*
Y-105477D01*
Y-105763D01*
Y-106049D01*
Y-106336D01*
Y-106622D01*
Y-106908D01*
Y-107195D01*
Y-107481D01*
X1097888D01*
Y-107767D01*
Y-108054D01*
Y-108340D01*
X1098175D01*
Y-108626D01*
X1098461D01*
Y-108913D01*
X1098747D01*
Y-109199D01*
X1099606D01*
Y-109485D01*
X1100465D01*
Y-109199D01*
X1100751D01*
Y-108913D01*
Y-108626D01*
Y-108340D01*
X1101038D01*
Y-108054D01*
Y-107767D01*
X1101324D01*
Y-107481D01*
Y-107195D01*
Y-106908D01*
X1101610D01*
Y-106622D01*
Y-106336D01*
Y-106049D01*
X1101897D01*
Y-105763D01*
Y-105477D01*
Y-105191D01*
X1102183D01*
Y-104904D01*
Y-104618D01*
Y-104332D01*
X1102469D01*
Y-104045D01*
Y-103759D01*
X1102756D01*
Y-103473D01*
Y-103186D01*
Y-102900D01*
X1103042D01*
Y-102614D01*
Y-102327D01*
Y-102041D01*
X1103328D01*
Y-101755D01*
Y-101468D01*
Y-101182D01*
X1103615D01*
Y-100896D01*
Y-100610D01*
X1103901D01*
Y-100323D01*
Y-100037D01*
Y-99751D01*
X1104187D01*
Y-99464D01*
Y-99178D01*
Y-98892D01*
X1104473D01*
Y-98605D01*
Y-98319D01*
Y-98033D01*
X1104760D01*
Y-97746D01*
Y-97460D01*
X1105046D01*
Y-97174D01*
Y-96887D01*
Y-96601D01*
X1105332D01*
Y-96315D01*
Y-96029D01*
Y-95742D01*
X1105619D01*
Y-95456D01*
Y-95170D01*
Y-94883D01*
X1105905D01*
Y-94597D01*
Y-94311D01*
X1106191D01*
Y-94024D01*
Y-93738D01*
Y-93452D01*
X1106478D01*
Y-93165D01*
Y-92879D01*
Y-92593D01*
X1106764D01*
Y-92306D01*
Y-92020D01*
Y-91734D01*
X1107050D01*
Y-91448D01*
Y-91161D01*
Y-90875D01*
Y-90588D01*
X1107337D01*
Y-90302D01*
Y-90016D01*
Y-89730D01*
Y-89443D01*
X1107623D01*
Y-89157D01*
Y-88871D01*
Y-88584D01*
Y-88298D01*
Y-88012D01*
X1107909D01*
Y-87725D01*
Y-87439D01*
Y-87153D01*
Y-86866D01*
Y-86580D01*
Y-86294D01*
X1108195D01*
Y-86007D01*
Y-85721D01*
Y-85435D01*
Y-85149D01*
Y-84862D01*
Y-84576D01*
Y-84290D01*
Y-84003D01*
Y-83717D01*
Y-83431D01*
X1121080D01*
Y-83717D01*
D02*
G37*
G36*
X1063244Y-66252D02*
Y-66538D01*
X1062958D01*
Y-66825D01*
Y-67111D01*
Y-67397D01*
Y-67684D01*
Y-67970D01*
Y-68256D01*
X1062672D01*
Y-68542D01*
Y-68829D01*
Y-69115D01*
Y-69401D01*
Y-69688D01*
Y-69974D01*
X1062385D01*
Y-70260D01*
Y-70547D01*
Y-70833D01*
Y-71119D01*
Y-71406D01*
Y-71692D01*
Y-71978D01*
X1062099D01*
Y-72264D01*
Y-72551D01*
Y-72837D01*
Y-73123D01*
Y-73410D01*
Y-73696D01*
X1061813D01*
Y-73982D01*
Y-74269D01*
Y-74555D01*
Y-74841D01*
Y-75128D01*
Y-75414D01*
X1061526D01*
Y-75700D01*
Y-75987D01*
Y-76273D01*
Y-76559D01*
Y-76846D01*
Y-77132D01*
Y-77418D01*
X1061240D01*
Y-77704D01*
Y-77991D01*
Y-78277D01*
Y-78563D01*
Y-78850D01*
Y-79136D01*
X1060954D01*
Y-79422D01*
Y-79709D01*
Y-79995D01*
Y-80281D01*
Y-80568D01*
Y-80854D01*
X1060668D01*
Y-81140D01*
Y-81427D01*
Y-81713D01*
Y-81999D01*
Y-82285D01*
Y-82572D01*
X1060381D01*
Y-82858D01*
Y-83144D01*
Y-83431D01*
Y-83717D01*
Y-84003D01*
Y-84290D01*
Y-84576D01*
X1060095D01*
Y-84862D01*
Y-85149D01*
Y-85435D01*
Y-85721D01*
Y-86007D01*
Y-86294D01*
X1059809D01*
Y-86580D01*
Y-86866D01*
X1060381D01*
Y-86580D01*
X1060668D01*
Y-86294D01*
X1060954D01*
Y-86007D01*
X1061526D01*
Y-85721D01*
X1061813D01*
Y-85435D01*
X1062099D01*
Y-85149D01*
X1062672D01*
Y-84862D01*
X1063244D01*
Y-84576D01*
X1063531D01*
Y-84290D01*
X1064103D01*
Y-84003D01*
X1064962D01*
Y-83717D01*
X1065535D01*
Y-83431D01*
X1066394D01*
Y-83144D01*
X1067825D01*
Y-82858D01*
X1074124D01*
Y-83144D01*
X1075270D01*
Y-83431D01*
X1076128D01*
Y-83717D01*
X1076701D01*
Y-84003D01*
X1076987D01*
Y-84290D01*
X1077560D01*
Y-84576D01*
X1077846D01*
Y-84862D01*
X1078133D01*
Y-85149D01*
X1078419D01*
Y-85435D01*
X1078705D01*
Y-85721D01*
Y-86007D01*
X1078992D01*
Y-86294D01*
Y-86580D01*
X1079278D01*
Y-86866D01*
Y-87153D01*
Y-87439D01*
X1079564D01*
Y-87725D01*
Y-88012D01*
Y-88298D01*
Y-88584D01*
X1079850D01*
Y-88871D01*
Y-89157D01*
Y-89443D01*
Y-89730D01*
Y-90016D01*
Y-90302D01*
Y-90588D01*
Y-90875D01*
Y-91161D01*
Y-91448D01*
Y-91734D01*
Y-92020D01*
Y-92306D01*
Y-92593D01*
Y-92879D01*
Y-93165D01*
Y-93452D01*
Y-93738D01*
X1079564D01*
Y-94024D01*
Y-94311D01*
Y-94597D01*
Y-94883D01*
Y-95170D01*
Y-95456D01*
Y-95742D01*
X1079278D01*
Y-96029D01*
Y-96315D01*
Y-96601D01*
Y-96887D01*
Y-97174D01*
Y-97460D01*
Y-97746D01*
X1078992D01*
Y-98033D01*
Y-98319D01*
Y-98605D01*
Y-98892D01*
Y-99178D01*
Y-99464D01*
X1078705D01*
Y-99751D01*
Y-100037D01*
Y-100323D01*
Y-100610D01*
Y-100896D01*
Y-101182D01*
X1078419D01*
Y-101468D01*
Y-101755D01*
Y-102041D01*
Y-102327D01*
Y-102614D01*
Y-102900D01*
X1078133D01*
Y-103186D01*
Y-103473D01*
Y-103759D01*
Y-104045D01*
Y-104332D01*
Y-104618D01*
Y-104904D01*
X1077846D01*
Y-105191D01*
Y-105477D01*
Y-105763D01*
Y-106049D01*
Y-106336D01*
Y-106622D01*
X1077560D01*
Y-106908D01*
Y-107195D01*
Y-107481D01*
Y-107767D01*
Y-108054D01*
Y-108340D01*
X1077274D01*
Y-108626D01*
Y-108913D01*
Y-109199D01*
Y-109485D01*
Y-109772D01*
Y-110058D01*
Y-110344D01*
X1076987D01*
Y-110630D01*
Y-110917D01*
Y-111203D01*
Y-111489D01*
Y-111776D01*
Y-112062D01*
X1076701D01*
Y-112348D01*
Y-112635D01*
Y-112921D01*
Y-113207D01*
Y-113494D01*
Y-113780D01*
X1076415D01*
Y-114066D01*
Y-114353D01*
Y-114639D01*
Y-114925D01*
Y-115211D01*
Y-115498D01*
X1076128D01*
Y-115784D01*
Y-116070D01*
Y-116357D01*
Y-116643D01*
Y-116929D01*
Y-117216D01*
Y-117502D01*
X1075842D01*
Y-117788D01*
Y-118075D01*
Y-118361D01*
Y-118647D01*
Y-118933D01*
Y-119220D01*
X1075556D01*
Y-119506D01*
Y-119792D01*
X1062385D01*
Y-119506D01*
Y-119220D01*
X1062672D01*
Y-118933D01*
Y-118647D01*
Y-118361D01*
Y-118075D01*
Y-117788D01*
Y-117502D01*
X1062958D01*
Y-117216D01*
Y-116929D01*
Y-116643D01*
Y-116357D01*
Y-116070D01*
Y-115784D01*
Y-115498D01*
X1063244D01*
Y-115211D01*
Y-114925D01*
Y-114639D01*
Y-114353D01*
Y-114066D01*
Y-113780D01*
X1063531D01*
Y-113494D01*
Y-113207D01*
Y-112921D01*
Y-112635D01*
Y-112348D01*
Y-112062D01*
X1063817D01*
Y-111776D01*
Y-111489D01*
Y-111203D01*
Y-110917D01*
Y-110630D01*
Y-110344D01*
Y-110058D01*
X1064103D01*
Y-109772D01*
Y-109485D01*
Y-109199D01*
Y-108913D01*
Y-108626D01*
Y-108340D01*
X1064390D01*
Y-108054D01*
Y-107767D01*
Y-107481D01*
Y-107195D01*
Y-106908D01*
Y-106622D01*
Y-106336D01*
X1064676D01*
Y-106049D01*
Y-105763D01*
Y-105477D01*
Y-105191D01*
Y-104904D01*
Y-104618D01*
X1064962D01*
Y-104332D01*
Y-104045D01*
Y-103759D01*
Y-103473D01*
Y-103186D01*
Y-102900D01*
X1065249D01*
Y-102614D01*
Y-102327D01*
Y-102041D01*
Y-101755D01*
Y-101468D01*
Y-101182D01*
X1065535D01*
Y-100896D01*
Y-100610D01*
Y-100323D01*
Y-100037D01*
Y-99751D01*
Y-99464D01*
Y-99178D01*
X1065821D01*
Y-98892D01*
Y-98605D01*
Y-98319D01*
Y-98033D01*
Y-97746D01*
Y-97460D01*
X1066107D01*
Y-97174D01*
Y-96887D01*
Y-96601D01*
Y-96315D01*
Y-96029D01*
Y-95742D01*
Y-95456D01*
X1066394D01*
Y-95170D01*
Y-94883D01*
Y-94597D01*
Y-94311D01*
Y-94024D01*
Y-93738D01*
X1066107D01*
Y-93452D01*
Y-93165D01*
X1065821D01*
Y-92879D01*
X1065535D01*
Y-92593D01*
X1064962D01*
Y-92306D01*
X1063244D01*
Y-92593D01*
X1061813D01*
Y-92879D01*
X1060954D01*
Y-93165D01*
X1060381D01*
Y-93452D01*
X1060095D01*
Y-93738D01*
X1059522D01*
Y-94024D01*
X1059236D01*
Y-94311D01*
X1058950D01*
Y-94597D01*
Y-94883D01*
X1058663D01*
Y-95170D01*
Y-95456D01*
Y-95742D01*
X1058377D01*
Y-96029D01*
Y-96315D01*
Y-96601D01*
Y-96887D01*
Y-97174D01*
Y-97460D01*
X1058091D01*
Y-97746D01*
Y-98033D01*
Y-98319D01*
Y-98605D01*
Y-98892D01*
Y-99178D01*
Y-99464D01*
X1057804D01*
Y-99751D01*
Y-100037D01*
Y-100323D01*
Y-100610D01*
Y-100896D01*
Y-101182D01*
X1057518D01*
Y-101468D01*
Y-101755D01*
Y-102041D01*
Y-102327D01*
Y-102614D01*
Y-102900D01*
X1057232D01*
Y-103186D01*
Y-103473D01*
Y-103759D01*
Y-104045D01*
Y-104332D01*
Y-104618D01*
X1056946D01*
Y-104904D01*
Y-105191D01*
Y-105477D01*
Y-105763D01*
Y-106049D01*
Y-106336D01*
Y-106622D01*
X1056659D01*
Y-106908D01*
Y-107195D01*
Y-107481D01*
Y-107767D01*
Y-108054D01*
Y-108340D01*
X1056373D01*
Y-108626D01*
Y-108913D01*
Y-109199D01*
Y-109485D01*
Y-109772D01*
Y-110058D01*
X1056087D01*
Y-110344D01*
Y-110630D01*
Y-110917D01*
Y-111203D01*
Y-111489D01*
Y-111776D01*
Y-112062D01*
X1055800D01*
Y-112348D01*
Y-112635D01*
Y-112921D01*
Y-113207D01*
Y-113494D01*
Y-113780D01*
X1055514D01*
Y-114066D01*
Y-114353D01*
Y-114639D01*
Y-114925D01*
Y-115211D01*
Y-115498D01*
X1055228D01*
Y-115784D01*
Y-116070D01*
Y-116357D01*
Y-116643D01*
Y-116929D01*
Y-117216D01*
X1054941D01*
Y-117502D01*
Y-117788D01*
Y-118075D01*
Y-118361D01*
Y-118647D01*
Y-118933D01*
Y-119220D01*
X1054655D01*
Y-119506D01*
Y-119792D01*
X1041485D01*
Y-119506D01*
Y-119220D01*
X1041771D01*
Y-118933D01*
Y-118647D01*
Y-118361D01*
Y-118075D01*
Y-117788D01*
Y-117502D01*
Y-117216D01*
X1042057D01*
Y-116929D01*
Y-116643D01*
Y-116357D01*
Y-116070D01*
Y-115784D01*
Y-115498D01*
X1042344D01*
Y-115211D01*
Y-114925D01*
Y-114639D01*
Y-114353D01*
Y-114066D01*
Y-113780D01*
X1042630D01*
Y-113494D01*
Y-113207D01*
Y-112921D01*
Y-112635D01*
Y-112348D01*
Y-112062D01*
Y-111776D01*
X1042916D01*
Y-111489D01*
Y-111203D01*
Y-110917D01*
Y-110630D01*
Y-110344D01*
Y-110058D01*
X1043202D01*
Y-109772D01*
Y-109485D01*
Y-109199D01*
Y-108913D01*
Y-108626D01*
Y-108340D01*
X1043489D01*
Y-108054D01*
Y-107767D01*
Y-107481D01*
Y-107195D01*
Y-106908D01*
Y-106622D01*
X1043775D01*
Y-106336D01*
Y-106049D01*
Y-105763D01*
Y-105477D01*
Y-105191D01*
Y-104904D01*
Y-104618D01*
X1044061D01*
Y-104332D01*
Y-104045D01*
Y-103759D01*
Y-103473D01*
Y-103186D01*
Y-102900D01*
X1044348D01*
Y-102614D01*
Y-102327D01*
Y-102041D01*
Y-101755D01*
Y-101468D01*
Y-101182D01*
X1044634D01*
Y-100896D01*
Y-100610D01*
Y-100323D01*
Y-100037D01*
Y-99751D01*
Y-99464D01*
Y-99178D01*
X1044920D01*
Y-98892D01*
Y-98605D01*
Y-98319D01*
Y-98033D01*
Y-97746D01*
Y-97460D01*
X1045207D01*
Y-97174D01*
Y-96887D01*
Y-96601D01*
Y-96315D01*
Y-96029D01*
Y-95742D01*
X1045493D01*
Y-95456D01*
Y-95170D01*
Y-94883D01*
Y-94597D01*
Y-94311D01*
Y-94024D01*
X1045779D01*
Y-93738D01*
Y-93452D01*
Y-93165D01*
Y-92879D01*
Y-92593D01*
Y-92306D01*
Y-92020D01*
X1046066D01*
Y-91734D01*
Y-91448D01*
Y-91161D01*
Y-90875D01*
Y-90588D01*
Y-90302D01*
X1046352D01*
Y-90016D01*
Y-89730D01*
Y-89443D01*
Y-89157D01*
Y-88871D01*
Y-88584D01*
X1046638D01*
Y-88298D01*
Y-88012D01*
Y-87725D01*
Y-87439D01*
Y-87153D01*
Y-86866D01*
X1046925D01*
Y-86580D01*
Y-86294D01*
Y-86007D01*
Y-85721D01*
Y-85435D01*
Y-85149D01*
Y-84862D01*
X1047211D01*
Y-84576D01*
Y-84290D01*
Y-84003D01*
Y-83717D01*
Y-83431D01*
Y-83144D01*
X1047497D01*
Y-82858D01*
Y-82572D01*
Y-82285D01*
Y-81999D01*
Y-81713D01*
Y-81427D01*
X1047783D01*
Y-81140D01*
Y-80854D01*
Y-80568D01*
Y-80281D01*
Y-79995D01*
Y-79709D01*
Y-79422D01*
X1048070D01*
Y-79136D01*
Y-78850D01*
Y-78563D01*
Y-78277D01*
Y-77991D01*
Y-77704D01*
X1048356D01*
Y-77418D01*
Y-77132D01*
Y-76846D01*
Y-76559D01*
Y-76273D01*
Y-75987D01*
X1048642D01*
Y-75700D01*
Y-75414D01*
Y-75128D01*
Y-74841D01*
Y-74555D01*
Y-74269D01*
X1048929D01*
Y-73982D01*
Y-73696D01*
Y-73410D01*
Y-73123D01*
Y-72837D01*
Y-72551D01*
Y-72264D01*
X1049215D01*
Y-71978D01*
Y-71692D01*
Y-71406D01*
Y-71119D01*
Y-70833D01*
Y-70547D01*
X1049501D01*
Y-70260D01*
Y-69974D01*
Y-69688D01*
Y-69401D01*
Y-69115D01*
Y-68829D01*
X1049788D01*
Y-68542D01*
Y-68256D01*
Y-67970D01*
Y-67684D01*
Y-67397D01*
Y-67111D01*
Y-66825D01*
X1050074D01*
Y-66538D01*
Y-66252D01*
Y-65966D01*
X1063244D01*
Y-66252D01*
D02*
G37*
G36*
X1032036Y-69688D02*
X1033754D01*
Y-69974D01*
X1034613D01*
Y-70260D01*
X1035472D01*
Y-70547D01*
X1036331D01*
Y-70833D01*
X1036904D01*
Y-71119D01*
X1037190D01*
Y-71406D01*
X1037763D01*
Y-71692D01*
X1038049D01*
Y-71978D01*
X1038622D01*
Y-72264D01*
X1038908D01*
Y-72551D01*
X1039194D01*
Y-72837D01*
X1039480D01*
Y-73123D01*
X1039767D01*
Y-73410D01*
X1040053D01*
Y-73696D01*
X1040339D01*
Y-73982D01*
Y-74269D01*
X1040626D01*
Y-74555D01*
X1040912D01*
Y-74841D01*
Y-75128D01*
X1041198D01*
Y-75414D01*
X1041485D01*
Y-75700D01*
Y-75987D01*
X1041771D01*
Y-76273D01*
Y-76559D01*
Y-76846D01*
X1042057D01*
Y-77132D01*
Y-77418D01*
Y-77704D01*
X1042344D01*
Y-77991D01*
Y-78277D01*
Y-78563D01*
Y-78850D01*
X1042630D01*
Y-79136D01*
Y-79422D01*
Y-79709D01*
Y-79995D01*
Y-80281D01*
X1042916D01*
Y-80568D01*
Y-80854D01*
Y-81140D01*
Y-81427D01*
Y-81713D01*
Y-81999D01*
Y-82285D01*
Y-82572D01*
Y-82858D01*
Y-83144D01*
Y-83431D01*
Y-83717D01*
Y-84003D01*
Y-84290D01*
Y-84576D01*
Y-84862D01*
Y-85149D01*
Y-85435D01*
Y-85721D01*
Y-86007D01*
X1042630D01*
Y-86294D01*
Y-86580D01*
Y-86866D01*
Y-87153D01*
Y-87439D01*
Y-87725D01*
Y-88012D01*
X1042344D01*
Y-88298D01*
Y-88584D01*
Y-88871D01*
Y-89157D01*
Y-89443D01*
X1042057D01*
Y-89730D01*
Y-90016D01*
Y-90302D01*
Y-90588D01*
Y-90875D01*
X1041771D01*
Y-91161D01*
Y-91448D01*
Y-91734D01*
X1041485D01*
Y-92020D01*
Y-92306D01*
Y-92593D01*
Y-92879D01*
X1041198D01*
Y-93165D01*
Y-93452D01*
Y-93738D01*
X1040912D01*
Y-94024D01*
Y-94311D01*
X1040626D01*
Y-94597D01*
Y-94883D01*
Y-95170D01*
X1040339D01*
Y-95456D01*
Y-95742D01*
X1040053D01*
Y-96029D01*
Y-96315D01*
X1039767D01*
Y-96601D01*
Y-96887D01*
X1039480D01*
Y-97174D01*
X1039194D01*
Y-97460D01*
Y-97746D01*
X1038908D01*
Y-98033D01*
X1038622D01*
Y-98319D01*
X1038335D01*
Y-98605D01*
Y-98892D01*
X1038049D01*
Y-99178D01*
X1037763D01*
Y-99464D01*
X1037476D01*
Y-99751D01*
X1037190D01*
Y-100037D01*
X1036904D01*
Y-100323D01*
X1036331D01*
Y-100610D01*
X1036045D01*
Y-100896D01*
X1035472D01*
Y-101182D01*
X1035186D01*
Y-101468D01*
X1034613D01*
Y-101755D01*
X1033754D01*
Y-102041D01*
X1032895D01*
Y-102327D01*
X1032036D01*
Y-102614D01*
X1030318D01*
Y-102900D01*
X1025165D01*
Y-102614D01*
X1022588D01*
Y-102327D01*
X1020584D01*
Y-102041D01*
X1019152D01*
Y-101755D01*
X1017721D01*
Y-101468D01*
X1016289D01*
Y-101755D01*
Y-102041D01*
Y-102327D01*
Y-102614D01*
Y-102900D01*
Y-103186D01*
Y-103473D01*
X1016003D01*
Y-103759D01*
Y-104045D01*
Y-104332D01*
Y-104618D01*
Y-104904D01*
Y-105191D01*
X1015716D01*
Y-105477D01*
Y-105763D01*
Y-106049D01*
Y-106336D01*
Y-106622D01*
Y-106908D01*
X1015430D01*
Y-107195D01*
Y-107481D01*
Y-107767D01*
Y-108054D01*
Y-108340D01*
Y-108626D01*
Y-108913D01*
X1015144D01*
Y-109199D01*
Y-109485D01*
Y-109772D01*
Y-110058D01*
Y-110344D01*
Y-110630D01*
X1014857D01*
Y-110917D01*
Y-111203D01*
Y-111489D01*
Y-111776D01*
Y-112062D01*
Y-112348D01*
X1014571D01*
Y-112635D01*
Y-112921D01*
Y-113207D01*
Y-113494D01*
Y-113780D01*
Y-114066D01*
Y-114353D01*
X1014285D01*
Y-114639D01*
Y-114925D01*
Y-115211D01*
Y-115498D01*
Y-115784D01*
Y-116070D01*
X1013999D01*
Y-116357D01*
Y-116643D01*
Y-116929D01*
Y-117216D01*
Y-117502D01*
Y-117788D01*
X1013712D01*
Y-118075D01*
Y-118361D01*
Y-118647D01*
Y-118933D01*
Y-119220D01*
Y-119506D01*
Y-119792D01*
X1000256D01*
Y-119506D01*
X1000542D01*
Y-119220D01*
Y-118933D01*
Y-118647D01*
Y-118361D01*
Y-118075D01*
X1000828D01*
Y-117788D01*
Y-117502D01*
Y-117216D01*
Y-116929D01*
Y-116643D01*
Y-116357D01*
Y-116070D01*
X1001114D01*
Y-115784D01*
Y-115498D01*
Y-115211D01*
Y-114925D01*
Y-114639D01*
Y-114353D01*
X1001401D01*
Y-114066D01*
Y-113780D01*
Y-113494D01*
Y-113207D01*
Y-112921D01*
Y-112635D01*
X1001687D01*
Y-112348D01*
Y-112062D01*
Y-111776D01*
Y-111489D01*
Y-111203D01*
Y-110917D01*
Y-110630D01*
X1001974D01*
Y-110344D01*
Y-110058D01*
Y-109772D01*
Y-109485D01*
Y-109199D01*
Y-108913D01*
X1002260D01*
Y-108626D01*
Y-108340D01*
Y-108054D01*
Y-107767D01*
Y-107481D01*
Y-107195D01*
X1002546D01*
Y-106908D01*
Y-106622D01*
Y-106336D01*
Y-106049D01*
Y-105763D01*
Y-105477D01*
X1002832D01*
Y-105191D01*
Y-104904D01*
Y-104618D01*
Y-104332D01*
Y-104045D01*
Y-103759D01*
Y-103473D01*
X1003119D01*
Y-103186D01*
Y-102900D01*
Y-102614D01*
Y-102327D01*
Y-102041D01*
Y-101755D01*
X1003405D01*
Y-101468D01*
Y-101182D01*
Y-100896D01*
Y-100610D01*
Y-100323D01*
Y-100037D01*
X1003691D01*
Y-99751D01*
Y-99464D01*
Y-99178D01*
Y-98892D01*
Y-98605D01*
Y-98319D01*
X1003978D01*
Y-98033D01*
Y-97746D01*
Y-97460D01*
Y-97174D01*
Y-96887D01*
Y-96601D01*
Y-96315D01*
X1004264D01*
Y-96029D01*
Y-95742D01*
Y-95456D01*
Y-95170D01*
Y-94883D01*
Y-94597D01*
X1004550D01*
Y-94311D01*
Y-94024D01*
Y-93738D01*
Y-93452D01*
Y-93165D01*
Y-92879D01*
X1004837D01*
Y-92593D01*
Y-92306D01*
Y-92020D01*
Y-91734D01*
Y-91448D01*
Y-91161D01*
Y-90875D01*
X1005123D01*
Y-90588D01*
Y-90302D01*
Y-90016D01*
Y-89730D01*
Y-89443D01*
Y-89157D01*
X1005409D01*
Y-88871D01*
Y-88584D01*
Y-88298D01*
Y-88012D01*
Y-87725D01*
Y-87439D01*
X1005696D01*
Y-87153D01*
Y-86866D01*
Y-86580D01*
Y-86294D01*
Y-86007D01*
Y-85721D01*
X1005982D01*
Y-85435D01*
Y-85149D01*
Y-84862D01*
Y-84576D01*
Y-84290D01*
Y-84003D01*
Y-83717D01*
X1006268D01*
Y-83431D01*
Y-83144D01*
Y-82858D01*
Y-82572D01*
Y-82285D01*
Y-81999D01*
X1006555D01*
Y-81713D01*
Y-81427D01*
Y-81140D01*
Y-80854D01*
Y-80568D01*
Y-80281D01*
X1006841D01*
Y-79995D01*
Y-79709D01*
Y-79422D01*
Y-79136D01*
Y-78850D01*
Y-78563D01*
Y-78277D01*
X1007127D01*
Y-77991D01*
Y-77704D01*
Y-77418D01*
Y-77132D01*
Y-76846D01*
Y-76559D01*
X1007413D01*
Y-76273D01*
Y-75987D01*
Y-75700D01*
Y-75414D01*
Y-75128D01*
Y-74841D01*
X1007700D01*
Y-74555D01*
Y-74269D01*
Y-73982D01*
Y-73696D01*
Y-73410D01*
Y-73123D01*
Y-72837D01*
X1007986D01*
Y-72551D01*
Y-72264D01*
Y-71978D01*
Y-71692D01*
Y-71406D01*
Y-71119D01*
X1008272D01*
Y-70833D01*
Y-70547D01*
Y-70260D01*
Y-69974D01*
Y-69688D01*
Y-69401D01*
X1032036D01*
Y-69688D01*
D02*
G37*
G36*
X1165172Y-83717D02*
X1164886D01*
Y-84003D01*
X1164599D01*
Y-84290D01*
Y-84576D01*
X1164313D01*
Y-84862D01*
X1164027D01*
Y-85149D01*
X1163740D01*
Y-85435D01*
Y-85721D01*
X1163454D01*
Y-86007D01*
X1163168D01*
Y-86294D01*
X1162881D01*
Y-86580D01*
X1162595D01*
Y-86866D01*
Y-87153D01*
X1162309D01*
Y-87439D01*
X1162022D01*
Y-87725D01*
X1161736D01*
Y-88012D01*
Y-88298D01*
X1161450D01*
Y-88584D01*
X1161163D01*
Y-88871D01*
X1160877D01*
Y-89157D01*
X1160591D01*
Y-89443D01*
Y-89730D01*
X1160305D01*
Y-90016D01*
X1160018D01*
Y-90302D01*
X1159732D01*
Y-90588D01*
Y-90875D01*
X1159445D01*
Y-91161D01*
X1159159D01*
Y-91448D01*
X1158873D01*
Y-91734D01*
Y-92020D01*
X1158587D01*
Y-92306D01*
X1158300D01*
Y-92593D01*
X1158014D01*
Y-92879D01*
X1157728D01*
Y-93165D01*
Y-93452D01*
X1157441D01*
Y-93738D01*
X1157155D01*
Y-94024D01*
X1156869D01*
Y-94311D01*
Y-94597D01*
X1156582D01*
Y-94883D01*
X1156296D01*
Y-95170D01*
X1156010D01*
Y-95456D01*
Y-95742D01*
X1155723D01*
Y-96029D01*
X1155437D01*
Y-96315D01*
X1155151D01*
Y-96601D01*
X1154865D01*
Y-96887D01*
Y-97174D01*
X1154578D01*
Y-97460D01*
X1154292D01*
Y-97746D01*
X1154006D01*
Y-98033D01*
Y-98319D01*
X1153719D01*
Y-98605D01*
X1153433D01*
Y-98892D01*
X1153147D01*
Y-99178D01*
Y-99464D01*
X1152860D01*
Y-99751D01*
X1152574D01*
Y-100037D01*
X1152288D01*
Y-100323D01*
X1152001D01*
Y-100610D01*
Y-100896D01*
X1151715D01*
Y-101182D01*
X1151429D01*
Y-101468D01*
X1151142D01*
Y-101755D01*
Y-102041D01*
X1150856D01*
Y-102327D01*
X1150570D01*
Y-102614D01*
X1150284D01*
Y-102900D01*
X1149997D01*
Y-103186D01*
Y-103473D01*
X1150284D01*
Y-103759D01*
Y-104045D01*
X1150570D01*
Y-104332D01*
Y-104618D01*
X1150856D01*
Y-104904D01*
X1151142D01*
Y-105191D01*
Y-105477D01*
X1151429D01*
Y-105763D01*
Y-106049D01*
X1151715D01*
Y-106336D01*
Y-106622D01*
X1152001D01*
Y-106908D01*
Y-107195D01*
X1152288D01*
Y-107481D01*
Y-107767D01*
X1152574D01*
Y-108054D01*
Y-108340D01*
X1152860D01*
Y-108626D01*
Y-108913D01*
X1153147D01*
Y-109199D01*
Y-109485D01*
X1153433D01*
Y-109772D01*
X1153719D01*
Y-110058D01*
Y-110344D01*
X1154006D01*
Y-110630D01*
Y-110917D01*
X1154292D01*
Y-111203D01*
Y-111489D01*
X1154578D01*
Y-111776D01*
Y-112062D01*
X1154865D01*
Y-112348D01*
Y-112635D01*
X1155151D01*
Y-112921D01*
Y-113207D01*
X1155437D01*
Y-113494D01*
Y-113780D01*
X1155723D01*
Y-114066D01*
X1156010D01*
Y-114353D01*
Y-114639D01*
X1156296D01*
Y-114925D01*
Y-115211D01*
X1156582D01*
Y-115498D01*
Y-115784D01*
X1156869D01*
Y-116070D01*
Y-116357D01*
X1157155D01*
Y-116643D01*
Y-116929D01*
X1157441D01*
Y-117216D01*
Y-117502D01*
X1157728D01*
Y-117788D01*
Y-118075D01*
X1158014D01*
Y-118361D01*
X1158300D01*
Y-118647D01*
Y-118933D01*
X1158587D01*
Y-119220D01*
Y-119506D01*
X1158873D01*
Y-119792D01*
X1143698D01*
Y-119506D01*
X1143412D01*
Y-119220D01*
Y-118933D01*
Y-118647D01*
X1143126D01*
Y-118361D01*
Y-118075D01*
Y-117788D01*
X1142839D01*
Y-117502D01*
Y-117216D01*
X1142553D01*
Y-116929D01*
Y-116643D01*
Y-116357D01*
X1142267D01*
Y-116070D01*
Y-115784D01*
Y-115498D01*
X1141980D01*
Y-115211D01*
Y-114925D01*
X1141694D01*
Y-114639D01*
Y-114353D01*
Y-114066D01*
X1141408D01*
Y-113780D01*
Y-113494D01*
Y-113207D01*
X1141121D01*
Y-112921D01*
Y-112635D01*
Y-112348D01*
X1140835D01*
Y-112062D01*
X1140263D01*
Y-112348D01*
Y-112635D01*
X1139976D01*
Y-112921D01*
X1139690D01*
Y-113207D01*
Y-113494D01*
X1139404D01*
Y-113780D01*
X1139117D01*
Y-114066D01*
Y-114353D01*
X1138831D01*
Y-114639D01*
X1138545D01*
Y-114925D01*
Y-115211D01*
X1138258D01*
Y-115498D01*
X1137972D01*
Y-115784D01*
X1137686D01*
Y-116070D01*
Y-116357D01*
X1137399D01*
Y-116643D01*
X1137113D01*
Y-116929D01*
Y-117216D01*
X1136827D01*
Y-117502D01*
X1136541D01*
Y-117788D01*
Y-118075D01*
X1136254D01*
Y-118361D01*
X1135968D01*
Y-118647D01*
Y-118933D01*
X1135682D01*
Y-119220D01*
X1135395D01*
Y-119506D01*
Y-119792D01*
X1119362D01*
Y-119506D01*
X1119648D01*
Y-119220D01*
X1119934D01*
Y-118933D01*
X1120221D01*
Y-118647D01*
X1120507D01*
Y-118361D01*
Y-118075D01*
X1120793D01*
Y-117788D01*
X1121080D01*
Y-117502D01*
X1121366D01*
Y-117216D01*
X1121652D01*
Y-116929D01*
Y-116643D01*
X1121939D01*
Y-116357D01*
X1122225D01*
Y-116070D01*
X1122511D01*
Y-115784D01*
Y-115498D01*
X1122797D01*
Y-115211D01*
X1123084D01*
Y-114925D01*
X1123370D01*
Y-114639D01*
X1123656D01*
Y-114353D01*
Y-114066D01*
X1123943D01*
Y-113780D01*
X1124229D01*
Y-113494D01*
X1124515D01*
Y-113207D01*
X1124802D01*
Y-112921D01*
Y-112635D01*
X1125088D01*
Y-112348D01*
X1125374D01*
Y-112062D01*
X1125661D01*
Y-111776D01*
Y-111489D01*
X1125947D01*
Y-111203D01*
X1126233D01*
Y-110917D01*
X1126519D01*
Y-110630D01*
X1126806D01*
Y-110344D01*
Y-110058D01*
X1127092D01*
Y-109772D01*
X1127378D01*
Y-109485D01*
X1127665D01*
Y-109199D01*
Y-108913D01*
X1127951D01*
Y-108626D01*
X1128237D01*
Y-108340D01*
X1128524D01*
Y-108054D01*
X1128810D01*
Y-107767D01*
Y-107481D01*
X1129096D01*
Y-107195D01*
X1129383D01*
Y-106908D01*
X1129669D01*
Y-106622D01*
Y-106336D01*
X1129955D01*
Y-106049D01*
X1130242D01*
Y-105763D01*
X1130528D01*
Y-105477D01*
X1130814D01*
Y-105191D01*
Y-104904D01*
X1131100D01*
Y-104618D01*
X1131387D01*
Y-104332D01*
X1131673D01*
Y-104045D01*
X1131960D01*
Y-103759D01*
Y-103473D01*
X1132246D01*
Y-103186D01*
X1132532D01*
Y-102900D01*
X1132818D01*
Y-102614D01*
Y-102327D01*
X1133105D01*
Y-102041D01*
X1133391D01*
Y-101755D01*
X1133677D01*
Y-101468D01*
X1133964D01*
Y-101182D01*
Y-100896D01*
X1134250D01*
Y-100610D01*
Y-100323D01*
Y-100037D01*
X1133964D01*
Y-99751D01*
X1133677D01*
Y-99464D01*
Y-99178D01*
X1133391D01*
Y-98892D01*
Y-98605D01*
X1133105D01*
Y-98319D01*
Y-98033D01*
X1132818D01*
Y-97746D01*
Y-97460D01*
X1132532D01*
Y-97174D01*
Y-96887D01*
X1132246D01*
Y-96601D01*
Y-96315D01*
X1131960D01*
Y-96029D01*
X1131673D01*
Y-95742D01*
Y-95456D01*
X1131387D01*
Y-95170D01*
Y-94883D01*
X1131100D01*
Y-94597D01*
Y-94311D01*
X1130814D01*
Y-94024D01*
Y-93738D01*
X1130528D01*
Y-93452D01*
Y-93165D01*
X1130242D01*
Y-92879D01*
Y-92593D01*
X1129955D01*
Y-92306D01*
X1129669D01*
Y-92020D01*
Y-91734D01*
X1129383D01*
Y-91448D01*
Y-91161D01*
X1129096D01*
Y-90875D01*
Y-90588D01*
X1128810D01*
Y-90302D01*
Y-90016D01*
X1128524D01*
Y-89730D01*
Y-89443D01*
X1128237D01*
Y-89157D01*
Y-88871D01*
X1127951D01*
Y-88584D01*
Y-88298D01*
X1127665D01*
Y-88012D01*
X1127378D01*
Y-87725D01*
Y-87439D01*
X1127092D01*
Y-87153D01*
Y-86866D01*
X1126806D01*
Y-86580D01*
Y-86294D01*
X1126519D01*
Y-86007D01*
Y-85721D01*
X1126233D01*
Y-85435D01*
Y-85149D01*
X1125947D01*
Y-84862D01*
Y-84576D01*
X1125661D01*
Y-84290D01*
X1125374D01*
Y-84003D01*
Y-83717D01*
X1125088D01*
Y-83431D01*
X1140835D01*
Y-83717D01*
X1141121D01*
Y-84003D01*
Y-84290D01*
Y-84576D01*
X1141408D01*
Y-84862D01*
Y-85149D01*
Y-85435D01*
X1141694D01*
Y-85721D01*
Y-86007D01*
Y-86294D01*
X1141980D01*
Y-86580D01*
Y-86866D01*
Y-87153D01*
X1142267D01*
Y-87439D01*
Y-87725D01*
Y-88012D01*
X1142553D01*
Y-88298D01*
Y-88584D01*
Y-88871D01*
X1142839D01*
Y-89157D01*
Y-89443D01*
Y-89730D01*
X1143126D01*
Y-90016D01*
Y-90302D01*
Y-90588D01*
X1143412D01*
Y-90875D01*
Y-91161D01*
Y-91448D01*
Y-91734D01*
X1143985D01*
Y-91448D01*
X1144271D01*
Y-91161D01*
X1144557D01*
Y-90875D01*
Y-90588D01*
X1144844D01*
Y-90302D01*
X1145130D01*
Y-90016D01*
Y-89730D01*
X1145416D01*
Y-89443D01*
X1145702D01*
Y-89157D01*
Y-88871D01*
X1145989D01*
Y-88584D01*
X1146275D01*
Y-88298D01*
Y-88012D01*
X1146561D01*
Y-87725D01*
X1146848D01*
Y-87439D01*
Y-87153D01*
X1147134D01*
Y-86866D01*
X1147420D01*
Y-86580D01*
Y-86294D01*
X1147707D01*
Y-86007D01*
X1147993D01*
Y-85721D01*
Y-85435D01*
X1148279D01*
Y-85149D01*
X1148566D01*
Y-84862D01*
Y-84576D01*
X1148852D01*
Y-84290D01*
X1149138D01*
Y-84003D01*
Y-83717D01*
X1149425D01*
Y-83431D01*
X1165172D01*
Y-83717D01*
D02*
G37*
%LPC*%
G36*
X1027742Y-80568D02*
X1019725D01*
Y-80854D01*
Y-81140D01*
Y-81427D01*
Y-81713D01*
Y-81999D01*
X1019438D01*
Y-82285D01*
Y-82572D01*
Y-82858D01*
Y-83144D01*
Y-83431D01*
Y-83717D01*
X1019152D01*
Y-84003D01*
Y-84290D01*
Y-84576D01*
Y-84862D01*
Y-85149D01*
Y-85435D01*
X1018866D01*
Y-85721D01*
Y-86007D01*
Y-86294D01*
Y-86580D01*
Y-86866D01*
Y-87153D01*
X1018580D01*
Y-87439D01*
Y-87725D01*
Y-88012D01*
Y-88298D01*
Y-88584D01*
Y-88871D01*
Y-89157D01*
X1018293D01*
Y-89443D01*
Y-89730D01*
Y-90016D01*
Y-90302D01*
Y-90588D01*
Y-90875D01*
X1018007D01*
Y-91161D01*
Y-91448D01*
Y-91734D01*
X1025165D01*
Y-91448D01*
X1026310D01*
Y-91161D01*
X1026883D01*
Y-90875D01*
X1027169D01*
Y-90588D01*
X1027455D01*
Y-90302D01*
X1027742D01*
Y-90016D01*
X1028028D01*
Y-89730D01*
Y-89443D01*
X1028314D01*
Y-89157D01*
Y-88871D01*
X1028601D01*
Y-88584D01*
Y-88298D01*
X1028887D01*
Y-88012D01*
Y-87725D01*
Y-87439D01*
Y-87153D01*
X1029173D01*
Y-86866D01*
Y-86580D01*
Y-86294D01*
Y-86007D01*
Y-85721D01*
X1029459D01*
Y-85435D01*
Y-85149D01*
Y-84862D01*
Y-84576D01*
Y-84290D01*
Y-84003D01*
Y-83717D01*
Y-83431D01*
Y-83144D01*
Y-82858D01*
Y-82572D01*
X1029173D01*
Y-82285D01*
Y-81999D01*
X1028887D01*
Y-81713D01*
Y-81427D01*
X1028601D01*
Y-81140D01*
X1028314D01*
Y-80854D01*
X1027742D01*
Y-80568D01*
D02*
G37*
%LPD*%
G36*
X240862Y52247D02*
X240914Y52237D01*
X240964Y52220D01*
X241011Y52197D01*
X241054Y52167D01*
X241094Y52133D01*
X241121Y52102D01*
X241152Y52074D01*
X241179Y52043D01*
X241210Y52016D01*
X241245Y51977D01*
X241274Y51933D01*
X241297Y51886D01*
X241314Y51837D01*
X241324Y51785D01*
X241328Y51733D01*
Y51674D01*
X241326Y51651D01*
X241332Y51642D01*
X241355Y51595D01*
X241372Y51545D01*
X241383Y51494D01*
X241386Y51441D01*
Y51383D01*
X241384Y51360D01*
X241390Y51350D01*
X241414Y51303D01*
X241430Y51254D01*
X241441Y51202D01*
X241444Y51150D01*
Y51092D01*
X241442Y51063D01*
X241444Y51034D01*
Y50975D01*
X241443Y50952D01*
X241449Y50942D01*
X241472Y50896D01*
X241489Y50846D01*
X241499Y50794D01*
X241500Y50778D01*
X241507Y50768D01*
X241530Y50721D01*
X241547Y50671D01*
X241557Y50620D01*
X241561Y50567D01*
Y50509D01*
X241559Y50480D01*
X241561Y50451D01*
Y50392D01*
X241559Y50369D01*
X241565Y50360D01*
X241588Y50313D01*
X241605Y50263D01*
X241616Y50212D01*
X241617Y50195D01*
X241624Y50185D01*
X241647Y50138D01*
X241664Y50088D01*
X241674Y50037D01*
X241677Y49984D01*
Y49926D01*
X241675Y49897D01*
X241677Y49868D01*
Y49810D01*
X241675Y49780D01*
X241676Y49765D01*
X241710Y49749D01*
X241720Y49742D01*
X241737Y49741D01*
X241788Y49731D01*
X241838Y49714D01*
X241885Y49691D01*
X241895Y49684D01*
X241912Y49683D01*
X241963Y49672D01*
X242013Y49656D01*
X242060Y49632D01*
X242103Y49603D01*
X242143Y49569D01*
X242145Y49566D01*
X242196Y49556D01*
X242246Y49539D01*
X242293Y49516D01*
X242303Y49509D01*
X242319Y49508D01*
X242371Y49498D01*
X242421Y49481D01*
X242468Y49457D01*
X242478Y49450D01*
X242494Y49449D01*
X242546Y49439D01*
X242595Y49422D01*
X242642Y49399D01*
X242686Y49370D01*
X242725Y49336D01*
X242728Y49333D01*
X242771Y49324D01*
X242779Y49323D01*
X242828Y49306D01*
X242876Y49283D01*
X242879Y49280D01*
X242883Y49283D01*
X242930Y49306D01*
X242979Y49323D01*
X243030Y49333D01*
X243033Y49336D01*
X243042Y49343D01*
X243064Y49363D01*
X243091Y49394D01*
X243122Y49421D01*
X243123Y49422D01*
X243149Y49452D01*
X243189Y49487D01*
X243232Y49516D01*
X243279Y49539D01*
X243329Y49556D01*
X243380Y49566D01*
X243382Y49569D01*
X243413Y49596D01*
X243441Y49627D01*
X243472Y49654D01*
X243499Y49685D01*
X243538Y49720D01*
X243582Y49749D01*
X243629Y49772D01*
X243679Y49789D01*
X243730Y49799D01*
X243732Y49802D01*
X243763Y49829D01*
X243790Y49860D01*
X243799Y49868D01*
X243821Y49887D01*
X243823Y49889D01*
X243849Y49918D01*
X243888Y49953D01*
X243932Y49982D01*
X243979Y50005D01*
X244005Y50014D01*
X244023Y50035D01*
X244063Y50069D01*
X244107Y50099D01*
X244153Y50122D01*
X244158Y50123D01*
X244180Y50131D01*
X244180D01*
X244198Y50151D01*
X244229Y50179D01*
X244257Y50210D01*
X244296Y50244D01*
X244340Y50273D01*
X244387Y50296D01*
X244421Y50308D01*
X244456Y50332D01*
X244503Y50355D01*
X244530Y50364D01*
X244548Y50384D01*
X244587Y50419D01*
X244631Y50448D01*
X244678Y50471D01*
X244728Y50488D01*
X244779Y50498D01*
X244831Y50502D01*
X245006D01*
X245059Y50498D01*
X245110Y50488D01*
X245160Y50471D01*
X245207Y50448D01*
X245250Y50419D01*
X245290Y50384D01*
X245317Y50353D01*
X245348Y50326D01*
X245375Y50295D01*
X245406Y50268D01*
X245433Y50237D01*
X245464Y50210D01*
X245492Y50179D01*
X245523Y50151D01*
X245550Y50120D01*
X245565Y50107D01*
X245581Y50093D01*
X245608Y50062D01*
X245639Y50035D01*
X245667Y50004D01*
X245698Y49977D01*
X245725Y49946D01*
X245756Y49918D01*
X245783Y49887D01*
X245814Y49860D01*
X245841Y49829D01*
X245872Y49802D01*
X245900Y49771D01*
X245931Y49743D01*
X245958Y49712D01*
X245989Y49685D01*
X246016Y49654D01*
X246047Y49627D01*
X246075Y49596D01*
X246106Y49569D01*
X246133Y49538D01*
X246164Y49510D01*
X246191Y49479D01*
X246222Y49452D01*
X246249Y49421D01*
X246280Y49394D01*
X246308Y49363D01*
X246339Y49336D01*
X246366Y49305D01*
X246366Y49305D01*
X246397Y49277D01*
X246423Y49248D01*
X246424Y49246D01*
X246455Y49219D01*
X246482Y49188D01*
X246514Y49161D01*
X246541Y49130D01*
X246572Y49102D01*
X246599Y49071D01*
X246630Y49044D01*
X246657Y49013D01*
X246688Y48986D01*
X246716Y48955D01*
X246747Y48928D01*
X246774Y48897D01*
X246805Y48869D01*
X246832Y48838D01*
X246863Y48811D01*
X246898Y48772D01*
X246927Y48728D01*
X246950Y48681D01*
X246967Y48631D01*
X246977Y48580D01*
X246981Y48528D01*
Y48469D01*
Y48411D01*
Y48353D01*
X246977Y48300D01*
X246967Y48249D01*
X246950Y48199D01*
X246927Y48152D01*
X246898Y48109D01*
X246863Y48069D01*
X246843Y48051D01*
X246834Y48024D01*
X246810Y47977D01*
X246787Y47943D01*
X246775Y47908D01*
X246752Y47861D01*
X246723Y47817D01*
X246688Y47778D01*
X246657Y47751D01*
X246630Y47720D01*
X246609Y47701D01*
X246600Y47675D01*
X246577Y47628D01*
X246554Y47593D01*
X246544Y47562D01*
X246542Y47558D01*
X246519Y47511D01*
X246490Y47468D01*
X246455Y47428D01*
X246424Y47401D01*
X246397Y47370D01*
X246366Y47343D01*
X246339Y47312D01*
X246336Y47309D01*
X246326Y47258D01*
X246309Y47208D01*
X246286Y47161D01*
X246257Y47118D01*
X246222Y47078D01*
X246191Y47051D01*
X246164Y47020D01*
X246133Y46993D01*
X246106Y46962D01*
X246103Y46960D01*
X246093Y46909D01*
X246076Y46859D01*
X246053Y46812D01*
X246024Y46768D01*
X245989Y46729D01*
X245958Y46702D01*
X245931Y46670D01*
X245900Y46643D01*
X245872Y46612D01*
X245870Y46610D01*
X245860Y46559D01*
X245843Y46509D01*
X245820Y46462D01*
X245797Y46429D01*
X245801Y46417D01*
X245812Y46365D01*
X245813Y46349D01*
X245820Y46338D01*
X245843Y46292D01*
X245855Y46257D01*
X245878Y46222D01*
X245901Y46175D01*
X245913Y46140D01*
X245936Y46105D01*
X245959Y46058D01*
X245976Y46009D01*
X245987Y45957D01*
X245988Y45941D01*
X245994Y45931D01*
X246018Y45884D01*
X246035Y45834D01*
X246044Y45786D01*
X246045Y45783D01*
X246047Y45781D01*
X246082Y45741D01*
X246111Y45698D01*
X246134Y45650D01*
X246151Y45601D01*
X246161Y45549D01*
X246162Y45533D01*
X246165Y45530D01*
X246169Y45523D01*
X246193Y45476D01*
X246204Y45441D01*
X246228Y45406D01*
X246251Y45359D01*
X246260Y45333D01*
X246263Y45325D01*
X246286Y45289D01*
X246309Y45243D01*
X246326Y45193D01*
X246327Y45186D01*
X246334Y45185D01*
X246384Y45168D01*
X246430Y45145D01*
X246437Y45140D01*
X246638D01*
X246690Y45137D01*
X246742Y45127D01*
X246791Y45110D01*
X246838Y45087D01*
X246848Y45081D01*
X246871Y45082D01*
X246929D01*
X246982Y45079D01*
X247033Y45068D01*
X247083Y45052D01*
X247130Y45028D01*
X247137Y45024D01*
X247221D01*
X247250Y45022D01*
X247279Y45024D01*
X247337D01*
X247390Y45020D01*
X247441Y45010D01*
X247491Y44993D01*
X247538Y44970D01*
X247548Y44963D01*
X247565Y44962D01*
X247616Y44952D01*
X247666Y44935D01*
X247713Y44912D01*
X247720Y44907D01*
X247804D01*
X247833Y44905D01*
X247862Y44907D01*
X247920D01*
X247972Y44904D01*
X248024Y44894D01*
X248074Y44877D01*
X248121Y44853D01*
X248130Y44847D01*
X248153Y44849D01*
X248212D01*
X248264Y44846D01*
X248315Y44835D01*
X248365Y44818D01*
X248412Y44795D01*
X248456Y44766D01*
X248495Y44732D01*
X248522Y44700D01*
X248553Y44673D01*
X248581Y44642D01*
X248612Y44615D01*
X248646Y44576D01*
X248675Y44532D01*
X248698Y44485D01*
X248715Y44435D01*
X248726Y44384D01*
X248729Y44331D01*
Y44273D01*
Y44215D01*
Y44157D01*
Y44098D01*
Y44040D01*
Y43982D01*
Y43924D01*
Y43865D01*
Y43807D01*
Y43749D01*
Y43690D01*
Y43632D01*
Y43574D01*
Y43516D01*
Y43457D01*
Y43399D01*
Y43341D01*
Y43282D01*
Y43224D01*
Y43166D01*
Y43108D01*
Y43049D01*
Y42991D01*
Y42933D01*
Y42875D01*
Y42816D01*
Y42758D01*
Y42700D01*
Y42641D01*
Y42583D01*
Y42525D01*
Y42467D01*
Y42408D01*
Y42350D01*
Y42292D01*
Y42233D01*
Y42175D01*
Y42117D01*
Y42059D01*
X248726Y42006D01*
X248715Y41955D01*
X248698Y41905D01*
X248675Y41858D01*
X248646Y41815D01*
X248612Y41775D01*
X248581Y41748D01*
X248553Y41717D01*
X248514Y41682D01*
X248470Y41653D01*
X248423Y41630D01*
X248374Y41613D01*
X248322Y41603D01*
X248306Y41602D01*
X248295Y41595D01*
X248248Y41572D01*
X248199Y41555D01*
X248147Y41545D01*
X248131Y41544D01*
X248121Y41537D01*
X248074Y41513D01*
X248024Y41497D01*
X247972Y41486D01*
X247920Y41483D01*
X247862D01*
X247833Y41485D01*
X247804Y41483D01*
X247720D01*
X247713Y41478D01*
X247666Y41455D01*
X247616Y41438D01*
X247565Y41428D01*
X247548Y41427D01*
X247538Y41420D01*
X247491Y41397D01*
X247441Y41380D01*
X247390Y41370D01*
X247337Y41366D01*
X247279D01*
X247250Y41368D01*
X247221Y41366D01*
X247137D01*
X247130Y41362D01*
X247083Y41339D01*
X247033Y41322D01*
X246982Y41311D01*
X246929Y41308D01*
X246871D01*
X246848Y41310D01*
X246838Y41304D01*
X246791Y41280D01*
X246742Y41263D01*
X246690Y41253D01*
X246638Y41250D01*
X246580D01*
X246551Y41252D01*
X246521Y41250D01*
X246437D01*
X246430Y41245D01*
X246412Y41236D01*
X246402Y41217D01*
X246373Y41173D01*
X246339Y41134D01*
X246336Y41132D01*
X246326Y41081D01*
X246309Y41031D01*
X246286Y40984D01*
X246263Y40949D01*
X246251Y40914D01*
X246228Y40867D01*
X246223Y40861D01*
Y40835D01*
X246220Y40782D01*
X246209Y40731D01*
X246193Y40681D01*
X246169Y40634D01*
X246140Y40591D01*
X246106Y40551D01*
X246103Y40549D01*
X246093Y40498D01*
X246076Y40448D01*
X246053Y40401D01*
X246046Y40391D01*
X246045Y40374D01*
X246035Y40323D01*
X246018Y40273D01*
X245994Y40226D01*
X245988Y40216D01*
X245987Y40200D01*
X245976Y40148D01*
X245959Y40099D01*
X245936Y40052D01*
X245907Y40008D01*
X245872Y39968D01*
X245870Y39966D01*
X245860Y39915D01*
X245845Y39873D01*
X245860Y39831D01*
X245870Y39780D01*
X245872Y39778D01*
X245900Y39747D01*
X245931Y39720D01*
X245958Y39689D01*
X245989Y39661D01*
X246024Y39622D01*
X246053Y39578D01*
X246076Y39531D01*
X246088Y39497D01*
X246111Y39462D01*
X246134Y39415D01*
X246143Y39388D01*
X246162Y39372D01*
X246164Y39370D01*
X246191Y39339D01*
X246206Y39325D01*
X246222Y39312D01*
X246257Y39272D01*
X246286Y39229D01*
X246309Y39182D01*
X246321Y39147D01*
X246337Y39122D01*
X246344Y39112D01*
X246367Y39065D01*
X246371Y39054D01*
X246376Y39038D01*
X246397Y39020D01*
X246424Y38989D01*
X246455Y38962D01*
X246490Y38923D01*
X246519Y38879D01*
X246542Y38832D01*
X246547Y38816D01*
X246554Y38797D01*
X246563Y38784D01*
X246577Y38762D01*
X246600Y38715D01*
X246609Y38691D01*
X246609Y38689D01*
X246630Y38671D01*
X246657Y38639D01*
X246688Y38612D01*
X246723Y38573D01*
X246752Y38529D01*
X246775Y38482D01*
X246787Y38448D01*
X246810Y38413D01*
X246834Y38366D01*
X246843Y38339D01*
X246863Y38321D01*
X246898Y38282D01*
X246927Y38238D01*
X246950Y38191D01*
X246967Y38141D01*
X246977Y38090D01*
X246981Y38037D01*
Y37979D01*
Y37921D01*
Y37863D01*
X246977Y37810D01*
X246967Y37759D01*
X246950Y37709D01*
X246927Y37662D01*
X246898Y37619D01*
X246863Y37579D01*
X246832Y37552D01*
X246805Y37521D01*
X246774Y37494D01*
X246763Y37481D01*
X246747Y37463D01*
X246716Y37435D01*
X246688Y37404D01*
X246657Y37377D01*
X246646Y37364D01*
X246630Y37346D01*
X246599Y37319D01*
X246572Y37288D01*
X246541Y37261D01*
X246514Y37229D01*
X246482Y37202D01*
X246455Y37171D01*
X246424Y37144D01*
X246397Y37113D01*
X246366Y37086D01*
X246339Y37055D01*
X246308Y37027D01*
X246280Y36996D01*
X246249Y36969D01*
X246222Y36938D01*
X246191Y36911D01*
X246164Y36880D01*
X246137Y36857D01*
X246133Y36853D01*
X246106Y36821D01*
X246075Y36794D01*
X246047Y36763D01*
X246026Y36744D01*
X246016Y36736D01*
X245989Y36705D01*
X245958Y36678D01*
X245931Y36647D01*
X245900Y36619D01*
X245872Y36588D01*
X245842Y36561D01*
X245814Y36530D01*
X245783Y36503D01*
X245756Y36472D01*
X245725Y36445D01*
X245698Y36414D01*
X245667Y36386D01*
X245639Y36355D01*
X245608Y36328D01*
X245581Y36297D01*
X245550Y36270D01*
X245523Y36239D01*
X245492Y36211D01*
X245464Y36180D01*
X245433Y36153D01*
X245406Y36122D01*
X245375Y36095D01*
X245348Y36064D01*
X245317Y36037D01*
X245290Y36006D01*
X245250Y35971D01*
X245207Y35942D01*
X245160Y35919D01*
X245110Y35902D01*
X245059Y35892D01*
X245006Y35888D01*
X244831D01*
X244779Y35892D01*
X244728Y35902D01*
X244678Y35919D01*
X244631Y35942D01*
X244587Y35971D01*
X244548Y36006D01*
X244530Y36026D01*
X244503Y36035D01*
X244456Y36059D01*
X244413Y36088D01*
X244373Y36122D01*
X244355Y36143D01*
X244328Y36152D01*
X244281Y36175D01*
X244238Y36204D01*
X244198Y36239D01*
X244171Y36270D01*
X244140Y36297D01*
X244113Y36328D01*
X244082Y36355D01*
X244079Y36358D01*
X244028Y36368D01*
X243979Y36385D01*
X243932Y36408D01*
X243888Y36437D01*
X243849Y36472D01*
X243821Y36503D01*
X243790Y36530D01*
X243763Y36561D01*
X243732Y36588D01*
X243730Y36591D01*
X243679Y36601D01*
X243629Y36618D01*
X243582Y36641D01*
X243538Y36670D01*
X243499Y36705D01*
X243472Y36736D01*
X243441Y36763D01*
X243413Y36794D01*
X243382Y36821D01*
X243380Y36824D01*
X243329Y36834D01*
X243279Y36851D01*
X243232Y36874D01*
X243189Y36904D01*
X243149Y36938D01*
X243122Y36969D01*
X243101Y36987D01*
X243062Y36968D01*
X243012Y36951D01*
X242961Y36941D01*
X242959Y36938D01*
X242919Y36904D01*
X242876Y36874D01*
X242828Y36851D01*
X242779Y36834D01*
X242728Y36824D01*
X242725Y36821D01*
X242686Y36787D01*
X242642Y36758D01*
X242595Y36735D01*
X242546Y36718D01*
X242494Y36707D01*
X242478Y36707D01*
X242468Y36700D01*
X242421Y36676D01*
X242371Y36660D01*
X242319Y36649D01*
X242267Y36646D01*
X242209D01*
X242157Y36649D01*
X242105Y36660D01*
X242056Y36676D01*
X242008Y36700D01*
X241965Y36729D01*
X241925Y36763D01*
X241898Y36794D01*
X241867Y36821D01*
X241840Y36853D01*
X241809Y36880D01*
X241774Y36919D01*
X241745Y36963D01*
X241722Y37010D01*
X241705Y37060D01*
X241695Y37111D01*
X241695Y37115D01*
X241694Y37127D01*
X241687Y37138D01*
X241664Y37185D01*
X241647Y37234D01*
X241637Y37285D01*
X241634Y37288D01*
X241599Y37327D01*
X241570Y37371D01*
X241547Y37418D01*
X241530Y37468D01*
X241520Y37519D01*
X241519Y37535D01*
X241512Y37546D01*
X241489Y37593D01*
X241472Y37642D01*
X241462Y37693D01*
X241459Y37696D01*
X241425Y37735D01*
X241395Y37779D01*
X241372Y37826D01*
X241355Y37875D01*
X241345Y37927D01*
X241345Y37932D01*
X241344Y37943D01*
X241337Y37954D01*
X241314Y38001D01*
X241297Y38050D01*
X241287Y38101D01*
X241284Y38104D01*
X241250Y38143D01*
X241221Y38187D01*
X241197Y38234D01*
X241181Y38283D01*
X241170Y38335D01*
X241167Y38387D01*
Y38413D01*
X241162Y38420D01*
X241139Y38467D01*
X241127Y38501D01*
X241104Y38536D01*
X241081Y38583D01*
X241064Y38633D01*
X241057Y38668D01*
X241054Y38684D01*
X241051Y38686D01*
X241017Y38726D01*
X240988Y38769D01*
X240964Y38816D01*
X240948Y38866D01*
X240937Y38917D01*
X240935Y38919D01*
X240900Y38959D01*
X240871Y39003D01*
X240848Y39050D01*
X240831Y39099D01*
X240821Y39151D01*
X240817Y39203D01*
Y39261D01*
X240818Y39270D01*
X240784Y39309D01*
X240754Y39352D01*
X240731Y39399D01*
X240714Y39449D01*
X240704Y39500D01*
X240704Y39505D01*
X240703Y39517D01*
X240696Y39527D01*
X240673Y39574D01*
X240656Y39624D01*
X240646Y39675D01*
X240643Y39677D01*
X240609Y39717D01*
X240580Y39760D01*
X240556Y39807D01*
X240540Y39857D01*
X240529Y39908D01*
X240528Y39925D01*
X240521Y39935D01*
X240498Y39982D01*
X240481Y40032D01*
X240471Y40083D01*
X240469Y40085D01*
X240434Y40124D01*
X240405Y40168D01*
X240382Y40215D01*
X240365Y40265D01*
X240354Y40316D01*
X240353Y40333D01*
X240347Y40343D01*
X240323Y40390D01*
X240306Y40440D01*
X240296Y40491D01*
X240295Y40507D01*
X240288Y40518D01*
X240265Y40565D01*
X240248Y40615D01*
X240238Y40666D01*
X240234Y40718D01*
Y40777D01*
Y40835D01*
Y40893D01*
Y40951D01*
Y41010D01*
X240238Y41062D01*
X240248Y41113D01*
X240265Y41163D01*
X240288Y41210D01*
X240317Y41254D01*
X240352Y41293D01*
X240391Y41328D01*
X240435Y41357D01*
X240482Y41380D01*
X240532Y41397D01*
X240583Y41407D01*
X240585Y41410D01*
X240616Y41437D01*
X240643Y41468D01*
X240683Y41502D01*
X240726Y41532D01*
X240773Y41555D01*
X240808Y41567D01*
X240813Y41570D01*
X240843Y41590D01*
X240890Y41613D01*
X240917Y41622D01*
X240935Y41643D01*
X240966Y41670D01*
X240967Y41671D01*
X240993Y41701D01*
X241024Y41728D01*
X241051Y41759D01*
X241082Y41787D01*
X241109Y41818D01*
X241141Y41845D01*
X241142Y41846D01*
X241168Y41876D01*
X241192Y41897D01*
X241199Y41903D01*
X241226Y41934D01*
X241247Y41952D01*
X241256Y41979D01*
X241279Y42026D01*
X241302Y42061D01*
X241314Y42096D01*
X241337Y42143D01*
X241366Y42186D01*
X241401Y42226D01*
X241404Y42228D01*
X241404Y42231D01*
X241414Y42279D01*
X241431Y42329D01*
X241454Y42376D01*
X241483Y42419D01*
X241517Y42459D01*
X241520Y42461D01*
X241530Y42512D01*
X241547Y42562D01*
X241570Y42609D01*
X241577Y42619D01*
X241578Y42635D01*
X241589Y42687D01*
X241605Y42737D01*
X241629Y42784D01*
X241635Y42793D01*
X241633Y42816D01*
Y42875D01*
X241634Y42887D01*
X241635Y42904D01*
X241633Y42933D01*
Y42991D01*
X241635Y43020D01*
X241633Y43049D01*
Y43108D01*
X241635Y43137D01*
X241633Y43166D01*
Y43224D01*
X241634Y43237D01*
X241635Y43253D01*
X241633Y43282D01*
Y43341D01*
X241635Y43370D01*
X241633Y43399D01*
Y43457D01*
X241635Y43486D01*
X241633Y43516D01*
Y43574D01*
X241634Y43582D01*
X241599Y43621D01*
X241570Y43665D01*
X241547Y43712D01*
X241530Y43762D01*
X241520Y43813D01*
X241517Y43865D01*
Y43924D01*
X241517Y43932D01*
X241483Y43971D01*
X241454Y44014D01*
X241431Y44061D01*
X241414Y44111D01*
X241404Y44162D01*
X241401Y44165D01*
X241366Y44204D01*
X241337Y44248D01*
X241314Y44295D01*
X241302Y44329D01*
X241279Y44364D01*
X241256Y44411D01*
X241250Y44427D01*
X241247Y44438D01*
X241226Y44456D01*
X241204Y44481D01*
X241199Y44487D01*
X241168Y44514D01*
X241141Y44545D01*
X241109Y44572D01*
X241094Y44590D01*
X241082Y44604D01*
X241051Y44631D01*
X241024Y44662D01*
X240993Y44689D01*
X240966Y44720D01*
X240935Y44747D01*
X240932Y44750D01*
X240881Y44760D01*
X240832Y44777D01*
X240785Y44800D01*
X240741Y44829D01*
X240702Y44864D01*
X240699Y44867D01*
X240648Y44877D01*
X240599Y44894D01*
X240551Y44917D01*
X240508Y44946D01*
X240469Y44980D01*
X240466Y44983D01*
X240415Y44993D01*
X240365Y45010D01*
X240318Y45033D01*
X240275Y45063D01*
X240236Y45097D01*
X240227Y45096D01*
X240169D01*
X240117Y45100D01*
X240065Y45110D01*
X240016Y45127D01*
X239969Y45150D01*
X239960Y45156D01*
X239936Y45155D01*
X239878D01*
X239849Y45156D01*
X239820Y45155D01*
X239761D01*
X239732Y45156D01*
X239703Y45155D01*
X239645D01*
X239616Y45156D01*
X239586Y45155D01*
X239528D01*
X239499Y45156D01*
X239470Y45155D01*
X239411D01*
X239388Y45156D01*
X239387Y45156D01*
X239379Y45150D01*
X239332Y45127D01*
X239282Y45110D01*
X239231Y45100D01*
X239214Y45099D01*
X239211Y45096D01*
X239204Y45092D01*
X239157Y45068D01*
X239107Y45052D01*
X239056Y45041D01*
X239040Y45040D01*
X239029Y45033D01*
X238982Y45010D01*
X238932Y44993D01*
X238881Y44983D01*
X238865Y44982D01*
X238854Y44975D01*
X238807Y44952D01*
X238773Y44940D01*
X238738Y44917D01*
X238691Y44894D01*
X238664Y44884D01*
X238646Y44864D01*
X238607Y44829D01*
X238581Y44812D01*
X238570Y44795D01*
X238564Y44787D01*
X238529Y44747D01*
X238490Y44713D01*
X238446Y44684D01*
X238399Y44660D01*
X238350Y44644D01*
X238299Y44633D01*
X238296Y44631D01*
X238265Y44604D01*
X238238Y44572D01*
X238217Y44554D01*
X238208Y44528D01*
X238185Y44481D01*
X238162Y44446D01*
X238156Y44427D01*
X238150Y44411D01*
X238127Y44364D01*
X238098Y44321D01*
X238063Y44281D01*
X238032Y44254D01*
X238005Y44223D01*
X237984Y44205D01*
X237975Y44178D01*
X237952Y44131D01*
X237929Y44096D01*
X237917Y44061D01*
X237894Y44014D01*
X237870Y43979D01*
X237860Y43949D01*
X237859Y43945D01*
X237836Y43898D01*
X237831Y43891D01*
Y43865D01*
X237827Y43813D01*
X237817Y43762D01*
X237800Y43712D01*
X237777Y43665D01*
X237748Y43621D01*
X237732Y43603D01*
X237714Y43583D01*
Y43574D01*
Y43516D01*
X237713Y43486D01*
X237714Y43457D01*
Y43399D01*
X237713Y43370D01*
X237714Y43341D01*
Y43282D01*
X237713Y43253D01*
X237714Y43224D01*
Y43166D01*
X237713Y43137D01*
X237714Y43108D01*
Y43049D01*
X237713Y43020D01*
X237714Y43002D01*
X237714Y42991D01*
Y42933D01*
X237713Y42909D01*
X237719Y42900D01*
X237742Y42853D01*
X237759Y42803D01*
X237769Y42752D01*
X237773Y42700D01*
Y42641D01*
X237771Y42618D01*
X237777Y42609D01*
X237800Y42562D01*
X237817Y42512D01*
X237827Y42461D01*
X237830Y42459D01*
X237865Y42419D01*
X237894Y42376D01*
X237917Y42329D01*
X237934Y42279D01*
X237943Y42231D01*
X237944Y42228D01*
X237947Y42226D01*
X237981Y42186D01*
X237998Y42161D01*
X238024Y42143D01*
X238063Y42109D01*
X238098Y42070D01*
X238127Y42026D01*
X238150Y41979D01*
X238167Y41929D01*
X238177Y41878D01*
X238180Y41876D01*
X238206Y41846D01*
X238207Y41845D01*
X238238Y41818D01*
X238265Y41787D01*
X238296Y41759D01*
X238323Y41728D01*
X238355Y41701D01*
X238381Y41671D01*
X238382Y41670D01*
X238413Y41643D01*
X238415Y41640D01*
X238466Y41630D01*
X238516Y41613D01*
X238563Y41590D01*
X238607Y41561D01*
X238646Y41526D01*
X238673Y41495D01*
X238704Y41468D01*
X238731Y41437D01*
X238762Y41410D01*
X238765Y41407D01*
X238816Y41397D01*
X238866Y41380D01*
X238913Y41357D01*
X238956Y41328D01*
X238996Y41293D01*
X239030Y41254D01*
X239059Y41210D01*
X239083Y41163D01*
X239099Y41113D01*
X239110Y41062D01*
X239111Y41046D01*
X239118Y41035D01*
X239141Y40988D01*
X239158Y40938D01*
X239168Y40887D01*
X239171Y40835D01*
Y40777D01*
X239168Y40724D01*
X239158Y40673D01*
X239141Y40623D01*
X239118Y40576D01*
X239111Y40566D01*
X239110Y40549D01*
X239099Y40498D01*
X239083Y40448D01*
X239059Y40401D01*
X239030Y40358D01*
X238996Y40318D01*
X238993Y40316D01*
X238983Y40265D01*
X238966Y40215D01*
X238943Y40168D01*
X238914Y40124D01*
X238879Y40085D01*
X238876Y40083D01*
X238866Y40032D01*
X238849Y39982D01*
X238826Y39935D01*
X238819Y39925D01*
X238818Y39908D01*
X238808Y39857D01*
X238791Y39807D01*
X238768Y39760D01*
X238761Y39750D01*
X238760Y39733D01*
X238750Y39682D01*
X238733Y39632D01*
X238710Y39585D01*
X238686Y39550D01*
X238675Y39516D01*
X238651Y39469D01*
X238628Y39434D01*
X238616Y39399D01*
X238593Y39352D01*
X238586Y39342D01*
X238585Y39325D01*
X238575Y39274D01*
X238558Y39224D01*
X238535Y39177D01*
X238528Y39167D01*
X238527Y39158D01*
X238527Y39151D01*
X238517Y39099D01*
X238500Y39050D01*
X238477Y39003D01*
X238447Y38959D01*
X238413Y38919D01*
X238410Y38917D01*
X238400Y38866D01*
X238383Y38816D01*
X238360Y38769D01*
X238353Y38759D01*
X238352Y38743D01*
X238342Y38691D01*
X238325Y38642D01*
X238302Y38595D01*
X238295Y38584D01*
X238294Y38568D01*
X238283Y38516D01*
X238267Y38467D01*
X238243Y38420D01*
X238214Y38376D01*
X238180Y38337D01*
X238177Y38334D01*
X238167Y38283D01*
X238150Y38234D01*
X238127Y38187D01*
X238098Y38143D01*
X238063Y38104D01*
X238060Y38101D01*
X238050Y38050D01*
X238034Y38001D01*
X238010Y37954D01*
X238003Y37943D01*
X238002Y37927D01*
X237992Y37875D01*
X237975Y37826D01*
X237952Y37779D01*
X237945Y37768D01*
X237944Y37752D01*
X237934Y37701D01*
X237917Y37651D01*
X237894Y37604D01*
X237865Y37560D01*
X237830Y37521D01*
X237827Y37519D01*
X237817Y37468D01*
X237800Y37418D01*
X237777Y37371D01*
X237754Y37336D01*
X237742Y37301D01*
X237719Y37254D01*
X237702Y37229D01*
X237696Y37219D01*
X237687Y37195D01*
X237684Y37185D01*
X237661Y37138D01*
X237654Y37127D01*
X237653Y37111D01*
X237642Y37060D01*
X237626Y37010D01*
X237602Y36963D01*
X237573Y36919D01*
X237539Y36880D01*
X237508Y36853D01*
X237480Y36821D01*
X237449Y36794D01*
X237422Y36763D01*
X237383Y36729D01*
X237339Y36700D01*
X237292Y36676D01*
X237242Y36660D01*
X237191Y36649D01*
X237139Y36646D01*
X237080D01*
X237028Y36649D01*
X236977Y36660D01*
X236927Y36676D01*
X236880Y36700D01*
X236870Y36707D01*
X236853Y36707D01*
X236802Y36718D01*
X236752Y36735D01*
X236705Y36758D01*
X236662Y36787D01*
X236622Y36821D01*
X236620Y36824D01*
X236569Y36834D01*
X236519Y36851D01*
X236472Y36874D01*
X236428Y36904D01*
X236389Y36938D01*
X236362Y36969D01*
X236331Y36996D01*
X236328Y36999D01*
X236277Y37009D01*
X236275Y37010D01*
X236270Y37012D01*
X236257Y36996D01*
X236226Y36969D01*
X236210Y36951D01*
X236198Y36938D01*
X236159Y36904D01*
X236115Y36874D01*
X236068Y36851D01*
X236019Y36834D01*
X235967Y36824D01*
X235965Y36821D01*
X235934Y36794D01*
X235907Y36763D01*
X235876Y36736D01*
X235876Y36736D01*
X235849Y36705D01*
X235809Y36670D01*
X235784Y36653D01*
X235767Y36628D01*
X235732Y36588D01*
X235693Y36554D01*
X235649Y36525D01*
X235602Y36502D01*
X235552Y36485D01*
X235501Y36474D01*
X235499Y36472D01*
X235459Y36437D01*
X235416Y36408D01*
X235369Y36385D01*
X235342Y36376D01*
X235324Y36355D01*
X235285Y36321D01*
X235241Y36292D01*
X235194Y36268D01*
X235167Y36259D01*
X235149Y36239D01*
X235110Y36204D01*
X235084Y36187D01*
X235067Y36162D01*
X235033Y36122D01*
X234993Y36088D01*
X234950Y36059D01*
X234903Y36035D01*
X234853Y36018D01*
X234802Y36008D01*
X234800Y36006D01*
X234760Y35971D01*
X234717Y35942D01*
X234670Y35919D01*
X234620Y35902D01*
X234569Y35892D01*
X234516Y35888D01*
X234341D01*
X234289Y35892D01*
X234238Y35902D01*
X234188Y35919D01*
X234141Y35942D01*
X234097Y35971D01*
X234058Y36006D01*
X234031Y36037D01*
X234000Y36064D01*
X233972Y36095D01*
X233941Y36122D01*
X233914Y36153D01*
X233883Y36180D01*
X233862Y36204D01*
X233856Y36211D01*
X233825Y36239D01*
X233798Y36270D01*
X233767Y36297D01*
X233764Y36300D01*
X233739Y36328D01*
X233708Y36355D01*
X233681Y36386D01*
X233650Y36414D01*
X233623Y36445D01*
X233592Y36472D01*
X233564Y36503D01*
X233533Y36530D01*
X233506Y36561D01*
X233475Y36588D01*
X233464Y36601D01*
X233448Y36619D01*
X233417Y36647D01*
X233390Y36678D01*
X233359Y36705D01*
X233331Y36736D01*
X233331Y36736D01*
X233300Y36763D01*
X233273Y36794D01*
X233242Y36821D01*
X233236Y36828D01*
X233215Y36853D01*
X233184Y36880D01*
X233156Y36911D01*
X233125Y36938D01*
X233098Y36969D01*
X233067Y36996D01*
X233040Y37027D01*
X233009Y37055D01*
X232982Y37086D01*
X232951Y37113D01*
X232929Y37138D01*
X232923Y37144D01*
X232892Y37171D01*
X232872Y37195D01*
X232865Y37202D01*
X232834Y37229D01*
X232807Y37261D01*
X232776Y37288D01*
X232749Y37319D01*
X232717Y37346D01*
X232706Y37359D01*
X232690Y37377D01*
X232690Y37377D01*
X232659Y37404D01*
X232632Y37435D01*
X232601Y37463D01*
X232574Y37494D01*
X232543Y37521D01*
X232515Y37552D01*
X232484Y37579D01*
X232450Y37619D01*
X232421Y37662D01*
X232398Y37709D01*
X232381Y37759D01*
X232370Y37810D01*
X232367Y37863D01*
Y37921D01*
Y37979D01*
Y38037D01*
X232370Y38090D01*
X232381Y38141D01*
X232398Y38191D01*
X232421Y38238D01*
X232450Y38282D01*
X232484Y38321D01*
X232505Y38339D01*
X232514Y38366D01*
X232537Y38413D01*
X232561Y38448D01*
X232572Y38482D01*
X232595Y38529D01*
X232625Y38573D01*
X232659Y38612D01*
X232690Y38640D01*
X232717Y38671D01*
X232738Y38689D01*
X232739Y38691D01*
X232747Y38715D01*
X232770Y38762D01*
X232785Y38784D01*
X232794Y38797D01*
X232800Y38816D01*
X232805Y38832D01*
X232829Y38879D01*
X232858Y38923D01*
X232892Y38962D01*
X232923Y38989D01*
X232951Y39020D01*
X232982Y39047D01*
X233009Y39079D01*
X233018Y39086D01*
X233040Y39106D01*
X233041Y39107D01*
X233067Y39137D01*
X233070Y39139D01*
X233080Y39190D01*
X233097Y39240D01*
X233120Y39287D01*
X233149Y39331D01*
X233184Y39370D01*
X233207Y39391D01*
X233215Y39397D01*
X233242Y39428D01*
X233260Y39444D01*
X233273Y39455D01*
X233300Y39486D01*
X233321Y39505D01*
X233330Y39531D01*
X233353Y39578D01*
X233358Y39585D01*
X233377Y39613D01*
X233388Y39648D01*
X233411Y39695D01*
X233440Y39738D01*
X233475Y39778D01*
X233506Y39805D01*
X233524Y39826D01*
X233505Y39865D01*
X233488Y39915D01*
X233478Y39967D01*
X233477Y39983D01*
X233470Y39993D01*
X233447Y40040D01*
X233430Y40090D01*
X233419Y40141D01*
X233418Y40158D01*
X233411Y40168D01*
X233388Y40215D01*
X233371Y40265D01*
X233364Y40300D01*
X233361Y40316D01*
X233359Y40318D01*
X233324Y40358D01*
X233295Y40401D01*
X233272Y40448D01*
X233255Y40498D01*
X233245Y40549D01*
X233243Y40566D01*
X233237Y40576D01*
X233213Y40623D01*
X233196Y40673D01*
X233186Y40724D01*
X233185Y40741D01*
X233178Y40751D01*
X233155Y40798D01*
X233138Y40848D01*
X233133Y40872D01*
X233128Y40899D01*
X233125Y40901D01*
X233091Y40940D01*
X233062Y40984D01*
X233038Y41031D01*
X233022Y41081D01*
X233011Y41132D01*
X233010Y41148D01*
X233003Y41159D01*
X232980Y41206D01*
X232979Y41210D01*
X232976Y41218D01*
X232964Y41222D01*
X232917Y41245D01*
X232910Y41250D01*
X232826D01*
X232797Y41252D01*
X232768Y41250D01*
X232710D01*
X232657Y41253D01*
X232606Y41263D01*
X232556Y41280D01*
X232509Y41304D01*
X232500Y41310D01*
X232476Y41308D01*
X232418D01*
X232366Y41311D01*
X232314Y41322D01*
X232265Y41339D01*
X232218Y41362D01*
X232211Y41366D01*
X232127D01*
X232074Y41370D01*
X232023Y41380D01*
X231973Y41397D01*
X231926Y41420D01*
X231920Y41425D01*
X231917Y41426D01*
X231894Y41425D01*
X231835D01*
X231783Y41428D01*
X231732Y41438D01*
X231682Y41455D01*
X231635Y41478D01*
X231628Y41483D01*
X231544D01*
X231492Y41486D01*
X231440Y41497D01*
X231391Y41513D01*
X231344Y41537D01*
X231335Y41542D01*
X231334Y41543D01*
X231311Y41541D01*
X231253D01*
X231200Y41545D01*
X231149Y41555D01*
X231099Y41572D01*
X231052Y41595D01*
X231042Y41602D01*
X231025Y41603D01*
X230974Y41613D01*
X230924Y41630D01*
X230877Y41653D01*
X230834Y41682D01*
X230794Y41717D01*
X230760Y41756D01*
X230731Y41800D01*
X230707Y41847D01*
X230691Y41897D01*
X230680Y41948D01*
X230679Y41964D01*
X230672Y41975D01*
X230649Y42022D01*
X230632Y42071D01*
X230622Y42123D01*
X230619Y42175D01*
Y42233D01*
X230619Y42239D01*
X230621Y42263D01*
X230619Y42292D01*
Y42350D01*
X230620Y42364D01*
X230621Y42379D01*
X230619Y42408D01*
Y42467D01*
X230621Y42496D01*
X230619Y42525D01*
Y42583D01*
X230620Y42605D01*
X230621Y42612D01*
X230619Y42641D01*
Y42700D01*
X230621Y42729D01*
X230619Y42758D01*
Y42816D01*
X230621Y42845D01*
X230619Y42875D01*
Y42933D01*
X230621Y42962D01*
X230619Y42991D01*
Y43049D01*
X230621Y43079D01*
X230619Y43108D01*
Y43166D01*
X230621Y43195D01*
X230619Y43224D01*
Y43282D01*
X230621Y43312D01*
X230619Y43341D01*
Y43399D01*
X230621Y43428D01*
X230619Y43457D01*
Y43516D01*
X230621Y43545D01*
X230619Y43574D01*
Y43632D01*
X230621Y43661D01*
X230619Y43690D01*
Y43749D01*
X230621Y43778D01*
X230619Y43807D01*
Y43865D01*
X230621Y43894D01*
X230619Y43924D01*
Y43982D01*
X230621Y44011D01*
X230619Y44040D01*
Y44098D01*
X230621Y44128D01*
X230619Y44157D01*
Y44215D01*
X230621Y44244D01*
X230619Y44273D01*
Y44331D01*
X230622Y44384D01*
X230632Y44435D01*
X230649Y44485D01*
X230672Y44532D01*
X230701Y44576D01*
X230736Y44615D01*
X230767Y44642D01*
X230768Y44644D01*
X230794Y44673D01*
X230825Y44700D01*
X230853Y44732D01*
X230892Y44766D01*
X230936Y44795D01*
X230983Y44818D01*
X231032Y44835D01*
X231084Y44846D01*
X231136Y44849D01*
X231194D01*
X231218Y44847D01*
X231227Y44853D01*
X231274Y44877D01*
X231324Y44894D01*
X231375Y44904D01*
X231427Y44907D01*
X231486D01*
X231515Y44905D01*
X231544Y44907D01*
X231628D01*
X231635Y44912D01*
X231682Y44935D01*
X231732Y44952D01*
X231783Y44962D01*
X231799Y44963D01*
X231810Y44970D01*
X231857Y44993D01*
X231906Y45010D01*
X231958Y45020D01*
X232010Y45024D01*
X232068D01*
X232098Y45022D01*
X232127Y45024D01*
X232211D01*
X232218Y45028D01*
X232265Y45052D01*
X232314Y45068D01*
X232366Y45079D01*
X232418Y45082D01*
X232476D01*
X232500Y45081D01*
X232509Y45087D01*
X232556Y45110D01*
X232606Y45127D01*
X232657Y45137D01*
X232710Y45140D01*
X232768D01*
X232797Y45138D01*
X232826Y45140D01*
X232910D01*
X232917Y45145D01*
X232964Y45168D01*
X233014Y45185D01*
X233020Y45186D01*
X233022Y45193D01*
X233038Y45243D01*
X233062Y45289D01*
X233091Y45333D01*
X233125Y45373D01*
X233128Y45375D01*
X233138Y45426D01*
X233155Y45476D01*
X233178Y45523D01*
X233207Y45566D01*
X233242Y45606D01*
X233245Y45608D01*
X233255Y45659D01*
X233272Y45709D01*
X233295Y45756D01*
X233302Y45766D01*
X233303Y45783D01*
X233313Y45834D01*
X233330Y45884D01*
X233353Y45931D01*
X233360Y45941D01*
X233361Y45957D01*
X233371Y46009D01*
X233388Y46058D01*
X233411Y46105D01*
X233440Y46149D01*
X233475Y46188D01*
X233478Y46191D01*
X233488Y46242D01*
X233505Y46292D01*
X233528Y46338D01*
X233551Y46374D01*
X233563Y46408D01*
X233586Y46455D01*
X233589Y46459D01*
X233586Y46462D01*
X233563Y46509D01*
X233554Y46536D01*
X233533Y46554D01*
X233506Y46585D01*
X233475Y46612D01*
X233440Y46652D01*
X233411Y46695D01*
X233388Y46742D01*
X233377Y46777D01*
X233353Y46812D01*
X233330Y46859D01*
X233321Y46886D01*
X233300Y46904D01*
X233288Y46917D01*
X233273Y46935D01*
X233242Y46962D01*
X233207Y47001D01*
X233178Y47045D01*
X233155Y47092D01*
X233143Y47127D01*
X233120Y47161D01*
X233097Y47208D01*
X233088Y47235D01*
X233067Y47253D01*
X233040Y47284D01*
X233009Y47312D01*
X232982Y47343D01*
X232951Y47370D01*
X232923Y47401D01*
X232892Y47428D01*
X232858Y47468D01*
X232829Y47511D01*
X232805Y47558D01*
X232789Y47608D01*
X232778Y47659D01*
X232776Y47661D01*
X232749Y47692D01*
X232717Y47720D01*
X232690Y47751D01*
X232659Y47778D01*
X232625Y47817D01*
X232595Y47861D01*
X232572Y47908D01*
X232555Y47958D01*
X232545Y48009D01*
X232543Y48011D01*
X232516Y48042D01*
X232484Y48069D01*
X232450Y48109D01*
X232421Y48152D01*
X232398Y48199D01*
X232381Y48249D01*
X232370Y48300D01*
X232367Y48353D01*
Y48411D01*
Y48469D01*
Y48528D01*
X232370Y48580D01*
X232381Y48631D01*
X232398Y48681D01*
X232421Y48728D01*
X232450Y48772D01*
X232484Y48811D01*
X232515Y48838D01*
X232543Y48869D01*
X232564Y48888D01*
X232574Y48897D01*
X232601Y48928D01*
X232632Y48955D01*
X232659Y48986D01*
X232679Y49003D01*
X232690Y49013D01*
X232717Y49044D01*
X232749Y49071D01*
X232776Y49102D01*
X232807Y49130D01*
X232834Y49161D01*
X232865Y49188D01*
X232892Y49219D01*
X232923Y49246D01*
X232925Y49248D01*
X232951Y49277D01*
X232982Y49304D01*
X232983Y49306D01*
X233009Y49336D01*
X233040Y49363D01*
X233067Y49394D01*
X233088Y49412D01*
X233098Y49421D01*
X233125Y49452D01*
X233147Y49471D01*
X233156Y49479D01*
X233184Y49510D01*
X233215Y49538D01*
X233242Y49569D01*
X233273Y49596D01*
X233300Y49627D01*
X233331Y49654D01*
X233359Y49685D01*
X233390Y49712D01*
X233417Y49743D01*
X233448Y49771D01*
X233475Y49802D01*
X233506Y49829D01*
X233533Y49860D01*
X233564Y49887D01*
X233592Y49918D01*
X233623Y49946D01*
X233650Y49977D01*
X233681Y50004D01*
X233708Y50035D01*
X233739Y50062D01*
X233767Y50093D01*
X233798Y50120D01*
X233825Y50151D01*
X233856Y50179D01*
X233883Y50210D01*
X233914Y50237D01*
X233941Y50268D01*
X233972Y50295D01*
X234000Y50326D01*
X234031Y50353D01*
X234058Y50384D01*
X234097Y50419D01*
X234141Y50448D01*
X234188Y50471D01*
X234238Y50488D01*
X234289Y50498D01*
X234341Y50502D01*
X234516D01*
X234569Y50498D01*
X234620Y50488D01*
X234670Y50471D01*
X234717Y50448D01*
X234760Y50419D01*
X234800Y50384D01*
X234802Y50382D01*
X234853Y50372D01*
X234903Y50355D01*
X234950Y50332D01*
X234993Y50302D01*
X235033Y50268D01*
X235060Y50237D01*
X235091Y50210D01*
X235118Y50179D01*
X235149Y50151D01*
X235167Y50131D01*
X235194Y50122D01*
X235241Y50099D01*
X235285Y50069D01*
X235324Y50035D01*
X235342Y50014D01*
X235369Y50005D01*
X235416Y49982D01*
X235459Y49953D01*
X235499Y49918D01*
X235501Y49916D01*
X235552Y49905D01*
X235602Y49889D01*
X235649Y49865D01*
X235693Y49836D01*
X235732Y49802D01*
X235759Y49771D01*
X235790Y49743D01*
X235818Y49712D01*
X235849Y49685D01*
X235867Y49665D01*
X235893Y49656D01*
X235940Y49632D01*
X235984Y49603D01*
X236023Y49569D01*
X236041Y49548D01*
X236051Y49545D01*
X236068Y49539D01*
X236115Y49516D01*
X236159Y49487D01*
X236198Y49452D01*
X236226Y49421D01*
X236257Y49394D01*
X236284Y49363D01*
X236315Y49336D01*
X236317Y49333D01*
X236368Y49323D01*
X236418Y49306D01*
X236465Y49283D01*
X236469Y49280D01*
X236472Y49283D01*
X236519Y49306D01*
X236569Y49323D01*
X236620Y49333D01*
X236636Y49334D01*
X236647Y49341D01*
X236694Y49364D01*
X236743Y49381D01*
X236795Y49391D01*
X236811Y49392D01*
X236822Y49399D01*
X236869Y49422D01*
X236918Y49439D01*
X236969Y49449D01*
X236972Y49452D01*
X237011Y49487D01*
X237055Y49516D01*
X237102Y49539D01*
X237152Y49556D01*
X237203Y49566D01*
X237205Y49569D01*
X237244Y49603D01*
X237288Y49632D01*
X237335Y49656D01*
X237385Y49672D01*
X237436Y49683D01*
X237452Y49684D01*
X237463Y49691D01*
X237510Y49714D01*
X237559Y49731D01*
X237611Y49741D01*
X237627Y49742D01*
X237638Y49749D01*
X237671Y49765D01*
X237672Y49780D01*
X237670Y49810D01*
Y49868D01*
X237674Y49920D01*
X237684Y49972D01*
X237701Y50021D01*
X237724Y50068D01*
X237731Y50079D01*
X237732Y50095D01*
X237742Y50147D01*
X237759Y50196D01*
X237782Y50243D01*
X237788Y50252D01*
X237787Y50276D01*
Y50334D01*
X237788Y50353D01*
X237789Y50363D01*
X237787Y50392D01*
Y50451D01*
X237790Y50503D01*
X237801Y50554D01*
X237817Y50604D01*
X237841Y50651D01*
X237845Y50658D01*
Y50684D01*
X237848Y50736D01*
X237859Y50788D01*
X237876Y50837D01*
X237899Y50884D01*
X237903Y50891D01*
Y50917D01*
X237905Y50946D01*
X237903Y50975D01*
Y51034D01*
X237907Y51086D01*
X237917Y51137D01*
X237934Y51187D01*
X237957Y51234D01*
X237962Y51241D01*
Y51267D01*
Y51325D01*
X237965Y51377D01*
X237975Y51429D01*
X237992Y51478D01*
X238015Y51525D01*
X238021Y51534D01*
X238020Y51558D01*
Y51616D01*
X238022Y51645D01*
X238020Y51674D01*
Y51733D01*
X238023Y51785D01*
X238034Y51837D01*
X238051Y51886D01*
X238074Y51933D01*
X238103Y51977D01*
X238137Y52016D01*
X238168Y52043D01*
X238196Y52074D01*
X238227Y52102D01*
X238254Y52133D01*
X238293Y52167D01*
X238337Y52197D01*
X238384Y52220D01*
X238434Y52237D01*
X238485Y52247D01*
X238537Y52250D01*
X240810D01*
X240862Y52247D01*
D02*
G37*
D21*
X88090Y137795D02*
D03*
Y135827D02*
D03*
Y133858D02*
D03*
Y131890D02*
D03*
Y129921D02*
D03*
Y127953D02*
D03*
Y125984D02*
D03*
Y124016D02*
D03*
Y122047D02*
D03*
Y120079D02*
D03*
Y118110D02*
D03*
Y116142D02*
D03*
Y114173D02*
D03*
Y112205D02*
D03*
Y110236D02*
D03*
Y108268D02*
D03*
Y106299D02*
D03*
Y104331D02*
D03*
Y102362D02*
D03*
Y100394D02*
D03*
Y98425D02*
D03*
Y96457D02*
D03*
Y94488D02*
D03*
Y92520D02*
D03*
X116634Y137795D02*
D03*
Y135827D02*
D03*
Y133858D02*
D03*
Y131890D02*
D03*
Y129921D02*
D03*
Y127953D02*
D03*
Y125984D02*
D03*
Y124016D02*
D03*
Y122047D02*
D03*
Y120079D02*
D03*
Y118110D02*
D03*
Y116142D02*
D03*
Y114173D02*
D03*
Y112205D02*
D03*
Y110236D02*
D03*
Y108268D02*
D03*
Y106299D02*
D03*
Y104331D02*
D03*
Y102362D02*
D03*
Y100394D02*
D03*
Y98425D02*
D03*
Y96457D02*
D03*
Y94488D02*
D03*
Y92520D02*
D03*
D32*
X1342520Y-129921D02*
Y-122050D01*
X1346455D01*
X1347767Y-123362D01*
Y-125986D01*
X1346455Y-127297D01*
X1342520D01*
X1345144D02*
X1347767Y-129921D01*
X1354327D02*
X1351703D01*
X1350391Y-128609D01*
Y-125986D01*
X1351703Y-124674D01*
X1354327D01*
X1355639Y-125986D01*
Y-127297D01*
X1350391D01*
X1358263Y-124674D02*
X1360886Y-129921D01*
X1363510Y-124674D01*
X988189Y-161420D02*
Y-169291D01*
X992125D01*
X993437Y-167979D01*
Y-162732D01*
X992125Y-161420D01*
X988189D01*
X999996Y-169291D02*
X997372D01*
X996060Y-167979D01*
Y-165356D01*
X997372Y-164044D01*
X999996D01*
X1001308Y-165356D01*
Y-166667D01*
X996060D01*
X1003932Y-169291D02*
X1007868D01*
X1009180Y-167979D01*
X1007868Y-166667D01*
X1005244D01*
X1003932Y-165356D01*
X1005244Y-164044D01*
X1009180D01*
X1014427Y-171915D02*
X1015739D01*
X1017051Y-170603D01*
Y-164044D01*
X1013115D01*
X1011803Y-165356D01*
Y-167979D01*
X1013115Y-169291D01*
X1017051D01*
X1019675D02*
X1022299D01*
X1020987D01*
Y-164044D01*
X1019675D01*
X1026235Y-169291D02*
Y-164044D01*
X1030170D01*
X1031482Y-165356D01*
Y-169291D01*
X1038042D02*
X1035418D01*
X1034106Y-167979D01*
Y-165356D01*
X1035418Y-164044D01*
X1038042D01*
X1039354Y-165356D01*
Y-166667D01*
X1034106D01*
X1041977Y-164044D02*
Y-169291D01*
Y-166667D01*
X1043289Y-165356D01*
X1044601Y-164044D01*
X1045913D01*
X1185039Y-43310D02*
Y-51181D01*
X1188975D01*
X1190287Y-49869D01*
Y-44622D01*
X1188975Y-43310D01*
X1185039D01*
X1194223Y-51181D02*
X1196847D01*
X1198158Y-49869D01*
Y-47245D01*
X1196847Y-45933D01*
X1194223D01*
X1192911Y-47245D01*
Y-49869D01*
X1194223Y-51181D01*
X1206030Y-45933D02*
X1202094D01*
X1200782Y-47245D01*
Y-49869D01*
X1202094Y-51181D01*
X1206030D01*
X1208654Y-45933D02*
Y-49869D01*
X1209966Y-51181D01*
X1213902D01*
Y-45933D01*
X1216525Y-51181D02*
Y-45933D01*
X1217837D01*
X1219149Y-47245D01*
Y-51181D01*
Y-47245D01*
X1220461Y-45933D01*
X1221773Y-47245D01*
Y-51181D01*
X1228333D02*
X1225709D01*
X1224397Y-49869D01*
Y-47245D01*
X1225709Y-45933D01*
X1228333D01*
X1229644Y-47245D01*
Y-48557D01*
X1224397D01*
X1232268Y-51181D02*
Y-45933D01*
X1236204D01*
X1237516Y-47245D01*
Y-51181D01*
X1241452Y-44622D02*
Y-45933D01*
X1240140D01*
X1242764D01*
X1241452D01*
Y-49869D01*
X1242764Y-51181D01*
X1185039Y-82680D02*
Y-90551D01*
X1190287D01*
X1194223Y-85303D02*
X1196847D01*
X1198158Y-86615D01*
Y-90551D01*
X1194223D01*
X1192911Y-89239D01*
X1194223Y-87927D01*
X1198158D01*
X1200782Y-85303D02*
Y-89239D01*
X1202094Y-90551D01*
X1206030D01*
Y-91863D01*
X1204718Y-93175D01*
X1203406D01*
X1206030Y-90551D02*
Y-85303D01*
X1212590Y-90551D02*
X1209966D01*
X1208654Y-89239D01*
Y-86615D01*
X1209966Y-85303D01*
X1212590D01*
X1213902Y-86615D01*
Y-87927D01*
X1208654D01*
X1216525Y-85303D02*
Y-90551D01*
Y-87927D01*
X1217837Y-86615D01*
X1219149Y-85303D01*
X1220461D01*
X1232268Y-90551D02*
Y-82680D01*
X1237516Y-90551D01*
Y-82680D01*
X1241452Y-85303D02*
X1244075D01*
X1245387Y-86615D01*
Y-90551D01*
X1241452D01*
X1240140Y-89239D01*
X1241452Y-87927D01*
X1245387D01*
X1248011Y-90551D02*
Y-85303D01*
X1249323D01*
X1250635Y-86615D01*
Y-90551D01*
Y-86615D01*
X1251947Y-85303D01*
X1253259Y-86615D01*
Y-90551D01*
X1259818D02*
X1257195D01*
X1255883Y-89239D01*
Y-86615D01*
X1257195Y-85303D01*
X1259818D01*
X1261130Y-86615D01*
Y-87927D01*
X1255883D01*
X1185039Y-122050D02*
Y-129921D01*
X1188975D01*
X1190287Y-128609D01*
Y-123362D01*
X1188975Y-122050D01*
X1185039D01*
X1194223Y-124674D02*
X1196847D01*
X1198158Y-125986D01*
Y-129921D01*
X1194223D01*
X1192911Y-128609D01*
X1194223Y-127297D01*
X1198158D01*
X1202094Y-123362D02*
Y-124674D01*
X1200782D01*
X1203406D01*
X1202094D01*
Y-128609D01*
X1203406Y-129921D01*
X1211278D02*
X1208654D01*
X1207342Y-128609D01*
Y-125986D01*
X1208654Y-124674D01*
X1211278D01*
X1212589Y-125986D01*
Y-127297D01*
X1207342D01*
X1185039Y-161420D02*
Y-169291D01*
X1188975D01*
X1190287Y-167979D01*
Y-162732D01*
X1188975Y-161420D01*
X1185039D01*
X1194223Y-169291D02*
X1196847D01*
X1198158Y-167979D01*
Y-165356D01*
X1196847Y-164044D01*
X1194223D01*
X1192911Y-165356D01*
Y-167979D01*
X1194223Y-169291D01*
X1206030Y-164044D02*
X1202094D01*
X1200782Y-165356D01*
Y-167979D01*
X1202094Y-169291D01*
X1206030D01*
X1208654Y-164044D02*
Y-167979D01*
X1209966Y-169291D01*
X1213902D01*
Y-164044D01*
X1216525Y-169291D02*
Y-164044D01*
X1217837D01*
X1219149Y-165356D01*
Y-169291D01*
Y-165356D01*
X1220461Y-164044D01*
X1221773Y-165356D01*
Y-169291D01*
X1228333D02*
X1225709D01*
X1224397Y-167979D01*
Y-165356D01*
X1225709Y-164044D01*
X1228333D01*
X1229644Y-165356D01*
Y-166667D01*
X1224397D01*
X1232268Y-169291D02*
Y-164044D01*
X1236204D01*
X1237516Y-165356D01*
Y-169291D01*
X1241452Y-162732D02*
Y-164044D01*
X1240140D01*
X1242764D01*
X1241452D01*
Y-167979D01*
X1242764Y-169291D01*
D33*
X255906Y208661D02*
G03*
X244094Y220472I-11811J0D01*
G01*
Y0D02*
G03*
X255906Y11811I0J11811D01*
G01*
X0D02*
G03*
X11811Y0I11811J0D01*
G01*
Y220472D02*
G03*
X0Y208661I0J-11811D01*
G01*
Y11811D02*
Y208661D01*
X11811Y0D02*
X244094D01*
X11811Y220472D02*
X244094D01*
X255906Y11811D02*
Y208661D01*
X1338583Y-157480D02*
Y-118110D01*
X1181102Y-78740D02*
X1456693D01*
X1181102Y-118110D02*
X1456693D01*
X984252Y-157480D02*
X1456693D01*
X984252Y-39370D02*
X1456693D01*
X984252Y-196850D02*
Y-39370D01*
X1181102Y-196850D02*
Y-39370D01*
X-196850Y972441D02*
X1456693D01*
Y-196850D02*
Y972441D01*
X-196850Y-196850D02*
Y972441D01*
Y-196850D02*
X1456693D01*
X1190945Y-188976D02*
Y-183073D01*
X1193897D01*
X1194881Y-184057D01*
Y-186025D01*
X1193897Y-187009D01*
X1190945D01*
X1192913D02*
X1194881Y-188976D01*
X1196848D02*
Y-183073D01*
X1199800D01*
X1200784Y-184057D01*
Y-186025D01*
X1199800Y-187009D01*
X1196848D01*
X1202752Y-183073D02*
X1204720D01*
X1203736D01*
Y-188976D01*
X1202752D01*
X1204720D01*
X1207672Y-189960D02*
X1211607D01*
X1213575Y-183073D02*
Y-188976D01*
Y-186025D01*
X1217511D01*
Y-183073D01*
Y-188976D01*
X1219479D02*
Y-185041D01*
X1221447Y-183073D01*
X1223415Y-185041D01*
Y-188976D01*
Y-186025D01*
X1219479D01*
X1225383Y-183073D02*
X1229318D01*
X1227350D01*
Y-188976D01*
X1231286Y-189960D02*
X1235222D01*
X1237190Y-188976D02*
Y-185041D01*
X1239158Y-183073D01*
X1241125Y-185041D01*
Y-188976D01*
Y-186025D01*
X1237190D01*
X1243093Y-188976D02*
Y-183073D01*
X1245061Y-185041D01*
X1247029Y-183073D01*
Y-188976D01*
X1248997D02*
Y-183073D01*
X1251949D01*
X1252933Y-184057D01*
Y-186025D01*
X1251949Y-187009D01*
X1248997D01*
X1254900Y-189960D02*
X1258836D01*
X1260804Y-183073D02*
X1264740D01*
X1262772D01*
Y-188976D01*
X1266708D02*
Y-185041D01*
X1268676Y-183073D01*
X1270644Y-185041D01*
Y-188976D01*
Y-186025D01*
X1266708D01*
X1276547Y-184057D02*
X1275563Y-183073D01*
X1273595D01*
X1272611Y-184057D01*
Y-185041D01*
X1273595Y-186025D01*
X1275563D01*
X1276547Y-187009D01*
Y-187993D01*
X1275563Y-188976D01*
X1273595D01*
X1272611Y-187993D01*
X1282451Y-183073D02*
X1278515D01*
Y-186025D01*
X1280483Y-185041D01*
X1281467D01*
X1282451Y-186025D01*
Y-187993D01*
X1281467Y-188976D01*
X1279499D01*
X1278515Y-187993D01*
X1284418Y-183073D02*
X1288354D01*
Y-184057D01*
X1284418Y-187993D01*
Y-188976D01*
X1294258Y-183073D02*
X1290322D01*
Y-186025D01*
X1292290Y-185041D01*
X1293274D01*
X1294258Y-186025D01*
Y-187993D01*
X1293274Y-188976D01*
X1291306D01*
X1290322Y-187993D01*
X1300161Y-183073D02*
X1298194Y-184057D01*
X1296226Y-186025D01*
Y-187993D01*
X1297210Y-188976D01*
X1299177D01*
X1300161Y-187993D01*
Y-187009D01*
X1299177Y-186025D01*
X1296226D01*
X1302129Y-189960D02*
X1306065D01*
X1308033Y-184057D02*
X1309017Y-183073D01*
X1310985D01*
X1311969Y-184057D01*
Y-187993D01*
X1310985Y-188976D01*
X1309017D01*
X1308033Y-187993D01*
Y-184057D01*
X1313937Y-188976D02*
X1315904D01*
X1314921D01*
Y-183073D01*
X1313937Y-184057D01*
X1318856Y-188976D02*
Y-187993D01*
X1319840D01*
Y-188976D01*
X1318856D01*
X1323776D02*
Y-183073D01*
X1326728D01*
X1327712Y-184057D01*
Y-186025D01*
X1326728Y-187009D01*
X1323776D01*
X1333615Y-185041D02*
X1330663D01*
X1329679Y-186025D01*
Y-187993D01*
X1330663Y-188976D01*
X1333615D01*
X1335583Y-183073D02*
Y-188976D01*
X1338535D01*
X1339519Y-187993D01*
Y-187009D01*
Y-186025D01*
X1338535Y-185041D01*
X1335583D01*
X1341487Y-183073D02*
Y-188976D01*
X1344438D01*
X1345422Y-187993D01*
Y-184057D01*
X1344438Y-183073D01*
X1341487D01*
X1348374Y-188976D02*
X1350342D01*
X1351326Y-187993D01*
Y-186025D01*
X1350342Y-185041D01*
X1348374D01*
X1347390Y-186025D01*
Y-187993D01*
X1348374Y-188976D01*
X1357230Y-185041D02*
X1354278D01*
X1353294Y-186025D01*
Y-187993D01*
X1354278Y-188976D01*
X1357230D01*
D35*
X1202756Y-96461D02*
X1211939D01*
X1207348D01*
Y-110236D01*
X1218827D02*
X1223419D01*
X1225714Y-107940D01*
Y-103349D01*
X1223419Y-101053D01*
X1218827D01*
X1216531Y-103349D01*
Y-107940D01*
X1218827Y-110236D01*
X1230306Y-114828D02*
Y-101053D01*
X1237194D01*
X1239489Y-103349D01*
Y-107940D01*
X1237194Y-110236D01*
X1230306D01*
X1267040Y-98757D02*
X1264744Y-96461D01*
X1260152D01*
X1257856Y-98757D01*
Y-101053D01*
X1260152Y-103349D01*
X1264744D01*
X1267040Y-105645D01*
Y-107940D01*
X1264744Y-110236D01*
X1260152D01*
X1257856Y-107940D01*
X1273927Y-110236D02*
X1278519D01*
X1280815Y-107940D01*
Y-103349D01*
X1278519Y-101053D01*
X1273927D01*
X1271631Y-103349D01*
Y-107940D01*
X1273927Y-110236D01*
X1285406D02*
X1289998D01*
X1287702D01*
Y-96461D01*
X1285406D01*
X1306069D02*
Y-110236D01*
X1299181D01*
X1296886Y-107940D01*
Y-103349D01*
X1299181Y-101053D01*
X1306069D01*
X1317548Y-110236D02*
X1312957D01*
X1310661Y-107940D01*
Y-103349D01*
X1312957Y-101053D01*
X1317548D01*
X1319844Y-103349D01*
Y-105645D01*
X1310661D01*
X1324436Y-101053D02*
Y-110236D01*
Y-105645D01*
X1326732Y-103349D01*
X1329027Y-101053D01*
X1331323D01*
X1005906Y-175202D02*
Y-190945D01*
X1011153Y-185697D01*
X1016401Y-190945D01*
Y-175202D01*
X1021649Y-190945D02*
X1026896D01*
X1024272D01*
Y-180450D01*
X1021649D01*
X1034768Y-190945D02*
Y-180450D01*
X1037391D01*
X1040015Y-183073D01*
Y-190945D01*
Y-183073D01*
X1042639Y-180450D01*
X1045263Y-183073D01*
Y-190945D01*
X1050511Y-175202D02*
Y-185697D01*
X1055758Y-190945D01*
X1061006Y-185697D01*
Y-175202D01*
X1076749Y-177826D02*
X1074125Y-175202D01*
X1068877D01*
X1066253Y-177826D01*
Y-188321D01*
X1068877Y-190945D01*
X1074125D01*
X1076749Y-188321D01*
Y-183073D01*
X1071501D01*
X1360236Y-138456D02*
X1362860Y-135832D01*
X1368108D01*
X1370732Y-138456D01*
Y-148951D01*
X1368108Y-151575D01*
X1362860D01*
X1360236Y-148951D01*
Y-138456D01*
X1375979Y-151575D02*
X1381227D01*
X1378603D01*
Y-135832D01*
X1375979Y-138456D01*
X1206034Y-151575D02*
X1196850D01*
X1206034Y-142391D01*
Y-140096D01*
X1203738Y-137800D01*
X1199146D01*
X1196850Y-140096D01*
X1210625Y-149279D02*
X1212921Y-151575D01*
X1217513D01*
X1219809Y-149279D01*
Y-140096D01*
X1217513Y-137800D01*
X1212921D01*
X1210625Y-140096D01*
Y-142391D01*
X1212921Y-144687D01*
X1219809D01*
X1224401Y-151575D02*
X1233584Y-142391D01*
X1238176Y-140096D02*
X1240471Y-137800D01*
X1245063D01*
X1247359Y-140096D01*
Y-149279D01*
X1245063Y-151575D01*
X1240471D01*
X1238176Y-149279D01*
Y-140096D01*
X1251951D02*
X1254247Y-137800D01*
X1258838D01*
X1261134Y-140096D01*
Y-142391D01*
X1258838Y-144687D01*
X1261134Y-146983D01*
Y-149279D01*
X1258838Y-151575D01*
X1254247D01*
X1251951Y-149279D01*
Y-146983D01*
X1254247Y-144687D01*
X1251951Y-142391D01*
Y-140096D01*
X1254247Y-144687D02*
X1258838D01*
X1265726Y-151575D02*
X1274909Y-142391D01*
X1288684Y-151575D02*
X1279501D01*
X1288684Y-142391D01*
Y-140096D01*
X1286388Y-137800D01*
X1281797D01*
X1279501Y-140096D01*
X1293276D02*
X1295572Y-137800D01*
X1300163D01*
X1302459Y-140096D01*
Y-149279D01*
X1300163Y-151575D01*
X1295572D01*
X1293276Y-149279D01*
Y-140096D01*
X1307051Y-151575D02*
X1311643D01*
X1309347D01*
Y-137800D01*
X1307051Y-140096D01*
X1327714Y-137800D02*
X1318530D01*
Y-144687D01*
X1323122Y-142391D01*
X1325418D01*
X1327714Y-144687D01*
Y-149279D01*
X1325418Y-151575D01*
X1320826D01*
X1318530Y-149279D01*
X1190945Y-57092D02*
X1201440D01*
X1196192D01*
Y-72835D01*
X1206688D02*
Y-62339D01*
X1211936Y-57092D01*
X1217183Y-62339D01*
Y-72835D01*
Y-64963D01*
X1206688D01*
X1232926Y-59715D02*
X1230302Y-57092D01*
X1225055D01*
X1222431Y-59715D01*
Y-62339D01*
X1225055Y-64963D01*
X1230302D01*
X1232926Y-67587D01*
Y-70211D01*
X1230302Y-72835D01*
X1225055D01*
X1222431Y-70211D01*
X1248669Y-57092D02*
X1238174D01*
Y-64963D01*
X1243421Y-62339D01*
X1246045D01*
X1248669Y-64963D01*
Y-70211D01*
X1246045Y-72835D01*
X1240798D01*
X1238174Y-70211D01*
X1253917Y-57092D02*
X1264412D01*
Y-59715D01*
X1253917Y-70211D01*
Y-72835D01*
X1280155Y-57092D02*
X1269660D01*
Y-64963D01*
X1274907Y-62339D01*
X1277531D01*
X1280155Y-64963D01*
Y-70211D01*
X1277531Y-72835D01*
X1272283D01*
X1269660Y-70211D01*
X1295898Y-57092D02*
X1290650Y-59715D01*
X1285402Y-64963D01*
Y-70211D01*
X1288026Y-72835D01*
X1293274D01*
X1295898Y-70211D01*
Y-67587D01*
X1293274Y-64963D01*
X1285402D01*
X1316888Y-57092D02*
Y-72835D01*
Y-64963D01*
X1327384D01*
Y-57092D01*
Y-72835D01*
X1332631D02*
Y-62339D01*
X1337879Y-57092D01*
X1343127Y-62339D01*
Y-72835D01*
Y-64963D01*
X1332631D01*
X1348374Y-57092D02*
X1358870D01*
X1353622D01*
Y-72835D01*
D40*
X179606Y177323D02*
D03*
X169606Y167323D02*
D03*
X179606Y187323D02*
D03*
X149606Y167323D02*
D03*
X159606D02*
D03*
D49*
X111024Y37402D02*
D03*
D50*
X93504Y37500D02*
D03*
D51*
X102362Y82677D02*
D03*
D52*
X102362Y162402D02*
D03*
D53*
X110630Y71850D02*
D03*
Y65945D02*
D03*
X17323Y68701D02*
D03*
Y62795D02*
D03*
X22835Y68701D02*
D03*
Y62795D02*
D03*
X143701Y185039D02*
D03*
Y179134D02*
D03*
X148622Y138583D02*
D03*
Y132677D02*
D03*
X134843Y124803D02*
D03*
Y130709D02*
D03*
X150000Y113583D02*
D03*
Y107677D02*
D03*
X250000Y179134D02*
D03*
Y173228D02*
D03*
X233858Y67520D02*
D03*
X233858Y73425D02*
D03*
D54*
X102362Y73917D02*
D03*
X100394Y68602D02*
D03*
X102362D02*
D03*
X104331D02*
D03*
Y73917D02*
D03*
X100394D02*
D03*
D55*
X7480Y58661D02*
D03*
X11220Y68110D02*
D03*
X224803Y180905D02*
D03*
X221063Y171457D02*
D03*
D56*
X3740Y68110D02*
D03*
X217323Y180905D02*
D03*
D57*
X250000Y84449D02*
D03*
Y91929D02*
D03*
X62992Y103150D02*
D03*
Y95669D02*
D03*
X145669Y103150D02*
D03*
Y95669D02*
D03*
X141732Y125591D02*
D03*
Y118110D02*
D03*
X62992Y121850D02*
D03*
Y114370D02*
D03*
X200394Y75787D02*
D03*
Y68307D02*
D03*
X149606Y118110D02*
D03*
Y125591D02*
D03*
X141732Y82874D02*
D03*
Y90354D02*
D03*
X62992Y82874D02*
D03*
Y90354D02*
D03*
X240551Y68701D02*
D03*
Y76181D02*
D03*
X141732Y130905D02*
D03*
Y138386D02*
D03*
D58*
X159449Y103543D02*
D03*
Y114961D02*
D03*
X169291Y103543D02*
D03*
Y114961D02*
D03*
X52165Y113386D02*
D03*
Y124803D02*
D03*
X42323Y113386D02*
D03*
Y124803D02*
D03*
X166339Y97441D02*
D03*
Y86024D02*
D03*
X52165Y103150D02*
D03*
Y91732D02*
D03*
X156496Y97441D02*
D03*
Y86024D02*
D03*
X42323Y103150D02*
D03*
Y91732D02*
D03*
D59*
X145079Y112992D02*
D03*
X139173D02*
D03*
X23425Y57874D02*
D03*
X17520D02*
D03*
X23425Y52362D02*
D03*
X17520D02*
D03*
X27756Y46850D02*
D03*
X21850D02*
D03*
X27756Y41339D02*
D03*
X21850D02*
D03*
X172244Y177165D02*
D03*
X166339D02*
D03*
X172244Y187008D02*
D03*
X166339D02*
D03*
X147638Y192913D02*
D03*
X153543D02*
D03*
X77756Y128937D02*
D03*
X71850D02*
D03*
Y123425D02*
D03*
X77756D02*
D03*
Y118504D02*
D03*
X71850D02*
D03*
X77756Y133858D02*
D03*
X71850D02*
D03*
X231299Y187008D02*
D03*
X237205D02*
D03*
X228937Y75984D02*
D03*
X223031D02*
D03*
X207283Y70472D02*
D03*
X213189D02*
D03*
X212795Y75984D02*
D03*
X218701D02*
D03*
D60*
X14961Y45512D02*
D03*
Y40315D02*
D03*
D61*
X102362Y115157D02*
D03*
D62*
X160138Y178347D02*
D03*
Y182087D02*
D03*
Y185827D02*
D03*
X150886D02*
D03*
Y178347D02*
D03*
X232185Y172441D02*
D03*
X232185Y179921D02*
D03*
X241437D02*
D03*
Y176181D02*
D03*
Y172441D02*
D03*
X232185Y176181D02*
D03*
D63*
X123031Y127953D02*
D03*
X126969Y131890D02*
D03*
X123031Y133858D02*
D03*
X126969Y135827D02*
D03*
X123031Y137795D02*
D03*
X79134Y145276D02*
D03*
X81890Y150394D02*
D03*
X81693Y110236D02*
D03*
X126969Y127953D02*
D03*
D64*
X242126Y153543D02*
D03*
X222441D02*
D03*
X187008Y49213D02*
D03*
X206693D02*
D03*
D65*
X199606Y166929D02*
D03*
Y186614D02*
D03*
D66*
X227953Y62795D02*
D03*
X218504Y66535D02*
D03*
D67*
X227953Y70276D02*
D03*
D68*
X218622Y88169D02*
D03*
X213622D02*
D03*
X208622D02*
D03*
X238622D02*
D03*
X233622D02*
D03*
X223622Y88169D02*
D03*
X228622Y88169D02*
D03*
D69*
X223622Y116929D02*
D03*
D70*
X134449Y112795D02*
D03*
X126969D02*
D03*
X69980Y110433D02*
D03*
X77460D02*
D03*
X125984Y83661D02*
D03*
X118504D02*
D03*
X78937D02*
D03*
X86417D02*
D03*
X80512Y35433D02*
D03*
X73032D02*
D03*
X37598D02*
D03*
X45079D02*
D03*
X167126D02*
D03*
X159646D02*
D03*
X124213D02*
D03*
X131693D02*
D03*
D71*
X74803Y73898D02*
D03*
Y57992D02*
D03*
X46260Y62087D02*
D03*
Y46181D02*
D03*
X158465Y62087D02*
D03*
Y46181D02*
D03*
X129921Y73898D02*
D03*
Y57992D02*
D03*
D72*
X45276Y151575D02*
D03*
X242126Y13780D02*
D03*
Y206693D02*
D03*
X13780D02*
D03*
Y13780D02*
D03*
D73*
X6693Y49213D02*
D03*
X10000Y180000D02*
D03*
D74*
X6693Y39213D02*
D03*
X60000Y190000D02*
D03*
X50000D02*
D03*
X40000D02*
D03*
X192954Y201693D02*
D03*
X192954Y211693D02*
D03*
X172954D02*
D03*
Y201693D02*
D03*
X182954Y211693D02*
D03*
X182954Y201693D02*
D03*
X152954Y211693D02*
D03*
Y201693D02*
D03*
X162954Y211693D02*
D03*
X162954Y201693D02*
D03*
X202954Y211693D02*
D03*
X202954Y201693D02*
D03*
X222954Y201693D02*
D03*
X222954Y211693D02*
D03*
X212954Y201693D02*
D03*
Y211693D02*
D03*
X142954D02*
D03*
Y201693D02*
D03*
X122954Y211693D02*
D03*
Y201693D02*
D03*
X132954Y211693D02*
D03*
X132954Y201693D02*
D03*
X112954D02*
D03*
Y211693D02*
D03*
X32954Y201693D02*
D03*
X42954Y211693D02*
D03*
Y201693D02*
D03*
X52953Y211693D02*
D03*
X52953Y201693D02*
D03*
X72953D02*
D03*
X72954Y211693D02*
D03*
X62954Y201693D02*
D03*
Y211693D02*
D03*
X92954Y201693D02*
D03*
X92954Y211693D02*
D03*
X82954Y201693D02*
D03*
Y211693D02*
D03*
X102954D02*
D03*
X102954Y201693D02*
D03*
X10000Y170000D02*
D03*
Y160000D02*
D03*
Y150000D02*
D03*
D75*
X70000Y190000D02*
D03*
X32954Y211693D02*
D03*
D76*
X194724Y13780D02*
D03*
X135669D02*
D03*
X49055D02*
D03*
D77*
X214724D02*
D03*
X155669D02*
D03*
X69055D02*
D03*
M02*
