G04 Layer_Color=16711935*
%FSLAX25Y25*%
%MOIN*%
G70*
G01*
G75*
%ADD32C,0.00984*%
%ADD33C,0.00787*%
%ADD34C,0.01181*%
%ADD35C,0.01575*%
%ADD36C,0.00591*%
%ADD48C,0.00394*%
G36*
X244094Y149357D02*
X243997Y148614D01*
X243614Y147689D01*
X243157Y147094D01*
X242981Y146918D01*
X238976Y142913D01*
Y149606D01*
X244094D01*
Y149357D01*
D02*
G37*
G36*
X207548Y55838D02*
X207724Y55662D01*
X208180Y55067D01*
X208564Y54142D01*
X208661Y53399D01*
Y53150D01*
X203543D01*
Y59842D01*
X207548Y55838D01*
D02*
G37*
G36*
X208661Y45026D02*
X208564Y44283D01*
X208180Y43358D01*
X207724Y42763D01*
X207548Y42587D01*
X203543Y38583D01*
Y45276D01*
X208661D01*
Y45026D01*
D02*
G37*
G36*
X206232Y166074D02*
X206055Y165898D01*
X205461Y165442D01*
X204536Y165059D01*
X203793Y164961D01*
X203543D01*
Y170079D01*
X210236D01*
X206232Y166074D01*
D02*
G37*
G36*
X195669Y164961D02*
X195420D01*
X194677Y165059D01*
X193752Y165442D01*
X193157Y165898D01*
X192981Y166074D01*
X188976Y170079D01*
X195669D01*
Y164961D01*
D02*
G37*
G36*
X242981Y160169D02*
X243157Y159993D01*
X243614Y159398D01*
X243997Y158473D01*
X244094Y157729D01*
Y157480D01*
X238976D01*
Y164173D01*
X242981Y160169D01*
D02*
G37*
G36*
X1121080Y-83717D02*
Y-84003D01*
Y-84290D01*
Y-84576D01*
Y-84862D01*
Y-85149D01*
Y-85435D01*
Y-85721D01*
Y-86007D01*
Y-86294D01*
Y-86580D01*
Y-86866D01*
Y-87153D01*
Y-87439D01*
Y-87725D01*
Y-88012D01*
Y-88298D01*
Y-88584D01*
Y-88871D01*
Y-89157D01*
Y-89443D01*
X1120793D01*
Y-89730D01*
Y-90016D01*
Y-90302D01*
Y-90588D01*
Y-90875D01*
X1120507D01*
Y-91161D01*
Y-91448D01*
Y-91734D01*
Y-92020D01*
X1120221D01*
Y-92306D01*
Y-92593D01*
Y-92879D01*
Y-93165D01*
X1119934D01*
Y-93452D01*
Y-93738D01*
Y-94024D01*
X1119648D01*
Y-94311D01*
Y-94597D01*
Y-94883D01*
X1119362D01*
Y-95170D01*
Y-95456D01*
Y-95742D01*
X1119075D01*
Y-96029D01*
Y-96315D01*
Y-96601D01*
X1118789D01*
Y-96887D01*
Y-97174D01*
X1118503D01*
Y-97460D01*
Y-97746D01*
X1118217D01*
Y-98033D01*
Y-98319D01*
Y-98605D01*
X1117930D01*
Y-98892D01*
Y-99178D01*
X1117644D01*
Y-99464D01*
Y-99751D01*
Y-100037D01*
X1117358D01*
Y-100323D01*
Y-100610D01*
X1117071D01*
Y-100896D01*
Y-101182D01*
Y-101468D01*
X1116785D01*
Y-101755D01*
Y-102041D01*
X1116499D01*
Y-102327D01*
Y-102614D01*
Y-102900D01*
X1116212D01*
Y-103186D01*
Y-103473D01*
X1115926D01*
Y-103759D01*
Y-104045D01*
Y-104332D01*
X1115640D01*
Y-104618D01*
Y-104904D01*
X1115353D01*
Y-105191D01*
Y-105477D01*
Y-105763D01*
X1115067D01*
Y-106049D01*
Y-106336D01*
X1114781D01*
Y-106622D01*
Y-106908D01*
Y-107195D01*
X1114494D01*
Y-107481D01*
Y-107767D01*
X1114208D01*
Y-108054D01*
Y-108340D01*
Y-108626D01*
X1113922D01*
Y-108913D01*
Y-109199D01*
X1113636D01*
Y-109485D01*
Y-109772D01*
Y-110058D01*
X1113349D01*
Y-110344D01*
Y-110630D01*
X1113063D01*
Y-110917D01*
Y-111203D01*
Y-111489D01*
X1112776D01*
Y-111776D01*
Y-112062D01*
X1112490D01*
Y-112348D01*
Y-112635D01*
Y-112921D01*
X1112204D01*
Y-113207D01*
Y-113494D01*
X1111918D01*
Y-113780D01*
Y-114066D01*
Y-114353D01*
X1111631D01*
Y-114639D01*
Y-114925D01*
X1111345D01*
Y-115211D01*
Y-115498D01*
Y-115784D01*
X1111059D01*
Y-116070D01*
Y-116357D01*
X1110772D01*
Y-116643D01*
Y-116929D01*
Y-117216D01*
X1110486D01*
Y-117502D01*
Y-117788D01*
X1110200D01*
Y-118075D01*
Y-118361D01*
Y-118647D01*
X1109913D01*
Y-118933D01*
Y-119220D01*
X1109627D01*
Y-119506D01*
Y-119792D01*
Y-120079D01*
X1109341D01*
Y-120365D01*
Y-120651D01*
X1109054D01*
Y-120938D01*
Y-121224D01*
X1108768D01*
Y-121510D01*
Y-121797D01*
X1108482D01*
Y-122083D01*
Y-122369D01*
Y-122656D01*
X1108195D01*
Y-122942D01*
X1107909D01*
Y-123228D01*
Y-123514D01*
Y-123801D01*
X1107623D01*
Y-124087D01*
X1107337D01*
Y-124373D01*
Y-124660D01*
X1107050D01*
Y-124946D01*
Y-125232D01*
X1106764D01*
Y-125519D01*
Y-125805D01*
X1106478D01*
Y-126091D01*
Y-126378D01*
X1106191D01*
Y-126664D01*
X1105905D01*
Y-126950D01*
Y-127237D01*
X1105619D01*
Y-127523D01*
Y-127809D01*
X1105332D01*
Y-128095D01*
X1105046D01*
Y-128382D01*
X1104760D01*
Y-128668D01*
Y-128954D01*
X1104473D01*
Y-129241D01*
X1104187D01*
Y-129527D01*
Y-129813D01*
X1103901D01*
Y-130100D01*
X1103615D01*
Y-130386D01*
X1103328D01*
Y-130672D01*
Y-130959D01*
X1103042D01*
Y-131245D01*
X1102756D01*
Y-131531D01*
X1102469D01*
Y-131818D01*
X1102183D01*
Y-132104D01*
X1101897D01*
Y-132390D01*
Y-132676D01*
X1101610D01*
Y-132963D01*
X1101324D01*
Y-133249D01*
X1101038D01*
Y-133535D01*
X1100751D01*
Y-133822D01*
X1100465D01*
Y-134108D01*
X1100179D01*
Y-134394D01*
X1099892D01*
Y-134681D01*
X1099320D01*
Y-134967D01*
X1099034D01*
Y-135253D01*
X1098747D01*
Y-135540D01*
X1098461D01*
Y-135826D01*
X1098175D01*
Y-136112D01*
X1097602D01*
Y-136399D01*
X1097316D01*
Y-136685D01*
X1096743D01*
Y-136971D01*
X1096457D01*
Y-137258D01*
X1095884D01*
Y-137544D01*
X1095598D01*
Y-137830D01*
X1095025D01*
Y-138117D01*
X1094452D01*
Y-138403D01*
X1093880D01*
Y-138689D01*
X1093307D01*
Y-138975D01*
X1092735D01*
Y-139262D01*
X1091876D01*
Y-139548D01*
X1091303D01*
Y-139834D01*
X1090444D01*
Y-140121D01*
X1089299D01*
Y-140407D01*
X1088154D01*
Y-140693D01*
X1086436D01*
Y-140980D01*
X1084432D01*
Y-141266D01*
X1084145D01*
Y-140980D01*
Y-140693D01*
Y-140407D01*
Y-140121D01*
Y-139834D01*
Y-139548D01*
Y-139262D01*
Y-138975D01*
Y-138689D01*
Y-138403D01*
Y-138117D01*
Y-137830D01*
Y-137544D01*
Y-137258D01*
Y-136971D01*
Y-136685D01*
Y-136399D01*
Y-136112D01*
Y-135826D01*
Y-135540D01*
Y-135253D01*
Y-134967D01*
Y-134681D01*
Y-134394D01*
Y-134108D01*
Y-133822D01*
Y-133535D01*
Y-133249D01*
Y-132963D01*
Y-132676D01*
Y-132390D01*
Y-132104D01*
Y-131818D01*
X1084718D01*
Y-131531D01*
X1085291D01*
Y-131245D01*
X1085863D01*
Y-130959D01*
X1086436D01*
Y-130672D01*
X1087008D01*
Y-130386D01*
X1087581D01*
Y-130100D01*
X1087867D01*
Y-129813D01*
X1088440D01*
Y-129527D01*
X1088726D01*
Y-129241D01*
X1089299D01*
Y-128954D01*
X1089585D01*
Y-128668D01*
X1089872D01*
Y-128382D01*
X1090444D01*
Y-128095D01*
X1090730D01*
Y-127809D01*
X1091017D01*
Y-127523D01*
X1091303D01*
Y-127237D01*
X1091589D01*
Y-126950D01*
X1091876D01*
Y-126664D01*
X1092162D01*
Y-126378D01*
X1092448D01*
Y-126091D01*
X1092735D01*
Y-125805D01*
X1093021D01*
Y-125519D01*
X1093307D01*
Y-125232D01*
X1093594D01*
Y-124946D01*
Y-124660D01*
X1093880D01*
Y-124373D01*
X1094166D01*
Y-124087D01*
X1094452D01*
Y-123801D01*
Y-123514D01*
X1094739D01*
Y-123228D01*
X1095025D01*
Y-122942D01*
Y-122656D01*
X1095311D01*
Y-122369D01*
Y-122083D01*
X1095598D01*
Y-121797D01*
X1095884D01*
Y-121510D01*
Y-121224D01*
X1096170D01*
Y-120938D01*
Y-120651D01*
X1096457D01*
Y-120365D01*
Y-120079D01*
X1094739D01*
Y-119792D01*
X1092735D01*
Y-119506D01*
X1091589D01*
Y-119220D01*
X1091017D01*
Y-118933D01*
X1090158D01*
Y-118647D01*
X1089585D01*
Y-118361D01*
X1089299D01*
Y-118075D01*
X1088726D01*
Y-117788D01*
X1088440D01*
Y-117502D01*
X1088154D01*
Y-117216D01*
X1087867D01*
Y-116929D01*
X1087581D01*
Y-116643D01*
X1087295D01*
Y-116357D01*
Y-116070D01*
X1087008D01*
Y-115784D01*
X1086722D01*
Y-115498D01*
Y-115211D01*
X1086436D01*
Y-114925D01*
Y-114639D01*
X1086149D01*
Y-114353D01*
Y-114066D01*
X1085863D01*
Y-113780D01*
Y-113494D01*
Y-113207D01*
X1085577D01*
Y-112921D01*
Y-112635D01*
Y-112348D01*
Y-112062D01*
X1085291D01*
Y-111776D01*
Y-111489D01*
Y-111203D01*
Y-110917D01*
Y-110630D01*
Y-110344D01*
Y-110058D01*
X1085004D01*
Y-109772D01*
Y-109485D01*
Y-109199D01*
Y-108913D01*
Y-108626D01*
Y-108340D01*
Y-108054D01*
Y-107767D01*
Y-107481D01*
Y-107195D01*
Y-106908D01*
Y-106622D01*
Y-106336D01*
Y-106049D01*
Y-105763D01*
X1084718D01*
Y-105477D01*
Y-105191D01*
Y-104904D01*
Y-104618D01*
Y-104332D01*
Y-104045D01*
Y-103759D01*
Y-103473D01*
Y-103186D01*
Y-102900D01*
Y-102614D01*
Y-102327D01*
Y-102041D01*
Y-101755D01*
Y-101468D01*
X1084432D01*
Y-101182D01*
Y-100896D01*
Y-100610D01*
Y-100323D01*
Y-100037D01*
Y-99751D01*
Y-99464D01*
Y-99178D01*
Y-98892D01*
Y-98605D01*
Y-98319D01*
Y-98033D01*
Y-97746D01*
Y-97460D01*
Y-97174D01*
Y-96887D01*
X1084145D01*
Y-96601D01*
Y-96315D01*
Y-96029D01*
Y-95742D01*
Y-95456D01*
Y-95170D01*
Y-94883D01*
Y-94597D01*
Y-94311D01*
Y-94024D01*
Y-93738D01*
Y-93452D01*
Y-93165D01*
Y-92879D01*
Y-92593D01*
Y-92306D01*
X1083859D01*
Y-92020D01*
Y-91734D01*
Y-91448D01*
Y-91161D01*
Y-90875D01*
Y-90588D01*
Y-90302D01*
Y-90016D01*
Y-89730D01*
Y-89443D01*
Y-89157D01*
Y-88871D01*
Y-88584D01*
Y-88298D01*
X1083573D01*
Y-88012D01*
Y-87725D01*
Y-87439D01*
Y-87153D01*
Y-86866D01*
Y-86580D01*
Y-86294D01*
Y-86007D01*
Y-85721D01*
Y-85435D01*
Y-85149D01*
Y-84862D01*
Y-84576D01*
Y-84290D01*
Y-84003D01*
Y-83717D01*
X1083286D01*
Y-83431D01*
X1097029D01*
Y-83717D01*
Y-84003D01*
Y-84290D01*
Y-84576D01*
Y-84862D01*
Y-85149D01*
Y-85435D01*
Y-85721D01*
Y-86007D01*
Y-86294D01*
Y-86580D01*
Y-86866D01*
Y-87153D01*
Y-87439D01*
X1097316D01*
Y-87725D01*
Y-88012D01*
Y-88298D01*
Y-88584D01*
Y-88871D01*
Y-89157D01*
Y-89443D01*
Y-89730D01*
Y-90016D01*
Y-90302D01*
Y-90588D01*
Y-90875D01*
Y-91161D01*
Y-91448D01*
Y-91734D01*
Y-92020D01*
Y-92306D01*
Y-92593D01*
Y-92879D01*
Y-93165D01*
Y-93452D01*
Y-93738D01*
Y-94024D01*
Y-94311D01*
Y-94597D01*
Y-94883D01*
Y-95170D01*
Y-95456D01*
Y-95742D01*
Y-96029D01*
Y-96315D01*
Y-96601D01*
Y-96887D01*
Y-97174D01*
Y-97460D01*
Y-97746D01*
Y-98033D01*
Y-98319D01*
Y-98605D01*
Y-98892D01*
Y-99178D01*
X1097602D01*
Y-99464D01*
X1097316D01*
Y-99751D01*
Y-100037D01*
X1097602D01*
Y-100323D01*
Y-100610D01*
Y-100896D01*
Y-101182D01*
Y-101468D01*
Y-101755D01*
Y-102041D01*
Y-102327D01*
Y-102614D01*
Y-102900D01*
Y-103186D01*
Y-103473D01*
Y-103759D01*
Y-104045D01*
Y-104332D01*
Y-104618D01*
Y-104904D01*
Y-105191D01*
Y-105477D01*
Y-105763D01*
Y-106049D01*
Y-106336D01*
Y-106622D01*
Y-106908D01*
Y-107195D01*
Y-107481D01*
X1097888D01*
Y-107767D01*
Y-108054D01*
Y-108340D01*
X1098175D01*
Y-108626D01*
X1098461D01*
Y-108913D01*
X1098747D01*
Y-109199D01*
X1099606D01*
Y-109485D01*
X1100465D01*
Y-109199D01*
X1100751D01*
Y-108913D01*
Y-108626D01*
Y-108340D01*
X1101038D01*
Y-108054D01*
Y-107767D01*
X1101324D01*
Y-107481D01*
Y-107195D01*
Y-106908D01*
X1101610D01*
Y-106622D01*
Y-106336D01*
Y-106049D01*
X1101897D01*
Y-105763D01*
Y-105477D01*
Y-105191D01*
X1102183D01*
Y-104904D01*
Y-104618D01*
Y-104332D01*
X1102469D01*
Y-104045D01*
Y-103759D01*
X1102756D01*
Y-103473D01*
Y-103186D01*
Y-102900D01*
X1103042D01*
Y-102614D01*
Y-102327D01*
Y-102041D01*
X1103328D01*
Y-101755D01*
Y-101468D01*
Y-101182D01*
X1103615D01*
Y-100896D01*
Y-100610D01*
X1103901D01*
Y-100323D01*
Y-100037D01*
Y-99751D01*
X1104187D01*
Y-99464D01*
Y-99178D01*
Y-98892D01*
X1104473D01*
Y-98605D01*
Y-98319D01*
Y-98033D01*
X1104760D01*
Y-97746D01*
Y-97460D01*
X1105046D01*
Y-97174D01*
Y-96887D01*
Y-96601D01*
X1105332D01*
Y-96315D01*
Y-96029D01*
Y-95742D01*
X1105619D01*
Y-95456D01*
Y-95170D01*
Y-94883D01*
X1105905D01*
Y-94597D01*
Y-94311D01*
X1106191D01*
Y-94024D01*
Y-93738D01*
Y-93452D01*
X1106478D01*
Y-93165D01*
Y-92879D01*
Y-92593D01*
X1106764D01*
Y-92306D01*
Y-92020D01*
Y-91734D01*
X1107050D01*
Y-91448D01*
Y-91161D01*
Y-90875D01*
Y-90588D01*
X1107337D01*
Y-90302D01*
Y-90016D01*
Y-89730D01*
Y-89443D01*
X1107623D01*
Y-89157D01*
Y-88871D01*
Y-88584D01*
Y-88298D01*
Y-88012D01*
X1107909D01*
Y-87725D01*
Y-87439D01*
Y-87153D01*
Y-86866D01*
Y-86580D01*
Y-86294D01*
X1108195D01*
Y-86007D01*
Y-85721D01*
Y-85435D01*
Y-85149D01*
Y-84862D01*
Y-84576D01*
Y-84290D01*
Y-84003D01*
Y-83717D01*
Y-83431D01*
X1121080D01*
Y-83717D01*
D02*
G37*
G36*
X1063244Y-66252D02*
Y-66538D01*
X1062958D01*
Y-66825D01*
Y-67111D01*
Y-67397D01*
Y-67684D01*
Y-67970D01*
Y-68256D01*
X1062672D01*
Y-68542D01*
Y-68829D01*
Y-69115D01*
Y-69401D01*
Y-69688D01*
Y-69974D01*
X1062385D01*
Y-70260D01*
Y-70547D01*
Y-70833D01*
Y-71119D01*
Y-71406D01*
Y-71692D01*
Y-71978D01*
X1062099D01*
Y-72264D01*
Y-72551D01*
Y-72837D01*
Y-73123D01*
Y-73410D01*
Y-73696D01*
X1061813D01*
Y-73982D01*
Y-74269D01*
Y-74555D01*
Y-74841D01*
Y-75128D01*
Y-75414D01*
X1061526D01*
Y-75700D01*
Y-75987D01*
Y-76273D01*
Y-76559D01*
Y-76846D01*
Y-77132D01*
Y-77418D01*
X1061240D01*
Y-77704D01*
Y-77991D01*
Y-78277D01*
Y-78563D01*
Y-78850D01*
Y-79136D01*
X1060954D01*
Y-79422D01*
Y-79709D01*
Y-79995D01*
Y-80281D01*
Y-80568D01*
Y-80854D01*
X1060668D01*
Y-81140D01*
Y-81427D01*
Y-81713D01*
Y-81999D01*
Y-82285D01*
Y-82572D01*
X1060381D01*
Y-82858D01*
Y-83144D01*
Y-83431D01*
Y-83717D01*
Y-84003D01*
Y-84290D01*
Y-84576D01*
X1060095D01*
Y-84862D01*
Y-85149D01*
Y-85435D01*
Y-85721D01*
Y-86007D01*
Y-86294D01*
X1059809D01*
Y-86580D01*
Y-86866D01*
X1060381D01*
Y-86580D01*
X1060668D01*
Y-86294D01*
X1060954D01*
Y-86007D01*
X1061526D01*
Y-85721D01*
X1061813D01*
Y-85435D01*
X1062099D01*
Y-85149D01*
X1062672D01*
Y-84862D01*
X1063244D01*
Y-84576D01*
X1063531D01*
Y-84290D01*
X1064103D01*
Y-84003D01*
X1064962D01*
Y-83717D01*
X1065535D01*
Y-83431D01*
X1066394D01*
Y-83144D01*
X1067825D01*
Y-82858D01*
X1074124D01*
Y-83144D01*
X1075270D01*
Y-83431D01*
X1076128D01*
Y-83717D01*
X1076701D01*
Y-84003D01*
X1076987D01*
Y-84290D01*
X1077560D01*
Y-84576D01*
X1077846D01*
Y-84862D01*
X1078133D01*
Y-85149D01*
X1078419D01*
Y-85435D01*
X1078705D01*
Y-85721D01*
Y-86007D01*
X1078992D01*
Y-86294D01*
Y-86580D01*
X1079278D01*
Y-86866D01*
Y-87153D01*
Y-87439D01*
X1079564D01*
Y-87725D01*
Y-88012D01*
Y-88298D01*
Y-88584D01*
X1079850D01*
Y-88871D01*
Y-89157D01*
Y-89443D01*
Y-89730D01*
Y-90016D01*
Y-90302D01*
Y-90588D01*
Y-90875D01*
Y-91161D01*
Y-91448D01*
Y-91734D01*
Y-92020D01*
Y-92306D01*
Y-92593D01*
Y-92879D01*
Y-93165D01*
Y-93452D01*
Y-93738D01*
X1079564D01*
Y-94024D01*
Y-94311D01*
Y-94597D01*
Y-94883D01*
Y-95170D01*
Y-95456D01*
Y-95742D01*
X1079278D01*
Y-96029D01*
Y-96315D01*
Y-96601D01*
Y-96887D01*
Y-97174D01*
Y-97460D01*
Y-97746D01*
X1078992D01*
Y-98033D01*
Y-98319D01*
Y-98605D01*
Y-98892D01*
Y-99178D01*
Y-99464D01*
X1078705D01*
Y-99751D01*
Y-100037D01*
Y-100323D01*
Y-100610D01*
Y-100896D01*
Y-101182D01*
X1078419D01*
Y-101468D01*
Y-101755D01*
Y-102041D01*
Y-102327D01*
Y-102614D01*
Y-102900D01*
X1078133D01*
Y-103186D01*
Y-103473D01*
Y-103759D01*
Y-104045D01*
Y-104332D01*
Y-104618D01*
Y-104904D01*
X1077846D01*
Y-105191D01*
Y-105477D01*
Y-105763D01*
Y-106049D01*
Y-106336D01*
Y-106622D01*
X1077560D01*
Y-106908D01*
Y-107195D01*
Y-107481D01*
Y-107767D01*
Y-108054D01*
Y-108340D01*
X1077274D01*
Y-108626D01*
Y-108913D01*
Y-109199D01*
Y-109485D01*
Y-109772D01*
Y-110058D01*
Y-110344D01*
X1076987D01*
Y-110630D01*
Y-110917D01*
Y-111203D01*
Y-111489D01*
Y-111776D01*
Y-112062D01*
X1076701D01*
Y-112348D01*
Y-112635D01*
Y-112921D01*
Y-113207D01*
Y-113494D01*
Y-113780D01*
X1076415D01*
Y-114066D01*
Y-114353D01*
Y-114639D01*
Y-114925D01*
Y-115211D01*
Y-115498D01*
X1076128D01*
Y-115784D01*
Y-116070D01*
Y-116357D01*
Y-116643D01*
Y-116929D01*
Y-117216D01*
Y-117502D01*
X1075842D01*
Y-117788D01*
Y-118075D01*
Y-118361D01*
Y-118647D01*
Y-118933D01*
Y-119220D01*
X1075556D01*
Y-119506D01*
Y-119792D01*
X1062385D01*
Y-119506D01*
Y-119220D01*
X1062672D01*
Y-118933D01*
Y-118647D01*
Y-118361D01*
Y-118075D01*
Y-117788D01*
Y-117502D01*
X1062958D01*
Y-117216D01*
Y-116929D01*
Y-116643D01*
Y-116357D01*
Y-116070D01*
Y-115784D01*
Y-115498D01*
X1063244D01*
Y-115211D01*
Y-114925D01*
Y-114639D01*
Y-114353D01*
Y-114066D01*
Y-113780D01*
X1063531D01*
Y-113494D01*
Y-113207D01*
Y-112921D01*
Y-112635D01*
Y-112348D01*
Y-112062D01*
X1063817D01*
Y-111776D01*
Y-111489D01*
Y-111203D01*
Y-110917D01*
Y-110630D01*
Y-110344D01*
Y-110058D01*
X1064103D01*
Y-109772D01*
Y-109485D01*
Y-109199D01*
Y-108913D01*
Y-108626D01*
Y-108340D01*
X1064390D01*
Y-108054D01*
Y-107767D01*
Y-107481D01*
Y-107195D01*
Y-106908D01*
Y-106622D01*
Y-106336D01*
X1064676D01*
Y-106049D01*
Y-105763D01*
Y-105477D01*
Y-105191D01*
Y-104904D01*
Y-104618D01*
X1064962D01*
Y-104332D01*
Y-104045D01*
Y-103759D01*
Y-103473D01*
Y-103186D01*
Y-102900D01*
X1065249D01*
Y-102614D01*
Y-102327D01*
Y-102041D01*
Y-101755D01*
Y-101468D01*
Y-101182D01*
X1065535D01*
Y-100896D01*
Y-100610D01*
Y-100323D01*
Y-100037D01*
Y-99751D01*
Y-99464D01*
Y-99178D01*
X1065821D01*
Y-98892D01*
Y-98605D01*
Y-98319D01*
Y-98033D01*
Y-97746D01*
Y-97460D01*
X1066107D01*
Y-97174D01*
Y-96887D01*
Y-96601D01*
Y-96315D01*
Y-96029D01*
Y-95742D01*
Y-95456D01*
X1066394D01*
Y-95170D01*
Y-94883D01*
Y-94597D01*
Y-94311D01*
Y-94024D01*
Y-93738D01*
X1066107D01*
Y-93452D01*
Y-93165D01*
X1065821D01*
Y-92879D01*
X1065535D01*
Y-92593D01*
X1064962D01*
Y-92306D01*
X1063244D01*
Y-92593D01*
X1061813D01*
Y-92879D01*
X1060954D01*
Y-93165D01*
X1060381D01*
Y-93452D01*
X1060095D01*
Y-93738D01*
X1059522D01*
Y-94024D01*
X1059236D01*
Y-94311D01*
X1058950D01*
Y-94597D01*
Y-94883D01*
X1058663D01*
Y-95170D01*
Y-95456D01*
Y-95742D01*
X1058377D01*
Y-96029D01*
Y-96315D01*
Y-96601D01*
Y-96887D01*
Y-97174D01*
Y-97460D01*
X1058091D01*
Y-97746D01*
Y-98033D01*
Y-98319D01*
Y-98605D01*
Y-98892D01*
Y-99178D01*
Y-99464D01*
X1057804D01*
Y-99751D01*
Y-100037D01*
Y-100323D01*
Y-100610D01*
Y-100896D01*
Y-101182D01*
X1057518D01*
Y-101468D01*
Y-101755D01*
Y-102041D01*
Y-102327D01*
Y-102614D01*
Y-102900D01*
X1057232D01*
Y-103186D01*
Y-103473D01*
Y-103759D01*
Y-104045D01*
Y-104332D01*
Y-104618D01*
X1056946D01*
Y-104904D01*
Y-105191D01*
Y-105477D01*
Y-105763D01*
Y-106049D01*
Y-106336D01*
Y-106622D01*
X1056659D01*
Y-106908D01*
Y-107195D01*
Y-107481D01*
Y-107767D01*
Y-108054D01*
Y-108340D01*
X1056373D01*
Y-108626D01*
Y-108913D01*
Y-109199D01*
Y-109485D01*
Y-109772D01*
Y-110058D01*
X1056087D01*
Y-110344D01*
Y-110630D01*
Y-110917D01*
Y-111203D01*
Y-111489D01*
Y-111776D01*
Y-112062D01*
X1055800D01*
Y-112348D01*
Y-112635D01*
Y-112921D01*
Y-113207D01*
Y-113494D01*
Y-113780D01*
X1055514D01*
Y-114066D01*
Y-114353D01*
Y-114639D01*
Y-114925D01*
Y-115211D01*
Y-115498D01*
X1055228D01*
Y-115784D01*
Y-116070D01*
Y-116357D01*
Y-116643D01*
Y-116929D01*
Y-117216D01*
X1054941D01*
Y-117502D01*
Y-117788D01*
Y-118075D01*
Y-118361D01*
Y-118647D01*
Y-118933D01*
Y-119220D01*
X1054655D01*
Y-119506D01*
Y-119792D01*
X1041485D01*
Y-119506D01*
Y-119220D01*
X1041771D01*
Y-118933D01*
Y-118647D01*
Y-118361D01*
Y-118075D01*
Y-117788D01*
Y-117502D01*
Y-117216D01*
X1042057D01*
Y-116929D01*
Y-116643D01*
Y-116357D01*
Y-116070D01*
Y-115784D01*
Y-115498D01*
X1042344D01*
Y-115211D01*
Y-114925D01*
Y-114639D01*
Y-114353D01*
Y-114066D01*
Y-113780D01*
X1042630D01*
Y-113494D01*
Y-113207D01*
Y-112921D01*
Y-112635D01*
Y-112348D01*
Y-112062D01*
Y-111776D01*
X1042916D01*
Y-111489D01*
Y-111203D01*
Y-110917D01*
Y-110630D01*
Y-110344D01*
Y-110058D01*
X1043202D01*
Y-109772D01*
Y-109485D01*
Y-109199D01*
Y-108913D01*
Y-108626D01*
Y-108340D01*
X1043489D01*
Y-108054D01*
Y-107767D01*
Y-107481D01*
Y-107195D01*
Y-106908D01*
Y-106622D01*
X1043775D01*
Y-106336D01*
Y-106049D01*
Y-105763D01*
Y-105477D01*
Y-105191D01*
Y-104904D01*
Y-104618D01*
X1044061D01*
Y-104332D01*
Y-104045D01*
Y-103759D01*
Y-103473D01*
Y-103186D01*
Y-102900D01*
X1044348D01*
Y-102614D01*
Y-102327D01*
Y-102041D01*
Y-101755D01*
Y-101468D01*
Y-101182D01*
X1044634D01*
Y-100896D01*
Y-100610D01*
Y-100323D01*
Y-100037D01*
Y-99751D01*
Y-99464D01*
Y-99178D01*
X1044920D01*
Y-98892D01*
Y-98605D01*
Y-98319D01*
Y-98033D01*
Y-97746D01*
Y-97460D01*
X1045207D01*
Y-97174D01*
Y-96887D01*
Y-96601D01*
Y-96315D01*
Y-96029D01*
Y-95742D01*
X1045493D01*
Y-95456D01*
Y-95170D01*
Y-94883D01*
Y-94597D01*
Y-94311D01*
Y-94024D01*
X1045779D01*
Y-93738D01*
Y-93452D01*
Y-93165D01*
Y-92879D01*
Y-92593D01*
Y-92306D01*
Y-92020D01*
X1046066D01*
Y-91734D01*
Y-91448D01*
Y-91161D01*
Y-90875D01*
Y-90588D01*
Y-90302D01*
X1046352D01*
Y-90016D01*
Y-89730D01*
Y-89443D01*
Y-89157D01*
Y-88871D01*
Y-88584D01*
X1046638D01*
Y-88298D01*
Y-88012D01*
Y-87725D01*
Y-87439D01*
Y-87153D01*
Y-86866D01*
X1046925D01*
Y-86580D01*
Y-86294D01*
Y-86007D01*
Y-85721D01*
Y-85435D01*
Y-85149D01*
Y-84862D01*
X1047211D01*
Y-84576D01*
Y-84290D01*
Y-84003D01*
Y-83717D01*
Y-83431D01*
Y-83144D01*
X1047497D01*
Y-82858D01*
Y-82572D01*
Y-82285D01*
Y-81999D01*
Y-81713D01*
Y-81427D01*
X1047783D01*
Y-81140D01*
Y-80854D01*
Y-80568D01*
Y-80281D01*
Y-79995D01*
Y-79709D01*
Y-79422D01*
X1048070D01*
Y-79136D01*
Y-78850D01*
Y-78563D01*
Y-78277D01*
Y-77991D01*
Y-77704D01*
X1048356D01*
Y-77418D01*
Y-77132D01*
Y-76846D01*
Y-76559D01*
Y-76273D01*
Y-75987D01*
X1048642D01*
Y-75700D01*
Y-75414D01*
Y-75128D01*
Y-74841D01*
Y-74555D01*
Y-74269D01*
X1048929D01*
Y-73982D01*
Y-73696D01*
Y-73410D01*
Y-73123D01*
Y-72837D01*
Y-72551D01*
Y-72264D01*
X1049215D01*
Y-71978D01*
Y-71692D01*
Y-71406D01*
Y-71119D01*
Y-70833D01*
Y-70547D01*
X1049501D01*
Y-70260D01*
Y-69974D01*
Y-69688D01*
Y-69401D01*
Y-69115D01*
Y-68829D01*
X1049788D01*
Y-68542D01*
Y-68256D01*
Y-67970D01*
Y-67684D01*
Y-67397D01*
Y-67111D01*
Y-66825D01*
X1050074D01*
Y-66538D01*
Y-66252D01*
Y-65966D01*
X1063244D01*
Y-66252D01*
D02*
G37*
G36*
X1032036Y-69688D02*
X1033754D01*
Y-69974D01*
X1034613D01*
Y-70260D01*
X1035472D01*
Y-70547D01*
X1036331D01*
Y-70833D01*
X1036904D01*
Y-71119D01*
X1037190D01*
Y-71406D01*
X1037763D01*
Y-71692D01*
X1038049D01*
Y-71978D01*
X1038622D01*
Y-72264D01*
X1038908D01*
Y-72551D01*
X1039194D01*
Y-72837D01*
X1039480D01*
Y-73123D01*
X1039767D01*
Y-73410D01*
X1040053D01*
Y-73696D01*
X1040339D01*
Y-73982D01*
Y-74269D01*
X1040626D01*
Y-74555D01*
X1040912D01*
Y-74841D01*
Y-75128D01*
X1041198D01*
Y-75414D01*
X1041485D01*
Y-75700D01*
Y-75987D01*
X1041771D01*
Y-76273D01*
Y-76559D01*
Y-76846D01*
X1042057D01*
Y-77132D01*
Y-77418D01*
Y-77704D01*
X1042344D01*
Y-77991D01*
Y-78277D01*
Y-78563D01*
Y-78850D01*
X1042630D01*
Y-79136D01*
Y-79422D01*
Y-79709D01*
Y-79995D01*
Y-80281D01*
X1042916D01*
Y-80568D01*
Y-80854D01*
Y-81140D01*
Y-81427D01*
Y-81713D01*
Y-81999D01*
Y-82285D01*
Y-82572D01*
Y-82858D01*
Y-83144D01*
Y-83431D01*
Y-83717D01*
Y-84003D01*
Y-84290D01*
Y-84576D01*
Y-84862D01*
Y-85149D01*
Y-85435D01*
Y-85721D01*
Y-86007D01*
X1042630D01*
Y-86294D01*
Y-86580D01*
Y-86866D01*
Y-87153D01*
Y-87439D01*
Y-87725D01*
Y-88012D01*
X1042344D01*
Y-88298D01*
Y-88584D01*
Y-88871D01*
Y-89157D01*
Y-89443D01*
X1042057D01*
Y-89730D01*
Y-90016D01*
Y-90302D01*
Y-90588D01*
Y-90875D01*
X1041771D01*
Y-91161D01*
Y-91448D01*
Y-91734D01*
X1041485D01*
Y-92020D01*
Y-92306D01*
Y-92593D01*
Y-92879D01*
X1041198D01*
Y-93165D01*
Y-93452D01*
Y-93738D01*
X1040912D01*
Y-94024D01*
Y-94311D01*
X1040626D01*
Y-94597D01*
Y-94883D01*
Y-95170D01*
X1040339D01*
Y-95456D01*
Y-95742D01*
X1040053D01*
Y-96029D01*
Y-96315D01*
X1039767D01*
Y-96601D01*
Y-96887D01*
X1039480D01*
Y-97174D01*
X1039194D01*
Y-97460D01*
Y-97746D01*
X1038908D01*
Y-98033D01*
X1038622D01*
Y-98319D01*
X1038335D01*
Y-98605D01*
Y-98892D01*
X1038049D01*
Y-99178D01*
X1037763D01*
Y-99464D01*
X1037476D01*
Y-99751D01*
X1037190D01*
Y-100037D01*
X1036904D01*
Y-100323D01*
X1036331D01*
Y-100610D01*
X1036045D01*
Y-100896D01*
X1035472D01*
Y-101182D01*
X1035186D01*
Y-101468D01*
X1034613D01*
Y-101755D01*
X1033754D01*
Y-102041D01*
X1032895D01*
Y-102327D01*
X1032036D01*
Y-102614D01*
X1030318D01*
Y-102900D01*
X1025165D01*
Y-102614D01*
X1022588D01*
Y-102327D01*
X1020584D01*
Y-102041D01*
X1019152D01*
Y-101755D01*
X1017721D01*
Y-101468D01*
X1016289D01*
Y-101755D01*
Y-102041D01*
Y-102327D01*
Y-102614D01*
Y-102900D01*
Y-103186D01*
Y-103473D01*
X1016003D01*
Y-103759D01*
Y-104045D01*
Y-104332D01*
Y-104618D01*
Y-104904D01*
Y-105191D01*
X1015716D01*
Y-105477D01*
Y-105763D01*
Y-106049D01*
Y-106336D01*
Y-106622D01*
Y-106908D01*
X1015430D01*
Y-107195D01*
Y-107481D01*
Y-107767D01*
Y-108054D01*
Y-108340D01*
Y-108626D01*
Y-108913D01*
X1015144D01*
Y-109199D01*
Y-109485D01*
Y-109772D01*
Y-110058D01*
Y-110344D01*
Y-110630D01*
X1014857D01*
Y-110917D01*
Y-111203D01*
Y-111489D01*
Y-111776D01*
Y-112062D01*
Y-112348D01*
X1014571D01*
Y-112635D01*
Y-112921D01*
Y-113207D01*
Y-113494D01*
Y-113780D01*
Y-114066D01*
Y-114353D01*
X1014285D01*
Y-114639D01*
Y-114925D01*
Y-115211D01*
Y-115498D01*
Y-115784D01*
Y-116070D01*
X1013999D01*
Y-116357D01*
Y-116643D01*
Y-116929D01*
Y-117216D01*
Y-117502D01*
Y-117788D01*
X1013712D01*
Y-118075D01*
Y-118361D01*
Y-118647D01*
Y-118933D01*
Y-119220D01*
Y-119506D01*
Y-119792D01*
X1000256D01*
Y-119506D01*
X1000542D01*
Y-119220D01*
Y-118933D01*
Y-118647D01*
Y-118361D01*
Y-118075D01*
X1000828D01*
Y-117788D01*
Y-117502D01*
Y-117216D01*
Y-116929D01*
Y-116643D01*
Y-116357D01*
Y-116070D01*
X1001114D01*
Y-115784D01*
Y-115498D01*
Y-115211D01*
Y-114925D01*
Y-114639D01*
Y-114353D01*
X1001401D01*
Y-114066D01*
Y-113780D01*
Y-113494D01*
Y-113207D01*
Y-112921D01*
Y-112635D01*
X1001687D01*
Y-112348D01*
Y-112062D01*
Y-111776D01*
Y-111489D01*
Y-111203D01*
Y-110917D01*
Y-110630D01*
X1001974D01*
Y-110344D01*
Y-110058D01*
Y-109772D01*
Y-109485D01*
Y-109199D01*
Y-108913D01*
X1002260D01*
Y-108626D01*
Y-108340D01*
Y-108054D01*
Y-107767D01*
Y-107481D01*
Y-107195D01*
X1002546D01*
Y-106908D01*
Y-106622D01*
Y-106336D01*
Y-106049D01*
Y-105763D01*
Y-105477D01*
X1002832D01*
Y-105191D01*
Y-104904D01*
Y-104618D01*
Y-104332D01*
Y-104045D01*
Y-103759D01*
Y-103473D01*
X1003119D01*
Y-103186D01*
Y-102900D01*
Y-102614D01*
Y-102327D01*
Y-102041D01*
Y-101755D01*
X1003405D01*
Y-101468D01*
Y-101182D01*
Y-100896D01*
Y-100610D01*
Y-100323D01*
Y-100037D01*
X1003691D01*
Y-99751D01*
Y-99464D01*
Y-99178D01*
Y-98892D01*
Y-98605D01*
Y-98319D01*
X1003978D01*
Y-98033D01*
Y-97746D01*
Y-97460D01*
Y-97174D01*
Y-96887D01*
Y-96601D01*
Y-96315D01*
X1004264D01*
Y-96029D01*
Y-95742D01*
Y-95456D01*
Y-95170D01*
Y-94883D01*
Y-94597D01*
X1004550D01*
Y-94311D01*
Y-94024D01*
Y-93738D01*
Y-93452D01*
Y-93165D01*
Y-92879D01*
X1004837D01*
Y-92593D01*
Y-92306D01*
Y-92020D01*
Y-91734D01*
Y-91448D01*
Y-91161D01*
Y-90875D01*
X1005123D01*
Y-90588D01*
Y-90302D01*
Y-90016D01*
Y-89730D01*
Y-89443D01*
Y-89157D01*
X1005409D01*
Y-88871D01*
Y-88584D01*
Y-88298D01*
Y-88012D01*
Y-87725D01*
Y-87439D01*
X1005696D01*
Y-87153D01*
Y-86866D01*
Y-86580D01*
Y-86294D01*
Y-86007D01*
Y-85721D01*
X1005982D01*
Y-85435D01*
Y-85149D01*
Y-84862D01*
Y-84576D01*
Y-84290D01*
Y-84003D01*
Y-83717D01*
X1006268D01*
Y-83431D01*
Y-83144D01*
Y-82858D01*
Y-82572D01*
Y-82285D01*
Y-81999D01*
X1006555D01*
Y-81713D01*
Y-81427D01*
Y-81140D01*
Y-80854D01*
Y-80568D01*
Y-80281D01*
X1006841D01*
Y-79995D01*
Y-79709D01*
Y-79422D01*
Y-79136D01*
Y-78850D01*
Y-78563D01*
Y-78277D01*
X1007127D01*
Y-77991D01*
Y-77704D01*
Y-77418D01*
Y-77132D01*
Y-76846D01*
Y-76559D01*
X1007413D01*
Y-76273D01*
Y-75987D01*
Y-75700D01*
Y-75414D01*
Y-75128D01*
Y-74841D01*
X1007700D01*
Y-74555D01*
Y-74269D01*
Y-73982D01*
Y-73696D01*
Y-73410D01*
Y-73123D01*
Y-72837D01*
X1007986D01*
Y-72551D01*
Y-72264D01*
Y-71978D01*
Y-71692D01*
Y-71406D01*
Y-71119D01*
X1008272D01*
Y-70833D01*
Y-70547D01*
Y-70260D01*
Y-69974D01*
Y-69688D01*
Y-69401D01*
X1032036D01*
Y-69688D01*
D02*
G37*
G36*
X1165172Y-83717D02*
X1164886D01*
Y-84003D01*
X1164599D01*
Y-84290D01*
Y-84576D01*
X1164313D01*
Y-84862D01*
X1164027D01*
Y-85149D01*
X1163740D01*
Y-85435D01*
Y-85721D01*
X1163454D01*
Y-86007D01*
X1163168D01*
Y-86294D01*
X1162881D01*
Y-86580D01*
X1162595D01*
Y-86866D01*
Y-87153D01*
X1162309D01*
Y-87439D01*
X1162022D01*
Y-87725D01*
X1161736D01*
Y-88012D01*
Y-88298D01*
X1161450D01*
Y-88584D01*
X1161163D01*
Y-88871D01*
X1160877D01*
Y-89157D01*
X1160591D01*
Y-89443D01*
Y-89730D01*
X1160305D01*
Y-90016D01*
X1160018D01*
Y-90302D01*
X1159732D01*
Y-90588D01*
Y-90875D01*
X1159445D01*
Y-91161D01*
X1159159D01*
Y-91448D01*
X1158873D01*
Y-91734D01*
Y-92020D01*
X1158587D01*
Y-92306D01*
X1158300D01*
Y-92593D01*
X1158014D01*
Y-92879D01*
X1157728D01*
Y-93165D01*
Y-93452D01*
X1157441D01*
Y-93738D01*
X1157155D01*
Y-94024D01*
X1156869D01*
Y-94311D01*
Y-94597D01*
X1156582D01*
Y-94883D01*
X1156296D01*
Y-95170D01*
X1156010D01*
Y-95456D01*
Y-95742D01*
X1155723D01*
Y-96029D01*
X1155437D01*
Y-96315D01*
X1155151D01*
Y-96601D01*
X1154865D01*
Y-96887D01*
Y-97174D01*
X1154578D01*
Y-97460D01*
X1154292D01*
Y-97746D01*
X1154006D01*
Y-98033D01*
Y-98319D01*
X1153719D01*
Y-98605D01*
X1153433D01*
Y-98892D01*
X1153147D01*
Y-99178D01*
Y-99464D01*
X1152860D01*
Y-99751D01*
X1152574D01*
Y-100037D01*
X1152288D01*
Y-100323D01*
X1152001D01*
Y-100610D01*
Y-100896D01*
X1151715D01*
Y-101182D01*
X1151429D01*
Y-101468D01*
X1151142D01*
Y-101755D01*
Y-102041D01*
X1150856D01*
Y-102327D01*
X1150570D01*
Y-102614D01*
X1150284D01*
Y-102900D01*
X1149997D01*
Y-103186D01*
Y-103473D01*
X1150284D01*
Y-103759D01*
Y-104045D01*
X1150570D01*
Y-104332D01*
Y-104618D01*
X1150856D01*
Y-104904D01*
X1151142D01*
Y-105191D01*
Y-105477D01*
X1151429D01*
Y-105763D01*
Y-106049D01*
X1151715D01*
Y-106336D01*
Y-106622D01*
X1152001D01*
Y-106908D01*
Y-107195D01*
X1152288D01*
Y-107481D01*
Y-107767D01*
X1152574D01*
Y-108054D01*
Y-108340D01*
X1152860D01*
Y-108626D01*
Y-108913D01*
X1153147D01*
Y-109199D01*
Y-109485D01*
X1153433D01*
Y-109772D01*
X1153719D01*
Y-110058D01*
Y-110344D01*
X1154006D01*
Y-110630D01*
Y-110917D01*
X1154292D01*
Y-111203D01*
Y-111489D01*
X1154578D01*
Y-111776D01*
Y-112062D01*
X1154865D01*
Y-112348D01*
Y-112635D01*
X1155151D01*
Y-112921D01*
Y-113207D01*
X1155437D01*
Y-113494D01*
Y-113780D01*
X1155723D01*
Y-114066D01*
X1156010D01*
Y-114353D01*
Y-114639D01*
X1156296D01*
Y-114925D01*
Y-115211D01*
X1156582D01*
Y-115498D01*
Y-115784D01*
X1156869D01*
Y-116070D01*
Y-116357D01*
X1157155D01*
Y-116643D01*
Y-116929D01*
X1157441D01*
Y-117216D01*
Y-117502D01*
X1157728D01*
Y-117788D01*
Y-118075D01*
X1158014D01*
Y-118361D01*
X1158300D01*
Y-118647D01*
Y-118933D01*
X1158587D01*
Y-119220D01*
Y-119506D01*
X1158873D01*
Y-119792D01*
X1143698D01*
Y-119506D01*
X1143412D01*
Y-119220D01*
Y-118933D01*
Y-118647D01*
X1143126D01*
Y-118361D01*
Y-118075D01*
Y-117788D01*
X1142839D01*
Y-117502D01*
Y-117216D01*
X1142553D01*
Y-116929D01*
Y-116643D01*
Y-116357D01*
X1142267D01*
Y-116070D01*
Y-115784D01*
Y-115498D01*
X1141980D01*
Y-115211D01*
Y-114925D01*
X1141694D01*
Y-114639D01*
Y-114353D01*
Y-114066D01*
X1141408D01*
Y-113780D01*
Y-113494D01*
Y-113207D01*
X1141121D01*
Y-112921D01*
Y-112635D01*
Y-112348D01*
X1140835D01*
Y-112062D01*
X1140263D01*
Y-112348D01*
Y-112635D01*
X1139976D01*
Y-112921D01*
X1139690D01*
Y-113207D01*
Y-113494D01*
X1139404D01*
Y-113780D01*
X1139117D01*
Y-114066D01*
Y-114353D01*
X1138831D01*
Y-114639D01*
X1138545D01*
Y-114925D01*
Y-115211D01*
X1138258D01*
Y-115498D01*
X1137972D01*
Y-115784D01*
X1137686D01*
Y-116070D01*
Y-116357D01*
X1137399D01*
Y-116643D01*
X1137113D01*
Y-116929D01*
Y-117216D01*
X1136827D01*
Y-117502D01*
X1136541D01*
Y-117788D01*
Y-118075D01*
X1136254D01*
Y-118361D01*
X1135968D01*
Y-118647D01*
Y-118933D01*
X1135682D01*
Y-119220D01*
X1135395D01*
Y-119506D01*
Y-119792D01*
X1119362D01*
Y-119506D01*
X1119648D01*
Y-119220D01*
X1119934D01*
Y-118933D01*
X1120221D01*
Y-118647D01*
X1120507D01*
Y-118361D01*
Y-118075D01*
X1120793D01*
Y-117788D01*
X1121080D01*
Y-117502D01*
X1121366D01*
Y-117216D01*
X1121652D01*
Y-116929D01*
Y-116643D01*
X1121939D01*
Y-116357D01*
X1122225D01*
Y-116070D01*
X1122511D01*
Y-115784D01*
Y-115498D01*
X1122797D01*
Y-115211D01*
X1123084D01*
Y-114925D01*
X1123370D01*
Y-114639D01*
X1123656D01*
Y-114353D01*
Y-114066D01*
X1123943D01*
Y-113780D01*
X1124229D01*
Y-113494D01*
X1124515D01*
Y-113207D01*
X1124802D01*
Y-112921D01*
Y-112635D01*
X1125088D01*
Y-112348D01*
X1125374D01*
Y-112062D01*
X1125661D01*
Y-111776D01*
Y-111489D01*
X1125947D01*
Y-111203D01*
X1126233D01*
Y-110917D01*
X1126519D01*
Y-110630D01*
X1126806D01*
Y-110344D01*
Y-110058D01*
X1127092D01*
Y-109772D01*
X1127378D01*
Y-109485D01*
X1127665D01*
Y-109199D01*
Y-108913D01*
X1127951D01*
Y-108626D01*
X1128237D01*
Y-108340D01*
X1128524D01*
Y-108054D01*
X1128810D01*
Y-107767D01*
Y-107481D01*
X1129096D01*
Y-107195D01*
X1129383D01*
Y-106908D01*
X1129669D01*
Y-106622D01*
Y-106336D01*
X1129955D01*
Y-106049D01*
X1130242D01*
Y-105763D01*
X1130528D01*
Y-105477D01*
X1130814D01*
Y-105191D01*
Y-104904D01*
X1131100D01*
Y-104618D01*
X1131387D01*
Y-104332D01*
X1131673D01*
Y-104045D01*
X1131960D01*
Y-103759D01*
Y-103473D01*
X1132246D01*
Y-103186D01*
X1132532D01*
Y-102900D01*
X1132818D01*
Y-102614D01*
Y-102327D01*
X1133105D01*
Y-102041D01*
X1133391D01*
Y-101755D01*
X1133677D01*
Y-101468D01*
X1133964D01*
Y-101182D01*
Y-100896D01*
X1134250D01*
Y-100610D01*
Y-100323D01*
Y-100037D01*
X1133964D01*
Y-99751D01*
X1133677D01*
Y-99464D01*
Y-99178D01*
X1133391D01*
Y-98892D01*
Y-98605D01*
X1133105D01*
Y-98319D01*
Y-98033D01*
X1132818D01*
Y-97746D01*
Y-97460D01*
X1132532D01*
Y-97174D01*
Y-96887D01*
X1132246D01*
Y-96601D01*
Y-96315D01*
X1131960D01*
Y-96029D01*
X1131673D01*
Y-95742D01*
Y-95456D01*
X1131387D01*
Y-95170D01*
Y-94883D01*
X1131100D01*
Y-94597D01*
Y-94311D01*
X1130814D01*
Y-94024D01*
Y-93738D01*
X1130528D01*
Y-93452D01*
Y-93165D01*
X1130242D01*
Y-92879D01*
Y-92593D01*
X1129955D01*
Y-92306D01*
X1129669D01*
Y-92020D01*
Y-91734D01*
X1129383D01*
Y-91448D01*
Y-91161D01*
X1129096D01*
Y-90875D01*
Y-90588D01*
X1128810D01*
Y-90302D01*
Y-90016D01*
X1128524D01*
Y-89730D01*
Y-89443D01*
X1128237D01*
Y-89157D01*
Y-88871D01*
X1127951D01*
Y-88584D01*
Y-88298D01*
X1127665D01*
Y-88012D01*
X1127378D01*
Y-87725D01*
Y-87439D01*
X1127092D01*
Y-87153D01*
Y-86866D01*
X1126806D01*
Y-86580D01*
Y-86294D01*
X1126519D01*
Y-86007D01*
Y-85721D01*
X1126233D01*
Y-85435D01*
Y-85149D01*
X1125947D01*
Y-84862D01*
Y-84576D01*
X1125661D01*
Y-84290D01*
X1125374D01*
Y-84003D01*
Y-83717D01*
X1125088D01*
Y-83431D01*
X1140835D01*
Y-83717D01*
X1141121D01*
Y-84003D01*
Y-84290D01*
Y-84576D01*
X1141408D01*
Y-84862D01*
Y-85149D01*
Y-85435D01*
X1141694D01*
Y-85721D01*
Y-86007D01*
Y-86294D01*
X1141980D01*
Y-86580D01*
Y-86866D01*
Y-87153D01*
X1142267D01*
Y-87439D01*
Y-87725D01*
Y-88012D01*
X1142553D01*
Y-88298D01*
Y-88584D01*
Y-88871D01*
X1142839D01*
Y-89157D01*
Y-89443D01*
Y-89730D01*
X1143126D01*
Y-90016D01*
Y-90302D01*
Y-90588D01*
X1143412D01*
Y-90875D01*
Y-91161D01*
Y-91448D01*
Y-91734D01*
X1143985D01*
Y-91448D01*
X1144271D01*
Y-91161D01*
X1144557D01*
Y-90875D01*
Y-90588D01*
X1144844D01*
Y-90302D01*
X1145130D01*
Y-90016D01*
Y-89730D01*
X1145416D01*
Y-89443D01*
X1145702D01*
Y-89157D01*
Y-88871D01*
X1145989D01*
Y-88584D01*
X1146275D01*
Y-88298D01*
Y-88012D01*
X1146561D01*
Y-87725D01*
X1146848D01*
Y-87439D01*
Y-87153D01*
X1147134D01*
Y-86866D01*
X1147420D01*
Y-86580D01*
Y-86294D01*
X1147707D01*
Y-86007D01*
X1147993D01*
Y-85721D01*
Y-85435D01*
X1148279D01*
Y-85149D01*
X1148566D01*
Y-84862D01*
Y-84576D01*
X1148852D01*
Y-84290D01*
X1149138D01*
Y-84003D01*
Y-83717D01*
X1149425D01*
Y-83431D01*
X1165172D01*
Y-83717D01*
D02*
G37*
%LPC*%
G36*
X1027742Y-80568D02*
X1019725D01*
Y-80854D01*
Y-81140D01*
Y-81427D01*
Y-81713D01*
Y-81999D01*
X1019438D01*
Y-82285D01*
Y-82572D01*
Y-82858D01*
Y-83144D01*
Y-83431D01*
Y-83717D01*
X1019152D01*
Y-84003D01*
Y-84290D01*
Y-84576D01*
Y-84862D01*
Y-85149D01*
Y-85435D01*
X1018866D01*
Y-85721D01*
Y-86007D01*
Y-86294D01*
Y-86580D01*
Y-86866D01*
Y-87153D01*
X1018580D01*
Y-87439D01*
Y-87725D01*
Y-88012D01*
Y-88298D01*
Y-88584D01*
Y-88871D01*
Y-89157D01*
X1018293D01*
Y-89443D01*
Y-89730D01*
Y-90016D01*
Y-90302D01*
Y-90588D01*
Y-90875D01*
X1018007D01*
Y-91161D01*
Y-91448D01*
Y-91734D01*
X1025165D01*
Y-91448D01*
X1026310D01*
Y-91161D01*
X1026883D01*
Y-90875D01*
X1027169D01*
Y-90588D01*
X1027455D01*
Y-90302D01*
X1027742D01*
Y-90016D01*
X1028028D01*
Y-89730D01*
Y-89443D01*
X1028314D01*
Y-89157D01*
Y-88871D01*
X1028601D01*
Y-88584D01*
Y-88298D01*
X1028887D01*
Y-88012D01*
Y-87725D01*
Y-87439D01*
Y-87153D01*
X1029173D01*
Y-86866D01*
Y-86580D01*
Y-86294D01*
Y-86007D01*
Y-85721D01*
X1029459D01*
Y-85435D01*
Y-85149D01*
Y-84862D01*
Y-84576D01*
Y-84290D01*
Y-84003D01*
Y-83717D01*
Y-83431D01*
Y-83144D01*
Y-82858D01*
Y-82572D01*
X1029173D01*
Y-82285D01*
Y-81999D01*
X1028887D01*
Y-81713D01*
Y-81427D01*
X1028601D01*
Y-81140D01*
X1028314D01*
Y-80854D01*
X1027742D01*
Y-80568D01*
D02*
G37*
%LPD*%
D32*
X160630Y175000D02*
G03*
X160630Y175000I-492J0D01*
G01*
X241929Y169095D02*
G03*
X241929Y169095I-492J0D01*
G01*
X205217Y88484D02*
G03*
X205217Y88484I-492J0D01*
G01*
X1342520Y-129921D02*
Y-122050D01*
X1346455D01*
X1347767Y-123362D01*
Y-125986D01*
X1346455Y-127297D01*
X1342520D01*
X1345144D02*
X1347767Y-129921D01*
X1354327D02*
X1351703D01*
X1350391Y-128609D01*
Y-125986D01*
X1351703Y-124674D01*
X1354327D01*
X1355639Y-125986D01*
Y-127297D01*
X1350391D01*
X1358263Y-124674D02*
X1360886Y-129921D01*
X1363510Y-124674D01*
X988189Y-161420D02*
Y-169291D01*
X992125D01*
X993437Y-167979D01*
Y-162732D01*
X992125Y-161420D01*
X988189D01*
X999996Y-169291D02*
X997372D01*
X996060Y-167979D01*
Y-165356D01*
X997372Y-164044D01*
X999996D01*
X1001308Y-165356D01*
Y-166667D01*
X996060D01*
X1003932Y-169291D02*
X1007868D01*
X1009180Y-167979D01*
X1007868Y-166667D01*
X1005244D01*
X1003932Y-165356D01*
X1005244Y-164044D01*
X1009180D01*
X1014427Y-171915D02*
X1015739D01*
X1017051Y-170603D01*
Y-164044D01*
X1013115D01*
X1011803Y-165356D01*
Y-167979D01*
X1013115Y-169291D01*
X1017051D01*
X1019675D02*
X1022299D01*
X1020987D01*
Y-164044D01*
X1019675D01*
X1026235Y-169291D02*
Y-164044D01*
X1030170D01*
X1031482Y-165356D01*
Y-169291D01*
X1038042D02*
X1035418D01*
X1034106Y-167979D01*
Y-165356D01*
X1035418Y-164044D01*
X1038042D01*
X1039354Y-165356D01*
Y-166667D01*
X1034106D01*
X1041977Y-164044D02*
Y-169291D01*
Y-166667D01*
X1043289Y-165356D01*
X1044601Y-164044D01*
X1045913D01*
X1185039Y-43310D02*
Y-51181D01*
X1188975D01*
X1190287Y-49869D01*
Y-44622D01*
X1188975Y-43310D01*
X1185039D01*
X1194223Y-51181D02*
X1196847D01*
X1198158Y-49869D01*
Y-47245D01*
X1196847Y-45933D01*
X1194223D01*
X1192911Y-47245D01*
Y-49869D01*
X1194223Y-51181D01*
X1206030Y-45933D02*
X1202094D01*
X1200782Y-47245D01*
Y-49869D01*
X1202094Y-51181D01*
X1206030D01*
X1208654Y-45933D02*
Y-49869D01*
X1209966Y-51181D01*
X1213902D01*
Y-45933D01*
X1216525Y-51181D02*
Y-45933D01*
X1217837D01*
X1219149Y-47245D01*
Y-51181D01*
Y-47245D01*
X1220461Y-45933D01*
X1221773Y-47245D01*
Y-51181D01*
X1228333D02*
X1225709D01*
X1224397Y-49869D01*
Y-47245D01*
X1225709Y-45933D01*
X1228333D01*
X1229644Y-47245D01*
Y-48557D01*
X1224397D01*
X1232268Y-51181D02*
Y-45933D01*
X1236204D01*
X1237516Y-47245D01*
Y-51181D01*
X1241452Y-44622D02*
Y-45933D01*
X1240140D01*
X1242764D01*
X1241452D01*
Y-49869D01*
X1242764Y-51181D01*
X1185039Y-82680D02*
Y-90551D01*
X1190287D01*
X1194223Y-85303D02*
X1196847D01*
X1198158Y-86615D01*
Y-90551D01*
X1194223D01*
X1192911Y-89239D01*
X1194223Y-87927D01*
X1198158D01*
X1200782Y-85303D02*
Y-89239D01*
X1202094Y-90551D01*
X1206030D01*
Y-91863D01*
X1204718Y-93175D01*
X1203406D01*
X1206030Y-90551D02*
Y-85303D01*
X1212590Y-90551D02*
X1209966D01*
X1208654Y-89239D01*
Y-86615D01*
X1209966Y-85303D01*
X1212590D01*
X1213902Y-86615D01*
Y-87927D01*
X1208654D01*
X1216525Y-85303D02*
Y-90551D01*
Y-87927D01*
X1217837Y-86615D01*
X1219149Y-85303D01*
X1220461D01*
X1232268Y-90551D02*
Y-82680D01*
X1237516Y-90551D01*
Y-82680D01*
X1241452Y-85303D02*
X1244075D01*
X1245387Y-86615D01*
Y-90551D01*
X1241452D01*
X1240140Y-89239D01*
X1241452Y-87927D01*
X1245387D01*
X1248011Y-90551D02*
Y-85303D01*
X1249323D01*
X1250635Y-86615D01*
Y-90551D01*
Y-86615D01*
X1251947Y-85303D01*
X1253259Y-86615D01*
Y-90551D01*
X1259818D02*
X1257195D01*
X1255883Y-89239D01*
Y-86615D01*
X1257195Y-85303D01*
X1259818D01*
X1261130Y-86615D01*
Y-87927D01*
X1255883D01*
X1185039Y-122050D02*
Y-129921D01*
X1188975D01*
X1190287Y-128609D01*
Y-123362D01*
X1188975Y-122050D01*
X1185039D01*
X1194223Y-124674D02*
X1196847D01*
X1198158Y-125986D01*
Y-129921D01*
X1194223D01*
X1192911Y-128609D01*
X1194223Y-127297D01*
X1198158D01*
X1202094Y-123362D02*
Y-124674D01*
X1200782D01*
X1203406D01*
X1202094D01*
Y-128609D01*
X1203406Y-129921D01*
X1211278D02*
X1208654D01*
X1207342Y-128609D01*
Y-125986D01*
X1208654Y-124674D01*
X1211278D01*
X1212589Y-125986D01*
Y-127297D01*
X1207342D01*
X1185039Y-161420D02*
Y-169291D01*
X1188975D01*
X1190287Y-167979D01*
Y-162732D01*
X1188975Y-161420D01*
X1185039D01*
X1194223Y-169291D02*
X1196847D01*
X1198158Y-167979D01*
Y-165356D01*
X1196847Y-164044D01*
X1194223D01*
X1192911Y-165356D01*
Y-167979D01*
X1194223Y-169291D01*
X1206030Y-164044D02*
X1202094D01*
X1200782Y-165356D01*
Y-167979D01*
X1202094Y-169291D01*
X1206030D01*
X1208654Y-164044D02*
Y-167979D01*
X1209966Y-169291D01*
X1213902D01*
Y-164044D01*
X1216525Y-169291D02*
Y-164044D01*
X1217837D01*
X1219149Y-165356D01*
Y-169291D01*
Y-165356D01*
X1220461Y-164044D01*
X1221773Y-165356D01*
Y-169291D01*
X1228333D02*
X1225709D01*
X1224397Y-167979D01*
Y-165356D01*
X1225709Y-164044D01*
X1228333D01*
X1229644Y-165356D01*
Y-166667D01*
X1224397D01*
X1232268Y-169291D02*
Y-164044D01*
X1236204D01*
X1237516Y-165356D01*
Y-169291D01*
X1241452Y-162732D02*
Y-164044D01*
X1240140D01*
X1242764D01*
X1241452D01*
Y-167979D01*
X1242764Y-169291D01*
D33*
X113712Y92323D02*
G03*
X113712Y92323I-1114J0D01*
G01*
X243937Y157785D02*
G03*
X220630Y157785I-11654J-4242D01*
G01*
Y149302D02*
G03*
X243937Y149302I11654J4242D01*
G01*
X203848Y165118D02*
G03*
X203848Y188425I-4242J11654D01*
G01*
X195365D02*
G03*
X195365Y165118I4242J-11654D01*
G01*
X185197Y44971D02*
G03*
X208504Y44971I11654J4242D01*
G01*
Y53454D02*
G03*
X185197Y53454I-11654J-4242D01*
G01*
X12500Y58661D02*
Y64567D01*
X2461Y58661D02*
Y64567D01*
X10728Y58661D02*
X12500D01*
X2461D02*
X4232D01*
X11693Y34213D02*
Y54213D01*
X1693D02*
X11693D01*
X1693Y34213D02*
Y54213D01*
Y34213D02*
X11693D01*
X114567Y90354D02*
Y139961D01*
X90158Y90354D02*
Y139961D01*
X114567D01*
X90158Y90354D02*
X114567D01*
X159055Y175984D02*
Y188189D01*
X151969Y175984D02*
Y188189D01*
Y175984D02*
X159055D01*
X151969Y188189D02*
X159055D01*
X75000Y185000D02*
Y195000D01*
X35000Y185000D02*
X75000D01*
X35000Y195000D02*
X75000D01*
X35000Y185000D02*
Y195000D01*
X218504Y69784D02*
Y71555D01*
Y61516D02*
Y63287D01*
Y71555D02*
X224409D01*
X218504Y61516D02*
X224409D01*
X233268Y182283D02*
X240354D01*
X233268Y170079D02*
X240354D01*
X233268D02*
Y182283D01*
X240354Y170079D02*
Y182283D01*
X216043Y171457D02*
X217815D01*
X224311D02*
X226083D01*
X216043D02*
Y177362D01*
X226083Y171457D02*
Y177362D01*
X224803Y20472D02*
Y21654D01*
X184646Y26378D02*
X187008D01*
Y21654D02*
Y26378D01*
X184646Y21654D02*
X187008D01*
X224803D02*
X227165D01*
Y26378D01*
X224803D02*
X227165D01*
X184646Y394D02*
Y29528D01*
Y394D02*
X224803D01*
X184646Y29528D02*
X224803D01*
Y394D02*
Y29528D01*
X165748Y20472D02*
Y21654D01*
X125591Y26378D02*
X127953D01*
Y21654D02*
Y26378D01*
X125591Y21654D02*
X127953D01*
X165748D02*
X168110D01*
Y26378D01*
X165748D02*
X168110D01*
X125591Y394D02*
Y29528D01*
Y394D02*
X165748D01*
X125591Y29528D02*
X165748D01*
Y394D02*
Y29528D01*
X79134Y20472D02*
Y21654D01*
X38976Y26378D02*
X41339D01*
Y21654D02*
Y26378D01*
X38976Y21654D02*
X41339D01*
X79134D02*
X81496D01*
Y26378D01*
X79134D02*
X81496D01*
X38976Y394D02*
Y29528D01*
Y394D02*
X79134D01*
X38976Y29528D02*
X79134D01*
Y394D02*
Y29528D01*
X5000Y185000D02*
X15000D01*
Y145000D02*
Y185000D01*
X5000Y145000D02*
Y185000D01*
Y145000D02*
X15000D01*
X255906Y208661D02*
G03*
X244094Y220472I-11811J0D01*
G01*
Y0D02*
G03*
X255906Y11811I0J11811D01*
G01*
X0D02*
G03*
X11811Y0I11811J0D01*
G01*
Y220472D02*
G03*
X0Y208661I0J-11811D01*
G01*
Y11811D02*
Y208661D01*
X11811Y0D02*
X244094D01*
X11811Y220472D02*
X244094D01*
X255906Y11811D02*
Y208661D01*
X1338583Y-157480D02*
Y-118110D01*
X1181102Y-78740D02*
X1456693D01*
X1181102Y-118110D02*
X1456693D01*
X984252Y-157480D02*
X1456693D01*
X984252Y-39370D02*
X1456693D01*
X984252Y-196850D02*
Y-39370D01*
X1181102Y-196850D02*
Y-39370D01*
X-196850Y972441D02*
X1456693D01*
Y-196850D02*
Y972441D01*
X-196850Y-196850D02*
Y972441D01*
Y-196850D02*
X1456693D01*
X1190945Y-188976D02*
Y-183073D01*
X1193897D01*
X1194881Y-184057D01*
Y-186025D01*
X1193897Y-187009D01*
X1190945D01*
X1192913D02*
X1194881Y-188976D01*
X1196848D02*
Y-183073D01*
X1199800D01*
X1200784Y-184057D01*
Y-186025D01*
X1199800Y-187009D01*
X1196848D01*
X1202752Y-183073D02*
X1204720D01*
X1203736D01*
Y-188976D01*
X1202752D01*
X1204720D01*
X1207672Y-189960D02*
X1211607D01*
X1213575Y-183073D02*
Y-188976D01*
Y-186025D01*
X1217511D01*
Y-183073D01*
Y-188976D01*
X1219479D02*
Y-185041D01*
X1221447Y-183073D01*
X1223415Y-185041D01*
Y-188976D01*
Y-186025D01*
X1219479D01*
X1225383Y-183073D02*
X1229318D01*
X1227350D01*
Y-188976D01*
X1231286Y-189960D02*
X1235222D01*
X1237190Y-188976D02*
Y-185041D01*
X1239158Y-183073D01*
X1241125Y-185041D01*
Y-188976D01*
Y-186025D01*
X1237190D01*
X1243093Y-188976D02*
Y-183073D01*
X1245061Y-185041D01*
X1247029Y-183073D01*
Y-188976D01*
X1248997D02*
Y-183073D01*
X1251949D01*
X1252933Y-184057D01*
Y-186025D01*
X1251949Y-187009D01*
X1248997D01*
X1254900Y-189960D02*
X1258836D01*
X1260804Y-183073D02*
X1264740D01*
X1262772D01*
Y-188976D01*
X1266708D02*
Y-185041D01*
X1268676Y-183073D01*
X1270644Y-185041D01*
Y-188976D01*
Y-186025D01*
X1266708D01*
X1276547Y-184057D02*
X1275563Y-183073D01*
X1273595D01*
X1272611Y-184057D01*
Y-185041D01*
X1273595Y-186025D01*
X1275563D01*
X1276547Y-187009D01*
Y-187993D01*
X1275563Y-188976D01*
X1273595D01*
X1272611Y-187993D01*
X1282451Y-183073D02*
X1278515D01*
Y-186025D01*
X1280483Y-185041D01*
X1281467D01*
X1282451Y-186025D01*
Y-187993D01*
X1281467Y-188976D01*
X1279499D01*
X1278515Y-187993D01*
X1284418Y-183073D02*
X1288354D01*
Y-184057D01*
X1284418Y-187993D01*
Y-188976D01*
X1294258Y-183073D02*
X1290322D01*
Y-186025D01*
X1292290Y-185041D01*
X1293274D01*
X1294258Y-186025D01*
Y-187993D01*
X1293274Y-188976D01*
X1291306D01*
X1290322Y-187993D01*
X1300161Y-183073D02*
X1298194Y-184057D01*
X1296226Y-186025D01*
Y-187993D01*
X1297210Y-188976D01*
X1299177D01*
X1300161Y-187993D01*
Y-187009D01*
X1299177Y-186025D01*
X1296226D01*
X1302129Y-189960D02*
X1306065D01*
X1308033Y-184057D02*
X1309017Y-183073D01*
X1310985D01*
X1311969Y-184057D01*
Y-187993D01*
X1310985Y-188976D01*
X1309017D01*
X1308033Y-187993D01*
Y-184057D01*
X1313937Y-188976D02*
X1315904D01*
X1314921D01*
Y-183073D01*
X1313937Y-184057D01*
X1318856Y-188976D02*
Y-187993D01*
X1319840D01*
Y-188976D01*
X1318856D01*
X1323776D02*
Y-183073D01*
X1326728D01*
X1327712Y-184057D01*
Y-186025D01*
X1326728Y-187009D01*
X1323776D01*
X1333615Y-185041D02*
X1330663D01*
X1329679Y-186025D01*
Y-187993D01*
X1330663Y-188976D01*
X1333615D01*
X1335583Y-183073D02*
Y-188976D01*
X1338535D01*
X1339519Y-187993D01*
Y-187009D01*
Y-186025D01*
X1338535Y-185041D01*
X1335583D01*
X1341487Y-183073D02*
Y-188976D01*
X1344438D01*
X1345422Y-187993D01*
Y-184057D01*
X1344438Y-183073D01*
X1341487D01*
X1348374Y-188976D02*
X1350342D01*
X1351326Y-187993D01*
Y-186025D01*
X1350342Y-185041D01*
X1348374D01*
X1347390Y-186025D01*
Y-187993D01*
X1348374Y-188976D01*
X1357230Y-185041D02*
X1354278D01*
X1353294Y-186025D01*
Y-187993D01*
X1354278Y-188976D01*
X1357230D01*
D34*
X192912Y51179D02*
X191928Y52163D01*
X189960D01*
X188976Y51179D01*
Y47244D01*
X189960Y46260D01*
X191928D01*
X192912Y47244D01*
X198816Y46260D02*
X194880D01*
X198816Y50196D01*
Y51179D01*
X197832Y52163D01*
X195864D01*
X194880Y51179D01*
X200784D02*
X201767Y52163D01*
X203735D01*
X204719Y51179D01*
Y47244D01*
X203735Y46260D01*
X201767D01*
X200784Y47244D01*
Y51179D01*
D35*
X95472Y122045D02*
Y115485D01*
X96784Y114173D01*
X99408D01*
X100720Y115485D01*
Y122045D01*
X108592Y114173D02*
X103344D01*
X108592Y119421D01*
Y120733D01*
X107280Y122045D01*
X104656D01*
X103344Y120733D01*
X198622Y11811D02*
Y19682D01*
X202558D01*
X203870Y18371D01*
Y15747D01*
X202558Y14435D01*
X198622D01*
X206493Y18371D02*
X207805Y19682D01*
X210429D01*
X211741Y18371D01*
Y17059D01*
X210429Y15747D01*
X209117D01*
X210429D01*
X211741Y14435D01*
Y13123D01*
X210429Y11811D01*
X207805D01*
X206493Y13123D01*
X139567Y11811D02*
Y19682D01*
X143503D01*
X144815Y18371D01*
Y15747D01*
X143503Y14435D01*
X139567D01*
X152686Y11811D02*
X147438D01*
X152686Y17059D01*
Y18371D01*
X151374Y19682D01*
X148750D01*
X147438Y18371D01*
X52953Y11811D02*
Y19682D01*
X56889D01*
X58200Y18371D01*
Y15747D01*
X56889Y14435D01*
X52953D01*
X60824Y11811D02*
X63448D01*
X62136D01*
Y19682D01*
X60824Y18371D01*
X218898Y118108D02*
Y111548D01*
X220210Y110236D01*
X222833D01*
X224145Y111548D01*
Y118108D01*
X226769Y116796D02*
X228081Y118108D01*
X230705D01*
X232017Y116796D01*
Y115484D01*
X230705Y114172D01*
X229393D01*
X230705D01*
X232017Y112860D01*
Y111548D01*
X230705Y110236D01*
X228081D01*
X226769Y111548D01*
X1202756Y-110236D02*
Y-101053D01*
X1207348Y-96461D01*
X1211939Y-101053D01*
Y-110236D01*
Y-103349D01*
X1202756D01*
X1216531Y-110236D02*
X1223419D01*
X1225714Y-107940D01*
X1223419Y-105645D01*
X1218827D01*
X1216531Y-103349D01*
X1218827Y-101053D01*
X1225714D01*
X1230306Y-110236D02*
X1237194D01*
X1239489Y-107940D01*
X1237194Y-105645D01*
X1232602D01*
X1230306Y-103349D01*
X1232602Y-101053D01*
X1239489D01*
X1250969Y-110236D02*
X1246377D01*
X1244081Y-107940D01*
Y-103349D01*
X1246377Y-101053D01*
X1250969D01*
X1253265Y-103349D01*
Y-105645D01*
X1244081D01*
X1257856Y-110236D02*
Y-101053D01*
X1260152D01*
X1262448Y-103349D01*
Y-110236D01*
Y-103349D01*
X1264744Y-101053D01*
X1267040Y-103349D01*
Y-110236D01*
X1271631Y-96461D02*
Y-110236D01*
X1278519D01*
X1280815Y-107940D01*
Y-105645D01*
Y-103349D01*
X1278519Y-101053D01*
X1271631D01*
X1285406Y-110236D02*
X1289998D01*
X1287702D01*
Y-96461D01*
X1285406D01*
X1296886Y-101053D02*
Y-107940D01*
X1299181Y-110236D01*
X1306069D01*
Y-112532D01*
X1303773Y-114828D01*
X1301477D01*
X1306069Y-110236D02*
Y-101053D01*
X1324436Y-96461D02*
X1333619D01*
X1329027D01*
Y-110236D01*
X1340507D02*
X1345098D01*
X1347394Y-107940D01*
Y-103349D01*
X1345098Y-101053D01*
X1340507D01*
X1338211Y-103349D01*
Y-107940D01*
X1340507Y-110236D01*
X1351986Y-114828D02*
Y-101053D01*
X1358873D01*
X1361169Y-103349D01*
Y-107940D01*
X1358873Y-110236D01*
X1351986D01*
X68898Y70864D02*
Y62992D01*
X74145D01*
X76769D02*
X79393D01*
X78081D01*
Y70864D01*
X76769Y69552D01*
X39370Y58068D02*
Y50197D01*
X44618D01*
X52489D02*
X47242D01*
X52489Y55445D01*
Y56756D01*
X51177Y58068D01*
X48553D01*
X47242Y56756D01*
X151575Y57084D02*
Y49213D01*
X156823D01*
X159446Y55772D02*
X160758Y57084D01*
X163382D01*
X164694Y55772D01*
Y54460D01*
X163382Y53148D01*
X162070D01*
X163382D01*
X164694Y51836D01*
Y50524D01*
X163382Y49213D01*
X160758D01*
X159446Y50524D01*
X124016Y70864D02*
Y62992D01*
X129263D01*
X135823D02*
Y70864D01*
X131887Y66928D01*
X137135D01*
X1005906Y-175202D02*
Y-190945D01*
X1011153Y-185697D01*
X1016401Y-190945D01*
Y-175202D01*
X1021649Y-190945D02*
X1026896D01*
X1024272D01*
Y-180450D01*
X1021649D01*
X1034768Y-190945D02*
Y-180450D01*
X1037391D01*
X1040015Y-183073D01*
Y-190945D01*
Y-183073D01*
X1042639Y-180450D01*
X1045263Y-183073D01*
Y-190945D01*
X1050511Y-175202D02*
Y-185697D01*
X1055758Y-190945D01*
X1061006Y-185697D01*
Y-175202D01*
X1076749Y-177826D02*
X1074125Y-175202D01*
X1068877D01*
X1066253Y-177826D01*
Y-188321D01*
X1068877Y-190945D01*
X1074125D01*
X1076749Y-188321D01*
Y-183073D01*
X1071501D01*
X1360236Y-138456D02*
X1362860Y-135832D01*
X1368108D01*
X1370732Y-138456D01*
Y-148951D01*
X1368108Y-151575D01*
X1362860D01*
X1360236Y-148951D01*
Y-138456D01*
X1375979Y-151575D02*
X1381227D01*
X1378603D01*
Y-135832D01*
X1375979Y-138456D01*
X1206034Y-151575D02*
X1196850D01*
X1206034Y-142391D01*
Y-140096D01*
X1203738Y-137800D01*
X1199146D01*
X1196850Y-140096D01*
X1210625Y-149279D02*
X1212921Y-151575D01*
X1217513D01*
X1219809Y-149279D01*
Y-140096D01*
X1217513Y-137800D01*
X1212921D01*
X1210625Y-140096D01*
Y-142391D01*
X1212921Y-144687D01*
X1219809D01*
X1224401Y-151575D02*
X1233584Y-142391D01*
X1238176Y-140096D02*
X1240471Y-137800D01*
X1245063D01*
X1247359Y-140096D01*
Y-149279D01*
X1245063Y-151575D01*
X1240471D01*
X1238176Y-149279D01*
Y-140096D01*
X1251951D02*
X1254247Y-137800D01*
X1258838D01*
X1261134Y-140096D01*
Y-142391D01*
X1258838Y-144687D01*
X1261134Y-146983D01*
Y-149279D01*
X1258838Y-151575D01*
X1254247D01*
X1251951Y-149279D01*
Y-146983D01*
X1254247Y-144687D01*
X1251951Y-142391D01*
Y-140096D01*
X1254247Y-144687D02*
X1258838D01*
X1265726Y-151575D02*
X1274909Y-142391D01*
X1288684Y-151575D02*
X1279501D01*
X1288684Y-142391D01*
Y-140096D01*
X1286388Y-137800D01*
X1281797D01*
X1279501Y-140096D01*
X1293276D02*
X1295572Y-137800D01*
X1300163D01*
X1302459Y-140096D01*
Y-149279D01*
X1300163Y-151575D01*
X1295572D01*
X1293276Y-149279D01*
Y-140096D01*
X1307051Y-151575D02*
X1311643D01*
X1309347D01*
Y-137800D01*
X1307051Y-140096D01*
X1327714Y-137800D02*
X1318530D01*
Y-144687D01*
X1323122Y-142391D01*
X1325418D01*
X1327714Y-144687D01*
Y-149279D01*
X1325418Y-151575D01*
X1320826D01*
X1318530Y-149279D01*
X1190945Y-57092D02*
X1201440D01*
X1196192D01*
Y-72835D01*
X1206688D02*
Y-62339D01*
X1211936Y-57092D01*
X1217183Y-62339D01*
Y-72835D01*
Y-64963D01*
X1206688D01*
X1232926Y-59715D02*
X1230302Y-57092D01*
X1225055D01*
X1222431Y-59715D01*
Y-62339D01*
X1225055Y-64963D01*
X1230302D01*
X1232926Y-67587D01*
Y-70211D01*
X1230302Y-72835D01*
X1225055D01*
X1222431Y-70211D01*
X1248669Y-57092D02*
X1238174D01*
Y-64963D01*
X1243421Y-62339D01*
X1246045D01*
X1248669Y-64963D01*
Y-70211D01*
X1246045Y-72835D01*
X1240798D01*
X1238174Y-70211D01*
X1253917Y-57092D02*
X1264412D01*
Y-59715D01*
X1253917Y-70211D01*
Y-72835D01*
X1280155Y-57092D02*
X1269660D01*
Y-64963D01*
X1274907Y-62339D01*
X1277531D01*
X1280155Y-64963D01*
Y-70211D01*
X1277531Y-72835D01*
X1272283D01*
X1269660Y-70211D01*
X1295898Y-57092D02*
X1290650Y-59715D01*
X1285402Y-64963D01*
Y-70211D01*
X1288026Y-72835D01*
X1293274D01*
X1295898Y-70211D01*
Y-67587D01*
X1293274Y-64963D01*
X1285402D01*
X1316888Y-57092D02*
Y-72835D01*
Y-64963D01*
X1327384D01*
Y-57092D01*
Y-72835D01*
X1332631D02*
Y-62339D01*
X1337879Y-57092D01*
X1343127Y-62339D01*
Y-72835D01*
Y-64963D01*
X1332631D01*
X1348374Y-57092D02*
X1358870D01*
X1353622D01*
Y-72835D01*
D36*
X110139Y76377D02*
X109647Y75885D01*
Y74901D01*
X110139Y74410D01*
X112106D01*
X112598Y74901D01*
Y75885D01*
X112106Y76377D01*
X110139Y77361D02*
X109647Y77853D01*
Y78837D01*
X110139Y79329D01*
X110631D01*
X111123Y78837D01*
Y78345D01*
Y78837D01*
X111615Y79329D01*
X112106D01*
X112598Y78837D01*
Y77853D01*
X112106Y77361D01*
X109647Y80313D02*
Y82281D01*
X110139D01*
X112106Y80313D01*
X112598D01*
X5118Y63582D02*
X7086D01*
X6102D01*
Y60630D01*
X8070Y63090D02*
X8562Y63582D01*
X9546D01*
X10038Y63090D01*
Y62598D01*
X9546Y62106D01*
X9054D01*
X9546D01*
X10038Y61614D01*
Y61122D01*
X9546Y60630D01*
X8562D01*
X8070Y61122D01*
X248721Y77952D02*
X248229Y77460D01*
Y76476D01*
X248721Y75984D01*
X250689D01*
X251181Y76476D01*
Y77460D01*
X250689Y77952D01*
X248721Y78936D02*
X248229Y79428D01*
Y80412D01*
X248721Y80904D01*
X249213D01*
X249705Y80412D01*
Y79920D01*
Y80412D01*
X250197Y80904D01*
X250689D01*
X251181Y80412D01*
Y79428D01*
X250689Y78936D01*
X251181Y81888D02*
Y82872D01*
Y82380D01*
X248229D01*
X248721Y81888D01*
X158564Y107480D02*
X158072Y106988D01*
Y106004D01*
X158564Y105512D01*
X160532D01*
X161024Y106004D01*
Y106988D01*
X160532Y107480D01*
X158564Y108464D02*
X158072Y108956D01*
Y109940D01*
X158564Y110432D01*
X159056D01*
X159548Y109940D01*
Y109448D01*
Y109940D01*
X160040Y110432D01*
X160532D01*
X161024Y109940D01*
Y108956D01*
X160532Y108464D01*
X161024Y113383D02*
Y111415D01*
X159056Y113383D01*
X158564D01*
X158072Y112891D01*
Y111907D01*
X158564Y111415D01*
X137402Y106299D02*
Y109251D01*
X138877D01*
X139369Y108759D01*
Y107775D01*
X138877Y107283D01*
X137402D01*
X138385D02*
X139369Y106299D01*
X140353D02*
X141337D01*
X140845D01*
Y109251D01*
X140353Y108759D01*
X142813D02*
X143305Y109251D01*
X144289D01*
X144781Y108759D01*
Y108267D01*
X144289Y107775D01*
X143797D01*
X144289D01*
X144781Y107283D01*
Y106791D01*
X144289Y106299D01*
X143305D01*
X142813Y106791D01*
X168406Y107480D02*
X167914Y106988D01*
Y106004D01*
X168406Y105512D01*
X170374D01*
X170866Y106004D01*
Y106988D01*
X170374Y107480D01*
X168406Y108464D02*
X167914Y108956D01*
Y109940D01*
X168406Y110432D01*
X168898D01*
X169390Y109940D01*
Y109448D01*
Y109940D01*
X169882Y110432D01*
X170374D01*
X170866Y109940D01*
Y108956D01*
X170374Y108464D01*
X168406Y111415D02*
X167914Y111907D01*
Y112891D01*
X168406Y113383D01*
X168898D01*
X169390Y112891D01*
Y112399D01*
Y112891D01*
X169882Y113383D01*
X170374D01*
X170866Y112891D01*
Y111907D01*
X170374Y111415D01*
X7874Y41732D02*
X4922D01*
Y43208D01*
X5414Y43700D01*
X6398D01*
X6890Y43208D01*
Y41732D01*
X4922Y46652D02*
X5414Y45668D01*
X6398Y44684D01*
X7382D01*
X7874Y45176D01*
Y46160D01*
X7382Y46652D01*
X6890D01*
X6398Y46160D01*
Y44684D01*
X18110Y70472D02*
X15158D01*
Y71948D01*
X15650Y72440D01*
X16634D01*
X17126Y71948D01*
Y70472D01*
Y71456D02*
X18110Y72440D01*
Y73424D02*
Y74408D01*
Y73916D01*
X15158D01*
X15650Y73424D01*
X15158Y77852D02*
X15650Y76868D01*
X16634Y75884D01*
X17618D01*
X18110Y76376D01*
Y77360D01*
X17618Y77852D01*
X17126D01*
X16634Y77360D01*
Y75884D01*
X24409Y56693D02*
Y59645D01*
X25885D01*
X26377Y59153D01*
Y58169D01*
X25885Y57677D01*
X24409D01*
X25393D02*
X26377Y56693D01*
X27361D02*
X28345D01*
X27853D01*
Y59645D01*
X27361Y59153D01*
X31789Y59645D02*
X29821D01*
Y58169D01*
X30805Y58661D01*
X31297D01*
X31789Y58169D01*
Y57185D01*
X31297Y56693D01*
X30313D01*
X29821Y57185D01*
X12993Y33465D02*
X16142D01*
Y35039D01*
X15617Y35564D01*
X13518D01*
X12993Y35039D01*
Y33465D01*
X16142Y38712D02*
Y36613D01*
X14043Y38712D01*
X13518D01*
X12993Y38188D01*
Y37138D01*
X13518Y36613D01*
X24803Y50787D02*
Y53739D01*
X26279D01*
X26771Y53247D01*
Y52263D01*
X26279Y51771D01*
X24803D01*
X25787D02*
X26771Y50787D01*
X27755D02*
X28739D01*
X28247D01*
Y53739D01*
X27755Y53247D01*
X31691Y50787D02*
Y53739D01*
X30215Y52263D01*
X32183D01*
X24409Y70472D02*
X21458D01*
Y71948D01*
X21950Y72440D01*
X22933D01*
X23426Y71948D01*
Y70472D01*
Y71456D02*
X24409Y72440D01*
Y73424D02*
Y74408D01*
Y73916D01*
X21458D01*
X21950Y73424D01*
X21458Y75884D02*
Y77852D01*
X21950D01*
X23918Y75884D01*
X24409D01*
X13386Y46457D02*
Y49409D01*
X14862D01*
X15354Y48917D01*
Y47933D01*
X14862Y47441D01*
X13386D01*
X14370D02*
X15354Y46457D01*
X16338D02*
X17322D01*
X16830D01*
Y49409D01*
X16338Y48917D01*
X20765Y46457D02*
X18798D01*
X20765Y48425D01*
Y48917D01*
X20273Y49409D01*
X19289D01*
X18798Y48917D01*
X22441Y35433D02*
Y38385D01*
X23917D01*
X24409Y37893D01*
Y36909D01*
X23917Y36417D01*
X22441D01*
X23425D02*
X24409Y35433D01*
X25393D02*
X26377D01*
X25885D01*
Y38385D01*
X25393Y37893D01*
X27853Y35433D02*
X28837D01*
X28345D01*
Y38385D01*
X27853Y37893D01*
X174213Y175197D02*
Y178149D01*
X175689D01*
X176181Y177657D01*
Y176673D01*
X175689Y176181D01*
X174213D01*
X175197D02*
X176181Y175197D01*
X177164D02*
X178148D01*
X177656D01*
Y178149D01*
X177164Y177657D01*
X174213Y185039D02*
Y187991D01*
X175689D01*
X176181Y187499D01*
Y186515D01*
X175689Y186023D01*
X174213D01*
X175197D02*
X176181Y185039D01*
X179132D02*
X177164D01*
X179132Y187007D01*
Y187499D01*
X178640Y187991D01*
X177656D01*
X177164Y187499D01*
X150000Y179921D02*
X147048D01*
Y181397D01*
X147540Y181889D01*
X148524D01*
X149016Y181397D01*
Y179921D01*
Y180905D02*
X150000Y181889D01*
X147540Y182873D02*
X147048Y183365D01*
Y184349D01*
X147540Y184841D01*
X148032D01*
X148524Y184349D01*
Y183857D01*
Y184349D01*
X149016Y184841D01*
X149508D01*
X150000Y184349D01*
Y183365D01*
X149508Y182873D01*
X154528Y179528D02*
X156988D01*
X157480Y180019D01*
Y181003D01*
X156988Y181495D01*
X154528D01*
X157480Y182479D02*
Y183463D01*
Y182971D01*
X154528D01*
X155020Y182479D01*
X157480Y193798D02*
X156988Y194290D01*
X156004D01*
X155512Y193798D01*
Y191831D01*
X156004Y191339D01*
X156988D01*
X157480Y191831D01*
X158464Y191339D02*
X159448D01*
X158956D01*
Y194290D01*
X158464Y193798D01*
X52756Y188583D02*
Y191534D01*
X54232D01*
X54724Y191042D01*
Y190059D01*
X54232Y189567D01*
X52756D01*
X57184Y188583D02*
Y191534D01*
X55708Y190059D01*
X57676D01*
X229921Y154035D02*
X229429Y154527D01*
X228445D01*
X227953Y154035D01*
Y152067D01*
X228445Y151575D01*
X229429D01*
X229921Y152067D01*
X230905Y154035D02*
X231397Y154527D01*
X232381D01*
X232872Y154035D01*
Y153543D01*
X232381Y153051D01*
X231889D01*
X232381D01*
X232872Y152559D01*
Y152067D01*
X232381Y151575D01*
X231397D01*
X230905Y152067D01*
X233856Y154035D02*
X234348Y154527D01*
X235332D01*
X235824Y154035D01*
Y152067D01*
X235332Y151575D01*
X234348D01*
X233856Y152067D01*
Y154035D01*
X197637Y177657D02*
X197145Y178149D01*
X196161D01*
X195669Y177657D01*
Y175689D01*
X196161Y175197D01*
X197145D01*
X197637Y175689D01*
X198621Y177657D02*
X199113Y178149D01*
X200097D01*
X200589Y177657D01*
Y177165D01*
X200097Y176673D01*
X199605D01*
X200097D01*
X200589Y176181D01*
Y175689D01*
X200097Y175197D01*
X199113D01*
X198621Y175689D01*
X203541Y178149D02*
X202557Y177657D01*
X201573Y176673D01*
Y175689D01*
X202065Y175197D01*
X203049D01*
X203541Y175689D01*
Y176181D01*
X203049Y176673D01*
X201573D01*
X51312Y117275D02*
X50820Y116783D01*
Y115799D01*
X51312Y115307D01*
X53280D01*
X53772Y115799D01*
Y116783D01*
X53280Y117275D01*
X51312Y118259D02*
X50820Y118751D01*
Y119735D01*
X51312Y120227D01*
X51804D01*
X52296Y119735D01*
Y119243D01*
Y119735D01*
X52788Y120227D01*
X53280D01*
X53772Y119735D01*
Y118751D01*
X53280Y118259D01*
X53772Y122687D02*
X50820D01*
X52296Y121211D01*
Y123179D01*
X41469Y117275D02*
X40977Y116783D01*
Y115799D01*
X41469Y115307D01*
X43437D01*
X43929Y115799D01*
Y116783D01*
X43437Y117275D01*
X41469Y118259D02*
X40977Y118751D01*
Y119735D01*
X41469Y120227D01*
X41961D01*
X42453Y119735D01*
Y119243D01*
Y119735D01*
X42945Y120227D01*
X43437D01*
X43929Y119735D01*
Y118751D01*
X43437Y118259D01*
X40977Y123179D02*
Y121211D01*
X42453D01*
X41961Y122195D01*
Y122687D01*
X42453Y123179D01*
X43437D01*
X43929Y122687D01*
Y121703D01*
X43437Y121211D01*
X165650Y90551D02*
X165158Y90059D01*
Y89075D01*
X165650Y88583D01*
X167618D01*
X168110Y89075D01*
Y90059D01*
X167618Y90551D01*
X165650Y91535D02*
X165158Y92027D01*
Y93010D01*
X165650Y93502D01*
X166142D01*
X166634Y93010D01*
X167126Y93502D01*
X167618D01*
X168110Y93010D01*
Y92027D01*
X167618Y91535D01*
X167126D01*
X166634Y92027D01*
X166142Y91535D01*
X165650D01*
X166634Y92027D02*
Y93010D01*
X51280Y96456D02*
X50788Y95964D01*
Y94980D01*
X51280Y94488D01*
X53248D01*
X53740Y94980D01*
Y95964D01*
X53248Y96456D01*
X50788Y97440D02*
Y99408D01*
X51280D01*
X53248Y97440D01*
X53740D01*
X155808Y90551D02*
X155316Y90059D01*
Y89075D01*
X155808Y88583D01*
X157776D01*
X158268Y89075D01*
Y90059D01*
X157776Y90551D01*
X155316Y93502D02*
X155808Y92518D01*
X156792Y91535D01*
X157776D01*
X158268Y92027D01*
Y93010D01*
X157776Y93502D01*
X157284D01*
X156792Y93010D01*
Y91535D01*
X41438Y96456D02*
X40946Y95964D01*
Y94980D01*
X41438Y94488D01*
X43406D01*
X43898Y94980D01*
Y95964D01*
X43406Y96456D01*
X40946Y99408D02*
Y97440D01*
X42422D01*
X41930Y98424D01*
Y98916D01*
X42422Y99408D01*
X43406D01*
X43898Y98916D01*
Y97932D01*
X43406Y97440D01*
X221261Y64567D02*
X224213D01*
Y66043D01*
X223721Y66535D01*
X221753D01*
X221261Y66043D01*
Y64567D01*
X224213Y67519D02*
Y68503D01*
Y68011D01*
X221261D01*
X221753Y67519D01*
X235237Y172244D02*
Y174212D01*
Y173228D01*
X238189D01*
Y177164D02*
Y175196D01*
X236221Y177164D01*
X235729D01*
X235237Y176672D01*
Y175688D01*
X235729Y175196D01*
X218504Y176180D02*
X220472D01*
X219488D01*
Y173228D01*
X221456D02*
X222440D01*
X221948D01*
Y176180D01*
X221456Y175688D01*
X147934Y142322D02*
X147442Y141830D01*
Y140846D01*
X147934Y140354D01*
X149902D01*
X150394Y140846D01*
Y141830D01*
X149902Y142322D01*
Y143306D02*
X150394Y143798D01*
Y144782D01*
X149902Y145274D01*
X147934D01*
X147442Y144782D01*
Y143798D01*
X147934Y143306D01*
X148426D01*
X148918Y143798D01*
Y145274D01*
X80708Y130413D02*
X80216Y130905D01*
X79232D01*
X78740Y130413D01*
Y128445D01*
X79232Y127953D01*
X80216D01*
X80708Y128445D01*
X81692Y127953D02*
X82676D01*
X82184D01*
Y130905D01*
X81692Y130413D01*
X84152D02*
X84644Y130905D01*
X85628D01*
X86120Y130413D01*
Y128445D01*
X85628Y127953D01*
X84644D01*
X84152Y128445D01*
Y130413D01*
X128446Y125787D02*
X127954Y125295D01*
Y124311D01*
X128446Y123819D01*
X130413D01*
X130905Y124311D01*
Y125295D01*
X130413Y125787D01*
X130905Y126771D02*
Y127755D01*
Y127263D01*
X127954D01*
X128446Y126771D01*
X130905Y129230D02*
Y130215D01*
Y129722D01*
X127954D01*
X128446Y129230D01*
X80708Y124507D02*
X80216Y124999D01*
X79232D01*
X78740Y124507D01*
Y122539D01*
X79232Y122047D01*
X80216D01*
X80708Y122539D01*
X81692Y122047D02*
X82676D01*
X82184D01*
Y124999D01*
X81692Y124507D01*
X86120Y122047D02*
X84152D01*
X86120Y124015D01*
Y124507D01*
X85628Y124999D01*
X84644D01*
X84152Y124507D01*
X80708Y118602D02*
X80216Y119094D01*
X79232D01*
X78740Y118602D01*
Y116634D01*
X79232Y116142D01*
X80216D01*
X80708Y116634D01*
X81692Y116142D02*
X82676D01*
X82184D01*
Y119094D01*
X81692Y118602D01*
X84152D02*
X84644Y119094D01*
X85628D01*
X86120Y118602D01*
Y118110D01*
X85628Y117618D01*
X85136D01*
X85628D01*
X86120Y117126D01*
Y116634D01*
X85628Y116142D01*
X84644D01*
X84152Y116634D01*
X80708Y136318D02*
X80216Y136810D01*
X79232D01*
X78740Y136318D01*
Y134350D01*
X79232Y133858D01*
X80216D01*
X80708Y134350D01*
X81692Y133858D02*
X82676D01*
X82184D01*
Y136810D01*
X81692Y136318D01*
X86120Y136810D02*
X85136Y136318D01*
X84152Y135334D01*
Y134350D01*
X84644Y133858D01*
X85628D01*
X86120Y134350D01*
Y134842D01*
X85628Y135334D01*
X84152D01*
X68406Y97440D02*
X67914Y96948D01*
Y95964D01*
X68406Y95472D01*
X70374D01*
X70866Y95964D01*
Y96948D01*
X70374Y97440D01*
X68406Y98424D02*
X67914Y98916D01*
Y99900D01*
X68406Y100392D01*
X68898D01*
X69390Y99900D01*
Y99408D01*
Y99900D01*
X69882Y100392D01*
X70374D01*
X70866Y99900D01*
Y98916D01*
X70374Y98424D01*
X144391Y99212D02*
X143899Y98720D01*
Y97736D01*
X144391Y97244D01*
X146358D01*
X146850Y97736D01*
Y98720D01*
X146358Y99212D01*
X146850Y101672D02*
X143899D01*
X145375Y100196D01*
Y102164D01*
X131102Y120964D02*
X130610Y121456D01*
X129626D01*
X129134Y120964D01*
Y118996D01*
X129626Y118504D01*
X130610D01*
X131102Y118996D01*
X132086Y118504D02*
X133070D01*
X132578D01*
Y121456D01*
X132086Y120964D01*
X136021Y118504D02*
Y121456D01*
X134546Y119980D01*
X136513D01*
X119684Y114271D02*
X119192Y114763D01*
X118209D01*
X117717Y114271D01*
Y112303D01*
X118209Y111811D01*
X119192D01*
X119684Y112303D01*
X120668Y111811D02*
X121652D01*
X121160D01*
Y114763D01*
X120668Y114271D01*
X125096Y114763D02*
X123128D01*
Y113287D01*
X124112Y113779D01*
X124604D01*
X125096Y113287D01*
Y112303D01*
X124604Y111811D01*
X123620D01*
X123128Y112303D01*
X62501Y124999D02*
X62009Y124507D01*
Y123523D01*
X62501Y123031D01*
X64469D01*
X64961Y123523D01*
Y124507D01*
X64469Y124999D01*
X64961Y125983D02*
Y126967D01*
Y126475D01*
X62009D01*
X62501Y125983D01*
Y128443D02*
X62009Y128935D01*
Y129919D01*
X62501Y130411D01*
X62993D01*
X63485Y129919D01*
X63977Y130411D01*
X64469D01*
X64961Y129919D01*
Y128935D01*
X64469Y128443D01*
X63977D01*
X63485Y128935D01*
X62993Y128443D01*
X62501D01*
X63485Y128935D02*
Y129919D01*
X80708Y110728D02*
X80216Y111220D01*
X79232D01*
X78740Y110728D01*
Y108760D01*
X79232Y108268D01*
X80216D01*
X80708Y108760D01*
X81692Y108268D02*
X82676D01*
X82184D01*
Y111220D01*
X81692Y110728D01*
X84152Y108760D02*
X84644Y108268D01*
X85628D01*
X86120Y108760D01*
Y110728D01*
X85628Y111220D01*
X84644D01*
X84152Y110728D01*
Y110236D01*
X84644Y109744D01*
X86120D01*
X193209Y70078D02*
X192718Y69586D01*
Y68602D01*
X193209Y68110D01*
X195177D01*
X195669Y68602D01*
Y69586D01*
X195177Y70078D01*
X195669Y73030D02*
Y71062D01*
X193701Y73030D01*
X193209D01*
X192718Y72538D01*
Y71554D01*
X193209Y71062D01*
X195669Y74014D02*
Y74998D01*
Y74506D01*
X192718D01*
X193209Y74014D01*
X153839Y121259D02*
X153347Y120767D01*
Y119783D01*
X153839Y119291D01*
X155807D01*
X156299Y119783D01*
Y120767D01*
X155807Y121259D01*
X156299Y124211D02*
Y122243D01*
X154331Y124211D01*
X153839D01*
X153347Y123719D01*
Y122735D01*
X153839Y122243D01*
X120078Y90058D02*
X119586Y90550D01*
X118602D01*
X118110Y90058D01*
Y88090D01*
X118602Y87598D01*
X119586D01*
X120078Y88090D01*
X121062Y87598D02*
X122046D01*
X121554D01*
Y90550D01*
X121062Y90058D01*
X123522Y90550D02*
X125490D01*
Y90058D01*
X123522Y88090D01*
Y87598D01*
X135335Y83661D02*
X134844Y83169D01*
Y82185D01*
X135335Y81693D01*
X137303D01*
X137795Y82185D01*
Y83169D01*
X137303Y83661D01*
X137795Y86613D02*
Y84645D01*
X135827Y86613D01*
X135335D01*
X134844Y86121D01*
Y85137D01*
X135335Y84645D01*
X137795Y89564D02*
Y87596D01*
X135827Y89564D01*
X135335D01*
X134844Y89072D01*
Y88089D01*
X135335Y87596D01*
X90551Y84153D02*
X90059Y84645D01*
X89075D01*
X88583Y84153D01*
Y82185D01*
X89075Y81693D01*
X90059D01*
X90551Y82185D01*
X93502Y81693D02*
X91535D01*
X93502Y83661D01*
Y84153D01*
X93010Y84645D01*
X92027D01*
X91535Y84153D01*
X94486D02*
X94978Y84645D01*
X95962D01*
X96454Y84153D01*
Y83661D01*
X95962Y83169D01*
X95470D01*
X95962D01*
X96454Y82677D01*
Y82185D01*
X95962Y81693D01*
X94978D01*
X94486Y82185D01*
X68406Y84645D02*
X67914Y84153D01*
Y83169D01*
X68406Y82677D01*
X70374D01*
X70866Y83169D01*
Y84153D01*
X70374Y84645D01*
X70866Y87597D02*
Y85629D01*
X68898Y87597D01*
X68406D01*
X67914Y87105D01*
Y86121D01*
X68406Y85629D01*
X70866Y90057D02*
X67914D01*
X69390Y88581D01*
Y90549D01*
X84645Y35924D02*
X84153Y36416D01*
X83169D01*
X82677Y35924D01*
Y33957D01*
X83169Y33465D01*
X84153D01*
X84645Y33957D01*
X87597Y33465D02*
X85629D01*
X87597Y35432D01*
Y35924D01*
X87105Y36416D01*
X86121D01*
X85629Y35924D01*
X90549Y36416D02*
X88581D01*
Y34940D01*
X89565Y35432D01*
X90057D01*
X90549Y34940D01*
Y33957D01*
X90057Y33465D01*
X89073D01*
X88581Y33957D01*
X49212Y35924D02*
X48720Y36416D01*
X47736D01*
X47244Y35924D01*
Y33957D01*
X47736Y33465D01*
X48720D01*
X49212Y33957D01*
X52164Y33465D02*
X50196D01*
X52164Y35432D01*
Y35924D01*
X51672Y36416D01*
X50688D01*
X50196Y35924D01*
X55116Y36416D02*
X54132Y35924D01*
X53148Y34940D01*
Y33957D01*
X53640Y33465D01*
X54624D01*
X55116Y33957D01*
Y34449D01*
X54624Y34940D01*
X53148D01*
X170275Y35924D02*
X169783Y36416D01*
X168799D01*
X168307Y35924D01*
Y33957D01*
X168799Y33465D01*
X169783D01*
X170275Y33957D01*
X173227Y33465D02*
X171259D01*
X173227Y35432D01*
Y35924D01*
X172735Y36416D01*
X171751D01*
X171259Y35924D01*
X174211Y36416D02*
X176179D01*
Y35924D01*
X174211Y33957D01*
Y33465D01*
X135826Y35924D02*
X135334Y36416D01*
X134350D01*
X133858Y35924D01*
Y33957D01*
X134350Y33465D01*
X135334D01*
X135826Y33957D01*
X138778Y33465D02*
X136810D01*
X138778Y35432D01*
Y35924D01*
X138286Y36416D01*
X137302D01*
X136810Y35924D01*
X139762D02*
X140254Y36416D01*
X141238D01*
X141730Y35924D01*
Y35432D01*
X141238Y34940D01*
X141730Y34449D01*
Y33957D01*
X141238Y33465D01*
X140254D01*
X139762Y33957D01*
Y34449D01*
X140254Y34940D01*
X139762Y35432D01*
Y35924D01*
X140254Y34940D02*
X141238D01*
X239272Y60236D02*
X238780Y59744D01*
Y58760D01*
X239272Y58268D01*
X241240D01*
X241732Y58760D01*
Y59744D01*
X241240Y60236D01*
X241732Y63187D02*
Y61220D01*
X239764Y63187D01*
X239272D01*
X238780Y62695D01*
Y61712D01*
X239272Y61220D01*
X241240Y64171D02*
X241732Y64663D01*
Y65647D01*
X241240Y66139D01*
X239272D01*
X238780Y65647D01*
Y64663D01*
X239272Y64171D01*
X239764D01*
X240256Y64663D01*
Y66139D01*
X139962Y135432D02*
Y133465D01*
X141437D01*
Y134449D01*
Y133465D01*
X142913D01*
Y136416D02*
Y137400D01*
Y136908D01*
X139962D01*
X140454Y136416D01*
X153937Y100787D02*
X150985D01*
Y102263D01*
X151477Y102755D01*
X152461D01*
X152953Y102263D01*
Y100787D01*
Y101771D02*
X153937Y102755D01*
Y105215D02*
X150985D01*
X152461Y103739D01*
Y105707D01*
X247047Y172244D02*
X244095D01*
Y173720D01*
X244587Y174212D01*
X245571D01*
X246063Y173720D01*
Y172244D01*
Y173228D02*
X247047Y174212D01*
X244095Y177164D02*
Y175196D01*
X245571D01*
X245079Y176180D01*
Y176672D01*
X245571Y177164D01*
X246555D01*
X247047Y176672D01*
Y175688D01*
X246555Y175196D01*
X239764Y185039D02*
Y187991D01*
X241240D01*
X241732Y187499D01*
Y186515D01*
X241240Y186023D01*
X239764D01*
X240748D02*
X241732Y185039D01*
X244683Y187991D02*
X243700Y187499D01*
X242716Y186515D01*
Y185531D01*
X243208Y185039D01*
X244192D01*
X244683Y185531D01*
Y186023D01*
X244192Y186515D01*
X242716D01*
X235827Y60236D02*
X232875D01*
Y61712D01*
X233367Y62204D01*
X234351D01*
X234843Y61712D01*
Y60236D01*
Y61220D02*
X235827Y62204D01*
X232875Y63188D02*
Y65156D01*
X233367D01*
X235335Y63188D01*
X235827D01*
X222835Y79134D02*
Y82086D01*
X224311D01*
X224802Y81594D01*
Y80610D01*
X224311Y80118D01*
X222835D01*
X223819D02*
X224802Y79134D01*
X225786Y81594D02*
X226278Y82086D01*
X227262D01*
X227754Y81594D01*
Y81102D01*
X227262Y80610D01*
X227754Y80118D01*
Y79626D01*
X227262Y79134D01*
X226278D01*
X225786Y79626D01*
Y80118D01*
X226278Y80610D01*
X225786Y81102D01*
Y81594D01*
X226278Y80610D02*
X227262D01*
X207087Y63779D02*
Y66731D01*
X208562D01*
X209054Y66239D01*
Y65255D01*
X208562Y64763D01*
X207087D01*
X208071D02*
X209054Y63779D01*
X210038Y64271D02*
X210530Y63779D01*
X211514D01*
X212006Y64271D01*
Y66239D01*
X211514Y66731D01*
X210530D01*
X210038Y66239D01*
Y65747D01*
X210530Y65255D01*
X212006D01*
X210630Y79134D02*
Y82086D01*
X212106D01*
X212598Y81594D01*
Y80610D01*
X212106Y80118D01*
X210630D01*
X211614D02*
X212598Y79134D01*
X213582D02*
X214566D01*
X214074D01*
Y82086D01*
X213582Y81594D01*
X216042D02*
X216533Y82086D01*
X217517D01*
X218009Y81594D01*
Y79626D01*
X217517Y79134D01*
X216533D01*
X216042Y79626D01*
Y81594D01*
X12205Y162598D02*
X9253D01*
Y164074D01*
X9745Y164566D01*
X10729D01*
X11221Y164074D01*
Y162598D01*
X9253Y167518D02*
Y165550D01*
X10729D01*
X10237Y166534D01*
Y167026D01*
X10729Y167518D01*
X11713D01*
X12205Y167026D01*
Y166042D01*
X11713Y165550D01*
D48*
X109055Y65945D02*
Y71850D01*
X112205D01*
Y65945D02*
Y71850D01*
X109055Y65945D02*
X112205D01*
X99016Y68701D02*
Y73819D01*
X105709Y68701D02*
Y73819D01*
X99016D02*
X105709D01*
X99016Y68701D02*
X105709D01*
X251673Y89370D02*
X252461D01*
X252559Y84252D02*
Y92126D01*
X247441Y84252D02*
X252559D01*
X247441D02*
Y92126D01*
X252559D01*
X156496Y103347D02*
Y115157D01*
X162402D01*
Y103347D02*
Y115157D01*
X156496Y103347D02*
X162402D01*
X139173Y114567D02*
X145079D01*
Y111417D02*
Y114567D01*
X139173Y111417D02*
X145079D01*
X139173D02*
Y114567D01*
X166339Y103347D02*
Y115157D01*
X172244D01*
Y103347D02*
Y115157D01*
X166339Y103347D02*
X172244D01*
X15748Y68701D02*
X18898D01*
X15748Y62795D02*
Y68701D01*
Y62795D02*
X18898D01*
Y68701D01*
X23425Y56299D02*
Y59449D01*
X17520D02*
X23425D01*
X17520Y56299D02*
Y59449D01*
Y56299D02*
X23425D01*
X13386Y42126D02*
X16535D01*
X13386Y41732D02*
X16535D01*
X13386Y40551D02*
X16535D01*
Y45276D01*
X13386D02*
X16535D01*
X13386Y40551D02*
Y45276D01*
X23425Y50787D02*
Y53937D01*
X17520D02*
X23425D01*
X17520Y50787D02*
Y53937D01*
Y50787D02*
X23425D01*
X21260Y68701D02*
X24409D01*
X21260Y62795D02*
Y68701D01*
Y62795D02*
X24409D01*
Y68701D01*
X21850Y48425D02*
X27756D01*
Y45276D02*
Y48425D01*
X21850Y45276D02*
X27756D01*
X21850D02*
Y48425D01*
Y42913D02*
X27756D01*
Y39764D02*
Y42913D01*
X21850Y39764D02*
X27756D01*
X21850D02*
Y42913D01*
X172244Y175591D02*
Y178740D01*
X166339D02*
X172244D01*
X166339Y175591D02*
Y178740D01*
Y175591D02*
X172244D01*
Y185433D02*
Y188583D01*
X166339D02*
X172244D01*
X166339Y185433D02*
Y188583D01*
Y185433D02*
X172244D01*
X142126Y185039D02*
X145276D01*
X142126Y179134D02*
Y185039D01*
Y179134D02*
X145276D01*
Y185039D01*
X147638Y191339D02*
Y194488D01*
Y191339D02*
X153543D01*
Y194488D01*
X147638D02*
X153543D01*
X222441Y166535D02*
X245276D01*
X219291Y157874D02*
Y163386D01*
X245276Y157874D02*
Y166535D01*
X219291Y163386D02*
X222441Y166535D01*
X219291Y143701D02*
X222441Y140551D01*
X245276D02*
Y149213D01*
X219291Y143701D02*
Y149213D01*
X222441Y140551D02*
X245276D01*
X212598Y163779D02*
Y186614D01*
X203937Y189764D02*
X209449D01*
X203937Y163779D02*
X212598D01*
X209449Y189764D02*
X212598Y186614D01*
X186614D02*
X189764Y189764D01*
X186614Y163779D02*
X195276D01*
X189764Y189764D02*
X195276D01*
X186614Y163779D02*
Y186614D01*
X49213Y113189D02*
Y125000D01*
X55118D01*
Y113189D02*
Y125000D01*
X49213Y113189D02*
X55118D01*
X39370D02*
Y125000D01*
X45276D01*
Y113189D02*
Y125000D01*
X39370Y113189D02*
X45276D01*
X169291Y85827D02*
Y97638D01*
X163386Y85827D02*
X169291D01*
X163386D02*
Y97638D01*
X169291D01*
X55118Y91535D02*
Y103347D01*
X49213Y91535D02*
X55118D01*
X49213D02*
Y103347D01*
X55118D01*
X159449Y85827D02*
Y97638D01*
X153543Y85827D02*
X159449D01*
X153543D02*
Y97638D01*
X159449D01*
X45276Y91535D02*
Y103347D01*
X39370Y91535D02*
X45276D01*
X39370D02*
Y103347D01*
X45276D01*
X202658Y98622D02*
X244587D01*
X202658Y136614D02*
X244587D01*
X202658Y98622D02*
Y136614D01*
X244587Y98622D02*
Y136614D01*
X147047Y138583D02*
X150197D01*
X147047Y132677D02*
Y138583D01*
Y132677D02*
X150197D01*
Y138583D01*
X77756Y127362D02*
Y130512D01*
X71850D02*
X77756D01*
X71850Y127362D02*
Y130512D01*
Y127362D02*
X77756D01*
X133268Y124803D02*
X136417D01*
Y130709D01*
X133268D02*
X136417D01*
X133268Y124803D02*
Y130709D01*
X71850Y121850D02*
Y125000D01*
Y121850D02*
X77756D01*
Y125000D01*
X71850D02*
X77756D01*
Y116929D02*
Y120079D01*
X71850D02*
X77756D01*
X71850Y116929D02*
Y120079D01*
Y116929D02*
X77756D01*
Y132283D02*
Y135433D01*
X71850D02*
X77756D01*
X71850Y132283D02*
Y135433D01*
Y132283D02*
X77756D01*
X60433Y103347D02*
X65551D01*
X60433Y95473D02*
Y103347D01*
Y95473D02*
X65551D01*
Y103347D01*
X64665Y100591D02*
X65453D01*
X143110Y103347D02*
X148228D01*
X143110Y95472D02*
Y103347D01*
Y95472D02*
X148228D01*
Y103347D01*
X147343Y100591D02*
X148130D01*
X139173Y125787D02*
X144291D01*
X139173Y117913D02*
Y125787D01*
Y117913D02*
X144291D01*
Y125787D01*
X143405Y123031D02*
X144193D01*
X134646Y110236D02*
Y115354D01*
X126772D02*
X134646D01*
X126772Y110236D02*
Y115354D01*
Y110236D02*
X134646D01*
X131890Y110335D02*
Y111122D01*
X60433Y122047D02*
X65551D01*
X60433Y114173D02*
Y122047D01*
Y114173D02*
X65551D01*
Y122047D01*
X64665Y119291D02*
X65453D01*
X69783Y107874D02*
Y112992D01*
Y107874D02*
X77657D01*
Y112992D01*
X69783D02*
X77657D01*
X72539Y112106D02*
Y112894D01*
X197835Y75984D02*
X202953D01*
X197835Y68110D02*
Y75984D01*
Y68110D02*
X202953D01*
Y75984D01*
X202067Y73228D02*
X202854D01*
X147047Y117913D02*
X152165D01*
Y125787D01*
X147047D02*
X152165D01*
X147047Y117913D02*
Y125787D01*
X147146Y120669D02*
X147933D01*
X126181Y81102D02*
Y86221D01*
X118307D02*
X126181D01*
X118307Y81102D02*
Y86221D01*
Y81102D02*
X126181D01*
X123425Y81201D02*
Y81988D01*
X139173Y82677D02*
X144291D01*
Y90551D01*
X139173D02*
X144291D01*
X139173Y82677D02*
Y90551D01*
X139272Y85433D02*
X140059D01*
X78740Y81102D02*
Y86221D01*
Y81102D02*
X86614D01*
Y86221D01*
X78740D02*
X86614D01*
X81496Y85335D02*
Y86122D01*
X60433Y82677D02*
X65551D01*
Y90551D01*
X60433D02*
X65551D01*
X60433Y82677D02*
Y90551D01*
X60532Y85433D02*
X61319D01*
X80709Y32874D02*
Y37992D01*
X72835D02*
X80709D01*
X72835Y32874D02*
Y37992D01*
Y32874D02*
X80709D01*
X77953Y32972D02*
Y33760D01*
X37402Y32874D02*
Y37992D01*
Y32874D02*
X45276D01*
Y37992D01*
X37402D02*
X45276D01*
X40157Y37106D02*
Y37894D01*
X167323Y32874D02*
Y37992D01*
X159449D02*
X167323D01*
X159449Y32874D02*
Y37992D01*
Y32874D02*
X167323D01*
X164567Y32972D02*
Y33760D01*
X124016Y32874D02*
Y37992D01*
Y32874D02*
X131890D01*
Y37992D01*
X124016D02*
X131890D01*
X126772Y37106D02*
Y37894D01*
X237992Y68504D02*
X243110D01*
Y76378D01*
X237992D02*
X243110D01*
X237992Y68504D02*
Y76378D01*
X238091Y71260D02*
X238878D01*
X144882Y135827D02*
Y140157D01*
X138583D02*
X144882D01*
X138583Y129134D02*
Y140157D01*
Y129134D02*
X144882D01*
Y133465D01*
Y135827D01*
X138583Y133465D02*
Y135827D01*
X148425Y113583D02*
X151575D01*
X148425Y107677D02*
Y113583D01*
Y107677D02*
X151575D01*
Y113583D01*
X248425Y179134D02*
X251575D01*
X248425Y173228D02*
Y179134D01*
Y173228D02*
X251575D01*
Y179134D01*
X231299Y185433D02*
Y188583D01*
Y185433D02*
X237205D01*
Y188583D01*
X231299D02*
X237205D01*
X232283Y67520D02*
X235433D01*
Y73425D01*
X232283D02*
X235433D01*
X232283Y67520D02*
Y73425D01*
X228937Y74409D02*
Y77559D01*
X223031D02*
X228937D01*
X223031Y74409D02*
Y77559D01*
Y74409D02*
X228937D01*
X207283Y68898D02*
Y72047D01*
Y68898D02*
X213189D01*
Y72047D01*
X207283D02*
X213189D01*
X212795Y74409D02*
Y77559D01*
Y74409D02*
X218701D01*
Y77559D01*
X212795D02*
X218701D01*
X187008Y36220D02*
X209842D01*
X183858Y39370D02*
Y44882D01*
X209842Y36220D02*
Y44882D01*
X183858Y39370D02*
X187008Y36220D01*
X183858Y59055D02*
X187008Y62205D01*
X209842Y53543D02*
Y62205D01*
X183858Y53543D02*
Y59055D01*
X187008Y62205D02*
X209842D01*
X61890Y78465D02*
X87717D01*
X61890Y53425D02*
X87717D01*
Y78465D01*
X61890Y53425D02*
Y78465D01*
X33346Y66654D02*
X59173D01*
X33346Y41614D02*
X59173D01*
Y66654D01*
X33346Y41614D02*
Y66654D01*
X145551D02*
X171378D01*
X145551Y41614D02*
X171378D01*
Y66654D01*
X145551Y41614D02*
Y66654D01*
X117008Y78465D02*
X142835D01*
X117008Y53425D02*
X142835D01*
Y78465D01*
X117008Y53425D02*
Y78465D01*
X99606Y72440D02*
Y70472D01*
X100000Y70079D01*
X100787D01*
X101181Y70472D01*
Y72440D01*
X103148Y70079D02*
Y72440D01*
X101968Y71259D01*
X103542D01*
M02*
